G04*
G04 #@! TF.GenerationSoftware,Altium Limited,Altium Designer,25.0.2 (28)*
G04*
G04 Layer_Physical_Order=3*
G04 Layer_Color=36540*
%FSLAX25Y25*%
%MOIN*%
G70*
G04*
G04 #@! TF.SameCoordinates,324F7660-DA8E-4942-B91F-9937254DA12D*
G04*
G04*
G04 #@! TF.FilePolarity,Positive*
G04*
G01*
G75*
%ADD12C,0.01000*%
%ADD14C,0.00400*%
%ADD15C,0.00500*%
%ADD90C,0.00787*%
%ADD93C,0.01500*%
%ADD95C,0.00389*%
%ADD96C,0.00700*%
%ADD101C,0.00800*%
%ADD103O,0.07100X0.03900*%
%ADD104O,0.08700X0.03900*%
%ADD105C,0.06299*%
%ADD106R,0.06299X0.06299*%
%ADD107C,0.01181*%
%ADD108C,0.00984*%
%ADD109C,0.02000*%
%ADD110C,0.01772*%
%ADD111C,0.01378*%
G36*
X569278Y341065D02*
X568978Y341005D01*
X568877Y341249D01*
X568455Y341671D01*
X567903Y341899D01*
X567307D01*
X566755Y341671D01*
X566333Y341249D01*
X566105Y340697D01*
Y340101D01*
X566333Y339549D01*
X566755Y339127D01*
X567307Y338899D01*
X567903D01*
X568455Y339127D01*
X568877Y339549D01*
X568978Y339793D01*
X569278Y339733D01*
Y332971D01*
X568978Y332846D01*
X568652Y333172D01*
X568101Y333400D01*
X567504D01*
X566953Y333172D01*
X566531Y332750D01*
X566303Y332198D01*
Y331602D01*
X566531Y331050D01*
X566953Y330628D01*
X567504Y330400D01*
X568101D01*
X568652Y330628D01*
X568978Y330954D01*
X569278Y330829D01*
Y256686D01*
X452603D01*
Y470006D01*
X569278D01*
Y341065D01*
D02*
G37*
%LPC*%
G36*
X457684Y466687D02*
X456723D01*
X455795Y466438D01*
X454963Y465957D01*
X454283Y465278D01*
X453803Y464446D01*
X453554Y463517D01*
Y462557D01*
X453803Y461628D01*
X454283Y460796D01*
X454963Y460117D01*
X455795Y459636D01*
X456723Y459387D01*
X457684D01*
X458612Y459636D01*
X459445Y460117D01*
X460124Y460796D01*
X460605Y461628D01*
X460853Y462557D01*
Y463517D01*
X460605Y464446D01*
X460124Y465278D01*
X459445Y465957D01*
X458612Y466438D01*
X457684Y466687D01*
D02*
G37*
G36*
X556783Y458395D02*
X556186D01*
X555635Y458167D01*
X555213Y457745D01*
X554985Y457193D01*
Y456597D01*
X555213Y456045D01*
X555635Y455623D01*
X556186Y455395D01*
X556783D01*
X557334Y455623D01*
X557756Y456045D01*
X557985Y456597D01*
Y457193D01*
X557756Y457745D01*
X557334Y458167D01*
X556783Y458395D01*
D02*
G37*
G36*
X561303Y458333D02*
X560706D01*
X560155Y458104D01*
X559733Y457682D01*
X559505Y457131D01*
Y456534D01*
X559733Y455983D01*
X560155Y455561D01*
X560706Y455333D01*
X561303D01*
X561854Y455561D01*
X562276Y455983D01*
X562505Y456534D01*
Y457131D01*
X562276Y457682D01*
X561854Y458104D01*
X561303Y458333D01*
D02*
G37*
G36*
X460753Y456587D02*
X457704D01*
Y453537D01*
X460753D01*
Y456587D01*
D02*
G37*
G36*
X456704D02*
X453654D01*
Y453537D01*
X456704D01*
Y456587D01*
D02*
G37*
G36*
X529616Y453851D02*
X529182D01*
X528781Y453685D01*
X528651Y453554D01*
X528456Y453393D01*
X528259Y453554D01*
X528130Y453683D01*
X527729Y453849D01*
X527295D01*
X526894Y453683D01*
X526587Y453376D01*
X526421Y452976D01*
Y452542D01*
X526587Y452141D01*
X526739Y451989D01*
X526852Y451769D01*
X526739Y451597D01*
X526565Y451423D01*
X526399Y451022D01*
Y450588D01*
X526565Y450187D01*
X526871Y449881D01*
X527272Y449715D01*
X527706D01*
X528107Y449881D01*
X528286Y450059D01*
X528541Y450114D01*
X528663Y450044D01*
X528890Y449817D01*
X529291Y449651D01*
X529725D01*
X530126Y449817D01*
X530433Y450124D01*
X530599Y450525D01*
Y450958D01*
X530433Y451359D01*
X530182Y451610D01*
X530128Y451684D01*
X530158Y451977D01*
X530324Y452143D01*
X530489Y452543D01*
Y452977D01*
X530324Y453378D01*
X530017Y453685D01*
X529616Y453851D01*
D02*
G37*
G36*
X565395Y455025D02*
X564798D01*
X564247Y454797D01*
X563825Y454375D01*
X563596Y453824D01*
Y453227D01*
X563825Y452676D01*
X564247Y452254D01*
X564798Y452025D01*
X565395D01*
X565946Y452254D01*
X566368Y452676D01*
X566597Y453227D01*
Y453824D01*
X566368Y454375D01*
X565946Y454797D01*
X565395Y455025D01*
D02*
G37*
G36*
X460753Y452537D02*
X457704D01*
Y449487D01*
X460753D01*
Y452537D01*
D02*
G37*
G36*
X456704D02*
X453654D01*
Y449487D01*
X456704D01*
Y452537D01*
D02*
G37*
G36*
X503325Y447195D02*
X502773D01*
X502264Y446984D01*
X501874Y446594D01*
X501663Y446085D01*
Y445533D01*
X501874Y445024D01*
X502264Y444634D01*
X502773Y444423D01*
X503325D01*
X503834Y444634D01*
X504030Y444830D01*
X504237Y445011D01*
X504422Y444830D01*
X504630Y444623D01*
X505139Y444412D01*
X505690D01*
X506200Y444623D01*
X506589Y445013D01*
X506800Y445522D01*
Y446073D01*
X506589Y446583D01*
X506200Y446973D01*
X505690Y447184D01*
X505139D01*
X504630Y446973D01*
X504433Y446776D01*
X504226Y446596D01*
X504041Y446776D01*
X503834Y446984D01*
X503325Y447195D01*
D02*
G37*
G36*
X536248Y456249D02*
X535775D01*
X535338Y456068D01*
X535003Y455733D01*
X534822Y455296D01*
Y454823D01*
X535003Y454386D01*
X535100Y454289D01*
Y447543D01*
X530874Y443317D01*
X530597Y443432D01*
Y446321D01*
X533348Y449072D01*
X533546Y449368D01*
X533615Y449716D01*
Y450753D01*
X533546Y451102D01*
X533348Y451397D01*
X533308Y451438D01*
Y452069D01*
X533348Y452110D01*
X533546Y452406D01*
X533615Y452754D01*
Y454289D01*
X533712Y454386D01*
X533893Y454823D01*
Y455296D01*
X533712Y455733D01*
X533378Y456068D01*
X532941Y456249D01*
X532468D01*
X532031Y456068D01*
X531696Y455733D01*
X531515Y455296D01*
Y454823D01*
X531696Y454386D01*
X531793Y454289D01*
Y453131D01*
X531752Y453091D01*
X531555Y452795D01*
X531486Y452447D01*
Y451061D01*
X531555Y450712D01*
X531752Y450417D01*
X531793Y450376D01*
Y450094D01*
X529042Y447343D01*
X528844Y447047D01*
X528775Y446699D01*
Y446412D01*
X528561Y446319D01*
X528475Y446311D01*
X525438Y449348D01*
X525207Y449503D01*
X524933Y449557D01*
X524861D01*
X524828Y449578D01*
X524796Y449570D01*
X524767Y449584D01*
X524732Y449586D01*
X524728Y449586D01*
X524725Y449587D01*
X524722Y449588D01*
X524718Y449590D01*
X524711Y449595D01*
X524699Y449604D01*
X524685Y449618D01*
X524667Y449638D01*
X524634Y449680D01*
X524544Y449733D01*
X524318Y449958D01*
X523881Y450139D01*
X523408D01*
X522971Y449958D01*
X522636Y449624D01*
X522455Y449187D01*
Y448714D01*
X522636Y448277D01*
X522971Y447942D01*
X523408Y447761D01*
X523881D01*
X524312Y447940D01*
X524360Y447950D01*
X524474Y448027D01*
X524508Y448047D01*
X524544Y448065D01*
X524575Y448079D01*
X524603Y448089D01*
X524626Y448095D01*
X524646Y448099D01*
X524662Y448101D01*
X524666Y448102D01*
X526518Y446249D01*
X526394Y445949D01*
X526196D01*
X525796Y445783D01*
X525489Y445476D01*
X525323Y445076D01*
Y444642D01*
X525400Y444455D01*
X525226Y444194D01*
X524921Y444176D01*
X524167Y444930D01*
X523870Y445129D01*
X523519Y445198D01*
X522780D01*
X522727Y445222D01*
X522595Y445225D01*
X522505Y445232D01*
X522485Y445235D01*
X522477Y445237D01*
X522471Y445239D01*
X522469Y445239D01*
X522462Y445240D01*
X522414Y445289D01*
X521977Y445470D01*
X521504D01*
X521067Y445289D01*
X520732Y444954D01*
X520551Y444517D01*
Y444044D01*
X520732Y443607D01*
X521067Y443273D01*
X521504Y443092D01*
X521977D01*
X522414Y443273D01*
X522462Y443321D01*
X522469Y443323D01*
X522471Y443323D01*
X522477Y443325D01*
X522485Y443327D01*
X522501Y443329D01*
X522658Y443339D01*
X522720Y443340D01*
X522776Y443363D01*
X523139D01*
X523862Y442639D01*
X524160Y442441D01*
X524511Y442371D01*
X524767Y442422D01*
X525200D01*
X525401Y442122D01*
X525323Y441933D01*
Y441500D01*
X525489Y441099D01*
X525795Y440792D01*
X526196Y440626D01*
X526630D01*
X527031Y440792D01*
X527272Y441033D01*
X527435Y440869D01*
X527800Y440718D01*
X528195D01*
X528559Y440869D01*
X528664Y440974D01*
X529042Y440949D01*
X529338Y440751D01*
X529482Y440723D01*
X530039Y440166D01*
X530063Y440103D01*
X530087Y440078D01*
X530097Y440066D01*
X530104Y440057D01*
X530108Y440050D01*
X530110Y440047D01*
X530112Y440033D01*
X530147Y439969D01*
Y439939D01*
X530298Y439575D01*
X530578Y439295D01*
X530942Y439145D01*
X531337D01*
X531633Y439267D01*
X531877Y439189D01*
X531965Y439135D01*
X531967Y439128D01*
X532164Y438832D01*
X532623Y438374D01*
X532499Y438074D01*
X532483D01*
X532082Y437908D01*
X531775Y437601D01*
X531609Y437200D01*
Y436766D01*
X531775Y436365D01*
X532020Y436121D01*
X531880Y435981D01*
X531729Y435616D01*
Y435222D01*
X531841Y434953D01*
Y434764D01*
X531744Y434620D01*
X531667Y434230D01*
Y434037D01*
X531536Y433894D01*
X531237Y434010D01*
Y436229D01*
X531167Y436578D01*
X530970Y436873D01*
X530674Y437071D01*
X530557Y437094D01*
Y437189D01*
X530406Y437554D01*
X530126Y437833D01*
X529762Y437984D01*
X529367D01*
X529003Y437833D01*
X528778Y437609D01*
X528554Y437833D01*
X528189Y437984D01*
X527794D01*
X527430Y437833D01*
X527202Y437606D01*
X526975Y437833D01*
X526610Y437984D01*
X526216D01*
X525851Y437833D01*
X525572Y437554D01*
X525487Y437348D01*
X522665Y434527D01*
X517579D01*
X517482Y434624D01*
X517045Y434805D01*
X516572D01*
X516135Y434624D01*
X515801Y434289D01*
X515620Y433852D01*
Y433379D01*
X515801Y432942D01*
X516135Y432608D01*
X516572Y432427D01*
X517045D01*
X517482Y432608D01*
X517579Y432705D01*
X519212D01*
X519327Y432428D01*
X519281Y432382D01*
X519100Y431945D01*
Y431472D01*
X519281Y431035D01*
X519616Y430700D01*
X520053Y430519D01*
X520526D01*
X520963Y430700D01*
X521297Y431035D01*
X521407Y431300D01*
X521654Y431547D01*
X523460D01*
X523809Y431617D01*
X524104Y431814D01*
X526793Y434503D01*
X527583D01*
X527794Y434415D01*
X527933D01*
X528058Y434116D01*
X525772Y431830D01*
X525574Y431534D01*
X525505Y431185D01*
Y428930D01*
X525205Y428806D01*
X525102Y428909D01*
X524701Y429075D01*
X524267D01*
X523867Y428909D01*
X523736Y428779D01*
X523542Y428617D01*
X523344Y428779D01*
X523215Y428907D01*
X522814Y429073D01*
X522380D01*
X521980Y428907D01*
X521673Y428601D01*
X521507Y428200D01*
Y427766D01*
X521673Y427365D01*
X521824Y427214D01*
X521937Y426993D01*
X521824Y426822D01*
X521650Y426647D01*
X521484Y426246D01*
Y425813D01*
X521650Y425412D01*
X521957Y425105D01*
X522358Y424939D01*
X522791D01*
X523192Y425105D01*
X523371Y425284D01*
X523626Y425339D01*
X523748Y425269D01*
X523976Y425041D01*
X524376Y424875D01*
X524810D01*
X525211Y425041D01*
X525228Y425058D01*
X525505Y424943D01*
Y419342D01*
X512255Y406092D01*
X495753D01*
X495405Y406022D01*
X495109Y405825D01*
X493214Y403929D01*
X493077D01*
X492639Y403748D01*
X492305Y403414D01*
X492124Y402977D01*
Y402504D01*
X492305Y402067D01*
X492639Y401732D01*
X493077Y401551D01*
X493549D01*
X493987Y401732D01*
X494321Y402067D01*
X494502Y402504D01*
Y402641D01*
X496131Y404270D01*
X512632D01*
X512981Y404339D01*
X513276Y404536D01*
X527060Y418321D01*
X527258Y418616D01*
X527327Y418965D01*
Y430808D01*
X529137Y432619D01*
X529415Y432504D01*
Y413345D01*
X529484Y412997D01*
X529681Y412701D01*
X531042Y411341D01*
Y411203D01*
X531223Y410767D01*
X531557Y410432D01*
X531994Y410251D01*
X532467D01*
X532904Y410432D01*
X533239Y410767D01*
X533420Y411203D01*
Y411677D01*
X533239Y412114D01*
X532904Y412448D01*
X532467Y412629D01*
X532330D01*
X531237Y413723D01*
Y424727D01*
X531486Y424894D01*
X531521Y424879D01*
X531954D01*
X532355Y425045D01*
X532534Y425224D01*
X532789Y425279D01*
X532911Y425209D01*
X533139Y424982D01*
X533539Y424816D01*
X533973D01*
X534374Y424982D01*
X534681Y425289D01*
X534847Y425689D01*
Y426123D01*
X534681Y426524D01*
X534431Y426774D01*
X534376Y426849D01*
X534407Y427142D01*
X534572Y427307D01*
X534738Y427708D01*
Y428142D01*
X534572Y428543D01*
X534265Y428850D01*
X533864Y429016D01*
X533430D01*
X533030Y428850D01*
X532899Y428719D01*
X532705Y428558D01*
X532507Y428719D01*
X532378Y428848D01*
X531977Y429014D01*
X531543D01*
X531486Y428990D01*
X531237Y429157D01*
Y432684D01*
X531368Y432728D01*
X531536Y432733D01*
X531785Y432361D01*
X532664Y431483D01*
X533077Y431206D01*
X533565Y431109D01*
X535218D01*
X537051Y429276D01*
Y426537D01*
X536939Y426268D01*
Y425717D01*
X537150Y425208D01*
X537540Y424818D01*
X538050Y424607D01*
X538601D01*
X539110Y424818D01*
X539500Y425208D01*
X539711Y425717D01*
Y426268D01*
X539600Y426537D01*
Y429804D01*
X539503Y430292D01*
X539226Y430705D01*
X536647Y433285D01*
X536233Y433561D01*
X535746Y433658D01*
X534093D01*
X533706Y434045D01*
Y434230D01*
X533628Y434620D01*
X533574Y434701D01*
Y434884D01*
X533714Y435222D01*
Y435616D01*
X533563Y435981D01*
X533401Y436142D01*
X533624Y436365D01*
X533790Y436766D01*
Y437200D01*
X533721Y437367D01*
X533921Y437668D01*
X537660D01*
X537757Y437570D01*
X538194Y437390D01*
X538667D01*
X539104Y437570D01*
X539439Y437905D01*
X539597Y438287D01*
X546620Y445310D01*
X546926D01*
X547363Y445491D01*
X547698Y445826D01*
X547879Y446263D01*
Y446736D01*
X547698Y447173D01*
X547363Y447507D01*
X546926Y447688D01*
X546453D01*
X546016Y447507D01*
X545682Y447173D01*
X545524Y446791D01*
X538501Y439768D01*
X538194D01*
X537757Y439586D01*
X537660Y439490D01*
X535524D01*
X535324Y439789D01*
X535379Y439923D01*
Y440357D01*
X535213Y440758D01*
X534906Y441065D01*
X534506Y441231D01*
X534072D01*
X534053Y441223D01*
X533790Y441439D01*
X533798Y441477D01*
X533805Y441495D01*
Y441515D01*
X533826Y441622D01*
X533805Y441729D01*
Y441929D01*
X533639Y442330D01*
X533332Y442637D01*
X533185Y442698D01*
X533126Y442992D01*
X536655Y446521D01*
X536853Y446817D01*
X536922Y447165D01*
Y454289D01*
X537019Y454386D01*
X537200Y454823D01*
Y455296D01*
X537019Y455733D01*
X536685Y456068D01*
X536248Y456249D01*
D02*
G37*
G36*
X514247Y440836D02*
X513695D01*
X513186Y440625D01*
X512796Y440235D01*
X512585Y439726D01*
Y439175D01*
X512796Y438665D01*
X513186Y438275D01*
X513695Y438064D01*
X514247D01*
X514756Y438275D01*
X514976Y438495D01*
X515330Y438425D01*
X515355Y438363D01*
X515745Y437974D01*
X516254Y437763D01*
X516805D01*
X517315Y437974D01*
X517705Y438363D01*
X517915Y438873D01*
Y439424D01*
X517705Y439933D01*
X517315Y440323D01*
X516805Y440534D01*
X516254D01*
X515745Y440323D01*
X515525Y440103D01*
X515171Y440174D01*
X515146Y440235D01*
X514756Y440625D01*
X514247Y440836D01*
D02*
G37*
G36*
X551890Y442046D02*
X551338D01*
X550829Y441835D01*
X550439Y441445D01*
X550228Y440936D01*
Y440384D01*
X550439Y439875D01*
X550829Y439485D01*
X551158Y439349D01*
X551017Y439009D01*
Y438458D01*
X551228Y437949D01*
X551618Y437559D01*
X552127Y437348D01*
X552678D01*
X553188Y437559D01*
X553578Y437949D01*
X553789Y438458D01*
Y439009D01*
X553578Y439519D01*
X553188Y439909D01*
X552859Y440045D01*
X553000Y440384D01*
Y440936D01*
X552789Y441445D01*
X552399Y441835D01*
X551890Y442046D01*
D02*
G37*
G36*
X503988Y439899D02*
X503437D01*
X502927Y439688D01*
X502538Y439298D01*
X502327Y438789D01*
Y438237D01*
X502538Y437728D01*
X502927Y437338D01*
X503437Y437127D01*
X503988D01*
X504497Y437338D01*
X504887Y437728D01*
X505098Y438237D01*
Y438789D01*
X504887Y439298D01*
X504497Y439688D01*
X503988Y439899D01*
D02*
G37*
G36*
X479385Y441155D02*
X476185D01*
X475229Y440965D01*
X474418Y440424D01*
X473877Y439613D01*
X473687Y438657D01*
X473877Y437702D01*
X474418Y436891D01*
X475229Y436349D01*
X476185Y436159D01*
X479385D01*
X480340Y436349D01*
X481151Y436891D01*
X481692Y437702D01*
X481883Y438657D01*
X481692Y439613D01*
X481151Y440424D01*
X480340Y440965D01*
X479385Y441155D01*
D02*
G37*
G36*
X464436D02*
X459636D01*
X458681Y440965D01*
X457870Y440424D01*
X457329Y439613D01*
X457138Y438657D01*
X457329Y437702D01*
X457870Y436891D01*
X458681Y436349D01*
X459636Y436159D01*
X464436D01*
X465392Y436349D01*
X466203Y436891D01*
X466744Y437702D01*
X466934Y438657D01*
X466744Y439613D01*
X466203Y440424D01*
X465392Y440965D01*
X464436Y441155D01*
D02*
G37*
G36*
X498043Y428811D02*
X497492D01*
X496983Y428600D01*
X496593Y428210D01*
X496382Y427701D01*
Y427149D01*
X496593Y426640D01*
X496983Y426250D01*
X497492Y426039D01*
X498043D01*
X498553Y426250D01*
X498943Y426640D01*
X499154Y427149D01*
Y427701D01*
X498943Y428210D01*
X498553Y428600D01*
X498043Y428811D01*
D02*
G37*
G36*
X551393Y427078D02*
X550841D01*
X550332Y426867D01*
X549942Y426478D01*
X549731Y425968D01*
Y425417D01*
X549942Y424908D01*
X550332Y424518D01*
X550841Y424307D01*
X551393D01*
X551902Y424518D01*
X552292Y424908D01*
X552503Y425417D01*
Y425968D01*
X552292Y426478D01*
X551902Y426867D01*
X551393Y427078D01*
D02*
G37*
G36*
X543145Y426857D02*
X542594D01*
X542085Y426646D01*
X541695Y426256D01*
X541484Y425747D01*
Y425196D01*
X541695Y424686D01*
X542085Y424297D01*
X542594Y424086D01*
X543145D01*
X543655Y424297D01*
X544045Y424686D01*
X544255Y425196D01*
Y425747D01*
X544045Y426256D01*
X543655Y426646D01*
X543145Y426857D01*
D02*
G37*
G36*
X551361Y423122D02*
X550810D01*
X550300Y422911D01*
X549911Y422521D01*
X549700Y422012D01*
Y421460D01*
X549911Y420951D01*
X550300Y420561D01*
X550810Y420350D01*
X551361D01*
X551870Y420561D01*
X552260Y420951D01*
X552471Y421460D01*
Y422012D01*
X552260Y422521D01*
X551870Y422911D01*
X551361Y423122D01*
D02*
G37*
G36*
X539203Y422548D02*
X538652D01*
X538142Y422337D01*
X537752Y421947D01*
X537541Y421438D01*
Y420887D01*
X537752Y420377D01*
X538142Y419987D01*
X538652Y419776D01*
X538868D01*
X538928Y419476D01*
X538626Y419351D01*
X538236Y418961D01*
X538025Y418452D01*
Y417901D01*
X538236Y417391D01*
X538626Y417002D01*
X538766Y416943D01*
Y416643D01*
X538659Y416599D01*
X538270Y416209D01*
X538059Y415700D01*
Y415148D01*
X538270Y414639D01*
X538659Y414249D01*
X539169Y414038D01*
X539720D01*
X540229Y414249D01*
X540619Y414639D01*
X540830Y415148D01*
Y415700D01*
X540619Y416209D01*
X540229Y416599D01*
X540089Y416657D01*
Y416957D01*
X540196Y417002D01*
X540586Y417391D01*
X540797Y417901D01*
Y418452D01*
X540586Y418961D01*
X540196Y419351D01*
X539687Y419562D01*
X539470D01*
X539410Y419862D01*
X539712Y419987D01*
X540102Y420377D01*
X540313Y420887D01*
Y421438D01*
X540102Y421947D01*
X539712Y422337D01*
X539203Y422548D01*
D02*
G37*
G36*
X543590Y422365D02*
X543039D01*
X542529Y422154D01*
X542139Y421764D01*
X541928Y421254D01*
Y420703D01*
X542139Y420194D01*
X542529Y419804D01*
X542721Y419724D01*
Y419400D01*
X542604Y419351D01*
X542214Y418961D01*
X542003Y418452D01*
Y417901D01*
X542214Y417391D01*
X542604Y417002D01*
X542779Y416929D01*
Y416604D01*
X542646Y416549D01*
X542256Y416159D01*
X542045Y415650D01*
Y415098D01*
X542256Y414589D01*
X542646Y414199D01*
X543155Y413988D01*
X543707D01*
X544216Y414199D01*
X544606Y414589D01*
X544817Y415098D01*
Y415650D01*
X544606Y416159D01*
X544216Y416549D01*
X544041Y416621D01*
Y416946D01*
X544174Y417002D01*
X544564Y417391D01*
X544775Y417901D01*
Y418452D01*
X544564Y418961D01*
X544174Y419351D01*
X543982Y419431D01*
Y419756D01*
X544099Y419804D01*
X544489Y420194D01*
X544700Y420703D01*
Y421254D01*
X544489Y421764D01*
X544099Y422154D01*
X543590Y422365D01*
D02*
G37*
G36*
X547643Y419562D02*
X547092D01*
X546583Y419351D01*
X546193Y418961D01*
X545982Y418452D01*
Y417901D01*
X546193Y417391D01*
X546583Y417002D01*
X546911Y416865D01*
Y416541D01*
X546649Y416432D01*
X546259Y416042D01*
X546048Y415533D01*
Y414982D01*
X546259Y414472D01*
X546649Y414082D01*
X547159Y413871D01*
X547710D01*
X548219Y414082D01*
X548609Y414472D01*
X548820Y414982D01*
Y415533D01*
X548609Y416042D01*
X548219Y416432D01*
X547891Y416568D01*
Y416893D01*
X548152Y417002D01*
X548542Y417391D01*
X548753Y417901D01*
Y418452D01*
X548542Y418961D01*
X548152Y419351D01*
X547643Y419562D01*
D02*
G37*
G36*
X551686Y416018D02*
X551135D01*
X550625Y415807D01*
X550236Y415417D01*
X550025Y414908D01*
Y414356D01*
X550236Y413847D01*
X550625Y413457D01*
X551135Y413246D01*
X551686D01*
X552195Y413457D01*
X552585Y413847D01*
X552796Y414356D01*
Y414908D01*
X552585Y415417D01*
X552195Y415807D01*
X551686Y416018D01*
D02*
G37*
G36*
X547176Y413124D02*
X546625D01*
X546115Y412913D01*
X545726Y412523D01*
X545515Y412013D01*
Y411462D01*
X545726Y410953D01*
X546115Y410563D01*
X546625Y410352D01*
X547176D01*
X547685Y410563D01*
X548075Y410953D01*
X548286Y411462D01*
Y412013D01*
X548075Y412523D01*
X547685Y412913D01*
X547176Y413124D01*
D02*
G37*
G36*
X542625Y413100D02*
X542074D01*
X541565Y412889D01*
X541175Y412499D01*
X540964Y411989D01*
Y411438D01*
X541175Y410929D01*
X541565Y410539D01*
X542074Y410328D01*
X542625D01*
X543135Y410539D01*
X543525Y410929D01*
X543736Y411438D01*
Y411989D01*
X543525Y412499D01*
X543135Y412889D01*
X542625Y413100D01*
D02*
G37*
G36*
X479385Y407140D02*
X476185D01*
X475229Y406950D01*
X474418Y406408D01*
X473877Y405598D01*
X473687Y404642D01*
X473877Y403686D01*
X474418Y402875D01*
X475229Y402334D01*
X476185Y402144D01*
X479385D01*
X480340Y402334D01*
X481151Y402875D01*
X481692Y403686D01*
X481883Y404642D01*
X481692Y405598D01*
X481151Y406408D01*
X480340Y406950D01*
X479385Y407140D01*
D02*
G37*
G36*
X464436D02*
X459636D01*
X458681Y406950D01*
X457870Y406408D01*
X457329Y405598D01*
X457138Y404642D01*
X457329Y403686D01*
X457870Y402875D01*
X458681Y402334D01*
X459636Y402144D01*
X464436D01*
X465392Y402334D01*
X466203Y402875D01*
X466744Y403686D01*
X466934Y404642D01*
X466744Y405598D01*
X466203Y406408D01*
X465392Y406950D01*
X464436Y407140D01*
D02*
G37*
G36*
X513947Y398358D02*
X513350D01*
X512799Y398130D01*
X512543Y397875D01*
X512288Y398130D01*
X511737Y398358D01*
X511140D01*
X510589Y398130D01*
X510167Y397708D01*
X509938Y397157D01*
Y396560D01*
X510167Y396009D01*
X510589Y395587D01*
X511140Y395358D01*
X511737D01*
X512288Y395587D01*
X512543Y395842D01*
X512799Y395587D01*
X513350Y395358D01*
X513947D01*
X514498Y395587D01*
X514920Y396009D01*
X515148Y396560D01*
Y397157D01*
X514920Y397708D01*
X514498Y398130D01*
X513947Y398358D01*
D02*
G37*
G36*
X463143Y394207D02*
X462592D01*
X462082Y393996D01*
X461692Y393606D01*
X461481Y393097D01*
Y392546D01*
X461692Y392037D01*
X462082Y391647D01*
X462592Y391436D01*
X463143D01*
X463652Y391647D01*
X464042Y392037D01*
X464253Y392546D01*
Y393097D01*
X464042Y393606D01*
X463652Y393996D01*
X463143Y394207D01*
D02*
G37*
G36*
X459658Y397252D02*
X459107D01*
X458598Y397042D01*
X458208Y396652D01*
X457997Y396142D01*
Y395591D01*
X458208Y395082D01*
X458598Y394692D01*
X459098Y394484D01*
X459110Y394448D01*
X459131Y394181D01*
X458686Y393996D01*
X458296Y393606D01*
X458085Y393097D01*
Y392546D01*
X458296Y392037D01*
X458686Y391647D01*
X459195Y391436D01*
X459746D01*
X460256Y391647D01*
X460645Y392037D01*
X460856Y392546D01*
Y393097D01*
X460645Y393606D01*
X460256Y393996D01*
X459755Y394204D01*
X459744Y394240D01*
X459722Y394507D01*
X460168Y394692D01*
X460558Y395082D01*
X460769Y395591D01*
Y396142D01*
X460558Y396652D01*
X460168Y397042D01*
X459658Y397252D01*
D02*
G37*
G36*
X456350Y394207D02*
X455798D01*
X455289Y393996D01*
X454899Y393606D01*
X454688Y393097D01*
Y392546D01*
X454899Y392037D01*
X455289Y391647D01*
X455798Y391436D01*
X456350D01*
X456859Y391647D01*
X457249Y392037D01*
X457460Y392546D01*
Y393097D01*
X457249Y393606D01*
X456859Y393996D01*
X456350Y394207D01*
D02*
G37*
G36*
X483809Y394051D02*
X483257D01*
X482748Y393840D01*
X482358Y393451D01*
X482147Y392941D01*
Y392390D01*
X482358Y391881D01*
X482748Y391491D01*
X483257Y391280D01*
X483809D01*
X484318Y391491D01*
X484708Y391881D01*
X484919Y392390D01*
Y392941D01*
X484708Y393451D01*
X484318Y393840D01*
X483809Y394051D01*
D02*
G37*
G36*
X534761Y393318D02*
X534164D01*
X533613Y393090D01*
X533191Y392668D01*
X532963Y392116D01*
Y391519D01*
X533191Y390968D01*
X533613Y390546D01*
X534164Y390318D01*
X534761D01*
X535312Y390546D01*
X535734Y390968D01*
X535963Y391519D01*
Y392116D01*
X535734Y392668D01*
X535312Y393090D01*
X534761Y393318D01*
D02*
G37*
G36*
X498299Y393408D02*
X497865D01*
X497465Y393242D01*
X497158Y392935D01*
X496992Y392534D01*
Y392100D01*
X497158Y391700D01*
X497465Y391393D01*
X497830Y391241D01*
X497863Y391119D01*
X497860Y390929D01*
X497707Y390865D01*
X497400Y390559D01*
X497234Y390158D01*
Y389724D01*
X497400Y389323D01*
X497707Y389016D01*
X498107Y388850D01*
X498541D01*
X498942Y389016D01*
X499249Y389323D01*
X499415Y389724D01*
Y390158D01*
X499249Y390559D01*
X498942Y390865D01*
X498577Y391017D01*
X498543Y391139D01*
X498547Y391329D01*
X498700Y391393D01*
X499007Y391700D01*
X499173Y392100D01*
Y392534D01*
X499007Y392935D01*
X498700Y393242D01*
X498299Y393408D01*
D02*
G37*
G36*
X492450Y392384D02*
X492016D01*
X491615Y392218D01*
X491308Y391911D01*
X491142Y391510D01*
Y391076D01*
X491308Y390675D01*
X491615Y390369D01*
X491626Y390315D01*
X491360Y390049D01*
X491193Y389648D01*
Y389214D01*
X491360Y388813D01*
X491666Y388507D01*
X492067Y388340D01*
X492501D01*
X492902Y388507D01*
X493209Y388813D01*
X493375Y389214D01*
Y389648D01*
X493209Y390049D01*
X492902Y390356D01*
X492891Y390409D01*
X493157Y390675D01*
X493323Y391076D01*
Y391510D01*
X493157Y391911D01*
X492851Y392218D01*
X492450Y392384D01*
D02*
G37*
G36*
X483251Y389077D02*
X482700D01*
X482190Y388866D01*
X481801Y388476D01*
X481590Y387967D01*
Y387416D01*
X481801Y386907D01*
X482190Y386517D01*
X482700Y386306D01*
X483251D01*
X483760Y386517D01*
X484150Y386907D01*
X484361Y387416D01*
Y387967D01*
X484150Y388476D01*
X483760Y388866D01*
X483251Y389077D01*
D02*
G37*
G36*
X518190Y387622D02*
X517594D01*
X517042Y387394D01*
X516620Y386972D01*
X516392Y386420D01*
Y385824D01*
X516620Y385272D01*
X517042Y384850D01*
X517594Y384622D01*
X518190D01*
X518742Y384850D01*
X519164Y385272D01*
X519392Y385824D01*
Y386420D01*
X519164Y386972D01*
X518742Y387394D01*
X518190Y387622D01*
D02*
G37*
G36*
X566956Y384019D02*
X566359D01*
X565808Y383791D01*
X565386Y383369D01*
X565158Y382818D01*
Y382221D01*
X565386Y381670D01*
X565808Y381248D01*
X566359Y381019D01*
X566956D01*
X567507Y381248D01*
X567929Y381670D01*
X568158Y382221D01*
Y382818D01*
X567929Y383369D01*
X567507Y383791D01*
X566956Y384019D01*
D02*
G37*
G36*
X564510Y380872D02*
X563913D01*
X563362Y380643D01*
X562940Y380221D01*
X562711Y379670D01*
Y379073D01*
X562940Y378522D01*
X563362Y378100D01*
X563913Y377871D01*
X564510D01*
X565061Y378100D01*
X565483Y378522D01*
X565711Y379073D01*
Y379670D01*
X565483Y380221D01*
X565061Y380643D01*
X564510Y380872D01*
D02*
G37*
G36*
X511599Y376981D02*
X511048D01*
X510538Y376770D01*
X510149Y376380D01*
X509938Y375871D01*
Y375320D01*
X510149Y374810D01*
X510538Y374420D01*
X511048Y374209D01*
X511599D01*
X512108Y374420D01*
X512498Y374810D01*
X512709Y375320D01*
Y375871D01*
X512498Y376380D01*
X512108Y376770D01*
X511599Y376981D01*
D02*
G37*
G36*
X516001Y369898D02*
X515528D01*
X515091Y369717D01*
X514757Y369383D01*
X514576Y368946D01*
Y368473D01*
X514757Y368036D01*
X515091Y367701D01*
X515528Y367520D01*
X516001D01*
X516438Y367701D01*
X516773Y368036D01*
X516954Y368473D01*
Y368946D01*
X516773Y369383D01*
X516438Y369717D01*
X516001Y369898D01*
D02*
G37*
G36*
X529546Y370117D02*
X528949D01*
X528398Y369889D01*
X527976Y369467D01*
X527747Y368916D01*
Y368319D01*
X527976Y367768D01*
X528398Y367346D01*
X528949Y367117D01*
X529546D01*
X530097Y367346D01*
X530519Y367768D01*
X530747Y368319D01*
Y368916D01*
X530519Y369467D01*
X530097Y369889D01*
X529546Y370117D01*
D02*
G37*
G36*
X511029Y367311D02*
X510478D01*
X509969Y367099D01*
X509740Y366870D01*
X509550Y366730D01*
X509348Y366870D01*
X509180Y367038D01*
X508743Y367219D01*
X508270D01*
X507833Y367038D01*
X507498Y366704D01*
X507317Y366267D01*
Y365794D01*
X507498Y365357D01*
X507833Y365022D01*
X508270Y364842D01*
X508743D01*
X509180Y365022D01*
X509344Y365187D01*
X509579Y365140D01*
X509969Y364750D01*
X510478Y364539D01*
X511029D01*
X511539Y364750D01*
X511929Y365140D01*
X512140Y365649D01*
Y366200D01*
X511929Y366710D01*
X511539Y367099D01*
X511029Y367311D01*
D02*
G37*
G36*
X497183Y369145D02*
X496586D01*
X496035Y368916D01*
X495613Y368494D01*
X495385Y367943D01*
Y367346D01*
X495613Y366795D01*
X496035Y366373D01*
X496586Y366145D01*
X497183D01*
X497734Y366373D01*
X498156Y366795D01*
X498385Y367346D01*
Y367943D01*
X498156Y368494D01*
X497734Y368916D01*
X497183Y369145D01*
D02*
G37*
G36*
X467511Y368312D02*
X466959D01*
X466450Y368101D01*
X466060Y367711D01*
X465849Y367202D01*
Y366651D01*
X466060Y366141D01*
X466450Y365752D01*
X466959Y365541D01*
X467511D01*
X468020Y365752D01*
X468410Y366141D01*
X468621Y366651D01*
Y367202D01*
X468410Y367711D01*
X468020Y368101D01*
X467511Y368312D01*
D02*
G37*
G36*
X516202Y366948D02*
X515729D01*
X515292Y366767D01*
X514958Y366432D01*
X514777Y365995D01*
Y365522D01*
X514958Y365085D01*
X515292Y364751D01*
X515729Y364570D01*
X516202D01*
X516639Y364751D01*
X516973Y365085D01*
X517155Y365522D01*
Y365995D01*
X516973Y366432D01*
X516639Y366767D01*
X516202Y366948D01*
D02*
G37*
G36*
X508714Y390890D02*
X504102D01*
X503666Y390454D01*
Y382455D01*
X504489Y381633D01*
X508730Y381609D01*
X508762D01*
X509170Y382016D01*
X509571Y382039D01*
X518273Y373337D01*
Y363983D01*
X517951Y363661D01*
X508392D01*
X507614Y364439D01*
X505892D01*
X500153Y358700D01*
X500098Y357962D01*
X500097Y357956D01*
X500099Y357949D01*
X503006Y355043D01*
X521951D01*
X521997Y355043D01*
X522057Y354743D01*
X522043Y354737D01*
X521719Y354603D01*
X521329Y354213D01*
X521118Y353704D01*
Y353152D01*
X521329Y352643D01*
X521719Y352253D01*
X522229Y352042D01*
X522780D01*
X523289Y352253D01*
X523679Y352643D01*
X523790Y352910D01*
X524144Y352981D01*
X524154Y352971D01*
X524663Y352760D01*
X525214D01*
X525724Y352971D01*
X526114Y353360D01*
X526325Y353870D01*
Y354421D01*
X526114Y354930D01*
X525724Y355320D01*
X525214Y355531D01*
X524663D01*
X524154Y355320D01*
X523764Y354930D01*
X523653Y354663D01*
X523299Y354593D01*
X523289Y354603D01*
X522780Y354814D01*
X522349D01*
X522334Y354814D01*
X522233Y355114D01*
X522263Y355144D01*
X525484Y358365D01*
X525853D01*
X531027Y353191D01*
X530947Y352871D01*
X530897Y352856D01*
X530701Y353052D01*
X530264Y353233D01*
X529791D01*
X529354Y353052D01*
X529020Y352718D01*
X528839Y352281D01*
Y351808D01*
X529020Y351371D01*
X529354Y351037D01*
X529545Y350957D01*
X529616Y350604D01*
X529563Y350550D01*
X529409Y350321D01*
X529355Y350050D01*
Y349074D01*
X529055Y348967D01*
X528680Y349122D01*
X528246D01*
X528087Y349057D01*
X527787Y349257D01*
Y351157D01*
X527980Y351350D01*
X528161Y351787D01*
Y352260D01*
X527980Y352697D01*
X527645Y353031D01*
X527208Y353212D01*
X526735D01*
X526298Y353031D01*
X525964Y352697D01*
X525783Y352260D01*
Y351884D01*
X525583Y351706D01*
X525506Y351674D01*
X525489Y351681D01*
X525055D01*
X524654Y351515D01*
X524347Y351209D01*
X524181Y350808D01*
Y350374D01*
X524347Y349973D01*
X524654Y349666D01*
X525055Y349500D01*
X525489D01*
X525754Y349610D01*
X526054Y349439D01*
Y349025D01*
X525754Y348852D01*
X525526Y348947D01*
X525132D01*
X524767Y348796D01*
X524488Y348516D01*
X524337Y348152D01*
Y347757D01*
X524479Y347414D01*
Y346370D01*
X524545Y346038D01*
X524733Y345757D01*
X525014Y345569D01*
X525061Y345560D01*
X525439Y345227D01*
X525521Y345146D01*
X525587Y345119D01*
X525833Y344873D01*
X525857Y344811D01*
X525879Y344787D01*
X525887Y344777D01*
X525889Y344774D01*
X525890Y344774D01*
X525890Y344770D01*
X525892Y344766D01*
X525893Y344762D01*
X525896Y344758D01*
X525897Y344755D01*
X525899Y344753D01*
X525928Y344691D01*
Y344604D01*
X526079Y344240D01*
X526292Y344027D01*
X526056Y343791D01*
X525905Y343426D01*
Y343031D01*
X526008Y342783D01*
X525847Y342483D01*
X524111D01*
X523763Y342414D01*
X523467Y342216D01*
X516001Y334751D01*
X515989D01*
X515641Y334681D01*
X515345Y334484D01*
X515218Y334357D01*
X514381D01*
X513963Y334530D01*
X513490D01*
X513053Y334349D01*
X512718Y334015D01*
X512537Y333578D01*
Y333105D01*
X512718Y332668D01*
X513053Y332333D01*
X513205Y332270D01*
X513302Y331943D01*
X513121Y331506D01*
Y331033D01*
X513302Y330596D01*
X513636Y330262D01*
X514074Y330081D01*
X514546D01*
X514984Y330262D01*
X515318Y330596D01*
X515499Y331033D01*
Y331506D01*
X515318Y331943D01*
X515026Y332235D01*
X515067Y332438D01*
X515118Y332535D01*
X515596D01*
X515944Y332605D01*
X516240Y332802D01*
X516367Y332929D01*
X516378D01*
X516727Y332998D01*
X517023Y333195D01*
X517888Y334061D01*
X518188Y333936D01*
Y333583D01*
X518399Y333074D01*
X518789Y332684D01*
X519298Y332473D01*
X519849D01*
X520359Y332684D01*
X520748Y333074D01*
X520959Y333583D01*
Y334134D01*
X520748Y334644D01*
X520359Y335033D01*
X519849Y335244D01*
X519496D01*
X519372Y335544D01*
X524488Y340661D01*
X526447D01*
X526643Y340580D01*
X527038D01*
X527128Y340617D01*
X527378Y340451D01*
Y339661D01*
X527434Y339376D01*
Y338094D01*
X527185Y337875D01*
X526634D01*
X526125Y337664D01*
X525735Y337274D01*
X525616Y336987D01*
X525316Y337047D01*
Y337418D01*
X525135Y337855D01*
X524801Y338190D01*
X524364Y338371D01*
X523891D01*
X523454Y338190D01*
X523119Y337855D01*
X522938Y337418D01*
Y336945D01*
X523119Y336508D01*
X523454Y336174D01*
X523891Y335993D01*
X524364D01*
X524801Y336174D01*
X525135Y336508D01*
X525224Y336723D01*
X525524Y336663D01*
Y336214D01*
X525735Y335704D01*
X526125Y335314D01*
X526634Y335104D01*
X527185D01*
X527695Y335314D01*
X527859Y335479D01*
X528121Y335370D01*
X528151Y335078D01*
X528018Y334945D01*
X527837Y334508D01*
Y334035D01*
X528018Y333598D01*
X528352Y333263D01*
X528789Y333082D01*
X529262D01*
X529699Y333263D01*
X530034Y333598D01*
X530215Y334035D01*
Y334508D01*
X530034Y334945D01*
X529892Y335086D01*
Y335905D01*
X529975Y336029D01*
X530041Y336360D01*
Y336891D01*
X530683Y337532D01*
X530871Y337813D01*
X530937Y338145D01*
Y340559D01*
X531237Y340741D01*
X531448Y340654D01*
X531842D01*
X532207Y340805D01*
X532436Y341034D01*
X532651Y340819D01*
X533016Y340668D01*
X533410D01*
X533775Y340819D01*
X533851Y340896D01*
X534198D01*
X534490Y340954D01*
X534738Y341120D01*
X536860Y343242D01*
X537214Y343171D01*
X537338Y342872D01*
X537728Y342482D01*
X538237Y342271D01*
X538789D01*
X539298Y342482D01*
X539688Y342872D01*
X539899Y343381D01*
Y343932D01*
X539688Y344442D01*
X539298Y344831D01*
X538789Y345042D01*
X538712D01*
X538546Y345245D01*
X538546Y345245D01*
Y348650D01*
X538488Y348943D01*
X538322Y349191D01*
X526260Y361254D01*
X526011Y361420D01*
X525719Y361478D01*
X524232D01*
X520318Y365392D01*
X520007D01*
Y373696D01*
X519941Y374028D01*
X519753Y374309D01*
X509327Y384735D01*
Y390454D01*
X509149D01*
X508714Y390890D01*
D02*
G37*
G36*
X484296Y363935D02*
X483823D01*
X483386Y363754D01*
X483052Y363419D01*
X482871Y362982D01*
Y362509D01*
X483052Y362072D01*
X483386Y361738D01*
X483823Y361557D01*
X484296D01*
X484733Y361738D01*
X485068Y362072D01*
X485249Y362509D01*
Y362982D01*
X485068Y363419D01*
X484733Y363754D01*
X484296Y363935D01*
D02*
G37*
G36*
X478354Y363286D02*
X477881D01*
X477444Y363105D01*
X477109Y362770D01*
X476928Y362333D01*
Y361860D01*
X477109Y361423D01*
X477444Y361089D01*
X477881Y360908D01*
X478354D01*
X478791Y361089D01*
X479125Y361423D01*
X479306Y361860D01*
Y362333D01*
X479125Y362770D01*
X478791Y363105D01*
X478354Y363286D01*
D02*
G37*
G36*
X468334Y363650D02*
X467783D01*
X467274Y363439D01*
X466884Y363049D01*
X466673Y362540D01*
Y361989D01*
X466884Y361479D01*
X467274Y361089D01*
X467783Y360878D01*
X468334D01*
X468844Y361089D01*
X469233Y361479D01*
X469444Y361989D01*
Y362540D01*
X469233Y363049D01*
X468844Y363439D01*
X468334Y363650D01*
D02*
G37*
G36*
X456538Y362320D02*
X455987D01*
X455478Y362109D01*
X455088Y361719D01*
X454877Y361210D01*
Y360658D01*
X455088Y360149D01*
X455478Y359759D01*
X455987Y359548D01*
X456538D01*
X457048Y359759D01*
X457438Y360149D01*
X457649Y360658D01*
Y361210D01*
X457438Y361719D01*
X457048Y362109D01*
X456538Y362320D01*
D02*
G37*
G36*
X487714Y360769D02*
X487241D01*
X486804Y360588D01*
X486470Y360254D01*
X486289Y359816D01*
Y359343D01*
X486470Y358906D01*
X486618Y358758D01*
X486750Y358513D01*
X486618Y358366D01*
X486421Y358170D01*
X486240Y357733D01*
Y357259D01*
X486421Y356822D01*
X486755Y356488D01*
X487192Y356307D01*
X487665D01*
X488102Y356488D01*
X488437Y356822D01*
X488618Y357259D01*
Y357733D01*
X488437Y358170D01*
X488289Y358317D01*
X488156Y358563D01*
X488289Y358710D01*
X488485Y358906D01*
X488666Y359343D01*
Y359816D01*
X488485Y360254D01*
X488151Y360588D01*
X487714Y360769D01*
D02*
G37*
G36*
X468261Y358978D02*
X467710D01*
X467201Y358767D01*
X466811Y358377D01*
X466600Y357867D01*
Y357316D01*
X466811Y356807D01*
X467201Y356417D01*
X467710Y356206D01*
X468261D01*
X468771Y356417D01*
X469161Y356807D01*
X469372Y357316D01*
Y357867D01*
X469161Y358377D01*
X468771Y358767D01*
X468261Y358978D01*
D02*
G37*
G36*
X539021Y356608D02*
X538470D01*
X537960Y356397D01*
X537571Y356008D01*
X537360Y355498D01*
Y354947D01*
X537571Y354438D01*
X537960Y354048D01*
X538470Y353837D01*
X539021D01*
X539530Y354048D01*
X539920Y354438D01*
X540131Y354947D01*
Y355498D01*
X539920Y356008D01*
X539530Y356397D01*
X539021Y356608D01*
D02*
G37*
G36*
X461612Y355570D02*
X461015D01*
X460464Y355341D01*
X460042Y354919D01*
X459813Y354368D01*
Y353771D01*
X460042Y353220D01*
X460464Y352798D01*
X461015Y352570D01*
X461612D01*
X462163Y352798D01*
X462585Y353220D01*
X462813Y353771D01*
Y354368D01*
X462585Y354919D01*
X462163Y355341D01*
X461612Y355570D01*
D02*
G37*
G36*
X504915Y350105D02*
X504363D01*
X503854Y349894D01*
X503464Y349504D01*
X503253Y348995D01*
Y348444D01*
X503464Y347934D01*
X503854Y347545D01*
X504363Y347334D01*
X504915D01*
X505424Y347545D01*
X505814Y347934D01*
X506025Y348444D01*
Y348995D01*
X505814Y349504D01*
X505424Y349894D01*
X504915Y350105D01*
D02*
G37*
G36*
X485619Y349051D02*
X485146D01*
X484709Y348870D01*
X484374Y348535D01*
X484193Y348098D01*
Y347625D01*
X484374Y347188D01*
X484709Y346854D01*
X485146Y346673D01*
X485619D01*
X486056Y346854D01*
X486390Y347188D01*
X486571Y347625D01*
Y348098D01*
X486390Y348535D01*
X486056Y348870D01*
X485619Y349051D01*
D02*
G37*
G36*
X551015Y348818D02*
X550419D01*
X549867Y348590D01*
X549445Y348168D01*
X549217Y347617D01*
Y347020D01*
X549445Y346469D01*
X549867Y346047D01*
X550419Y345818D01*
X551015D01*
X551567Y346047D01*
X551989Y346469D01*
X552217Y347020D01*
Y347617D01*
X551989Y348168D01*
X551567Y348590D01*
X551015Y348818D01*
D02*
G37*
G36*
X516606Y345702D02*
X516054D01*
X515545Y345491D01*
X515155Y345101D01*
X514944Y344591D01*
Y344040D01*
X515155Y343531D01*
X515545Y343141D01*
X516054Y342930D01*
X516606D01*
X517115Y343141D01*
X517505Y343531D01*
X517716Y344040D01*
Y344591D01*
X517505Y345101D01*
X517115Y345491D01*
X516606Y345702D01*
D02*
G37*
G36*
X466808Y345749D02*
X466256D01*
X465747Y345538D01*
X465357Y345148D01*
X465146Y344638D01*
Y344087D01*
X465357Y343578D01*
X465747Y343188D01*
X466256Y342977D01*
X466808D01*
X467317Y343188D01*
X467574Y343445D01*
X467612Y343437D01*
X468002Y343047D01*
X468511Y342836D01*
X469062D01*
X469571Y343047D01*
X469961Y343437D01*
X470172Y343947D01*
Y344498D01*
X469961Y345007D01*
X469571Y345397D01*
X469062Y345608D01*
X468511D01*
X468002Y345397D01*
X467745Y345140D01*
X467707Y345148D01*
X467317Y345538D01*
X466808Y345749D01*
D02*
G37*
G36*
X490061Y345116D02*
X489587D01*
X489150Y344935D01*
X488816Y344601D01*
X488635Y344164D01*
Y343691D01*
X488816Y343254D01*
X489150Y342919D01*
X489587Y342738D01*
X490061D01*
X490497Y342919D01*
X490832Y343254D01*
X491013Y343691D01*
Y344164D01*
X490832Y344601D01*
X490497Y344935D01*
X490061Y345116D01*
D02*
G37*
G36*
X510717Y340599D02*
X510244D01*
X509807Y340418D01*
X509473Y340083D01*
X509292Y339646D01*
Y339173D01*
X509473Y338736D01*
X509807Y338402D01*
X510244Y338221D01*
X510717D01*
X511154Y338402D01*
X511489Y338736D01*
X511670Y339173D01*
Y339646D01*
X511489Y340083D01*
X511154Y340418D01*
X510717Y340599D01*
D02*
G37*
G36*
X515955Y340057D02*
X515482D01*
X515045Y339876D01*
X514711Y339541D01*
X514530Y339104D01*
Y338631D01*
X514711Y338194D01*
X515045Y337860D01*
X515482Y337679D01*
X515955D01*
X516392Y337860D01*
X516727Y338194D01*
X516908Y338631D01*
Y339104D01*
X516727Y339541D01*
X516392Y339876D01*
X515955Y340057D01*
D02*
G37*
G36*
X536549Y340029D02*
X535998D01*
X535489Y339818D01*
X535099Y339428D01*
X534888Y338919D01*
Y338368D01*
X535099Y337858D01*
X535489Y337469D01*
X535998Y337258D01*
X536549D01*
X537059Y337469D01*
X537449Y337858D01*
X537660Y338368D01*
Y338919D01*
X537449Y339428D01*
X537059Y339818D01*
X536549Y340029D01*
D02*
G37*
G36*
X532932Y336412D02*
X532380D01*
X531871Y336201D01*
X531481Y335811D01*
X531270Y335301D01*
Y334750D01*
X531481Y334241D01*
X531871Y333851D01*
X532380Y333640D01*
X532932D01*
X533441Y333851D01*
X533831Y334241D01*
X534042Y334750D01*
Y335301D01*
X533831Y335811D01*
X533441Y336201D01*
X532932Y336412D01*
D02*
G37*
G36*
X547168Y351487D02*
X542904D01*
X541934Y350517D01*
Y342788D01*
X542666Y342056D01*
Y340774D01*
X541284Y339392D01*
X539502D01*
X532749Y332639D01*
X530904D01*
X528674Y330409D01*
Y321671D01*
X528718Y321633D01*
X529582Y320769D01*
X535742D01*
X535774Y320736D01*
X537031Y321993D01*
Y328745D01*
X541549Y333262D01*
X541871Y333160D01*
X542037Y332761D01*
X542427Y332371D01*
X542936Y332160D01*
X543487D01*
X543997Y332371D01*
X544386Y332761D01*
X544597Y333271D01*
Y333822D01*
X544386Y334331D01*
X543997Y334721D01*
X543597Y334887D01*
X543496Y335209D01*
X543725Y335439D01*
X543938Y335652D01*
X544198Y335994D01*
X548496Y340292D01*
Y343239D01*
X547913Y343822D01*
Y350742D01*
X547168Y351487D01*
D02*
G37*
G36*
X478471Y360081D02*
X477998D01*
X477561Y359900D01*
X477226Y359565D01*
X477045Y359128D01*
Y358656D01*
X477226Y358219D01*
X477561Y357884D01*
X477998Y357703D01*
X478471D01*
X478908Y357884D01*
X479185Y358161D01*
X479429Y358170D01*
X479536Y358142D01*
X479840Y357838D01*
X480277Y357657D01*
X480750D01*
X481187Y357838D01*
X481284Y357935D01*
X481476D01*
X487450Y351961D01*
X487746Y351764D01*
X488094Y351694D01*
X488929D01*
X492946Y347677D01*
X492615Y347346D01*
X492434Y346909D01*
Y346437D01*
X492615Y346000D01*
X492950Y345665D01*
X493387Y345484D01*
X493860D01*
X494297Y345665D01*
X494631Y346000D01*
X494678Y346114D01*
X494973Y346172D01*
X503085Y338060D01*
Y331646D01*
X503155Y331298D01*
X503352Y331002D01*
X503135Y330802D01*
X503004Y330889D01*
X502656Y330959D01*
X501944D01*
X501146Y331756D01*
Y332487D01*
X501077Y332835D01*
X500879Y333131D01*
X497735Y336276D01*
X497439Y336473D01*
X497090Y336543D01*
X488008D01*
Y344155D01*
X488105Y344251D01*
X488286Y344689D01*
Y345162D01*
X488105Y345599D01*
X487771Y345933D01*
X487334Y346114D01*
X486861D01*
X486424Y345933D01*
X486089Y345599D01*
X485908Y345162D01*
Y344689D01*
X486089Y344251D01*
X486186Y344155D01*
Y335631D01*
X486256Y335283D01*
X486453Y334987D01*
X486749Y334790D01*
X487097Y334720D01*
X496713D01*
X499324Y332109D01*
Y331379D01*
X499394Y331030D01*
X499591Y330735D01*
X500922Y329403D01*
X501218Y329206D01*
X501566Y329137D01*
X502278D01*
X503343Y328072D01*
Y327341D01*
X503412Y326992D01*
X503610Y326697D01*
X504872Y325435D01*
X505168Y325237D01*
X505516Y325168D01*
X505951D01*
X515122Y315996D01*
X515418Y315799D01*
X515767Y315729D01*
X541820D01*
X542169Y315799D01*
X542464Y315996D01*
X544963Y318495D01*
X545160Y318790D01*
X545230Y319139D01*
Y323199D01*
X551984Y329954D01*
X552606D01*
X553026Y329780D01*
X553499D01*
X553936Y329960D01*
X554270Y330295D01*
X554451Y330732D01*
Y331205D01*
X554270Y331642D01*
X554047Y331866D01*
X554059Y331980D01*
X554142Y332191D01*
X554517Y332347D01*
X554851Y332681D01*
X555032Y333118D01*
Y333591D01*
X554906Y333898D01*
X554896Y334080D01*
X555047Y334256D01*
X555442Y334420D01*
X555864Y334842D01*
X556092Y335393D01*
Y335990D01*
X555864Y336541D01*
X555442Y336963D01*
X554890Y337191D01*
X554294D01*
X553742Y336963D01*
X553320Y336541D01*
X553092Y335990D01*
Y335393D01*
X553320Y334842D01*
X553385Y334776D01*
X553315Y334423D01*
X553170Y334363D01*
X553061Y334253D01*
X548669D01*
X548321Y334184D01*
X548025Y333987D01*
X546403Y332365D01*
X546206Y332069D01*
X546137Y331721D01*
Y331357D01*
X545690Y330911D01*
X545076D01*
X544727Y330841D01*
X544431Y330644D01*
X540322Y326534D01*
X540124Y326239D01*
X540055Y325890D01*
Y320876D01*
X538037Y318858D01*
X517827D01*
X511039Y325646D01*
Y327105D01*
X510970Y327454D01*
X510772Y327750D01*
X508167Y330355D01*
X507871Y330553D01*
X507523Y330622D01*
X506309D01*
X504907Y332024D01*
Y338437D01*
X504838Y338786D01*
X504640Y339082D01*
X494893Y348829D01*
X494598Y349026D01*
X494249Y349095D01*
X494104D01*
X489950Y353249D01*
X489654Y353447D01*
X489306Y353516D01*
X488472D01*
X482498Y359490D01*
X482202Y359688D01*
X481853Y359757D01*
X481284D01*
X481187Y359854D01*
X480750Y360035D01*
X480277D01*
X479840Y359854D01*
X479562Y359577D01*
X479319Y359568D01*
X479212Y359596D01*
X478908Y359900D01*
X478471Y360081D01*
D02*
G37*
G36*
X517903Y332368D02*
X517430D01*
X516993Y332187D01*
X516659Y331853D01*
X516478Y331416D01*
Y330943D01*
X516659Y330506D01*
X516993Y330171D01*
X517430Y329991D01*
X517903D01*
X518340Y330171D01*
X518675Y330506D01*
X518856Y330943D01*
Y331416D01*
X518675Y331853D01*
X518340Y332187D01*
X517903Y332368D01*
D02*
G37*
G36*
X475075Y331449D02*
X474603D01*
X474165Y331268D01*
X473831Y330934D01*
X473650Y330497D01*
Y330024D01*
X473831Y329587D01*
X474165Y329252D01*
X474603Y329071D01*
X475075D01*
X475513Y329252D01*
X475847Y329587D01*
X476028Y330024D01*
Y330497D01*
X475847Y330934D01*
X475513Y331268D01*
X475075Y331449D01*
D02*
G37*
G36*
X514675Y329192D02*
X514202D01*
X513765Y329011D01*
X513431Y328677D01*
X513250Y328239D01*
Y327766D01*
X513431Y327329D01*
X513765Y326995D01*
X514202Y326814D01*
X514675D01*
X515112Y326995D01*
X515447Y327329D01*
X515628Y327766D01*
Y328239D01*
X515447Y328677D01*
X515112Y329011D01*
X514675Y329192D01*
D02*
G37*
G36*
X556254Y329735D02*
X555658D01*
X555106Y329507D01*
X554684Y329085D01*
X554456Y328533D01*
Y327937D01*
X554626Y327528D01*
X554192Y327348D01*
X553770Y326926D01*
X553542Y326375D01*
Y325778D01*
X553770Y325227D01*
X554192Y324805D01*
X554743Y324576D01*
X555340D01*
X555891Y324805D01*
X556313Y325227D01*
X556542Y325778D01*
Y326375D01*
X556372Y326784D01*
X556806Y326963D01*
X557228Y327385D01*
X557456Y327937D01*
Y328533D01*
X557228Y329085D01*
X556806Y329507D01*
X556254Y329735D01*
D02*
G37*
G36*
X523066Y324408D02*
X522514D01*
X522005Y324197D01*
X521615Y323807D01*
X521404Y323298D01*
Y322746D01*
X521615Y322237D01*
X522005Y321847D01*
X522514Y321636D01*
X523066D01*
X523575Y321847D01*
X523965Y322237D01*
X524176Y322746D01*
Y323298D01*
X523965Y323807D01*
X523575Y324197D01*
X523066Y324408D01*
D02*
G37*
G36*
X518598Y324363D02*
X518046D01*
X517537Y324152D01*
X517147Y323762D01*
X516936Y323253D01*
Y322701D01*
X517147Y322192D01*
X517537Y321802D01*
X518046Y321591D01*
X518598D01*
X519107Y321802D01*
X519497Y322192D01*
X519708Y322701D01*
Y323253D01*
X519497Y323762D01*
X519107Y324152D01*
X518598Y324363D01*
D02*
G37*
G36*
X473583Y324224D02*
X473031D01*
X472522Y324013D01*
X472132Y323623D01*
X471921Y323114D01*
Y322563D01*
X472132Y322054D01*
X472522Y321664D01*
X473031Y321453D01*
X473583D01*
X474092Y321664D01*
X474482Y322054D01*
X474693Y322563D01*
Y323114D01*
X474482Y323623D01*
X474092Y324013D01*
X473583Y324224D01*
D02*
G37*
G36*
X559637Y322808D02*
X559164D01*
X558727Y322627D01*
X558393Y322293D01*
X558212Y321856D01*
Y321383D01*
X558393Y320946D01*
X558727Y320611D01*
X559164Y320430D01*
X559637D01*
X560074Y320611D01*
X560408Y320946D01*
X560590Y321383D01*
Y321856D01*
X560408Y322293D01*
X560074Y322627D01*
X559637Y322808D01*
D02*
G37*
G36*
X466319Y322449D02*
X465768D01*
X465258Y322238D01*
X464868Y321848D01*
X464657Y321339D01*
Y320787D01*
X464868Y320278D01*
X465258Y319888D01*
X465768Y319677D01*
X466319D01*
X466828Y319888D01*
X467218Y320278D01*
X467429Y320787D01*
Y321339D01*
X467218Y321848D01*
X466828Y322238D01*
X466319Y322449D01*
D02*
G37*
G36*
X472815Y319299D02*
X472264D01*
X471754Y319088D01*
X471364Y318698D01*
X471153Y318189D01*
Y317638D01*
X471364Y317128D01*
X471754Y316739D01*
X472264Y316528D01*
X472815D01*
X473324Y316739D01*
X473714Y317128D01*
X473925Y317638D01*
Y318189D01*
X473714Y318698D01*
X473324Y319088D01*
X472815Y319299D01*
D02*
G37*
G36*
X466614Y318905D02*
X466063D01*
X465554Y318694D01*
X465164Y318305D01*
X464953Y317795D01*
Y317244D01*
X465164Y316735D01*
X465554Y316345D01*
X466063Y316134D01*
X466614D01*
X467124Y316345D01*
X467513Y316735D01*
X467724Y317244D01*
Y317795D01*
X467513Y318305D01*
X467124Y318694D01*
X466614Y318905D01*
D02*
G37*
G36*
X470256Y309949D02*
X469705D01*
X469195Y309738D01*
X468806Y309348D01*
X468595Y308839D01*
Y308287D01*
X468806Y307778D01*
X469195Y307388D01*
X469705Y307177D01*
X470256D01*
X470765Y307388D01*
X471155Y307778D01*
X471366Y308287D01*
Y308839D01*
X471155Y309348D01*
X470765Y309738D01*
X470256Y309949D01*
D02*
G37*
G36*
X503695Y310585D02*
X502452D01*
X502442Y306563D01*
X502597D01*
X502610Y306263D01*
X502039Y305688D01*
X502053Y302449D01*
X501402Y301801D01*
X501105Y301803D01*
X501102Y300804D01*
X502114Y300791D01*
X502122Y301217D01*
X502948Y302037D01*
X502943Y305035D01*
X503621Y305732D01*
X503633Y306545D01*
X503734Y306543D01*
X503695Y310585D01*
D02*
G37*
G36*
X506578Y302105D02*
X506534Y302104D01*
X506534Y302105D01*
X506530Y302104D01*
X505725Y302105D01*
X505723Y302104D01*
X505690Y302104D01*
X505690Y302104D01*
X505629Y302078D01*
X505582Y302031D01*
X505557Y301970D01*
X505557Y301970D01*
X505557Y301937D01*
X505557Y301859D01*
Y300805D01*
X505605Y300690D01*
X505693Y300601D01*
X505809Y300553D01*
X506648D01*
X506864Y300467D01*
X506945Y300413D01*
X506947Y300389D01*
X506931Y289766D01*
X506931Y289324D01*
X507270Y288507D01*
X507895Y287882D01*
X508712Y287543D01*
X509154Y287543D01*
X534497D01*
X534497Y287543D01*
Y287543D01*
X534974Y287514D01*
X535865Y287181D01*
X536561Y286533D01*
X536957Y285668D01*
X537020Y285194D01*
X537020Y285021D01*
X537020Y285021D01*
X537016Y284978D01*
X536984Y284900D01*
X536924Y284841D01*
X536846Y284808D01*
X536804Y284804D01*
X535404Y284750D01*
X535376Y279840D01*
X540696Y279840D01*
X540769Y279840D01*
X540905Y279895D01*
X541009Y279999D01*
X541065Y280135D01*
X541064Y280209D01*
X541064Y281504D01*
X541068Y281542D01*
X541097Y281611D01*
X541150Y281665D01*
X541220Y281693D01*
X541257Y281697D01*
X547485Y281697D01*
X547486Y281697D01*
X547486Y281697D01*
X547486Y281697D01*
X547757Y281613D01*
X547854Y281568D01*
X548031Y281374D01*
X548120Y281128D01*
X548127Y280996D01*
X548031Y268675D01*
X548031Y268675D01*
X548043Y268572D01*
X548008Y268368D01*
X547898Y268193D01*
X547728Y268074D01*
X547630Y268041D01*
X547530D01*
X547345Y267964D01*
X547203Y267823D01*
X547127Y267638D01*
Y266156D01*
X547178Y266033D01*
X547271Y265939D01*
X547394Y265889D01*
X548127D01*
X548151Y265886D01*
X548195Y265868D01*
X548229Y265834D01*
X548247Y265790D01*
X548250Y265766D01*
Y264275D01*
X548241Y264188D01*
X548175Y264028D01*
X548052Y263905D01*
X547892Y263839D01*
X547805Y263830D01*
X547431D01*
X547431Y263830D01*
X547386Y263830D01*
X547385Y263830D01*
X547302Y263795D01*
X547237Y263731D01*
X547203Y263647D01*
X547203Y263647D01*
X547203Y263606D01*
Y261837D01*
X547255Y261710D01*
X547352Y261613D01*
X547479Y261561D01*
X549981D01*
X549981Y261561D01*
X550035Y261560D01*
X550136Y261602D01*
X550137Y261602D01*
X550214Y261679D01*
X550214Y261679D01*
X550222Y261700D01*
X550222Y261700D01*
X550223Y261702D01*
X550255Y261780D01*
X550255Y261835D01*
X550255Y263605D01*
X550202Y263733D01*
X550105Y263830D01*
X549977Y263883D01*
X549511D01*
X549299Y264095D01*
X549299Y265917D01*
X550452D01*
X550520Y265945D01*
X550573Y265998D01*
X550602Y266067D01*
Y267806D01*
X550602Y267857D01*
X550602Y267857D01*
X550602Y267857D01*
X550602Y267894D01*
X550602Y267894D01*
X550573Y267963D01*
X550520Y268016D01*
X550452Y268044D01*
X550452Y268044D01*
X550414Y268044D01*
X550182Y268083D01*
X549763Y268292D01*
X549455Y268645D01*
X549306Y269089D01*
X549299Y269324D01*
X549160Y281957D01*
X549160Y281957D01*
X549160Y281957D01*
X549159Y281958D01*
X549159Y282137D01*
X549120Y282232D01*
X549022Y282469D01*
X548768Y282723D01*
X548435Y282861D01*
X548256Y282861D01*
X541290Y283054D01*
X539200Y284883D01*
X538461Y285371D01*
Y285371D01*
D01*
X538441Y285647D01*
X538435Y285738D01*
X538240Y286448D01*
X537911Y287106D01*
X537459Y287687D01*
X536903Y288169D01*
X536263Y288534D01*
X535564Y288766D01*
X534834Y288858D01*
X534467Y288831D01*
X509593Y288916D01*
X509328Y288942D01*
X508838Y289145D01*
X508463Y289520D01*
X508260Y290010D01*
X508234Y290275D01*
Y300553D01*
X508234Y300553D01*
X508234Y300553D01*
X508233Y300558D01*
X508203Y300785D01*
X508180Y300826D01*
X507974Y301192D01*
X507611Y301485D01*
X507209Y301609D01*
X507164Y301623D01*
X506985Y301609D01*
X506765Y301817D01*
X506756Y301874D01*
X506756Y301882D01*
X506756Y301882D01*
X506756Y301882D01*
X506755Y301886D01*
X506755Y301926D01*
X506755Y301926D01*
X506722Y302008D01*
X506660Y302071D01*
X506578Y302104D01*
X506578Y302105D01*
D02*
G37*
G36*
X475323Y302972D02*
X474771D01*
X474262Y302761D01*
X473872Y302371D01*
X473661Y301862D01*
Y301310D01*
X473872Y300801D01*
X474262Y300411D01*
X474771Y300200D01*
X475323D01*
X475832Y300411D01*
X476222Y300801D01*
X476433Y301310D01*
Y301862D01*
X476222Y302371D01*
X475832Y302761D01*
X475323Y302972D01*
D02*
G37*
G36*
X566200Y304348D02*
X565648D01*
X565139Y304137D01*
X564749Y303747D01*
X564538Y303238D01*
Y302686D01*
X564749Y302177D01*
X565046Y301880D01*
X564807Y301641D01*
X564596Y301132D01*
Y300581D01*
X564807Y300071D01*
X565197Y299681D01*
X565706Y299470D01*
X566257D01*
X566767Y299681D01*
X567157Y300071D01*
X567368Y300581D01*
Y301132D01*
X567157Y301641D01*
X566860Y301938D01*
X567099Y302177D01*
X567310Y302686D01*
Y303238D01*
X567099Y303747D01*
X566709Y304137D01*
X566200Y304348D01*
D02*
G37*
G36*
X514577Y299568D02*
X514025D01*
X513516Y299358D01*
X513126Y298968D01*
X512915Y298458D01*
Y297907D01*
X513126Y297398D01*
X513516Y297008D01*
X514025Y296797D01*
X514577D01*
X515086Y297008D01*
X515476Y297398D01*
X515687Y297907D01*
Y298458D01*
X515476Y298968D01*
X515086Y299358D01*
X514577Y299568D01*
D02*
G37*
G36*
X520490Y299313D02*
X519938D01*
X519429Y299102D01*
X519039Y298712D01*
X518828Y298202D01*
Y297651D01*
X519039Y297142D01*
X519429Y296752D01*
X519938Y296541D01*
X520490D01*
X520999Y296752D01*
X521282Y297035D01*
X521516Y297084D01*
X521659Y297020D01*
X521971Y296708D01*
X522480Y296497D01*
X523031D01*
X523541Y296708D01*
X523931Y297098D01*
X524142Y297607D01*
Y298159D01*
X523931Y298668D01*
X523541Y299058D01*
X523031Y299269D01*
X522480D01*
X521971Y299058D01*
X521688Y298774D01*
X521453Y298725D01*
X521311Y298790D01*
X520999Y299102D01*
X520490Y299313D01*
D02*
G37*
G36*
X497597Y299601D02*
X497045D01*
X496536Y299390D01*
X496146Y299001D01*
X495935Y298491D01*
Y297940D01*
X496146Y297430D01*
X496332Y297245D01*
X496333Y296825D01*
X496296Y296788D01*
X496085Y296278D01*
Y295727D01*
X496296Y295218D01*
X496686Y294828D01*
X497195Y294617D01*
X497746D01*
X498255Y294828D01*
X498645Y295218D01*
X498856Y295727D01*
Y296278D01*
X498645Y296788D01*
X498460Y296973D01*
X498459Y297393D01*
X498496Y297430D01*
X498707Y297940D01*
Y298491D01*
X498496Y299001D01*
X498106Y299390D01*
X497597Y299601D01*
D02*
G37*
G36*
X495165Y286391D02*
X494614D01*
X494105Y286180D01*
X493715Y285791D01*
X493504Y285281D01*
Y284730D01*
X493715Y284221D01*
X494105Y283831D01*
X494614Y283620D01*
X495165D01*
X495675Y283831D01*
X496065Y284221D01*
X496276Y284730D01*
Y285281D01*
X496065Y285791D01*
X495675Y286180D01*
X495165Y286391D01*
D02*
G37*
G36*
X460212Y268281D02*
X459660D01*
X459151Y268070D01*
X458761Y267680D01*
X458550Y267171D01*
Y266619D01*
X458761Y266110D01*
X459151Y265720D01*
X459660Y265509D01*
X460212D01*
X460721Y265720D01*
X461111Y266110D01*
X461322Y266619D01*
Y267171D01*
X461111Y267680D01*
X460721Y268070D01*
X460212Y268281D01*
D02*
G37*
G36*
X476353Y267100D02*
X475802D01*
X475293Y266889D01*
X474903Y266499D01*
X474692Y265989D01*
Y265438D01*
X474903Y264929D01*
X475293Y264539D01*
X475802Y264328D01*
X476353D01*
X476863Y264539D01*
X477252Y264929D01*
X477463Y265438D01*
Y265989D01*
X477252Y266499D01*
X476863Y266889D01*
X476353Y267100D01*
D02*
G37*
G36*
X484522Y266312D02*
X483971D01*
X483462Y266101D01*
X483072Y265711D01*
X482861Y265202D01*
Y264651D01*
X483072Y264141D01*
X483462Y263752D01*
X483971Y263541D01*
X484522D01*
X485032Y263752D01*
X485422Y264141D01*
X485633Y264651D01*
Y265202D01*
X485422Y265711D01*
X485032Y266101D01*
X484522Y266312D01*
D02*
G37*
G36*
X494073Y266247D02*
X493522D01*
X493013Y266036D01*
X492623Y265647D01*
X492412Y265137D01*
Y264586D01*
X492623Y264076D01*
X493013Y263687D01*
X493522Y263476D01*
X494073D01*
X494583Y263687D01*
X494973Y264076D01*
X495184Y264586D01*
Y265137D01*
X494973Y265647D01*
X494583Y266036D01*
X494073Y266247D01*
D02*
G37*
G36*
X555209Y282843D02*
Y262227D01*
X553757D01*
X553074Y262910D01*
X553074Y263526D01*
X553054Y263547D01*
X552781Y263543D01*
X550643Y263516D01*
X550605Y263478D01*
Y261814D01*
X552307D01*
X553018Y261103D01*
X555209D01*
Y259169D01*
X565389D01*
X565498Y259278D01*
Y282821D01*
X555209Y282843D01*
D02*
G37*
G36*
X460486Y264851D02*
X459935D01*
X459425Y264640D01*
X459035Y264250D01*
X458824Y263741D01*
Y263189D01*
X459035Y262680D01*
X459425Y262290D01*
X459935Y262079D01*
X460486D01*
X460995Y262290D01*
X461385Y262680D01*
X461596Y263189D01*
Y263741D01*
X461385Y264250D01*
X460995Y264640D01*
X460486Y264851D01*
D02*
G37*
G36*
X503440Y264669D02*
X502889D01*
X502380Y264458D01*
X501990Y264068D01*
X501779Y263559D01*
Y263007D01*
X501990Y262498D01*
X502380Y262108D01*
X502889Y261897D01*
X503440D01*
X503950Y262108D01*
X504340Y262498D01*
X504551Y263007D01*
Y263559D01*
X504340Y264068D01*
X503950Y264458D01*
X503440Y264669D01*
D02*
G37*
%LPD*%
G36*
X524250Y449292D02*
X524297Y449240D01*
X524345Y449194D01*
X524396Y449154D01*
X524448Y449120D01*
X524503Y449093D01*
X524559Y449071D01*
X524618Y449056D01*
X524678Y449047D01*
X524740Y449044D01*
X524675Y448643D01*
X524617Y448641D01*
X524558Y448634D01*
X524498Y448621D01*
X524437Y448604D01*
X524376Y448582D01*
X524313Y448555D01*
X524250Y448523D01*
X524186Y448486D01*
X524056Y448398D01*
X524205Y449351D01*
X524250Y449292D01*
D02*
G37*
G36*
X522252Y444747D02*
X522277Y444733D01*
X522310Y444721D01*
X522348Y444710D01*
X522393Y444701D01*
X522445Y444694D01*
X522567Y444684D01*
X522715Y444681D01*
Y443881D01*
X522638Y443880D01*
X522445Y443868D01*
X522393Y443860D01*
X522348Y443851D01*
X522310Y443841D01*
X522277Y443828D01*
X522252Y443814D01*
X522232Y443799D01*
Y444763D01*
X522252Y444747D01*
D02*
G37*
G36*
X528192Y442409D02*
X528197Y442362D01*
X528204Y442317D01*
X528214Y442274D01*
X528228Y442234D01*
X528244Y442196D01*
X528263Y442160D01*
X528285Y442127D01*
X528309Y442095D01*
X528337Y442066D01*
X527648Y442057D01*
X527675Y442087D01*
X527700Y442119D01*
X527721Y442153D01*
X527739Y442189D01*
X527755Y442228D01*
X527768Y442268D01*
X527778Y442311D01*
X527785Y442356D01*
X527789Y442403D01*
X527791Y442452D01*
X528191Y442458D01*
X528192Y442409D01*
D02*
G37*
G36*
X530747Y440752D02*
X530784Y440722D01*
X530821Y440696D01*
X530858Y440674D01*
X530896Y440656D01*
X530934Y440642D01*
X530973Y440632D01*
X531012Y440626D01*
X531051Y440624D01*
X531091Y440626D01*
X530649Y440098D01*
X530644Y440138D01*
X530636Y440177D01*
X530625Y440216D01*
X530610Y440254D01*
X530593Y440293D01*
X530572Y440330D01*
X530548Y440367D01*
X530520Y440404D01*
X530490Y440440D01*
X530456Y440475D01*
X530711Y440786D01*
X530747Y440752D01*
D02*
G37*
G36*
X534094Y346736D02*
X534037Y346790D01*
X533980Y346839D01*
X533923Y346882D01*
X533865Y346920D01*
X533807Y346951D01*
X533748Y346977D01*
X533690Y346997D01*
X533631Y347012D01*
X533571Y347020D01*
X533511Y347023D01*
Y347412D01*
X533571Y347415D01*
X533631Y347424D01*
X533690Y347438D01*
X533748Y347458D01*
X533807Y347484D01*
X533865Y347516D01*
X533923Y347553D01*
X533980Y347597D01*
X534037Y347645D01*
X534094Y347700D01*
Y346736D01*
D02*
G37*
G36*
X530259Y347072D02*
X530264Y347025D01*
X530271Y346980D01*
X530282Y346938D01*
X530295Y346897D01*
X530312Y346859D01*
X530331Y346822D01*
X530354Y346787D01*
X530379Y346755D01*
X530408Y346725D01*
X529719D01*
X529747Y346755D01*
X529773Y346787D01*
X529795Y346822D01*
X529815Y346859D01*
X529831Y346897D01*
X529845Y346938D01*
X529855Y346980D01*
X529863Y347025D01*
X529867Y347072D01*
X529869Y347120D01*
X530258D01*
X530259Y347072D01*
D02*
G37*
G36*
X525701Y346352D02*
X525715Y346326D01*
X525740Y346291D01*
X525774Y346248D01*
X525936Y346069D01*
X526185Y345813D01*
X525902Y345530D01*
X525809Y345623D01*
X525363Y346015D01*
X525345Y346020D01*
X525696Y346370D01*
X525701Y346352D01*
D02*
G37*
G36*
X526566Y345434D02*
X526603Y345404D01*
X526639Y345377D01*
X526677Y345354D01*
X526715Y345335D01*
X526753Y345320D01*
X526791Y345308D01*
X526831Y345299D01*
X526870Y345295D01*
X526911Y345294D01*
X526428Y344802D01*
X526427Y344842D01*
X526421Y344882D01*
X526412Y344921D01*
X526400Y344960D01*
X526384Y344998D01*
X526364Y345036D01*
X526341Y345073D01*
X526314Y345110D01*
X526284Y345146D01*
X526250Y345182D01*
X526530Y345468D01*
X526566Y345434D01*
D02*
G37*
D12*
X532686Y433263D02*
Y434230D01*
X531865Y344793D02*
Y344842D01*
X531673Y344601D02*
X531865Y344793D01*
X531673Y343267D02*
Y344601D01*
X531626Y343220D02*
X531673Y343267D01*
X528463Y348032D02*
X528472Y348022D01*
Y346416D02*
Y348022D01*
X532753Y441615D02*
X532759Y441622D01*
X532807D01*
X532759D02*
Y441667D01*
X532715Y441712D02*
X532759Y441667D01*
X526413Y444859D02*
X526413D01*
D14*
X529107Y433877D02*
Y435834D01*
X527991Y436950D02*
X529107Y435834D01*
X529566Y436989D02*
X530326Y436229D01*
X533035Y352157D02*
Y352168D01*
X526897Y343165D02*
X528092Y341969D01*
X526897Y343165D02*
Y343229D01*
X528092Y341969D02*
X528092D01*
X528142Y341919D01*
X531078Y440137D02*
X531140D01*
X529686Y441528D02*
X531078Y440137D01*
X523644Y448950D02*
X523751Y448843D01*
X524933D01*
X527991Y445786D01*
X531645Y341653D02*
X535956Y345965D01*
X528661Y344637D02*
X528775D01*
X530070Y343228D02*
Y343341D01*
X528775Y344637D02*
X530070Y343341D01*
X526920Y346378D02*
X528661Y344637D01*
X525346Y346370D02*
X526914Y344802D01*
X526920D01*
X529686Y441528D02*
Y441593D01*
X527991Y436950D02*
Y436989D01*
Y441713D02*
Y445786D01*
D15*
X537782Y345245D02*
Y348650D01*
X533213Y341660D02*
X534198D01*
X537782Y345245D01*
X526170Y359129D02*
X535956Y349343D01*
X520687Y359129D02*
X526170D01*
X535956Y345965D02*
Y349343D01*
X525719Y360713D02*
X537782Y348650D01*
X521343Y360713D02*
X525719D01*
X528142Y339661D02*
Y341919D01*
X519140Y360676D02*
X520687Y359129D01*
D90*
X526416Y431185D02*
X529107Y433877D01*
X523460Y432458D02*
X526416Y435414D01*
X527991D01*
X530326Y413345D02*
Y436229D01*
X493313Y402740D02*
X495753Y405181D01*
X532704Y449716D02*
Y450753D01*
Y452754D02*
Y455060D01*
X532397Y452447D02*
X532704Y452754D01*
X532397Y451061D02*
Y452447D01*
X529686Y446699D02*
X532704Y449716D01*
X532397Y451061D02*
X532704Y450753D01*
X513831Y333446D02*
X515596D01*
X513726Y333341D02*
X513831Y333446D01*
X515989Y333840D02*
X516378D01*
X515596Y333446D02*
X515989Y333840D01*
X545076Y330000D02*
X546067D01*
X540966Y325890D02*
X545076Y330000D01*
X547048Y330980D02*
Y331721D01*
X548669Y333342D01*
X540966Y320498D02*
Y325890D01*
X538414Y317947D02*
X540966Y320498D01*
X546067Y330000D02*
X547048Y330980D01*
X510128Y325269D02*
X517450Y317947D01*
X538414D01*
X541820Y316640D02*
X544319Y319139D01*
X506328Y326079D02*
X515767Y316640D01*
X541820D01*
X524111Y341572D02*
X526841D01*
X516378Y333840D02*
X524111Y341572D01*
X495753Y405181D02*
X512632D01*
X532808Y439476D02*
X533706Y438579D01*
X538227D02*
X538327Y438479D01*
X533706Y438579D02*
X538227D01*
X532808Y439476D02*
Y440049D01*
X532716Y440142D02*
X532808Y440049D01*
X538431Y438579D02*
X538600D01*
X546521Y446499D01*
X546690D01*
X520527Y431708D02*
X521277Y432458D01*
X520289Y431708D02*
X520527D01*
X521277Y432458D02*
X523460D01*
X530326Y413345D02*
X532231Y411440D01*
X531136Y441719D02*
X531228Y441812D01*
Y442383D01*
X536011Y447165D01*
Y455060D01*
X510128Y325269D02*
Y327105D01*
X505932Y329711D02*
X507523D01*
X510128Y327105D01*
X548669Y333342D02*
X553831D01*
X544319Y323577D02*
X551607Y330865D01*
X544319Y319139D02*
Y323577D01*
X529686Y441593D02*
Y446699D01*
X526416Y418965D02*
Y431185D01*
X553158Y330865D02*
X553262Y330968D01*
X551607Y330865D02*
X553158D01*
X553831Y333342D02*
X553843Y333355D01*
X512632Y405181D02*
X526416Y418965D01*
X487097Y335631D02*
Y344925D01*
Y335631D02*
X497090D01*
X494249Y348184D02*
X503996Y338437D01*
X493727Y348184D02*
X494249D01*
X489306Y352605D02*
X493727Y348184D01*
X503996Y331646D02*
Y338437D01*
X488094Y352605D02*
X489306D01*
X481853Y358846D02*
X488094Y352605D01*
X480513Y358846D02*
X481853D01*
X497090Y335631D02*
X500235Y332487D01*
Y331379D02*
Y332487D01*
Y331379D02*
X501566Y330048D01*
X502656D01*
X504254Y328449D01*
Y327341D02*
X505516Y326079D01*
X504254Y327341D02*
Y328449D01*
X505516Y326079D02*
X506328D01*
X503996Y331646D02*
X505932Y329711D01*
X516808Y433616D02*
X523043D01*
X526416Y436989D01*
D93*
X533565Y432384D02*
X535746D01*
X532686Y433263D02*
X533565Y432384D01*
X538325Y425993D02*
Y429804D01*
X535746Y432384D02*
X538325Y429804D01*
D95*
X530063Y350050D02*
X531652Y351638D01*
X531777D01*
X526910Y336489D02*
X526984D01*
X528142Y337648D01*
X530063Y346384D02*
X530070Y346378D01*
X530063Y346384D02*
Y350050D01*
X530111Y344836D02*
X532492Y347218D01*
X534586D01*
X528142Y337648D02*
Y339661D01*
D96*
X526920Y346378D02*
Y351972D01*
X526972Y352024D01*
X529026Y336211D02*
X529175Y336360D01*
X529026Y334271D02*
Y336211D01*
X529175Y336360D02*
Y337249D01*
X532702Y435399D02*
X532707Y435394D01*
Y434219D02*
Y435394D01*
X532702Y435399D02*
X532722Y435419D01*
X532715Y440139D02*
X532770Y440084D01*
X524511Y443288D02*
X526416D01*
X519140Y360676D02*
Y373696D01*
X506714Y386122D02*
X519140Y373696D01*
X529175Y337249D02*
X530070Y338145D01*
Y341653D01*
X525346Y346370D02*
Y347953D01*
D101*
X521740Y444281D02*
X523519D01*
X524511Y443288D01*
D103*
X477785Y438657D02*
D03*
Y404642D02*
D03*
D104*
X462037Y438657D02*
D03*
Y404642D02*
D03*
D105*
X457204Y463037D02*
D03*
D106*
Y453037D02*
D03*
D107*
X492233Y391293D02*
D03*
X528523Y343213D02*
D03*
X527512Y452759D02*
D03*
X527489Y450805D02*
D03*
X529399Y452760D02*
D03*
X529508Y450742D02*
D03*
X531760Y427923D02*
D03*
X531738Y425970D02*
D03*
X533647Y427925D02*
D03*
X533756Y425906D02*
D03*
X524593Y425966D02*
D03*
X524484Y427985D02*
D03*
X522575Y426029D02*
D03*
X534289Y440140D02*
D03*
X532700Y436983D02*
D03*
X531865Y344842D02*
D03*
X528463Y348032D02*
D03*
X522597Y427983D02*
D03*
X532715Y441712D02*
D03*
X526413Y441716D02*
D03*
X526413Y444859D02*
D03*
X492284Y389431D02*
D03*
X498324Y389941D02*
D03*
X498082Y392317D02*
D03*
X525272Y350591D02*
D03*
D108*
X527992Y435408D02*
D03*
X528523Y343213D02*
D03*
X526841Y341572D02*
D03*
X527512Y452759D02*
D03*
X527489Y450805D02*
D03*
X529399Y452760D02*
D03*
X529508Y450742D02*
D03*
X531760Y427923D02*
D03*
X531738Y425970D02*
D03*
X533647Y427925D02*
D03*
X533756Y425906D02*
D03*
X524593Y425966D02*
D03*
X524484Y427985D02*
D03*
X522575Y426029D02*
D03*
X531140Y440137D02*
D03*
X534289Y440140D02*
D03*
X532700Y436983D02*
D03*
X530063Y346373D02*
D03*
X530111Y344836D02*
D03*
X530068Y343220D02*
D03*
X531645Y341646D02*
D03*
X531626Y343220D02*
D03*
X533213Y341660D02*
D03*
X530062D02*
D03*
X526897Y343229D02*
D03*
X525329Y347954D02*
D03*
X528472Y346416D02*
D03*
X526920Y344802D02*
D03*
X522597Y427983D02*
D03*
X532722Y435419D02*
D03*
X529565Y436992D02*
D03*
X527992D02*
D03*
X526413D02*
D03*
X531136Y441719D02*
D03*
X532716Y440142D02*
D03*
X532715Y441712D02*
D03*
X527997Y441710D02*
D03*
X526413Y441716D02*
D03*
X526421Y443291D02*
D03*
X526413Y444859D02*
D03*
D109*
X532746Y379478D02*
D03*
X532882Y377152D02*
D03*
X534463Y391818D02*
D03*
X567605Y340399D02*
D03*
X567803Y331900D02*
D03*
X497744Y387720D02*
D03*
X521876Y460466D02*
D03*
X521087Y468707D02*
D03*
X566658Y382519D02*
D03*
X567776Y328237D02*
D03*
X565097Y453525D02*
D03*
X564211Y379372D02*
D03*
X550717Y347318D02*
D03*
X555956Y328235D02*
D03*
X555042Y326076D02*
D03*
X554612Y338384D02*
D03*
X554592Y335691D02*
D03*
X547148Y366728D02*
D03*
X530674Y361049D02*
D03*
X513649Y396858D02*
D03*
X517095Y447736D02*
D03*
X497169Y376584D02*
D03*
X523586Y421379D02*
D03*
X506268Y327895D02*
D03*
X502240D02*
D03*
X502180Y332002D02*
D03*
X498152D02*
D03*
X494123D02*
D03*
X498211Y327895D02*
D03*
X494183D02*
D03*
X489628Y332002D02*
D03*
X490155Y327895D02*
D03*
X486066Y332002D02*
D03*
X486126Y327895D02*
D03*
X511438Y396858D02*
D03*
X543859Y305976D02*
D03*
X496884Y367645D02*
D03*
X556485Y456895D02*
D03*
X506209Y332002D02*
D03*
X562508Y465010D02*
D03*
X550140Y468198D02*
D03*
X566758Y461666D02*
D03*
X562482Y461679D02*
D03*
X566627Y464892D02*
D03*
X566417Y468289D02*
D03*
X562640Y468237D02*
D03*
X558652Y468224D02*
D03*
X554573Y468211D02*
D03*
X556391Y462592D02*
D03*
X548478Y462601D02*
D03*
X517457Y467904D02*
D03*
Y464203D02*
D03*
Y460502D02*
D03*
X521036Y463001D02*
D03*
X532772Y421330D02*
D03*
X461313Y354070D02*
D03*
X502253Y319131D02*
D03*
X490167D02*
D03*
X486139D02*
D03*
X494196D02*
D03*
X498224D02*
D03*
X506281D02*
D03*
X498358Y323424D02*
D03*
X486272D02*
D03*
X494329D02*
D03*
X490301D02*
D03*
X502386D02*
D03*
X506415D02*
D03*
X489951Y314448D02*
D03*
X493979D02*
D03*
X498008D02*
D03*
X502036D02*
D03*
X506065D02*
D03*
X485922D02*
D03*
X529247Y368617D02*
D03*
X517892Y386122D02*
D03*
X542896Y325293D02*
D03*
X561005Y456833D02*
D03*
X545614Y467233D02*
D03*
D110*
X516330Y344316D02*
D03*
X518322Y322977D02*
D03*
X514301Y298183D02*
D03*
X540771Y341180D02*
D03*
X530502Y329726D02*
D03*
X536274Y338643D02*
D03*
X538513Y343657D02*
D03*
X513750Y345000D02*
D03*
X492638Y432873D02*
D03*
X502500Y442500D02*
D03*
X538720Y349931D02*
D03*
X538745Y355223D02*
D03*
X519574Y333859D02*
D03*
X490493Y300000D02*
D03*
X494077Y302806D02*
D03*
X474423Y260399D02*
D03*
X494890Y285006D02*
D03*
X493798Y264861D02*
D03*
X469191Y257670D02*
D03*
X538506Y320405D02*
D03*
X515048Y323000D02*
D03*
X525459Y320296D02*
D03*
X532656Y335026D02*
D03*
X526910Y336489D02*
D03*
X562500Y442500D02*
D03*
Y427500D02*
D03*
Y412500D02*
D03*
Y292500D02*
D03*
X558750Y450000D02*
D03*
Y420000D02*
D03*
Y360000D02*
D03*
X555000Y352500D02*
D03*
Y292500D02*
D03*
X558750Y285000D02*
D03*
X547500Y397500D02*
D03*
Y322500D02*
D03*
Y292500D02*
D03*
X551250Y285000D02*
D03*
X540000Y397500D02*
D03*
X543750Y300000D02*
D03*
X540000Y262500D02*
D03*
X536250Y465000D02*
D03*
X532500Y397500D02*
D03*
X525000Y412500D02*
D03*
Y292500D02*
D03*
Y277500D02*
D03*
Y262500D02*
D03*
X517500Y277500D02*
D03*
Y262500D02*
D03*
X513750Y465000D02*
D03*
Y270000D02*
D03*
X510000Y262500D02*
D03*
X506250Y465000D02*
D03*
Y435000D02*
D03*
X502500Y427500D02*
D03*
Y292500D02*
D03*
X498750Y465000D02*
D03*
Y450000D02*
D03*
Y435000D02*
D03*
X495000Y412500D02*
D03*
X498750Y285000D02*
D03*
Y270000D02*
D03*
X491250Y285000D02*
D03*
X487500Y262500D02*
D03*
X480000Y457500D02*
D03*
X483750Y405000D02*
D03*
X480000Y307500D02*
D03*
Y277500D02*
D03*
X472500Y457500D02*
D03*
X476250Y360000D02*
D03*
X472500Y277500D02*
D03*
X465000Y457500D02*
D03*
Y427500D02*
D03*
X468750Y420000D02*
D03*
X465000Y412500D02*
D03*
Y397500D02*
D03*
Y367500D02*
D03*
Y307500D02*
D03*
Y292500D02*
D03*
X457500Y427500D02*
D03*
X461250Y420000D02*
D03*
X457500Y412500D02*
D03*
Y397500D02*
D03*
Y367500D02*
D03*
X461250Y345000D02*
D03*
X457500Y292500D02*
D03*
Y262500D02*
D03*
X488205Y445881D02*
D03*
X488159Y447834D02*
D03*
X506547Y455854D02*
D03*
X508904Y455218D02*
D03*
X522504Y353428D02*
D03*
X543212Y333546D02*
D03*
X525038Y322643D02*
D03*
X522790Y323022D02*
D03*
X565929Y320433D02*
D03*
X566039Y308558D02*
D03*
X568407Y311476D02*
D03*
X467986Y357592D02*
D03*
X466677Y347570D02*
D03*
X468989Y347727D02*
D03*
X466532Y344363D02*
D03*
X460079Y259966D02*
D03*
X476078Y265714D02*
D03*
X508073Y348535D02*
D03*
X467100Y417572D02*
D03*
X467174Y424452D02*
D03*
X564918Y337030D02*
D03*
X520244Y329495D02*
D03*
X512781Y425994D02*
D03*
X551614Y440660D02*
D03*
X532893Y359318D02*
D03*
X550429Y260375D02*
D03*
X547660Y260258D02*
D03*
X544738Y343529D02*
D03*
X505408Y296881D02*
D03*
X505388Y294109D02*
D03*
X505367Y291338D02*
D03*
X505626Y288578D02*
D03*
X507466Y286506D02*
D03*
X510204Y286072D02*
D03*
X512975D02*
D03*
X515747D02*
D03*
X518518D02*
D03*
X521290D02*
D03*
X524062D02*
D03*
X526833D02*
D03*
X529605D02*
D03*
X532377D02*
D03*
X535122Y285694D02*
D03*
X536416Y278645D02*
D03*
X539188D02*
D03*
X541507Y280162D02*
D03*
X544279D02*
D03*
X546532Y278548D02*
D03*
Y275776D02*
D03*
Y273005D02*
D03*
X545728Y262245D02*
D03*
X551482Y265563D02*
D03*
X551581Y268333D02*
D03*
X550844Y271005D02*
D03*
Y273777D02*
D03*
Y276548D02*
D03*
Y279320D02*
D03*
X550750Y282090D02*
D03*
X548941Y284190D02*
D03*
X546184Y284474D02*
D03*
X543413D02*
D03*
X540755Y285261D02*
D03*
X539156Y287525D02*
D03*
X531841Y290384D02*
D03*
X529069D02*
D03*
X526297D02*
D03*
X523526D02*
D03*
X520754D02*
D03*
X515211D02*
D03*
X512439D02*
D03*
X509674Y290570D02*
D03*
X507123Y303288D02*
D03*
X456142Y372881D02*
D03*
X462955Y387712D02*
D03*
X459383Y395867D02*
D03*
X459600Y372881D02*
D03*
X463057D02*
D03*
X462955Y382808D02*
D03*
X456118Y387712D02*
D03*
X459537D02*
D03*
X459497Y382808D02*
D03*
X462867Y392822D02*
D03*
X456074D02*
D03*
X456039Y382808D02*
D03*
X540757Y458763D02*
D03*
X551410Y414632D02*
D03*
X468128Y406431D02*
D03*
X510754Y365925D02*
D03*
X468059Y362264D02*
D03*
X549128Y309660D02*
D03*
X552403Y438734D02*
D03*
X511323Y375595D02*
D03*
X524985Y302799D02*
D03*
X524138Y305580D02*
D03*
X540815Y466797D02*
D03*
X538325Y425993D02*
D03*
X538927Y421162D02*
D03*
X543314Y420979D02*
D03*
X539411Y418176D02*
D03*
X542870Y425471D02*
D03*
X547367Y418176D02*
D03*
X543389D02*
D03*
X539444Y415424D02*
D03*
X543431Y415374D02*
D03*
X547434Y415257D02*
D03*
X546900Y411738D02*
D03*
X467449Y430559D02*
D03*
X467351Y413510D02*
D03*
X479895Y399959D02*
D03*
X467410Y410393D02*
D03*
X467386Y402371D02*
D03*
X474611Y434323D02*
D03*
X459471Y392822D02*
D03*
X466600Y442100D02*
D03*
X455233Y408100D02*
D03*
Y410690D02*
D03*
Y413280D02*
D03*
Y415870D02*
D03*
Y431410D02*
D03*
Y426230D02*
D03*
Y428820D02*
D03*
Y434000D02*
D03*
Y423640D02*
D03*
Y418460D02*
D03*
Y421050D02*
D03*
X466500Y446200D02*
D03*
X455250D02*
D03*
X462750D02*
D03*
X459000D02*
D03*
X477750D02*
D03*
X474000D02*
D03*
X470250D02*
D03*
X468550Y449100D02*
D03*
X472300D02*
D03*
X464800D02*
D03*
X476050D02*
D03*
X467025Y452750D02*
D03*
X470775D02*
D03*
X463275D02*
D03*
X474525D02*
D03*
X528966Y304522D02*
D03*
X455450Y399900D02*
D03*
X459200D02*
D03*
X466700D02*
D03*
X462021Y408914D02*
D03*
X458755Y408668D02*
D03*
X465376Y408489D02*
D03*
X468367Y434000D02*
D03*
X465083D02*
D03*
X461800D02*
D03*
X471650D02*
D03*
X458517D02*
D03*
X470350Y442100D02*
D03*
X474100D02*
D03*
X477850D02*
D03*
X459100D02*
D03*
X462850D02*
D03*
X455350D02*
D03*
X459527Y369355D02*
D03*
X520214Y297927D02*
D03*
X522756Y297883D02*
D03*
X517724Y291659D02*
D03*
X501551Y296088D02*
D03*
X501563Y298216D02*
D03*
X515737Y380228D02*
D03*
X467235Y366926D02*
D03*
X482975Y387691D02*
D03*
X483533Y392666D02*
D03*
X551085Y421736D02*
D03*
X509895Y294480D02*
D03*
X558695Y319259D02*
D03*
X547948Y295166D02*
D03*
X559677Y301780D02*
D03*
X559819Y307371D02*
D03*
X559400Y305228D02*
D03*
X559354Y314063D02*
D03*
X568008Y322826D02*
D03*
X565924Y302962D02*
D03*
X565982Y300856D02*
D03*
X504587Y305236D02*
D03*
X497471Y296003D02*
D03*
X497321Y298216D02*
D03*
X545665Y264897D02*
D03*
X515464Y423471D02*
D03*
X505688Y425974D02*
D03*
X538480Y270214D02*
D03*
X538393Y272758D02*
D03*
X538519Y267251D02*
D03*
X526866Y270214D02*
D03*
X526955Y267471D02*
D03*
X526829Y272978D02*
D03*
X505415Y445798D02*
D03*
X503049Y445809D02*
D03*
X535994Y290873D02*
D03*
X536013Y293284D02*
D03*
X524939Y354145D02*
D03*
X509483Y369202D02*
D03*
X500492Y419783D02*
D03*
X502730Y269532D02*
D03*
X481542Y293239D02*
D03*
X477212D02*
D03*
X485873D02*
D03*
X475047Y301586D02*
D03*
X497768Y427425D02*
D03*
X521355Y435414D02*
D03*
X551117Y425693D02*
D03*
X554962Y443080D02*
D03*
X504639Y348719D02*
D03*
X456263Y360934D02*
D03*
X456105Y353641D02*
D03*
X544976Y270802D02*
D03*
X542417Y270901D02*
D03*
X522828Y270214D02*
D03*
X515109Y279239D02*
D03*
X559597Y299322D02*
D03*
X547948Y297529D02*
D03*
X503165Y263283D02*
D03*
X521343Y360713D02*
D03*
X542350Y411714D02*
D03*
X554962Y445691D02*
D03*
X551117Y431275D02*
D03*
X545374Y331673D02*
D03*
X544801Y462622D02*
D03*
X468786Y344222D02*
D03*
X513971Y439450D02*
D03*
X516530Y439148D02*
D03*
X503712Y438513D02*
D03*
X455752Y344847D02*
D03*
X506714Y386122D02*
D03*
X521962Y328653D02*
D03*
X544547Y437720D02*
D03*
X534069Y451754D02*
D03*
X473307Y322838D02*
D03*
X469980Y308563D02*
D03*
X470079Y311417D02*
D03*
X472539Y317913D02*
D03*
X466043Y321063D02*
D03*
X460210Y263465D02*
D03*
X459936Y266895D02*
D03*
X484247Y264926D02*
D03*
X476268Y270044D02*
D03*
X502607Y271991D02*
D03*
X520463Y271286D02*
D03*
X496949Y419783D02*
D03*
X466339Y317520D02*
D03*
D111*
X493009Y393051D02*
D03*
X493313Y402740D02*
D03*
X530028Y352045D02*
D03*
X531777Y351638D02*
D03*
X526972Y352024D02*
D03*
X513726Y333341D02*
D03*
X515258Y314715D02*
D03*
X519466D02*
D03*
X523247D02*
D03*
X526797D02*
D03*
X517247D02*
D03*
X521466D02*
D03*
X525302D02*
D03*
X529026Y334271D02*
D03*
X514310Y331270D02*
D03*
X538431Y438579D02*
D03*
X487149Y406700D02*
D03*
X523644Y448950D02*
D03*
X534586Y347218D02*
D03*
X546690Y446499D02*
D03*
X520289Y431708D02*
D03*
X528844Y314693D02*
D03*
X510481Y339410D02*
D03*
X497972Y394416D02*
D03*
X499551Y351685D02*
D03*
X485265Y351681D02*
D03*
X485382Y347862D02*
D03*
X468431Y328834D02*
D03*
X465469Y328758D02*
D03*
X462570Y328834D02*
D03*
X471305Y329010D02*
D03*
X459755Y329064D02*
D03*
X457564Y330829D02*
D03*
X457364Y334234D02*
D03*
X457276Y337626D02*
D03*
X457652Y340117D02*
D03*
X467991Y341043D02*
D03*
X473586Y340831D02*
D03*
X553262Y330968D02*
D03*
X553843Y333355D02*
D03*
X559401Y321619D02*
D03*
X515269Y301511D02*
D03*
X516886Y300418D02*
D03*
X518963Y300375D02*
D03*
X521017Y300353D02*
D03*
X522755Y300342D02*
D03*
X524908Y300145D02*
D03*
X527072Y300123D02*
D03*
X530427Y301763D02*
D03*
X532405Y308615D02*
D03*
X532558Y304626D02*
D03*
X532722Y306527D02*
D03*
X530809Y314287D02*
D03*
X514242Y313172D02*
D03*
X531670Y302919D02*
D03*
X529327Y300544D02*
D03*
X513804Y303046D02*
D03*
X524494Y310001D02*
D03*
X520403Y312370D02*
D03*
X512576Y304578D02*
D03*
Y306895D02*
D03*
X515966Y365759D02*
D03*
X484059Y362746D02*
D03*
X478117Y362097D02*
D03*
X487477Y359580D02*
D03*
X487429Y357496D02*
D03*
X489824Y343927D02*
D03*
X490220Y404364D02*
D03*
X487097Y344925D02*
D03*
X493009Y387376D02*
D03*
X476895Y337792D02*
D03*
X474839Y330260D02*
D03*
X473320Y328984D02*
D03*
X492363Y351685D02*
D03*
X480513Y358846D02*
D03*
X514439Y328003D02*
D03*
X515719Y338868D02*
D03*
X532231Y411440D02*
D03*
X478234Y358892D02*
D03*
X508506Y366031D02*
D03*
X517667Y331179D02*
D03*
X521740Y444281D02*
D03*
X524127Y337182D02*
D03*
X493623Y346673D02*
D03*
X515765Y368709D02*
D03*
X471073Y340865D02*
D03*
X465250Y340936D02*
D03*
X536011Y455060D02*
D03*
X532704D02*
D03*
X516808Y433616D02*
D03*
X461798Y340465D02*
D03*
X461925Y335048D02*
D03*
X459598Y334665D02*
D03*
M02*
