G04*
G04 #@! TF.GenerationSoftware,Altium Limited,Altium Designer,25.0.2 (28)*
G04*
G04 Layer_Color=128*
%FSLAX25Y25*%
%MOIN*%
G70*
G04*
G04 #@! TF.SameCoordinates,324F7660-DA8E-4942-B91F-9937254DA12D*
G04*
G04*
G04 #@! TF.FilePolarity,Positive*
G04*
G01*
G75*
%ADD15C,0.00500*%
D15*
X527795Y435408D02*
X528189D01*
X527992Y435211D02*
Y435604D01*
X528326Y343213D02*
X528720D01*
X528523Y343017D02*
Y343410D01*
X526644Y341572D02*
X527037D01*
X526841Y341375D02*
Y341769D01*
X527315Y452759D02*
X527709D01*
X527512Y452562D02*
Y452955D01*
X527292Y450805D02*
X527686D01*
X527489Y450608D02*
Y451002D01*
X529202Y452760D02*
X529596D01*
X529399Y452564D02*
Y452957D01*
X529311Y450742D02*
X529705D01*
X529508Y450545D02*
Y450938D01*
X531563Y427923D02*
X531957D01*
X531760Y427727D02*
Y428120D01*
X531541Y425970D02*
X531934D01*
X531738Y425773D02*
Y426167D01*
X533450Y427925D02*
X533844D01*
X533647Y427728D02*
Y428122D01*
X533560Y425906D02*
X533953D01*
X533756Y425709D02*
Y426103D01*
X524397Y425966D02*
X524790D01*
X524593Y425769D02*
Y426163D01*
X524287Y427985D02*
X524681D01*
X524484Y427788D02*
Y428182D01*
X522378Y426029D02*
X522771D01*
X522575Y425833D02*
Y426226D01*
X530943Y440137D02*
X531336D01*
X531140Y439940D02*
Y440333D01*
X534092Y440140D02*
X534486D01*
X534289Y439944D02*
Y440337D01*
X532503Y436983D02*
X532897D01*
X532700Y436786D02*
Y437180D01*
X529866Y346373D02*
X530260D01*
X530063Y346176D02*
Y346570D01*
X529914Y344836D02*
X530307D01*
X530111Y344639D02*
Y345033D01*
X529872Y343220D02*
X530265D01*
X530068Y343023D02*
Y343417D01*
X531448Y341646D02*
X531842D01*
X531645Y341449D02*
Y341843D01*
X531429Y343220D02*
X531822D01*
X531626Y343023D02*
Y343417D01*
X533016Y341660D02*
X533410D01*
X533213Y341464D02*
Y341857D01*
X529866Y341660D02*
X530259D01*
X530062Y341464D02*
Y341857D01*
X526700Y343229D02*
X527094D01*
X526897Y343032D02*
Y343425D01*
X525132Y347954D02*
X525526D01*
X525329Y347758D02*
Y348151D01*
X528275Y346416D02*
X528669D01*
X528472Y346219D02*
Y346613D01*
X526724Y347953D02*
X527117D01*
X526920Y347756D02*
Y348149D01*
X533023Y346378D02*
X533417D01*
X533220Y346181D02*
Y346574D01*
X529873Y340078D02*
X530267D01*
X530070Y339882D02*
Y340275D01*
X526723Y344802D02*
X527117D01*
X526920Y344605D02*
Y344998D01*
X522400Y427983D02*
X522794D01*
X522597Y427786D02*
Y428180D01*
X532525Y435419D02*
X532918D01*
X532722Y435222D02*
Y435616D01*
X529368Y436992D02*
X529761D01*
X529565Y436795D02*
Y437189D01*
X527795Y436992D02*
X528189D01*
X527992Y436795D02*
Y437189D01*
X526216Y436992D02*
X526610D01*
X526413Y436795D02*
Y437189D01*
X530939Y441719D02*
X531333D01*
X531136Y441522D02*
Y441916D01*
X532519Y440142D02*
X532913D01*
X532716Y439945D02*
Y440339D01*
X532518Y441712D02*
X532911D01*
X532715Y441515D02*
Y441909D01*
X527801Y441710D02*
X528194D01*
X527997Y441513D02*
Y441907D01*
X526216Y441716D02*
X526610D01*
X526413Y441520D02*
Y441913D01*
X526225Y443291D02*
X526618D01*
X526421Y443094D02*
Y443488D01*
X526216Y444859D02*
X526610D01*
X526413Y444662D02*
Y445055D01*
X524644Y435414D02*
X525038D01*
X524841Y435217D02*
Y435611D01*
X534093Y435414D02*
X534487D01*
X534290Y435217D02*
Y435611D01*
X534093Y443288D02*
X534487D01*
X534290Y443091D02*
Y443485D01*
X524644Y443288D02*
X525038D01*
X524841Y443091D02*
Y443485D01*
X529369Y440139D02*
X529763D01*
X529566Y439942D02*
Y440336D01*
X527794Y440139D02*
X528188D01*
X527991Y439942D02*
Y440336D01*
X527794Y438564D02*
X528188D01*
X527991Y438367D02*
Y438761D01*
X529369Y438564D02*
X529763D01*
X529566Y438367D02*
Y438761D01*
X530944Y438564D02*
X531337D01*
X531141Y438367D02*
Y438761D01*
M02*
