G04*
G04 #@! TF.GenerationSoftware,Altium Limited,Altium Designer,25.0.2 (28)*
G04*
G04 Layer_Physical_Order=6*
G04 Layer_Color=16711680*
%FSLAX25Y25*%
%MOIN*%
G70*
G04*
G04 #@! TF.SameCoordinates,429E233F-0BEF-4298-A7B5-772D1861D101*
G04*
G04*
G04 #@! TF.FilePolarity,Positive*
G04*
G01*
G75*
%ADD12C,0.01000*%
%ADD13C,0.00600*%
%ADD14C,0.00400*%
%ADD15C,0.00500*%
%ADD27C,0.03937*%
%ADD32R,0.02087X0.02362*%
%ADD33R,0.02362X0.02087*%
%ADD39R,0.02323X0.02362*%
%ADD43R,0.03200X0.03500*%
%ADD50R,0.02362X0.02323*%
%ADD90C,0.00431*%
%ADD93C,0.01500*%
%ADD94C,0.00432*%
%ADD96C,0.00700*%
%ADD98C,0.02000*%
%ADD99C,0.00471*%
%ADD100C,0.04000*%
%ADD103C,0.00800*%
%ADD105O,0.07100X0.03900*%
%ADD106O,0.08700X0.03900*%
%ADD107C,0.06299*%
%ADD108R,0.06299X0.06299*%
%ADD109C,0.01772*%
%ADD110C,0.01378*%
%ADD112C,0.02000*%
%ADD113C,0.01181*%
%ADD115R,0.01968X0.01378*%
%ADD116R,0.00886X0.01968*%
%ADD117R,0.03150X0.05906*%
%ADD118R,0.03583X0.05354*%
G04:AMPARAMS|DCode=119|XSize=33.78mil|YSize=73mil|CornerRadius=0mil|HoleSize=0mil|Usage=FLASHONLY|Rotation=225.000|XOffset=0mil|YOffset=0mil|HoleType=Round|Shape=Rectangle|*
%AMROTATEDRECTD119*
4,1,4,-0.01387,0.03775,0.03775,-0.01387,0.01387,-0.03775,-0.03775,0.01387,-0.01387,0.03775,0.0*
%
%ADD119ROTATEDRECTD119*%

G04:AMPARAMS|DCode=120|XSize=33.78mil|YSize=73mil|CornerRadius=0mil|HoleSize=0mil|Usage=FLASHONLY|Rotation=315.000|XOffset=0mil|YOffset=0mil|HoleType=Round|Shape=Rectangle|*
%AMROTATEDRECTD120*
4,1,4,-0.03775,-0.01387,0.01387,0.03775,0.03775,0.01387,-0.01387,-0.03775,-0.03775,-0.01387,0.0*
%
%ADD120ROTATEDRECTD120*%

%ADD121R,0.03800X0.03900*%
%ADD122R,0.03900X0.03800*%
%ADD123R,0.03378X0.07300*%
G04:AMPARAMS|DCode=124|XSize=49.21mil|YSize=57.09mil|CornerRadius=12.3mil|HoleSize=0mil|Usage=FLASHONLY|Rotation=270.000|XOffset=0mil|YOffset=0mil|HoleType=Round|Shape=RoundedRectangle|*
%AMROUNDEDRECTD124*
21,1,0.04921,0.03248,0,0,270.0*
21,1,0.02461,0.05709,0,0,270.0*
1,1,0.02461,-0.01624,-0.01230*
1,1,0.02461,-0.01624,0.01230*
1,1,0.02461,0.01624,0.01230*
1,1,0.02461,0.01624,-0.01230*
%
%ADD124ROUNDEDRECTD124*%
G04:AMPARAMS|DCode=125|XSize=13.78mil|YSize=21.65mil|CornerRadius=3.45mil|HoleSize=0mil|Usage=FLASHONLY|Rotation=270.000|XOffset=0mil|YOffset=0mil|HoleType=Round|Shape=RoundedRectangle|*
%AMROUNDEDRECTD125*
21,1,0.01378,0.01476,0,0,270.0*
21,1,0.00689,0.02165,0,0,270.0*
1,1,0.00689,-0.00738,-0.00345*
1,1,0.00689,-0.00738,0.00345*
1,1,0.00689,0.00738,0.00345*
1,1,0.00689,0.00738,-0.00345*
%
%ADD125ROUNDEDRECTD125*%
%ADD126R,0.04724X0.06299*%
G36*
X569278Y383597D02*
X569227Y383578D01*
X568978Y383547D01*
X568460Y384322D01*
X567633Y384874D01*
X566658Y385068D01*
X565682Y384874D01*
X564855Y384322D01*
X564303Y383495D01*
X564197Y382962D01*
X562483Y381248D01*
X559708D01*
X559210Y381149D01*
X557308D01*
Y379448D01*
X557159Y378699D01*
X557308Y377950D01*
Y376249D01*
X559210D01*
X559708Y376150D01*
X563539D01*
X564514Y376344D01*
X565341Y376897D01*
X568460Y380016D01*
X568978Y380790D01*
X569227Y380760D01*
X569278Y380740D01*
Y341065D01*
X568978Y341005D01*
X568877Y341249D01*
X568455Y341671D01*
X567903Y341899D01*
X567307D01*
X566907Y341733D01*
X566865Y341735D01*
X566702Y341753D01*
X566602Y341770D01*
Y341981D01*
X566160D01*
X566090Y342011D01*
X566024Y341983D01*
X565953Y341993D01*
X565938Y341981D01*
X563822D01*
X563752Y342011D01*
X563681Y341981D01*
X563240D01*
Y341853D01*
X562108Y341419D01*
X560721D01*
X560233Y341322D01*
X559820Y341046D01*
X558941Y340167D01*
X558665Y339754D01*
X558578Y339317D01*
X558358D01*
Y336939D01*
X559411D01*
X559413Y336937D01*
X559504Y336615D01*
X559444Y336558D01*
X558558D01*
Y336069D01*
X559842D01*
Y335069D01*
X558558D01*
Y334580D01*
X559444D01*
X559504Y334523D01*
X559413Y334202D01*
X559411Y334199D01*
X558358D01*
Y333374D01*
X558081Y333260D01*
X557482Y333859D01*
X557245Y334017D01*
X556966Y334072D01*
X555387D01*
X555328Y334372D01*
X555442Y334420D01*
X555864Y334842D01*
X556092Y335393D01*
Y335990D01*
X555864Y336541D01*
X555442Y336963D01*
X555339Y337005D01*
X555305Y337344D01*
X555514Y337483D01*
X555790Y337897D01*
X555887Y338384D01*
X555790Y338872D01*
X555514Y339286D01*
X555100Y339562D01*
X554612Y339659D01*
X554477D01*
X553990Y339562D01*
X553751Y339403D01*
X551771D01*
X551284Y339306D01*
X551002Y339117D01*
X550487D01*
Y338628D01*
X551771D01*
Y337628D01*
X550487D01*
Y337139D01*
X550834D01*
X550902Y337058D01*
X550763Y336758D01*
X550287D01*
Y334499D01*
X550287Y334380D01*
X550287D01*
Y334199D01*
X550287D01*
Y331821D01*
X550287Y331821D01*
Y331640D01*
X550287D01*
X550287Y331521D01*
Y329262D01*
X552971D01*
X553132Y328962D01*
X552687Y328296D01*
X552493Y327321D01*
Y322962D01*
X552687Y321987D01*
X553239Y321160D01*
X553245Y321154D01*
Y319909D01*
X554946D01*
X555695Y319760D01*
X556444Y319909D01*
X558145D01*
Y320801D01*
X558198Y320832D01*
X558445Y320893D01*
X558727Y320611D01*
X559164Y320430D01*
X559637D01*
X560074Y320611D01*
X560408Y320946D01*
X560590Y321383D01*
Y321856D01*
X560408Y322293D01*
X560311Y322391D01*
X560273Y322486D01*
X560235Y322526D01*
X560213Y322552D01*
X560197Y322575D01*
X560184Y322595D01*
X560175Y322613D01*
X560168Y322629D01*
X560164Y322643D01*
X560161Y322657D01*
X560159Y322671D01*
X560157Y322710D01*
X560131Y322767D01*
Y328297D01*
X560254Y328384D01*
X560420Y328432D01*
X561490Y327361D01*
X561821Y327140D01*
X562212Y327062D01*
X562763D01*
X563692Y326598D01*
X563818Y326589D01*
X563934Y326541D01*
X564017Y326575D01*
X564105Y326568D01*
X564201Y326651D01*
X564317Y326699D01*
X564333Y326739D01*
X564603D01*
Y328082D01*
Y329425D01*
X564333D01*
X564317Y329465D01*
X564201Y329513D01*
X564105Y329595D01*
X564017Y329589D01*
X563934Y329623D01*
X563818Y329575D01*
X563692Y329566D01*
X562763Y329101D01*
X562634D01*
X561997Y329739D01*
X561285Y331138D01*
X561262Y331158D01*
X561256Y331189D01*
X561251Y331192D01*
X561127Y331440D01*
X561137Y331736D01*
X563088D01*
X563422Y331401D01*
Y329979D01*
X566158D01*
X566201Y329955D01*
X566237Y329965D01*
X566272Y329950D01*
X566343Y329979D01*
X566784D01*
Y330378D01*
X566792Y330391D01*
X566832Y330410D01*
X566928Y330440D01*
X567058Y330468D01*
X567286Y330490D01*
X567504Y330400D01*
X568101D01*
X568652Y330628D01*
X568978Y330954D01*
X569278Y330829D01*
Y256686D01*
X452603D01*
Y470006D01*
X569278D01*
Y383597D01*
D02*
G37*
G36*
X566105Y341412D02*
X566150Y341361D01*
X566224Y341316D01*
X566329Y341277D01*
X566464Y341244D01*
X566628Y341217D01*
X566823Y341196D01*
X567301Y341172D01*
X567585Y341168D01*
Y339668D01*
X567301Y339666D01*
X566464Y339603D01*
X566329Y339574D01*
X566224Y339540D01*
X566150Y339501D01*
X566105Y339457D01*
X566090Y339407D01*
Y341469D01*
X566105Y341412D01*
D02*
G37*
G36*
X563752Y339407D02*
X562252Y339395D01*
Y340895D01*
X563752Y341469D01*
Y339407D01*
D02*
G37*
G36*
X569278Y339733D02*
Y332971D01*
X568978Y332846D01*
X568652Y333172D01*
X568101Y333400D01*
X567504D01*
X566953Y333172D01*
X566877Y333095D01*
X566272D01*
X566233Y333079D01*
X565534D01*
X565470Y333066D01*
X565363D01*
X564517Y333911D01*
X564104Y334188D01*
X563616Y334285D01*
X563561D01*
X563531Y334585D01*
X563745Y334627D01*
X564057Y334836D01*
X564112Y334855D01*
X564905Y335562D01*
X564912Y335577D01*
X564928Y335583D01*
X564953Y335643D01*
X564955Y335646D01*
X564964Y335654D01*
X566402D01*
Y336497D01*
X564921D01*
Y336997D01*
X564421D01*
Y338340D01*
X563440D01*
Y337171D01*
X563369Y337142D01*
X563363Y337126D01*
X563348Y337119D01*
X562875Y336589D01*
X561874D01*
X561825Y336610D01*
X561508Y336616D01*
X561368Y336656D01*
X561327Y336939D01*
X561327D01*
Y338870D01*
X562211D01*
X562252Y338854D01*
X562254Y338855D01*
X562256Y338854D01*
X563756Y338866D01*
X563767Y338870D01*
X564490D01*
X564613Y338895D01*
X565926D01*
X565934Y338889D01*
X565996Y338895D01*
X566019D01*
X566090Y338866D01*
X566160Y338895D01*
X566602D01*
Y338943D01*
X566902Y339067D01*
X567307Y338899D01*
X567903D01*
X568455Y339127D01*
X568877Y339549D01*
X568978Y339793D01*
X569278Y339733D01*
D02*
G37*
G36*
X564837Y336148D02*
X564799Y336147D01*
X564758Y336139D01*
X564713Y336124D01*
X564664Y336101D01*
X564612Y336070D01*
X564556Y336032D01*
X564513Y335998D01*
X564545Y335966D01*
X563752Y335259D01*
X563045Y335966D01*
X563752Y336759D01*
X563789Y336722D01*
X563935Y336891D01*
X563969Y336940D01*
X563996Y336985D01*
X564016Y337025D01*
X564028Y337061D01*
X564034Y337093D01*
X564837Y336148D01*
D02*
G37*
G36*
X560824Y336212D02*
X560855Y336182D01*
X560905Y336156D01*
X560975Y336133D01*
X561064Y336113D01*
X561174Y336098D01*
X561455Y336076D01*
X561814Y336069D01*
Y335069D01*
X561624Y335067D01*
X561064Y335025D01*
X560975Y335005D01*
X560905Y334982D01*
X560855Y334956D01*
X560824Y334926D01*
X560815Y334892D01*
Y336246D01*
X560824Y336212D01*
D02*
G37*
G36*
X553650Y332693D02*
X553601Y332707D01*
X553442Y332739D01*
X553385Y332747D01*
X553204Y332761D01*
X553129Y332763D01*
X553091Y332762D01*
X553016Y332756D01*
X552949Y332745D01*
X552891Y332730D01*
X552843Y332710D01*
X552803Y332686D01*
X552772Y332658D01*
X552749Y332626D01*
X552736Y332589D01*
X552732Y332548D01*
Y333412D01*
X552736Y333371D01*
X552749Y333334D01*
X552772Y333302D01*
X552803Y333274D01*
X552843Y333250D01*
X552891Y333231D01*
X552932Y333220D01*
X552943Y333223D01*
X552992Y333244D01*
X553036Y333270D01*
X553074Y333303D01*
X553106Y333341D01*
X553133Y333386D01*
X553153Y333436D01*
X553168Y333492D01*
X553650Y332693D01*
D02*
G37*
G36*
X554395Y333777D02*
X554448Y333731D01*
X554502Y333691D01*
X554558Y333656D01*
X554614Y333626D01*
X554672Y333602D01*
X554731Y333583D01*
X554791Y333569D01*
X554852Y333561D01*
X554915Y333558D01*
X554907Y333126D01*
X554845Y333124D01*
X554783Y333116D01*
X554723Y333103D01*
X554664Y333084D01*
X554605Y333061D01*
X554548Y333032D01*
X554491Y332998D01*
X554435Y332958D01*
X554381Y332914D01*
X554327Y332864D01*
X554344Y333828D01*
X554395Y333777D01*
D02*
G37*
G36*
X553176Y330708D02*
X552732Y330492D01*
X552744Y331128D01*
X553176Y331140D01*
Y330708D01*
D02*
G37*
G36*
X567707Y331054D02*
X567434Y331049D01*
X566975Y331004D01*
X566789Y330964D01*
X566631Y330914D01*
X566502Y330852D01*
X566402Y330779D01*
X566330Y330694D01*
X566287Y330598D01*
X566272Y330491D01*
Y332554D01*
X567707D01*
Y331054D01*
D02*
G37*
G36*
X561522Y329479D02*
X560519Y329067D01*
X560326Y329253D01*
X559975Y329549D01*
X559816Y329659D01*
X559669Y329744D01*
X559533Y329803D01*
X559409Y329837D01*
X559296Y329845D01*
X559195Y329828D01*
X559105Y329786D01*
X560803Y330893D01*
X561522Y329479D01*
D02*
G37*
G36*
X563934Y327082D02*
X562934Y327582D01*
Y328582D01*
X563934Y329082D01*
Y327082D01*
D02*
G37*
G36*
X559619Y322624D02*
X559627Y322563D01*
X559641Y322503D01*
X559659Y322444D01*
X559683Y322386D01*
X559712Y322329D01*
X559747Y322273D01*
X559787Y322218D01*
X559832Y322164D01*
X559883Y322111D01*
X558918D01*
X558969Y322164D01*
X559014Y322218D01*
X559054Y322273D01*
X559089Y322329D01*
X559118Y322386D01*
X559142Y322444D01*
X559161Y322503D01*
X559174Y322563D01*
X559182Y322624D01*
X559185Y322687D01*
X559617D01*
X559619Y322624D01*
D02*
G37*
%LPC*%
G36*
X457684Y466687D02*
X456723D01*
X455795Y466438D01*
X454963Y465957D01*
X454283Y465278D01*
X453803Y464446D01*
X453554Y463517D01*
Y462557D01*
X453803Y461628D01*
X454283Y460796D01*
X454963Y460117D01*
X455795Y459636D01*
X456723Y459387D01*
X457684D01*
X458612Y459636D01*
X459445Y460117D01*
X460124Y460796D01*
X460605Y461628D01*
X460853Y462557D01*
Y463517D01*
X460605Y464446D01*
X460124Y465278D01*
X459445Y465957D01*
X458612Y466438D01*
X457684Y466687D01*
D02*
G37*
G36*
X556783Y458395D02*
X556186D01*
X555635Y458167D01*
X555213Y457745D01*
X554985Y457193D01*
Y456597D01*
X555213Y456045D01*
X555635Y455623D01*
X556186Y455395D01*
X556783D01*
X557334Y455623D01*
X557756Y456045D01*
X557985Y456597D01*
Y457193D01*
X557756Y457745D01*
X557334Y458167D01*
X556783Y458395D01*
D02*
G37*
G36*
X561303Y458333D02*
X560706D01*
X560155Y458104D01*
X559733Y457682D01*
X559505Y457131D01*
Y456534D01*
X559733Y455983D01*
X560155Y455561D01*
X560706Y455333D01*
X561303D01*
X561854Y455561D01*
X562276Y455983D01*
X562505Y456534D01*
Y457131D01*
X562276Y457682D01*
X561854Y458104D01*
X561303Y458333D01*
D02*
G37*
G36*
X460753Y456587D02*
X457704D01*
Y453537D01*
X460753D01*
Y456587D01*
D02*
G37*
G36*
X456704D02*
X453654D01*
Y453537D01*
X456704D01*
Y456587D01*
D02*
G37*
G36*
X537673Y456741D02*
X531043D01*
Y453379D01*
X537673D01*
Y456741D01*
D02*
G37*
G36*
X565395Y455025D02*
X564798D01*
X564247Y454797D01*
X563825Y454375D01*
X563596Y453824D01*
Y453227D01*
X563825Y452676D01*
X564247Y452254D01*
X564798Y452025D01*
X565395D01*
X565946Y452254D01*
X566368Y452676D01*
X566597Y453227D01*
Y453824D01*
X566368Y454375D01*
X565946Y454797D01*
X565395Y455025D01*
D02*
G37*
G36*
X460753Y452537D02*
X457704D01*
Y449487D01*
X460753D01*
Y452537D01*
D02*
G37*
G36*
X456704D02*
X453654D01*
Y449487D01*
X456704D01*
Y452537D01*
D02*
G37*
G36*
X525275Y450764D02*
X522189D01*
Y447402D01*
X525275D01*
Y450764D01*
D02*
G37*
G36*
X520291Y450612D02*
X520048Y450564D01*
X518948D01*
Y450431D01*
X518260D01*
X517674Y450314D01*
X517178Y449983D01*
X516013Y448818D01*
X515682Y448322D01*
X515565Y447736D01*
X515682Y447151D01*
X516013Y446655D01*
X516509Y446323D01*
X517095Y446207D01*
X517680Y446323D01*
X518176Y446655D01*
X518893Y447372D01*
X520248D01*
X520833Y447488D01*
X521002Y447602D01*
X521634D01*
Y448255D01*
X521704Y448359D01*
X521820Y448945D01*
Y449083D01*
X521704Y449668D01*
X521634Y449772D01*
Y450564D01*
X520534D01*
X520291Y450612D01*
D02*
G37*
G36*
X546926Y447688D02*
X546453D01*
X546016Y447507D01*
X545682Y447173D01*
X545501Y446736D01*
Y446263D01*
X545682Y445826D01*
X546016Y445491D01*
X546453Y445310D01*
X546926D01*
X547363Y445491D01*
X547698Y445826D01*
X547879Y446263D01*
Y446736D01*
X547698Y447173D01*
X547363Y447507D01*
X546926Y447688D01*
D02*
G37*
G36*
X503325Y447195D02*
X502773D01*
X502264Y446984D01*
X501874Y446594D01*
X501663Y446085D01*
Y445533D01*
X501874Y445024D01*
X502264Y444634D01*
X502773Y444423D01*
X503325D01*
X503834Y444634D01*
X504030Y444830D01*
X504237Y445011D01*
X504422Y444830D01*
X504630Y444623D01*
X505139Y444412D01*
X505690D01*
X506200Y444623D01*
X506589Y445013D01*
X506800Y445522D01*
Y446073D01*
X506589Y446583D01*
X506200Y446973D01*
X505690Y447184D01*
X505139D01*
X504630Y446973D01*
X504433Y446776D01*
X504226Y446596D01*
X504041Y446776D01*
X503834Y446984D01*
X503325Y447195D01*
D02*
G37*
G36*
X521977Y445470D02*
X521504D01*
X521067Y445289D01*
X520732Y444954D01*
X520551Y444517D01*
Y444044D01*
X520732Y443607D01*
X521067Y443273D01*
X521504Y443092D01*
X521977D01*
X522414Y443273D01*
X522748Y443607D01*
X522929Y444044D01*
Y444517D01*
X522748Y444954D01*
X522414Y445289D01*
X521977Y445470D01*
D02*
G37*
G36*
X514247Y440836D02*
X513695D01*
X513186Y440625D01*
X512796Y440235D01*
X512585Y439726D01*
Y439175D01*
X512796Y438665D01*
X513186Y438275D01*
X513695Y438064D01*
X514247D01*
X514756Y438275D01*
X514976Y438495D01*
X515330Y438425D01*
X515355Y438363D01*
X515745Y437974D01*
X516254Y437763D01*
X516805D01*
X517315Y437974D01*
X517705Y438363D01*
X517915Y438873D01*
Y439424D01*
X517705Y439933D01*
X517315Y440323D01*
X516805Y440534D01*
X516254D01*
X515745Y440323D01*
X515525Y440103D01*
X515171Y440174D01*
X515146Y440235D01*
X514756Y440625D01*
X514247Y440836D01*
D02*
G37*
G36*
X551890Y442046D02*
X551338D01*
X550829Y441835D01*
X550439Y441445D01*
X550228Y440936D01*
Y440384D01*
X550439Y439875D01*
X550829Y439485D01*
X551158Y439349D01*
X551017Y439009D01*
Y438458D01*
X551228Y437949D01*
X551618Y437559D01*
X552127Y437348D01*
X552678D01*
X553188Y437559D01*
X553578Y437949D01*
X553789Y438458D01*
Y439009D01*
X553578Y439519D01*
X553188Y439909D01*
X552859Y440045D01*
X553000Y440384D01*
Y440936D01*
X552789Y441445D01*
X552399Y441835D01*
X551890Y442046D01*
D02*
G37*
G36*
X503988Y439899D02*
X503437D01*
X502927Y439688D01*
X502538Y439298D01*
X502327Y438789D01*
Y438237D01*
X502538Y437728D01*
X502927Y437338D01*
X503437Y437127D01*
X503988D01*
X504497Y437338D01*
X504887Y437728D01*
X505098Y438237D01*
Y438789D01*
X504887Y439298D01*
X504497Y439688D01*
X503988Y439899D01*
D02*
G37*
G36*
X543013Y440523D02*
X541613D01*
Y438473D01*
Y436423D01*
X542272D01*
X542280Y436396D01*
X542308Y436380D01*
X542321Y436350D01*
X542486Y436282D01*
X542643Y436197D01*
X542674Y436206D01*
X542705Y436194D01*
X542869Y436263D01*
X543041Y436313D01*
X543056Y436342D01*
X543086Y436354D01*
X543154Y436520D01*
X543208Y436619D01*
X543230Y436628D01*
X543303Y436647D01*
X543408Y436664D01*
X543491Y436671D01*
X543563Y436664D01*
X543596Y436659D01*
X543619Y436654D01*
X543625Y436652D01*
X543644Y436644D01*
X543697Y436644D01*
X543699Y436644D01*
X543744Y436630D01*
X543914Y436559D01*
X543939Y436569D01*
X543964Y436561D01*
X544127Y436647D01*
X544256Y436701D01*
X544547D01*
X544937Y436778D01*
X545268Y437000D01*
X545489Y437330D01*
X545567Y437720D01*
X545489Y438111D01*
X545268Y438442D01*
X544937Y438662D01*
X544547Y438740D01*
X544256D01*
X544127Y438794D01*
X543964Y438879D01*
X543939Y438872D01*
X543914Y438882D01*
X543744Y438811D01*
X543699Y438798D01*
X543697Y438797D01*
X543644Y438797D01*
X543625Y438789D01*
X543619Y438787D01*
X543596Y438782D01*
X543568Y438778D01*
X543480Y438771D01*
X543406Y438778D01*
X543300Y438795D01*
X543227Y438815D01*
X543203Y438825D01*
X543140Y438939D01*
X543070Y439106D01*
X543042Y439117D01*
X543027Y439144D01*
X543013Y439147D01*
Y440523D01*
D02*
G37*
G36*
X538113Y440723D02*
X533913D01*
Y436223D01*
X538113D01*
Y437335D01*
X538194Y437390D01*
X538667D01*
X538913Y437492D01*
X539213Y437291D01*
Y436423D01*
X540613D01*
Y438473D01*
Y440523D01*
X539213D01*
Y439866D01*
X538913Y439666D01*
X538667Y439768D01*
X538194D01*
X538113Y439821D01*
Y440723D01*
D02*
G37*
G36*
X479385Y441155D02*
X476185D01*
X475229Y440965D01*
X474418Y440424D01*
X473877Y439613D01*
X473687Y438657D01*
X473877Y437702D01*
X474418Y436891D01*
X475229Y436349D01*
X476185Y436159D01*
X479385D01*
X480340Y436349D01*
X481151Y436891D01*
X481692Y437702D01*
X481883Y438657D01*
X481692Y439613D01*
X481151Y440424D01*
X480340Y440965D01*
X479385Y441155D01*
D02*
G37*
G36*
X464436D02*
X459636D01*
X458681Y440965D01*
X457870Y440424D01*
X457329Y439613D01*
X457138Y438657D01*
X457329Y437702D01*
X457870Y436891D01*
X458681Y436349D01*
X459636Y436159D01*
X464436D01*
X465392Y436349D01*
X466203Y436891D01*
X466744Y437702D01*
X466934Y438657D01*
X466744Y439613D01*
X466203Y440424D01*
X465392Y440965D01*
X464436Y441155D01*
D02*
G37*
G36*
X517045Y434805D02*
X516572D01*
X516135Y434624D01*
X515801Y434289D01*
X515620Y433852D01*
Y433379D01*
X515801Y432942D01*
X516135Y432608D01*
X516572Y432427D01*
X517045D01*
X517482Y432608D01*
X517816Y432942D01*
X517997Y433379D01*
Y433852D01*
X517816Y434289D01*
X517482Y434624D01*
X517045Y434805D01*
D02*
G37*
G36*
X520526Y432897D02*
X520053D01*
X519616Y432716D01*
X519281Y432382D01*
X519100Y431945D01*
Y431472D01*
X519281Y431035D01*
X519616Y430700D01*
X520053Y430519D01*
X520526D01*
X520963Y430700D01*
X521297Y431035D01*
X521478Y431472D01*
Y431945D01*
X521297Y432382D01*
X520963Y432716D01*
X520526Y432897D01*
D02*
G37*
G36*
X538601Y427379D02*
X538050D01*
X537540Y427168D01*
X537150Y426778D01*
X536939Y426268D01*
Y425717D01*
X537150Y425208D01*
X537540Y424818D01*
X538050Y424607D01*
X538601D01*
X539110Y424818D01*
X539500Y425208D01*
X539711Y425717D01*
Y426268D01*
X539500Y426778D01*
X539110Y427168D01*
X538601Y427379D01*
D02*
G37*
G36*
X551393Y427078D02*
X550841D01*
X550332Y426867D01*
X549942Y426478D01*
X549731Y425968D01*
Y425417D01*
X549942Y424908D01*
X550332Y424518D01*
X550841Y424307D01*
X551393D01*
X551902Y424518D01*
X552292Y424908D01*
X552503Y425417D01*
Y425968D01*
X552292Y426478D01*
X551902Y426867D01*
X551393Y427078D01*
D02*
G37*
G36*
X543145Y426857D02*
X542594D01*
X542085Y426646D01*
X541695Y426256D01*
X541484Y425747D01*
Y425196D01*
X541695Y424686D01*
X542085Y424297D01*
X542594Y424086D01*
X543145D01*
X543655Y424297D01*
X544045Y424686D01*
X544255Y425196D01*
Y425747D01*
X544045Y426256D01*
X543655Y426646D01*
X543145Y426857D01*
D02*
G37*
G36*
X551361Y423122D02*
X550810D01*
X550300Y422911D01*
X549911Y422521D01*
X549700Y422012D01*
Y421460D01*
X549911Y420951D01*
X550300Y420561D01*
X550810Y420350D01*
X551361D01*
X551870Y420561D01*
X552260Y420951D01*
X552471Y421460D01*
Y422012D01*
X552260Y422521D01*
X551870Y422911D01*
X551361Y423122D01*
D02*
G37*
G36*
X539203Y422548D02*
X538652D01*
X538142Y422337D01*
X537752Y421947D01*
X537541Y421438D01*
Y420887D01*
X537752Y420377D01*
X538142Y419987D01*
X538652Y419776D01*
X538868D01*
X538928Y419476D01*
X538626Y419351D01*
X538236Y418961D01*
X538025Y418452D01*
Y417901D01*
X538236Y417391D01*
X538626Y417002D01*
X538766Y416943D01*
Y416643D01*
X538659Y416599D01*
X538270Y416209D01*
X538059Y415700D01*
Y415148D01*
X538270Y414639D01*
X538659Y414249D01*
X539169Y414038D01*
X539720D01*
X540229Y414249D01*
X540619Y414639D01*
X540830Y415148D01*
Y415700D01*
X540619Y416209D01*
X540229Y416599D01*
X540089Y416657D01*
Y416957D01*
X540196Y417002D01*
X540586Y417391D01*
X540797Y417901D01*
Y418452D01*
X540586Y418961D01*
X540196Y419351D01*
X539687Y419562D01*
X539470D01*
X539410Y419862D01*
X539712Y419987D01*
X540102Y420377D01*
X540313Y420887D01*
Y421438D01*
X540102Y421947D01*
X539712Y422337D01*
X539203Y422548D01*
D02*
G37*
G36*
X543590Y422365D02*
X543039D01*
X542529Y422154D01*
X542139Y421764D01*
X541928Y421254D01*
Y420703D01*
X542139Y420194D01*
X542529Y419804D01*
X542721Y419724D01*
Y419400D01*
X542604Y419351D01*
X542214Y418961D01*
X542003Y418452D01*
Y417901D01*
X542214Y417391D01*
X542604Y417002D01*
X542779Y416929D01*
Y416604D01*
X542646Y416549D01*
X542256Y416159D01*
X542045Y415650D01*
Y415098D01*
X542256Y414589D01*
X542646Y414199D01*
X543155Y413988D01*
X543707D01*
X544216Y414199D01*
X544606Y414589D01*
X544817Y415098D01*
Y415650D01*
X544606Y416159D01*
X544216Y416549D01*
X544041Y416621D01*
Y416946D01*
X544174Y417002D01*
X544564Y417391D01*
X544775Y417901D01*
Y418452D01*
X544564Y418961D01*
X544174Y419351D01*
X543982Y419431D01*
Y419756D01*
X544099Y419804D01*
X544489Y420194D01*
X544700Y420703D01*
Y421254D01*
X544489Y421764D01*
X544099Y422154D01*
X543590Y422365D01*
D02*
G37*
G36*
X547643Y419562D02*
X547092D01*
X546583Y419351D01*
X546193Y418961D01*
X545982Y418452D01*
Y417901D01*
X546193Y417391D01*
X546583Y417002D01*
X546911Y416865D01*
Y416541D01*
X546649Y416432D01*
X546259Y416042D01*
X546048Y415533D01*
Y414982D01*
X546259Y414472D01*
X546649Y414082D01*
X547159Y413871D01*
X547710D01*
X548219Y414082D01*
X548609Y414472D01*
X548820Y414982D01*
Y415533D01*
X548609Y416042D01*
X548219Y416432D01*
X547891Y416568D01*
Y416893D01*
X548152Y417002D01*
X548542Y417391D01*
X548753Y417901D01*
Y418452D01*
X548542Y418961D01*
X548152Y419351D01*
X547643Y419562D01*
D02*
G37*
G36*
X551686Y416018D02*
X551135D01*
X550625Y415807D01*
X550236Y415417D01*
X550025Y414908D01*
Y414356D01*
X550236Y413847D01*
X550625Y413457D01*
X551135Y413246D01*
X551686D01*
X552195Y413457D01*
X552585Y413847D01*
X552796Y414356D01*
Y414908D01*
X552585Y415417D01*
X552195Y415807D01*
X551686Y416018D01*
D02*
G37*
G36*
X547176Y413124D02*
X546625D01*
X546115Y412913D01*
X545726Y412523D01*
X545515Y412013D01*
Y411462D01*
X545726Y410953D01*
X546115Y410563D01*
X546625Y410352D01*
X547176D01*
X547685Y410563D01*
X548075Y410953D01*
X548286Y411462D01*
Y412013D01*
X548075Y412523D01*
X547685Y412913D01*
X547176Y413124D01*
D02*
G37*
G36*
X542625Y413100D02*
X542074D01*
X541565Y412889D01*
X541175Y412499D01*
X540964Y411989D01*
Y411438D01*
X541175Y410929D01*
X541565Y410539D01*
X542074Y410328D01*
X542625D01*
X543135Y410539D01*
X543525Y410929D01*
X543736Y411438D01*
Y411989D01*
X543525Y412499D01*
X543135Y412889D01*
X542625Y413100D01*
D02*
G37*
G36*
X479385Y407140D02*
X476185D01*
X475229Y406950D01*
X474418Y406408D01*
X473877Y405598D01*
X473687Y404642D01*
X473877Y403686D01*
X474418Y402875D01*
X475229Y402334D01*
X476185Y402144D01*
X479385D01*
X480340Y402334D01*
X481151Y402875D01*
X481692Y403686D01*
X481883Y404642D01*
X481692Y405598D01*
X481151Y406408D01*
X480340Y406950D01*
X479385Y407140D01*
D02*
G37*
G36*
X464436D02*
X459636D01*
X458681Y406950D01*
X457870Y406408D01*
X457329Y405598D01*
X457138Y404642D01*
X457329Y403686D01*
X457870Y402875D01*
X458681Y402334D01*
X459636Y402144D01*
X464436D01*
X465392Y402334D01*
X466203Y402875D01*
X466744Y403686D01*
X466934Y404642D01*
X466744Y405598D01*
X466203Y406408D01*
X465392Y406950D01*
X464436Y407140D01*
D02*
G37*
G36*
X498043Y428811D02*
X497492D01*
X496983Y428600D01*
X496593Y428210D01*
X496382Y427701D01*
Y427149D01*
X496593Y426640D01*
X496983Y426250D01*
X497048Y426223D01*
X497090Y426169D01*
X497157Y426131D01*
X497197Y426104D01*
X497225Y426081D01*
X497244Y426063D01*
X497255Y426049D01*
X497260Y426040D01*
X497263Y426035D01*
X497264Y426029D01*
X497266Y426022D01*
X497268Y425977D01*
X497295Y425923D01*
Y425894D01*
X497296Y425888D01*
X497292Y425846D01*
X497302Y425835D01*
Y425278D01*
X492507Y420483D01*
X492349Y420246D01*
X492294Y419967D01*
Y404588D01*
X488473Y400767D01*
X488314Y400530D01*
X488259Y400251D01*
Y389355D01*
X487959Y389264D01*
X487943Y389287D01*
X485092Y392138D01*
X485072Y392195D01*
X485043Y392228D01*
X485033Y392242D01*
X485022Y392262D01*
X485009Y392290D01*
X484997Y392326D01*
X484985Y392372D01*
X484976Y392420D01*
X484961Y392575D01*
X484960Y392664D01*
X484919Y392760D01*
Y392941D01*
X484708Y393451D01*
X484318Y393840D01*
X483809Y394051D01*
X483257D01*
X482748Y393840D01*
X482358Y393451D01*
X482147Y392941D01*
Y392390D01*
X482358Y391881D01*
X482748Y391491D01*
X483257Y391280D01*
X483439D01*
X483535Y391239D01*
X483631Y391237D01*
X483706Y391232D01*
X483771Y391225D01*
X483827Y391214D01*
X483873Y391202D01*
X483909Y391189D01*
X483937Y391177D01*
X483957Y391165D01*
X483971Y391155D01*
X484003Y391126D01*
X484061Y391106D01*
X486698Y388469D01*
Y386292D01*
X486398Y386173D01*
X485551Y387019D01*
X485315Y387178D01*
X485035Y387233D01*
X484504D01*
X484486Y387254D01*
X484476Y387268D01*
X484464Y387288D01*
X484452Y387316D01*
X484439Y387352D01*
X484427Y387398D01*
X484418Y387446D01*
X484404Y387601D01*
X484402Y387690D01*
X484361Y387786D01*
Y387967D01*
X484150Y388476D01*
X483760Y388866D01*
X483251Y389077D01*
X482700D01*
X482190Y388866D01*
X481801Y388476D01*
X481590Y387967D01*
Y387416D01*
X481801Y386907D01*
X482190Y386517D01*
X482700Y386306D01*
X482881D01*
X482977Y386265D01*
X483073Y386263D01*
X483148Y386258D01*
X483213Y386250D01*
X483269Y386240D01*
X483315Y386228D01*
X483351Y386215D01*
X483379Y386203D01*
X483399Y386191D01*
X483413Y386181D01*
X483446Y386152D01*
X483503Y386132D01*
X483647Y385988D01*
X483884Y385830D01*
X484163Y385774D01*
X484733D01*
X485237Y385270D01*
Y363674D01*
X484937Y363550D01*
X484733Y363754D01*
X484296Y363935D01*
X483823D01*
X483386Y363754D01*
X483052Y363419D01*
X482943Y363157D01*
X482872Y363067D01*
X482854Y363004D01*
X482840Y362961D01*
X482802Y362865D01*
X482787Y362836D01*
X482783Y362827D01*
X479265D01*
X479208Y362853D01*
X479169Y362855D01*
X479155Y362857D01*
X479141Y362860D01*
X479127Y362864D01*
X479111Y362871D01*
X479093Y362880D01*
X479073Y362893D01*
X479050Y362909D01*
X479024Y362931D01*
X478984Y362969D01*
X478889Y363007D01*
X478791Y363105D01*
X478354Y363286D01*
X477881D01*
X477444Y363105D01*
X477109Y362770D01*
X476928Y362333D01*
Y361860D01*
X477109Y361423D01*
X477444Y361089D01*
X477881Y360908D01*
X478354D01*
X478791Y361089D01*
X478889Y361187D01*
X478984Y361224D01*
X479024Y361262D01*
X479050Y361284D01*
X479073Y361301D01*
X479093Y361313D01*
X479111Y361322D01*
X479127Y361329D01*
X479141Y361333D01*
X479155Y361336D01*
X479169Y361338D01*
X479208Y361340D01*
X479265Y361367D01*
X483154D01*
X483434Y361422D01*
X483494Y361462D01*
X483571Y361471D01*
X483611Y361522D01*
X483672Y361544D01*
X483697Y361567D01*
X483706Y361566D01*
X483747Y361556D01*
X483803Y361565D01*
X483823Y361557D01*
X484296D01*
X484733Y361738D01*
X484937Y361942D01*
X485237Y361818D01*
Y358954D01*
X485293Y358675D01*
X485451Y358438D01*
X486100Y357790D01*
X486121Y357730D01*
X486148Y357702D01*
X486156Y357690D01*
X486164Y357678D01*
X486171Y357665D01*
X486178Y357649D01*
X486184Y357629D01*
X486190Y357605D01*
X486194Y357577D01*
X486197Y357543D01*
X486199Y357487D01*
X486240Y357395D01*
Y357259D01*
X486421Y356822D01*
X486755Y356488D01*
X487192Y356307D01*
X487665D01*
X487959Y356429D01*
X488259Y356253D01*
Y345869D01*
X487959Y345745D01*
X487771Y345933D01*
X487334Y346114D01*
X486861D01*
X486424Y345933D01*
X486089Y345599D01*
X485908Y345162D01*
Y344689D01*
X486089Y344251D01*
X486424Y343917D01*
X486861Y343736D01*
X487334D01*
X487771Y343917D01*
X488105Y344251D01*
X488107Y344255D01*
X488418Y344286D01*
X488635Y344075D01*
Y343691D01*
X488816Y343254D01*
X489150Y342919D01*
X489587Y342738D01*
X490061D01*
X490497Y342919D01*
X490832Y343254D01*
X491013Y343691D01*
Y344164D01*
X490832Y344601D01*
X490497Y344935D01*
X490061Y345116D01*
X489718D01*
Y399949D01*
X492026Y402257D01*
X492320Y402198D01*
X492354Y402116D01*
X492689Y401781D01*
X493126Y401600D01*
X493599D01*
X494036Y401781D01*
X494370Y402116D01*
X494551Y402553D01*
Y403026D01*
X494370Y403463D01*
X494036Y403797D01*
X493721Y403927D01*
X493697Y404007D01*
X493753Y404286D01*
Y419665D01*
X498547Y424460D01*
X498705Y424696D01*
X498761Y424975D01*
X498761Y424976D01*
Y425887D01*
X498754Y425923D01*
Y426061D01*
X498780Y426118D01*
X498782Y426157D01*
X498786Y426182D01*
X498792Y426212D01*
X498828Y426333D01*
X498848Y426385D01*
X498971Y426649D01*
X499022Y426744D01*
X499033Y426859D01*
X499154Y427149D01*
Y427701D01*
X498943Y428210D01*
X498553Y428600D01*
X498043Y428811D01*
D02*
G37*
G36*
X513575Y399481D02*
X507691D01*
X507193Y399382D01*
X505291D01*
Y397681D01*
X505142Y396932D01*
X505291Y396183D01*
Y394482D01*
X507193D01*
X507691Y394383D01*
X513278D01*
X513649Y394309D01*
X514624Y394503D01*
X515451Y395056D01*
X516003Y395883D01*
X516197Y396858D01*
X516003Y397834D01*
X515451Y398661D01*
X515377Y398734D01*
X514550Y399287D01*
X513575Y399481D01*
D02*
G37*
G36*
X463143Y394207D02*
X462592D01*
X462082Y393996D01*
X461692Y393606D01*
X461481Y393097D01*
Y392546D01*
X461692Y392037D01*
X462082Y391647D01*
X462592Y391436D01*
X463143D01*
X463652Y391647D01*
X464042Y392037D01*
X464253Y392546D01*
Y393097D01*
X464042Y393606D01*
X463652Y393996D01*
X463143Y394207D01*
D02*
G37*
G36*
X459658Y397252D02*
X459107D01*
X458598Y397042D01*
X458208Y396652D01*
X457997Y396142D01*
Y395591D01*
X458208Y395082D01*
X458598Y394692D01*
X459098Y394484D01*
X459110Y394448D01*
X459131Y394181D01*
X458686Y393996D01*
X458296Y393606D01*
X458085Y393097D01*
Y392546D01*
X458296Y392037D01*
X458686Y391647D01*
X459195Y391436D01*
X459746D01*
X460256Y391647D01*
X460645Y392037D01*
X460856Y392546D01*
Y393097D01*
X460645Y393606D01*
X460256Y393996D01*
X459755Y394204D01*
X459744Y394240D01*
X459722Y394507D01*
X460168Y394692D01*
X460558Y395082D01*
X460769Y395591D01*
Y396142D01*
X460558Y396652D01*
X460168Y397042D01*
X459658Y397252D01*
D02*
G37*
G36*
X456350Y394207D02*
X455798D01*
X455289Y393996D01*
X454899Y393606D01*
X454688Y393097D01*
Y392546D01*
X454899Y392037D01*
X455289Y391647D01*
X455798Y391436D01*
X456350D01*
X456859Y391647D01*
X457249Y392037D01*
X457460Y392546D01*
Y393097D01*
X457249Y393606D01*
X456859Y393996D01*
X456350Y394207D01*
D02*
G37*
G36*
X534950Y394367D02*
X533975Y394173D01*
X533148Y393620D01*
X532595Y392793D01*
X532401Y391818D01*
Y387705D01*
X532573Y386840D01*
Y385232D01*
X534476D01*
X534973Y385133D01*
X535471Y385232D01*
X537373D01*
Y386933D01*
X537522Y387682D01*
X537499Y387799D01*
Y391818D01*
X537305Y392793D01*
X536753Y393620D01*
X535926Y394173D01*
X534950Y394367D01*
D02*
G37*
G36*
X520081Y390272D02*
X515703D01*
Y381972D01*
X520081D01*
Y390272D01*
D02*
G37*
G36*
X532467Y412629D02*
X531994D01*
X531557Y412448D01*
X531223Y412114D01*
X531042Y411677D01*
Y411537D01*
X531001Y411443D01*
X531000Y411382D01*
X530997Y411342D01*
X530992Y411309D01*
X530986Y411282D01*
X530979Y411260D01*
X530973Y411244D01*
X530967Y411231D01*
X530961Y411221D01*
X530955Y411213D01*
X530935Y411192D01*
X510439D01*
X510166Y411138D01*
X509934Y410983D01*
X497632Y398681D01*
X494061D01*
X493788Y398627D01*
X493556Y398472D01*
X490284Y395200D01*
X490129Y394968D01*
X490075Y394695D01*
Y388812D01*
X490129Y388539D01*
X490149Y388509D01*
Y359236D01*
X490204Y358962D01*
X490358Y358731D01*
X493145Y355944D01*
Y350034D01*
X493118Y350008D01*
X492964Y349776D01*
X492909Y349503D01*
Y347828D01*
X492882Y347771D01*
X492881Y347736D01*
X492879Y347726D01*
X492877Y347715D01*
X492872Y347701D01*
X492865Y347685D01*
X492855Y347665D01*
X492840Y347642D01*
X492819Y347615D01*
X492794Y347585D01*
X492751Y347541D01*
X492714Y347445D01*
X492615Y347346D01*
X492434Y346909D01*
Y346437D01*
X492615Y346000D01*
X492950Y345665D01*
X493387Y345484D01*
X493860D01*
X494297Y345665D01*
X494631Y346000D01*
X494812Y346437D01*
Y346909D01*
X494631Y347346D01*
X494533Y347445D01*
X494495Y347541D01*
X494453Y347585D01*
X494427Y347615D01*
X494407Y347642D01*
X494392Y347665D01*
X494381Y347685D01*
X494374Y347701D01*
X494369Y347715D01*
X494367Y347726D01*
X494365Y347736D01*
X494364Y347771D01*
X494337Y347828D01*
Y349208D01*
X494363Y349234D01*
X494518Y349466D01*
X494572Y349739D01*
Y356240D01*
X494518Y356513D01*
X494363Y356745D01*
X491577Y359531D01*
Y388219D01*
X491877Y388419D01*
X492067Y388340D01*
X492501D01*
X492902Y388507D01*
X493209Y388813D01*
X493314Y389068D01*
X497411D01*
X497505Y388930D01*
X497374Y388666D01*
X497354Y388662D01*
X497023Y388441D01*
X496832Y388250D01*
X496611Y387919D01*
X496556Y387641D01*
X496512Y387543D01*
X496509Y387438D01*
X496396Y387286D01*
X496398Y387270D01*
X496389Y387257D01*
X496428Y387067D01*
X496431Y387044D01*
X496362Y387006D01*
X496195Y386937D01*
X496183Y386908D01*
X496156Y386894D01*
X496148Y386866D01*
X495722D01*
Y385885D01*
X497065D01*
Y384885D01*
X495722D01*
Y384628D01*
X495651Y384599D01*
X495631Y384550D01*
X495587Y384522D01*
X495554Y384364D01*
X495493Y384216D01*
X495513Y384168D01*
X495502Y384116D01*
X495783Y382616D01*
X495791Y382605D01*
Y382306D01*
X495774Y382268D01*
X495763Y381744D01*
X495732Y381360D01*
X495713Y381233D01*
X495696Y381158D01*
X495651Y381139D01*
X495622Y381069D01*
X495562Y381022D01*
X495546Y380884D01*
X495493Y380757D01*
X495522Y380686D01*
X495513Y380610D01*
X495598Y380502D01*
X495651Y380374D01*
X495722Y380345D01*
X495722Y380345D01*
Y380088D01*
X497065D01*
X498409D01*
Y380345D01*
X498409Y380345D01*
X498479Y380374D01*
X498532Y380502D01*
X498618Y380610D01*
X498609Y380686D01*
X498638Y380757D01*
X498585Y380885D01*
X498568Y381022D01*
X498509Y381069D01*
X498479Y381139D01*
X498435Y381158D01*
X498418Y381233D01*
X498399Y381355D01*
X498359Y381991D01*
X498356Y382262D01*
X498340Y382301D01*
Y382605D01*
X498347Y382616D01*
X498629Y384116D01*
X498618Y384168D01*
X498638Y384216D01*
X498576Y384364D01*
X498543Y384522D01*
X498499Y384550D01*
X498479Y384599D01*
X498409Y384628D01*
Y385353D01*
X498495Y385482D01*
X498572Y385873D01*
Y386037D01*
X498580Y386048D01*
X498572Y386096D01*
Y386108D01*
X498594Y386157D01*
X498595Y386230D01*
X498609Y386264D01*
X498663Y386319D01*
X498963Y386196D01*
Y384286D01*
X498934Y384216D01*
X498954Y384168D01*
X498943Y384116D01*
X498963Y384010D01*
Y383704D01*
X499020D01*
X499224Y382616D01*
X499232Y382605D01*
Y382306D01*
X499215Y382268D01*
X499204Y381744D01*
X499173Y381360D01*
X499159Y381269D01*
X498963D01*
Y380827D01*
X498934Y380757D01*
X498963Y380686D01*
X498954Y380610D01*
X498963Y380599D01*
Y377906D01*
X501362D01*
X501363Y377906D01*
X501365Y377906D01*
X501470D01*
X501542Y377877D01*
X501611Y377906D01*
X502050D01*
Y377906D01*
X502097Y377945D01*
X502439Y377877D01*
X504672D01*
X505062Y377955D01*
X505126Y377998D01*
X505426Y377838D01*
Y375688D01*
X505397Y375618D01*
X505418Y375568D01*
X505407Y375516D01*
X505426Y375414D01*
Y375106D01*
X505486D01*
X505509Y374985D01*
X505561Y374906D01*
X505587Y374775D01*
X505764Y374510D01*
X507214Y373059D01*
X507145Y372819D01*
X507102Y372759D01*
X505426D01*
Y371811D01*
X505329Y371665D01*
X505251Y371275D01*
Y368266D01*
X505329Y367876D01*
X505550Y367545D01*
X507329Y365766D01*
X507384Y365634D01*
X507183Y365334D01*
X505802D01*
X505451Y365264D01*
X505154Y365065D01*
X499464Y359376D01*
X499265Y359078D01*
X499196Y358727D01*
Y357981D01*
X499265Y357630D01*
X499464Y357332D01*
X502380Y354417D01*
X502678Y354218D01*
X503029Y354148D01*
X521032D01*
X521199Y353898D01*
X521118Y353704D01*
Y353152D01*
X521329Y352643D01*
X521719Y352253D01*
X522229Y352042D01*
X522780D01*
X523289Y352253D01*
X523679Y352643D01*
X523790Y352910D01*
X524144Y352981D01*
X524154Y352971D01*
X524663Y352760D01*
X525214D01*
X525724Y352971D01*
X526114Y353360D01*
X526325Y353870D01*
Y354421D01*
X526114Y354930D01*
X525724Y355320D01*
X525214Y355531D01*
X524663D01*
X524154Y355320D01*
X523764Y354930D01*
X523653Y354663D01*
X523327Y354598D01*
X523248Y354886D01*
X526667Y358305D01*
X526866Y358603D01*
X526936Y358954D01*
Y359700D01*
X526866Y360051D01*
X526667Y360348D01*
X520978Y366037D01*
X520681Y366236D01*
X520329Y366306D01*
X519584D01*
X519233Y366236D01*
X518935Y366037D01*
X517515Y364617D01*
X516930D01*
X516806Y364917D01*
X516973Y365085D01*
X517155Y365522D01*
Y365995D01*
X516973Y366432D01*
X516639Y366767D01*
X516202Y366948D01*
X516077D01*
X516066Y366957D01*
X516056Y366967D01*
X516051Y366969D01*
X516047Y366973D01*
X516033Y366978D01*
X516026Y366981D01*
X516010Y366991D01*
X515992Y367005D01*
X515919Y367068D01*
X515877Y367108D01*
X515850Y367222D01*
X516001Y367520D01*
X516438Y367701D01*
X516773Y368036D01*
X516954Y368473D01*
Y368946D01*
X516807Y369300D01*
X517096Y369884D01*
X517389D01*
X518064Y370018D01*
X518636Y370400D01*
X519019Y370973D01*
X519153Y371648D01*
Y374109D01*
X519019Y374784D01*
X518636Y375356D01*
X518382Y375526D01*
X518377Y375574D01*
X518451Y375841D01*
X518473Y375850D01*
X518584Y375872D01*
X518587Y375874D01*
X518646Y375881D01*
X518670Y375894D01*
X518681Y375898D01*
X518720Y375910D01*
X518783Y375923D01*
X518854Y375934D01*
X519392Y375970D01*
X519556Y375971D01*
X519606Y375992D01*
X520571D01*
X520961Y376070D01*
X521292Y376291D01*
X522746Y377745D01*
X523023Y377630D01*
Y376004D01*
X524004D01*
Y377347D01*
X525004D01*
Y376004D01*
X525238D01*
X525240Y375996D01*
X525267Y375981D01*
X525278Y375953D01*
X525445Y375884D01*
X525604Y375798D01*
X525633Y375806D01*
X525661Y375795D01*
X525828Y375864D01*
X526001Y375915D01*
X526016Y375942D01*
X526044Y375953D01*
X526113Y376120D01*
X526174Y376232D01*
X526197Y376242D01*
X526271Y376261D01*
X526376Y376279D01*
X526511Y376290D01*
X526687Y376295D01*
X526735Y376316D01*
X527744D01*
X528674Y375856D01*
X528799Y375848D01*
X528914Y375800D01*
X528998Y375834D01*
X529088Y375828D01*
X529182Y375911D01*
X529297Y375958D01*
X529326Y376029D01*
X529584D01*
Y377372D01*
Y378716D01*
X529298D01*
X529297Y378719D01*
X529181Y378767D01*
X529086Y378849D01*
X528997Y378843D01*
X528914Y378877D01*
X528798Y378829D01*
X528672Y378820D01*
X527743Y378356D01*
X526735D01*
X526687Y378377D01*
X526511Y378382D01*
X526376Y378393D01*
X526271Y378411D01*
X526197Y378430D01*
X526174Y378440D01*
X526113Y378552D01*
X526044Y378719D01*
X526016Y378730D01*
X526001Y378757D01*
X525828Y378808D01*
X525661Y378877D01*
X525633Y378866D01*
X525604Y378874D01*
X525445Y378788D01*
X525278Y378719D01*
X525267Y378691D01*
X525266Y378690D01*
X524460D01*
X524391Y378982D01*
X524916Y379245D01*
X525593D01*
X525604Y379239D01*
X525624Y379245D01*
X525639D01*
X525661Y379236D01*
X525683Y379245D01*
X526185D01*
Y379678D01*
X526197Y379682D01*
X526271Y379702D01*
X526376Y379720D01*
X526511Y379731D01*
X526687Y379736D01*
X526735Y379757D01*
X527744D01*
X528403Y379432D01*
Y379270D01*
X528844D01*
X528914Y379241D01*
X528985Y379270D01*
X529077D01*
X529088Y379269D01*
X529089Y379270D01*
X531765D01*
Y382357D01*
X529916D01*
X529893Y382379D01*
Y384573D01*
X530222Y385232D01*
X531273D01*
Y390132D01*
X526473D01*
Y385232D01*
X527524D01*
X527854Y384573D01*
Y381957D01*
X527583Y381797D01*
X526735D01*
X526687Y381818D01*
X526511Y381822D01*
X526376Y381834D01*
X526271Y381852D01*
X526197Y381871D01*
X526185Y381876D01*
Y382331D01*
X522823D01*
Y381315D01*
X522801Y381281D01*
X522811Y381238D01*
X522794Y381197D01*
X522823Y381124D01*
Y380856D01*
X522790Y380798D01*
X522705Y380676D01*
X522423Y380343D01*
X522238Y380152D01*
X522219Y380101D01*
X520149Y378032D01*
X519606D01*
X519556Y378053D01*
X519385Y378055D01*
X519092Y378066D01*
X518862Y378089D01*
X518783Y378101D01*
X518720Y378115D01*
X518681Y378126D01*
X518670Y378130D01*
X518646Y378143D01*
X518587Y378150D01*
X518584Y378152D01*
X518473Y378174D01*
X518385Y378211D01*
X518353Y378198D01*
X518255Y378218D01*
X516778D01*
X516449Y378152D01*
X516170Y377965D01*
X515983Y377686D01*
X515917Y377357D01*
Y376668D01*
X515983Y376338D01*
X516026Y376273D01*
X515883Y375980D01*
X515729Y375970D01*
X515554Y376164D01*
X515525Y376201D01*
X515534Y376253D01*
X515541Y376283D01*
X515544Y376288D01*
X515545Y376293D01*
X515554Y376320D01*
X515551Y376362D01*
X515594Y376576D01*
X515601Y376603D01*
X515600Y376606D01*
X515612Y376668D01*
Y377357D01*
X515546Y377686D01*
X515360Y377965D01*
X515080Y378152D01*
X514751Y378218D01*
X513274D01*
X512945Y378152D01*
X512666Y377965D01*
X512657Y377953D01*
X512358Y378045D01*
X512360Y378429D01*
X512285Y378819D01*
X512066Y379152D01*
X511845Y379301D01*
X510233Y381517D01*
X510180Y381565D01*
X510140Y381625D01*
X510051Y381714D01*
X510106Y381796D01*
X510176Y382147D01*
Y382832D01*
X510196Y382938D01*
X510186Y382988D01*
X510263Y390880D01*
X510262Y390885D01*
X510263Y390889D01*
X510228Y391061D01*
X510196Y391232D01*
X510194Y391236D01*
X510193Y391240D01*
X510095Y391386D01*
X510000Y391532D01*
X509996Y391534D01*
X509994Y391538D01*
X509847Y391636D01*
X509704Y391734D01*
X509700Y391735D01*
X509696Y391737D01*
X509523Y391772D01*
X509354Y391807D01*
X509349Y391806D01*
X509345Y391807D01*
X504160D01*
X503809Y391737D01*
X503511Y391538D01*
X503042Y391070D01*
X502843Y390772D01*
X502774Y390421D01*
Y382427D01*
X502843Y382076D01*
X503042Y381778D01*
X503791Y381030D01*
X504088Y380831D01*
X504440Y380761D01*
X505151D01*
X505181Y380461D01*
X504834Y380392D01*
X504503Y380171D01*
X504249Y379917D01*
X502783D01*
X502691Y379978D01*
X502409Y380034D01*
X502310Y380077D01*
X502175Y380080D01*
X502069Y380086D01*
X502050Y380088D01*
Y380599D01*
X502059Y380610D01*
X502050Y380686D01*
X502079Y380757D01*
X502050Y380827D01*
Y381269D01*
X501853D01*
X501840Y381355D01*
X501800Y381991D01*
X501797Y382262D01*
X501781Y382301D01*
Y382605D01*
X501788Y382616D01*
X501992Y383704D01*
X502050D01*
Y384010D01*
X502070Y384116D01*
X502059Y384168D01*
X502079Y384216D01*
X502050Y384286D01*
Y386396D01*
X502059Y386408D01*
X502050Y386484D01*
X502079Y386554D01*
X502050Y386625D01*
Y387066D01*
X501853D01*
X501840Y387152D01*
X501800Y387789D01*
X501797Y388059D01*
X501781Y388099D01*
Y393333D01*
X502355Y394482D01*
X503991D01*
Y399382D01*
X500744D01*
X500629Y399659D01*
X510734Y409765D01*
X531269D01*
X531542Y409819D01*
X531774Y409974D01*
X531919Y410118D01*
X531978Y410140D01*
X532004Y410164D01*
X532012Y410170D01*
X532022Y410176D01*
X532035Y410182D01*
X532051Y410188D01*
X532073Y410195D01*
X532100Y410201D01*
X532133Y410206D01*
X532173Y410209D01*
X532234Y410210D01*
X532328Y410251D01*
X532467D01*
X532904Y410432D01*
X533239Y410767D01*
X533420Y411203D01*
Y411677D01*
X533239Y412114D01*
X532904Y412448D01*
X532467Y412629D01*
D02*
G37*
G36*
X531256Y378945D02*
X531226Y378933D01*
X531195Y378942D01*
X531038Y378856D01*
X530872Y378789D01*
X530860Y378759D01*
X530831Y378744D01*
X530823Y378716D01*
X530584D01*
Y377372D01*
Y376029D01*
X530862D01*
X531022Y375961D01*
X531180Y375874D01*
X531210Y375883D01*
X531237Y375871D01*
X531405Y375939D01*
X531578Y375989D01*
X531593Y376016D01*
X531621Y376027D01*
X531691Y376194D01*
X531754Y376308D01*
X531778Y376318D01*
X531852Y376337D01*
X531950Y376354D01*
X531984Y376350D01*
X532027Y376342D01*
X532065Y376332D01*
X532089Y376324D01*
X532100Y376319D01*
X532118Y376307D01*
X532127Y376305D01*
X532128Y376304D01*
X532130Y376304D01*
X532306Y376263D01*
X532491Y376208D01*
X532505Y376216D01*
X532521Y376212D01*
X532685Y376314D01*
X532829Y376393D01*
X532963D01*
X533353Y376470D01*
X533684Y376691D01*
X533790Y376797D01*
X534011Y377128D01*
X534089Y377518D01*
X534011Y377908D01*
X533790Y378239D01*
X533460Y378460D01*
X533069Y378538D01*
X532686Y378462D01*
X532651Y378537D01*
X532634Y378543D01*
X532625Y378560D01*
X532442Y378614D01*
X532262Y378679D01*
X532245Y378671D01*
X532227Y378677D01*
X532060Y378585D01*
X531982Y378549D01*
X531724Y378657D01*
X531668Y378709D01*
X531638Y378784D01*
X531608Y378797D01*
X531592Y378825D01*
X531421Y378875D01*
X531256Y378945D01*
D02*
G37*
G36*
X498409Y379088D02*
X497065D01*
X495722D01*
Y378831D01*
X495651Y378801D01*
X495628Y378744D01*
X495577Y378709D01*
X495551Y378559D01*
X495493Y378418D01*
X495516Y378362D01*
X495506Y378301D01*
X495839Y376801D01*
X495843Y376796D01*
Y376635D01*
X495939Y376147D01*
X496216Y375734D01*
X496267Y375682D01*
X496681Y375406D01*
X497169Y375309D01*
X497656Y375406D01*
X498070Y375682D01*
X498346Y376096D01*
X498443Y376584D01*
X498395Y376825D01*
X498402Y376837D01*
X498632Y378337D01*
X498621Y378379D01*
X498638Y378418D01*
X498573Y378575D01*
X498533Y378739D01*
X498496Y378761D01*
X498479Y378801D01*
X498409Y378831D01*
Y379088D01*
D02*
G37*
G36*
X550099Y374113D02*
X549612Y374016D01*
X549198Y373739D01*
X549154Y373674D01*
X548726D01*
Y372693D01*
X550069D01*
X551412D01*
Y373674D01*
X551045D01*
X551001Y373739D01*
X550587Y374016D01*
X550099Y374113D01*
D02*
G37*
G36*
X551443Y366246D02*
X550599D01*
Y365265D01*
X551443D01*
Y366246D01*
D02*
G37*
G36*
X551412Y371693D02*
X550069D01*
X548726D01*
Y371435D01*
X548655Y371406D01*
X548633Y371353D01*
X548585Y371320D01*
X548556Y371167D01*
X548496Y371024D01*
X548519Y370970D01*
X548508Y370913D01*
X548814Y369440D01*
X548808Y369426D01*
X548798Y368902D01*
X548767Y368518D01*
X548747Y368392D01*
X548746Y368386D01*
X547434Y368011D01*
X547157D01*
X546669Y367914D01*
X546256Y367638D01*
X545980Y367225D01*
X545883Y366737D01*
X545980Y366249D01*
X546256Y365836D01*
X546669Y365559D01*
X547157Y365462D01*
X547434D01*
X548925Y365055D01*
X548999Y365064D01*
X549068Y365036D01*
X549197Y365089D01*
X549336Y365107D01*
X549382Y365166D01*
X549451Y365194D01*
X549480Y365265D01*
X549599D01*
Y366746D01*
X550099D01*
Y367246D01*
X551443D01*
Y367503D01*
X551443Y367503D01*
X551513Y367532D01*
X551566Y367660D01*
X551652Y367769D01*
X551643Y367845D01*
X551672Y367915D01*
X551619Y368043D01*
X551603Y368180D01*
X551543Y368227D01*
X551513Y368298D01*
X551469Y368316D01*
X551452Y368392D01*
X551433Y368513D01*
X551393Y369150D01*
X551391Y369420D01*
X551384Y369437D01*
X551634Y370934D01*
X551623Y370980D01*
X551641Y371024D01*
X551578Y371177D01*
X551541Y371338D01*
X551501Y371363D01*
X551483Y371406D01*
X551412Y371435D01*
Y371693D01*
D02*
G37*
G36*
X527861Y373100D02*
X524765Y370004D01*
X530634Y364135D01*
X533730Y367231D01*
X527861Y373100D01*
D02*
G37*
G36*
X498271Y372127D02*
X492402Y366258D01*
X495498Y363162D01*
X501367Y369031D01*
X498271Y372127D01*
D02*
G37*
G36*
X468334Y363650D02*
X467783D01*
X467274Y363439D01*
X466884Y363049D01*
X466673Y362540D01*
Y361989D01*
X466884Y361479D01*
X467274Y361089D01*
X467783Y360878D01*
X468334D01*
X468844Y361089D01*
X469233Y361479D01*
X469444Y361989D01*
Y362540D01*
X469233Y363049D01*
X468844Y363439D01*
X468334Y363650D01*
D02*
G37*
G36*
X456538Y362320D02*
X455987D01*
X455478Y362109D01*
X455088Y361719D01*
X454877Y361210D01*
Y360658D01*
X455088Y360149D01*
X455478Y359759D01*
X455987Y359548D01*
X456538D01*
X457048Y359759D01*
X457438Y360149D01*
X457649Y360658D01*
Y361210D01*
X457438Y361719D01*
X457048Y362109D01*
X456538Y362320D01*
D02*
G37*
G36*
X478471Y360081D02*
X477998D01*
X477561Y359900D01*
X477226Y359565D01*
X477045Y359128D01*
Y358656D01*
X477226Y358219D01*
X477251Y358194D01*
X477268Y358131D01*
X477305Y358083D01*
X477328Y358048D01*
X477348Y358016D01*
X477363Y357986D01*
X477375Y357960D01*
X477384Y357935D01*
X477390Y357914D01*
X477394Y357894D01*
X477396Y357875D01*
X477397Y357835D01*
X477424Y357777D01*
Y353862D01*
X477480Y353583D01*
X477638Y353346D01*
X483531Y347453D01*
X483768Y347295D01*
X484047Y347239D01*
X484168D01*
X484200Y347219D01*
X484233Y347227D01*
X484264Y347213D01*
X484302Y347211D01*
X484311Y347210D01*
X484316Y347208D01*
X484320Y347207D01*
X484324Y347205D01*
X484330Y347201D01*
X484338Y347195D01*
X484349Y347185D01*
X484364Y347169D01*
X484393Y347131D01*
X484484Y347079D01*
X484709Y346854D01*
X485146Y346673D01*
X485619D01*
X486056Y346854D01*
X486390Y347188D01*
X486571Y347625D01*
Y348098D01*
X486390Y348535D01*
X486056Y348870D01*
X485619Y349051D01*
X485146D01*
X484709Y348870D01*
X484706Y348867D01*
X484658Y348856D01*
X484607Y348820D01*
X484569Y348796D01*
X484534Y348777D01*
X484502Y348761D01*
X484472Y348748D01*
X484446Y348740D01*
X484421Y348733D01*
X484399Y348729D01*
X484379Y348727D01*
X484339Y348725D01*
X484328Y348720D01*
X478883Y354164D01*
Y357696D01*
X478906Y357736D01*
X478900Y357758D01*
X478910Y357779D01*
X478912Y357817D01*
X478913Y357827D01*
X478915Y357834D01*
X478917Y357841D01*
X478920Y357848D01*
X478926Y357856D01*
X478933Y357868D01*
X478946Y357882D01*
X478964Y357899D01*
X479002Y357931D01*
X479054Y358030D01*
X479185Y358161D01*
X479429Y358170D01*
X479536Y358142D01*
X479840Y357838D01*
X480277Y357657D01*
X480750D01*
X481187Y357838D01*
X481521Y358173D01*
X481702Y358610D01*
Y359083D01*
X481521Y359520D01*
X481187Y359854D01*
X480750Y360035D01*
X480277D01*
X479840Y359854D01*
X479562Y359577D01*
X479319Y359568D01*
X479212Y359596D01*
X478908Y359900D01*
X478471Y360081D01*
D02*
G37*
G36*
X530174Y358263D02*
X529193D01*
Y357419D01*
X530174D01*
Y358263D01*
D02*
G37*
G36*
X537502Y358234D02*
X536521D01*
Y357390D01*
X537502D01*
Y358234D01*
D02*
G37*
G36*
X530674Y362323D02*
X530187Y362226D01*
X529773Y361950D01*
X529497Y361537D01*
X529419Y361147D01*
X529384Y361069D01*
X529367Y360637D01*
X529351Y360487D01*
X529329Y360365D01*
X529306Y360282D01*
X529293Y360250D01*
X529278Y360241D01*
X529122Y360177D01*
X529106Y360136D01*
X529068Y360112D01*
X529028Y359949D01*
X528964Y359794D01*
X528981Y359753D01*
X528971Y359710D01*
X529058Y359566D01*
X529122Y359411D01*
X529164Y359394D01*
X529187Y359356D01*
X529193Y359355D01*
Y359263D01*
X530674D01*
Y358763D01*
X531174D01*
Y357419D01*
X532155D01*
Y357752D01*
X532156Y357752D01*
X532182Y357792D01*
X532226Y357811D01*
X532273Y357924D01*
X532275Y357924D01*
X532343Y357941D01*
X532438Y357957D01*
X532744Y357980D01*
X532933Y357984D01*
X533012Y358018D01*
X533397Y358094D01*
X533607Y358089D01*
X533827Y358070D01*
X534007Y358040D01*
X534145Y358003D01*
X534240Y357964D01*
X534293Y357932D01*
X534313Y357914D01*
X534316Y357910D01*
X534317Y357906D01*
X534326Y357827D01*
X534413Y357668D01*
X534484Y357502D01*
X534512Y357490D01*
X534526Y357464D01*
X534540Y357460D01*
Y357390D01*
X534757D01*
X534867Y357346D01*
X534895Y357357D01*
X534924Y357349D01*
X534999Y357390D01*
X535521D01*
Y358734D01*
X536021D01*
Y359234D01*
X537502D01*
Y360077D01*
X537063D01*
X536922Y360288D01*
X536509Y360564D01*
X536021Y360661D01*
X533485D01*
X533482Y360662D01*
X533477Y360661D01*
X533392D01*
X533352Y360678D01*
X533312Y360661D01*
X532853D01*
X532365Y360564D01*
X532343Y360549D01*
X531993D01*
X531969Y360838D01*
X531965Y361058D01*
X531931Y361137D01*
X531852Y361537D01*
X531575Y361950D01*
X531162Y362226D01*
X530674Y362323D01*
D02*
G37*
G36*
X556008Y381149D02*
X551208D01*
Y376249D01*
X552161D01*
X552490Y375590D01*
Y374424D01*
X552469Y374376D01*
X552464Y374203D01*
X552453Y374070D01*
X552435Y373967D01*
X552416Y373895D01*
X552408Y373875D01*
X552405Y373874D01*
X551966D01*
Y371094D01*
X551937Y371024D01*
X551959Y370970D01*
X551949Y370913D01*
X551966Y370827D01*
Y370512D01*
X552032D01*
X552255Y369440D01*
X552249Y369426D01*
X552238Y368902D01*
X552208Y368518D01*
X552193Y368427D01*
X551997D01*
Y367986D01*
X551968Y367915D01*
X551997Y367845D01*
X551988Y367769D01*
X551997Y367757D01*
Y366576D01*
X551973Y366453D01*
Y365352D01*
X549990Y363370D01*
X549714Y362956D01*
X549634Y362554D01*
X549600Y362475D01*
X549598Y362298D01*
X549580Y362008D01*
X549578Y361988D01*
X543906D01*
Y356488D01*
X543582Y355840D01*
X542100Y354358D01*
X540206D01*
X540005Y354658D01*
X540131Y354962D01*
Y355513D01*
X539920Y356023D01*
X539530Y356412D01*
X539021Y356623D01*
X538470D01*
X538002Y356430D01*
X537829Y356497D01*
X537714Y356571D01*
X537702Y356592D01*
Y356836D01*
X534929D01*
X534864Y356863D01*
X534799Y356836D01*
X534340D01*
Y356666D01*
X533682Y356341D01*
X532906D01*
X532858Y356363D01*
X532685Y356367D01*
X532552Y356379D01*
X532448Y356396D01*
X532377Y356416D01*
X532357Y356424D01*
X532355Y356427D01*
Y356865D01*
X528993D01*
Y354358D01*
X528964Y354286D01*
X528993Y354217D01*
Y354213D01*
X528985Y354141D01*
X528993Y354131D01*
Y353778D01*
X529038D01*
X529058Y353462D01*
X529059Y353288D01*
X529081Y353236D01*
Y352779D01*
X529020Y352718D01*
X528839Y352281D01*
Y351808D01*
X528902Y351656D01*
X528702Y351356D01*
X528288D01*
X528122Y351605D01*
X528161Y351700D01*
Y352173D01*
X527980Y352610D01*
X527645Y352944D01*
X527208Y353125D01*
X526735D01*
X526298Y352944D01*
X525964Y352610D01*
X525783Y352173D01*
Y351884D01*
X525491Y351680D01*
X525489Y351681D01*
X525055D01*
X524654Y351515D01*
X524347Y351209D01*
X524181Y350808D01*
Y350374D01*
X524347Y349973D01*
X524654Y349666D01*
X525055Y349500D01*
X525489D01*
X525889Y349666D01*
X525970Y349747D01*
X526054Y349778D01*
X526055Y349778D01*
X526055Y349778D01*
X526061Y349781D01*
X526071Y349789D01*
X526077Y349791D01*
X526089Y349794D01*
X526108Y349797D01*
X526132Y349799D01*
X526176Y349800D01*
X526235Y349826D01*
X529833D01*
X529877Y349782D01*
X530125Y349616D01*
X530417Y349558D01*
X533875D01*
X534168Y349616D01*
X534416Y349782D01*
X537462Y352828D01*
X542417D01*
X542709Y352887D01*
X542957Y353052D01*
X544664Y354759D01*
X545311Y355083D01*
X552190D01*
Y361408D01*
X552219Y361480D01*
X552215Y361488D01*
X552219Y361496D01*
X552201Y361976D01*
X554148Y363923D01*
X554425Y364336D01*
X554522Y364824D01*
Y365065D01*
X555084D01*
Y367757D01*
X555093Y367769D01*
X555084Y367845D01*
X555113Y367915D01*
X555084Y367986D01*
Y368427D01*
X554887D01*
X554874Y368513D01*
X554834Y369150D01*
X554832Y369420D01*
X554825Y369437D01*
X555004Y370512D01*
X555053D01*
Y370804D01*
X555075Y370934D01*
X555064Y370980D01*
X555082Y371024D01*
X555053Y371094D01*
Y373874D01*
X554615D01*
X554612Y373875D01*
X554603Y373895D01*
X554584Y373967D01*
X554567Y374070D01*
X554555Y374203D01*
X554551Y374376D01*
X554529Y374424D01*
Y375590D01*
X554859Y376249D01*
X556008D01*
Y381149D01*
D02*
G37*
G36*
X504915Y350105D02*
X504363D01*
X503854Y349894D01*
X503464Y349504D01*
X503253Y348995D01*
Y348444D01*
X503464Y347934D01*
X503854Y347545D01*
X504363Y347334D01*
X504915D01*
X505424Y347545D01*
X505814Y347934D01*
X506025Y348444D01*
Y348995D01*
X505814Y349504D01*
X505424Y349894D01*
X504915Y350105D01*
D02*
G37*
G36*
X534822Y348407D02*
X534349D01*
X533912Y348226D01*
X533578Y347891D01*
X533397Y347454D01*
Y346981D01*
X533578Y346544D01*
X533912Y346210D01*
X534349Y346029D01*
X534822D01*
X535259Y346210D01*
X535594Y346544D01*
X535775Y346981D01*
Y347454D01*
X535594Y347891D01*
X535259Y348226D01*
X534822Y348407D01*
D02*
G37*
G36*
X516678Y346736D02*
X516126D01*
X515617Y346525D01*
X515227Y346135D01*
X515016Y345625D01*
Y345074D01*
X515227Y344565D01*
X515617Y344175D01*
X516126Y343964D01*
X516678D01*
X517187Y344175D01*
X517577Y344565D01*
X517788Y345074D01*
Y345625D01*
X517577Y346135D01*
X517187Y346525D01*
X516678Y346736D01*
D02*
G37*
G36*
X466808Y345749D02*
X466256D01*
X465747Y345538D01*
X465357Y345148D01*
X465146Y344638D01*
Y344087D01*
X465357Y343578D01*
X465747Y343188D01*
X466256Y342977D01*
X466808D01*
X467317Y343188D01*
X467574Y343445D01*
X467612Y343437D01*
X468002Y343047D01*
X468511Y342836D01*
X469062D01*
X469571Y343047D01*
X469961Y343437D01*
X470172Y343947D01*
Y344498D01*
X469961Y345007D01*
X469571Y345397D01*
X469062Y345608D01*
X468511D01*
X468002Y345397D01*
X467745Y345140D01*
X467707Y345148D01*
X467317Y345538D01*
X466808Y345749D01*
D02*
G37*
G36*
X538789Y345042D02*
X538237D01*
X537728Y344831D01*
X537338Y344442D01*
X537127Y343932D01*
Y343381D01*
X537338Y342872D01*
X537728Y342482D01*
X538237Y342271D01*
X538789D01*
X539298Y342482D01*
X539688Y342872D01*
X539899Y343381D01*
Y343932D01*
X539688Y344442D01*
X539298Y344831D01*
X538789Y345042D01*
D02*
G37*
G36*
X547131Y352358D02*
X542801D01*
X542450Y352288D01*
X542153Y352089D01*
X541197Y351133D01*
X540998Y350836D01*
X540928Y350484D01*
Y342710D01*
X540998Y342359D01*
X541197Y342062D01*
X541739Y341520D01*
X540560Y340341D01*
X539429D01*
X539078Y340271D01*
X538780Y340072D01*
X537841Y339133D01*
X537547Y339192D01*
X537449Y339428D01*
X537059Y339818D01*
X536549Y340029D01*
X535998D01*
X535489Y339818D01*
X535099Y339428D01*
X534888Y338919D01*
Y338368D01*
X535099Y337858D01*
X535489Y337469D01*
X535725Y337370D01*
X535784Y337076D01*
X534223Y335515D01*
X533929Y335574D01*
X533831Y335811D01*
X533441Y336201D01*
X532932Y336412D01*
X532380D01*
X531871Y336201D01*
X531481Y335811D01*
X531270Y335301D01*
Y334750D01*
X531481Y334241D01*
X531871Y333851D01*
X531970Y333810D01*
X531910Y333510D01*
X530874D01*
X530570Y333450D01*
X530436Y333579D01*
X530365Y333691D01*
X530508Y334035D01*
Y334508D01*
X530327Y334945D01*
X529992Y335279D01*
X529555Y335460D01*
X529082D01*
X528645Y335279D01*
X528311Y334945D01*
X528130Y334508D01*
Y334035D01*
X528311Y333598D01*
X528645Y333263D01*
X529082Y333082D01*
X529555D01*
X529703Y333144D01*
X529873Y332889D01*
X527959Y330976D01*
X527892Y330875D01*
X527592Y330966D01*
Y335087D01*
X527618Y335142D01*
X527621Y335185D01*
X527624Y335204D01*
X527630Y335230D01*
X527642Y335262D01*
X527660Y335302D01*
X527685Y335348D01*
X527714Y335394D01*
X527814Y335525D01*
X527875Y335595D01*
X527903Y335679D01*
X527988Y335764D01*
X528199Y336273D01*
Y336824D01*
X527988Y337334D01*
X527598Y337723D01*
X527089Y337934D01*
X526537D01*
X526028Y337723D01*
X525638Y337334D01*
X525616Y337280D01*
X525316Y337340D01*
Y337418D01*
X525135Y337855D01*
X524801Y338190D01*
X524364Y338371D01*
X523990D01*
X523903Y338391D01*
X523858Y338384D01*
X523839Y338382D01*
X523827Y338383D01*
X523820Y338383D01*
X523817Y338384D01*
X523816Y338385D01*
X523814Y338385D01*
X523811Y338387D01*
X523804Y338392D01*
X523776Y338418D01*
X523735Y338433D01*
X523710Y338469D01*
X523682Y338475D01*
X522924Y339232D01*
X522687Y339390D01*
X522408Y339446D01*
X516961D01*
X516944Y339458D01*
X516891Y339450D01*
X516843Y339473D01*
X516806Y339474D01*
X516799Y339475D01*
X516797Y339476D01*
X516794Y339478D01*
X516788Y339484D01*
X516778Y339496D01*
X516753Y339533D01*
X516699Y339569D01*
X516392Y339876D01*
X515955Y340057D01*
X515482D01*
X515045Y339876D01*
X514711Y339541D01*
X514530Y339104D01*
Y338631D01*
X514711Y338194D01*
X515045Y337860D01*
X515482Y337679D01*
X515955D01*
X516279Y337813D01*
X516377Y337829D01*
X516427Y337859D01*
X516521Y337909D01*
X516552Y337923D01*
X516586Y337935D01*
X516618Y337945D01*
X516646Y337952D01*
X516671Y337956D01*
X516694Y337959D01*
X516735Y337960D01*
X516793Y337987D01*
X522106D01*
X522750Y337343D01*
X522772Y337283D01*
X522800Y337253D01*
X522813Y337236D01*
X522827Y337216D01*
X522841Y337193D01*
X522855Y337166D01*
X522869Y337134D01*
X522880Y337105D01*
X522908Y337005D01*
X522919Y336949D01*
X522964Y336884D01*
X523119Y336508D01*
X523454Y336174D01*
X523891Y335993D01*
X524364D01*
X524801Y336174D01*
X525127Y336500D01*
X525170Y336499D01*
X525427Y336430D01*
Y336273D01*
X525638Y335764D01*
X525815Y335587D01*
X525862Y335485D01*
X525930Y335422D01*
X525979Y335371D01*
X526018Y335325D01*
X526049Y335284D01*
X526071Y335248D01*
X526087Y335218D01*
X526096Y335194D01*
X526102Y335175D01*
X526104Y335160D01*
X526107Y335116D01*
X526107Y335116D01*
X526107Y335116D01*
X526133Y335061D01*
Y321124D01*
X526189Y320845D01*
X526347Y320608D01*
X531331Y315624D01*
X531356Y315560D01*
X531452Y315462D01*
X531600Y315293D01*
X531643Y315235D01*
X531673Y315190D01*
X531684Y315169D01*
X531687Y315156D01*
X531690Y315153D01*
Y315030D01*
X531688Y315005D01*
X531690Y315003D01*
Y309593D01*
X539973D01*
Y312334D01*
X539985Y312339D01*
X540059Y312359D01*
X540165Y312376D01*
X540299Y312388D01*
X540475Y312392D01*
X540523Y312414D01*
X541518D01*
X542177Y312085D01*
Y311543D01*
X545540D01*
Y311988D01*
X545552Y311992D01*
X545625Y312012D01*
X545731Y312030D01*
X545866Y312041D01*
X546042Y312046D01*
X546090Y312067D01*
X546788D01*
X547447Y311738D01*
Y311558D01*
X547929D01*
X547959Y311546D01*
X547988Y311558D01*
X550809D01*
Y312002D01*
X550821Y312007D01*
X550895Y312026D01*
X551000Y312044D01*
X551135Y312055D01*
X551311Y312060D01*
X551359Y312082D01*
X553098D01*
X553488Y312159D01*
X553819Y312380D01*
X554618Y313179D01*
X554654Y313189D01*
X554667Y313213D01*
X554693Y313223D01*
X554865Y313389D01*
X555017Y313523D01*
X555155Y313632D01*
X555277Y313715D01*
X555379Y313773D01*
X555459Y313808D01*
X555459Y313809D01*
X558145D01*
Y318609D01*
X553245D01*
Y315086D01*
X553240Y315059D01*
X553245Y315052D01*
Y314798D01*
X553195Y314729D01*
X552875Y314357D01*
X552661Y314137D01*
X552655Y314121D01*
X551359D01*
X551311Y314142D01*
X551135Y314147D01*
X551000Y314158D01*
X550895Y314176D01*
X550821Y314195D01*
X550809Y314200D01*
Y314644D01*
X547447D01*
Y314436D01*
X546788Y314106D01*
X546090D01*
X546042Y314128D01*
X545866Y314132D01*
X545731Y314144D01*
X545625Y314162D01*
X545552Y314181D01*
X545540Y314186D01*
Y314630D01*
X542760D01*
X542690Y314659D01*
X542642Y314640D01*
X542591Y314650D01*
X542482Y314630D01*
X542177D01*
Y314574D01*
X541591Y314466D01*
X541572Y314453D01*
X540523D01*
X540475Y314475D01*
X540299Y314479D01*
X540165Y314491D01*
X540059Y314508D01*
X539985Y314528D01*
X539973Y314533D01*
Y316499D01*
X532796D01*
X532244Y316775D01*
X529591Y319427D01*
X529715Y319727D01*
X535643D01*
X535995Y319797D01*
X536292Y319996D01*
X537569Y321273D01*
X537768Y321571D01*
X537838Y321922D01*
Y328756D01*
X541875Y332793D01*
X542037Y332761D01*
X542427Y332371D01*
X542936Y332160D01*
X543487D01*
X543997Y332371D01*
X544386Y332761D01*
X544597Y333271D01*
Y333660D01*
X544735Y333797D01*
X544956Y334128D01*
X545010Y334399D01*
X545054Y334496D01*
X545059Y334615D01*
X545071Y334708D01*
X545090Y334799D01*
X545116Y334887D01*
X545151Y334974D01*
X545193Y335061D01*
X545245Y335148D01*
X545307Y335236D01*
X545379Y335324D01*
X545474Y335425D01*
X545489Y335464D01*
X545523Y335485D01*
X545529Y335513D01*
X549037Y339021D01*
X549235Y339318D01*
X549305Y339669D01*
Y340944D01*
X553917D01*
X553966Y340922D01*
X554128Y340918D01*
X554264Y340908D01*
X554385Y340891D01*
X554493Y340869D01*
X554587Y340843D01*
X554666Y340812D01*
X554733Y340780D01*
X554787Y340746D01*
X554832Y340711D01*
X554892Y340652D01*
X554943Y340632D01*
X554974Y340586D01*
X555022Y340577D01*
X555333Y340266D01*
X556240Y339890D01*
X557223D01*
X558130Y340266D01*
X558824Y340960D01*
X559200Y341868D01*
Y342850D01*
X558824Y343757D01*
X558130Y344451D01*
X557223Y344827D01*
X556240D01*
X555333Y344451D01*
X554639Y343757D01*
X554459Y343324D01*
X554418Y343296D01*
X554408Y343247D01*
X554373Y343213D01*
X554347Y343152D01*
X554337Y343137D01*
X554324Y343123D01*
X554302Y343106D01*
X554264Y343084D01*
X554208Y343061D01*
X554129Y343039D01*
X554029Y343021D01*
X553907Y343009D01*
X553749Y343004D01*
X553703Y342983D01*
X553653Y342992D01*
X553639Y342983D01*
X549305D01*
Y343172D01*
X549235Y343524D01*
X549037Y343821D01*
X548797Y344061D01*
X548889Y344361D01*
X553093D01*
Y350715D01*
X548731D01*
Y350757D01*
X548662Y351109D01*
X548463Y351406D01*
X547780Y352089D01*
X547482Y352288D01*
X547131Y352358D01*
D02*
G37*
G36*
X519822Y335272D02*
X519270D01*
X518761Y335061D01*
X518371Y334671D01*
X518160Y334162D01*
Y333611D01*
X518371Y333102D01*
X518761Y332712D01*
X519270Y332501D01*
X519822D01*
X520331Y332712D01*
X520721Y333102D01*
X520932Y333611D01*
Y334162D01*
X520721Y334671D01*
X520331Y335061D01*
X519822Y335272D01*
D02*
G37*
G36*
X467511Y368312D02*
X466959D01*
X466450Y368101D01*
X466060Y367711D01*
X465849Y367202D01*
Y367020D01*
X465808Y366925D01*
X465807Y366828D01*
X465802Y366753D01*
X465794Y366688D01*
X465783Y366633D01*
X465771Y366587D01*
X465759Y366550D01*
X465746Y366523D01*
X465735Y366502D01*
X465725Y366489D01*
X465696Y366456D01*
X465676Y366399D01*
X464792Y365515D01*
X464634Y365279D01*
X464578Y365000D01*
Y357509D01*
X464634Y357230D01*
X464792Y356993D01*
X474655Y347131D01*
Y336882D01*
X474710Y336603D01*
X474868Y336366D01*
X475716Y335519D01*
Y331457D01*
X475416Y331308D01*
X475075Y331449D01*
X474937D01*
X474843Y331490D01*
X474788Y331491D01*
X474754Y331494D01*
X474726Y331499D01*
X474702Y331504D01*
X474683Y331510D01*
X474667Y331517D01*
X474654Y331524D01*
X474642Y331531D01*
X474631Y331540D01*
X474602Y331566D01*
X474543Y331588D01*
X472219Y333911D01*
X471983Y334069D01*
X471703Y334125D01*
X468044D01*
X464469Y337700D01*
Y351644D01*
X464413Y351923D01*
X464255Y352159D01*
X463005Y353409D01*
X462986Y353466D01*
X462955Y353501D01*
X462944Y353517D01*
X462930Y353543D01*
X462914Y353580D01*
X462898Y353629D01*
X462883Y353691D01*
X462872Y353757D01*
X462856Y353953D01*
X462854Y354066D01*
X462813Y354162D01*
Y354368D01*
X462585Y354919D01*
X462163Y355341D01*
X461612Y355570D01*
X461015D01*
X460464Y355341D01*
X460042Y354919D01*
X459813Y354368D01*
Y353771D01*
X460042Y353220D01*
X460464Y352798D01*
X461015Y352570D01*
X461215D01*
X461305Y352529D01*
X461540Y352521D01*
X461619Y352512D01*
X461692Y352500D01*
X461754Y352485D01*
X461803Y352469D01*
X461840Y352453D01*
X461866Y352439D01*
X461883Y352428D01*
X461917Y352397D01*
X461974Y352378D01*
X463010Y351341D01*
Y337398D01*
X463065Y337119D01*
X463224Y336882D01*
X467226Y332880D01*
X467463Y332722D01*
X467742Y332666D01*
X471401D01*
X473511Y330556D01*
X473533Y330497D01*
X473559Y330468D01*
X473568Y330457D01*
X473575Y330445D01*
X473582Y330432D01*
X473589Y330416D01*
X473595Y330397D01*
X473600Y330373D01*
X473605Y330345D01*
X473608Y330311D01*
X473609Y330256D01*
X473650Y330162D01*
Y330024D01*
X473831Y329587D01*
X474165Y329252D01*
X474603Y329071D01*
X475075D01*
X475416Y329212D01*
X475716Y329064D01*
Y328756D01*
X472791Y325831D01*
X472633Y325595D01*
X472577Y325315D01*
Y324314D01*
X472551Y324259D01*
X472549Y324216D01*
X472546Y324199D01*
X472540Y324177D01*
X472529Y324148D01*
X472512Y324113D01*
X472488Y324073D01*
X472461Y324032D01*
X472361Y323912D01*
X472299Y323849D01*
X472260Y323752D01*
X472132Y323623D01*
X471921Y323114D01*
Y322563D01*
X471779Y322350D01*
X469039D01*
X468969Y322380D01*
X468946Y322370D01*
X468923Y322378D01*
X468601Y322350D01*
X468457D01*
Y322338D01*
X467017Y322217D01*
X466629Y322476D01*
X466043Y322592D01*
X465458Y322476D01*
X464962Y322144D01*
X464630Y321648D01*
X464514Y321063D01*
X464630Y320478D01*
X464962Y319982D01*
X465356Y319588D01*
X465852Y319256D01*
X466107Y319205D01*
X466078Y318905D01*
X466063D01*
X465554Y318694D01*
X465164Y318305D01*
X464953Y317795D01*
Y317244D01*
X465135Y316804D01*
X465002Y316504D01*
X464953D01*
Y313181D01*
Y309874D01*
X467072D01*
X467109Y309852D01*
X467152Y309862D01*
X467193Y309845D01*
X467236Y309862D01*
X467351Y309765D01*
X467427Y309692D01*
X467490Y309667D01*
X468320Y308837D01*
X468341Y308779D01*
X468368Y308749D01*
X468383Y308729D01*
X468400Y308703D01*
X468458Y308593D01*
X468481Y308542D01*
X468579Y308270D01*
X468609Y308167D01*
X468681Y308079D01*
X468806Y307778D01*
X469195Y307388D01*
X469705Y307177D01*
X470256D01*
X470765Y307388D01*
X471155Y307778D01*
X471366Y308287D01*
Y308839D01*
X471155Y309348D01*
X470765Y309738D01*
X470256Y309949D01*
X469705D01*
X469646Y309924D01*
X469581Y309933D01*
X469506Y309913D01*
X469459Y309904D01*
X469421Y309900D01*
X469394Y309900D01*
X469376Y309902D01*
X469365Y309905D01*
X469359Y309907D01*
X469354Y309910D01*
X469347Y309915D01*
X469314Y309944D01*
X469257Y309964D01*
X469231Y309989D01*
X469208Y310018D01*
X469202Y310018D01*
X468527Y310694D01*
X468504Y310754D01*
X468359Y310910D01*
X468326Y310952D01*
X468344Y310996D01*
X468327Y311037D01*
X468337Y311080D01*
X468315Y311117D01*
Y313181D01*
Y316504D01*
X467735D01*
X467644Y316575D01*
X467642Y316578D01*
X467542Y316804D01*
X467724Y317244D01*
Y317795D01*
X467513Y318305D01*
X467124Y318694D01*
X467044Y318728D01*
X466911Y319108D01*
X466923Y319130D01*
X468457Y319000D01*
Y318988D01*
X468601D01*
X468923Y318961D01*
X468946Y318968D01*
X468969Y318959D01*
X469039Y318988D01*
X471262D01*
X471377Y318711D01*
X471364Y318698D01*
X471153Y318189D01*
Y317638D01*
X471364Y317128D01*
X471754Y316739D01*
X472264Y316528D01*
X472403D01*
X472417Y316513D01*
X472436Y316506D01*
X472441Y316503D01*
X472461Y316490D01*
X472484Y316474D01*
X472642Y316337D01*
X472701Y316280D01*
X472752Y316259D01*
X474177Y314834D01*
Y314465D01*
X474156Y314417D01*
X474151Y314241D01*
X474139Y314106D01*
X474122Y314000D01*
X474102Y313927D01*
X474098Y313915D01*
X472747D01*
Y309115D01*
X477647D01*
Y313915D01*
X476296D01*
X476291Y313927D01*
X476272Y314000D01*
X476254Y314106D01*
X476242Y314241D01*
X476238Y314417D01*
X476216Y314465D01*
Y315256D01*
X476139Y315646D01*
X475918Y315977D01*
X474197Y317698D01*
X474178Y317747D01*
X474060Y317871D01*
X473982Y317965D01*
X473963Y317991D01*
X473950Y318012D01*
X473947Y318017D01*
X473939Y318036D01*
X473925Y318050D01*
Y318189D01*
X473716Y318693D01*
X473723Y318710D01*
X473902Y318935D01*
X474325Y318715D01*
X474328Y318715D01*
X494084Y298959D01*
Y286419D01*
X494058Y286365D01*
X494056Y286321D01*
X494053Y286304D01*
X494047Y286282D01*
X494036Y286253D01*
X494019Y286219D01*
X493995Y286178D01*
X493968Y286138D01*
X493868Y286018D01*
X493806Y285954D01*
X493767Y285857D01*
X493639Y285729D01*
X493428Y285220D01*
Y284668D01*
X493639Y284159D01*
X494029Y283769D01*
X494538Y283558D01*
X495089D01*
X495599Y283769D01*
X495989Y284159D01*
X496200Y284668D01*
Y285220D01*
X495989Y285729D01*
X495860Y285857D01*
X495822Y285954D01*
X495755Y286023D01*
X495705Y286079D01*
X495665Y286131D01*
X495633Y286178D01*
X495609Y286219D01*
X495592Y286254D01*
X495581Y286282D01*
X495575Y286304D01*
X495572Y286321D01*
X495570Y286365D01*
X495543Y286419D01*
Y299261D01*
X495543Y299261D01*
X495488Y299540D01*
X495330Y299777D01*
X475298Y319809D01*
X475275Y319869D01*
X475127Y320028D01*
X475089Y320075D01*
X475104Y320110D01*
X475087Y320151D01*
Y320156D01*
X475097Y320199D01*
X475087Y320214D01*
Y322350D01*
X474835D01*
X474693Y322563D01*
Y323114D01*
X474482Y323623D01*
X474353Y323752D01*
X474315Y323849D01*
X474248Y323918D01*
X474198Y323974D01*
X474157Y324026D01*
X474125Y324073D01*
X474102Y324113D01*
X474085Y324148D01*
X474074Y324177D01*
X474068Y324199D01*
X474065Y324216D01*
X474063Y324259D01*
X474036Y324314D01*
Y325013D01*
X476961Y327938D01*
X477119Y328175D01*
X477175Y328454D01*
Y335821D01*
X477119Y336100D01*
X476961Y336336D01*
X476114Y337184D01*
Y347433D01*
X476058Y347712D01*
X475900Y347949D01*
X467943Y355906D01*
X468067Y356206D01*
X468261D01*
X468771Y356417D01*
X469161Y356807D01*
X469372Y357316D01*
Y357867D01*
X469161Y358377D01*
X468771Y358767D01*
X468261Y358978D01*
X467710D01*
X467201Y358767D01*
X466811Y358377D01*
X466600Y357867D01*
Y357673D01*
X466300Y357549D01*
X466038Y357811D01*
Y364697D01*
X466707Y365367D01*
X466765Y365387D01*
X466797Y365416D01*
X466811Y365426D01*
X466831Y365438D01*
X466859Y365450D01*
X466895Y365463D01*
X466941Y365475D01*
X466989Y365484D01*
X467144Y365498D01*
X467233Y365499D01*
X467329Y365541D01*
X467511D01*
X468020Y365752D01*
X468410Y366141D01*
X468621Y366651D01*
Y367202D01*
X468410Y367711D01*
X468020Y368101D01*
X467511Y368312D01*
D02*
G37*
G36*
X510717Y340599D02*
X510244D01*
X509807Y340418D01*
X509473Y340083D01*
X509292Y339646D01*
Y339173D01*
X509473Y338736D01*
X509571Y338638D01*
X509608Y338543D01*
X509646Y338503D01*
X509668Y338477D01*
X509685Y338454D01*
X509698Y338434D01*
X509707Y338416D01*
X509713Y338400D01*
X509718Y338386D01*
X509721Y338372D01*
X509723Y338358D01*
X509725Y338319D01*
X509751Y338262D01*
Y331961D01*
X509807Y331682D01*
X509965Y331445D01*
X513111Y328299D01*
X513132Y328240D01*
X513159Y328211D01*
X513168Y328200D01*
X513175Y328188D01*
X513182Y328174D01*
X513189Y328159D01*
X513195Y328140D01*
X513200Y328116D01*
X513205Y328088D01*
X513207Y328054D01*
X513209Y327999D01*
X513250Y327905D01*
Y327766D01*
X513431Y327329D01*
X513765Y326995D01*
X514202Y326814D01*
X514675D01*
X515112Y326995D01*
X515447Y327329D01*
X515628Y327766D01*
Y328239D01*
X515447Y328677D01*
X515112Y329011D01*
X514675Y329192D01*
X514537D01*
X514443Y329233D01*
X514387Y329234D01*
X514354Y329237D01*
X514325Y329241D01*
X514302Y329247D01*
X514283Y329253D01*
X514267Y329260D01*
X514254Y329267D01*
X514242Y329274D01*
X514231Y329283D01*
X514202Y329309D01*
X514143Y329331D01*
X513539Y329934D01*
X513709Y330188D01*
X514067Y330040D01*
X514540D01*
X514977Y330221D01*
X515050Y330294D01*
X515136Y330324D01*
X515169Y330353D01*
X515187Y330367D01*
X515204Y330378D01*
X515221Y330387D01*
X515237Y330394D01*
X515255Y330400D01*
X515274Y330405D01*
X515296Y330409D01*
X515320Y330412D01*
X515367Y330414D01*
X515425Y330440D01*
X516525D01*
X516581Y330414D01*
X516582Y330414D01*
X516583Y330414D01*
X516629Y330412D01*
X516650Y330409D01*
X516668Y330406D01*
X516683Y330402D01*
X516695Y330397D01*
X516707Y330392D01*
X516718Y330385D01*
X516730Y330376D01*
X516743Y330365D01*
X516772Y330335D01*
X516871Y330293D01*
X516993Y330171D01*
X517430Y329991D01*
X517903D01*
X518340Y330171D01*
X518675Y330506D01*
X518856Y330943D01*
Y331416D01*
X518675Y331853D01*
X518340Y332187D01*
X517903Y332368D01*
X517430D01*
X516993Y332187D01*
X516920Y332114D01*
X516834Y332085D01*
X516801Y332055D01*
X516783Y332042D01*
X516766Y332031D01*
X516749Y332022D01*
X516733Y332014D01*
X516715Y332008D01*
X516696Y332003D01*
X516674Y331999D01*
X516650Y331997D01*
X516603Y331995D01*
X516545Y331969D01*
X515446D01*
X515389Y331995D01*
X515388Y331995D01*
X515387Y331995D01*
X515342Y331997D01*
X515320Y331999D01*
X515302Y332003D01*
X515287Y332007D01*
X515275Y332012D01*
X515263Y332017D01*
X515252Y332024D01*
X515240Y332032D01*
X515227Y332044D01*
X515198Y332073D01*
X515099Y332115D01*
X514977Y332237D01*
X514834Y332296D01*
X514752Y332655D01*
X514899Y333009D01*
Y333482D01*
X514718Y333919D01*
X514384Y334254D01*
X513947Y334435D01*
X513474D01*
X513037Y334254D01*
X512702Y333919D01*
X512521Y333482D01*
Y333009D01*
X512702Y332572D01*
X513037Y332238D01*
X513179Y332179D01*
X513261Y331820D01*
X513115Y331466D01*
Y330993D01*
X513263Y330635D01*
X513008Y330465D01*
X511210Y332263D01*
Y338262D01*
X511237Y338319D01*
X511238Y338358D01*
X511240Y338372D01*
X511243Y338386D01*
X511248Y338400D01*
X511255Y338416D01*
X511264Y338434D01*
X511276Y338454D01*
X511293Y338477D01*
X511315Y338503D01*
X511353Y338543D01*
X511391Y338638D01*
X511489Y338736D01*
X511670Y339173D01*
Y339646D01*
X511489Y340083D01*
X511154Y340418D01*
X510717Y340599D01*
D02*
G37*
G36*
X566276Y329654D02*
X566244Y329641D01*
X566210Y329651D01*
X566056Y329565D01*
X565892Y329498D01*
X565879Y329466D01*
X565848Y329449D01*
X565841Y329425D01*
X565603D01*
Y328082D01*
Y326739D01*
X565972D01*
X565992Y326730D01*
X566087Y326647D01*
X566175Y326653D01*
X566257Y326618D01*
X566374Y326666D01*
X566500Y326674D01*
X567092Y326966D01*
X567160Y326944D01*
X567174Y326952D01*
X567190Y326947D01*
X567357Y327044D01*
X567529Y327132D01*
X567532Y327140D01*
X567698D01*
X568088Y327217D01*
X568419Y327438D01*
X568497Y327516D01*
X568718Y327847D01*
X568795Y328237D01*
X568718Y328627D01*
X568497Y328958D01*
X568166Y329179D01*
X567776Y329257D01*
X567422Y329186D01*
X567386Y329268D01*
X567370Y329274D01*
X567361Y329291D01*
X567179Y329350D01*
X567001Y329421D01*
X566976Y329416D01*
X566967Y329419D01*
X566657Y329493D01*
D01*
X566608Y329537D01*
X566439Y329586D01*
X566276Y329654D01*
D02*
G37*
G36*
X545758Y328942D02*
X540034D01*
Y321643D01*
X545758D01*
Y328942D01*
D02*
G37*
G36*
X523066Y324408D02*
X522514D01*
X522005Y324197D01*
X521615Y323807D01*
X521404Y323298D01*
Y322746D01*
X521615Y322237D01*
X522005Y321847D01*
X522514Y321636D01*
X523066D01*
X523575Y321847D01*
X523965Y322237D01*
X524176Y322746D01*
Y323298D01*
X523965Y323807D01*
X523575Y324197D01*
X523066Y324408D01*
D02*
G37*
G36*
X518679Y321696D02*
X518127D01*
X517618Y321485D01*
X517228Y321095D01*
X517017Y320586D01*
Y320035D01*
X517228Y319526D01*
X517618Y319136D01*
X518127Y318925D01*
X518679D01*
X519188Y319136D01*
X519578Y319526D01*
X519789Y320035D01*
Y320586D01*
X519578Y321095D01*
X519188Y321485D01*
X518679Y321696D01*
D02*
G37*
G36*
X547959Y311233D02*
X547909Y311212D01*
X547857Y311223D01*
X546419Y310946D01*
X546014Y310955D01*
X545629Y310985D01*
X545502Y311004D01*
X545427Y311021D01*
X545410Y311060D01*
X545338Y311090D01*
X545290Y311151D01*
X545154Y311166D01*
X545028Y311218D01*
X544955Y311189D01*
X544878Y311197D01*
X544771Y311112D01*
X544645Y311060D01*
X544616Y310989D01*
X544359D01*
Y309646D01*
X543859D01*
Y309146D01*
X542378D01*
Y309027D01*
X542307Y308997D01*
X542278Y308927D01*
X542218Y308880D01*
X542201Y308743D01*
X542148Y308615D01*
X542177Y308544D01*
X542168Y308469D01*
X542584Y306981D01*
Y305976D01*
X542681Y305488D01*
X542957Y305074D01*
X543371Y304798D01*
X543859Y304701D01*
X544346Y304798D01*
X544760Y305074D01*
X545036Y305488D01*
X545133Y305976D01*
Y306981D01*
X545501Y308298D01*
X545507Y308299D01*
X545627Y308318D01*
X546263Y308359D01*
X546416Y308361D01*
X547861Y308097D01*
X547912Y308107D01*
X547959Y308088D01*
X548108Y308150D01*
X548266Y308184D01*
X548294Y308227D01*
X548342Y308246D01*
X548371Y308317D01*
X548628D01*
Y309660D01*
Y311003D01*
X548371D01*
X548342Y311074D01*
X548292Y311095D01*
X548262Y311139D01*
X548106Y311172D01*
X547959Y311233D01*
D02*
G37*
G36*
X550609Y311003D02*
X549628D01*
Y310160D01*
X550609D01*
Y311003D01*
D02*
G37*
G36*
X543359Y310989D02*
X542378D01*
Y310146D01*
X543359D01*
Y310989D01*
D02*
G37*
G36*
X550609Y309160D02*
X549628D01*
Y308317D01*
X550609D01*
Y309160D01*
D02*
G37*
G36*
X503665Y310652D02*
X502421D01*
X502411Y306630D01*
X502758D01*
X502762Y306168D01*
X502199Y305603D01*
X502213Y302475D01*
X501602Y301867D01*
X501075Y301871D01*
X501071Y300937D01*
X502085Y300923D01*
X502095Y301475D01*
X502831Y302206D01*
X502825Y305328D01*
X503377Y305895D01*
X503388Y306616D01*
X503703Y306611D01*
X503665Y310652D01*
D02*
G37*
G36*
X506549Y302132D02*
X506505Y302132D01*
X506505Y302132D01*
X506501Y302132D01*
X505696Y302132D01*
X505695Y302132D01*
X505662Y302132D01*
X505662Y302132D01*
X505601Y302106D01*
X505554Y302059D01*
X505528Y301998D01*
X505528Y301998D01*
X505528Y301964D01*
X505528Y300833D01*
X505576Y300717D01*
X505664Y300629D01*
X505780Y300581D01*
X506427Y300581D01*
X506619Y300581D01*
X506709Y300625D01*
X506956Y300587D01*
X507025Y300509D01*
X507047Y300462D01*
X507077Y289820D01*
Y289413D01*
X507388Y288662D01*
X507963Y288087D01*
X508714Y287775D01*
X509121D01*
X534438Y287775D01*
X534438Y287775D01*
X534438Y287775D01*
X534936Y287726D01*
X535857Y287345D01*
X536561Y286641D01*
X536942Y285720D01*
X536991Y285222D01*
X536991Y285048D01*
X536991Y285048D01*
X536987Y285006D01*
X536955Y284928D01*
X536895Y284868D01*
X536817Y284836D01*
X536775Y284832D01*
X535375Y284777D01*
X535347Y279868D01*
X540367Y279868D01*
X540667Y279868D01*
X540740Y279867D01*
X540876Y279923D01*
X540876Y279923D01*
X540924Y279971D01*
X540980Y280027D01*
X541036Y280163D01*
X541036Y280236D01*
X541036Y281532D01*
X541039Y281570D01*
X541068Y281639D01*
X541121Y281692D01*
X541191Y281721D01*
X541228Y281725D01*
X547539D01*
X547539Y281725D01*
X547539Y281725D01*
X547540Y281725D01*
X547807Y281654D01*
X547898Y281616D01*
X548077Y281437D01*
X548173Y281204D01*
X548186Y281078D01*
X548186Y268653D01*
X548186Y268653D01*
X548174Y268539D01*
X548087Y268328D01*
X547926Y268167D01*
X547715Y268080D01*
X547601Y268069D01*
X547501D01*
X547316Y267992D01*
X547175Y267850D01*
X547098Y267666D01*
Y266183D01*
X547149Y266061D01*
X547242Y265967D01*
X547365Y265916D01*
X548098D01*
X548122Y265914D01*
X548166Y265896D01*
X548200Y265862D01*
X548218Y265817D01*
X548221Y265793D01*
Y264302D01*
X548212Y264215D01*
X548146Y264055D01*
X548023Y263932D01*
X547863Y263866D01*
X547776Y263858D01*
X547402D01*
X547402Y263857D01*
X547357Y263858D01*
X547357Y263857D01*
X547273Y263823D01*
X547209Y263759D01*
X547174Y263675D01*
X547174Y263675D01*
X547174Y263633D01*
Y261865D01*
X547226Y261738D01*
X547324Y261641D01*
X547450Y261588D01*
X549952D01*
X550006Y261588D01*
X550107Y261630D01*
X550176Y261698D01*
X550206Y261702D01*
X550286Y261706D01*
X550491Y261704D01*
X550565Y261650D01*
X550648Y261612D01*
X550736Y261590D01*
X550782Y261588D01*
X550782Y261588D01*
X552516Y261588D01*
X552577Y261585D01*
X552698Y261561D01*
X552812Y261514D01*
X552915Y261445D01*
X552961Y261404D01*
X552961Y261404D01*
X552983Y261382D01*
X553034Y261347D01*
X553091Y261324D01*
X553152Y261312D01*
X555230Y261312D01*
Y259116D01*
X565410D01*
X565519Y259225D01*
Y282768D01*
X555230Y282790D01*
Y262075D01*
X553739D01*
X553698Y262076D01*
X553619Y262092D01*
X553544Y262123D01*
X553477Y262168D01*
X553447Y262195D01*
X553424Y262221D01*
X553386Y262277D01*
X553360Y262340D01*
X553347Y262407D01*
X553345Y262441D01*
Y263780D01*
X550470Y263753D01*
X550422Y263754D01*
X550148Y263785D01*
X550076Y263858D01*
X549948Y263911D01*
X549757D01*
X549642Y263922D01*
X549429Y264010D01*
X549266Y264173D01*
X549178Y264386D01*
X549167Y264501D01*
Y265841D01*
X549169Y265861D01*
X549185Y265898D01*
X549213Y265927D01*
X549250Y265942D01*
X549270Y265944D01*
X550423D01*
X550492Y265973D01*
X550544Y266025D01*
X550573Y266094D01*
Y267921D01*
X550544Y267990D01*
X550492Y268043D01*
X550423Y268072D01*
X550385D01*
X550140Y268096D01*
X549688Y268283D01*
X549342Y268629D01*
X549155Y269081D01*
X549131Y269326D01*
Y282041D01*
X548970Y282430D01*
X548672Y282728D01*
X548283Y282889D01*
X541268D01*
X541188Y282899D01*
X541047Y282974D01*
X540958Y283106D01*
X540942Y283265D01*
X540963Y283343D01*
X539171Y284910D01*
X538432Y285399D01*
Y285399D01*
D01*
X538403Y285674D01*
X538394Y285752D01*
X538181Y286431D01*
X537840Y287056D01*
X537384Y287602D01*
X536830Y288048D01*
X536199Y288378D01*
X535517Y288578D01*
X534808Y288641D01*
X534454Y288603D01*
X509532Y288603D01*
X509210Y288635D01*
X508616Y288881D01*
X508162Y289336D01*
X507916Y289930D01*
X507884Y290251D01*
X507884Y300598D01*
X507884Y300598D01*
X507884Y300598D01*
X507884Y300599D01*
X507884Y300796D01*
X507852Y300876D01*
X507737Y301166D01*
X507463Y301455D01*
X507181Y301585D01*
X507101Y301622D01*
X506903Y301632D01*
X506735Y301858D01*
X506727Y301906D01*
X506727Y301909D01*
X506727Y301910D01*
X506727Y301910D01*
X506727Y301912D01*
X506727Y301954D01*
X506727Y301954D01*
X506693Y302036D01*
X506631Y302098D01*
X506549Y302132D01*
X506549Y302132D01*
D02*
G37*
G36*
X477647Y307815D02*
X472747D01*
Y303015D01*
X473353D01*
X473781Y302151D01*
X473661Y301862D01*
Y301310D01*
X473872Y300801D01*
X474262Y300411D01*
X474771Y300200D01*
X475323D01*
X475832Y300411D01*
X476222Y300801D01*
X476433Y301310D01*
Y301481D01*
X476474Y301548D01*
X476525Y301861D01*
X476538Y301922D01*
X476652Y301999D01*
X476811Y302235D01*
X476866Y302515D01*
X476845Y302620D01*
X477041Y303015D01*
X477647D01*
Y307815D01*
D02*
G37*
G36*
X566200Y304348D02*
X565648D01*
X565139Y304137D01*
X564749Y303747D01*
X564538Y303238D01*
Y302686D01*
X564749Y302177D01*
X565046Y301880D01*
X564807Y301641D01*
X564596Y301132D01*
Y300581D01*
X564807Y300071D01*
X565197Y299681D01*
X565706Y299470D01*
X566257D01*
X566767Y299681D01*
X567157Y300071D01*
X567368Y300581D01*
Y301132D01*
X567157Y301641D01*
X566860Y301938D01*
X567099Y302177D01*
X567310Y302686D01*
Y303238D01*
X567099Y303747D01*
X566709Y304137D01*
X566200Y304348D01*
D02*
G37*
G36*
X514704Y299513D02*
X514153D01*
X513644Y299302D01*
X513254Y298913D01*
X513043Y298403D01*
Y297852D01*
X513254Y297343D01*
X513644Y296953D01*
X514153Y296742D01*
X514704D01*
X515214Y296953D01*
X515604Y297343D01*
X515815Y297852D01*
Y298403D01*
X515604Y298913D01*
X515214Y299302D01*
X514704Y299513D01*
D02*
G37*
G36*
X520490Y299313D02*
X519938D01*
X519429Y299102D01*
X519039Y298712D01*
X518828Y298202D01*
Y297651D01*
X519039Y297142D01*
X519429Y296752D01*
X519938Y296541D01*
X520490D01*
X520999Y296752D01*
X521282Y297035D01*
X521516Y297084D01*
X521659Y297020D01*
X521971Y296708D01*
X522480Y296497D01*
X523031D01*
X523541Y296708D01*
X523931Y297098D01*
X524142Y297607D01*
Y298159D01*
X523931Y298668D01*
X523541Y299058D01*
X523031Y299269D01*
X522480D01*
X521971Y299058D01*
X521688Y298774D01*
X521453Y298725D01*
X521311Y298790D01*
X520999Y299102D01*
X520490Y299313D01*
D02*
G37*
G36*
X497597Y299601D02*
X497045D01*
X496536Y299390D01*
X496146Y299001D01*
X495935Y298491D01*
Y297940D01*
X496146Y297430D01*
X496332Y297245D01*
X496333Y296825D01*
X496296Y296788D01*
X496085Y296278D01*
Y295727D01*
X496296Y295218D01*
X496686Y294828D01*
X497195Y294617D01*
X497746D01*
X498255Y294828D01*
X498645Y295218D01*
X498856Y295727D01*
Y296278D01*
X498645Y296788D01*
X498460Y296973D01*
X498459Y297393D01*
X498496Y297430D01*
X498707Y297940D01*
Y298491D01*
X498496Y299001D01*
X498106Y299390D01*
X497597Y299601D01*
D02*
G37*
G36*
X534768Y284576D02*
X530418Y284555D01*
X530415Y280145D01*
X531835Y280147D01*
X532047Y279935D01*
X531994Y266463D01*
X530348Y266457D01*
X530325Y261780D01*
X534897Y261773D01*
X534870Y266507D01*
X533145Y266541D01*
X533210Y280077D01*
X534755Y280069D01*
X534768Y284576D01*
D02*
G37*
G36*
X493567Y266338D02*
X493016D01*
X492507Y266127D01*
X492366Y265987D01*
X492267Y265946D01*
X492200Y265878D01*
X492145Y265829D01*
X492095Y265788D01*
X492049Y265757D01*
X492010Y265733D01*
X491976Y265717D01*
X491949Y265706D01*
X491927Y265700D01*
X491911Y265698D01*
X491868Y265695D01*
X491813Y265669D01*
X485719D01*
X485664Y265695D01*
X485621Y265698D01*
X485603Y265701D01*
X485580Y265707D01*
X485551Y265718D01*
X485515Y265735D01*
X485472Y265759D01*
X485431Y265787D01*
X485308Y265887D01*
X485242Y265949D01*
X485148Y265985D01*
X485032Y266101D01*
X484522Y266312D01*
X483971D01*
X483462Y266101D01*
X483072Y265711D01*
X482861Y265202D01*
Y264651D01*
X483072Y264141D01*
X483462Y263752D01*
X483971Y263541D01*
X484522D01*
X485032Y263752D01*
X485173Y263892D01*
X485272Y263933D01*
X485339Y264001D01*
X485394Y264050D01*
X485444Y264090D01*
X485489Y264122D01*
X485529Y264145D01*
X485562Y264162D01*
X485590Y264172D01*
X485611Y264178D01*
X485628Y264181D01*
X485671Y264183D01*
X485726Y264210D01*
X491819D01*
X491874Y264183D01*
X491918Y264181D01*
X491935Y264178D01*
X491958Y264172D01*
X491988Y264161D01*
X492024Y264144D01*
X492066Y264120D01*
X492108Y264092D01*
X492231Y263992D01*
X492296Y263930D01*
X492390Y263894D01*
X492507Y263778D01*
X493016Y263567D01*
X493567D01*
X494077Y263778D01*
X494466Y264167D01*
X494677Y264677D01*
Y265228D01*
X494466Y265737D01*
X494077Y266127D01*
X493567Y266338D01*
D02*
G37*
G36*
X460212Y268281D02*
X459660D01*
X459151Y268070D01*
X458761Y267680D01*
X458550Y267171D01*
Y266619D01*
X458761Y266110D01*
X459151Y265720D01*
X459660Y265509D01*
X460212D01*
X460721Y265720D01*
X461111Y266110D01*
X461322Y266619D01*
Y267171D01*
X461111Y267680D01*
X460721Y268070D01*
X460212Y268281D01*
D02*
G37*
G36*
X476353Y267100D02*
X475802D01*
X475293Y266889D01*
X474903Y266499D01*
X474809Y266273D01*
X474535Y265999D01*
X470455D01*
X469967Y265902D01*
X469553Y265626D01*
X469066Y265139D01*
X468089D01*
X468019Y265168D01*
X468014Y265166D01*
X468010Y265168D01*
X466010Y265137D01*
X465993Y265129D01*
X465556Y265125D01*
X463578D01*
X463390Y265088D01*
X462479D01*
X462408Y265117D01*
X462404Y265115D01*
X462399Y265117D01*
X460517Y265086D01*
X460460Y265061D01*
X459941Y264957D01*
X459906Y264934D01*
X459625Y264878D01*
X459129Y264546D01*
X458797Y264050D01*
X458681Y263465D01*
X458797Y262880D01*
X459129Y262384D01*
X459625Y262052D01*
X460054Y261967D01*
X460217Y261679D01*
X460218Y261636D01*
X460217Y261633D01*
X459631Y261516D01*
X459135Y261185D01*
X458998Y261047D01*
X458666Y260551D01*
X458550Y259966D01*
X458666Y259381D01*
X458998Y258884D01*
X459494Y258553D01*
X460079Y258436D01*
X460664Y258553D01*
X460672Y258558D01*
X462400Y258531D01*
X462404Y258533D01*
X462408Y258531D01*
X462512Y258574D01*
X463578D01*
X463835Y258625D01*
X464513D01*
X464565Y258606D01*
X464747Y258531D01*
X464758Y258536D01*
X464769Y258531D01*
X466553Y258605D01*
X468010Y258582D01*
X468014Y258584D01*
X468019Y258582D01*
X468123Y258625D01*
X470253D01*
X470357Y258582D01*
X470361Y258584D01*
X470365Y258582D01*
X472365Y258614D01*
X472393Y258625D01*
X474152D01*
X474737Y258742D01*
X475233Y259073D01*
X475316Y259156D01*
X475647Y259652D01*
X475764Y260238D01*
X475647Y260823D01*
X475316Y261319D01*
X474820Y261651D01*
X474234Y261767D01*
X473818Y261684D01*
X472388D01*
X472360Y261696D01*
X470866Y261704D01*
X470469Y261715D01*
X470425Y261719D01*
X470397Y261711D01*
X470357Y261727D01*
X470253Y261684D01*
X468342D01*
X468228Y261977D01*
X468230Y261989D01*
X468298Y262052D01*
X470869D01*
Y263337D01*
X470983Y263450D01*
X475063D01*
X475551Y263547D01*
X475964Y263824D01*
X476550Y264410D01*
X476863Y264539D01*
X477252Y264929D01*
X477463Y265438D01*
Y265989D01*
X477252Y266499D01*
X476863Y266889D01*
X476353Y267100D01*
D02*
G37*
G36*
X503440Y264669D02*
X502889D01*
X502380Y264458D01*
X501990Y264068D01*
X501779Y263559D01*
Y263007D01*
X501990Y262498D01*
X502380Y262108D01*
X502889Y261897D01*
X503440D01*
X503950Y262108D01*
X504340Y262498D01*
X504551Y263007D01*
Y263559D01*
X504340Y264068D01*
X503950Y264458D01*
X503440Y264669D01*
D02*
G37*
%LPD*%
G36*
X542700Y438625D02*
X542731Y438541D01*
X542782Y438465D01*
X542853Y438401D01*
X542944Y438345D01*
X543055Y438301D01*
X543187Y438266D01*
X543338Y438240D01*
X543476Y438229D01*
X543631Y438240D01*
X543698Y438250D01*
X543757Y438264D01*
X543808Y438279D01*
X543852Y438297D01*
X543887Y438318D01*
X543914Y438341D01*
Y437100D01*
X543887Y437123D01*
X543852Y437144D01*
X543808Y437162D01*
X543757Y437177D01*
X543698Y437190D01*
X543631Y437201D01*
X543492Y437214D01*
X543341Y437201D01*
X543191Y437177D01*
X543061Y437143D01*
X542951Y437099D01*
X542861Y437046D01*
X542791Y436983D01*
X542741Y436910D01*
X542711Y436827D01*
X542701Y436735D01*
X542689Y438721D01*
X542700Y438625D01*
D02*
G37*
G36*
X537596Y439212D02*
X537618Y439152D01*
X537653Y439100D01*
X537703Y439054D01*
X537767Y439016D01*
X537831Y438990D01*
X537838Y438993D01*
X537877Y439013D01*
X537910Y439036D01*
X537939Y439061D01*
Y438960D01*
X538045Y438942D01*
X538166Y438932D01*
X538301Y438929D01*
Y438229D01*
X538166Y438225D01*
X538045Y438214D01*
X537939Y438197D01*
Y438096D01*
X537910Y438121D01*
X537877Y438144D01*
X537838Y438164D01*
X537831Y438167D01*
X537767Y438141D01*
X537703Y438102D01*
X537653Y438057D01*
X537618Y438004D01*
X537596Y437945D01*
X537589Y437879D01*
Y438221D01*
X537568Y438223D01*
X537424Y438229D01*
Y438929D01*
X537498Y438930D01*
X537589Y438937D01*
Y439279D01*
X537596Y439212D01*
D02*
G37*
G36*
X498487Y426890D02*
X498349Y426595D01*
X498316Y426507D01*
X498267Y426347D01*
X498252Y426274D01*
X498243Y426206D01*
X498240Y426144D01*
X497809Y426009D01*
X497804Y426086D01*
X497791Y426160D01*
X497768Y426231D01*
X497737Y426299D01*
X497696Y426364D01*
X497646Y426426D01*
X497588Y426484D01*
X497520Y426539D01*
X497443Y426591D01*
X497357Y426640D01*
X498544Y426999D01*
X498487Y426890D01*
D02*
G37*
G36*
X484420Y392547D02*
X484439Y392345D01*
X484456Y392253D01*
X484479Y392168D01*
X484506Y392089D01*
X484539Y392016D01*
X484577Y391949D01*
X484620Y391889D01*
X484669Y391835D01*
X484364Y391530D01*
X484310Y391578D01*
X484249Y391622D01*
X484183Y391660D01*
X484110Y391692D01*
X484031Y391720D01*
X483946Y391742D01*
X483854Y391760D01*
X483756Y391772D01*
X483652Y391778D01*
X483542Y391780D01*
X484419Y392657D01*
X484420Y392547D01*
D02*
G37*
G36*
X483863Y387572D02*
X483881Y387371D01*
X483898Y387279D01*
X483921Y387194D01*
X483949Y387115D01*
X483981Y387042D01*
X484019Y386975D01*
X484063Y386915D01*
X484111Y386860D01*
X483806Y386556D01*
X483752Y386604D01*
X483692Y386648D01*
X483625Y386686D01*
X483552Y386718D01*
X483473Y386746D01*
X483388Y386768D01*
X483296Y386786D01*
X483198Y386797D01*
X483095Y386804D01*
X482984Y386806D01*
X483861Y387683D01*
X483863Y387572D01*
D02*
G37*
G36*
X483872Y362083D02*
X483807Y362099D01*
X483743Y362107D01*
X483682Y362110D01*
X483622Y362106D01*
X483565Y362095D01*
X483509Y362078D01*
X483456Y362054D01*
X483404Y362024D01*
X483355Y361987D01*
X483307Y361944D01*
X483088Y362336D01*
X483128Y362379D01*
X483166Y362425D01*
X483202Y362475D01*
X483236Y362528D01*
X483267Y362585D01*
X483297Y362645D01*
X483349Y362776D01*
X483372Y362846D01*
X483393Y362920D01*
X483872Y362083D01*
D02*
G37*
G36*
X478662Y362528D02*
X478716Y362483D01*
X478771Y362443D01*
X478827Y362408D01*
X478884Y362379D01*
X478942Y362355D01*
X479001Y362337D01*
X479061Y362323D01*
X479122Y362315D01*
X479185Y362313D01*
Y361881D01*
X479122Y361878D01*
X479061Y361870D01*
X479001Y361857D01*
X478942Y361838D01*
X478884Y361814D01*
X478827Y361785D01*
X478771Y361750D01*
X478716Y361710D01*
X478662Y361665D01*
X478609Y361614D01*
Y362579D01*
X478662Y362528D01*
D02*
G37*
G36*
X487696Y360585D02*
X487704Y360524D01*
X487717Y360464D01*
X487736Y360405D01*
X487760Y360347D01*
X487789Y360290D01*
X487824Y360234D01*
X487864Y360179D01*
X487909Y360125D01*
X487960Y360072D01*
X486995D01*
X487046Y360125D01*
X487091Y360179D01*
X487131Y360234D01*
X487166Y360290D01*
X487195Y360347D01*
X487219Y360405D01*
X487238Y360464D01*
X487251Y360524D01*
X487259Y360585D01*
X487262Y360648D01*
X487693D01*
X487696Y360585D01*
D02*
G37*
G36*
X486869Y358360D02*
X486918Y358322D01*
X486971Y358289D01*
X487026Y358261D01*
X487084Y358237D01*
X487145Y358217D01*
X487209Y358202D01*
X487276Y358192D01*
X487346Y358186D01*
X487419Y358185D01*
X486740Y357500D01*
X486738Y357574D01*
X486732Y357644D01*
X486721Y357711D01*
X486706Y357775D01*
X486686Y357836D01*
X486662Y357894D01*
X486633Y357949D01*
X486600Y358001D01*
X486562Y358050D01*
X486520Y358096D01*
X486824Y358402D01*
X486869Y358360D01*
D02*
G37*
G36*
X532224Y410751D02*
X532147Y410750D01*
X532073Y410744D01*
X532003Y410734D01*
X531937Y410719D01*
X531874Y410700D01*
X531815Y410677D01*
X531759Y410649D01*
X531707Y410617D01*
X531659Y410581D01*
X531614Y410540D01*
X531331Y410823D01*
X531372Y410868D01*
X531408Y410916D01*
X531440Y410968D01*
X531468Y411024D01*
X531491Y411083D01*
X531510Y411146D01*
X531525Y411212D01*
X531535Y411282D01*
X531540Y411356D01*
X531542Y411433D01*
X532224Y410751D01*
D02*
G37*
G36*
X501944Y396579D02*
X501816Y396449D01*
X501321Y395890D01*
X501284Y395834D01*
X501261Y395788D01*
X501250Y395753D01*
X500412Y396591D01*
X500447Y396602D01*
X500493Y396625D01*
X500549Y396662D01*
X500616Y396712D01*
X500781Y396850D01*
X501108Y397157D01*
X501237Y397286D01*
X501944Y396579D01*
D02*
G37*
G36*
X501256Y393494D02*
X499756D01*
X499703Y394994D01*
X502006D01*
X501256Y393494D01*
D02*
G37*
G36*
X499191Y397829D02*
Y395065D01*
X499162Y394994D01*
X499166Y394985D01*
X499162Y394975D01*
X499215Y393475D01*
X499232Y393439D01*
Y393117D01*
X498932Y393010D01*
X498700Y393242D01*
X498299Y393408D01*
X497865D01*
X497465Y393242D01*
X497382Y393160D01*
X497289Y393124D01*
X497265Y393101D01*
X497257Y393094D01*
X497250Y393090D01*
X497244Y393087D01*
X497238Y393084D01*
X497231Y393081D01*
X497223Y393079D01*
X497212Y393077D01*
X497197Y393075D01*
X497160Y393074D01*
X497101Y393047D01*
X492829D01*
X492637Y393009D01*
X492501Y393066D01*
X492067D01*
X491803Y392956D01*
X491503Y393128D01*
Y394399D01*
X494357Y397254D01*
X497928D01*
X498201Y397308D01*
X498432Y397463D01*
X498914Y397944D01*
X499191Y397829D01*
D02*
G37*
G36*
X497661Y391904D02*
X497621Y391941D01*
X497579Y391975D01*
X497536Y392005D01*
X497491Y392030D01*
X497443Y392052D01*
X497394Y392070D01*
X497343Y392084D01*
X497290Y392093D01*
X497235Y392099D01*
X497179Y392101D01*
Y392533D01*
X497235Y392535D01*
X497290Y392541D01*
X497343Y392551D01*
X497394Y392565D01*
X497443Y392583D01*
X497491Y392604D01*
X497536Y392630D01*
X497579Y392660D01*
X497621Y392693D01*
X497661Y392731D01*
Y391904D01*
D02*
G37*
G36*
X498015Y389438D02*
X497968Y389465D01*
X497920Y389489D01*
X497871Y389511D01*
X497821Y389530D01*
X497769Y389546D01*
X497718Y389559D01*
X497665Y389569D01*
X497611Y389576D01*
X497557Y389580D01*
X497501Y389582D01*
X497384Y390014D01*
X497442Y390016D01*
X497497Y390023D01*
X497548Y390034D01*
X497596Y390050D01*
X497641Y390070D01*
X497682Y390095D01*
X497720Y390124D01*
X497755Y390158D01*
X497787Y390197D01*
X497815Y390240D01*
X498015Y389438D01*
D02*
G37*
G36*
X498080Y386927D02*
X498294Y386885D01*
X498248Y386849D01*
X498207Y386806D01*
X498171Y386754D01*
X498140Y386694D01*
X498113Y386627D01*
X498096Y386567D01*
X498097Y386554D01*
X498092D01*
X498091Y386551D01*
X498074Y386467D01*
X498062Y386376D01*
X498055Y386276D01*
X498053Y386169D01*
X497053Y386398D01*
X497051Y386507D01*
X497048Y386554D01*
X496578D01*
X496668Y386564D01*
X496749Y386593D01*
X496820Y386642D01*
X496882Y386710D01*
X496934Y386798D01*
X496977Y386905D01*
X496995Y386974D01*
X496988Y387004D01*
X496968Y387061D01*
X496945Y387111D01*
X496920Y387153D01*
X497026Y387133D01*
X497034Y387178D01*
X497048Y387344D01*
X497053Y387529D01*
X498053D01*
X498080Y386927D01*
D02*
G37*
G36*
X501259Y387769D02*
X501301Y387094D01*
X501327Y386929D01*
X501358Y386794D01*
X501394Y386689D01*
X501436Y386614D01*
X501484Y386569D01*
X501538Y386554D01*
X499475D01*
X499528Y386569D01*
X499576Y386614D01*
X499618Y386689D01*
X499655Y386794D01*
X499686Y386929D01*
X499711Y387094D01*
X499745Y387514D01*
X499756Y388054D01*
X501256D01*
X501259Y387769D01*
D02*
G37*
G36*
X529373Y384744D02*
X528373D01*
X527873Y385744D01*
X529873D01*
X529373Y384744D01*
D02*
G37*
G36*
X501256Y382716D02*
X499756D01*
X499475Y384216D01*
X501538D01*
X501256Y382716D01*
D02*
G37*
G36*
X497815D02*
X496315D01*
X496034Y384216D01*
X498097D01*
X497815Y382716D01*
D02*
G37*
G36*
X501259Y381972D02*
X501301Y381297D01*
X501327Y381132D01*
X501358Y380997D01*
X501394Y380892D01*
X501436Y380817D01*
X501484Y380772D01*
X501538Y380757D01*
X499475D01*
X499528Y380772D01*
X499576Y380817D01*
X499618Y380892D01*
X499655Y380997D01*
X499686Y381132D01*
X499711Y381297D01*
X499745Y381717D01*
X499756Y382257D01*
X501256D01*
X501259Y381972D01*
D02*
G37*
G36*
X497818D02*
X497860Y381297D01*
X497886Y381132D01*
X497917Y380997D01*
X497953Y380892D01*
X497995Y380817D01*
X498043Y380772D01*
X498097Y380757D01*
X496034D01*
X496088Y380772D01*
X496135Y380817D01*
X496177Y380892D01*
X496214Y380997D01*
X496245Y381132D01*
X496270Y381297D01*
X496304Y381717D01*
X496315Y382257D01*
X497815D01*
X497818Y381972D01*
D02*
G37*
G36*
X528914Y379782D02*
X527914Y380277D01*
Y381277D01*
X528914Y381777D01*
Y379782D01*
D02*
G37*
G36*
X525671Y381682D02*
X525702Y381597D01*
X525752Y381522D01*
X525823Y381457D01*
X525914Y381402D01*
X526025Y381357D01*
X526157Y381322D01*
X526309Y381297D01*
X526481Y381282D01*
X526673Y381277D01*
Y380277D01*
X526481Y380272D01*
X526309Y380257D01*
X526157Y380232D01*
X526025Y380197D01*
X525914Y380152D01*
X525823Y380097D01*
X525752Y380032D01*
X525702Y379957D01*
X525671Y379872D01*
X525661Y379777D01*
Y381777D01*
X525671Y381682D01*
D02*
G37*
G36*
X524730Y379757D02*
X523316Y379049D01*
X522628Y379776D01*
X522825Y379980D01*
X523135Y380346D01*
X523248Y380509D01*
X523333Y380657D01*
X523389Y380792D01*
X523418Y380912D01*
X523418Y381019D01*
X523391Y381111D01*
X523335Y381190D01*
X524730Y379757D01*
D02*
G37*
G36*
X501534Y379749D02*
X501557Y379704D01*
X501596Y379665D01*
X501651Y379631D01*
X501720Y379602D01*
X501806Y379578D01*
X501906Y379560D01*
X502022Y379546D01*
X502154Y379539D01*
X502300Y379536D01*
Y378536D01*
X502155Y378535D01*
X501728Y378507D01*
X501660Y378494D01*
X501606Y378478D01*
X501568Y378461D01*
X501545Y378441D01*
X501538Y378418D01*
X501526Y379799D01*
X501534Y379749D01*
D02*
G37*
G36*
X514166Y377145D02*
X514182Y377136D01*
X514204Y377127D01*
X514231Y377119D01*
X514263Y377111D01*
X514342Y377097D01*
X514498Y377076D01*
X513948Y376526D01*
X513942Y376584D01*
X513905Y376794D01*
X513897Y376820D01*
X513889Y376842D01*
X513880Y376859D01*
X513871Y376871D01*
X514154Y377153D01*
X514166Y377145D01*
D02*
G37*
G36*
X518439Y377640D02*
X518507Y377613D01*
X518588Y377589D01*
X518684Y377569D01*
X518794Y377552D01*
X519055Y377526D01*
X519372Y377514D01*
X519551Y377512D01*
Y376512D01*
X519372Y376511D01*
X518794Y376473D01*
X518684Y376455D01*
X518588Y376435D01*
X518507Y376411D01*
X518439Y376384D01*
X518385Y376354D01*
Y377670D01*
X518439Y377640D01*
D02*
G37*
G36*
X528914Y376341D02*
X527914Y376836D01*
Y377836D01*
X528914Y378336D01*
Y376341D01*
D02*
G37*
G36*
X525671Y378241D02*
X525702Y378156D01*
X525752Y378081D01*
X525823Y378016D01*
X525914Y377961D01*
X526025Y377916D01*
X526157Y377881D01*
X526309Y377856D01*
X526481Y377841D01*
X526673Y377836D01*
Y376836D01*
X526481Y376831D01*
X526309Y376816D01*
X526157Y376791D01*
X526025Y376756D01*
X525914Y376711D01*
X525823Y376656D01*
X525752Y376591D01*
X525702Y376516D01*
X525671Y376431D01*
X525661Y376336D01*
Y378336D01*
X525671Y378241D01*
D02*
G37*
G36*
X511831Y376855D02*
X511832Y376756D01*
X511848Y376508D01*
X511859Y376441D01*
X511871Y376382D01*
X511887Y376330D01*
X511904Y376287D01*
X511925Y376252D01*
X511947Y376224D01*
X510707Y376232D01*
X510730Y376259D01*
X510751Y376294D01*
X510769Y376337D01*
X510785Y376388D01*
X510799Y376447D01*
X510810Y376514D01*
X510825Y376672D01*
X510831Y376861D01*
X511831Y376855D01*
D02*
G37*
G36*
X515041Y376495D02*
X515021Y376436D01*
X515004Y376361D01*
X514988Y376271D01*
X514965Y376043D01*
X514962Y375993D01*
X514966Y375951D01*
X514991Y375794D01*
X515026Y375659D01*
X515071Y375547D01*
X515126Y375457D01*
X515191Y375389D01*
X515266Y375344D01*
X515351Y375321D01*
X515446Y375321D01*
X513453Y375105D01*
X513547Y375127D01*
X513631Y375170D01*
X513704Y375236D01*
X513768Y375324D01*
X513823Y375434D01*
X513851Y375519D01*
X513446Y376341D01*
X515064Y376538D01*
X515041Y376495D01*
D02*
G37*
G36*
X506640Y375087D02*
X506040D01*
X505938Y375618D01*
X506800D01*
X506640Y375087D01*
D02*
G37*
G36*
X514952Y374149D02*
X514973Y374092D01*
X515006Y374026D01*
X515053Y373951D01*
X515114Y373866D01*
X515275Y373670D01*
X515490Y373437D01*
X515618Y373307D01*
X515335Y373025D01*
X515205Y373152D01*
X514777Y373529D01*
X514692Y373589D01*
X514617Y373637D01*
X514551Y373670D01*
X514493Y373690D01*
X514445Y373697D01*
X514946Y374197D01*
X514952Y374149D01*
D02*
G37*
G36*
X515906Y372737D02*
X515862Y372690D01*
X515821Y372641D01*
X515784Y372590D01*
X515751Y372537D01*
X515721Y372482D01*
X515696Y372425D01*
X515673Y372366D01*
X515655Y372305D01*
X515640Y372242D01*
X515629Y372178D01*
X515064Y372743D01*
X515129Y372754D01*
X515192Y372769D01*
X515252Y372787D01*
X515311Y372809D01*
X515368Y372835D01*
X515423Y372865D01*
X515476Y372898D01*
X515527Y372935D01*
X515576Y372975D01*
X515623Y373020D01*
X515906Y372737D01*
D02*
G37*
G36*
X516265Y369424D02*
X515265D01*
X514765Y370436D01*
X516765D01*
X516265Y369424D01*
D02*
G37*
G36*
X515555Y366667D02*
X515657Y366580D01*
X515705Y366544D01*
X515752Y366514D01*
X515797Y366490D01*
X515840Y366471D01*
X515881Y366458D01*
X515921Y366450D01*
X515959Y366448D01*
X515277Y365766D01*
X515274Y365804D01*
X515266Y365843D01*
X515253Y365885D01*
X515234Y365928D01*
X515210Y365973D01*
X515180Y366019D01*
X515145Y366068D01*
X515104Y366118D01*
X515006Y366223D01*
X515501Y366718D01*
X515555Y366667D01*
D02*
G37*
G36*
X511260Y365198D02*
X511231Y365172D01*
X511204Y365139D01*
X511181Y365097D01*
X511161Y365048D01*
X511144Y364990D01*
X511131Y364924D01*
X511120Y364850D01*
X511108Y364679D01*
X511106Y364580D01*
X510106Y364789D01*
X510106Y364889D01*
X510081Y365260D01*
X510072Y365309D01*
X510062Y365349D01*
X510050Y365381D01*
X510037Y365404D01*
X511260Y365198D01*
D02*
G37*
G36*
X510020Y363700D02*
Y363300D01*
X509055Y364100D01*
X509211Y364105D01*
X509361Y364119D01*
X509505Y364142D01*
X509642Y364175D01*
X509772Y364217D01*
X509895Y364269D01*
X510012Y364330D01*
X510123Y364400D01*
X510226Y364479D01*
X510323Y364568D01*
X510020Y363700D01*
D02*
G37*
G36*
X518115Y361587D02*
X517577Y361401D01*
X517223Y361755D01*
X517585Y362100D01*
X518115Y361587D01*
D02*
G37*
G36*
X520600Y361815D02*
X520662Y361769D01*
X520729Y361728D01*
X520801Y361693D01*
X520878Y361664D01*
X520959Y361639D01*
X521046Y361621D01*
X521137Y361608D01*
X521233Y361601D01*
X521334Y361599D01*
X520458Y360722D01*
X520456Y360823D01*
X520448Y360920D01*
X520436Y361011D01*
X520417Y361098D01*
X520393Y361179D01*
X520364Y361256D01*
X520329Y361328D01*
X520288Y361394D01*
X520242Y361456D01*
X520190Y361513D01*
X520543Y361867D01*
X520600Y361815D01*
D02*
G37*
G36*
X508046Y361573D02*
X508069Y361532D01*
X508107Y361496D01*
X508160Y361464D01*
X508228Y361438D01*
X508311Y361416D01*
X508410Y361399D01*
X508524Y361387D01*
X508797Y361377D01*
Y360877D01*
X508653Y360875D01*
X508410Y360856D01*
X508311Y360839D01*
X508228Y360817D01*
X508160Y360790D01*
X508107Y360759D01*
X508069Y360723D01*
X508046Y360682D01*
X508038Y360636D01*
Y361619D01*
X508046Y361573D01*
D02*
G37*
G36*
X493826Y347685D02*
X493834Y347625D01*
X493849Y347566D01*
X493868Y347507D01*
X493894Y347449D01*
X493925Y347391D01*
X493961Y347334D01*
X494004Y347277D01*
X494052Y347221D01*
X494105Y347165D01*
X493141D01*
X493194Y347221D01*
X493243Y347277D01*
X493285Y347334D01*
X493322Y347391D01*
X493353Y347449D01*
X493378Y347507D01*
X493398Y347566D01*
X493412Y347625D01*
X493420Y347685D01*
X493423Y347746D01*
X493823D01*
X493826Y347685D01*
D02*
G37*
G36*
X531263Y378310D02*
X531293Y378227D01*
X531343Y378153D01*
X531413Y378089D01*
X531503Y378035D01*
X531613Y377991D01*
X531743Y377956D01*
X531868Y377936D01*
X531934Y377948D01*
X532012Y377969D01*
X532082Y377994D01*
X532144Y378023D01*
X532198Y378057D01*
X532245Y378095D01*
X532285Y378138D01*
X532434Y376746D01*
X532390Y376778D01*
X532339Y376806D01*
X532281Y376831D01*
X532216Y376852D01*
X532143Y376871D01*
X532064Y376886D01*
X531954Y376898D01*
X531889Y376892D01*
X531738Y376867D01*
X531606Y376832D01*
X531495Y376787D01*
X531404Y376732D01*
X531333Y376667D01*
X531282Y376592D01*
X531251Y376507D01*
X531241Y376412D01*
X531253Y378404D01*
X531263Y378310D01*
D02*
G37*
G36*
X497867Y376919D02*
X496367D01*
X496034Y378418D01*
X498097D01*
X497867Y376919D01*
D02*
G37*
G36*
X550849Y369524D02*
X549349D01*
X549038Y371024D01*
X551100D01*
X550849Y369524D01*
D02*
G37*
G36*
X550852Y369130D02*
X550894Y368455D01*
X550920Y368290D01*
X550951Y368155D01*
X550987Y368050D01*
X551029Y367975D01*
X551077Y367930D01*
X551131Y367915D01*
X549068D01*
X549122Y367930D01*
X549169Y367975D01*
X549212Y368050D01*
X549248Y368155D01*
X549279Y368290D01*
X549304Y368455D01*
X549338Y368875D01*
X549349Y369415D01*
X550849D01*
X550852Y369130D01*
D02*
G37*
G36*
X549068Y365577D02*
X547568Y365987D01*
Y367487D01*
X549068Y367915D01*
Y365577D01*
D02*
G37*
G36*
X478656Y358347D02*
X478601Y358302D01*
X478553Y358254D01*
X478510Y358205D01*
X478472Y358154D01*
X478441Y358100D01*
X478415Y358045D01*
X478395Y357987D01*
X478381Y357928D01*
X478372Y357866D01*
X478369Y357803D01*
X477938Y357857D01*
X477936Y357917D01*
X477929Y357978D01*
X477917Y358039D01*
X477900Y358099D01*
X477878Y358160D01*
X477852Y358220D01*
X477820Y358280D01*
X477784Y358340D01*
X477743Y358400D01*
X477698Y358460D01*
X478656Y358347D01*
D02*
G37*
G36*
X484821Y347462D02*
X484779Y347517D01*
X484733Y347567D01*
X484686Y347610D01*
X484636Y347648D01*
X484584Y347680D01*
X484530Y347707D01*
X484473Y347727D01*
X484414Y347742D01*
X484352Y347750D01*
X484289Y347753D01*
X484360Y348184D01*
X484420Y348186D01*
X484481Y348193D01*
X484541Y348205D01*
X484602Y348221D01*
X484663Y348242D01*
X484724Y348267D01*
X484786Y348297D01*
X484847Y348332D01*
X484909Y348371D01*
X484971Y348415D01*
X484821Y347462D01*
D02*
G37*
G36*
X531428Y360810D02*
X531462Y360409D01*
X531491Y360246D01*
X531529Y360108D01*
X531575Y359995D01*
X531630Y359907D01*
X531693Y359844D01*
X531764Y359806D01*
X531843Y359794D01*
X529505D01*
X529585Y359806D01*
X529656Y359844D01*
X529719Y359907D01*
X529773Y359995D01*
X529819Y360108D01*
X529857Y360246D01*
X529887Y360409D01*
X529908Y360597D01*
X529924Y361049D01*
X531424D01*
X531428Y360810D01*
D02*
G37*
G36*
X532924Y358525D02*
X532719Y358521D01*
X532373Y358495D01*
X532233Y358472D01*
X532114Y358442D01*
X532016Y358405D01*
X531941Y358363D01*
X531887Y358313D01*
X531854Y358257D01*
X531843Y358194D01*
Y359794D01*
X532924Y360025D01*
Y358525D01*
D02*
G37*
G36*
X534852Y359765D02*
X534864Y357887D01*
X534848Y358029D01*
X534802Y358157D01*
X534726Y358269D01*
X534620Y358367D01*
X534483Y358449D01*
X534317Y358517D01*
X534121Y358569D01*
X533895Y358607D01*
X533638Y358629D01*
X533352Y358637D01*
Y360137D01*
X534852Y359765D01*
D02*
G37*
G36*
X554010Y375761D02*
X553010D01*
X552510Y376761D01*
X554510D01*
X554010Y375761D01*
D02*
G37*
G36*
X554015Y374172D02*
X554030Y374002D01*
X554055Y373852D01*
X554090Y373722D01*
X554135Y373612D01*
X554190Y373522D01*
X554255Y373452D01*
X554330Y373402D01*
X554415Y373372D01*
X554510Y373362D01*
X552510D01*
X552605Y373372D01*
X552690Y373402D01*
X552765Y373452D01*
X552830Y373522D01*
X552885Y373612D01*
X552930Y373722D01*
X552965Y373852D01*
X552990Y374002D01*
X553005Y374172D01*
X553010Y374362D01*
X554010D01*
X554015Y374172D01*
D02*
G37*
G36*
X554290Y369524D02*
X552790D01*
X552479Y371024D01*
X554541D01*
X554290Y369524D01*
D02*
G37*
G36*
X554293Y369130D02*
X554335Y368455D01*
X554361Y368290D01*
X554392Y368155D01*
X554428Y368050D01*
X554470Y367975D01*
X554518Y367930D01*
X554572Y367915D01*
X552509D01*
X552563Y367930D01*
X552610Y367975D01*
X552653Y368050D01*
X552689Y368155D01*
X552720Y368290D01*
X552745Y368455D01*
X552779Y368875D01*
X552790Y369415D01*
X554290D01*
X554293Y369130D01*
D02*
G37*
G36*
X551678Y361476D02*
X549899Y361464D01*
X549945Y361474D01*
X549986Y361505D01*
X550022Y361555D01*
X550054Y361626D01*
X550081Y361716D01*
X550103Y361826D01*
X550119Y361957D01*
X550139Y362278D01*
X550141Y362468D01*
X551641D01*
X551678Y361476D01*
D02*
G37*
G36*
X545125Y355594D02*
X544418Y355241D01*
X544065Y355594D01*
X544418Y356302D01*
X545125Y355594D01*
D02*
G37*
G36*
X538094Y354638D02*
X538066Y354662D01*
X538031Y354683D01*
X537988Y354703D01*
X537937Y354719D01*
X537878Y354733D01*
X537811Y354745D01*
X537653Y354760D01*
X537563Y354764D01*
X537465Y354765D01*
X537502Y355765D01*
X537601Y355766D01*
X537850Y355783D01*
X537917Y355793D01*
X537976Y355805D01*
X538027Y355820D01*
X538070Y355837D01*
X538105Y355856D01*
X538132Y355877D01*
X538094Y354638D01*
D02*
G37*
G36*
X534864Y354322D02*
X533852Y354822D01*
Y355822D01*
X534864Y356322D01*
Y354322D01*
D02*
G37*
G36*
X531853Y356227D02*
X531883Y356142D01*
X531933Y356067D01*
X532003Y356002D01*
X532093Y355947D01*
X532203Y355902D01*
X532333Y355867D01*
X532483Y355842D01*
X532653Y355827D01*
X532843Y355822D01*
Y354822D01*
X532653Y354817D01*
X532483Y354802D01*
X532333Y354777D01*
X532203Y354742D01*
X532093Y354697D01*
X532003Y354642D01*
X531933Y354577D01*
X531883Y354502D01*
X531853Y354417D01*
X531843Y354322D01*
Y356322D01*
X531853Y356227D01*
D02*
G37*
G36*
X531005Y354292D02*
X530920Y354261D01*
X530845Y354210D01*
X530780Y354139D01*
X530725Y354048D01*
X530680Y353936D01*
X530645Y353805D01*
X530620Y353654D01*
X530605Y353482D01*
X530600Y353290D01*
X529600D01*
X529599Y353480D01*
X529554Y354200D01*
X529539Y354250D01*
X529523Y354280D01*
X529505Y354290D01*
X531100Y354302D01*
X531005Y354292D01*
D02*
G37*
G36*
X525727Y350973D02*
X525764Y350945D01*
X525803Y350921D01*
X525845Y350900D01*
X525890Y350882D01*
X525939Y350867D01*
X525990Y350856D01*
X526044Y350847D01*
X526101Y350842D01*
X526161Y350841D01*
Y350341D01*
X526101Y350339D01*
X526044Y350334D01*
X525990Y350326D01*
X525939Y350315D01*
X525890Y350300D01*
X525845Y350282D01*
X525803Y350261D01*
X525764Y350236D01*
X525727Y350208D01*
X525694Y350178D01*
Y351004D01*
X525727Y350973D01*
D02*
G37*
G36*
X544975Y344885D02*
X545209D01*
X545055Y344569D01*
X545069Y344538D01*
X545112Y344463D01*
X545162Y344388D01*
X545219Y344312D01*
X545285Y344237D01*
X545358Y344161D01*
X544118D01*
X544191Y344237D01*
X544256Y344312D01*
X544314Y344388D01*
X544364Y344463D01*
X544406Y344538D01*
X544420Y344569D01*
X544267Y344885D01*
X544501D01*
X544502Y344914D01*
X544973D01*
X544975Y344885D01*
D02*
G37*
G36*
X555271Y341038D02*
X555189Y341119D01*
X555097Y341191D01*
X554994Y341255D01*
X554880Y341310D01*
X554756Y341357D01*
X554622Y341395D01*
X554477Y341425D01*
X554321Y341446D01*
X554155Y341459D01*
X553978Y341463D01*
X553766Y342463D01*
X553942Y342468D01*
X554104Y342484D01*
X554252Y342511D01*
X554384Y342549D01*
X554502Y342597D01*
X554605Y342655D01*
X554693Y342725D01*
X554767Y342805D01*
X554825Y342896D01*
X554870Y342998D01*
X555271Y341038D01*
D02*
G37*
G36*
X516343Y339173D02*
X516385Y339123D01*
X516429Y339078D01*
X516476Y339039D01*
X516526Y339006D01*
X516578Y338980D01*
X516634Y338959D01*
X516692Y338944D01*
X516754Y338935D01*
X516818Y338932D01*
X516715Y338501D01*
X516656Y338499D01*
X516596Y338492D01*
X516536Y338482D01*
X516474Y338467D01*
X516412Y338448D01*
X516350Y338425D01*
X516287Y338397D01*
X516158Y338329D01*
X516093Y338289D01*
X516305Y339230D01*
X516343Y339173D01*
D02*
G37*
G36*
X523459Y337975D02*
X523509Y337937D01*
X523561Y337906D01*
X523615Y337881D01*
X523672Y337862D01*
X523731Y337849D01*
X523792Y337842D01*
X523856Y337841D01*
X523922Y337846D01*
X523990Y337857D01*
X523449Y337058D01*
X523434Y337133D01*
X523395Y337272D01*
X523371Y337336D01*
X523344Y337397D01*
X523315Y337455D01*
X523283Y337509D01*
X523247Y337560D01*
X523210Y337607D01*
X523169Y337651D01*
X523412Y338018D01*
X523459Y337975D01*
D02*
G37*
G36*
X527393Y335867D02*
X527269Y335702D01*
X527218Y335622D01*
X527175Y335543D01*
X527140Y335466D01*
X527113Y335390D01*
X527094Y335316D01*
X527082Y335243D01*
X527078Y335172D01*
X526647Y335147D01*
X526643Y335221D01*
X526630Y335295D01*
X526609Y335368D01*
X526580Y335442D01*
X526543Y335515D01*
X526497Y335589D01*
X526442Y335662D01*
X526380Y335736D01*
X526309Y335809D01*
X526229Y335882D01*
X527467Y335952D01*
X527393Y335867D01*
D02*
G37*
G36*
X545079Y335796D02*
X544972Y335681D01*
X544876Y335563D01*
X544791Y335443D01*
X544717Y335320D01*
X544655Y335193D01*
X544604Y335064D01*
X544565Y334932D01*
X544536Y334797D01*
X544519Y334659D01*
X544514Y334518D01*
X543514D01*
X543509Y334590D01*
X543496Y334654D01*
X543475Y334711D01*
X543444Y334760D01*
X543405Y334801D01*
X543357Y334835D01*
X543301Y334862D01*
X543236Y334880D01*
X543162Y334892D01*
X543080Y334896D01*
Y335696D01*
X543231Y335701D01*
X543379Y335718D01*
X543522Y335747D01*
X543662Y335786D01*
X543797Y335837D01*
X543929Y335899D01*
X544056Y335973D01*
X544179Y336058D01*
X544299Y336154D01*
X544414Y336261D01*
X545079Y335796D01*
D02*
G37*
G36*
X531045Y329014D02*
X530916Y328859D01*
X530864Y328782D01*
X530819Y328706D01*
X530783Y328630D01*
X530758Y328565D01*
X530772Y328529D01*
X530796Y328489D01*
X530824Y328458D01*
X530856Y328436D01*
X530893Y328423D01*
X530934Y328418D01*
X530724D01*
X530722Y328408D01*
X530718Y328335D01*
X530286D01*
X530282Y328408D01*
X530280Y328418D01*
X530070D01*
X530111Y328423D01*
X530148Y328436D01*
X530180Y328458D01*
X530208Y328489D01*
X530232Y328529D01*
X530246Y328565D01*
X530221Y328630D01*
X530185Y328706D01*
X530140Y328782D01*
X530088Y328859D01*
X530027Y328936D01*
X529959Y329014D01*
X529882Y329093D01*
X531122D01*
X531045Y329014D01*
D02*
G37*
G36*
X532610Y315987D02*
X532202Y315176D01*
X532215Y315220D01*
X532216Y315271D01*
X532203Y315329D01*
X532177Y315395D01*
X532138Y315468D01*
X532086Y315547D01*
X532021Y315634D01*
X531850Y315829D01*
X531745Y315937D01*
X532000Y316292D01*
X532610Y315987D01*
D02*
G37*
G36*
X555732Y314333D02*
X555630Y314363D01*
X555520Y314371D01*
X555400Y314355D01*
X555272Y314318D01*
X555135Y314257D01*
X554989Y314174D01*
X554835Y314068D01*
X554671Y313939D01*
X554499Y313788D01*
X554318Y313614D01*
X553050Y313760D01*
X553274Y313991D01*
X553621Y314394D01*
X553744Y314565D01*
X553832Y314716D01*
X553888Y314848D01*
X553909Y314959D01*
X553896Y315051D01*
X553849Y315123D01*
X553769Y315174D01*
X555732Y314333D01*
D02*
G37*
G36*
X542690Y312434D02*
X541689Y312934D01*
Y313934D01*
X542690Y314118D01*
Y312434D01*
D02*
G37*
G36*
X539459Y314339D02*
X539490Y314254D01*
X539540Y314179D01*
X539611Y314114D01*
X539702Y314059D01*
X539814Y314014D01*
X539945Y313979D01*
X540097Y313954D01*
X540269Y313939D01*
X540461Y313934D01*
Y312934D01*
X540269Y312929D01*
X540097Y312914D01*
X539945Y312889D01*
X539814Y312854D01*
X539702Y312809D01*
X539611Y312754D01*
X539540Y312689D01*
X539490Y312614D01*
X539459Y312529D01*
X539449Y312434D01*
Y314434D01*
X539459Y314339D01*
D02*
G37*
G36*
X550295Y314006D02*
X550325Y313921D01*
X550376Y313846D01*
X550447Y313781D01*
X550538Y313726D01*
X550649Y313681D01*
X550781Y313646D01*
X550933Y313621D01*
X551105Y313606D01*
X551297Y313601D01*
Y312601D01*
X551105Y312596D01*
X550933Y312581D01*
X550781Y312556D01*
X550649Y312521D01*
X550538Y312476D01*
X550447Y312421D01*
X550376Y312356D01*
X550325Y312281D01*
X550295Y312196D01*
X550285Y312101D01*
Y314101D01*
X550295Y314006D01*
D02*
G37*
G36*
X547959Y312087D02*
X546959Y312587D01*
Y313587D01*
X547959Y314087D01*
Y312087D01*
D02*
G37*
G36*
X545026Y313992D02*
X545056Y313907D01*
X545107Y313832D01*
X545178Y313767D01*
X545269Y313712D01*
X545380Y313667D01*
X545511Y313632D01*
X545663Y313607D01*
X545835Y313592D01*
X546028Y313587D01*
Y312587D01*
X545835Y312582D01*
X545663Y312567D01*
X545511Y312542D01*
X545380Y312507D01*
X545269Y312462D01*
X545178Y312407D01*
X545107Y312342D01*
X545056Y312267D01*
X545026Y312182D01*
X545016Y312087D01*
Y314087D01*
X545026Y313992D01*
D02*
G37*
G36*
X467226Y366041D02*
X467116Y366039D01*
X466914Y366020D01*
X466823Y366003D01*
X466737Y365981D01*
X466658Y365953D01*
X466585Y365920D01*
X466519Y365882D01*
X466458Y365839D01*
X466404Y365791D01*
X466099Y366095D01*
X466148Y366150D01*
X466191Y366210D01*
X466229Y366277D01*
X466262Y366350D01*
X466289Y366429D01*
X466312Y366514D01*
X466329Y366606D01*
X466341Y366703D01*
X466348Y366807D01*
X466349Y366917D01*
X467226Y366041D01*
D02*
G37*
G36*
X462315Y353928D02*
X462335Y353689D01*
X462353Y353582D01*
X462377Y353482D01*
X462406Y353391D01*
X462441Y353308D01*
X462482Y353233D01*
X462529Y353166D01*
X462580Y353107D01*
X462276Y352803D01*
X462217Y352855D01*
X462150Y352901D01*
X462075Y352942D01*
X461992Y352977D01*
X461901Y353006D01*
X461801Y353030D01*
X461694Y353049D01*
X461579Y353061D01*
X461323Y353070D01*
X462313Y354060D01*
X462315Y353928D01*
D02*
G37*
G36*
X474282Y331125D02*
X474331Y331088D01*
X474383Y331054D01*
X474438Y331026D01*
X474496Y331002D01*
X474557Y330982D01*
X474622Y330967D01*
X474689Y330957D01*
X474759Y330950D01*
X474832Y330949D01*
X474150Y330267D01*
X474149Y330340D01*
X474143Y330410D01*
X474132Y330477D01*
X474117Y330542D01*
X474097Y330603D01*
X474073Y330661D01*
X474045Y330716D01*
X474011Y330768D01*
X473974Y330817D01*
X473932Y330863D01*
X474236Y331168D01*
X474282Y331125D01*
D02*
G37*
G36*
X473526Y324157D02*
X473538Y324083D01*
X473559Y324009D01*
X473587Y323934D01*
X473624Y323859D01*
X473668Y323783D01*
X473721Y323706D01*
X473781Y323628D01*
X473850Y323550D01*
X473927Y323471D01*
X472687D01*
X472764Y323550D01*
X472893Y323706D01*
X472946Y323783D01*
X472990Y323859D01*
X473027Y323934D01*
X473055Y324009D01*
X473075Y324083D01*
X473087Y324157D01*
X473091Y324229D01*
X473522D01*
X473526Y324157D01*
D02*
G37*
G36*
X473524Y322206D02*
X473927D01*
X473850Y322127D01*
X473721Y321971D01*
X473668Y321894D01*
X473650Y321863D01*
X473660Y321856D01*
X473697Y321843D01*
X473738Y321838D01*
X473635D01*
X473624Y321818D01*
X473587Y321743D01*
X473559Y321668D01*
X473538Y321594D01*
X473526Y321520D01*
X473522Y321448D01*
X473091D01*
X473087Y321520D01*
X473075Y321594D01*
X473055Y321668D01*
X473027Y321743D01*
X472990Y321818D01*
X472978Y321838D01*
X472876D01*
X472917Y321843D01*
X472953Y321856D01*
X472964Y321863D01*
X472946Y321894D01*
X472893Y321971D01*
X472832Y322049D01*
X472764Y322127D01*
X472687Y322206D01*
X473090D01*
X473091Y322269D01*
X473522D01*
X473524Y322206D01*
D02*
G37*
G36*
X468969Y319500D02*
X466969Y319669D01*
Y321669D01*
X468969Y321838D01*
Y319500D01*
D02*
G37*
G36*
X474539Y320077D02*
X474528Y320039D01*
X474530Y319993D01*
X474543Y319942D01*
X474569Y319884D01*
X474606Y319820D01*
X474656Y319750D01*
X474719Y319673D01*
X474879Y319500D01*
X474575Y319195D01*
X473965Y319512D01*
X474563Y320110D01*
X474539Y320077D01*
D02*
G37*
G36*
X473428Y317869D02*
X473439Y317829D01*
X473457Y317786D01*
X473482Y317739D01*
X473515Y317688D01*
X473554Y317633D01*
X473655Y317511D01*
X473786Y317374D01*
X473079Y316667D01*
X473008Y316736D01*
X472820Y316899D01*
X472765Y316938D01*
X472714Y316971D01*
X472667Y316996D01*
X472623Y317014D01*
X472584Y317024D01*
X472548Y317028D01*
X473425Y317904D01*
X473428Y317869D01*
D02*
G37*
G36*
X466988Y316903D02*
X466875Y316721D01*
X466829Y316634D01*
X466758Y316471D01*
X466734Y316393D01*
X466716Y316319D01*
X466709Y316275D01*
X466710Y316264D01*
X466721Y316197D01*
X466736Y316139D01*
X466756Y316091D01*
X466779Y316051D01*
X466807Y316020D01*
X466840Y315998D01*
X466876Y315984D01*
X466917Y315980D01*
X466055D01*
X466096Y315984D01*
X466133Y315998D01*
X466165Y316020D01*
X466193Y316051D01*
X466217Y316091D01*
X466236Y316139D01*
X466251Y316197D01*
X466257Y316233D01*
X466253Y316255D01*
X466231Y316328D01*
X466201Y316399D01*
X466161Y316468D01*
X466113Y316536D01*
X466056Y316603D01*
X465990Y316668D01*
X465916Y316731D01*
X465833Y316793D01*
X467055Y316999D01*
X466988Y316903D01*
D02*
G37*
G36*
X475702Y314210D02*
X475717Y314038D01*
X475742Y313886D01*
X475777Y313755D01*
X475822Y313644D01*
X475877Y313552D01*
X475942Y313482D01*
X476017Y313431D01*
X476102Y313401D01*
X476197Y313391D01*
X474197D01*
X474292Y313401D01*
X474377Y313431D01*
X474452Y313482D01*
X474517Y313552D01*
X474572Y313644D01*
X474617Y313755D01*
X474652Y313886D01*
X474677Y314038D01*
X474692Y314210D01*
X474697Y314403D01*
X475697D01*
X475702Y314210D01*
D02*
G37*
G36*
X467779Y310962D02*
X467766Y310922D01*
Y310877D01*
X467779Y310825D01*
X467803Y310767D01*
X467839Y310703D01*
X467888Y310633D01*
X467949Y310557D01*
X468108Y310386D01*
X467803Y310081D01*
X467715Y310167D01*
X467556Y310301D01*
X467486Y310349D01*
X467422Y310386D01*
X467364Y310410D01*
X467312Y310423D01*
X467267D01*
X467227Y310410D01*
X467193Y310386D01*
X467803Y310996D01*
X467779Y310962D01*
D02*
G37*
G36*
X469012Y309488D02*
X469074Y309445D01*
X469140Y309411D01*
X469211Y309385D01*
X469285Y309368D01*
X469364Y309359D01*
X469447Y309359D01*
X469534Y309367D01*
X469626Y309384D01*
X469721Y309410D01*
X469128Y308321D01*
X469093Y308438D01*
X468984Y308744D01*
X468945Y308830D01*
X468867Y308979D01*
X468826Y309041D01*
X468785Y309095D01*
X468742Y309142D01*
X468954Y309540D01*
X469012Y309488D01*
D02*
G37*
G36*
X495033Y286262D02*
X495046Y286189D01*
X495066Y286114D01*
X495094Y286040D01*
X495130Y285964D01*
X495175Y285888D01*
X495228Y285811D01*
X495288Y285734D01*
X495357Y285655D01*
X495434Y285576D01*
X494194D01*
X494271Y285655D01*
X494400Y285811D01*
X494453Y285888D01*
X494497Y285964D01*
X494534Y286040D01*
X494562Y286114D01*
X494582Y286189D01*
X494594Y286262D01*
X494598Y286334D01*
X495029D01*
X495033Y286262D01*
D02*
G37*
G36*
X510912Y338865D02*
X510867Y338811D01*
X510827Y338756D01*
X510792Y338700D01*
X510763Y338643D01*
X510739Y338585D01*
X510720Y338526D01*
X510707Y338466D01*
X510699Y338404D01*
X510696Y338342D01*
X510265D01*
X510262Y338404D01*
X510254Y338466D01*
X510241Y338526D01*
X510222Y338585D01*
X510198Y338643D01*
X510169Y338700D01*
X510135Y338756D01*
X510094Y338811D01*
X510049Y338865D01*
X509998Y338918D01*
X510963D01*
X510912Y338865D01*
D02*
G37*
G36*
X514857Y331648D02*
X514905Y331607D01*
X514954Y331572D01*
X515006Y331540D01*
X515061Y331514D01*
X515117Y331493D01*
X515176Y331476D01*
X515238Y331464D01*
X515302Y331457D01*
X515368Y331454D01*
X515349Y330954D01*
X515283Y330952D01*
X515219Y330945D01*
X515157Y330934D01*
X515097Y330918D01*
X515039Y330898D01*
X514983Y330873D01*
X514929Y330844D01*
X514876Y330810D01*
X514826Y330772D01*
X514778Y330730D01*
X514813Y331693D01*
X514857Y331648D01*
D02*
G37*
G36*
X517158Y330715D02*
X517113Y330761D01*
X517066Y330801D01*
X517016Y330837D01*
X516964Y330868D01*
X516910Y330895D01*
X516853Y330916D01*
X516794Y330933D01*
X516732Y330945D01*
X516669Y330952D01*
X516602Y330954D01*
X516622Y331454D01*
X516687Y331457D01*
X516751Y331463D01*
X516813Y331475D01*
X516873Y331490D01*
X516931Y331511D01*
X516987Y331535D01*
X517041Y331564D01*
X517094Y331598D01*
X517144Y331637D01*
X517192Y331679D01*
X517158Y330715D01*
D02*
G37*
G36*
X513882Y328868D02*
X513931Y328831D01*
X513983Y328797D01*
X514038Y328769D01*
X514096Y328745D01*
X514157Y328725D01*
X514221Y328710D01*
X514288Y328699D01*
X514359Y328693D01*
X514432Y328692D01*
X513750Y328010D01*
X513748Y328083D01*
X513742Y328153D01*
X513732Y328220D01*
X513717Y328285D01*
X513697Y328346D01*
X513673Y328404D01*
X513644Y328459D01*
X513611Y328511D01*
X513573Y328560D01*
X513531Y328606D01*
X513836Y328910D01*
X513882Y328868D01*
D02*
G37*
G36*
X566283Y329027D02*
X566313Y328950D01*
X566362Y328882D01*
X566433Y328823D01*
X566523Y328773D01*
X566633Y328732D01*
X566718Y328711D01*
X566732Y328714D01*
X566802Y328739D01*
X566865Y328767D01*
X566921Y328800D01*
X566969Y328838D01*
X567009Y328879D01*
X567026Y328668D01*
X567083Y328664D01*
X567273Y328659D01*
Y327659D01*
X567110Y327579D01*
X567118Y327484D01*
X567074Y327517D01*
X567033Y327541D01*
X566260Y327159D01*
X566270Y328654D01*
X566269Y328659D01*
X566270Y328659D01*
X566272Y329113D01*
X566283Y329027D01*
D02*
G37*
G36*
X547959Y308629D02*
X546462Y308902D01*
X546243Y308900D01*
X545568Y308857D01*
X545403Y308831D01*
X545268Y308799D01*
X545163Y308762D01*
X545088Y308718D01*
X545043Y308669D01*
X545028Y308615D01*
X544609Y307115D01*
X543109D01*
X542690Y308615D01*
X545028D01*
Y310677D01*
X545043Y310625D01*
X545088Y310578D01*
X545163Y310537D01*
X545268Y310502D01*
X545403Y310472D01*
X545568Y310447D01*
X545988Y310414D01*
X546465Y310404D01*
X547959Y310691D01*
Y308629D01*
D02*
G37*
G36*
X476118Y302372D02*
X476128Y302362D01*
X476108Y302336D01*
X476088Y302300D01*
X476068Y302254D01*
X476049Y302196D01*
X476030Y302129D01*
X475993Y301962D01*
X475940Y301634D01*
X475548Y302027D01*
X474447D01*
X473697Y303539D01*
X476697D01*
X476118Y302372D01*
D02*
G37*
G36*
X492668Y264323D02*
X492588Y264399D01*
X492430Y264528D01*
X492352Y264580D01*
X492275Y264624D01*
X492199Y264660D01*
X492124Y264688D01*
X492050Y264708D01*
X491977Y264720D01*
X491904Y264724D01*
X491898Y265155D01*
X491971Y265159D01*
X492044Y265171D01*
X492118Y265192D01*
X492193Y265220D01*
X492268Y265257D01*
X492343Y265302D01*
X492419Y265355D01*
X492496Y265416D01*
X492572Y265486D01*
X492650Y265563D01*
X492668Y264323D01*
D02*
G37*
G36*
X484951Y265479D02*
X485109Y265351D01*
X485187Y265299D01*
X485263Y265255D01*
X485339Y265219D01*
X485415Y265191D01*
X485489Y265171D01*
X485562Y265159D01*
X485634Y265155D01*
X485641Y264724D01*
X485568Y264720D01*
X485494Y264708D01*
X485420Y264687D01*
X485346Y264659D01*
X485271Y264622D01*
X485195Y264577D01*
X485119Y264524D01*
X485043Y264463D01*
X484966Y264393D01*
X484889Y264316D01*
X484870Y265556D01*
X484951Y265479D01*
D02*
G37*
G36*
X468019Y262564D02*
X466546Y262587D01*
X464747Y262513D01*
Y264576D01*
X466019Y264588D01*
Y264596D01*
X468019Y264627D01*
Y262564D01*
D02*
G37*
G36*
X462408Y262513D02*
X460526Y262544D01*
Y264545D01*
X462408Y264576D01*
Y262513D01*
D02*
G37*
G36*
X470377Y261180D02*
X470437Y261175D01*
X470857Y261162D01*
X472357Y261155D01*
Y259155D01*
X470357Y259123D01*
Y261186D01*
X470377Y261180D01*
D02*
G37*
G36*
X468019Y259123D02*
X466546Y259146D01*
X464747Y259072D01*
Y261135D01*
X466019Y261147D01*
Y261155D01*
X468019Y261186D01*
Y259123D01*
D02*
G37*
G36*
X462408Y259072D02*
X460408Y259103D01*
Y261104D01*
X462408Y261135D01*
Y259072D01*
D02*
G37*
%LPC*%
G36*
X566402Y338340D02*
X565421D01*
Y337497D01*
X566402D01*
Y338340D01*
D02*
G37*
%LPD*%
D12*
X530028Y352044D02*
X530100Y352117D01*
Y354778D01*
X511323Y375595D02*
X511341Y378435D01*
X508042Y376590D02*
Y378864D01*
X507457Y379450D02*
X508042Y378864D01*
X505225Y379450D02*
X507457D01*
X502439Y378897D02*
X504672D01*
X505225Y379450D01*
X500506Y379579D02*
Y379588D01*
X501050Y379036D02*
X502300D01*
X500506Y379579D02*
X501050Y379036D01*
X502300D02*
X502439Y378897D01*
X543212Y333546D02*
Y333716D01*
X544014Y334518D01*
X538718Y355265D02*
X538745Y355238D01*
X536061Y355265D02*
X538718D01*
X544014Y334518D02*
Y335296D01*
X497065Y385385D02*
X497553Y385873D01*
Y387529D01*
X497744Y387720D01*
X563355Y335569D02*
X564783Y336997D01*
X559842Y335569D02*
X563355D01*
X564783Y336997D02*
X564921D01*
X564918Y337030D02*
X564921Y337027D01*
Y336997D02*
Y337027D01*
X562212Y328082D02*
X565103D01*
X565110Y328304D02*
X565255Y328159D01*
X567698D01*
X564024Y328304D02*
X565110D01*
X567698Y328159D02*
X567776Y328237D01*
X548701Y341963D02*
X556237D01*
X548388Y341650D02*
X548701Y341963D01*
X536033Y355293D02*
X536061Y355265D01*
X530576Y355254D02*
X530674D01*
X530100Y354778D02*
X530576Y355254D01*
X553510Y378601D02*
X553608Y378699D01*
X553510Y372193D02*
Y378601D01*
X549701Y366737D02*
X549711Y366746D01*
X547148Y366728D02*
X547157Y366737D01*
X530674Y355322D02*
X536033D01*
Y355293D02*
Y355322D01*
X536021Y355293D02*
X536033D01*
X500506Y395847D02*
X501591Y396932D01*
X559842Y330451D02*
X562212Y328082D01*
X530084Y377306D02*
X530190Y377412D01*
X530053Y377336D02*
X530084Y377306D01*
X532963Y377412D02*
X533069Y377518D01*
X524504Y377366D02*
X524534Y377336D01*
X530190Y377412D02*
X532963D01*
X510606Y364286D02*
Y365777D01*
X510754Y365925D01*
X506271Y368266D02*
X508506Y366031D01*
X553098Y313101D02*
X555426Y315429D01*
X517517Y377012D02*
X520571D01*
X524366Y380807D02*
X524504D01*
X524534Y380777D02*
X529916D01*
X520571Y377012D02*
X524366Y380807D01*
X524504D02*
X524534Y380777D01*
X515765Y368709D02*
Y371617D01*
X506271Y368266D02*
Y371275D01*
X524534Y377336D02*
X530053D01*
X529916Y380777D02*
X529946Y380747D01*
X529402Y381290D02*
X529916Y380777D01*
X528873Y381957D02*
Y387682D01*
X529946Y380747D02*
X530084D01*
X529402Y381290D02*
Y381428D01*
X528873Y381957D02*
X529402Y381428D01*
X515134Y372248D02*
X515765Y371617D01*
X514446Y374197D02*
Y376579D01*
X537402Y313434D02*
X543512D01*
X543859Y313087D02*
X549114D01*
X549128Y313101D02*
X553098D01*
X541113Y438473D02*
X541866Y437720D01*
X544547D01*
X472539Y317913D02*
X475197Y315256D01*
Y311515D02*
Y315256D01*
D13*
X512564Y369160D02*
Y370066D01*
X509055Y373575D02*
X512564Y370066D01*
X507852Y373575D02*
X509055D01*
X506340Y375087D02*
Y376520D01*
X506271Y376590D02*
X506340Y376520D01*
Y375087D02*
X507852Y373575D01*
D14*
X523644Y448995D02*
X523732Y449083D01*
X523644Y448950D02*
Y448995D01*
X490789Y388812D02*
Y394695D01*
Y388812D02*
X490863Y388738D01*
Y359236D02*
Y388738D01*
X490789Y394695D02*
X494061Y397967D01*
X497928D01*
X490863Y359236D02*
X493859Y356240D01*
X493623Y349503D02*
X493859Y349739D01*
X493623Y346673D02*
Y349503D01*
X493859Y349739D02*
Y356240D01*
X531269Y410478D02*
X532231Y411440D01*
X510439Y410478D02*
X531269D01*
X497928Y397967D02*
X510439Y410478D01*
X514013Y377012D02*
X514446Y376579D01*
Y374197D02*
X515765Y372878D01*
X515134Y372248D02*
X515765Y372878D01*
D15*
X530417Y350323D02*
X533875D01*
X525272Y350591D02*
X530149D01*
X530417Y350323D01*
X533875D02*
X537145Y353593D01*
X516949Y361127D02*
X517922Y362100D01*
X519957D02*
X521343Y360713D01*
X506175Y361127D02*
X516949D01*
X517922Y362100D02*
X519957D01*
X504788Y359741D02*
X506175Y361127D01*
X537145Y353593D02*
X542417D01*
X546108Y357284D01*
Y358168D01*
X515966Y365759D02*
Y365759D01*
X517642Y331204D02*
X517667Y331179D01*
X514303Y331229D02*
X514328Y331204D01*
X517642D01*
D27*
X556731Y342359D02*
D03*
D32*
X520291Y449083D02*
D03*
X523732D02*
D03*
X497065Y385385D02*
D03*
X500506D02*
D03*
X550069Y372193D02*
D03*
X553510D02*
D03*
X550099Y366746D02*
D03*
X553540D02*
D03*
X500506Y379588D02*
D03*
X497065D02*
D03*
D33*
X530674Y358763D02*
D03*
Y355322D02*
D03*
X543859Y313087D02*
D03*
Y309646D02*
D03*
X565103Y328082D02*
D03*
Y331523D02*
D03*
X564921Y340438D02*
D03*
Y336997D02*
D03*
X524504Y380788D02*
D03*
Y377347D02*
D03*
X530084Y380813D02*
D03*
Y377372D02*
D03*
X536021Y355293D02*
D03*
Y358734D02*
D03*
X549128Y313101D02*
D03*
Y309660D02*
D03*
X469188Y263596D02*
D03*
Y260155D02*
D03*
X463578Y263545D02*
D03*
Y260104D02*
D03*
D39*
X536011Y455060D02*
D03*
X532704D02*
D03*
X473425Y320669D02*
D03*
X470118D02*
D03*
D43*
X541113Y438473D02*
D03*
X536013D02*
D03*
D50*
X466634Y311535D02*
D03*
Y314843D02*
D03*
D90*
X493023Y404286D02*
Y419967D01*
X488988Y400251D02*
X493023Y404286D01*
X488988Y344763D02*
Y400251D01*
X510481Y331961D02*
Y339410D01*
X484047Y347969D02*
X485276D01*
X485382Y347862D01*
X478154Y353862D02*
X484047Y347969D01*
X475384Y336882D02*
Y347433D01*
X465308Y357509D02*
X475384Y347433D01*
Y336882D02*
X476445Y335821D01*
X465308Y365000D02*
X467235Y366926D01*
X465308Y357509D02*
Y365000D01*
X482975Y387691D02*
X484163Y386504D01*
X485035D02*
X485967Y385572D01*
X484163Y386504D02*
X485035D01*
X487477Y359580D02*
Y361790D01*
X483533Y392666D02*
X487428Y388771D01*
Y361790D02*
Y388771D01*
X488988Y344763D02*
X489824Y343927D01*
X487425Y357496D02*
X487429D01*
X485967Y358954D02*
Y385572D01*
Y358954D02*
X487425Y357496D01*
X526862Y321124D02*
X532203Y315783D01*
X526862Y321124D02*
Y336499D01*
X463739Y337398D02*
X467742Y333396D01*
X471703D02*
X474839Y330260D01*
X467742Y333396D02*
X471703D01*
X463739Y337398D02*
Y351644D01*
X461313Y354070D02*
X463739Y351644D01*
X473307Y325315D02*
X476445Y328454D01*
Y335821D01*
X473307Y322838D02*
Y325315D01*
X478154Y353862D02*
Y358811D01*
X478234Y358892D01*
X510481Y331961D02*
X514439Y328003D01*
X515719Y338868D02*
X515870Y338716D01*
X522408D01*
X493279Y264939D02*
X493292Y264952D01*
X484260Y264939D02*
X493279D01*
X484247Y264926D02*
X484260Y264939D01*
X475976Y302515D02*
X476137D01*
X475197Y301736D02*
X475197D01*
X475976Y302515D01*
X498032Y424975D02*
Y425887D01*
X498024Y425894D02*
X498032Y425887D01*
X498024Y425894D02*
Y427168D01*
X497768Y427425D02*
X498024Y427168D01*
X493023Y419967D02*
X498032Y424975D01*
X522408Y338716D02*
X523943Y337182D01*
X526813Y336549D02*
X526862Y336499D01*
X523943Y337182D02*
X524127D01*
X532203Y315783D02*
X532405D01*
X533765Y314424D01*
Y313046D02*
Y314424D01*
X473425Y320650D02*
X494814Y299261D01*
X473307Y320788D02*
Y322838D01*
Y320788D02*
X473425Y320669D01*
X469626Y308563D02*
X469980D01*
X466653Y311535D02*
X469626Y308563D01*
X466634Y311535D02*
X466653D01*
X484111Y265253D02*
X484247Y265388D01*
X483920Y265253D02*
X484111D01*
X494814Y284944D02*
Y299261D01*
X473425Y320650D02*
Y320669D01*
X463578Y263545D02*
Y263596D01*
X466339Y317520D02*
X466486Y317372D01*
Y314990D02*
X466634Y314843D01*
X466486Y314990D02*
Y317372D01*
D93*
X565078Y340419D02*
X567585D01*
X564490Y340145D02*
X564921Y340576D01*
X567585Y340419D02*
X567605Y340399D01*
X560721Y340145D02*
X564490D01*
X564921Y340576D02*
X565078Y340419D01*
X565253Y331523D02*
X565534Y331804D01*
X567707D01*
X567803Y331900D01*
X565103Y331523D02*
X565253D01*
X470455Y264725D02*
X475063D01*
X476052Y265714D02*
X476078D01*
X475063Y264725D02*
X476052Y265714D01*
X469326Y263596D02*
X470455Y264725D01*
X469188Y263596D02*
X469326D01*
X530674Y359275D02*
X532924D01*
X532853Y359387D02*
X536021D01*
Y358734D02*
Y359387D01*
X551771Y338128D02*
X554221D01*
X554477Y338384D01*
X554612D01*
X554496Y335596D02*
X554592Y335691D01*
X552029Y335508D02*
X552117Y335596D01*
X554496D01*
X550891Y362468D02*
X553247Y364824D01*
Y366453D01*
X553540Y366746D01*
Y371852D01*
X550099Y366746D02*
Y372838D01*
X547157Y366737D02*
X549701D01*
X550891Y358909D02*
Y362468D01*
X550057Y358075D02*
X550891Y358909D01*
X530674Y359275D02*
Y361049D01*
Y358763D02*
Y359275D01*
X497065Y379588D02*
X497117Y379536D01*
Y376635D02*
X497169Y376584D01*
X497117Y376635D02*
Y379536D01*
X497065Y379588D02*
Y385385D01*
X543859Y305976D02*
Y309646D01*
X549121Y309653D02*
X549128Y309660D01*
X543859Y309646D02*
X543866Y309653D01*
X549121D01*
X475099Y301712D02*
X475136Y301675D01*
X559842Y339266D02*
X560721Y340145D01*
X559842Y338128D02*
Y339266D01*
X563616Y333010D02*
X564672Y331954D01*
X559842Y333010D02*
X563616D01*
X475197Y301809D02*
Y305415D01*
X475099Y301712D02*
X475197Y301809D01*
X475047Y301586D02*
X475136Y301675D01*
X475197Y301736D01*
X500506Y385385D02*
Y395847D01*
Y379588D02*
Y385385D01*
D94*
X492284Y391975D02*
X492487D01*
X492829Y392317D02*
X498082D01*
X492487Y391975D02*
X492829Y392317D01*
X492284Y389431D02*
X492487D01*
X492853Y389798D01*
X498181D01*
X552540Y330924D02*
X553218D01*
X553262Y330968D01*
X553843Y332999D02*
X553863Y332980D01*
X553843Y332999D02*
Y333355D01*
X558242Y329507D02*
X559401Y328348D01*
X558242Y329507D02*
Y332066D01*
X556966Y333342D02*
X558242Y332066D01*
X554225Y333342D02*
X556966D01*
X552195Y332980D02*
X553863D01*
X554225Y333342D01*
X552165Y333010D02*
X552195Y332980D01*
X530502Y327057D02*
Y329726D01*
Y327057D02*
X532266Y325293D01*
X552165Y330451D02*
Y330550D01*
X559401Y321619D02*
Y328348D01*
X552165Y330550D02*
X552540Y330924D01*
X483804Y362746D02*
X484059D01*
X483154Y362097D02*
X483804Y362746D01*
X478117Y362097D02*
X483154D01*
X498181Y389798D02*
X498324Y389941D01*
D96*
X536119Y438579D02*
X538431D01*
X536013Y438473D02*
X536119Y438579D01*
X512564Y369160D02*
X515966Y365759D01*
D98*
X474152Y260155D02*
X474234Y260238D01*
X463578Y260155D02*
X474152D01*
X460217Y260104D02*
X463578D01*
X460079Y259966D02*
X460217Y260104D01*
X518260Y448902D02*
X520248D01*
X517095Y447736D02*
X518260Y448902D01*
X463578Y263596D02*
X469188D01*
X542332Y326437D02*
Y327225D01*
X520248Y448902D02*
X520291Y448945D01*
Y449083D01*
X466043Y321063D02*
X466437Y320669D01*
X470118D01*
X460526Y263545D02*
X463578D01*
Y260104D02*
Y260155D01*
X460210Y263465D02*
X460447D01*
X460526Y263545D01*
D99*
X544738Y343529D02*
Y347379D01*
X544897Y347538D01*
D100*
X566658Y381818D02*
Y382519D01*
X563539Y378699D02*
X566658Y381818D01*
X559708Y378699D02*
X563539D01*
X555042Y327321D02*
X555956Y328235D01*
X555042Y322962D02*
Y327321D01*
Y322962D02*
X555695Y322309D01*
X507691Y396932D02*
X511438D01*
X513575D01*
X513649Y396858D01*
X534950Y387705D02*
X534973Y387682D01*
X534950Y387705D02*
Y391818D01*
D103*
X522130Y355065D02*
X526018Y358954D01*
X503029Y355065D02*
X522130D01*
X509491Y380977D02*
X511341Y378435D01*
X508789Y381678D02*
X509491Y380977D01*
X509258Y382917D02*
X509279Y382938D01*
X509258Y382147D02*
Y382917D01*
X508789Y381678D02*
X509258Y382147D01*
X509268Y382938D02*
X509345Y390889D01*
Y390889D01*
X503691Y382427D02*
X504440Y381678D01*
X503691Y390421D02*
X504160Y390889D01*
X509345D01*
X504440Y381678D02*
X508789D01*
X503691Y382427D02*
Y390421D01*
X510020Y363700D02*
X517895D01*
X519584Y365389D01*
X530874Y332592D02*
X532598D01*
X528608Y321519D02*
Y330327D01*
X530874Y332592D01*
X539429Y339423D02*
X540940D01*
X532598Y332592D02*
X539429Y339423D01*
X543080Y335296D02*
X544014D01*
X536920Y321922D02*
Y329136D01*
X543080Y335296D01*
X535643Y320645D02*
X536920Y321922D01*
X529483Y320645D02*
X535643D01*
X528608Y321519D02*
X529483Y320645D01*
X540940Y339423D02*
X542705Y341189D01*
X541846Y342710D02*
X542705Y341851D01*
X548388Y341650D02*
Y343172D01*
X542801Y351440D02*
X547131D01*
X541846Y342710D02*
Y350484D01*
X542705Y341189D02*
Y341851D01*
X547131Y351440D02*
X547814Y350757D01*
Y343746D02*
Y350757D01*
X541846Y350484D02*
X542801Y351440D01*
X547814Y343746D02*
X548388Y343172D01*
X544014Y335296D02*
X548388Y339669D01*
Y341650D01*
X500113Y357981D02*
X503029Y355065D01*
X526018Y358954D02*
Y359700D01*
X508269Y363700D02*
X510020D01*
X507553Y364416D02*
X508269Y363700D01*
X500113Y358727D02*
X505802Y364416D01*
X507553D01*
X510020Y363700D02*
X510606Y364286D01*
X520329Y365389D02*
X526018Y359700D01*
X519584Y365389D02*
X520329D01*
X500113Y357981D02*
Y358727D01*
D105*
X477785Y438657D02*
D03*
Y404642D02*
D03*
D106*
X462037Y438657D02*
D03*
Y404642D02*
D03*
D107*
X457204Y463037D02*
D03*
D108*
Y453037D02*
D03*
D109*
X513750Y345000D02*
D03*
X504639Y348719D02*
D03*
X514429Y298128D02*
D03*
X562500Y442500D02*
D03*
Y427500D02*
D03*
Y412500D02*
D03*
Y292500D02*
D03*
X558750Y450000D02*
D03*
Y420000D02*
D03*
Y360000D02*
D03*
X555000Y352500D02*
D03*
Y292500D02*
D03*
X558750Y285000D02*
D03*
X547500Y397500D02*
D03*
Y322500D02*
D03*
Y292500D02*
D03*
X551250Y285000D02*
D03*
X540000Y397500D02*
D03*
X543750Y300000D02*
D03*
X540000Y262500D02*
D03*
X536250Y465000D02*
D03*
X532500Y397500D02*
D03*
X525000Y412500D02*
D03*
Y292500D02*
D03*
Y277500D02*
D03*
Y262500D02*
D03*
X517500Y277500D02*
D03*
Y262500D02*
D03*
X513750Y465000D02*
D03*
Y270000D02*
D03*
X510000Y262500D02*
D03*
X506250Y465000D02*
D03*
X502500Y442500D02*
D03*
X506250Y435000D02*
D03*
X502500Y427500D02*
D03*
Y292500D02*
D03*
X498750Y465000D02*
D03*
Y450000D02*
D03*
Y435000D02*
D03*
X495000Y412500D02*
D03*
X498750Y285000D02*
D03*
Y270000D02*
D03*
X491250Y300000D02*
D03*
Y285000D02*
D03*
X487500Y262500D02*
D03*
X480000Y457500D02*
D03*
X483750Y405000D02*
D03*
X480000Y307500D02*
D03*
Y277500D02*
D03*
X472500Y457500D02*
D03*
X476250Y360000D02*
D03*
X472500Y277500D02*
D03*
X465000Y457500D02*
D03*
Y427500D02*
D03*
X468750Y420000D02*
D03*
X465000Y412500D02*
D03*
Y397500D02*
D03*
Y367500D02*
D03*
Y307500D02*
D03*
Y292500D02*
D03*
X457500Y427500D02*
D03*
X461250Y420000D02*
D03*
X457500Y412500D02*
D03*
Y397500D02*
D03*
Y367500D02*
D03*
X461250Y345000D02*
D03*
X457500Y292500D02*
D03*
Y262500D02*
D03*
X488205Y445881D02*
D03*
X488159Y447834D02*
D03*
X506547Y455854D02*
D03*
X508904Y455218D02*
D03*
X522504Y353428D02*
D03*
X543212Y333546D02*
D03*
X525038Y322643D02*
D03*
X522790Y323022D02*
D03*
X532656Y335026D02*
D03*
X536274Y338643D02*
D03*
X540661Y341520D02*
D03*
X538745Y355238D02*
D03*
X538703Y349915D02*
D03*
X565929Y320433D02*
D03*
X566039Y308558D02*
D03*
X568407Y311476D02*
D03*
X467986Y357592D02*
D03*
X466677Y347570D02*
D03*
X468989Y347727D02*
D03*
X466532Y344363D02*
D03*
X474234Y260238D02*
D03*
X460079Y259966D02*
D03*
X476078Y265714D02*
D03*
X508073Y348535D02*
D03*
X516402Y345350D02*
D03*
X467100Y417572D02*
D03*
X467174Y424452D02*
D03*
X514758Y322754D02*
D03*
X564918Y337030D02*
D03*
X520244Y329495D02*
D03*
X512781Y425994D02*
D03*
X551614Y440660D02*
D03*
X532893Y359318D02*
D03*
X550429Y260375D02*
D03*
X547660Y260258D02*
D03*
X544738Y343529D02*
D03*
X530502Y329726D02*
D03*
X538513Y343657D02*
D03*
X505408Y296881D02*
D03*
X505388Y294109D02*
D03*
X505367Y291338D02*
D03*
X505626Y288578D02*
D03*
X507466Y286506D02*
D03*
X510204Y286072D02*
D03*
X512975D02*
D03*
X515747D02*
D03*
X518518D02*
D03*
X521290D02*
D03*
X524062D02*
D03*
X526833D02*
D03*
X529605D02*
D03*
X532377D02*
D03*
X535122Y285694D02*
D03*
X536416Y278645D02*
D03*
X539188D02*
D03*
X541507Y280162D02*
D03*
X544279D02*
D03*
X546532Y278548D02*
D03*
Y275776D02*
D03*
Y273005D02*
D03*
X545728Y262245D02*
D03*
X551482Y265563D02*
D03*
X551581Y268333D02*
D03*
X550844Y271005D02*
D03*
Y273777D02*
D03*
Y276548D02*
D03*
Y279320D02*
D03*
X550750Y282090D02*
D03*
X548941Y284190D02*
D03*
X546184Y284474D02*
D03*
X543413D02*
D03*
X540755Y285261D02*
D03*
X539156Y287525D02*
D03*
X531841Y290384D02*
D03*
X529069D02*
D03*
X526297D02*
D03*
X523526D02*
D03*
X520754D02*
D03*
X515211D02*
D03*
X512439D02*
D03*
X509674Y290570D02*
D03*
X507123Y303288D02*
D03*
X456142Y372881D02*
D03*
X462955Y387712D02*
D03*
X459383Y395867D02*
D03*
X459600Y372881D02*
D03*
X463057D02*
D03*
X462955Y382808D02*
D03*
X456118Y387712D02*
D03*
X459537D02*
D03*
X459497Y382808D02*
D03*
X462867Y392822D02*
D03*
X456074D02*
D03*
X456039Y382808D02*
D03*
X540757Y458763D02*
D03*
X551410Y414632D02*
D03*
X468128Y406431D02*
D03*
X510754Y365925D02*
D03*
X468059Y362264D02*
D03*
X549128Y309660D02*
D03*
X552403Y438734D02*
D03*
X511323Y375595D02*
D03*
X524985Y302799D02*
D03*
X524138Y305580D02*
D03*
X540815Y466797D02*
D03*
X538325Y425993D02*
D03*
X538927Y421162D02*
D03*
X543314Y420979D02*
D03*
X539411Y418176D02*
D03*
X542870Y425471D02*
D03*
X547367Y418176D02*
D03*
X543389D02*
D03*
X539444Y415424D02*
D03*
X543431Y415374D02*
D03*
X547434Y415257D02*
D03*
X546900Y411738D02*
D03*
X467449Y430559D02*
D03*
X467351Y413510D02*
D03*
X479895Y399959D02*
D03*
X467410Y410393D02*
D03*
X467386Y402371D02*
D03*
X474611Y434323D02*
D03*
X459471Y392822D02*
D03*
X466600Y442100D02*
D03*
X455233Y408100D02*
D03*
Y410690D02*
D03*
Y413280D02*
D03*
Y415870D02*
D03*
Y431410D02*
D03*
Y426230D02*
D03*
Y428820D02*
D03*
Y434000D02*
D03*
Y423640D02*
D03*
Y418460D02*
D03*
Y421050D02*
D03*
X466500Y446200D02*
D03*
X455250D02*
D03*
X462750D02*
D03*
X459000D02*
D03*
X477750D02*
D03*
X474000D02*
D03*
X470250D02*
D03*
X468550Y449100D02*
D03*
X472300D02*
D03*
X464800D02*
D03*
X476050D02*
D03*
X467025Y452750D02*
D03*
X470775D02*
D03*
X463275D02*
D03*
X474525D02*
D03*
X528966Y304522D02*
D03*
X455450Y399900D02*
D03*
X459200D02*
D03*
X466700D02*
D03*
X462021Y408914D02*
D03*
X458755Y408668D02*
D03*
X465376Y408489D02*
D03*
X468367Y434000D02*
D03*
X465083D02*
D03*
X461800D02*
D03*
X471650D02*
D03*
X458517D02*
D03*
X470350Y442100D02*
D03*
X474100D02*
D03*
X477850D02*
D03*
X459100D02*
D03*
X462850D02*
D03*
X455350D02*
D03*
X459527Y369355D02*
D03*
X520214Y297927D02*
D03*
X522756Y297883D02*
D03*
X517724Y291659D02*
D03*
X501551Y296088D02*
D03*
X501563Y298216D02*
D03*
X515737Y380228D02*
D03*
X467235Y366926D02*
D03*
X482975Y387691D02*
D03*
X483533Y392666D02*
D03*
X551085Y421736D02*
D03*
X509895Y294480D02*
D03*
X558695Y319259D02*
D03*
X547948Y295166D02*
D03*
X559677Y301780D02*
D03*
X559819Y307371D02*
D03*
X559400Y305228D02*
D03*
X559354Y314063D02*
D03*
X568008Y322826D02*
D03*
X565924Y302962D02*
D03*
X565982Y300856D02*
D03*
X504587Y305236D02*
D03*
X497471Y296003D02*
D03*
X497321Y298216D02*
D03*
X545665Y264897D02*
D03*
X515464Y423471D02*
D03*
X505688Y425974D02*
D03*
X538480Y270214D02*
D03*
X538393Y272758D02*
D03*
X538519Y267251D02*
D03*
X526866Y270214D02*
D03*
X526955Y267471D02*
D03*
X526829Y272978D02*
D03*
X505415Y445798D02*
D03*
X503049Y445809D02*
D03*
X535994Y290873D02*
D03*
X536013Y293284D02*
D03*
X524939Y354145D02*
D03*
X509483Y369202D02*
D03*
X500492Y419783D02*
D03*
X502730Y269532D02*
D03*
X538632Y320279D02*
D03*
X492638Y432873D02*
D03*
X494077Y302806D02*
D03*
X481542Y293239D02*
D03*
X477212D02*
D03*
X485873D02*
D03*
X493292Y264952D02*
D03*
X475047Y301586D02*
D03*
X497768Y427425D02*
D03*
X521355Y435414D02*
D03*
X551117Y425693D02*
D03*
X554962Y443080D02*
D03*
X526813Y336549D02*
D03*
X525465Y320248D02*
D03*
X456263Y360934D02*
D03*
X456105Y353641D02*
D03*
X544976Y270802D02*
D03*
X542417Y270901D02*
D03*
X522828Y270214D02*
D03*
X515109Y279239D02*
D03*
X559597Y299322D02*
D03*
X547948Y297529D02*
D03*
X503165Y263283D02*
D03*
X521343Y360713D02*
D03*
X542350Y411714D02*
D03*
X554962Y445691D02*
D03*
X551117Y431275D02*
D03*
X545374Y331673D02*
D03*
X544801Y462622D02*
D03*
X468786Y344222D02*
D03*
X513971Y439450D02*
D03*
X516530Y439148D02*
D03*
X503712Y438513D02*
D03*
X519546Y333887D02*
D03*
X455752Y344847D02*
D03*
X506714Y386122D02*
D03*
X518403Y320310D02*
D03*
X521962Y328653D02*
D03*
X544547Y437720D02*
D03*
X534069Y451754D02*
D03*
X473307Y322838D02*
D03*
X469980Y308563D02*
D03*
X470079Y311417D02*
D03*
X472539Y317913D02*
D03*
X466043Y321063D02*
D03*
X460210Y263465D02*
D03*
X459936Y266895D02*
D03*
X484247Y264926D02*
D03*
X476268Y270044D02*
D03*
X494814Y284944D02*
D03*
X502607Y271991D02*
D03*
X520463Y271286D02*
D03*
X496949Y419783D02*
D03*
X466339Y317520D02*
D03*
D110*
X493009Y387376D02*
D03*
X513710Y333246D02*
D03*
X493362Y402789D02*
D03*
X538431Y438579D02*
D03*
X531933Y351656D02*
D03*
X530028Y352044D02*
D03*
X487149Y406700D02*
D03*
X523644Y448950D02*
D03*
X534586Y347218D02*
D03*
X526972Y351936D02*
D03*
X529319Y334271D02*
D03*
X546690Y446499D02*
D03*
X520289Y431708D02*
D03*
X521466Y314888D02*
D03*
X517247Y314920D02*
D03*
X528844Y314693D02*
D03*
X523247Y314783D02*
D03*
X525302Y314844D02*
D03*
X510481Y339410D02*
D03*
X497972Y394416D02*
D03*
X493333Y393659D02*
D03*
X499551Y351685D02*
D03*
X485265Y351681D02*
D03*
X485382Y347862D02*
D03*
X468431Y328834D02*
D03*
X465469Y328758D02*
D03*
X462570Y328834D02*
D03*
X471305Y329010D02*
D03*
X459755Y329064D02*
D03*
X457564Y330829D02*
D03*
X457364Y334234D02*
D03*
X457276Y337626D02*
D03*
X457652Y340117D02*
D03*
X467991Y341043D02*
D03*
X473586Y340831D02*
D03*
X553262Y330968D02*
D03*
X553843Y333355D02*
D03*
X559401Y321619D02*
D03*
X515269Y301511D02*
D03*
X516886Y300418D02*
D03*
X518963Y300375D02*
D03*
X521017Y300353D02*
D03*
X522755Y300342D02*
D03*
X524908Y300145D02*
D03*
X527072Y300123D02*
D03*
X530427Y301763D02*
D03*
X532405Y308615D02*
D03*
X532558Y304626D02*
D03*
X532722Y306527D02*
D03*
X530809Y314287D02*
D03*
X519466Y314954D02*
D03*
X514242Y313172D02*
D03*
X515258Y314931D02*
D03*
X531670Y302919D02*
D03*
X529327Y300544D02*
D03*
X513804Y303046D02*
D03*
X524494Y310001D02*
D03*
X520403Y312370D02*
D03*
X512576Y304578D02*
D03*
Y306895D02*
D03*
X526797Y314813D02*
D03*
X515966Y365759D02*
D03*
X484059Y362746D02*
D03*
X478117Y362097D02*
D03*
X487477Y359580D02*
D03*
X487429Y357496D02*
D03*
X489824Y343927D02*
D03*
X490220Y404364D02*
D03*
X487097Y344925D02*
D03*
X476895Y337792D02*
D03*
X474839Y330260D02*
D03*
X473320Y328984D02*
D03*
X492363Y351685D02*
D03*
X480513Y358846D02*
D03*
X514439Y328003D02*
D03*
X514303Y331229D02*
D03*
X515719Y338868D02*
D03*
X532231Y411440D02*
D03*
X478234Y358892D02*
D03*
X508506Y366031D02*
D03*
X517667Y331179D02*
D03*
X521740Y444281D02*
D03*
X524127Y337182D02*
D03*
X493623Y346673D02*
D03*
X515765Y368709D02*
D03*
X471073Y340865D02*
D03*
X465250Y340936D02*
D03*
X536011Y455060D02*
D03*
X532704D02*
D03*
X516808Y433616D02*
D03*
X461798Y340465D02*
D03*
X461925Y335048D02*
D03*
X459598Y334665D02*
D03*
D112*
X567605Y340399D02*
D03*
X567803Y331900D02*
D03*
X497744Y387720D02*
D03*
X521876Y460466D02*
D03*
X521087Y468707D02*
D03*
X566658Y382519D02*
D03*
X567776Y328237D02*
D03*
X565097Y453525D02*
D03*
X564211Y379372D02*
D03*
X550717Y347318D02*
D03*
X555956Y328235D02*
D03*
X555042Y326076D02*
D03*
X554612Y338384D02*
D03*
X554592Y335691D02*
D03*
X547148Y366728D02*
D03*
X530674Y361049D02*
D03*
X513649Y396858D02*
D03*
X517095Y447736D02*
D03*
X497169Y376584D02*
D03*
X523586Y421379D02*
D03*
X506268Y327895D02*
D03*
X502240D02*
D03*
X502180Y332002D02*
D03*
X498152D02*
D03*
X494123D02*
D03*
X498211Y327895D02*
D03*
X494183D02*
D03*
X489628Y332002D02*
D03*
X490155Y327895D02*
D03*
X486066Y332002D02*
D03*
X486126Y327895D02*
D03*
X511438Y396858D02*
D03*
X543859Y305976D02*
D03*
X534950Y391818D02*
D03*
X533069Y377518D02*
D03*
X496884Y367645D02*
D03*
X556485Y456895D02*
D03*
X506209Y332002D02*
D03*
X562508Y465010D02*
D03*
X550140Y468198D02*
D03*
X566758Y461666D02*
D03*
X562482Y461679D02*
D03*
X566627Y464892D02*
D03*
X566417Y468289D02*
D03*
X562640Y468237D02*
D03*
X558652Y468224D02*
D03*
X554573Y468211D02*
D03*
X556391Y462592D02*
D03*
X548478Y462601D02*
D03*
X517457Y467904D02*
D03*
Y464203D02*
D03*
Y460502D02*
D03*
X521036Y463001D02*
D03*
X532772Y421330D02*
D03*
X461313Y354070D02*
D03*
X502253Y319131D02*
D03*
X490167D02*
D03*
X486139D02*
D03*
X494196D02*
D03*
X498224D02*
D03*
X506281D02*
D03*
X498358Y323424D02*
D03*
X486272D02*
D03*
X494329D02*
D03*
X490301D02*
D03*
X502386D02*
D03*
X506415D02*
D03*
X489951Y314448D02*
D03*
X493979D02*
D03*
X498008D02*
D03*
X502036D02*
D03*
X506065D02*
D03*
X485922D02*
D03*
X529247Y368617D02*
D03*
X517892Y386122D02*
D03*
X542896Y325293D02*
D03*
X561005Y456833D02*
D03*
X545614Y467233D02*
D03*
D113*
X492284Y389431D02*
D03*
Y391975D02*
D03*
X498324Y389941D02*
D03*
X498082Y392317D02*
D03*
X525272Y350591D02*
D03*
D115*
X559842Y338128D02*
D03*
Y335569D02*
D03*
Y333010D02*
D03*
Y330451D02*
D03*
X551771D02*
D03*
Y335569D02*
D03*
Y333010D02*
D03*
Y338128D02*
D03*
D116*
X508042Y371275D02*
D03*
X506369D02*
D03*
X508042Y376590D02*
D03*
X506369D02*
D03*
D117*
X545981Y358535D02*
D03*
X550115D02*
D03*
X537898Y313046D02*
D03*
X533765D02*
D03*
D118*
X550802Y347538D02*
D03*
X544897D02*
D03*
D119*
X529247Y368617D02*
D03*
X521343Y360713D02*
D03*
D120*
X496884Y367645D02*
D03*
X504788Y359741D02*
D03*
D121*
X507691Y396932D02*
D03*
X501591D02*
D03*
X559708Y378699D02*
D03*
X553608D02*
D03*
X528873Y387682D02*
D03*
X534973D02*
D03*
D122*
X555695Y322309D02*
D03*
Y316209D02*
D03*
X475197Y305415D02*
D03*
Y311515D02*
D03*
D123*
X517892Y386122D02*
D03*
X506714D02*
D03*
D124*
X515765Y372878D02*
D03*
D125*
X517517Y377012D02*
D03*
X514013D02*
D03*
D126*
X532266Y325293D02*
D03*
X542896D02*
D03*
M02*
