G04*
G04 #@! TF.GenerationSoftware,Altium Limited,Altium Designer,25.0.2 (28)*
G04*
G04 Layer_Color=2752767*
%FSLAX25Y25*%
%MOIN*%
G70*
G04*
G04 #@! TF.SameCoordinates,429E233F-0BEF-4298-A7B5-772D1861D101*
G04*
G04*
G04 #@! TF.FilePolarity,Positive*
G04*
G01*
G75*
%ADD15C,0.00500*%
D15*
X526523Y341213D02*
X527523D01*
X528523Y342213D01*
X529523Y341213D01*
X530523D01*
Y342213D01*
X529523Y343213D01*
X530523Y344213D01*
Y345213D01*
X529523D01*
X528523Y344213D01*
X527523Y345213D01*
X526523D01*
Y344213D01*
X527523Y343213D01*
X526523Y342213D01*
Y341213D01*
X524841Y339572D02*
X525841D01*
X526841Y340572D01*
X527841Y339572D01*
X528841D01*
Y340572D01*
X527841Y341572D01*
X528841Y342572D01*
Y343572D01*
X527841D01*
X526841Y342572D01*
X525841Y343572D01*
X524841D01*
Y342572D01*
X525841Y341572D01*
X524841Y340572D01*
Y339572D01*
X525512Y450759D02*
X526512D01*
X527512Y451759D01*
X528512Y450759D01*
X529512D01*
Y451759D01*
X528512Y452759D01*
X529512Y453759D01*
Y454759D01*
X528512D01*
X527512Y453759D01*
X526512Y454759D01*
X525512D01*
Y453759D01*
X526512Y452759D01*
X525512Y451759D01*
Y450759D01*
X525489Y448805D02*
X526489D01*
X527489Y449805D01*
X528489Y448805D01*
X529489D01*
Y449805D01*
X528489Y450805D01*
X529489Y451805D01*
Y452805D01*
X528489D01*
X527489Y451805D01*
X526489Y452805D01*
X525489D01*
Y451805D01*
X526489Y450805D01*
X525489Y449805D01*
Y448805D01*
X527399Y450760D02*
X528399D01*
X529399Y451760D01*
X530399Y450760D01*
X531399D01*
Y451760D01*
X530399Y452760D01*
X531399Y453760D01*
Y454760D01*
X530399D01*
X529399Y453760D01*
X528399Y454760D01*
X527399D01*
Y453760D01*
X528399Y452760D01*
X527399Y451760D01*
Y450760D01*
X527508Y448742D02*
X528508D01*
X529508Y449742D01*
X530508Y448742D01*
X531508D01*
Y449742D01*
X530508Y450742D01*
X531508Y451742D01*
Y452742D01*
X530508D01*
X529508Y451742D01*
X528508Y452742D01*
X527508D01*
Y451742D01*
X528508Y450742D01*
X527508Y449742D01*
Y448742D01*
X529760Y425923D02*
X530760D01*
X531760Y426923D01*
X532760Y425923D01*
X533760D01*
Y426923D01*
X532760Y427923D01*
X533760Y428923D01*
Y429923D01*
X532760D01*
X531760Y428923D01*
X530760Y429923D01*
X529760D01*
Y428923D01*
X530760Y427923D01*
X529760Y426923D01*
Y425923D01*
X529738Y423970D02*
X530738D01*
X531738Y424970D01*
X532738Y423970D01*
X533738D01*
Y424970D01*
X532738Y425970D01*
X533738Y426970D01*
Y427970D01*
X532738D01*
X531738Y426970D01*
X530738Y427970D01*
X529738D01*
Y426970D01*
X530738Y425970D01*
X529738Y424970D01*
Y423970D01*
X531647Y425925D02*
X532647D01*
X533647Y426925D01*
X534647Y425925D01*
X535647D01*
Y426925D01*
X534647Y427925D01*
X535647Y428925D01*
Y429925D01*
X534647D01*
X533647Y428925D01*
X532647Y429925D01*
X531647D01*
Y428925D01*
X532647Y427925D01*
X531647Y426925D01*
Y425925D01*
X531756Y423906D02*
X532756D01*
X533756Y424906D01*
X534756Y423906D01*
X535756D01*
Y424906D01*
X534756Y425906D01*
X535756Y426906D01*
Y427906D01*
X534756D01*
X533756Y426906D01*
X532756Y427906D01*
X531756D01*
Y426906D01*
X532756Y425906D01*
X531756Y424906D01*
Y423906D01*
X522593Y423966D02*
X523593D01*
X524593Y424966D01*
X525593Y423966D01*
X526593D01*
Y424966D01*
X525593Y425966D01*
X526593Y426966D01*
Y427966D01*
X525593D01*
X524593Y426966D01*
X523593Y427966D01*
X522593D01*
Y426966D01*
X523593Y425966D01*
X522593Y424966D01*
Y423966D01*
X522484Y425985D02*
X523484D01*
X524484Y426985D01*
X525484Y425985D01*
X526484D01*
Y426985D01*
X525484Y427985D01*
X526484Y428985D01*
Y429985D01*
X525484D01*
X524484Y428985D01*
X523484Y429985D01*
X522484D01*
Y428985D01*
X523484Y427985D01*
X522484Y426985D01*
Y425985D01*
X520575Y424029D02*
X521575D01*
X522575Y425030D01*
X523575Y424029D01*
X524575D01*
Y425030D01*
X523575Y426029D01*
X524575Y427030D01*
Y428029D01*
X523575D01*
X522575Y427030D01*
X521575Y428029D01*
X520575D01*
Y427030D01*
X521575Y426029D01*
X520575Y425030D01*
Y424029D01*
X529140Y438137D02*
X530139D01*
X531140Y439137D01*
X532139Y438137D01*
X533140D01*
Y439137D01*
X532139Y440137D01*
X533140Y441137D01*
Y442137D01*
X532139D01*
X531140Y441137D01*
X530139Y442137D01*
X529140D01*
Y441137D01*
X530139Y440137D01*
X529140Y439137D01*
Y438137D01*
X532289Y438140D02*
X533289D01*
X534289Y439140D01*
X535289Y438140D01*
X536289D01*
Y439140D01*
X535289Y440140D01*
X536289Y441140D01*
Y442140D01*
X535289D01*
X534289Y441140D01*
X533289Y442140D01*
X532289D01*
Y441140D01*
X533289Y440140D01*
X532289Y439140D01*
Y438140D01*
X530700Y434983D02*
X531700D01*
X532700Y435983D01*
X533700Y434983D01*
X534700D01*
Y435983D01*
X533700Y436983D01*
X534700Y437983D01*
Y438983D01*
X533700D01*
X532700Y437983D01*
X531700Y438983D01*
X530700D01*
Y437983D01*
X531700Y436983D01*
X530700Y435983D01*
Y434983D01*
X528063Y344373D02*
X529063D01*
X530063Y345373D01*
X531063Y344373D01*
X532063D01*
Y345373D01*
X531063Y346373D01*
X532063Y347373D01*
Y348373D01*
X531063D01*
X530063Y347373D01*
X529063Y348373D01*
X528063D01*
Y347373D01*
X529063Y346373D01*
X528063Y345373D01*
Y344373D01*
X528111Y342836D02*
X529110D01*
X530111Y343836D01*
X531110Y342836D01*
X532111D01*
Y343836D01*
X531110Y344836D01*
X532111Y345836D01*
Y346836D01*
X531110D01*
X530111Y345836D01*
X529110Y346836D01*
X528111D01*
Y345836D01*
X529110Y344836D01*
X528111Y343836D01*
Y342836D01*
X528068Y341220D02*
X529069D01*
X530068Y342220D01*
X531069Y341220D01*
X532068D01*
Y342220D01*
X531069Y343220D01*
X532068Y344220D01*
Y345220D01*
X531069D01*
X530068Y344220D01*
X529069Y345220D01*
X528068D01*
Y344220D01*
X529069Y343220D01*
X528068Y342220D01*
Y341220D01*
X529645Y339646D02*
X530645D01*
X531645Y340646D01*
X532645Y339646D01*
X533645D01*
Y340646D01*
X532645Y341646D01*
X533645Y342646D01*
Y343646D01*
X532645D01*
X531645Y342646D01*
X530645Y343646D01*
X529645D01*
Y342646D01*
X530645Y341646D01*
X529645Y340646D01*
Y339646D01*
X529626Y341220D02*
X530625D01*
X531626Y342220D01*
X532625Y341220D01*
X533626D01*
Y342220D01*
X532625Y343220D01*
X533626Y344220D01*
Y345220D01*
X532625D01*
X531626Y344220D01*
X530625Y345220D01*
X529626D01*
Y344220D01*
X530625Y343220D01*
X529626Y342220D01*
Y341220D01*
X531213Y339661D02*
X532213D01*
X533213Y340661D01*
X534213Y339661D01*
X535213D01*
Y340661D01*
X534213Y341660D01*
X535213Y342660D01*
Y343660D01*
X534213D01*
X533213Y342660D01*
X532213Y343660D01*
X531213D01*
Y342660D01*
X532213Y341660D01*
X531213Y340661D01*
Y339661D01*
X528062D02*
X529062D01*
X530062Y340661D01*
X531062Y339661D01*
X532062D01*
Y340661D01*
X531062Y341660D01*
X532062Y342660D01*
Y343660D01*
X531062D01*
X530062Y342660D01*
X529062Y343660D01*
X528062D01*
Y342660D01*
X529062Y341660D01*
X528062Y340661D01*
Y339661D01*
X524897Y341229D02*
X525897D01*
X526897Y342229D01*
X527897Y341229D01*
X528897D01*
Y342229D01*
X527897Y343229D01*
X528897Y344229D01*
Y345229D01*
X527897D01*
X526897Y344229D01*
X525897Y345229D01*
X524897D01*
Y344229D01*
X525897Y343229D01*
X524897Y342229D01*
Y341229D01*
X523329Y345954D02*
X524329D01*
X525329Y346954D01*
X526329Y345954D01*
X527329D01*
Y346954D01*
X526329Y347954D01*
X527329Y348954D01*
Y349954D01*
X526329D01*
X525329Y348954D01*
X524329Y349954D01*
X523329D01*
Y348954D01*
X524329Y347954D01*
X523329Y346954D01*
Y345954D01*
X526472Y344416D02*
X527472D01*
X528472Y345416D01*
X529472Y344416D01*
X530472D01*
Y345416D01*
X529472Y346416D01*
X530472Y347416D01*
Y348416D01*
X529472D01*
X528472Y347416D01*
X527472Y348416D01*
X526472D01*
Y347416D01*
X527472Y346416D01*
X526472Y345416D01*
Y344416D01*
X524920Y345953D02*
X525920D01*
X526920Y346953D01*
X527920Y345953D01*
X528920D01*
Y346953D01*
X527920Y347953D01*
X528920Y348953D01*
Y349953D01*
X527920D01*
X526920Y348953D01*
X525920Y349953D01*
X524920D01*
Y348953D01*
X525920Y347953D01*
X524920Y346953D01*
Y345953D01*
X531220Y344378D02*
X532220D01*
X533220Y345378D01*
X534220Y344378D01*
X535220D01*
Y345378D01*
X534220Y346378D01*
X535220Y347378D01*
Y348378D01*
X534220D01*
X533220Y347378D01*
X532220Y348378D01*
X531220D01*
Y347378D01*
X532220Y346378D01*
X531220Y345378D01*
Y344378D01*
X528070Y338078D02*
X529070D01*
X530070Y339078D01*
X531070Y338078D01*
X532070D01*
Y339078D01*
X531070Y340078D01*
X532070Y341078D01*
Y342078D01*
X531070D01*
X530070Y341078D01*
X529070Y342078D01*
X528070D01*
Y341078D01*
X529070Y340078D01*
X528070Y339078D01*
Y338078D01*
X524920Y342802D02*
X525920D01*
X526920Y343802D01*
X527920Y342802D01*
X528920D01*
Y343802D01*
X527920Y344802D01*
X528920Y345802D01*
Y346802D01*
X527920D01*
X526920Y345802D01*
X525920Y346802D01*
X524920D01*
Y345802D01*
X525920Y344802D01*
X524920Y343802D01*
Y342802D01*
X520597Y425983D02*
X521597D01*
X522597Y426983D01*
X523597Y425983D01*
X524597D01*
Y426983D01*
X523597Y427983D01*
X524597Y428983D01*
Y429983D01*
X523597D01*
X522597Y428983D01*
X521597Y429983D01*
X520597D01*
Y428983D01*
X521597Y427983D01*
X520597Y426983D01*
Y425983D01*
X525992Y433408D02*
X526992D01*
X527992Y434408D01*
X528992Y433408D01*
X529992D01*
Y434408D01*
X528992Y435408D01*
X529992Y436408D01*
Y437408D01*
X528992D01*
X527992Y436408D01*
X526992Y437408D01*
X525992D01*
Y436408D01*
X526992Y435408D01*
X525992Y434408D01*
Y433408D01*
X530722Y433419D02*
X531721D01*
X532722Y434419D01*
X533721Y433419D01*
X534722D01*
Y434419D01*
X533721Y435419D01*
X534722Y436419D01*
Y437419D01*
X533721D01*
X532722Y436419D01*
X531721Y437419D01*
X530722D01*
Y436419D01*
X531721Y435419D01*
X530722Y434419D01*
Y433419D01*
X527564Y434992D02*
X528565D01*
X529565Y435992D01*
X530564Y434992D01*
X531565D01*
Y435992D01*
X530564Y436992D01*
X531565Y437992D01*
Y438992D01*
X530564D01*
X529565Y437992D01*
X528565Y438992D01*
X527564D01*
Y437992D01*
X528565Y436992D01*
X527564Y435992D01*
Y434992D01*
X525992D02*
X526992D01*
X527992Y435992D01*
X528992Y434992D01*
X529992D01*
Y435992D01*
X528992Y436992D01*
X529992Y437992D01*
Y438992D01*
X528992D01*
X527992Y437992D01*
X526992Y438992D01*
X525992D01*
Y437992D01*
X526992Y436992D01*
X525992Y435992D01*
Y434992D01*
X524413D02*
X525413D01*
X526413Y435992D01*
X527413Y434992D01*
X528413D01*
Y435992D01*
X527413Y436992D01*
X528413Y437992D01*
Y438992D01*
X527413D01*
X526413Y437992D01*
X525413Y438992D01*
X524413D01*
Y437992D01*
X525413Y436992D01*
X524413Y435992D01*
Y434992D01*
X529136Y439719D02*
X530136D01*
X531136Y440719D01*
X532136Y439719D01*
X533136D01*
Y440719D01*
X532136Y441719D01*
X533136Y442719D01*
Y443719D01*
X532136D01*
X531136Y442719D01*
X530136Y443719D01*
X529136D01*
Y442719D01*
X530136Y441719D01*
X529136Y440719D01*
Y439719D01*
X530716Y438142D02*
X531716D01*
X532716Y439142D01*
X533716Y438142D01*
X534716D01*
Y439142D01*
X533716Y440142D01*
X534716Y441142D01*
Y442142D01*
X533716D01*
X532716Y441142D01*
X531716Y442142D01*
X530716D01*
Y441142D01*
X531716Y440142D01*
X530716Y439142D01*
Y438142D01*
X530715Y439712D02*
X531715D01*
X532715Y440712D01*
X533715Y439712D01*
X534715D01*
Y440712D01*
X533715Y441712D01*
X534715Y442712D01*
Y443712D01*
X533715D01*
X532715Y442712D01*
X531715Y443712D01*
X530715D01*
Y442712D01*
X531715Y441712D01*
X530715Y440712D01*
Y439712D01*
X525997Y439710D02*
X526997D01*
X527997Y440710D01*
X528997Y439710D01*
X529997D01*
Y440710D01*
X528997Y441710D01*
X529997Y442710D01*
Y443710D01*
X528997D01*
X527997Y442710D01*
X526997Y443710D01*
X525997D01*
Y442710D01*
X526997Y441710D01*
X525997Y440710D01*
Y439710D01*
X524413Y439716D02*
X525413D01*
X526413Y440716D01*
X527413Y439716D01*
X528413D01*
Y440716D01*
X527413Y441716D01*
X528413Y442716D01*
Y443716D01*
X527413D01*
X526413Y442716D01*
X525413Y443716D01*
X524413D01*
Y442716D01*
X525413Y441716D01*
X524413Y440716D01*
Y439716D01*
X524422Y441291D02*
X525421D01*
X526421Y442291D01*
X527422Y441291D01*
X528421D01*
Y442291D01*
X527422Y443291D01*
X528421Y444291D01*
Y445291D01*
X527422D01*
X526421Y444291D01*
X525421Y445291D01*
X524422D01*
Y444291D01*
X525421Y443291D01*
X524422Y442291D01*
Y441291D01*
X524413Y442859D02*
X525413D01*
X526413Y443859D01*
X527413Y442859D01*
X528413D01*
Y443859D01*
X527413Y444859D01*
X528413Y445859D01*
Y446859D01*
X527413D01*
X526413Y445859D01*
X525413Y446859D01*
X524413D01*
Y445859D01*
X525413Y444859D01*
X524413Y443859D01*
Y442859D01*
X522841Y433414D02*
X523841D01*
X524841Y434414D01*
X525841Y433414D01*
X526841D01*
Y434414D01*
X525841Y435414D01*
X526841Y436414D01*
Y437414D01*
X525841D01*
X524841Y436414D01*
X523841Y437414D01*
X522841D01*
Y436414D01*
X523841Y435414D01*
X522841Y434414D01*
Y433414D01*
X532290D02*
X533290D01*
X534290Y434414D01*
X535290Y433414D01*
X536290D01*
Y434414D01*
X535290Y435414D01*
X536290Y436414D01*
Y437414D01*
X535290D01*
X534290Y436414D01*
X533290Y437414D01*
X532290D01*
Y436414D01*
X533290Y435414D01*
X532290Y434414D01*
Y433414D01*
Y441288D02*
X533290D01*
X534290Y442288D01*
X535290Y441288D01*
X536290D01*
Y442288D01*
X535290Y443288D01*
X536290Y444288D01*
Y445288D01*
X535290D01*
X534290Y444288D01*
X533290Y445288D01*
X532290D01*
Y444288D01*
X533290Y443288D01*
X532290Y442288D01*
Y441288D01*
X522841D02*
X523841D01*
X524841Y442288D01*
X525841Y441288D01*
X526841D01*
Y442288D01*
X525841Y443288D01*
X526841Y444288D01*
Y445288D01*
X525841D01*
X524841Y444288D01*
X523841Y445288D01*
X522841D01*
Y444288D01*
X523841Y443288D01*
X522841Y442288D01*
Y441288D01*
X527566Y438139D02*
X528566D01*
X529566Y439139D01*
X530566Y438139D01*
X531566D01*
Y439139D01*
X530566Y440139D01*
X531566Y441139D01*
Y442139D01*
X530566D01*
X529566Y441139D01*
X528566Y442139D01*
X527566D01*
Y441139D01*
X528566Y440139D01*
X527566Y439139D01*
Y438139D01*
X525991D02*
X526991D01*
X527991Y439139D01*
X528991Y438139D01*
X529991D01*
Y439139D01*
X528991Y440139D01*
X529991Y441139D01*
Y442139D01*
X528991D01*
X527991Y441139D01*
X526991Y442139D01*
X525991D01*
Y441139D01*
X526991Y440139D01*
X525991Y439139D01*
Y438139D01*
Y436564D02*
X526991D01*
X527991Y437564D01*
X528991Y436564D01*
X529991D01*
Y437564D01*
X528991Y438564D01*
X529991Y439564D01*
Y440564D01*
X528991D01*
X527991Y439564D01*
X526991Y440564D01*
X525991D01*
Y439564D01*
X526991Y438564D01*
X525991Y437564D01*
Y436564D01*
X527566D02*
X528566D01*
X529566Y437564D01*
X530566Y436564D01*
X531566D01*
Y437564D01*
X530566Y438564D01*
X531566Y439564D01*
Y440564D01*
X530566D01*
X529566Y439564D01*
X528566Y440564D01*
X527566D01*
Y439564D01*
X528566Y438564D01*
X527566Y437564D01*
Y436564D01*
X529141D02*
X530140D01*
X531141Y437564D01*
X532140Y436564D01*
X533141D01*
Y437564D01*
X532140Y438564D01*
X533141Y439564D01*
Y440564D01*
X532140D01*
X531141Y439564D01*
X530140Y440564D01*
X529141D01*
Y439564D01*
X530140Y438564D01*
X529141Y437564D01*
Y436564D01*
M02*
