M48
;Layer_Color=9474304
;FILE_FORMAT=2:5
INCH,LZ
;TYPE=PLATED
T01F00S00C0.00394
T02F00S00C0.00591
%
T01
X0528495Y0343228
X0531645
X0528495Y0346378
X0532715Y0436989
Y0438564
X053429Y0440139
X0532715Y0441713
X0526416
Y0444863
T02
X0522617Y0426176
X0522704Y0427908
X0524536Y0427875
X0524525Y0426088
X053188Y0426123
X0531967Y0427854
X05338Y0427821
X0533789Y0426035
X0529414Y0450944
X0529409Y0452579
X0527479Y0452697
X0527488Y0450966
M30
