M48
;Layer_Color=9474304
;FILE_FORMAT=2:5
INCH,LZ
;TYPE=PLATED
T02F00S00C0.00591
%
T02
X0528467Y0343157
X0528463Y0348032
X0531865Y0344842
X0531738Y042597
X053176Y0427923
X0533647Y0427925
X0533756Y0425906
X0524593Y0425966
X0522575Y0426029
X0522597Y0427983
X0524484Y0427985
X0526413Y0441716
X0526413Y0444859
X0527489Y0450805
X0527512Y0452759
X0529399Y045276
X0529508Y0450742
X0532715Y0441712
X0534289Y044014
X05327Y0436983
M30
