G04*
G04 #@! TF.GenerationSoftware,Altium Limited,Altium Designer,25.0.2 (28)*
G04*
G04 Layer_Color=2752767*
%FSLAX25Y25*%
%MOIN*%
G70*
G04*
G04 #@! TF.SameCoordinates,87923E48-DD16-4358-96D2-8F0FF9BFB88F*
G04*
G04*
G04 #@! TF.FilePolarity,Positive*
G04*
G01*
G75*
%ADD16C,0.00500*%
D16*
X528133Y349521D02*
Y348521D01*
X530133D01*
Y349521D01*
X531133D01*
Y351521D01*
X530133D01*
Y352521D01*
X528133D01*
Y351521D01*
X527133D01*
Y349521D01*
X528133D01*
X532713Y348598D02*
X534713Y350598D01*
X536713Y348598D01*
X534713Y346598D01*
X532713Y348598D01*
X544690Y446499D02*
X546690Y448499D01*
X548690Y446499D01*
X546690Y444499D01*
X544690Y446499D01*
X491707Y402306D02*
X493707Y404306D01*
X495707Y402306D01*
X493707Y400306D01*
X491707Y402306D01*
X528070Y346378D02*
X530070Y348378D01*
X532070Y346378D01*
X530070Y344378D01*
X528070Y346378D01*
Y344802D02*
X530070Y346802D01*
X532070Y344802D01*
X530070Y342802D01*
X528070Y344802D01*
X527175Y334431D02*
X529175Y336431D01*
X531175Y334431D01*
X529175Y332431D01*
X527175Y334431D01*
X518818Y432366D02*
X520818Y434366D01*
X522818Y432366D01*
X520818Y430366D01*
X518818Y432366D01*
X520740Y443281D02*
Y442281D01*
X522740D01*
Y443281D01*
X523740D01*
Y445281D01*
X522740D01*
Y446281D01*
X520740D01*
Y445281D01*
X519740D01*
Y443281D01*
X520740D01*
X525959Y349768D02*
Y348768D01*
X527959D01*
Y349768D01*
X528959D01*
Y351768D01*
X527959D01*
Y352768D01*
X525959D01*
Y351768D01*
X524959D01*
Y349768D01*
X525959D01*
X511606Y333650D02*
X513606Y335650D01*
X515606Y333650D01*
X513606Y331650D01*
X511606Y333650D01*
X524920Y341653D02*
X526920Y343653D01*
X528920Y341653D01*
X526920Y339653D01*
X524920Y341653D01*
X523346Y347953D02*
X525346Y349953D01*
X527346Y347953D01*
X525346Y345953D01*
X523346Y347953D01*
X524912Y344803D02*
X526912Y346803D01*
X528912Y344803D01*
X526912Y342803D01*
X524912Y344803D01*
X531220Y341645D02*
X533220Y343645D01*
X535220Y341645D01*
X533220Y339645D01*
X531220Y341645D01*
X529645Y341653D02*
X531645Y343653D01*
X533645Y341653D01*
X531645Y339653D01*
X529645Y341653D01*
X528070Y343228D02*
X530070Y345228D01*
X532070Y343228D01*
X530070Y341228D01*
X528070Y343228D01*
Y341653D02*
X530070Y343653D01*
X532070Y341653D01*
X530070Y339653D01*
X528070Y341653D01*
X524920Y343228D02*
X526920Y345228D01*
X528920Y343228D01*
X526920Y341228D01*
X524920Y343228D01*
X527566Y436989D02*
X529566Y438989D01*
X531566Y436989D01*
X529566Y434989D01*
X527566Y436989D01*
X525991D02*
X527991Y438989D01*
X529991Y436989D01*
X527991Y434989D01*
X525991Y436989D01*
Y441713D02*
X527991Y443713D01*
X529991Y441713D01*
X527991Y439713D01*
X525991Y441713D01*
X514808Y433616D02*
X516808Y435616D01*
X518808Y433616D01*
X516808Y431616D01*
X514808Y433616D01*
X524416Y436989D02*
X526416Y438989D01*
X528416Y436989D01*
X526416Y434989D01*
X524416Y436989D01*
X525991Y435414D02*
X527991Y437414D01*
X529991Y435414D01*
X527991Y433414D01*
X525991Y435414D01*
X524416Y443288D02*
X526416Y445288D01*
X528416Y443288D01*
X526416Y441288D01*
X524416Y443288D01*
X530715Y435414D02*
X532715Y437414D01*
X534715Y435414D01*
X532715Y433414D01*
X530715Y435414D01*
X529141Y440139D02*
X531141Y442139D01*
X533141Y440139D01*
X531141Y438139D01*
X529141Y440139D01*
Y441713D02*
X531141Y443713D01*
X533141Y441713D01*
X531141Y439713D01*
X529141Y441713D01*
X530715Y440139D02*
X532715Y442139D01*
X534715Y440139D01*
X532715Y438139D01*
X530715Y440139D01*
M02*
