G04*
G04 #@! TF.GenerationSoftware,Altium Limited,Altium Designer,25.0.2 (28)*
G04*
G04 Layer_Color=128*
%FSLAX25Y25*%
%MOIN*%
G70*
G04*
G04 #@! TF.SameCoordinates,87923E48-DD16-4358-96D2-8F0FF9BFB88F*
G04*
G04*
G04 #@! TF.FilePolarity,Positive*
G04*
G01*
G75*
%ADD16C,0.00500*%
D16*
X529114Y452579D02*
X529704D01*
X529409Y452283D02*
Y452874D01*
X529119Y450944D02*
X529709D01*
X529414Y450648D02*
Y451239D01*
X524241Y427875D02*
X524831D01*
X524536Y427580D02*
Y428170D01*
X524230Y426088D02*
X524820D01*
X524525Y425793D02*
Y426383D01*
X522322Y426176D02*
X522912D01*
X522617Y425881D02*
Y426472D01*
X522408Y427908D02*
X522999D01*
X522704Y427613D02*
Y428203D01*
X531672Y427854D02*
X532263D01*
X531967Y427559D02*
Y428150D01*
X531585Y426123D02*
X532176D01*
X531880Y425828D02*
Y426418D01*
X533493Y426035D02*
X534084D01*
X533789Y425739D02*
Y426330D01*
X533504Y427821D02*
X534095D01*
X533800Y427526D02*
Y428117D01*
X527193Y450966D02*
X527783D01*
X527488Y450670D02*
Y451261D01*
X527184Y452697D02*
X527774D01*
X527479Y452402D02*
Y452992D01*
X534093Y440139D02*
X534487D01*
X534290Y439942D02*
Y440336D01*
X531448Y343228D02*
X531842D01*
X531645Y343031D02*
Y343425D01*
X528298Y343228D02*
X528692D01*
X528495Y343031D02*
Y343425D01*
X528298Y346378D02*
X528692D01*
X528495Y346181D02*
Y346574D01*
X532518Y436989D02*
X532912D01*
X532715Y436792D02*
Y437186D01*
X532518Y438564D02*
X532912D01*
X532715Y438367D02*
Y438761D01*
X532518Y441713D02*
X532912D01*
X532715Y441517D02*
Y441910D01*
X526219Y441713D02*
X526613D01*
X526416Y441517D02*
Y441910D01*
X526219Y444863D02*
X526613D01*
X526416Y444666D02*
Y445060D01*
M02*
