G04*
G04 #@! TF.GenerationSoftware,Altium Limited,Altium Designer,25.0.2 (28)*
G04*
G04 Layer_Physical_Order=3*
G04 Layer_Color=36540*
%FSLAX25Y25*%
%MOIN*%
G70*
G04*
G04 #@! TF.SameCoordinates,87923E48-DD16-4358-96D2-8F0FF9BFB88F*
G04*
G04*
G04 #@! TF.FilePolarity,Positive*
G04*
G01*
G75*
%ADD14C,0.00400*%
%ADD16C,0.00500*%
%ADD93C,0.01500*%
%ADD94C,0.00432*%
%ADD96C,0.00700*%
%ADD98C,0.00389*%
%ADD100C,0.01200*%
%ADD102C,0.00800*%
%ADD104O,0.07100X0.03900*%
%ADD105O,0.08700X0.03900*%
%ADD106C,0.06299*%
%ADD107R,0.06299X0.06299*%
%ADD108C,0.01378*%
%ADD109C,0.01772*%
%ADD110C,0.02000*%
%ADD111C,0.01181*%
%ADD112C,0.00984*%
G36*
X569278Y341065D02*
X568978Y341005D01*
X568877Y341249D01*
X568455Y341671D01*
X567903Y341899D01*
X567307D01*
X566755Y341671D01*
X566333Y341249D01*
X566105Y340697D01*
Y340101D01*
X566333Y339549D01*
X566755Y339127D01*
X567307Y338899D01*
X567903D01*
X568455Y339127D01*
X568877Y339549D01*
X568978Y339793D01*
X569278Y339733D01*
Y256686D01*
X452603D01*
Y470006D01*
X569278D01*
Y341065D01*
D02*
G37*
%LPC*%
G36*
X457684Y466687D02*
X456723D01*
X455795Y466438D01*
X454963Y465957D01*
X454283Y465278D01*
X453803Y464446D01*
X453554Y463517D01*
Y462557D01*
X453803Y461628D01*
X454283Y460796D01*
X454963Y460117D01*
X455795Y459636D01*
X456723Y459387D01*
X457684D01*
X458612Y459636D01*
X459445Y460117D01*
X460124Y460796D01*
X460605Y461628D01*
X460853Y462557D01*
Y463517D01*
X460605Y464446D01*
X460124Y465278D01*
X459445Y465957D01*
X458612Y466438D01*
X457684Y466687D01*
D02*
G37*
G36*
X556783Y458395D02*
X556186D01*
X555635Y458167D01*
X555213Y457745D01*
X554985Y457193D01*
Y456597D01*
X555213Y456045D01*
X555635Y455623D01*
X556186Y455395D01*
X556783D01*
X557334Y455623D01*
X557756Y456045D01*
X557985Y456597D01*
Y457193D01*
X557756Y457745D01*
X557334Y458167D01*
X556783Y458395D01*
D02*
G37*
G36*
X561303Y458333D02*
X560706D01*
X560155Y458104D01*
X559733Y457682D01*
X559505Y457131D01*
Y456534D01*
X559733Y455983D01*
X560155Y455561D01*
X560706Y455333D01*
X561303D01*
X561854Y455561D01*
X562276Y455983D01*
X562505Y456534D01*
Y457131D01*
X562276Y457682D01*
X561854Y458104D01*
X561303Y458333D01*
D02*
G37*
G36*
X460753Y456587D02*
X457704D01*
Y453537D01*
X460753D01*
Y456587D01*
D02*
G37*
G36*
X456704D02*
X453654D01*
Y453537D01*
X456704D01*
Y456587D01*
D02*
G37*
G36*
X565395Y455025D02*
X564798D01*
X564247Y454797D01*
X563825Y454375D01*
X563596Y453824D01*
Y453227D01*
X563825Y452676D01*
X564247Y452254D01*
X564798Y452025D01*
X565395D01*
X565946Y452254D01*
X566368Y452676D01*
X566597Y453227D01*
Y453824D01*
X566368Y454375D01*
X565946Y454797D01*
X565395Y455025D01*
D02*
G37*
G36*
X527696Y453788D02*
X527262D01*
X526861Y453622D01*
X526554Y453315D01*
X526389Y452914D01*
Y452480D01*
X526554Y452079D01*
X526807Y451827D01*
X526564Y451583D01*
X526398Y451183D01*
Y450749D01*
X526564Y450348D01*
X526870Y450041D01*
X527271Y449875D01*
X527705D01*
X528106Y450041D01*
X528244Y450179D01*
X528463Y450310D01*
X528636Y450179D01*
X528796Y450019D01*
X529197Y449853D01*
X529631D01*
X530032Y450019D01*
X530338Y450326D01*
X530504Y450727D01*
Y451161D01*
X530338Y451561D01*
X530136Y451764D01*
X530333Y451961D01*
X530499Y452362D01*
Y452796D01*
X530333Y453196D01*
X530027Y453503D01*
X529626Y453669D01*
X529192D01*
X528791Y453503D01*
X528692Y453404D01*
X528404Y453315D01*
X528097Y453622D01*
X527696Y453788D01*
D02*
G37*
G36*
X460753Y452537D02*
X457704D01*
Y449487D01*
X460753D01*
Y452537D01*
D02*
G37*
G36*
X456704D02*
X453654D01*
Y449487D01*
X456704D01*
Y452537D01*
D02*
G37*
G36*
X503325Y447195D02*
X502773D01*
X502264Y446984D01*
X501874Y446594D01*
X501663Y446085D01*
Y445533D01*
X501874Y445024D01*
X502264Y444634D01*
X502773Y444423D01*
X503325D01*
X503834Y444634D01*
X504030Y444830D01*
X504237Y445011D01*
X504422Y444830D01*
X504630Y444623D01*
X505139Y444412D01*
X505690D01*
X506200Y444623D01*
X506589Y445013D01*
X506800Y445522D01*
Y446073D01*
X506589Y446583D01*
X506200Y446973D01*
X505690Y447184D01*
X505139D01*
X504630Y446973D01*
X504433Y446776D01*
X504226Y446596D01*
X504041Y446776D01*
X503834Y446984D01*
X503325Y447195D01*
D02*
G37*
G36*
X536248Y456249D02*
X535775D01*
X535338Y456068D01*
X535003Y455733D01*
X534822Y455296D01*
Y454823D01*
X535003Y454386D01*
X535100Y454289D01*
X535136Y454196D01*
X535166Y454164D01*
X535178Y454149D01*
X535188Y454134D01*
X535196Y454120D01*
X535202Y454107D01*
X535208Y454092D01*
X535212Y454074D01*
X535216Y454055D01*
X535219Y454032D01*
X535220Y453985D01*
X535247Y453928D01*
Y447941D01*
X530751Y443445D01*
X530451Y443570D01*
Y446382D01*
X533081Y449012D01*
X533247Y449260D01*
X533305Y449552D01*
X533305Y449552D01*
Y453813D01*
X533313Y453824D01*
X533305Y453885D01*
X533331Y453941D01*
X533332Y453986D01*
X533334Y454002D01*
X533335Y454003D01*
X533354Y454016D01*
X533380Y454054D01*
X533712Y454386D01*
X533893Y454823D01*
Y455296D01*
X533712Y455733D01*
X533378Y456068D01*
X532941Y456249D01*
X532468D01*
X532031Y456068D01*
X531696Y455733D01*
X531515Y455296D01*
Y454823D01*
X531637Y454530D01*
X531651Y454424D01*
X531676Y454381D01*
X531692Y454350D01*
X531706Y454320D01*
X531717Y454290D01*
X531727Y454259D01*
X531734Y454229D01*
X531741Y454197D01*
X531745Y454165D01*
X531748Y454131D01*
X531749Y454081D01*
X531775Y454022D01*
Y449869D01*
X529145Y447239D01*
X528980Y446991D01*
X528922Y446699D01*
Y446152D01*
X528800Y446110D01*
X528621Y446102D01*
X528496Y446291D01*
X526531Y448255D01*
X526300Y448410D01*
X526026Y448464D01*
X525227D01*
X525191Y448485D01*
X525163Y448478D01*
X525136Y448491D01*
X525102Y448493D01*
X525097Y448493D01*
X525094Y448494D01*
X525090Y448496D01*
X525085Y448498D01*
X525076Y448503D01*
X525065Y448513D01*
X525049Y448527D01*
X525030Y448548D01*
X524997Y448590D01*
X524903Y448643D01*
X524688Y448858D01*
X524251Y449039D01*
X523778D01*
X523341Y448858D01*
X523007Y448523D01*
X522826Y448086D01*
Y447613D01*
X523007Y447176D01*
X523341Y446842D01*
X523778Y446661D01*
X524251D01*
X524688Y446842D01*
X524693Y446846D01*
X524740Y446857D01*
X524853Y446935D01*
X524886Y446954D01*
X524921Y446972D01*
X524952Y446986D01*
X524979Y446996D01*
X525002Y447002D01*
X525021Y447006D01*
X525036Y447008D01*
X525072Y447010D01*
X525130Y447037D01*
X525731D01*
X526612Y446155D01*
X526488Y445855D01*
X526219D01*
X525854Y445704D01*
X525745Y445595D01*
X525441Y445513D01*
X525338Y445580D01*
X525142Y445712D01*
X524791Y445781D01*
X522480D01*
X522128Y445712D01*
X521831Y445512D01*
X521788Y445470D01*
X521504D01*
X521067Y445289D01*
X520732Y444954D01*
X520551Y444517D01*
Y444044D01*
X520732Y443607D01*
X521067Y443273D01*
X521504Y443092D01*
X521977D01*
X522414Y443273D01*
X522748Y443607D01*
X522889Y443946D01*
X524627D01*
X525424Y443149D01*
Y443091D01*
X525575Y442726D01*
X525800Y442501D01*
X525575Y442275D01*
X525424Y441911D01*
Y441516D01*
X525575Y441152D01*
X525854Y440872D01*
X526219Y440721D01*
X526613D01*
X526978Y440872D01*
X527204Y441098D01*
X527429Y440872D01*
X527794Y440721D01*
X528188D01*
X528553Y440872D01*
X528764Y441083D01*
X529048Y441099D01*
X529127Y441080D01*
X529145Y441052D01*
X529363Y440907D01*
X530148Y440121D01*
Y439941D01*
X530299Y439577D01*
X530579Y439298D01*
X530943Y439147D01*
X531338D01*
X531620Y439263D01*
X531840Y439043D01*
X531723Y438761D01*
Y438367D01*
X531874Y438002D01*
X532100Y437776D01*
X531874Y437551D01*
X531723Y437186D01*
Y436792D01*
X531874Y436427D01*
X531938Y436364D01*
X531922Y436207D01*
X531679Y435843D01*
X531594Y435414D01*
X531679Y434985D01*
X531922Y434621D01*
X535653Y430891D01*
X535672Y430792D01*
X535949Y430378D01*
X537051Y429276D01*
Y426537D01*
X536939Y426268D01*
Y425717D01*
X537150Y425208D01*
X537540Y424818D01*
X538050Y424607D01*
X538601D01*
X539110Y424818D01*
X539500Y425208D01*
X539711Y425717D01*
Y426268D01*
X539600Y426537D01*
Y429804D01*
X539503Y430292D01*
X539226Y430705D01*
X537751Y432181D01*
X537338Y432457D01*
X537239Y432477D01*
X533508Y436207D01*
X533493Y436364D01*
X533556Y436427D01*
X533707Y436792D01*
Y437186D01*
X533556Y437551D01*
X533331Y437776D01*
X533556Y438002D01*
X533707Y438367D01*
Y438761D01*
X533591Y439043D01*
X533811Y439263D01*
X534093Y439147D01*
X534487D01*
X534852Y439298D01*
X535131Y439577D01*
X535282Y439941D01*
Y440336D01*
X535237Y440445D01*
X535438Y440744D01*
X535736D01*
X537307Y439173D01*
X537330Y439113D01*
X537361Y439080D01*
X537376Y439062D01*
X537387Y439047D01*
X537394Y439036D01*
X537397Y439031D01*
X537398Y439018D01*
X537400Y439012D01*
X537400Y439012D01*
X537401Y439011D01*
X537438Y438929D01*
Y438816D01*
X537605Y438415D01*
X537911Y438108D01*
X538312Y437942D01*
X538746D01*
X539147Y438108D01*
X539428Y438389D01*
X539617Y438427D01*
X539865Y438593D01*
X546668Y445396D01*
X546727Y445417D01*
X546789Y445475D01*
X546800Y445484D01*
X546809Y445491D01*
X546816Y445494D01*
X546818Y445496D01*
X546827Y445501D01*
X546832Y445507D01*
X546887D01*
X547252Y445658D01*
X547531Y445937D01*
X547682Y446302D01*
Y446697D01*
X547531Y447061D01*
X547252Y447340D01*
X546887Y447491D01*
X546493D01*
X546128Y447340D01*
X545849Y447061D01*
X545698Y446697D01*
Y446641D01*
X545692Y446636D01*
X545687Y446628D01*
X545685Y446626D01*
X545682Y446619D01*
X545679Y446614D01*
X545641Y446569D01*
X545615Y446543D01*
X545591Y446482D01*
X539090Y439981D01*
X538746Y440123D01*
X538632D01*
X538551Y440161D01*
X538550Y440161D01*
X538550Y440161D01*
X538544Y440164D01*
X538531Y440164D01*
X538525Y440167D01*
X538515Y440174D01*
X538500Y440185D01*
X538481Y440201D01*
X538449Y440231D01*
X538389Y440254D01*
X536644Y441999D01*
X536396Y442165D01*
X536103Y442223D01*
X535847Y442172D01*
X534035D01*
X533762Y442118D01*
X533602Y442166D01*
X533556Y442275D01*
X533277Y442555D01*
X532913Y442706D01*
X532598D01*
X532460Y442944D01*
X532451Y442983D01*
X536552Y447083D01*
X536718Y447331D01*
X536776Y447624D01*
Y453928D01*
X536802Y453985D01*
X536804Y454032D01*
X536806Y454055D01*
X536810Y454074D01*
X536814Y454092D01*
X536820Y454107D01*
X536826Y454120D01*
X536834Y454134D01*
X536844Y454149D01*
X536857Y454164D01*
X536886Y454196D01*
X536922Y454289D01*
X537019Y454386D01*
X537200Y454823D01*
Y455296D01*
X537019Y455733D01*
X536685Y456068D01*
X536248Y456249D01*
D02*
G37*
G36*
X514247Y440836D02*
X513695D01*
X513186Y440625D01*
X512796Y440235D01*
X512585Y439726D01*
Y439175D01*
X512796Y438665D01*
X513186Y438275D01*
X513695Y438064D01*
X514247D01*
X514756Y438275D01*
X514976Y438495D01*
X515330Y438425D01*
X515355Y438363D01*
X515745Y437974D01*
X516254Y437763D01*
X516805D01*
X517315Y437974D01*
X517705Y438363D01*
X517915Y438873D01*
Y439424D01*
X517705Y439933D01*
X517315Y440323D01*
X516805Y440534D01*
X516254D01*
X515745Y440323D01*
X515525Y440103D01*
X515171Y440174D01*
X515146Y440235D01*
X514756Y440625D01*
X514247Y440836D01*
D02*
G37*
G36*
X529763Y437981D02*
X529368D01*
X529004Y437830D01*
X528778Y437605D01*
X528553Y437830D01*
X528188Y437981D01*
X527794D01*
X527429Y437830D01*
X527204Y437605D01*
X526978Y437830D01*
X526613Y437981D01*
X526219D01*
X525854Y437830D01*
X525575Y437551D01*
X525424Y437186D01*
Y437131D01*
X525418Y437126D01*
X525413Y437118D01*
X525411Y437116D01*
X525408Y437108D01*
X525405Y437104D01*
X525367Y437059D01*
X525341Y437033D01*
X525317Y436972D01*
X522726Y434380D01*
X517605D01*
X517548Y434407D01*
X517463Y434410D01*
X517449Y434411D01*
X517437Y434413D01*
X517430Y434416D01*
X517427Y434416D01*
X517417Y434418D01*
X517410Y434418D01*
X517370Y434457D01*
X517006Y434608D01*
X516611D01*
X516247Y434457D01*
X515967Y434178D01*
X515816Y433813D01*
Y433418D01*
X515967Y433054D01*
X516247Y432775D01*
X516611Y432624D01*
X517006D01*
X517370Y432775D01*
X517410Y432814D01*
X517418Y432813D01*
X517427Y432816D01*
X517430Y432816D01*
X517437Y432819D01*
X517442Y432819D01*
X517500Y432824D01*
X517537Y432825D01*
X517598Y432851D01*
X519675D01*
X519841Y432602D01*
X519825Y432563D01*
Y432168D01*
X519976Y431804D01*
X520256Y431525D01*
X520620Y431374D01*
X521015D01*
X521380Y431525D01*
X521518Y431663D01*
X521558Y431667D01*
X521591Y431667D01*
X521643Y431690D01*
X521698Y431680D01*
X521717Y431694D01*
X523460D01*
X523753Y431752D01*
X524001Y431918D01*
X526733Y434650D01*
X527195D01*
X527252Y434623D01*
X527337Y434620D01*
X527351Y434619D01*
X527362Y434617D01*
X527370Y434614D01*
X527373Y434614D01*
X527382Y434612D01*
X527390Y434612D01*
X527429Y434573D01*
X527794Y434422D01*
X528188D01*
X528237Y434390D01*
X528264Y434043D01*
X525911Y431690D01*
X525757Y431459D01*
X525702Y431185D01*
Y428643D01*
X525675Y428626D01*
X525402Y428551D01*
X525154Y428799D01*
X524753Y428966D01*
X524319D01*
X523918Y428799D01*
X523642Y428523D01*
X523628Y428526D01*
X523322Y428832D01*
X522921Y428999D01*
X522487D01*
X522086Y428832D01*
X521779Y428526D01*
X521613Y428125D01*
Y427691D01*
X521779Y427290D01*
X521984Y427086D01*
X521692Y426794D01*
X521526Y426393D01*
Y425959D01*
X521692Y425559D01*
X521999Y425252D01*
X522400Y425086D01*
X522834D01*
X523235Y425252D01*
X523331Y425348D01*
X523600Y425470D01*
X523723Y425348D01*
X523907Y425164D01*
X524308Y424998D01*
X524742D01*
X525143Y425164D01*
X525402Y425423D01*
X525626Y425374D01*
X525702Y425331D01*
Y419260D01*
X512336Y405894D01*
X496582D01*
X496309Y405840D01*
X496077Y405685D01*
X493783Y403391D01*
X493721Y403368D01*
X493698Y403345D01*
X493688Y403338D01*
X493687Y403336D01*
X493685Y403336D01*
X493681Y403334D01*
X493676Y403333D01*
X493672Y403330D01*
X493669Y403329D01*
X493665Y403326D01*
X493664Y403325D01*
X493663Y403325D01*
X493604Y403298D01*
X493510D01*
X493145Y403147D01*
X492866Y402868D01*
X492715Y402503D01*
Y402108D01*
X492866Y401744D01*
X493145Y401465D01*
X493510Y401314D01*
X493904D01*
X494269Y401465D01*
X494548Y401744D01*
X494699Y402108D01*
Y402202D01*
X494727Y402262D01*
X494727Y402262D01*
X494727Y402264D01*
X494731Y402268D01*
X494732Y402271D01*
X494734Y402275D01*
X494735Y402279D01*
X494738Y402283D01*
X494738Y402285D01*
X494739Y402287D01*
X494747Y402296D01*
X494769Y402320D01*
X494793Y402382D01*
X496878Y404467D01*
X512632D01*
X512905Y404521D01*
X513137Y404676D01*
X526921Y418460D01*
X527075Y418691D01*
X527130Y418965D01*
Y430890D01*
X528792Y432552D01*
X529069Y432437D01*
Y413888D01*
X529124Y413615D01*
X529278Y413383D01*
X530909Y411752D01*
X530931Y411693D01*
X530955Y411667D01*
X530961Y411659D01*
X530967Y411649D01*
X530973Y411636D01*
X530979Y411620D01*
X530986Y411598D01*
X530992Y411571D01*
X530997Y411538D01*
X531000Y411498D01*
X531001Y411437D01*
X531042Y411343D01*
Y411203D01*
X531223Y410767D01*
X531557Y410432D01*
X531994Y410251D01*
X532467D01*
X532904Y410432D01*
X533239Y410767D01*
X533420Y411203D01*
Y411677D01*
X533239Y412114D01*
X532904Y412448D01*
X532467Y412629D01*
X532328D01*
X532234Y412670D01*
X532173Y412671D01*
X532133Y412674D01*
X532100Y412679D01*
X532073Y412685D01*
X532051Y412691D01*
X532034Y412698D01*
X532022Y412704D01*
X532012Y412710D01*
X532004Y412716D01*
X531978Y412740D01*
X531919Y412761D01*
X530497Y414184D01*
Y425889D01*
X530790Y425906D01*
X530956Y425505D01*
X531263Y425198D01*
X531664Y425032D01*
X532097D01*
X532498Y425198D01*
X532594Y425294D01*
X532864Y425417D01*
X532986Y425294D01*
X533171Y425110D01*
X533572Y424944D01*
X534005D01*
X534406Y425110D01*
X534713Y425417D01*
X534879Y425818D01*
Y426252D01*
X534713Y426652D01*
X534443Y426923D01*
X534724Y427204D01*
X534890Y427605D01*
Y428038D01*
X534724Y428439D01*
X534417Y428746D01*
X534017Y428912D01*
X533583D01*
X533182Y428746D01*
X532905Y428470D01*
X532892Y428472D01*
X532585Y428779D01*
X532184Y428945D01*
X531750D01*
X531350Y428779D01*
X531043Y428472D01*
X530877Y428071D01*
Y427637D01*
X531043Y427237D01*
X531247Y427032D01*
X530956Y426741D01*
X530790Y426340D01*
X530497Y426356D01*
Y436157D01*
X530442Y436430D01*
X530421Y436462D01*
X530558Y436792D01*
Y437186D01*
X530407Y437551D01*
X530128Y437830D01*
X529763Y437981D01*
D02*
G37*
G36*
X551890Y442046D02*
X551338D01*
X550829Y441835D01*
X550439Y441445D01*
X550228Y440936D01*
Y440384D01*
X550439Y439875D01*
X550829Y439485D01*
X551158Y439349D01*
X551017Y439009D01*
Y438458D01*
X551228Y437949D01*
X551618Y437559D01*
X552127Y437348D01*
X552678D01*
X553188Y437559D01*
X553578Y437949D01*
X553789Y438458D01*
Y439009D01*
X553578Y439519D01*
X553188Y439909D01*
X552859Y440045D01*
X553000Y440384D01*
Y440936D01*
X552789Y441445D01*
X552399Y441835D01*
X551890Y442046D01*
D02*
G37*
G36*
X503988Y439899D02*
X503437D01*
X502927Y439688D01*
X502538Y439298D01*
X502327Y438789D01*
Y438237D01*
X502538Y437728D01*
X502927Y437338D01*
X503437Y437127D01*
X503988D01*
X504497Y437338D01*
X504887Y437728D01*
X505098Y438237D01*
Y438789D01*
X504887Y439298D01*
X504497Y439688D01*
X503988Y439899D01*
D02*
G37*
G36*
X479385Y441155D02*
X476185D01*
X475229Y440965D01*
X474418Y440424D01*
X473877Y439613D01*
X473687Y438657D01*
X473877Y437702D01*
X474418Y436891D01*
X475229Y436349D01*
X476185Y436159D01*
X479385D01*
X480340Y436349D01*
X481151Y436891D01*
X481692Y437702D01*
X481883Y438657D01*
X481692Y439613D01*
X481151Y440424D01*
X480340Y440965D01*
X479385Y441155D01*
D02*
G37*
G36*
X464436D02*
X459636D01*
X458681Y440965D01*
X457870Y440424D01*
X457329Y439613D01*
X457138Y438657D01*
X457329Y437702D01*
X457870Y436891D01*
X458681Y436349D01*
X459636Y436159D01*
X464436D01*
X465392Y436349D01*
X466203Y436891D01*
X466744Y437702D01*
X466934Y438657D01*
X466744Y439613D01*
X466203Y440424D01*
X465392Y440965D01*
X464436Y441155D01*
D02*
G37*
G36*
X498043Y428811D02*
X497492D01*
X496983Y428600D01*
X496593Y428210D01*
X496382Y427701D01*
Y427149D01*
X496593Y426640D01*
X496983Y426250D01*
X497492Y426039D01*
X498043D01*
X498553Y426250D01*
X498943Y426640D01*
X499154Y427149D01*
Y427701D01*
X498943Y428210D01*
X498553Y428600D01*
X498043Y428811D01*
D02*
G37*
G36*
X551393Y427078D02*
X550841D01*
X550332Y426867D01*
X549942Y426478D01*
X549731Y425968D01*
Y425417D01*
X549942Y424908D01*
X550332Y424518D01*
X550841Y424307D01*
X551393D01*
X551902Y424518D01*
X552292Y424908D01*
X552503Y425417D01*
Y425968D01*
X552292Y426478D01*
X551902Y426867D01*
X551393Y427078D01*
D02*
G37*
G36*
X543145Y426857D02*
X542594D01*
X542085Y426646D01*
X541695Y426256D01*
X541484Y425747D01*
Y425196D01*
X541695Y424686D01*
X542085Y424297D01*
X542594Y424086D01*
X543145D01*
X543655Y424297D01*
X544045Y424686D01*
X544255Y425196D01*
Y425747D01*
X544045Y426256D01*
X543655Y426646D01*
X543145Y426857D01*
D02*
G37*
G36*
X551361Y423122D02*
X550810D01*
X550300Y422911D01*
X549911Y422521D01*
X549700Y422012D01*
Y421460D01*
X549911Y420951D01*
X550300Y420561D01*
X550810Y420350D01*
X551361D01*
X551870Y420561D01*
X552260Y420951D01*
X552471Y421460D01*
Y422012D01*
X552260Y422521D01*
X551870Y422911D01*
X551361Y423122D01*
D02*
G37*
G36*
X539203Y422548D02*
X538652D01*
X538142Y422337D01*
X537752Y421947D01*
X537541Y421438D01*
Y420887D01*
X537752Y420377D01*
X538142Y419987D01*
X538652Y419776D01*
X538868D01*
X538928Y419476D01*
X538626Y419351D01*
X538236Y418961D01*
X538025Y418452D01*
Y417901D01*
X538236Y417391D01*
X538626Y417002D01*
X538766Y416943D01*
Y416643D01*
X538659Y416599D01*
X538270Y416209D01*
X538059Y415700D01*
Y415148D01*
X538270Y414639D01*
X538659Y414249D01*
X539169Y414038D01*
X539720D01*
X540229Y414249D01*
X540619Y414639D01*
X540830Y415148D01*
Y415700D01*
X540619Y416209D01*
X540229Y416599D01*
X540089Y416657D01*
Y416957D01*
X540196Y417002D01*
X540586Y417391D01*
X540797Y417901D01*
Y418452D01*
X540586Y418961D01*
X540196Y419351D01*
X539687Y419562D01*
X539470D01*
X539410Y419862D01*
X539712Y419987D01*
X540102Y420377D01*
X540313Y420887D01*
Y421438D01*
X540102Y421947D01*
X539712Y422337D01*
X539203Y422548D01*
D02*
G37*
G36*
X543590Y422365D02*
X543039D01*
X542529Y422154D01*
X542139Y421764D01*
X541928Y421254D01*
Y420703D01*
X542139Y420194D01*
X542529Y419804D01*
X542721Y419724D01*
Y419400D01*
X542604Y419351D01*
X542214Y418961D01*
X542003Y418452D01*
Y417901D01*
X542214Y417391D01*
X542604Y417002D01*
X542779Y416929D01*
Y416604D01*
X542646Y416549D01*
X542256Y416159D01*
X542045Y415650D01*
Y415098D01*
X542256Y414589D01*
X542646Y414199D01*
X543155Y413988D01*
X543707D01*
X544216Y414199D01*
X544606Y414589D01*
X544817Y415098D01*
Y415650D01*
X544606Y416159D01*
X544216Y416549D01*
X544041Y416621D01*
Y416946D01*
X544174Y417002D01*
X544564Y417391D01*
X544775Y417901D01*
Y418452D01*
X544564Y418961D01*
X544174Y419351D01*
X543982Y419431D01*
Y419756D01*
X544099Y419804D01*
X544489Y420194D01*
X544700Y420703D01*
Y421254D01*
X544489Y421764D01*
X544099Y422154D01*
X543590Y422365D01*
D02*
G37*
G36*
X547643Y419562D02*
X547092D01*
X546583Y419351D01*
X546193Y418961D01*
X545982Y418452D01*
Y417901D01*
X546193Y417391D01*
X546583Y417002D01*
X546911Y416865D01*
Y416541D01*
X546649Y416432D01*
X546259Y416042D01*
X546048Y415533D01*
Y414982D01*
X546259Y414472D01*
X546649Y414082D01*
X547159Y413871D01*
X547710D01*
X548219Y414082D01*
X548609Y414472D01*
X548820Y414982D01*
Y415533D01*
X548609Y416042D01*
X548219Y416432D01*
X547891Y416568D01*
Y416893D01*
X548152Y417002D01*
X548542Y417391D01*
X548753Y417901D01*
Y418452D01*
X548542Y418961D01*
X548152Y419351D01*
X547643Y419562D01*
D02*
G37*
G36*
X551686Y416018D02*
X551135D01*
X550625Y415807D01*
X550236Y415417D01*
X550025Y414908D01*
Y414356D01*
X550236Y413847D01*
X550625Y413457D01*
X551135Y413246D01*
X551686D01*
X552195Y413457D01*
X552585Y413847D01*
X552796Y414356D01*
Y414908D01*
X552585Y415417D01*
X552195Y415807D01*
X551686Y416018D01*
D02*
G37*
G36*
X547176Y413124D02*
X546625D01*
X546115Y412913D01*
X545726Y412523D01*
X545515Y412013D01*
Y411462D01*
X545726Y410953D01*
X546115Y410563D01*
X546625Y410352D01*
X547176D01*
X547685Y410563D01*
X548075Y410953D01*
X548286Y411462D01*
Y412013D01*
X548075Y412523D01*
X547685Y412913D01*
X547176Y413124D01*
D02*
G37*
G36*
X542625Y413100D02*
X542074D01*
X541565Y412889D01*
X541175Y412499D01*
X540964Y411989D01*
Y411438D01*
X541175Y410929D01*
X541565Y410539D01*
X542074Y410328D01*
X542625D01*
X543135Y410539D01*
X543525Y410929D01*
X543736Y411438D01*
Y411989D01*
X543525Y412499D01*
X543135Y412889D01*
X542625Y413100D01*
D02*
G37*
G36*
X479385Y407140D02*
X476185D01*
X475229Y406950D01*
X474418Y406408D01*
X473877Y405598D01*
X473687Y404642D01*
X473877Y403686D01*
X474418Y402875D01*
X475229Y402334D01*
X476185Y402144D01*
X479385D01*
X480340Y402334D01*
X481151Y402875D01*
X481692Y403686D01*
X481883Y404642D01*
X481692Y405598D01*
X481151Y406408D01*
X480340Y406950D01*
X479385Y407140D01*
D02*
G37*
G36*
X464436D02*
X459636D01*
X458681Y406950D01*
X457870Y406408D01*
X457329Y405598D01*
X457138Y404642D01*
X457329Y403686D01*
X457870Y402875D01*
X458681Y402334D01*
X459636Y402144D01*
X464436D01*
X465392Y402334D01*
X466203Y402875D01*
X466744Y403686D01*
X466934Y404642D01*
X466744Y405598D01*
X466203Y406408D01*
X465392Y406950D01*
X464436Y407140D01*
D02*
G37*
G36*
X513947Y398358D02*
X513350D01*
X512799Y398130D01*
X512543Y397875D01*
X512288Y398130D01*
X511737Y398358D01*
X511140D01*
X510589Y398130D01*
X510167Y397708D01*
X509938Y397157D01*
Y396560D01*
X510167Y396009D01*
X510589Y395587D01*
X511140Y395358D01*
X511737D01*
X512288Y395587D01*
X512543Y395842D01*
X512799Y395587D01*
X513350Y395358D01*
X513947D01*
X514498Y395587D01*
X514920Y396009D01*
X515148Y396560D01*
Y397157D01*
X514920Y397708D01*
X514498Y398130D01*
X513947Y398358D01*
D02*
G37*
G36*
X463143Y394207D02*
X462592D01*
X462082Y393996D01*
X461692Y393606D01*
X461481Y393097D01*
Y392546D01*
X461692Y392037D01*
X462082Y391647D01*
X462592Y391436D01*
X463143D01*
X463652Y391647D01*
X464042Y392037D01*
X464253Y392546D01*
Y393097D01*
X464042Y393606D01*
X463652Y393996D01*
X463143Y394207D01*
D02*
G37*
G36*
X459658Y397252D02*
X459107D01*
X458598Y397042D01*
X458208Y396652D01*
X457997Y396142D01*
Y395591D01*
X458208Y395082D01*
X458598Y394692D01*
X459098Y394484D01*
X459110Y394448D01*
X459131Y394181D01*
X458686Y393996D01*
X458296Y393606D01*
X458085Y393097D01*
Y392546D01*
X458296Y392037D01*
X458686Y391647D01*
X459195Y391436D01*
X459746D01*
X460256Y391647D01*
X460645Y392037D01*
X460856Y392546D01*
Y393097D01*
X460645Y393606D01*
X460256Y393996D01*
X459755Y394204D01*
X459744Y394240D01*
X459722Y394507D01*
X460168Y394692D01*
X460558Y395082D01*
X460769Y395591D01*
Y396142D01*
X460558Y396652D01*
X460168Y397042D01*
X459658Y397252D01*
D02*
G37*
G36*
X456350Y394207D02*
X455798D01*
X455289Y393996D01*
X454899Y393606D01*
X454688Y393097D01*
Y392546D01*
X454899Y392037D01*
X455289Y391647D01*
X455798Y391436D01*
X456350D01*
X456859Y391647D01*
X457249Y392037D01*
X457460Y392546D01*
Y393097D01*
X457249Y393606D01*
X456859Y393996D01*
X456350Y394207D01*
D02*
G37*
G36*
X483809Y394051D02*
X483257D01*
X482748Y393840D01*
X482358Y393451D01*
X482147Y392941D01*
Y392390D01*
X482358Y391881D01*
X482748Y391491D01*
X483257Y391280D01*
X483809D01*
X484318Y391491D01*
X484708Y391881D01*
X484919Y392390D01*
Y392941D01*
X484708Y393451D01*
X484318Y393840D01*
X483809Y394051D01*
D02*
G37*
G36*
X492501Y393066D02*
X492067D01*
X491666Y392900D01*
X491360Y392593D01*
X491193Y392192D01*
Y391758D01*
X491360Y391357D01*
X491666Y391051D01*
X492067Y390884D01*
X492501D01*
X492902Y391051D01*
X493209Y391357D01*
X493375Y391758D01*
Y392192D01*
X493209Y392593D01*
X492902Y392900D01*
X492501Y393066D01*
D02*
G37*
G36*
X535249Y393318D02*
X534652D01*
X534100Y393090D01*
X533678Y392668D01*
X533450Y392116D01*
Y391519D01*
X533678Y390968D01*
X534100Y390546D01*
X534652Y390318D01*
X535249D01*
X535800Y390546D01*
X536222Y390968D01*
X536450Y391519D01*
Y392116D01*
X536222Y392668D01*
X535800Y393090D01*
X535249Y393318D01*
D02*
G37*
G36*
X498299Y393408D02*
X497865D01*
X497465Y393242D01*
X497158Y392935D01*
X496992Y392534D01*
Y392100D01*
X497158Y391700D01*
X497465Y391393D01*
X497830Y391241D01*
X497863Y391119D01*
X497860Y390929D01*
X497707Y390865D01*
X497400Y390559D01*
X497234Y390158D01*
Y389724D01*
X497400Y389323D01*
X497707Y389016D01*
X498107Y388850D01*
X498541D01*
X498942Y389016D01*
X499249Y389323D01*
X499415Y389724D01*
Y390158D01*
X499249Y390559D01*
X498942Y390865D01*
X498577Y391017D01*
X498543Y391139D01*
X498547Y391329D01*
X498700Y391393D01*
X499007Y391700D01*
X499173Y392100D01*
Y392534D01*
X499007Y392935D01*
X498700Y393242D01*
X498299Y393408D01*
D02*
G37*
G36*
X492501Y390522D02*
X492067D01*
X491666Y390356D01*
X491360Y390049D01*
X491193Y389648D01*
Y389214D01*
X491360Y388813D01*
X491666Y388507D01*
X492067Y388340D01*
X492501D01*
X492902Y388507D01*
X493209Y388813D01*
X493375Y389214D01*
Y389648D01*
X493209Y390049D01*
X492902Y390356D01*
X492501Y390522D01*
D02*
G37*
G36*
X483251Y389077D02*
X482700D01*
X482190Y388866D01*
X481801Y388476D01*
X481590Y387967D01*
Y387416D01*
X481801Y386907D01*
X482190Y386517D01*
X482700Y386306D01*
X483251D01*
X483760Y386517D01*
X484150Y386907D01*
X484361Y387416D01*
Y387967D01*
X484150Y388476D01*
X483760Y388866D01*
X483251Y389077D01*
D02*
G37*
G36*
X518190Y387622D02*
X517594D01*
X517042Y387394D01*
X516620Y386972D01*
X516392Y386420D01*
Y385824D01*
X516620Y385272D01*
X517042Y384850D01*
X517594Y384622D01*
X518190D01*
X518742Y384850D01*
X519164Y385272D01*
X519392Y385824D01*
Y386420D01*
X519164Y386972D01*
X518742Y387394D01*
X518190Y387622D01*
D02*
G37*
G36*
X566956Y384019D02*
X566359D01*
X565808Y383791D01*
X565386Y383369D01*
X565158Y382818D01*
Y382221D01*
X565386Y381670D01*
X565808Y381248D01*
X566359Y381019D01*
X566956D01*
X567507Y381248D01*
X567929Y381670D01*
X568158Y382221D01*
Y382818D01*
X567929Y383369D01*
X567507Y383791D01*
X566956Y384019D01*
D02*
G37*
G36*
X564510Y380872D02*
X563913D01*
X563362Y380643D01*
X562940Y380221D01*
X562711Y379670D01*
Y379073D01*
X562940Y378522D01*
X563362Y378100D01*
X563913Y377871D01*
X564510D01*
X565061Y378100D01*
X565483Y378522D01*
X565711Y379073D01*
Y379670D01*
X565483Y380221D01*
X565061Y380643D01*
X564510Y380872D01*
D02*
G37*
G36*
X511599Y376981D02*
X511048D01*
X510538Y376770D01*
X510149Y376380D01*
X509938Y375871D01*
Y375320D01*
X510149Y374810D01*
X510538Y374420D01*
X511048Y374209D01*
X511599D01*
X512108Y374420D01*
X512498Y374810D01*
X512709Y375320D01*
Y375871D01*
X512498Y376380D01*
X512108Y376770D01*
X511599Y376981D01*
D02*
G37*
G36*
X516001Y369898D02*
X515528D01*
X515091Y369717D01*
X514757Y369383D01*
X514576Y368946D01*
Y368473D01*
X514757Y368036D01*
X515091Y367701D01*
X515528Y367520D01*
X516001D01*
X516438Y367701D01*
X516773Y368036D01*
X516954Y368473D01*
Y368946D01*
X516773Y369383D01*
X516438Y369717D01*
X516001Y369898D01*
D02*
G37*
G36*
X529546Y370117D02*
X528949D01*
X528398Y369889D01*
X527976Y369467D01*
X527747Y368916D01*
Y368319D01*
X527976Y367768D01*
X528398Y367346D01*
X528949Y367117D01*
X529546D01*
X530097Y367346D01*
X530519Y367768D01*
X530747Y368319D01*
Y368916D01*
X530519Y369467D01*
X530097Y369889D01*
X529546Y370117D01*
D02*
G37*
G36*
X511029Y367311D02*
X510478D01*
X509969Y367099D01*
X509740Y366870D01*
X509550Y366730D01*
X509348Y366870D01*
X509180Y367038D01*
X508743Y367219D01*
X508270D01*
X507833Y367038D01*
X507498Y366704D01*
X507317Y366267D01*
Y365794D01*
X507498Y365357D01*
X507833Y365022D01*
X508270Y364842D01*
X508743D01*
X509180Y365022D01*
X509344Y365187D01*
X509579Y365140D01*
X509969Y364750D01*
X510478Y364539D01*
X511029D01*
X511539Y364750D01*
X511929Y365140D01*
X512140Y365649D01*
Y366200D01*
X511929Y366710D01*
X511539Y367099D01*
X511029Y367311D01*
D02*
G37*
G36*
X497183Y369145D02*
X496586D01*
X496035Y368916D01*
X495613Y368494D01*
X495385Y367943D01*
Y367346D01*
X495613Y366795D01*
X496035Y366373D01*
X496586Y366145D01*
X497183D01*
X497734Y366373D01*
X498156Y366795D01*
X498385Y367346D01*
Y367943D01*
X498156Y368494D01*
X497734Y368916D01*
X497183Y369145D01*
D02*
G37*
G36*
X467511Y368312D02*
X466959D01*
X466450Y368101D01*
X466060Y367711D01*
X465849Y367202D01*
Y366651D01*
X466060Y366141D01*
X466450Y365752D01*
X466959Y365541D01*
X467511D01*
X468020Y365752D01*
X468410Y366141D01*
X468621Y366651D01*
Y367202D01*
X468410Y367711D01*
X468020Y368101D01*
X467511Y368312D01*
D02*
G37*
G36*
X516202Y366948D02*
X515729D01*
X515292Y366767D01*
X514958Y366432D01*
X514777Y365995D01*
Y365522D01*
X514958Y365085D01*
X515292Y364751D01*
X515729Y364570D01*
X516202D01*
X516639Y364751D01*
X516973Y365085D01*
X517155Y365522D01*
Y365995D01*
X516973Y366432D01*
X516639Y366767D01*
X516202Y366948D01*
D02*
G37*
G36*
X508808Y390577D02*
X504740Y390544D01*
X504201Y390016D01*
X504179Y382071D01*
X504774Y381442D01*
X510352Y381475D01*
X518426Y373401D01*
Y364239D01*
X517782Y363576D01*
X512257Y363603D01*
X511974Y363724D01*
X508403Y363791D01*
X507702Y364385D01*
X505991Y364479D01*
X500264Y358792D01*
X500251Y357997D01*
X502986Y355222D01*
X504010Y355141D01*
X504954Y356057D01*
X523185Y356097D01*
X525603Y358415D01*
X525660D01*
X530695Y353380D01*
X530525Y353125D01*
X530265Y353233D01*
X529791D01*
X529354Y353052D01*
X529020Y352718D01*
X528839Y352281D01*
Y351808D01*
X528643Y351499D01*
X528515Y351446D01*
X528281Y351211D01*
X528005Y351229D01*
X527936Y351259D01*
X527884Y351386D01*
X527577Y351693D01*
X527176Y351859D01*
X526742D01*
X526341Y351693D01*
X526035Y351386D01*
X526022Y351383D01*
X525889Y351515D01*
X525489Y351681D01*
X525055D01*
X524654Y351515D01*
X524347Y351209D01*
X524181Y350808D01*
Y350374D01*
X524347Y349973D01*
X524654Y349666D01*
X525055Y349500D01*
X525489D01*
X525754Y349610D01*
X526054Y349439D01*
Y349039D01*
X525754Y348857D01*
X525543Y348945D01*
X525148D01*
X524784Y348794D01*
X524505Y348515D01*
X524354Y348150D01*
Y347755D01*
X524479Y347452D01*
Y346370D01*
X524545Y346038D01*
X524733Y345757D01*
X525014Y345569D01*
X525061Y345560D01*
X525439Y345227D01*
X525521Y345146D01*
X525587Y345119D01*
X525827Y344879D01*
X525850Y344817D01*
X525873Y344793D01*
X525880Y344784D01*
X525882Y344782D01*
X525882Y344780D01*
X525884Y344776D01*
X525885Y344772D01*
X525888Y344768D01*
X525889Y344765D01*
X525892Y344761D01*
X525893Y344759D01*
X525893Y344759D01*
X525920Y344699D01*
Y344605D01*
X526071Y344241D01*
X526301Y344011D01*
X526079Y343790D01*
X525928Y343425D01*
Y343031D01*
X526058Y342718D01*
X525979Y342525D01*
X525903Y342418D01*
X524192D01*
X524192Y342418D01*
X523900Y342360D01*
X523651Y342194D01*
X516062Y334604D01*
X514283D01*
X514278Y334608D01*
X514245Y334604D01*
X514190D01*
X514128Y334631D01*
X513946Y334633D01*
X513881Y334636D01*
X513877Y334637D01*
X513876Y334636D01*
X513867Y334637D01*
X513839Y334627D01*
X513803Y334642D01*
X513409D01*
X513044Y334491D01*
X512765Y334212D01*
X512614Y333847D01*
Y333452D01*
X512765Y333088D01*
X513044Y332809D01*
X513409Y332658D01*
X513803D01*
X514168Y332809D01*
X514412Y333053D01*
X514462Y333075D01*
X516378D01*
X516671Y333133D01*
X516919Y333299D01*
X517883Y334262D01*
X518033Y334208D01*
X518160Y334115D01*
Y333611D01*
X518371Y333102D01*
X518761Y332712D01*
X519270Y332501D01*
X519822D01*
X520331Y332712D01*
X520721Y333102D01*
X520932Y333611D01*
Y334162D01*
X520721Y334671D01*
X520331Y335061D01*
X519822Y335272D01*
X519317D01*
X519224Y335399D01*
X519170Y335549D01*
X524509Y340889D01*
X526124D01*
X526181Y340862D01*
X526266Y340859D01*
X526280Y340858D01*
X526292Y340856D01*
X526299Y340853D01*
X526302Y340853D01*
X526311Y340850D01*
X526319Y340851D01*
X526358Y340812D01*
X526723Y340661D01*
X527118D01*
X527431Y340791D01*
X527731Y340668D01*
Y340292D01*
X527618Y340177D01*
X527567Y340050D01*
X527488Y339932D01*
X527434Y339661D01*
Y338163D01*
X527360Y338079D01*
X527173Y337943D01*
X527151Y337938D01*
X527074Y337951D01*
X527000Y337934D01*
X526537D01*
X526028Y337723D01*
X525638Y337334D01*
X525616Y337280D01*
X525316Y337340D01*
Y337418D01*
X525135Y337855D01*
X524801Y338190D01*
X524364Y338371D01*
X523891D01*
X523454Y338190D01*
X523119Y337855D01*
X522938Y337418D01*
Y336945D01*
X523119Y336508D01*
X523454Y336174D01*
X523891Y335993D01*
X524364D01*
X524801Y336174D01*
X525127Y336500D01*
X525170Y336499D01*
X525427Y336430D01*
Y336273D01*
X525638Y335764D01*
X526028Y335374D01*
X526537Y335163D01*
X527089D01*
X527598Y335374D01*
X527988Y335764D01*
X528008Y335812D01*
X528308Y335753D01*
Y334931D01*
X528183Y334628D01*
Y334233D01*
X528334Y333869D01*
X528613Y333590D01*
X528977Y333439D01*
X529372D01*
X529737Y333590D01*
X530016Y333869D01*
X530167Y334233D01*
Y334628D01*
X530041Y334931D01*
Y336891D01*
X530683Y337532D01*
X530871Y337813D01*
X530937Y338145D01*
Y340566D01*
X531237Y340749D01*
X531448Y340661D01*
X531842D01*
X532207Y340812D01*
X532428Y341034D01*
X532658Y340804D01*
X533022Y340653D01*
X533417D01*
X533782Y340804D01*
X534061Y341083D01*
X534212Y341448D01*
Y341628D01*
X537005Y344421D01*
X537259Y344251D01*
X537127Y343932D01*
Y343381D01*
X537338Y342872D01*
X537728Y342482D01*
X538237Y342271D01*
X538789D01*
X539298Y342482D01*
X539688Y342872D01*
X539899Y343381D01*
Y343932D01*
X539688Y344442D01*
X539298Y344831D01*
X538789Y345042D01*
X538237D01*
X537728Y344831D01*
X537410Y344908D01*
X537395Y344923D01*
X537441Y345153D01*
Y349462D01*
X537386Y349735D01*
X537232Y349967D01*
X525980Y361218D01*
X525749Y361373D01*
X525475Y361427D01*
X524393D01*
X520234Y365436D01*
X519854Y365452D01*
Y373696D01*
X519799Y373969D01*
X519645Y374201D01*
X510364Y383481D01*
X510348Y389016D01*
X508808Y390577D01*
D02*
G37*
G36*
X484296Y363935D02*
X483823D01*
X483386Y363754D01*
X483052Y363419D01*
X482871Y362982D01*
Y362509D01*
X483052Y362072D01*
X483386Y361738D01*
X483823Y361557D01*
X484296D01*
X484733Y361738D01*
X485068Y362072D01*
X485249Y362509D01*
Y362982D01*
X485068Y363419D01*
X484733Y363754D01*
X484296Y363935D01*
D02*
G37*
G36*
X478354Y363286D02*
X477881D01*
X477444Y363105D01*
X477109Y362770D01*
X476928Y362333D01*
Y361860D01*
X477109Y361423D01*
X477444Y361089D01*
X477881Y360908D01*
X478354D01*
X478791Y361089D01*
X479125Y361423D01*
X479306Y361860D01*
Y362333D01*
X479125Y362770D01*
X478791Y363105D01*
X478354Y363286D01*
D02*
G37*
G36*
X468334Y363650D02*
X467783D01*
X467274Y363439D01*
X466884Y363049D01*
X466673Y362540D01*
Y361989D01*
X466884Y361479D01*
X467274Y361089D01*
X467783Y360878D01*
X468334D01*
X468844Y361089D01*
X469233Y361479D01*
X469444Y361989D01*
Y362540D01*
X469233Y363049D01*
X468844Y363439D01*
X468334Y363650D01*
D02*
G37*
G36*
X456538Y362320D02*
X455987D01*
X455478Y362109D01*
X455088Y361719D01*
X454877Y361210D01*
Y360658D01*
X455088Y360149D01*
X455478Y359759D01*
X455987Y359548D01*
X456538D01*
X457048Y359759D01*
X457438Y360149D01*
X457649Y360658D01*
Y361210D01*
X457438Y361719D01*
X457048Y362109D01*
X456538Y362320D01*
D02*
G37*
G36*
X467522Y359371D02*
X466971D01*
X466462Y359160D01*
X466072Y358771D01*
X465861Y358261D01*
Y357710D01*
X466072Y357201D01*
X466462Y356811D01*
X466971Y356600D01*
X467522D01*
X468032Y356811D01*
X468422Y357201D01*
X468632Y357710D01*
Y358261D01*
X468422Y358771D01*
X468032Y359160D01*
X467522Y359371D01*
D02*
G37*
G36*
X487714Y360769D02*
X487241D01*
X486804Y360588D01*
X486470Y360254D01*
X486289Y359816D01*
Y359343D01*
X486470Y358906D01*
X486618Y358758D01*
X486750Y358513D01*
X486618Y358366D01*
X486421Y358170D01*
X486240Y357733D01*
Y357259D01*
X486421Y356822D01*
X486755Y356488D01*
X487192Y356307D01*
X487665D01*
X488102Y356488D01*
X488437Y356822D01*
X488618Y357259D01*
Y357733D01*
X488437Y358170D01*
X488289Y358317D01*
X488156Y358563D01*
X488289Y358710D01*
X488485Y358906D01*
X488666Y359343D01*
Y359816D01*
X488485Y360254D01*
X488151Y360588D01*
X487714Y360769D01*
D02*
G37*
G36*
X525214Y355531D02*
X524663D01*
X524154Y355320D01*
X523919Y355085D01*
X523685Y355319D01*
X523176Y355530D01*
X522624D01*
X522115Y355319D01*
X521725Y354929D01*
X521514Y354420D01*
Y353869D01*
X521725Y353359D01*
X522115Y352970D01*
X522624Y352759D01*
X523176D01*
X523685Y352970D01*
X523920Y353204D01*
X524154Y352971D01*
X524663Y352760D01*
X525214D01*
X525724Y352971D01*
X526114Y353360D01*
X526325Y353870D01*
Y354421D01*
X526114Y354930D01*
X525724Y355320D01*
X525214Y355531D01*
D02*
G37*
G36*
X539164Y356623D02*
X538613D01*
X538103Y356412D01*
X537713Y356023D01*
X537502Y355513D01*
Y354962D01*
X537713Y354453D01*
X538103Y354063D01*
X538613Y353852D01*
X539164D01*
X539673Y354063D01*
X540063Y354453D01*
X540274Y354962D01*
Y355513D01*
X540063Y356023D01*
X539673Y356412D01*
X539164Y356623D01*
D02*
G37*
G36*
X461612Y355570D02*
X461015D01*
X460464Y355341D01*
X460042Y354919D01*
X459813Y354368D01*
Y353771D01*
X460042Y353220D01*
X460464Y352798D01*
X461015Y352570D01*
X461612D01*
X462163Y352798D01*
X462585Y353220D01*
X462813Y353771D01*
Y354368D01*
X462585Y354919D01*
X462163Y355341D01*
X461612Y355570D01*
D02*
G37*
G36*
X504915Y350105D02*
X504363D01*
X503854Y349894D01*
X503464Y349504D01*
X503253Y348995D01*
Y348444D01*
X503464Y347934D01*
X503854Y347545D01*
X504363Y347334D01*
X504915D01*
X505424Y347545D01*
X505814Y347934D01*
X506025Y348444D01*
Y348995D01*
X505814Y349504D01*
X505424Y349894D01*
X504915Y350105D01*
D02*
G37*
G36*
X485619Y349051D02*
X485146D01*
X484709Y348870D01*
X484374Y348535D01*
X484193Y348098D01*
Y347625D01*
X484374Y347188D01*
X484709Y346854D01*
X485146Y346673D01*
X485619D01*
X486056Y346854D01*
X486390Y347188D01*
X486571Y347625D01*
Y348098D01*
X486390Y348535D01*
X486056Y348870D01*
X485619Y349051D01*
D02*
G37*
G36*
X551015Y348818D02*
X550419D01*
X549867Y348590D01*
X549445Y348168D01*
X549217Y347617D01*
Y347020D01*
X549445Y346469D01*
X549867Y346047D01*
X550419Y345818D01*
X551015D01*
X551567Y346047D01*
X551989Y346469D01*
X552217Y347020D01*
Y347617D01*
X551989Y348168D01*
X551567Y348590D01*
X551015Y348818D01*
D02*
G37*
G36*
X516678Y346736D02*
X516126D01*
X515617Y346525D01*
X515227Y346135D01*
X515016Y345625D01*
Y345074D01*
X515227Y344565D01*
X515617Y344175D01*
X516126Y343964D01*
X516678D01*
X517187Y344175D01*
X517577Y344565D01*
X517788Y345074D01*
Y345625D01*
X517577Y346135D01*
X517187Y346525D01*
X516678Y346736D01*
D02*
G37*
G36*
X469062Y345608D02*
X468511D01*
X468002Y345397D01*
X467612Y345007D01*
X467401Y344498D01*
Y343947D01*
X467612Y343437D01*
X468002Y343047D01*
X468511Y342836D01*
X469062D01*
X469571Y343047D01*
X469961Y343437D01*
X470172Y343947D01*
Y344498D01*
X469961Y345007D01*
X469571Y345397D01*
X469062Y345608D01*
D02*
G37*
G36*
X490061Y345116D02*
X489587D01*
X489150Y344935D01*
X488816Y344601D01*
X488635Y344164D01*
Y343691D01*
X488816Y343254D01*
X489150Y342919D01*
X489587Y342738D01*
X490061D01*
X490497Y342919D01*
X490832Y343254D01*
X491013Y343691D01*
Y344164D01*
X490832Y344601D01*
X490497Y344935D01*
X490061Y345116D01*
D02*
G37*
G36*
X510717Y340599D02*
X510244D01*
X509807Y340418D01*
X509473Y340083D01*
X509292Y339646D01*
Y339173D01*
X509473Y338736D01*
X509807Y338402D01*
X510244Y338221D01*
X510717D01*
X511154Y338402D01*
X511489Y338736D01*
X511670Y339173D01*
Y339646D01*
X511489Y340083D01*
X511154Y340418D01*
X510717Y340599D01*
D02*
G37*
G36*
X515955Y340057D02*
X515482D01*
X515045Y339876D01*
X514711Y339541D01*
X514530Y339104D01*
Y338631D01*
X514711Y338194D01*
X515045Y337860D01*
X515482Y337679D01*
X515955D01*
X516392Y337860D01*
X516727Y338194D01*
X516908Y338631D01*
Y339104D01*
X516727Y339541D01*
X516392Y339876D01*
X515955Y340057D01*
D02*
G37*
G36*
X536583Y339996D02*
X536031D01*
X535522Y339785D01*
X535132Y339395D01*
X534921Y338886D01*
Y338334D01*
X535132Y337825D01*
X535522Y337435D01*
X536031Y337224D01*
X536583D01*
X537092Y337435D01*
X537482Y337825D01*
X537693Y338334D01*
Y338886D01*
X537482Y339395D01*
X537092Y339785D01*
X536583Y339996D01*
D02*
G37*
G36*
X533218Y336126D02*
X532666D01*
X532157Y335915D01*
X531767Y335525D01*
X531556Y335016D01*
Y334464D01*
X531767Y333955D01*
X532157Y333565D01*
X532666Y333354D01*
X533218D01*
X533727Y333565D01*
X534117Y333955D01*
X534328Y334464D01*
Y335016D01*
X534117Y335525D01*
X533727Y335915D01*
X533218Y336126D01*
D02*
G37*
G36*
X543487Y334932D02*
X542936D01*
X542427Y334721D01*
X542037Y334331D01*
X541826Y333822D01*
Y333271D01*
X542037Y332761D01*
X542427Y332371D01*
X542936Y332160D01*
X543487D01*
X543997Y332371D01*
X544386Y332761D01*
X544597Y333271D01*
Y333822D01*
X544386Y334331D01*
X543997Y334721D01*
X543487Y334932D01*
D02*
G37*
G36*
X567723Y333137D02*
X567126D01*
X566575Y332909D01*
X566153Y332487D01*
X565925Y331936D01*
Y331339D01*
X566153Y330788D01*
X566575Y330366D01*
X567126Y330137D01*
X567723D01*
X568274Y330366D01*
X568696Y330788D01*
X568925Y331339D01*
Y331936D01*
X568696Y332487D01*
X568274Y332909D01*
X567723Y333137D01*
D02*
G37*
G36*
X514540Y332418D02*
X514067D01*
X513630Y332237D01*
X513296Y331903D01*
X513115Y331466D01*
Y330993D01*
X513296Y330556D01*
X513630Y330221D01*
X514067Y330040D01*
X514540D01*
X514977Y330221D01*
X515311Y330556D01*
X515492Y330993D01*
Y331466D01*
X515311Y331903D01*
X514977Y332237D01*
X514540Y332418D01*
D02*
G37*
G36*
X517903Y332368D02*
X517430D01*
X516993Y332187D01*
X516659Y331853D01*
X516478Y331416D01*
Y330943D01*
X516659Y330506D01*
X516993Y330171D01*
X517430Y329991D01*
X517903D01*
X518340Y330171D01*
X518675Y330506D01*
X518856Y330943D01*
Y331416D01*
X518675Y331853D01*
X518340Y332187D01*
X517903Y332368D01*
D02*
G37*
G36*
X475075Y331449D02*
X474603D01*
X474165Y331268D01*
X473831Y330934D01*
X473650Y330497D01*
Y330024D01*
X473831Y329587D01*
X474165Y329252D01*
X474603Y329071D01*
X475075D01*
X475513Y329252D01*
X475847Y329587D01*
X476028Y330024D01*
Y330497D01*
X475847Y330934D01*
X475513Y331268D01*
X475075Y331449D01*
D02*
G37*
G36*
X478471Y360081D02*
X477998D01*
X477561Y359900D01*
X477226Y359565D01*
X477045Y359128D01*
Y358656D01*
X477226Y358219D01*
X477561Y357884D01*
X477998Y357703D01*
X478471D01*
X478908Y357884D01*
X479185Y358161D01*
X479429Y358170D01*
X479536Y358142D01*
X479840Y357838D01*
X480277Y357657D01*
X480750D01*
X481187Y357838D01*
X481285Y357936D01*
X481380Y357974D01*
X481420Y358012D01*
X481446Y358033D01*
X481469Y358050D01*
X481489Y358063D01*
X481507Y358072D01*
X481523Y358079D01*
X481537Y358083D01*
X481551Y358086D01*
X481565Y358088D01*
X481579Y358088D01*
X487578Y352089D01*
X487815Y351931D01*
X488094Y351875D01*
X489004D01*
X492991Y347888D01*
X492950Y347681D01*
X492615Y347346D01*
X492434Y346909D01*
Y346437D01*
X492615Y346000D01*
X492950Y345665D01*
X493387Y345484D01*
X493860D01*
X494297Y345665D01*
X494631Y346000D01*
X494733Y346244D01*
X495086Y346315D01*
X503266Y338135D01*
Y331646D01*
X503322Y331367D01*
X503480Y331130D01*
X505415Y329195D01*
X505652Y329036D01*
X505932Y328981D01*
X506718D01*
X509788Y325911D01*
X510025Y325753D01*
X510304Y325697D01*
X528376D01*
X528390Y325662D01*
X528190Y325362D01*
X508077D01*
X506844Y326595D01*
X506607Y326753D01*
X506328Y326809D01*
X505819D01*
X504984Y327643D01*
Y328449D01*
X504929Y328728D01*
X504770Y328965D01*
X503172Y330564D01*
X502935Y330722D01*
X502656Y330778D01*
X501869D01*
X500965Y331681D01*
Y332487D01*
X500910Y332766D01*
X500751Y333003D01*
X497607Y336148D01*
X497370Y336306D01*
X497090Y336362D01*
X487827D01*
Y343777D01*
X487854Y343834D01*
X487856Y343873D01*
X487857Y343887D01*
X487860Y343901D01*
X487865Y343916D01*
X487872Y343931D01*
X487881Y343949D01*
X487893Y343970D01*
X487910Y343992D01*
X487932Y344018D01*
X487970Y344058D01*
X488007Y344153D01*
X488105Y344251D01*
X488286Y344689D01*
Y345162D01*
X488105Y345599D01*
X487771Y345933D01*
X487334Y346114D01*
X486861D01*
X486424Y345933D01*
X486089Y345599D01*
X485908Y345162D01*
Y344689D01*
X486089Y344251D01*
X486187Y344153D01*
X486224Y344058D01*
X486263Y344018D01*
X486284Y343993D01*
X486301Y343970D01*
X486314Y343949D01*
X486323Y343931D01*
X486329Y343916D01*
X486334Y343901D01*
X486337Y343887D01*
X486339Y343873D01*
X486341Y343834D01*
X486367Y343777D01*
Y335631D01*
X486423Y335352D01*
X486581Y335115D01*
X486818Y334957D01*
X487097Y334901D01*
X496788D01*
X499505Y332184D01*
Y331379D01*
X499561Y331100D01*
X499719Y330863D01*
X501050Y329531D01*
X501287Y329373D01*
X501566Y329318D01*
X502353D01*
X503524Y328147D01*
Y327341D01*
X503580Y327062D01*
X503738Y326825D01*
X505000Y325563D01*
X505237Y325405D01*
X505516Y325349D01*
X506026D01*
X507259Y324116D01*
X507496Y323957D01*
X507775Y323902D01*
X521330D01*
X521530Y323602D01*
X521404Y323298D01*
Y322746D01*
X521615Y322237D01*
X522005Y321847D01*
X522514Y321636D01*
X523066D01*
X523575Y321847D01*
X523965Y322237D01*
X524176Y322746D01*
Y323298D01*
X524050Y323602D01*
X524250Y323902D01*
X528690D01*
X528702Y322244D01*
X529856Y321090D01*
X535795D01*
X536391Y321686D01*
Y322847D01*
X544319D01*
X544598Y322902D01*
X544835Y323060D01*
X551909Y330135D01*
X552160D01*
X552218Y330108D01*
X552258Y330106D01*
X552279Y330104D01*
X552300Y330100D01*
X552324Y330093D01*
X552351Y330084D01*
X552380Y330072D01*
X552405Y330060D01*
X552490Y330009D01*
X552534Y329977D01*
X552584Y329965D01*
X552589Y329960D01*
X553026Y329780D01*
X553499D01*
X553936Y329960D01*
X554270Y330295D01*
X554451Y330732D01*
Y331205D01*
X554270Y331642D01*
X554047Y331866D01*
X554059Y331980D01*
X554142Y332191D01*
X554517Y332347D01*
X554851Y332681D01*
X555032Y333118D01*
Y333591D01*
X554906Y333898D01*
X554896Y334080D01*
X555047Y334256D01*
X555442Y334420D01*
X555864Y334842D01*
X556092Y335393D01*
Y335990D01*
X555864Y336541D01*
X555442Y336963D01*
X554890Y337191D01*
X554294D01*
X553742Y336963D01*
X553320Y336541D01*
X553092Y335990D01*
Y335393D01*
X553320Y334842D01*
X553385Y334776D01*
X553315Y334423D01*
X553170Y334363D01*
X553060Y334253D01*
X552962Y334212D01*
X552923Y334174D01*
X552899Y334153D01*
X552877Y334136D01*
X552858Y334124D01*
X552842Y334116D01*
X552827Y334110D01*
X552814Y334105D01*
X552801Y334103D01*
X552787Y334101D01*
X552749Y334099D01*
X552691Y334072D01*
X549321D01*
X549041Y334017D01*
X548804Y333859D01*
X542684Y327739D01*
X536391D01*
Y329380D01*
X543346Y336335D01*
X545144D01*
Y336536D01*
X548433Y339825D01*
X548428Y339831D01*
Y343292D01*
X547822Y343899D01*
X547844Y343921D01*
Y350392D01*
X547816D01*
X547006Y351202D01*
X542828D01*
X542344Y350618D01*
X542321Y350563D01*
Y343392D01*
X543600Y342113D01*
Y340663D01*
X542387Y339451D01*
X540291D01*
X533461Y332620D01*
X529972D01*
X528635Y331283D01*
X528664Y327370D01*
X528452Y327157D01*
X515666D01*
X515499Y327457D01*
X515628Y327766D01*
Y328239D01*
X515447Y328677D01*
X515112Y329011D01*
X514675Y329192D01*
X514202D01*
X513765Y329011D01*
X513431Y328677D01*
X513250Y328239D01*
Y327766D01*
X513378Y327457D01*
X513211Y327157D01*
X510607D01*
X507537Y330227D01*
X507300Y330385D01*
X507021Y330441D01*
X506234D01*
X504726Y331949D01*
Y338437D01*
X504671Y338717D01*
X504512Y338953D01*
X494765Y348700D01*
X494528Y348859D01*
X494249Y348914D01*
X494029D01*
X489822Y353121D01*
X489585Y353280D01*
X489306Y353335D01*
X488397D01*
X482370Y359363D01*
X482133Y359521D01*
X481853Y359576D01*
X481661D01*
X481604Y359603D01*
X481565Y359605D01*
X481551Y359607D01*
X481537Y359610D01*
X481523Y359614D01*
X481507Y359621D01*
X481489Y359630D01*
X481469Y359642D01*
X481446Y359659D01*
X481420Y359681D01*
X481380Y359719D01*
X481285Y359756D01*
X481187Y359854D01*
X480750Y360035D01*
X480277D01*
X479840Y359854D01*
X479562Y359577D01*
X479319Y359568D01*
X479212Y359596D01*
X478908Y359900D01*
X478471Y360081D01*
D02*
G37*
G36*
X556254Y329735D02*
X555658D01*
X555106Y329507D01*
X554684Y329085D01*
X554456Y328533D01*
Y327937D01*
X554626Y327528D01*
X554192Y327348D01*
X553770Y326926D01*
X553542Y326375D01*
Y325778D01*
X553770Y325227D01*
X554192Y324805D01*
X554743Y324576D01*
X555340D01*
X555891Y324805D01*
X556313Y325227D01*
X556542Y325778D01*
Y326375D01*
X556372Y326784D01*
X556806Y326963D01*
X557228Y327385D01*
X557456Y327937D01*
Y328533D01*
X557228Y329085D01*
X556806Y329507D01*
X556254Y329735D01*
D02*
G37*
G36*
X473583Y324224D02*
X473031D01*
X472522Y324013D01*
X472132Y323623D01*
X471921Y323114D01*
Y322563D01*
X472132Y322054D01*
X472522Y321664D01*
X473031Y321453D01*
X473583D01*
X474092Y321664D01*
X474482Y322054D01*
X474693Y322563D01*
Y323114D01*
X474482Y323623D01*
X474092Y324013D01*
X473583Y324224D01*
D02*
G37*
G36*
X559637Y322808D02*
X559164D01*
X558727Y322627D01*
X558393Y322293D01*
X558212Y321856D01*
Y321383D01*
X558393Y320946D01*
X558727Y320611D01*
X559164Y320430D01*
X559637D01*
X560074Y320611D01*
X560408Y320946D01*
X560590Y321383D01*
Y321856D01*
X560408Y322293D01*
X560074Y322627D01*
X559637Y322808D01*
D02*
G37*
G36*
X466319Y322449D02*
X465768D01*
X465258Y322238D01*
X464868Y321848D01*
X464657Y321339D01*
Y320787D01*
X464868Y320278D01*
X465258Y319888D01*
X465768Y319677D01*
X466319D01*
X466828Y319888D01*
X467218Y320278D01*
X467429Y320787D01*
Y321339D01*
X467218Y321848D01*
X466828Y322238D01*
X466319Y322449D01*
D02*
G37*
G36*
X518679Y321696D02*
X518127D01*
X517618Y321485D01*
X517228Y321095D01*
X517017Y320586D01*
Y320035D01*
X517228Y319526D01*
X517618Y319136D01*
X518127Y318925D01*
X518679D01*
X519188Y319136D01*
X519578Y319526D01*
X519789Y320035D01*
Y320586D01*
X519578Y321095D01*
X519188Y321485D01*
X518679Y321696D01*
D02*
G37*
G36*
X472815Y319299D02*
X472264D01*
X471754Y319088D01*
X471364Y318698D01*
X471153Y318189D01*
Y317638D01*
X471364Y317128D01*
X471754Y316739D01*
X472264Y316528D01*
X472815D01*
X473324Y316739D01*
X473714Y317128D01*
X473925Y317638D01*
Y318189D01*
X473714Y318698D01*
X473324Y319088D01*
X472815Y319299D01*
D02*
G37*
G36*
X466614Y318905D02*
X466063D01*
X465554Y318694D01*
X465164Y318305D01*
X464953Y317795D01*
Y317244D01*
X465164Y316735D01*
X465554Y316345D01*
X466063Y316134D01*
X466614D01*
X467124Y316345D01*
X467513Y316735D01*
X467724Y317244D01*
Y317795D01*
X467513Y318305D01*
X467124Y318694D01*
X466614Y318905D01*
D02*
G37*
G36*
X470256Y309949D02*
X469705D01*
X469195Y309738D01*
X468806Y309348D01*
X468595Y308839D01*
Y308287D01*
X468806Y307778D01*
X469195Y307388D01*
X469705Y307177D01*
X470256D01*
X470765Y307388D01*
X471155Y307778D01*
X471366Y308287D01*
Y308839D01*
X471155Y309348D01*
X470765Y309738D01*
X470256Y309949D01*
D02*
G37*
G36*
X475323Y302972D02*
X474771D01*
X474262Y302761D01*
X473872Y302371D01*
X473661Y301862D01*
Y301310D01*
X473872Y300801D01*
X474262Y300411D01*
X474771Y300200D01*
X475323D01*
X475832Y300411D01*
X476222Y300801D01*
X476433Y301310D01*
Y301862D01*
X476222Y302371D01*
X475832Y302761D01*
X475323Y302972D01*
D02*
G37*
G36*
X566200Y304348D02*
X565648D01*
X565139Y304137D01*
X564749Y303747D01*
X564538Y303238D01*
Y302686D01*
X564749Y302177D01*
X565046Y301880D01*
X564807Y301641D01*
X564596Y301132D01*
Y300581D01*
X564807Y300071D01*
X565197Y299681D01*
X565706Y299470D01*
X566257D01*
X566767Y299681D01*
X567157Y300071D01*
X567368Y300581D01*
Y301132D01*
X567157Y301641D01*
X566860Y301938D01*
X567099Y302177D01*
X567310Y302686D01*
Y303238D01*
X567099Y303747D01*
X566709Y304137D01*
X566200Y304348D01*
D02*
G37*
G36*
X520490Y299313D02*
X519938D01*
X519429Y299102D01*
X519039Y298712D01*
X518828Y298202D01*
Y297651D01*
X519039Y297142D01*
X519429Y296752D01*
X519938Y296541D01*
X520490D01*
X520999Y296752D01*
X521282Y297035D01*
X521516Y297084D01*
X521659Y297020D01*
X521971Y296708D01*
X522480Y296497D01*
X523031D01*
X523541Y296708D01*
X523931Y297098D01*
X524142Y297607D01*
Y298159D01*
X523931Y298668D01*
X523541Y299058D01*
X523031Y299269D01*
X522480D01*
X521971Y299058D01*
X521688Y298774D01*
X521453Y298725D01*
X521311Y298790D01*
X520999Y299102D01*
X520490Y299313D01*
D02*
G37*
G36*
X497597Y299601D02*
X497045D01*
X496536Y299390D01*
X496146Y299001D01*
X495935Y298491D01*
Y297940D01*
X496146Y297430D01*
X496332Y297245D01*
X496333Y296825D01*
X496296Y296788D01*
X496085Y296278D01*
Y295727D01*
X496296Y295218D01*
X496686Y294828D01*
X497195Y294617D01*
X497746D01*
X498255Y294828D01*
X498645Y295218D01*
X498856Y295727D01*
Y296278D01*
X498645Y296788D01*
X498460Y296973D01*
X498459Y297393D01*
X498496Y297430D01*
X498707Y297940D01*
Y298491D01*
X498496Y299001D01*
X498106Y299390D01*
X497597Y299601D01*
D02*
G37*
G36*
X495089Y286330D02*
X494538D01*
X494029Y286119D01*
X493639Y285729D01*
X493428Y285220D01*
Y284668D01*
X493639Y284159D01*
X494029Y283769D01*
X494538Y283558D01*
X495089D01*
X495599Y283769D01*
X495989Y284159D01*
X496200Y284668D01*
Y285220D01*
X495989Y285729D01*
X495599Y286119D01*
X495089Y286330D01*
D02*
G37*
G36*
X460212Y268281D02*
X459660D01*
X459151Y268070D01*
X458761Y267680D01*
X458550Y267171D01*
Y266619D01*
X458761Y266110D01*
X459151Y265720D01*
X459660Y265509D01*
X460212D01*
X460721Y265720D01*
X461111Y266110D01*
X461322Y266619D01*
Y267171D01*
X461111Y267680D01*
X460721Y268070D01*
X460212Y268281D01*
D02*
G37*
G36*
X476353Y267100D02*
X475802D01*
X475293Y266889D01*
X474903Y266499D01*
X474692Y265989D01*
Y265438D01*
X474903Y264929D01*
X475293Y264539D01*
X475802Y264328D01*
X476353D01*
X476863Y264539D01*
X477252Y264929D01*
X477463Y265438D01*
Y265989D01*
X477252Y266499D01*
X476863Y266889D01*
X476353Y267100D01*
D02*
G37*
G36*
X493567Y266338D02*
X493016D01*
X492507Y266127D01*
X492117Y265737D01*
X491906Y265228D01*
Y264677D01*
X492117Y264167D01*
X492507Y263778D01*
X493016Y263567D01*
X493567D01*
X494077Y263778D01*
X494466Y264167D01*
X494677Y264677D01*
Y265228D01*
X494466Y265737D01*
X494077Y266127D01*
X493567Y266338D01*
D02*
G37*
G36*
X484522Y266312D02*
X483971D01*
X483462Y266101D01*
X483072Y265711D01*
X482861Y265202D01*
Y264651D01*
X483072Y264141D01*
X483462Y263752D01*
X483971Y263541D01*
X484522D01*
X485032Y263752D01*
X485422Y264141D01*
X485633Y264651D01*
Y265202D01*
X485422Y265711D01*
X485032Y266101D01*
X484522Y266312D01*
D02*
G37*
G36*
X460486Y264851D02*
X459935D01*
X459425Y264640D01*
X459035Y264250D01*
X458824Y263741D01*
Y263189D01*
X459035Y262680D01*
X459425Y262290D01*
X459935Y262079D01*
X460486D01*
X460995Y262290D01*
X461385Y262680D01*
X461596Y263189D01*
Y263741D01*
X461385Y264250D01*
X460995Y264640D01*
X460486Y264851D01*
D02*
G37*
G36*
X503440Y264669D02*
X502889D01*
X502380Y264458D01*
X501990Y264068D01*
X501779Y263559D01*
Y263007D01*
X501990Y262498D01*
X502380Y262108D01*
X502889Y261897D01*
X503440D01*
X503950Y262108D01*
X504340Y262498D01*
X504551Y263007D01*
Y263559D01*
X504340Y264068D01*
X503950Y264458D01*
X503440Y264669D01*
D02*
G37*
G36*
X555209Y282843D02*
Y259169D01*
X565389D01*
X565498Y259278D01*
Y282821D01*
X555209Y282843D01*
D02*
G37*
%LPD*%
G36*
X536449Y454521D02*
X536410Y454472D01*
X536375Y454421D01*
X536345Y454368D01*
X536319Y454313D01*
X536298Y454256D01*
X536282Y454196D01*
X536270Y454134D01*
X536264Y454070D01*
X536261Y454004D01*
X535761D01*
X535759Y454070D01*
X535752Y454134D01*
X535740Y454196D01*
X535724Y454256D01*
X535703Y454313D01*
X535677Y454368D01*
X535647Y454421D01*
X535612Y454472D01*
X535573Y454521D01*
X535529Y454568D01*
X536493D01*
X536449Y454521D01*
D02*
G37*
G36*
X533055Y454467D02*
X533005Y454434D01*
X532960Y454396D01*
X532920Y454356D01*
X532886Y454311D01*
X532856Y454262D01*
X532832Y454210D01*
X532814Y454154D01*
X532801Y454094D01*
X532793Y454030D01*
X532790Y453963D01*
X532290Y454096D01*
X532288Y454160D01*
X532283Y454223D01*
X532275Y454286D01*
X532263Y454348D01*
X532247Y454408D01*
X532228Y454468D01*
X532206Y454526D01*
X532180Y454584D01*
X532151Y454641D01*
X532119Y454697D01*
X533055Y454467D01*
D02*
G37*
G36*
X524617Y448198D02*
X524664Y448146D01*
X524714Y448100D01*
X524765Y448060D01*
X524818Y448027D01*
X524872Y447999D01*
X524929Y447978D01*
X524987Y447963D01*
X525048Y447953D01*
X525110Y447950D01*
X525049Y447550D01*
X524990Y447548D01*
X524931Y447540D01*
X524872Y447528D01*
X524811Y447511D01*
X524750Y447488D01*
X524688Y447461D01*
X524625Y447428D01*
X524561Y447391D01*
X524432Y447301D01*
X524571Y448256D01*
X524617Y448198D01*
D02*
G37*
G36*
X546685Y446007D02*
X546658Y446005D01*
X546630Y446000D01*
X546600Y445990D01*
X546569Y445977D01*
X546537Y445959D01*
X546504Y445938D01*
X546469Y445913D01*
X546433Y445884D01*
X546358Y445814D01*
X546005Y446167D01*
X546042Y446206D01*
X546104Y446278D01*
X546129Y446313D01*
X546150Y446346D01*
X546168Y446378D01*
X546181Y446409D01*
X546191Y446439D01*
X546196Y446467D01*
X546198Y446494D01*
X546685Y446007D01*
D02*
G37*
G36*
X531391Y442379D02*
X531399Y442284D01*
X531406Y442242D01*
X531414Y442203D01*
X531425Y442168D01*
X531437Y442137D01*
X531451Y442109D01*
X531467Y442085D01*
X531485Y442065D01*
X530796D01*
X530814Y442085D01*
X530830Y442109D01*
X530844Y442137D01*
X530857Y442168D01*
X530867Y442203D01*
X530875Y442242D01*
X530882Y442284D01*
X530887Y442330D01*
X530891Y442433D01*
X531390D01*
X531391Y442379D01*
D02*
G37*
G36*
X528192Y442409D02*
X528197Y442362D01*
X528204Y442317D01*
X528214Y442275D01*
X528227Y442234D01*
X528243Y442196D01*
X528262Y442160D01*
X528283Y442126D01*
X528308Y442094D01*
X528335Y442065D01*
X527646D01*
X527674Y442094D01*
X527698Y442126D01*
X527720Y442160D01*
X527739Y442196D01*
X527755Y442234D01*
X527768Y442275D01*
X527778Y442317D01*
X527785Y442362D01*
X527789Y442409D01*
X527791Y442458D01*
X528191D01*
X528192Y442409D01*
D02*
G37*
G36*
X538121Y439797D02*
X538164Y439760D01*
X538208Y439727D01*
X538253Y439699D01*
X538297Y439676D01*
X538342Y439656D01*
X538387Y439642D01*
X538432Y439631D01*
X538478Y439625D01*
X538523Y439623D01*
X537939Y439039D01*
X537937Y439084D01*
X537931Y439129D01*
X537920Y439175D01*
X537905Y439220D01*
X537886Y439264D01*
X537862Y439309D01*
X537834Y439353D01*
X537802Y439397D01*
X537765Y439441D01*
X537723Y439485D01*
X538077Y439838D01*
X538121Y439797D01*
D02*
G37*
G36*
X526411Y436497D02*
X526384Y436495D01*
X526356Y436490D01*
X526326Y436480D01*
X526295Y436467D01*
X526263Y436449D01*
X526230Y436428D01*
X526195Y436403D01*
X526160Y436374D01*
X526084Y436304D01*
X525731Y436657D01*
X525768Y436696D01*
X525830Y436768D01*
X525855Y436803D01*
X525876Y436836D01*
X525894Y436868D01*
X525907Y436899D01*
X525917Y436929D01*
X525922Y436957D01*
X525924Y436984D01*
X526411Y436497D01*
D02*
G37*
G36*
X527639Y435070D02*
X527619Y435088D01*
X527595Y435104D01*
X527567Y435118D01*
X527536Y435130D01*
X527501Y435141D01*
X527463Y435149D01*
X527420Y435156D01*
X527374Y435160D01*
X527272Y435164D01*
Y435664D01*
X527325Y435665D01*
X527420Y435673D01*
X527463Y435679D01*
X527501Y435688D01*
X527536Y435698D01*
X527567Y435710D01*
X527595Y435725D01*
X527619Y435741D01*
X527639Y435759D01*
Y435070D01*
D02*
G37*
G36*
X517180Y433942D02*
X517204Y433926D01*
X517232Y433912D01*
X517263Y433900D01*
X517298Y433889D01*
X517337Y433881D01*
X517379Y433874D01*
X517425Y433870D01*
X517528Y433866D01*
Y433366D01*
X517474Y433365D01*
X517379Y433357D01*
X517337Y433351D01*
X517298Y433342D01*
X517263Y433332D01*
X517232Y433319D01*
X517204Y433305D01*
X517180Y433289D01*
X517160Y433271D01*
Y433960D01*
X517180Y433942D01*
D02*
G37*
G36*
X521117Y432758D02*
X521141Y432748D01*
X521168Y432739D01*
X521200Y432731D01*
X521235Y432724D01*
X521316Y432714D01*
X521362Y432711D01*
X521466Y432708D01*
X521579Y432208D01*
X521526Y432207D01*
X521432Y432198D01*
X521391Y432190D01*
X521353Y432180D01*
X521320Y432167D01*
X521291Y432152D01*
X521266Y432135D01*
X521245Y432115D01*
X521228Y432093D01*
X521098Y432770D01*
X521117Y432758D01*
D02*
G37*
G36*
X531659Y412299D02*
X531707Y412263D01*
X531759Y412231D01*
X531815Y412203D01*
X531874Y412180D01*
X531937Y412161D01*
X532003Y412146D01*
X532073Y412136D01*
X532147Y412130D01*
X532224Y412129D01*
X531542Y411447D01*
X531540Y411524D01*
X531535Y411598D01*
X531525Y411668D01*
X531510Y411734D01*
X531491Y411797D01*
X531468Y411856D01*
X531440Y411912D01*
X531408Y411964D01*
X531372Y412012D01*
X531331Y412057D01*
X531614Y412340D01*
X531659Y412299D01*
D02*
G37*
G36*
X494375Y402691D02*
X494342Y402655D01*
X494311Y402619D01*
X494285Y402582D01*
X494262Y402545D01*
X494242Y402507D01*
X494227Y402469D01*
X494214Y402430D01*
X494206Y402391D01*
X494201Y402351D01*
X494199Y402311D01*
X493712Y402798D01*
X493752Y402799D01*
X493792Y402804D01*
X493831Y402813D01*
X493870Y402825D01*
X493908Y402841D01*
X493946Y402860D01*
X493983Y402883D01*
X494020Y402910D01*
X494057Y402940D01*
X494093Y402974D01*
X494375Y402691D01*
D02*
G37*
G36*
X527344Y350320D02*
X527330Y350305D01*
X527317Y350284D01*
X527307Y350257D01*
X527297Y350224D01*
X527289Y350186D01*
X527282Y350143D01*
X527273Y350039D01*
X527270Y349912D01*
X526570Y349969D01*
X526570Y350036D01*
X526552Y350282D01*
X526545Y350314D01*
X526538Y350340D01*
X526529Y350360D01*
X526519Y350374D01*
X527344Y350320D01*
D02*
G37*
G36*
X529216Y349937D02*
X529155Y349926D01*
X529097Y349913D01*
X529041Y349897D01*
X528987Y349878D01*
X528936Y349856D01*
X528887Y349832D01*
X528841Y349804D01*
X528797Y349774D01*
X528756Y349740D01*
X528717Y349704D01*
X528397Y349935D01*
X528435Y349975D01*
X528468Y350018D01*
X528495Y350063D01*
X528518Y350109D01*
X528536Y350158D01*
X528549Y350208D01*
X528556Y350260D01*
X528559Y350313D01*
X528557Y350369D01*
X528550Y350426D01*
X529216Y349937D01*
D02*
G37*
G36*
X534450Y348181D02*
X534415Y348202D01*
X534379Y348220D01*
X534341Y348236D01*
X534301Y348250D01*
X534260Y348262D01*
X534218Y348272D01*
X534174Y348280D01*
X534082Y348288D01*
X534034Y348289D01*
X533932Y348678D01*
X533981Y348680D01*
X534028Y348685D01*
X534071Y348694D01*
X534112Y348706D01*
X534149Y348722D01*
X534183Y348741D01*
X534215Y348763D01*
X534243Y348789D01*
X534269Y348818D01*
X534291Y348851D01*
X534450Y348181D01*
D02*
G37*
G36*
X525701Y346352D02*
X525715Y346326D01*
X525740Y346291D01*
X525774Y346248D01*
X525936Y346069D01*
X526185Y345813D01*
X525902Y345530D01*
X525809Y345623D01*
X525363Y346015D01*
X525345Y346020D01*
X525696Y346370D01*
X525701Y346352D01*
D02*
G37*
G36*
X530759Y345120D02*
X530725Y345085D01*
X530695Y345049D01*
X530668Y345012D01*
X530643Y344975D01*
X530622Y344938D01*
X530603Y344899D01*
X530587Y344860D01*
X530575Y344820D01*
X530565Y344780D01*
X530558Y344739D01*
X530143Y345289D01*
X530184Y345285D01*
X530224Y345285D01*
X530263Y345289D01*
X530302Y345298D01*
X530341Y345311D01*
X530379Y345327D01*
X530416Y345349D01*
X530453Y345374D01*
X530490Y345403D01*
X530526Y345437D01*
X530759Y345120D01*
D02*
G37*
G36*
X526563Y345437D02*
X526599Y345407D01*
X526636Y345380D01*
X526673Y345357D01*
X526711Y345338D01*
X526749Y345322D01*
X526788Y345310D01*
X526827Y345301D01*
X526867Y345296D01*
X526907Y345295D01*
X526420Y344808D01*
X526419Y344848D01*
X526414Y344888D01*
X526405Y344927D01*
X526393Y344966D01*
X526377Y345004D01*
X526358Y345042D01*
X526335Y345079D01*
X526308Y345116D01*
X526278Y345152D01*
X526244Y345188D01*
X526527Y345471D01*
X526563Y345437D01*
D02*
G37*
G36*
X526569Y341309D02*
X526549Y341327D01*
X526525Y341343D01*
X526497Y341357D01*
X526466Y341369D01*
X526431Y341380D01*
X526392Y341388D01*
X526350Y341395D01*
X526304Y341400D01*
X526201Y341403D01*
Y341903D01*
X526255Y341904D01*
X526350Y341912D01*
X526392Y341918D01*
X526431Y341927D01*
X526466Y341937D01*
X526497Y341950D01*
X526525Y341964D01*
X526549Y341980D01*
X526569Y341998D01*
Y341309D01*
D02*
G37*
G36*
X528527Y339766D02*
X528524Y339764D01*
X528516Y339756D01*
X528280Y339523D01*
X528005Y339798D01*
X528247Y340046D01*
X528527Y339766D01*
D02*
G37*
G36*
X528015Y337245D02*
X527972Y337197D01*
X527932Y337141D01*
X527894Y337077D01*
X527857Y337004D01*
X527823Y336924D01*
X527792Y336834D01*
X527734Y336631D01*
X527709Y336517D01*
X527685Y336395D01*
X526985Y337418D01*
X527091Y337400D01*
X527191Y337389D01*
X527286Y337386D01*
X527375Y337391D01*
X527459Y337403D01*
X527537Y337422D01*
X527609Y337449D01*
X527676Y337483D01*
X527737Y337524D01*
X527792Y337573D01*
X528015Y337245D01*
D02*
G37*
G36*
X513806Y334101D02*
X513820Y334098D01*
X513840Y334096D01*
X513929Y334092D01*
X514122Y334090D01*
X514390Y333590D01*
X514336Y333588D01*
X514244Y333579D01*
X514204Y333570D01*
X514169Y333559D01*
X514139Y333546D01*
X514113Y333530D01*
X514092Y333511D01*
X514075Y333491D01*
X514063Y333468D01*
X513797Y334103D01*
X513806Y334101D01*
D02*
G37*
G36*
X481058Y359278D02*
X481112Y359233D01*
X481167Y359193D01*
X481223Y359158D01*
X481280Y359129D01*
X481338Y359105D01*
X481397Y359086D01*
X481457Y359073D01*
X481519Y359065D01*
X481581Y359062D01*
Y358630D01*
X481519Y358628D01*
X481457Y358620D01*
X481397Y358606D01*
X481338Y358588D01*
X481280Y358564D01*
X481223Y358534D01*
X481167Y358500D01*
X481112Y358460D01*
X481058Y358415D01*
X481005Y358364D01*
Y359329D01*
X481058Y359278D01*
D02*
G37*
G36*
X487529Y344380D02*
X487484Y344326D01*
X487444Y344272D01*
X487409Y344216D01*
X487380Y344159D01*
X487356Y344100D01*
X487337Y344041D01*
X487324Y343981D01*
X487316Y343920D01*
X487313Y343857D01*
X486881D01*
X486879Y343920D01*
X486871Y343981D01*
X486857Y344041D01*
X486839Y344100D01*
X486815Y344159D01*
X486785Y344216D01*
X486751Y344272D01*
X486711Y344326D01*
X486665Y344380D01*
X486615Y344433D01*
X487579D01*
X487529Y344380D01*
D02*
G37*
G36*
X553360Y332864D02*
X553306Y332914D01*
X553251Y332958D01*
X553196Y332998D01*
X553139Y333032D01*
X553082Y333061D01*
X553023Y333084D01*
X552964Y333103D01*
X552903Y333116D01*
X552842Y333124D01*
X552780Y333126D01*
X552772Y333558D01*
X552835Y333561D01*
X552896Y333569D01*
X552956Y333583D01*
X553015Y333602D01*
X553073Y333626D01*
X553129Y333656D01*
X553184Y333691D01*
X553238Y333731D01*
X553291Y333777D01*
X553343Y333828D01*
X553360Y332864D01*
D02*
G37*
G36*
X552849Y330417D02*
X552787Y330461D01*
X552665Y330535D01*
X552603Y330565D01*
X552542Y330591D01*
X552481Y330611D01*
X552421Y330628D01*
X552360Y330639D01*
X552299Y330646D01*
X552239Y330648D01*
X552169Y331081D01*
X552233Y331083D01*
X552294Y331092D01*
X552354Y331107D01*
X552411Y331127D01*
X552465Y331153D01*
X552517Y331185D01*
X552567Y331223D01*
X552615Y331266D01*
X552660Y331316D01*
X552703Y331371D01*
X552849Y330417D01*
D02*
G37*
D14*
X536727Y345153D02*
Y349462D01*
X533220Y341645D02*
X536727Y345153D01*
X525475Y360713D02*
X536727Y349462D01*
X531645Y341653D02*
X535956Y345965D01*
Y349128D01*
X525955Y359129D02*
X535956Y349128D01*
X534035Y441458D02*
X536103D01*
X532715Y440139D02*
X534035Y441458D01*
X529077Y433846D02*
Y435864D01*
X526416Y431185D02*
X529077Y433846D01*
X527991Y436950D02*
X529077Y435864D01*
X527991Y436950D02*
Y436989D01*
X526416Y418965D02*
Y431185D01*
X527991Y441713D02*
Y445786D01*
X526026Y447750D02*
X527991Y445786D01*
X524114Y447750D02*
X526026D01*
X529686Y441593D02*
X531141Y440139D01*
X529566Y436989D02*
X529677Y436877D01*
X529783Y413888D02*
Y436157D01*
Y413888D02*
X532231Y411440D01*
X529677Y436262D02*
X529783Y436157D01*
X529677Y436262D02*
Y436877D01*
X521343Y360713D02*
X525475D01*
X520687Y359129D02*
X525955D01*
X512632Y405181D02*
X526416Y418965D01*
X496582Y405181D02*
X512632D01*
X493707Y402306D02*
X496582Y405181D01*
X519140Y362917D02*
Y373696D01*
X506714Y386122D02*
X519140Y373696D01*
X524015Y447850D02*
X524114Y447750D01*
X525346Y346370D02*
X526912Y344803D01*
X526920Y346378D02*
X530070Y343228D01*
X519759Y360057D02*
Y362298D01*
X519140Y362917D02*
X519759Y362298D01*
Y360057D02*
X520687Y359129D01*
X526920Y343228D02*
X528495Y341653D01*
X532512Y455060D02*
X532704D01*
D16*
X538630Y439133D02*
X539324D01*
X546690Y446499D01*
X538529Y439033D02*
X538630Y439133D01*
X536103Y441458D02*
X538529Y439033D01*
X532540Y449552D02*
Y455032D01*
X529686Y441593D02*
Y446699D01*
X532512Y455060D02*
X532540Y455032D01*
X529686Y446699D02*
X532540Y449552D01*
X531141Y441713D02*
Y442753D01*
X536011Y447624D02*
Y455060D01*
X531141Y442753D02*
X536011Y447624D01*
X516378Y333840D02*
X524192Y341653D01*
X526920D01*
X516808Y433616D02*
X523043D01*
X526416Y436989D01*
X520818Y432366D02*
X520910Y432458D01*
X523460D01*
X526416Y435414D01*
X527991D01*
X524791Y444864D02*
X526366Y443288D01*
X513606Y333650D02*
X513796Y333840D01*
X516378D01*
X528495Y340014D02*
Y341653D01*
D93*
X538325Y425993D02*
Y429804D01*
X536850Y431280D02*
X538325Y429804D01*
D94*
X510304Y326427D02*
X529151D01*
X529732Y327009D01*
X507021Y329711D02*
X510304Y326427D01*
X553158Y330865D02*
X553262Y330968D01*
X551607Y330865D02*
X553158D01*
X549321Y333342D02*
X553831D01*
X553843Y333355D01*
X542987Y327009D02*
X549321Y333342D01*
X544319Y323577D02*
X551607Y330865D01*
X487097Y335631D02*
Y344925D01*
Y335631D02*
X497090D01*
X494249Y348184D02*
X503996Y338437D01*
X493727Y348184D02*
X494249D01*
X489306Y352605D02*
X493727Y348184D01*
X503996Y331646D02*
Y338437D01*
X488094Y352605D02*
X489306D01*
X481853Y358846D02*
X488094Y352605D01*
X480513Y358846D02*
X481853D01*
X497090Y335631D02*
X500235Y332487D01*
Y331379D02*
Y332487D01*
Y331379D02*
X501566Y330048D01*
X502656D01*
X504254Y328449D01*
Y327341D02*
X505516Y326079D01*
X504254Y327341D02*
Y328449D01*
X505516Y326079D02*
X506328D01*
X507775Y324632D01*
X505932Y329711D02*
X507021D01*
X503996Y331646D02*
X505932Y329711D01*
X507775Y324632D02*
X532693D01*
X533749Y323577D01*
X544319D01*
X529732Y327009D02*
X542987D01*
D96*
X529175Y334431D02*
Y337249D01*
X530070Y338145D01*
X526920Y350729D02*
X526959Y350768D01*
X526920Y346378D02*
Y350729D01*
X530070Y338145D02*
Y341653D01*
X525346Y346370D02*
Y347953D01*
D98*
X529133Y350395D02*
Y350521D01*
X528366Y348082D02*
Y349628D01*
X529133Y350395D01*
X530166Y344802D02*
X533848Y348484D01*
X534599D01*
X534713Y348598D01*
X528366Y348082D02*
X530070Y346378D01*
Y344802D02*
X530166D01*
X526813Y336549D02*
X527043D01*
X528142Y337648D01*
Y339661D01*
X528495Y340014D01*
D100*
X532715Y435414D02*
X536850Y431280D01*
D102*
X521740Y444281D02*
X521897D01*
X522480Y444864D01*
X524791D01*
X526366Y443288D02*
X526416D01*
D104*
X477785Y438657D02*
D03*
Y404642D02*
D03*
D105*
X462037Y438657D02*
D03*
Y404642D02*
D03*
D106*
X457204Y463037D02*
D03*
D107*
Y453037D02*
D03*
D108*
X510481Y339410D02*
D03*
X513750Y345000D02*
D03*
X497972Y394416D02*
D03*
X498750Y375000D02*
D03*
X493333Y393659D02*
D03*
X562500Y442500D02*
D03*
Y427500D02*
D03*
Y412500D02*
D03*
Y382500D02*
D03*
Y292500D02*
D03*
X558750Y450000D02*
D03*
Y420000D02*
D03*
Y360000D02*
D03*
X555000Y352500D02*
D03*
X558750Y345000D02*
D03*
X555000Y292500D02*
D03*
X558750Y285000D02*
D03*
X547500Y397500D02*
D03*
X551250Y375000D02*
D03*
X547500Y322500D02*
D03*
Y292500D02*
D03*
X551250Y285000D02*
D03*
X540000Y397500D02*
D03*
X543750Y300000D02*
D03*
X540000Y262500D02*
D03*
X536250Y465000D02*
D03*
X532500Y397500D02*
D03*
Y382500D02*
D03*
Y292500D02*
D03*
X525000Y412500D02*
D03*
Y292500D02*
D03*
Y277500D02*
D03*
Y262500D02*
D03*
X517500Y277500D02*
D03*
Y262500D02*
D03*
X513750Y465000D02*
D03*
X510000Y442500D02*
D03*
X513750Y270000D02*
D03*
X510000Y262500D02*
D03*
X506250Y465000D02*
D03*
X502500Y442500D02*
D03*
X506250Y435000D02*
D03*
X502500Y427500D02*
D03*
Y382500D02*
D03*
Y292500D02*
D03*
X498750Y465000D02*
D03*
Y450000D02*
D03*
Y435000D02*
D03*
X495000Y412500D02*
D03*
X498750Y285000D02*
D03*
Y270000D02*
D03*
X491250Y300000D02*
D03*
Y285000D02*
D03*
X487500Y262500D02*
D03*
X480000Y457500D02*
D03*
Y442500D02*
D03*
X483750Y405000D02*
D03*
X480000Y307500D02*
D03*
Y277500D02*
D03*
X472500Y457500D02*
D03*
X476250Y360000D02*
D03*
X472500Y277500D02*
D03*
X465000Y457500D02*
D03*
Y427500D02*
D03*
X468750Y420000D02*
D03*
X465000Y412500D02*
D03*
Y397500D02*
D03*
Y367500D02*
D03*
Y352500D02*
D03*
Y307500D02*
D03*
Y292500D02*
D03*
X457500Y457500D02*
D03*
Y427500D02*
D03*
X461250Y420000D02*
D03*
X457500Y412500D02*
D03*
Y397500D02*
D03*
Y367500D02*
D03*
X461250Y345000D02*
D03*
Y315000D02*
D03*
X457500Y292500D02*
D03*
Y262500D02*
D03*
X499551Y351685D02*
D03*
X485265Y351681D02*
D03*
X485382Y347862D02*
D03*
X468431Y328834D02*
D03*
X465469Y328758D02*
D03*
X462570Y328834D02*
D03*
X471305Y329010D02*
D03*
X459755Y329064D02*
D03*
X457564Y330829D02*
D03*
X457364Y334234D02*
D03*
X457276Y337626D02*
D03*
X457652Y340117D02*
D03*
X467991Y341043D02*
D03*
X473586Y340831D02*
D03*
X553262Y330968D02*
D03*
X553843Y333355D02*
D03*
X559401Y321619D02*
D03*
X530028Y352044D02*
D03*
X515269Y301511D02*
D03*
X516886Y300418D02*
D03*
X518963Y300375D02*
D03*
X521017Y300353D02*
D03*
X522755Y300342D02*
D03*
X524908Y300145D02*
D03*
X527072Y300123D02*
D03*
X530427Y301763D02*
D03*
X532405Y308615D02*
D03*
X532558Y304626D02*
D03*
X532722Y306527D02*
D03*
X530809Y314287D02*
D03*
X523247Y314783D02*
D03*
X525302Y314844D02*
D03*
X521466Y314888D02*
D03*
X519466Y314954D02*
D03*
X517247Y314920D02*
D03*
X514242Y313172D02*
D03*
X515258Y314931D02*
D03*
X531670Y302919D02*
D03*
X529327Y300544D02*
D03*
X513804Y303046D02*
D03*
X524494Y310001D02*
D03*
X520403Y312370D02*
D03*
X512576Y304578D02*
D03*
Y306895D02*
D03*
X528844Y314693D02*
D03*
X526797Y314813D02*
D03*
X515966Y365759D02*
D03*
X484059Y362746D02*
D03*
X478117Y362097D02*
D03*
X487477Y359580D02*
D03*
X487429Y357496D02*
D03*
X489824Y343927D02*
D03*
X490220Y404364D02*
D03*
X487097Y344925D02*
D03*
X493009Y387376D02*
D03*
X476895Y337792D02*
D03*
X474839Y330260D02*
D03*
X473320Y328984D02*
D03*
X492363Y351685D02*
D03*
X480513Y358846D02*
D03*
X514439Y328003D02*
D03*
X514303Y331229D02*
D03*
X515719Y338868D02*
D03*
X532231Y411440D02*
D03*
X478234Y358892D02*
D03*
X508506Y366031D02*
D03*
X517667Y331179D02*
D03*
X521740Y444281D02*
D03*
X524015Y447850D02*
D03*
X524127Y337182D02*
D03*
X493623Y346673D02*
D03*
X515765Y368709D02*
D03*
X471073Y340865D02*
D03*
X465250Y340936D02*
D03*
X536011Y455060D02*
D03*
X532704D02*
D03*
X461798Y340465D02*
D03*
X461925Y335048D02*
D03*
X459598Y334665D02*
D03*
D109*
X508073Y348535D02*
D03*
X516402Y345350D02*
D03*
X467100Y417572D02*
D03*
X467174Y424452D02*
D03*
X514758Y322754D02*
D03*
X564918Y337030D02*
D03*
X520244Y329495D02*
D03*
X538888Y355238D02*
D03*
X512781Y425994D02*
D03*
X551614Y440660D02*
D03*
X532893Y359318D02*
D03*
X550429Y260375D02*
D03*
X547660Y260258D02*
D03*
X543212Y333546D02*
D03*
X538703Y349915D02*
D03*
X541593Y341317D02*
D03*
X544738Y343529D02*
D03*
X536307Y338610D02*
D03*
X530502Y329726D02*
D03*
X538513Y343657D02*
D03*
X505408Y296881D02*
D03*
X505388Y294109D02*
D03*
X505367Y291338D02*
D03*
X505626Y288578D02*
D03*
X507466Y286506D02*
D03*
X510204Y286072D02*
D03*
X512975D02*
D03*
X515747D02*
D03*
X518518D02*
D03*
X521290D02*
D03*
X524062D02*
D03*
X526833D02*
D03*
X529605D02*
D03*
X532377D02*
D03*
X535122Y285694D02*
D03*
X536416Y278645D02*
D03*
X539188D02*
D03*
X541507Y280162D02*
D03*
X544279D02*
D03*
X546532Y278548D02*
D03*
Y275776D02*
D03*
Y273005D02*
D03*
X545728Y262245D02*
D03*
X551482Y265563D02*
D03*
X551581Y268333D02*
D03*
X550844Y271005D02*
D03*
Y273777D02*
D03*
Y276548D02*
D03*
Y279320D02*
D03*
X550750Y282090D02*
D03*
X548941Y284190D02*
D03*
X546184Y284474D02*
D03*
X543413D02*
D03*
X540755Y285261D02*
D03*
X539156Y287525D02*
D03*
X531841Y290384D02*
D03*
X529069D02*
D03*
X526297D02*
D03*
X523526D02*
D03*
X520754D02*
D03*
X515211D02*
D03*
X512439D02*
D03*
X509674Y290570D02*
D03*
X507123Y303288D02*
D03*
X456142Y372881D02*
D03*
X462955Y387712D02*
D03*
X459383Y395867D02*
D03*
X459600Y372881D02*
D03*
X463057D02*
D03*
X462955Y382808D02*
D03*
X456118Y387712D02*
D03*
X459537D02*
D03*
X459497Y382808D02*
D03*
X462867Y392822D02*
D03*
X456074D02*
D03*
X456039Y382808D02*
D03*
X540757Y458763D02*
D03*
X551410Y414632D02*
D03*
X468128Y406431D02*
D03*
X510754Y365925D02*
D03*
X467247Y357986D02*
D03*
X468059Y362264D02*
D03*
X549128Y309660D02*
D03*
X552403Y438734D02*
D03*
X511323Y375595D02*
D03*
X524985Y302799D02*
D03*
X524138Y305580D02*
D03*
X540815Y466797D02*
D03*
X538325Y425993D02*
D03*
X538927Y421162D02*
D03*
X543314Y420979D02*
D03*
X539411Y418176D02*
D03*
X542870Y425471D02*
D03*
X547367Y418176D02*
D03*
X543389D02*
D03*
X539444Y415424D02*
D03*
X543431Y415374D02*
D03*
X547434Y415257D02*
D03*
X546900Y411738D02*
D03*
X467449Y430559D02*
D03*
X467351Y413510D02*
D03*
X479895Y399959D02*
D03*
X467410Y410393D02*
D03*
X467386Y402371D02*
D03*
X474611Y434323D02*
D03*
X459471Y392822D02*
D03*
X466600Y442100D02*
D03*
X455233Y408100D02*
D03*
Y410690D02*
D03*
Y413280D02*
D03*
Y415870D02*
D03*
Y431410D02*
D03*
Y426230D02*
D03*
Y428820D02*
D03*
Y434000D02*
D03*
Y423640D02*
D03*
Y418460D02*
D03*
Y421050D02*
D03*
X466500Y446200D02*
D03*
X455250D02*
D03*
X462750D02*
D03*
X459000D02*
D03*
X477750D02*
D03*
X474000D02*
D03*
X470250D02*
D03*
X468550Y449100D02*
D03*
X472300D02*
D03*
X464800D02*
D03*
X476050D02*
D03*
X467025Y452750D02*
D03*
X470775D02*
D03*
X463275D02*
D03*
X474525D02*
D03*
X528966Y304522D02*
D03*
X455450Y399900D02*
D03*
X459200D02*
D03*
X466700D02*
D03*
X462021Y408914D02*
D03*
X458755Y408668D02*
D03*
X465376Y408489D02*
D03*
X468367Y434000D02*
D03*
X465083D02*
D03*
X461800D02*
D03*
X471650D02*
D03*
X458517D02*
D03*
X470350Y442100D02*
D03*
X474100D02*
D03*
X477850D02*
D03*
X459100D02*
D03*
X462850D02*
D03*
X455350D02*
D03*
X459527Y369355D02*
D03*
X520214Y297927D02*
D03*
X522756Y297883D02*
D03*
X517724Y291659D02*
D03*
X501551Y296088D02*
D03*
X501563Y298216D02*
D03*
X515737Y380228D02*
D03*
X467235Y366926D02*
D03*
X482975Y387691D02*
D03*
X483533Y392666D02*
D03*
X551085Y421736D02*
D03*
X509895Y294480D02*
D03*
X558695Y319259D02*
D03*
X547948Y295166D02*
D03*
X559677Y301780D02*
D03*
X559819Y307371D02*
D03*
X559400Y305228D02*
D03*
X559354Y314063D02*
D03*
X568008Y322826D02*
D03*
X565924Y302962D02*
D03*
X565982Y300856D02*
D03*
X568055Y311436D02*
D03*
X504587Y305236D02*
D03*
X497471Y296003D02*
D03*
X497321Y298216D02*
D03*
X545665Y264897D02*
D03*
X515464Y423471D02*
D03*
X505688Y425974D02*
D03*
X538480Y270214D02*
D03*
X538393Y272758D02*
D03*
X538519Y267251D02*
D03*
X526866Y270214D02*
D03*
X526955Y267471D02*
D03*
X526829Y272978D02*
D03*
X505415Y445798D02*
D03*
X503049Y445809D02*
D03*
X535994Y290873D02*
D03*
X536013Y293284D02*
D03*
X522900Y354144D02*
D03*
X524939Y354145D02*
D03*
X509483Y369202D02*
D03*
X500492Y419783D02*
D03*
X488520Y447599D02*
D03*
X502730Y269532D02*
D03*
X538632Y320279D02*
D03*
X532942Y334740D02*
D03*
X492638Y432873D02*
D03*
X494077Y302806D02*
D03*
X481542Y293239D02*
D03*
X477212D02*
D03*
X485873D02*
D03*
X493292Y264952D02*
D03*
X475047Y301586D02*
D03*
X497768Y427425D02*
D03*
X521355Y435414D02*
D03*
X551117Y425693D02*
D03*
X554962Y443080D02*
D03*
X526813Y336549D02*
D03*
X525465Y320248D02*
D03*
X525038Y322643D02*
D03*
X522790Y323022D02*
D03*
X504639Y348719D02*
D03*
X456263Y360934D02*
D03*
X456105Y353641D02*
D03*
X544976Y270802D02*
D03*
X542417Y270901D02*
D03*
X522828Y270214D02*
D03*
X515109Y279239D02*
D03*
X559597Y299322D02*
D03*
X547948Y297529D02*
D03*
X503165Y263283D02*
D03*
X521343Y360713D02*
D03*
X542350Y411714D02*
D03*
X554962Y445691D02*
D03*
X551117Y431275D02*
D03*
X545374Y331673D02*
D03*
X544801Y462622D02*
D03*
X470830Y349625D02*
D03*
X468786Y344222D02*
D03*
X513971Y439450D02*
D03*
X516530Y439148D02*
D03*
X503712Y438513D02*
D03*
X519546Y333887D02*
D03*
X455752Y344847D02*
D03*
X506714Y386122D02*
D03*
X518403Y320310D02*
D03*
X521962Y328653D02*
D03*
X544547Y437720D02*
D03*
X508101Y455695D02*
D03*
X534069Y451754D02*
D03*
X473307Y322838D02*
D03*
X469980Y308563D02*
D03*
X470079Y311417D02*
D03*
X472539Y317913D02*
D03*
X466043Y321063D02*
D03*
X459936Y260300D02*
D03*
X460210Y263465D02*
D03*
X459936Y266895D02*
D03*
X476078Y265714D02*
D03*
X484247Y264926D02*
D03*
X476268Y270044D02*
D03*
X494814Y284944D02*
D03*
X502607Y271991D02*
D03*
X520463Y271286D02*
D03*
X496949Y419783D02*
D03*
X466339Y317520D02*
D03*
D110*
X497744Y387720D02*
D03*
X521876Y460466D02*
D03*
X521087Y468707D02*
D03*
X567605Y340399D02*
D03*
X567424Y331637D02*
D03*
X566658Y382519D02*
D03*
X567776Y328237D02*
D03*
X565097Y453525D02*
D03*
X564211Y379372D02*
D03*
X550717Y347318D02*
D03*
X555956Y328235D02*
D03*
X555042Y326076D02*
D03*
X554612Y338384D02*
D03*
X554592Y335691D02*
D03*
X547148Y366728D02*
D03*
X530674Y361049D02*
D03*
X513649Y396858D02*
D03*
X517095Y447736D02*
D03*
X497169Y376584D02*
D03*
X523586Y421379D02*
D03*
X506268Y327895D02*
D03*
X502240D02*
D03*
X502180Y332002D02*
D03*
X498152D02*
D03*
X494123D02*
D03*
X498211Y327895D02*
D03*
X494183D02*
D03*
X489628Y332002D02*
D03*
X490155Y327895D02*
D03*
X486066Y332002D02*
D03*
X486126Y327895D02*
D03*
X511438Y396858D02*
D03*
X543859Y305976D02*
D03*
X534950Y391818D02*
D03*
X533069Y377518D02*
D03*
X496884Y367645D02*
D03*
X556485Y456895D02*
D03*
X506209Y332002D02*
D03*
X562508Y465010D02*
D03*
X550140Y468198D02*
D03*
X566758Y461666D02*
D03*
X562482Y461679D02*
D03*
X566627Y464892D02*
D03*
X566417Y468289D02*
D03*
X562640Y468237D02*
D03*
X558652Y468224D02*
D03*
X554573Y468211D02*
D03*
X556391Y462592D02*
D03*
X548478Y462601D02*
D03*
X517457Y467904D02*
D03*
Y464203D02*
D03*
Y460502D02*
D03*
X521036Y463001D02*
D03*
X532772Y421330D02*
D03*
X461313Y354070D02*
D03*
X502253Y319131D02*
D03*
X490167D02*
D03*
X486139D02*
D03*
X494196D02*
D03*
X498224D02*
D03*
X506281D02*
D03*
X498358Y323424D02*
D03*
X486272D02*
D03*
X494329D02*
D03*
X490301D02*
D03*
X502386D02*
D03*
X506415D02*
D03*
X489951Y314448D02*
D03*
X493979D02*
D03*
X498008D02*
D03*
X502036D02*
D03*
X506065D02*
D03*
X485922D02*
D03*
X529247Y368617D02*
D03*
X517892Y386122D02*
D03*
X542896Y325293D02*
D03*
X561005Y456833D02*
D03*
X545614Y467233D02*
D03*
D111*
X492284Y389431D02*
D03*
X538529Y439033D02*
D03*
X529409Y452579D02*
D03*
X529414Y450944D02*
D03*
X529133Y350521D02*
D03*
X492284Y391975D02*
D03*
X498324Y389941D02*
D03*
X498082Y392317D02*
D03*
X525272Y350591D02*
D03*
X526959Y350768D02*
D03*
X524536Y427875D02*
D03*
X524525Y426088D02*
D03*
X522617Y426176D02*
D03*
X522704Y427908D02*
D03*
X531967Y427854D02*
D03*
X531880Y426123D02*
D03*
X533789Y426035D02*
D03*
X533800Y427821D02*
D03*
X527488Y450966D02*
D03*
X527479Y452697D02*
D03*
D112*
X534713Y348598D02*
D03*
X546690Y446499D02*
D03*
X493707Y402306D02*
D03*
X530070Y346378D02*
D03*
Y344802D02*
D03*
X529175Y334431D02*
D03*
X520818Y432366D02*
D03*
X534290Y440139D02*
D03*
X513606Y333650D02*
D03*
X526920Y341653D02*
D03*
X525346Y347953D02*
D03*
X526912Y344803D02*
D03*
X533220Y341645D02*
D03*
X531645Y343228D02*
D03*
Y341653D02*
D03*
X530070Y343228D02*
D03*
X528495D02*
D03*
Y346378D02*
D03*
X530070Y341653D02*
D03*
X526920Y343228D02*
D03*
X529566Y436989D02*
D03*
X527991D02*
D03*
Y441713D02*
D03*
X516808Y433616D02*
D03*
X526416Y436989D02*
D03*
X527991Y435414D02*
D03*
X526416Y443288D02*
D03*
X532715Y435414D02*
D03*
X531141Y440139D02*
D03*
Y441713D02*
D03*
X532715Y440139D02*
D03*
Y436989D02*
D03*
Y438564D02*
D03*
Y441713D02*
D03*
X526416D02*
D03*
Y444863D02*
D03*
M02*
