G04*
G04 #@! TF.GenerationSoftware,Altium Limited,Altium Designer,25.0.2 (28)*
G04*
G04 Layer_Color=16711935*
%FSLAX25Y25*%
%MOIN*%
G70*
G04*
G04 #@! TF.SameCoordinates,87923E48-DD16-4358-96D2-8F0FF9BFB88F*
G04*
G04*
G04 #@! TF.FilePolarity,Negative*
G04*
G01*
G75*
%ADD12C,0.01000*%
%ADD59C,0.04337*%
%ADD65R,0.02487X0.02762*%
%ADD67R,0.02762X0.02487*%
%ADD74R,0.02723X0.02762*%
%ADD76R,0.03600X0.03900*%
%ADD81R,0.02762X0.02723*%
%ADD87C,0.06699*%
%ADD88R,0.06699X0.06699*%
%ADD89C,0.02172*%
%ADD102C,0.00800*%
%ADD126R,0.02362X0.01772*%
%ADD127R,0.01043X0.02126*%
%ADD128R,0.03550X0.06306*%
%ADD129R,0.03983X0.05754*%
G04:AMPARAMS|DCode=130|XSize=37.78mil|YSize=77mil|CornerRadius=0mil|HoleSize=0mil|Usage=FLASHONLY|Rotation=225.000|XOffset=0mil|YOffset=0mil|HoleType=Round|Shape=Rectangle|*
%AMROTATEDRECTD130*
4,1,4,-0.01387,0.04058,0.04058,-0.01387,0.01387,-0.04058,-0.04058,0.01387,-0.01387,0.04058,0.0*
%
%ADD130ROTATEDRECTD130*%

G04:AMPARAMS|DCode=131|XSize=37.78mil|YSize=77mil|CornerRadius=0mil|HoleSize=0mil|Usage=FLASHONLY|Rotation=315.000|XOffset=0mil|YOffset=0mil|HoleType=Round|Shape=Rectangle|*
%AMROTATEDRECTD131*
4,1,4,-0.04058,-0.01387,0.01387,0.04058,0.04058,0.01387,-0.01387,-0.04058,-0.04058,-0.01387,0.0*
%
%ADD131ROTATEDRECTD131*%

%ADD132R,0.04200X0.04300*%
%ADD133R,0.04300X0.04200*%
%ADD134R,0.03778X0.07700*%
G04:AMPARAMS|DCode=135|XSize=53.15mil|YSize=61.02mil|CornerRadius=14.27mil|HoleSize=0mil|Usage=FLASHONLY|Rotation=270.000|XOffset=0mil|YOffset=0mil|HoleType=Round|Shape=RoundedRectangle|*
%AMROUNDEDRECTD135*
21,1,0.05315,0.03248,0,0,270.0*
21,1,0.02461,0.06102,0,0,270.0*
1,1,0.02854,-0.01624,-0.01230*
1,1,0.02854,-0.01624,0.01230*
1,1,0.02854,0.01624,0.01230*
1,1,0.02854,0.01624,-0.01230*
%
%ADD135ROUNDEDRECTD135*%
G04:AMPARAMS|DCode=136|XSize=17.72mil|YSize=25.59mil|CornerRadius=5.41mil|HoleSize=0mil|Usage=FLASHONLY|Rotation=270.000|XOffset=0mil|YOffset=0mil|HoleType=Round|Shape=RoundedRectangle|*
%AMROUNDEDRECTD136*
21,1,0.01772,0.01476,0,0,270.0*
21,1,0.00689,0.02559,0,0,270.0*
1,1,0.01083,-0.00738,-0.00345*
1,1,0.01083,-0.00738,0.00345*
1,1,0.01083,0.00738,0.00345*
1,1,0.01083,0.00738,-0.00345*
%
%ADD136ROUNDEDRECTD136*%
%ADD137R,0.05124X0.06699*%
D12*
X548388Y341650D02*
Y343172D01*
Y339669D02*
Y341650D01*
X529761Y321013D02*
X535761D01*
X542205Y350588D02*
X542732Y351115D01*
X536346Y329304D02*
X542788Y335746D01*
X533473Y332592D02*
X540304Y339423D01*
X547061Y351115D02*
X547784Y350392D01*
X543231Y336189D02*
X543445D01*
X547784Y343776D02*
X548388Y343172D01*
X547784Y343776D02*
Y350392D01*
X536346Y321599D02*
Y329304D01*
X542205Y343383D02*
Y350588D01*
X542433Y339423D02*
X543515Y340505D01*
X544907Y336189D02*
X548388Y339669D01*
X543445Y336189D02*
X544907D01*
X542732Y351115D02*
X547061D01*
X529971Y332592D02*
X533473D01*
X543515Y340505D02*
Y342074D01*
X542205Y343383D02*
X543515Y342074D01*
X543003Y335746D02*
X543208D01*
X528608Y322166D02*
X529761Y321013D01*
X528608Y331229D02*
X529971Y332592D01*
X540304Y339423D02*
X542433D01*
X528608Y322166D02*
Y331229D01*
X535761Y321013D02*
X536346Y321599D01*
X504747Y356038D02*
X523103D01*
X500113Y357981D02*
X503029Y355065D01*
X503775D02*
X504747Y356038D01*
X503029Y355065D02*
X503775D01*
X510020Y363700D02*
X511888D01*
X512032Y363556D02*
X517751D01*
X526018Y358954D02*
Y359700D01*
X508269Y363700D02*
X510020D01*
X507553Y364416D02*
X508269Y363700D01*
X523103Y356038D02*
X526018Y358954D01*
X500113Y358727D02*
X505802Y364416D01*
X507553D01*
X520329Y365389D02*
X526018Y359700D01*
X519584Y365389D02*
X520329D01*
X517751Y363556D02*
X519584Y365389D01*
X500113Y357981D02*
Y358727D01*
D59*
X556731Y342359D02*
D03*
D65*
X520291Y449083D02*
D03*
X523732D02*
D03*
X497065Y385385D02*
D03*
X500506D02*
D03*
X550069Y372193D02*
D03*
X553510D02*
D03*
X550099Y366746D02*
D03*
X553540D02*
D03*
X500506Y379588D02*
D03*
X497065D02*
D03*
D67*
X530674Y358763D02*
D03*
Y355322D02*
D03*
X543859Y313087D02*
D03*
Y309646D02*
D03*
X565103Y328082D02*
D03*
Y331523D02*
D03*
X564921Y340438D02*
D03*
Y336997D02*
D03*
X524504Y380788D02*
D03*
Y377347D02*
D03*
X530084Y380813D02*
D03*
Y377372D02*
D03*
X536021Y355293D02*
D03*
Y358734D02*
D03*
X549128Y313101D02*
D03*
Y309660D02*
D03*
X469188Y263596D02*
D03*
Y260155D02*
D03*
X463578Y263545D02*
D03*
Y260104D02*
D03*
D74*
X536011Y455060D02*
D03*
X532704D02*
D03*
X473425Y320669D02*
D03*
X470118D02*
D03*
D76*
X536013Y438473D02*
D03*
X541113D02*
D03*
D81*
X466634Y311535D02*
D03*
Y314843D02*
D03*
D87*
X457204Y463037D02*
D03*
D88*
Y453037D02*
D03*
D89*
X550429Y260375D02*
D03*
X547660Y260258D02*
D03*
X505408Y296881D02*
D03*
X505388Y294109D02*
D03*
X505367Y291338D02*
D03*
X505626Y288578D02*
D03*
X507466Y286506D02*
D03*
X510204Y286072D02*
D03*
X512975D02*
D03*
X515747D02*
D03*
X518518D02*
D03*
X521290D02*
D03*
X524062D02*
D03*
X526833D02*
D03*
X529605D02*
D03*
X532377D02*
D03*
X535122Y285694D02*
D03*
X536416Y278645D02*
D03*
X539188D02*
D03*
X541507Y280162D02*
D03*
X544279D02*
D03*
X546532Y278548D02*
D03*
Y275776D02*
D03*
Y273005D02*
D03*
X545728Y262245D02*
D03*
X551482Y265563D02*
D03*
X551581Y268333D02*
D03*
X550844Y271005D02*
D03*
Y273777D02*
D03*
Y276548D02*
D03*
Y279320D02*
D03*
X550750Y282090D02*
D03*
X548941Y284190D02*
D03*
X546184Y284474D02*
D03*
X543413D02*
D03*
X540755Y285261D02*
D03*
X539156Y287525D02*
D03*
X531841Y290384D02*
D03*
X529069D02*
D03*
X526297D02*
D03*
X523526D02*
D03*
X520754D02*
D03*
X515211D02*
D03*
X512439D02*
D03*
X509674Y290570D02*
D03*
X507123Y303288D02*
D03*
D102*
X509037Y390341D02*
G03*
X508462Y390587I-577J-554D01*
G01*
X510316Y388671D02*
G03*
X510096Y389227I-800J4D01*
G01*
X504412Y390326D02*
G03*
X504186Y389773I575J-556D01*
G01*
X505010Y390594D02*
G03*
X504435Y390350I0J-800D01*
G01*
X504157Y382411D02*
G03*
X504405Y381832I800J-1D01*
G01*
X504743Y381512D02*
X510153D01*
X509037Y390341D02*
X509040Y390338D01*
X504157Y382413D02*
X504186Y389773D01*
X504405Y381832D02*
X504743Y381512D01*
X510248Y381591D02*
X510316Y388668D01*
X509040Y390338D02*
X510096Y389227D01*
X505011Y390594D02*
X508462Y390587D01*
D126*
X559842Y338128D02*
D03*
Y335569D02*
D03*
Y333010D02*
D03*
Y330451D02*
D03*
X551771D02*
D03*
Y335569D02*
D03*
Y333010D02*
D03*
Y338128D02*
D03*
D127*
X508042Y371275D02*
D03*
X506369D02*
D03*
X508042Y376590D02*
D03*
X506369D02*
D03*
D128*
X545981Y358535D02*
D03*
X550115D02*
D03*
X537898Y313046D02*
D03*
X533765D02*
D03*
D129*
X550802Y347538D02*
D03*
X544897D02*
D03*
D130*
X529247Y368617D02*
D03*
X521343Y360713D02*
D03*
D131*
X496884Y367645D02*
D03*
X504788Y359741D02*
D03*
D132*
X507691Y396932D02*
D03*
X501591D02*
D03*
X559708Y378699D02*
D03*
X553608D02*
D03*
X528873Y387682D02*
D03*
X534973D02*
D03*
D133*
X555695Y322309D02*
D03*
Y316209D02*
D03*
X475197Y305415D02*
D03*
Y311515D02*
D03*
D134*
X517892Y386122D02*
D03*
X506714D02*
D03*
D135*
X515765Y372878D02*
D03*
D136*
X517517Y377012D02*
D03*
X514013D02*
D03*
D137*
X532266Y325293D02*
D03*
X542896D02*
D03*
M02*
