G04*
G04 #@! TF.GenerationSoftware,Altium Limited,Altium Designer,25.0.2 (28)*
G04*
G04 Layer_Color=2752767*
%FSLAX25Y25*%
%MOIN*%
G70*
G04*
G04 #@! TF.SameCoordinates,87923E48-DD16-4358-96D2-8F0FF9BFB88F*
G04*
G04*
G04 #@! TF.FilePolarity,Positive*
G04*
G01*
G75*
%ADD16C,0.00500*%
D16*
X528409Y451579D02*
Y450579D01*
X530409D01*
Y451579D01*
X531409D01*
Y453579D01*
X530409D01*
Y454579D01*
X528409D01*
Y453579D01*
X527409D01*
Y451579D01*
X528409D01*
X528414Y449944D02*
Y448944D01*
X530414D01*
Y449944D01*
X531414D01*
Y451944D01*
X530414D01*
Y452944D01*
X528414D01*
Y451944D01*
X527414D01*
Y449944D01*
X528414D01*
X523536Y426875D02*
Y425875D01*
X525536D01*
Y426875D01*
X526536D01*
Y428875D01*
X525536D01*
Y429875D01*
X523536D01*
Y428875D01*
X522536D01*
Y426875D01*
X523536D01*
X523525Y425088D02*
Y424088D01*
X525525D01*
Y425088D01*
X526525D01*
Y427088D01*
X525525D01*
Y428088D01*
X523525D01*
Y427088D01*
X522525D01*
Y425088D01*
X523525D01*
X521617Y425176D02*
Y424176D01*
X523617D01*
Y425176D01*
X524617D01*
Y427176D01*
X523617D01*
Y428176D01*
X521617D01*
Y427176D01*
X520617D01*
Y425176D01*
X521617D01*
X521704Y426908D02*
Y425908D01*
X523704D01*
Y426908D01*
X524704D01*
Y428908D01*
X523704D01*
Y429908D01*
X521704D01*
Y428908D01*
X520704D01*
Y426908D01*
X521704D01*
X530967Y426854D02*
Y425854D01*
X532967D01*
Y426854D01*
X533967D01*
Y428854D01*
X532967D01*
Y429854D01*
X530967D01*
Y428854D01*
X529967D01*
Y426854D01*
X530967D01*
X530880Y425123D02*
Y424123D01*
X532880D01*
Y425123D01*
X533880D01*
Y427123D01*
X532880D01*
Y428123D01*
X530880D01*
Y427123D01*
X529880D01*
Y425123D01*
X530880D01*
X532789Y425035D02*
Y424035D01*
X534789D01*
Y425035D01*
X535789D01*
Y427035D01*
X534789D01*
Y428035D01*
X532789D01*
Y427035D01*
X531789D01*
Y425035D01*
X532789D01*
X532800Y426822D02*
Y425821D01*
X534800D01*
Y426822D01*
X535800D01*
Y428822D01*
X534800D01*
Y429821D01*
X532800D01*
Y428822D01*
X531800D01*
Y426822D01*
X532800D01*
X526488Y449966D02*
Y448966D01*
X528488D01*
Y449966D01*
X529488D01*
Y451966D01*
X528488D01*
Y452966D01*
X526488D01*
Y451966D01*
X525488D01*
Y449966D01*
X526488D01*
X526479Y451697D02*
Y450697D01*
X528479D01*
Y451697D01*
X529479D01*
Y453697D01*
X528479D01*
Y454697D01*
X526479D01*
Y453697D01*
X525479D01*
Y451697D01*
X526479D01*
X532290Y440139D02*
X534290Y442139D01*
X536290Y440139D01*
X534290Y438139D01*
X532290Y440139D01*
X529645Y343228D02*
X531645Y345228D01*
X533645Y343228D01*
X531645Y341228D01*
X529645Y343228D01*
X526495D02*
X528495Y345228D01*
X530495Y343228D01*
X528495Y341228D01*
X526495Y343228D01*
Y346378D02*
X528495Y348378D01*
X530495Y346378D01*
X528495Y344378D01*
X526495Y346378D01*
X530715Y436989D02*
X532715Y438989D01*
X534715Y436989D01*
X532715Y434989D01*
X530715Y436989D01*
Y438564D02*
X532715Y440564D01*
X534715Y438564D01*
X532715Y436564D01*
X530715Y438564D01*
Y441713D02*
X532715Y443713D01*
X534715Y441713D01*
X532715Y439713D01*
X530715Y441713D01*
X524416D02*
X526416Y443713D01*
X528416Y441713D01*
X526416Y439713D01*
X524416Y441713D01*
Y444863D02*
X526416Y446863D01*
X528416Y444863D01*
X526416Y442863D01*
X524416Y444863D01*
M02*
