G04*
G04 #@! TF.GenerationSoftware,Altium Limited,Altium Designer,25.0.2 (28)*
G04*
G04 Layer_Color=255*
%FSLAX25Y25*%
%MOIN*%
G70*
G04*
G04 #@! TF.SameCoordinates,87923E48-DD16-4358-96D2-8F0FF9BFB88F*
G04*
G04*
G04 #@! TF.FilePolarity,Positive*
G04*
G01*
G75*
%ADD25C,0.03937*%
%ADD30R,0.02087X0.02362*%
%ADD32R,0.02362X0.02087*%
%ADD39R,0.02323X0.02362*%
%ADD43R,0.03200X0.03500*%
%ADD50R,0.02362X0.02323*%
%ADD104O,0.07100X0.03900*%
%ADD105O,0.08700X0.03900*%
%ADD106C,0.06299*%
%ADD107R,0.06299X0.06299*%
%ADD114R,0.01968X0.01378*%
%ADD115R,0.00886X0.01968*%
%ADD116R,0.03150X0.05906*%
%ADD117R,0.03583X0.05354*%
G04:AMPARAMS|DCode=118|XSize=33.78mil|YSize=73mil|CornerRadius=0mil|HoleSize=0mil|Usage=FLASHONLY|Rotation=225.000|XOffset=0mil|YOffset=0mil|HoleType=Round|Shape=Rectangle|*
%AMROTATEDRECTD118*
4,1,4,-0.01387,0.03775,0.03775,-0.01387,0.01387,-0.03775,-0.03775,0.01387,-0.01387,0.03775,0.0*
%
%ADD118ROTATEDRECTD118*%

G04:AMPARAMS|DCode=119|XSize=33.78mil|YSize=73mil|CornerRadius=0mil|HoleSize=0mil|Usage=FLASHONLY|Rotation=315.000|XOffset=0mil|YOffset=0mil|HoleType=Round|Shape=Rectangle|*
%AMROTATEDRECTD119*
4,1,4,-0.03775,-0.01387,0.01387,0.03775,0.03775,0.01387,-0.01387,-0.03775,-0.03775,-0.01387,0.0*
%
%ADD119ROTATEDRECTD119*%

%ADD120R,0.03800X0.03900*%
%ADD121R,0.03900X0.03800*%
%ADD122R,0.03378X0.07300*%
G04:AMPARAMS|DCode=123|XSize=49.21mil|YSize=57.09mil|CornerRadius=12.3mil|HoleSize=0mil|Usage=FLASHONLY|Rotation=270.000|XOffset=0mil|YOffset=0mil|HoleType=Round|Shape=RoundedRectangle|*
%AMROUNDEDRECTD123*
21,1,0.04921,0.03248,0,0,270.0*
21,1,0.02461,0.05709,0,0,270.0*
1,1,0.02461,-0.01624,-0.01230*
1,1,0.02461,-0.01624,0.01230*
1,1,0.02461,0.01624,0.01230*
1,1,0.02461,0.01624,-0.01230*
%
%ADD123ROUNDEDRECTD123*%
G04:AMPARAMS|DCode=124|XSize=13.78mil|YSize=21.65mil|CornerRadius=3.45mil|HoleSize=0mil|Usage=FLASHONLY|Rotation=270.000|XOffset=0mil|YOffset=0mil|HoleType=Round|Shape=RoundedRectangle|*
%AMROUNDEDRECTD124*
21,1,0.01378,0.01476,0,0,270.0*
21,1,0.00689,0.02165,0,0,270.0*
1,1,0.00689,-0.00738,-0.00345*
1,1,0.00689,-0.00738,0.00345*
1,1,0.00689,0.00738,0.00345*
1,1,0.00689,0.00738,-0.00345*
%
%ADD124ROUNDEDRECTD124*%
%ADD125R,0.04724X0.06299*%
D25*
X556731Y342359D02*
D03*
D30*
X520291Y449083D02*
D03*
X523732D02*
D03*
X497065Y385385D02*
D03*
X500506D02*
D03*
X550069Y372193D02*
D03*
X553510D02*
D03*
X550099Y366746D02*
D03*
X553540D02*
D03*
X500506Y379588D02*
D03*
X497065D02*
D03*
D32*
X530674Y358763D02*
D03*
Y355322D02*
D03*
X543859Y313087D02*
D03*
Y309646D02*
D03*
X565103Y328082D02*
D03*
Y331523D02*
D03*
X564921Y340438D02*
D03*
Y336997D02*
D03*
X524504Y380788D02*
D03*
Y377347D02*
D03*
X530084Y380813D02*
D03*
Y377372D02*
D03*
X536021Y355293D02*
D03*
Y358734D02*
D03*
X549128Y313101D02*
D03*
Y309660D02*
D03*
X469188Y263596D02*
D03*
Y260155D02*
D03*
X463578Y263545D02*
D03*
Y260104D02*
D03*
D39*
X536011Y455060D02*
D03*
X532704D02*
D03*
X473425Y320669D02*
D03*
X470118D02*
D03*
D43*
X536013Y438473D02*
D03*
X541113D02*
D03*
D50*
X466634Y311535D02*
D03*
Y314843D02*
D03*
D104*
X477785Y438657D02*
D03*
Y404642D02*
D03*
D105*
X462037Y438657D02*
D03*
Y404642D02*
D03*
D106*
X457204Y463037D02*
D03*
D107*
Y453037D02*
D03*
D114*
X559842Y338128D02*
D03*
Y335569D02*
D03*
Y333010D02*
D03*
Y330451D02*
D03*
X551771D02*
D03*
Y335569D02*
D03*
Y333010D02*
D03*
Y338128D02*
D03*
D115*
X508042Y371275D02*
D03*
X506369D02*
D03*
X508042Y376590D02*
D03*
X506369D02*
D03*
D116*
X545981Y358535D02*
D03*
X550115D02*
D03*
X537898Y313046D02*
D03*
X533765D02*
D03*
D117*
X550802Y347538D02*
D03*
X544897D02*
D03*
D118*
X529247Y368617D02*
D03*
X521343Y360713D02*
D03*
D119*
X496884Y367645D02*
D03*
X504788Y359741D02*
D03*
D120*
X507691Y396932D02*
D03*
X501591D02*
D03*
X559708Y378699D02*
D03*
X553608D02*
D03*
X528873Y387682D02*
D03*
X534973D02*
D03*
D121*
X555695Y322309D02*
D03*
Y316209D02*
D03*
X475197Y305415D02*
D03*
Y311515D02*
D03*
D122*
X517892Y386122D02*
D03*
X506714D02*
D03*
D123*
X515765Y372878D02*
D03*
D124*
X517517Y377012D02*
D03*
X514013D02*
D03*
D125*
X532266Y325293D02*
D03*
X542896D02*
D03*
M02*
