G04*
G04 #@! TF.GenerationSoftware,Altium Limited,Altium Designer,25.0.2 (28)*
G04*
G04 Layer_Color=128*
%FSLAX25Y25*%
%MOIN*%
G70*
G04*
G04 #@! TF.SameCoordinates,2891CE2B-4135-44D8-BBE4-C6BF521A36B5*
G04*
G04*
G04 #@! TF.FilePolarity,Positive*
G04*
G01*
G75*
%ADD16C,0.00500*%
D16*
X528838Y350521D02*
X529428D01*
X529133Y350226D02*
Y350817D01*
X534516Y348598D02*
X534909D01*
X534713Y348401D02*
Y348795D01*
X546493Y446499D02*
X546887D01*
X546690Y446302D02*
Y446696D01*
X493510Y402306D02*
X493904D01*
X493707Y402109D02*
Y402503D01*
X529873Y346378D02*
X530267D01*
X530070Y346181D02*
Y346574D01*
X529873Y344802D02*
X530267D01*
X530070Y344605D02*
Y344999D01*
X528978Y334431D02*
X529372D01*
X529175Y334234D02*
Y334628D01*
X520621Y432366D02*
X521014D01*
X520818Y432169D02*
Y432562D01*
X521445Y444281D02*
X522036D01*
X521740Y443986D02*
Y444576D01*
X526664Y350768D02*
X527254D01*
X526959Y350473D02*
Y351063D01*
X513409Y333650D02*
X513803D01*
X513606Y333453D02*
Y333847D01*
X526724Y341653D02*
X527117D01*
X526920Y341456D02*
Y341850D01*
X525149Y347953D02*
X525542D01*
X525346Y347756D02*
Y348149D01*
X526716Y344803D02*
X527109D01*
X526912Y344606D02*
Y345000D01*
X533023Y341645D02*
X533417D01*
X533220Y341448D02*
Y341842D01*
X531448Y341653D02*
X531842D01*
X531645Y341456D02*
Y341850D01*
X529873Y343228D02*
X530267D01*
X530070Y343031D02*
Y343425D01*
X529873Y341653D02*
X530267D01*
X530070Y341456D02*
Y341850D01*
X526724Y343228D02*
X527117D01*
X526920Y343031D02*
Y343425D01*
X529369Y436989D02*
X529763D01*
X529566Y436792D02*
Y437186D01*
X527794Y436989D02*
X528188D01*
X527991Y436792D02*
Y437186D01*
X527794Y441713D02*
X528188D01*
X527991Y441517D02*
Y441910D01*
X516612Y433616D02*
X517005D01*
X516808Y433419D02*
Y433813D01*
X526219Y436989D02*
X526613D01*
X526416Y436792D02*
Y437186D01*
X527794Y435414D02*
X528188D01*
X527991Y435217D02*
Y435611D01*
X526219Y443288D02*
X526613D01*
X526416Y443091D02*
Y443485D01*
X532518Y435414D02*
X532912D01*
X532715Y435217D02*
Y435611D01*
X530944Y440139D02*
X531337D01*
X531141Y439942D02*
Y440336D01*
X530944Y441713D02*
X531337D01*
X531141Y441517D02*
Y441910D01*
X532518Y440139D02*
X532912D01*
X532715Y439942D02*
Y440336D01*
M02*
