G04*
G04 #@! TF.GenerationSoftware,Altium Limited,Altium Designer,25.0.2 (28)*
G04*
G04 Layer_Physical_Order=4*
G04 Layer_Color=16440176*
%FSLAX25Y25*%
%MOIN*%
G70*
G04*
G04 #@! TF.SameCoordinates,2891CE2B-4135-44D8-BBE4-C6BF521A36B5*
G04*
G04*
G04 #@! TF.FilePolarity,Positive*
G04*
G01*
G75*
%ADD12C,0.01000*%
%ADD94C,0.01500*%
%ADD98C,0.04000*%
%ADD104C,0.03000*%
%ADD105O,0.07100X0.03900*%
%ADD106O,0.08700X0.03900*%
%ADD107C,0.06299*%
%ADD108R,0.06299X0.06299*%
%ADD109C,0.01378*%
%ADD110C,0.01772*%
%ADD111C,0.02000*%
%ADD112C,0.01181*%
%ADD113C,0.00984*%
%ADD114C,0.02500*%
G36*
X569278Y453176D02*
X568978Y453085D01*
X568647Y453580D01*
X566899Y455328D01*
X563656Y458571D01*
X562829Y459123D01*
X561854Y459317D01*
X561329D01*
X561005Y459382D01*
X556218D01*
X555242Y459188D01*
X554415Y458635D01*
X553863Y457808D01*
X553669Y456833D01*
X553863Y455857D01*
X554415Y455030D01*
X555242Y454478D01*
X556218Y454284D01*
X560733D01*
X564295Y450722D01*
Y396612D01*
X564265Y396047D01*
X564158Y395439D01*
X563985Y394921D01*
X563752Y394488D01*
X563460Y394131D01*
X563102Y393838D01*
X562669Y393605D01*
X562151Y393432D01*
X561543Y393325D01*
X560978Y393295D01*
X537078D01*
X536753Y393620D01*
X535926Y394173D01*
X534950Y394367D01*
X533975Y394173D01*
X533148Y393620D01*
X532595Y392793D01*
X532401Y391818D01*
X532595Y390842D01*
X533148Y390015D01*
X534220Y388944D01*
X535046Y388391D01*
X536022Y388197D01*
X560978D01*
X561543Y388167D01*
X562151Y388060D01*
X562669Y387887D01*
X563102Y387654D01*
X563460Y387361D01*
X563752Y387003D01*
X563985Y386571D01*
X564158Y386053D01*
X564265Y385444D01*
X564295Y384880D01*
Y383457D01*
X564284Y383400D01*
X563860Y382976D01*
X563566Y383034D01*
X563508Y383173D01*
X563173Y383508D01*
X562737Y383689D01*
X562263D01*
X561827Y383508D01*
X561492Y383173D01*
X561311Y382736D01*
Y382263D01*
X561492Y381826D01*
X561827Y381492D01*
X561983Y381427D01*
X562096Y381056D01*
X561856Y380698D01*
X561662Y379722D01*
Y347158D01*
X560072Y345567D01*
X559778Y345626D01*
X559758Y345673D01*
X559423Y346008D01*
X558987Y346189D01*
X558513D01*
X558076Y346008D01*
X557742Y345673D01*
X557561Y345236D01*
Y344763D01*
X557742Y344326D01*
X558076Y343992D01*
X558513Y343811D01*
X558748D01*
X558995Y343514D01*
X558975Y343414D01*
Y334636D01*
X554826Y330486D01*
X554616Y330347D01*
X554374Y330545D01*
X554451Y330732D01*
Y331205D01*
X554270Y331642D01*
X554047Y331866D01*
X554059Y331980D01*
X554142Y332191D01*
X554517Y332347D01*
X554851Y332681D01*
X555032Y333118D01*
Y333591D01*
X554851Y334028D01*
X554517Y334363D01*
X554080Y334544D01*
X553607D01*
X553170Y334363D01*
X552836Y334028D01*
X552801Y333946D01*
X552501Y334005D01*
Y349389D01*
X552501Y349392D01*
X552501Y349395D01*
X552491Y352778D01*
X552423Y353116D01*
X552355Y353455D01*
X552354Y353458D01*
X552353Y353460D01*
X552161Y353746D01*
X551969Y354034D01*
X550504Y355499D01*
X549925Y355886D01*
X549242Y356021D01*
X548197D01*
X548190Y356020D01*
X548182Y356021D01*
X546707Y356009D01*
X546693Y356016D01*
X546220Y356029D01*
X545784Y356075D01*
X545363Y356152D01*
X544958Y356261D01*
X544566Y356403D01*
X544188Y356577D01*
X543822Y356783D01*
X543467Y357023D01*
X543124Y357297D01*
X542778Y357619D01*
X542764Y357624D01*
X531032Y369356D01*
Y374767D01*
X531032Y374767D01*
X530896Y375450D01*
X530509Y376029D01*
X530509Y376029D01*
X519154Y387384D01*
X518575Y387771D01*
X517892Y387906D01*
X517209Y387771D01*
X516631Y387384D01*
X516592Y387326D01*
X516535Y387288D01*
X510598Y381352D01*
X510595Y381353D01*
X510360Y381537D01*
X510359Y381798D01*
X510337Y389041D01*
X508798Y390603D01*
X504730Y390569D01*
X504191Y390041D01*
X504168Y382096D01*
X504764Y381467D01*
X510063Y381499D01*
X510323Y381500D01*
X510508Y381266D01*
X510510Y381263D01*
X498676Y369429D01*
X496884D01*
X496202Y369293D01*
X495623Y368906D01*
X495236Y368327D01*
X495100Y367645D01*
X495236Y366962D01*
X495623Y366383D01*
X496202Y365996D01*
X496884Y365860D01*
X499415D01*
X500098Y365996D01*
X500676Y366383D01*
X509660Y375367D01*
X509967Y375249D01*
X510149Y374810D01*
X510538Y374420D01*
X511048Y374209D01*
X511599D01*
X512108Y374420D01*
X512498Y374810D01*
X512709Y375320D01*
Y375871D01*
X512498Y376380D01*
X512108Y376770D01*
X511669Y376952D01*
X511552Y377258D01*
X514091Y379797D01*
X514445Y379727D01*
X514562Y379443D01*
X514952Y379053D01*
X515461Y378842D01*
X516013D01*
X516522Y379053D01*
X516912Y379443D01*
X517123Y379953D01*
Y380504D01*
X516912Y381013D01*
X516522Y381403D01*
X516238Y381521D01*
X516168Y381874D01*
X517892Y383599D01*
X527463Y374028D01*
Y368617D01*
X527599Y367934D01*
X527986Y367356D01*
X540245Y355097D01*
X540250Y355082D01*
X540572Y354736D01*
X540847Y354393D01*
X541088Y354038D01*
X541296Y353671D01*
X541472Y353292D01*
X541615Y352900D01*
X541727Y352494D01*
X541808Y352073D01*
X541856Y351636D01*
X541873Y351163D01*
X541880Y351149D01*
Y349547D01*
X537251Y344918D01*
X536865Y344339D01*
X536729Y343657D01*
X536865Y342974D01*
X537251Y342395D01*
X537830Y342008D01*
X538513Y341872D01*
X539196Y342008D01*
X539775Y342395D01*
X542044Y344664D01*
X542321Y344549D01*
Y343375D01*
X543600Y342097D01*
Y340647D01*
X542387Y339434D01*
X540291D01*
X535194Y334337D01*
X534929Y334479D01*
X534981Y334740D01*
X534826Y335520D01*
X534384Y336182D01*
X533722Y336624D01*
X533712Y336626D01*
X521403Y348935D01*
Y349457D01*
X521405Y349461D01*
X521422Y350010D01*
X521474Y350474D01*
X521555Y350867D01*
X521663Y351188D01*
X521791Y351439D01*
X521933Y351626D01*
X522088Y351760D01*
X522264Y351854D01*
X522476Y351914D01*
X522780Y351939D01*
X522809Y351954D01*
X523515Y352095D01*
X523531Y352105D01*
X524938D01*
X525718Y352260D01*
X526380Y352702D01*
X526381Y352703D01*
X526823Y353365D01*
X526978Y354145D01*
X526823Y354926D01*
X526381Y355587D01*
X525719Y356029D01*
X524939Y356185D01*
X524934Y356184D01*
X523652D01*
X523540Y356462D01*
X526128Y358944D01*
X526182Y359712D01*
X520226Y365452D01*
X519606Y365479D01*
X517773Y363593D01*
X512249Y363620D01*
X511966Y363741D01*
X508395Y363808D01*
X507694Y364401D01*
X505983Y364496D01*
X500256Y358809D01*
X500242Y358014D01*
X501677Y356558D01*
X501485Y356326D01*
X501428Y356364D01*
X500647Y356520D01*
X498360D01*
X488093Y366786D01*
Y390158D01*
X488417Y390643D01*
X488572Y391423D01*
Y391463D01*
X511152Y414043D01*
X511594Y414705D01*
X511749Y415485D01*
Y424674D01*
X512049Y424797D01*
X512505Y424608D01*
X513057D01*
X513566Y424819D01*
X513956Y425209D01*
X514167Y425718D01*
Y426270D01*
X513956Y426779D01*
X513566Y427169D01*
X513057Y427380D01*
X512505D01*
X512049Y427191D01*
X511749Y427314D01*
Y434345D01*
X514816Y437411D01*
X515530D01*
X515749Y437264D01*
X516530Y437109D01*
X517310Y437264D01*
X517972Y437707D01*
X518414Y438368D01*
X518569Y439148D01*
X518414Y439929D01*
X517972Y440590D01*
X517670Y440892D01*
X517008Y441334D01*
X516228Y441489D01*
X513971D01*
X513191Y441334D01*
X512529Y440892D01*
X508268Y436631D01*
X507826Y435970D01*
X507707Y435372D01*
X507395Y435342D01*
X507258Y435674D01*
X506923Y436008D01*
X506487Y436189D01*
X506013D01*
X505577Y436008D01*
X505242Y435674D01*
X505061Y435237D01*
Y434763D01*
X505242Y434327D01*
X505577Y433992D01*
X506013Y433811D01*
X506487D01*
X506923Y433992D01*
X507258Y434327D01*
X507371Y434599D01*
X507671Y434540D01*
Y416329D01*
X485091Y393750D01*
X484963Y393558D01*
X484602Y393557D01*
X484318Y393840D01*
X483809Y394051D01*
X483257D01*
X482748Y393840D01*
X482358Y393451D01*
X482147Y392941D01*
Y392390D01*
X482358Y391881D01*
X482748Y391491D01*
X483257Y391280D01*
X483776D01*
X483860Y391242D01*
X484044Y391091D01*
X484015Y390944D01*
Y389004D01*
X483715Y388885D01*
X483251Y389077D01*
X482700D01*
X482190Y388866D01*
X481801Y388476D01*
X481590Y387967D01*
Y387416D01*
X481801Y386907D01*
X482190Y386517D01*
X482700Y386306D01*
X483251D01*
X483715Y386498D01*
X484015Y386379D01*
Y365942D01*
X484170Y365161D01*
X484612Y364500D01*
X488233Y360879D01*
X488063Y360624D01*
X487714Y360769D01*
X487241D01*
X486804Y360588D01*
X486470Y360254D01*
X486289Y359816D01*
Y359343D01*
X486470Y358906D01*
X486618Y358758D01*
X486750Y358513D01*
X486618Y358366D01*
X486421Y358170D01*
X486240Y357733D01*
Y357259D01*
X486421Y356822D01*
X486755Y356488D01*
X487192Y356307D01*
X487665D01*
X488102Y356488D01*
X488437Y356822D01*
X488618Y357259D01*
Y357733D01*
X488437Y358170D01*
X488289Y358317D01*
X488156Y358563D01*
X488289Y358710D01*
X488485Y358906D01*
X488666Y359343D01*
Y359816D01*
X488522Y360166D01*
X488776Y360335D01*
X496073Y353038D01*
X496735Y352596D01*
X497515Y352441D01*
X498252D01*
X498453Y352141D01*
X498362Y351922D01*
Y351448D01*
X498543Y351011D01*
X498877Y350677D01*
X499314Y350496D01*
X499788D01*
X500224Y350677D01*
X500559Y351011D01*
X500740Y351448D01*
Y351715D01*
X501022Y351965D01*
X501149Y351939D01*
X514832D01*
X514835Y351938D01*
X515372Y351910D01*
X515810Y351833D01*
X516178Y351710D01*
X516481Y351547D01*
X516729Y351344D01*
X516932Y351096D01*
X517095Y350793D01*
X517218Y350425D01*
X517295Y349987D01*
X517323Y349450D01*
X517324Y349447D01*
Y348090D01*
X517480Y347310D01*
X517922Y346648D01*
X526377Y338193D01*
X526307Y337839D01*
X526028Y337723D01*
X525638Y337334D01*
X525616Y337280D01*
X525316Y337340D01*
Y337418D01*
X525135Y337855D01*
X524801Y338190D01*
X524364Y338371D01*
X523891D01*
X523454Y338190D01*
X523119Y337855D01*
X522938Y337418D01*
Y336945D01*
X523119Y336508D01*
X523454Y336174D01*
X523891Y335993D01*
X524364D01*
X524801Y336174D01*
X525127Y336500D01*
X525170Y336499D01*
X525427Y336430D01*
Y336273D01*
X525638Y335764D01*
X526028Y335374D01*
X526537Y335163D01*
X527089D01*
X527598Y335374D01*
X527988Y335764D01*
X528103Y336042D01*
X528457Y336113D01*
X531272Y333298D01*
X531861Y332904D01*
X531778Y332604D01*
X529972D01*
X528635Y331267D01*
X528702Y322228D01*
X529856Y321074D01*
X535795D01*
X536391Y321670D01*
Y329364D01*
X543346Y336319D01*
X545144D01*
Y336520D01*
X548433Y339809D01*
X548428Y339815D01*
Y343276D01*
X547822Y343883D01*
X547844Y343905D01*
Y350376D01*
X547816D01*
X547006Y351186D01*
X545842D01*
X545626Y351486D01*
X545638Y351523D01*
X545767Y351763D01*
X545925Y351958D01*
X546119Y352118D01*
X546358Y352248D01*
X546651Y352348D01*
X547005Y352414D01*
X547447Y352441D01*
X547460Y352447D01*
X548204Y352453D01*
X548503D01*
X548925Y352031D01*
X548933Y349387D01*
Y333853D01*
X547037Y331958D01*
X546714Y332059D01*
X546549Y332458D01*
X546159Y332848D01*
X545650Y333059D01*
X545099D01*
X544780Y332926D01*
X544550Y333156D01*
X544597Y333271D01*
Y333822D01*
X544386Y334331D01*
X543997Y334721D01*
X543487Y334932D01*
X542936D01*
X542427Y334721D01*
X542037Y334331D01*
X541826Y333822D01*
Y333271D01*
X542037Y332761D01*
X542427Y332371D01*
X542936Y332160D01*
X543487D01*
X543807Y332293D01*
X544036Y332063D01*
X543989Y331948D01*
Y331397D01*
X544200Y330888D01*
X544589Y330498D01*
X544988Y330333D01*
X545090Y330010D01*
X541634Y326554D01*
X541248Y325975D01*
X541112Y325293D01*
X541248Y324610D01*
X541634Y324031D01*
X542213Y323644D01*
X542896Y323508D01*
X543579Y323644D01*
X544158Y324031D01*
X551979Y331852D01*
X551979Y331852D01*
X552365Y332431D01*
X552446Y332837D01*
X552758Y332868D01*
X552836Y332681D01*
X553059Y332457D01*
X553047Y332343D01*
X552964Y332132D01*
X552589Y331976D01*
X552254Y331642D01*
X552073Y331205D01*
Y330732D01*
X552254Y330295D01*
X552589Y329960D01*
X553026Y329780D01*
X553499D01*
X553667Y329849D01*
X553866Y329607D01*
X553705Y329365D01*
X553239Y328900D01*
X552687Y328073D01*
X552493Y327098D01*
Y326076D01*
X552687Y325101D01*
X553239Y324274D01*
X554066Y323722D01*
X555042Y323528D01*
X556017Y323722D01*
X556844Y324274D01*
X557397Y325101D01*
X557582Y326033D01*
X557759Y326210D01*
X557965Y326518D01*
X558274Y326725D01*
X563326Y331778D01*
X563879Y332604D01*
X564073Y333580D01*
Y335555D01*
X564373Y335755D01*
X564642Y335644D01*
X565193D01*
X565703Y335855D01*
X566092Y336245D01*
X566303Y336754D01*
Y337306D01*
X566092Y337815D01*
X565703Y338205D01*
X565193Y338416D01*
X564642D01*
X564373Y338304D01*
X564073Y338505D01*
Y342359D01*
X566014Y344299D01*
X566566Y345126D01*
X566760Y346102D01*
Y378666D01*
X568460Y380366D01*
X568978Y381141D01*
X569227Y381110D01*
X569278Y381091D01*
Y329255D01*
X568978Y329156D01*
X568625Y329509D01*
X568074Y329737D01*
X567477D01*
X566926Y329509D01*
X566504Y329087D01*
X566276Y328535D01*
Y327939D01*
X566504Y327387D01*
X566926Y326965D01*
X567477Y326737D01*
X568074D01*
X568625Y326965D01*
X568978Y327318D01*
X569278Y327219D01*
Y323940D01*
X568978Y323816D01*
X568792Y324001D01*
X568283Y324212D01*
X567732D01*
X567222Y324001D01*
X566833Y323611D01*
X566622Y323102D01*
Y322550D01*
X566833Y322041D01*
X567222Y321651D01*
X567732Y321440D01*
X568283D01*
X568792Y321651D01*
X568978Y321836D01*
X569278Y321712D01*
Y312597D01*
X568978Y312473D01*
X568840Y312610D01*
X568331Y312821D01*
X567779D01*
X567270Y312610D01*
X566880Y312221D01*
X566669Y311711D01*
Y311160D01*
X566880Y310651D01*
X567270Y310261D01*
X567779Y310050D01*
X568331D01*
X568840Y310261D01*
X568978Y310398D01*
X569278Y310274D01*
Y256686D01*
X452603D01*
Y470006D01*
X519840D01*
X519964Y469706D01*
X519815Y469557D01*
X519587Y469006D01*
Y468409D01*
X519815Y467858D01*
X520237Y467436D01*
X520788Y467207D01*
X521385D01*
X521937Y467436D01*
X522358Y467858D01*
X522587Y468409D01*
Y469006D01*
X522358Y469557D01*
X522210Y469706D01*
X522334Y470006D01*
X554264D01*
X554275Y469710D01*
X553724Y469482D01*
X553302Y469060D01*
X553073Y468509D01*
Y467912D01*
X553302Y467361D01*
X553724Y466939D01*
X554275Y466711D01*
X554872D01*
X555423Y466939D01*
X555845Y467361D01*
X556073Y467912D01*
Y468509D01*
X555845Y469060D01*
X555423Y469482D01*
X554872Y469710D01*
X554883Y470006D01*
X558311D01*
X558354Y469724D01*
X557803Y469495D01*
X557381Y469073D01*
X557152Y468522D01*
Y467925D01*
X557381Y467374D01*
X557803Y466952D01*
X558354Y466724D01*
X558951D01*
X559502Y466952D01*
X559924Y467374D01*
X560152Y467925D01*
Y468522D01*
X559924Y469073D01*
X559502Y469495D01*
X558951Y469724D01*
X558994Y470006D01*
X562207D01*
X562267Y469706D01*
X561790Y469508D01*
X561368Y469086D01*
X561140Y468535D01*
Y467938D01*
X561368Y467387D01*
X561790Y466965D01*
X562187Y466801D01*
X562197Y466679D01*
X562157Y466488D01*
X561659Y466282D01*
X561237Y465860D01*
X561008Y465309D01*
Y464712D01*
X561237Y464160D01*
X561659Y463738D01*
X562210Y463510D01*
X562807D01*
X563358Y463738D01*
X563780Y464160D01*
X564008Y464712D01*
Y465309D01*
X563780Y465860D01*
X563358Y466282D01*
X562961Y466446D01*
X562951Y466568D01*
X562991Y466759D01*
X563489Y466965D01*
X563911Y467387D01*
X564140Y467938D01*
Y468535D01*
X563911Y469086D01*
X563489Y469508D01*
X563013Y469706D01*
X563072Y470006D01*
X565858D01*
X565917Y469706D01*
X565567Y469561D01*
X565145Y469139D01*
X564917Y468588D01*
Y467991D01*
X565145Y467440D01*
X565567Y467018D01*
X566119Y466789D01*
X566715D01*
X567267Y467018D01*
X567689Y467440D01*
X567917Y467991D01*
Y468588D01*
X567689Y469139D01*
X567267Y469561D01*
X566917Y469706D01*
X566976Y470006D01*
X569278D01*
Y453176D01*
D02*
G37*
G36*
X568844Y390746D02*
X564844Y384746D01*
X564804Y385506D01*
X564684Y386186D01*
X564484Y386786D01*
X564204Y387306D01*
X563844Y387746D01*
X563404Y388106D01*
X562884Y388386D01*
X562284Y388586D01*
X561604Y388706D01*
X560844Y388746D01*
Y392746D01*
X561604Y392786D01*
X562284Y392906D01*
X562884Y393106D01*
X563404Y393386D01*
X563844Y393746D01*
X564204Y394186D01*
X564484Y394706D01*
X564684Y395306D01*
X564804Y395986D01*
X564844Y396746D01*
X568844Y390746D01*
D02*
G37*
G36*
X542746Y356910D02*
X542771Y356887D01*
X542846Y356826D01*
X543146Y356587D01*
X543536Y356323D01*
X543941Y356094D01*
X544361Y355902D01*
X544795Y355745D01*
X545244Y355624D01*
X545707Y355538D01*
X546185Y355489D01*
X546678Y355475D01*
X547414Y352981D01*
X546939Y352952D01*
X546514Y352873D01*
X546139Y352746D01*
X545814Y352568D01*
X545539Y352341D01*
X545314Y352064D01*
X545139Y351737D01*
X545014Y351361D01*
X544939Y350936D01*
X544914Y350461D01*
X542414Y351183D01*
X542396Y351676D01*
X542343Y352153D01*
X542255Y352617D01*
X542131Y353066D01*
X541972Y353500D01*
X541778Y353919D01*
X541548Y354324D01*
X541283Y354714D01*
X540982Y355090D01*
X540646Y355451D01*
X542410Y357223D01*
X542410D01*
D01*
X542746Y356910D01*
D02*
G37*
G36*
X522734Y352479D02*
X522379Y352449D01*
X522061Y352359D01*
X521780Y352208D01*
X521537Y351998D01*
X521331Y351729D01*
X521163Y351398D01*
X521032Y351009D01*
X520938Y350558D01*
X520882Y350048D01*
X520864Y349479D01*
X517864D01*
X517834Y350048D01*
X517744Y350558D01*
X517594Y351009D01*
X517384Y351398D01*
X517114Y351729D01*
X516784Y351998D01*
X516394Y352208D01*
X515944Y352359D01*
X515434Y352449D01*
X514864Y352479D01*
X519364Y355479D01*
X522734Y352479D01*
D02*
G37*
%LPC*%
G36*
X550438Y469698D02*
X549842D01*
X549290Y469469D01*
X548869Y469047D01*
X548640Y468496D01*
Y467899D01*
X548869Y467348D01*
X549290Y466926D01*
X549842Y466698D01*
X550438D01*
X550990Y466926D01*
X551412Y467348D01*
X551640Y467899D01*
Y468496D01*
X551412Y469047D01*
X550990Y469469D01*
X550438Y469698D01*
D02*
G37*
G36*
X517756Y469404D02*
X517159D01*
X516608Y469175D01*
X516186Y468753D01*
X515957Y468202D01*
Y467605D01*
X516186Y467054D01*
X516608Y466632D01*
X517159Y466404D01*
X517756D01*
X518307Y466632D01*
X518729Y467054D01*
X518957Y467605D01*
Y468202D01*
X518729Y468753D01*
X518307Y469175D01*
X517756Y469404D01*
D02*
G37*
G36*
X545913Y468733D02*
X545316D01*
X544765Y468505D01*
X544343Y468083D01*
X544114Y467531D01*
Y466935D01*
X544343Y466383D01*
X544765Y465961D01*
X545316Y465733D01*
X545913D01*
X546464Y465961D01*
X546886Y466383D01*
X547114Y466935D01*
Y467531D01*
X546886Y468083D01*
X546464Y468505D01*
X545913Y468733D01*
D02*
G37*
G36*
X541091Y468183D02*
X540540D01*
X540030Y467972D01*
X539641Y467582D01*
X539430Y467072D01*
Y466521D01*
X539641Y466012D01*
X540030Y465622D01*
X540540Y465411D01*
X541091D01*
X541601Y465622D01*
X541990Y466012D01*
X542201Y466521D01*
Y467072D01*
X541990Y467582D01*
X541601Y467972D01*
X541091Y468183D01*
D02*
G37*
G36*
X536486Y466189D02*
X536014D01*
X535576Y466008D01*
X535242Y465673D01*
X535061Y465237D01*
Y464763D01*
X535242Y464326D01*
X535576Y463992D01*
X536014Y463811D01*
X536486D01*
X536924Y463992D01*
X537258Y464326D01*
X537439Y464763D01*
Y465237D01*
X537258Y465673D01*
X536924Y466008D01*
X536486Y466189D01*
D02*
G37*
G36*
X513986D02*
X513514D01*
X513076Y466008D01*
X512742Y465673D01*
X512561Y465237D01*
Y464763D01*
X512742Y464326D01*
X513076Y463992D01*
X513514Y463811D01*
X513986D01*
X514424Y463992D01*
X514758Y464326D01*
X514939Y464763D01*
Y465237D01*
X514758Y465673D01*
X514424Y466008D01*
X513986Y466189D01*
D02*
G37*
G36*
X506487D02*
X506013D01*
X505577Y466008D01*
X505242Y465673D01*
X505061Y465237D01*
Y464763D01*
X505242Y464326D01*
X505577Y463992D01*
X506013Y463811D01*
X506487D01*
X506923Y463992D01*
X507258Y464326D01*
X507439Y464763D01*
Y465237D01*
X507258Y465673D01*
X506923Y466008D01*
X506487Y466189D01*
D02*
G37*
G36*
X498986D02*
X498514D01*
X498076Y466008D01*
X497742Y465673D01*
X497561Y465237D01*
Y464763D01*
X497742Y464326D01*
X498076Y463992D01*
X498514Y463811D01*
X498986D01*
X499424Y463992D01*
X499758Y464326D01*
X499939Y464763D01*
Y465237D01*
X499758Y465673D01*
X499424Y466008D01*
X498986Y466189D01*
D02*
G37*
G36*
X517756Y465703D02*
X517159D01*
X516608Y465474D01*
X516186Y465052D01*
X515957Y464501D01*
Y463904D01*
X516186Y463353D01*
X516608Y462931D01*
X517159Y462703D01*
X517756D01*
X518307Y462931D01*
X518729Y463353D01*
X518957Y463904D01*
Y464501D01*
X518729Y465052D01*
X518307Y465474D01*
X517756Y465703D01*
D02*
G37*
G36*
X545076Y464008D02*
X544525D01*
X544016Y463797D01*
X543626Y463407D01*
X543415Y462897D01*
Y462346D01*
X543626Y461837D01*
X544016Y461447D01*
X544525Y461236D01*
X545076D01*
X545586Y461447D01*
X545976Y461837D01*
X546186Y462346D01*
Y462897D01*
X545976Y463407D01*
X545586Y463797D01*
X545076Y464008D01*
D02*
G37*
G36*
X548777Y464101D02*
X548180D01*
X547629Y463872D01*
X547207Y463450D01*
X546978Y462899D01*
Y462302D01*
X547207Y461751D01*
X547629Y461329D01*
X548180Y461100D01*
X548777D01*
X549328Y461329D01*
X549750Y461751D01*
X549978Y462302D01*
Y462899D01*
X549750Y463450D01*
X549328Y463872D01*
X548777Y464101D01*
D02*
G37*
G36*
X556690Y464092D02*
X556093D01*
X555542Y463864D01*
X555120Y463442D01*
X554891Y462891D01*
Y462294D01*
X555120Y461743D01*
X555542Y461321D01*
X556093Y461092D01*
X556690D01*
X557241Y461321D01*
X557663Y461743D01*
X557891Y462294D01*
Y462891D01*
X557663Y463442D01*
X557241Y463864D01*
X556690Y464092D01*
D02*
G37*
G36*
X562781Y463179D02*
X562184D01*
X561632Y462950D01*
X561211Y462528D01*
X560982Y461977D01*
Y461380D01*
X561211Y460829D01*
X561632Y460407D01*
X562184Y460179D01*
X562781D01*
X563332Y460407D01*
X563754Y460829D01*
X563982Y461380D01*
Y461977D01*
X563754Y462528D01*
X563332Y462950D01*
X562781Y463179D01*
D02*
G37*
G36*
X566925Y466392D02*
X566328D01*
X565777Y466164D01*
X565355Y465742D01*
X565127Y465191D01*
Y464594D01*
X565355Y464042D01*
X565777Y463621D01*
X566276Y463414D01*
X566315Y463223D01*
X566305Y463102D01*
X565908Y462937D01*
X565486Y462515D01*
X565258Y461964D01*
Y461367D01*
X565486Y460816D01*
X565908Y460394D01*
X566460Y460166D01*
X567056D01*
X567608Y460394D01*
X568030Y460816D01*
X568258Y461367D01*
Y461964D01*
X568030Y462515D01*
X567608Y462937D01*
X567109Y463144D01*
X567070Y463335D01*
X567079Y463456D01*
X567477Y463621D01*
X567899Y464042D01*
X568127Y464594D01*
Y465191D01*
X567899Y465742D01*
X567477Y466164D01*
X566925Y466392D01*
D02*
G37*
G36*
X457684Y466687D02*
X456723D01*
X455795Y466438D01*
X454963Y465957D01*
X454283Y465278D01*
X453803Y464446D01*
X453554Y463517D01*
Y462557D01*
X453803Y461628D01*
X454283Y460796D01*
X454963Y460117D01*
X455795Y459636D01*
X456723Y459387D01*
X457684D01*
X458612Y459636D01*
X459445Y460117D01*
X460124Y460796D01*
X460605Y461628D01*
X460853Y462557D01*
Y463517D01*
X460605Y464446D01*
X460124Y465278D01*
X459445Y465957D01*
X458612Y466438D01*
X457684Y466687D01*
D02*
G37*
G36*
X517756Y462002D02*
X517159D01*
X516608Y461773D01*
X516186Y461351D01*
X515957Y460800D01*
Y460203D01*
X516186Y459652D01*
X516608Y459230D01*
X517159Y459002D01*
X517756D01*
X518307Y459230D01*
X518729Y459652D01*
X518957Y460203D01*
Y460800D01*
X518729Y461351D01*
X518307Y461773D01*
X517756Y462002D01*
D02*
G37*
G36*
X521334Y464501D02*
X520738D01*
X520186Y464273D01*
X519764Y463851D01*
X519536Y463299D01*
Y462703D01*
X519764Y462151D01*
X520186Y461729D01*
X520474Y461610D01*
X520604Y461316D01*
X520376Y460765D01*
Y460168D01*
X520604Y459616D01*
X521026Y459194D01*
X521578Y458966D01*
X522174D01*
X522726Y459194D01*
X523148Y459616D01*
X523376Y460168D01*
Y460765D01*
X523148Y461316D01*
X522726Y461738D01*
X522437Y461857D01*
X522307Y462151D01*
X522536Y462703D01*
Y463299D01*
X522307Y463851D01*
X521885Y464273D01*
X521334Y464501D01*
D02*
G37*
G36*
X541033Y460149D02*
X540481D01*
X539972Y459938D01*
X539582Y459548D01*
X539371Y459038D01*
Y458487D01*
X539582Y457978D01*
X539972Y457588D01*
X540481Y457377D01*
X541033D01*
X541542Y457588D01*
X541932Y457978D01*
X542143Y458487D01*
Y459038D01*
X541932Y459548D01*
X541542Y459938D01*
X541033Y460149D01*
D02*
G37*
G36*
X480236Y458689D02*
X479764D01*
X479326Y458508D01*
X478992Y458174D01*
X478811Y457736D01*
Y457264D01*
X478992Y456826D01*
X479326Y456492D01*
X479764Y456311D01*
X480236D01*
X480674Y456492D01*
X481008Y456826D01*
X481189Y457264D01*
Y457736D01*
X481008Y458174D01*
X480674Y458508D01*
X480236Y458689D01*
D02*
G37*
G36*
X472737D02*
X472263D01*
X471827Y458508D01*
X471492Y458174D01*
X471311Y457736D01*
Y457264D01*
X471492Y456826D01*
X471827Y456492D01*
X472263Y456311D01*
X472737D01*
X473174Y456492D01*
X473508Y456826D01*
X473689Y457264D01*
Y457736D01*
X473508Y458174D01*
X473174Y458508D01*
X472737Y458689D01*
D02*
G37*
G36*
X465237D02*
X464763D01*
X464326Y458508D01*
X463992Y458174D01*
X463811Y457736D01*
Y457264D01*
X463992Y456826D01*
X464326Y456492D01*
X464763Y456311D01*
X465237D01*
X465673Y456492D01*
X466008Y456826D01*
X466189Y457264D01*
Y457736D01*
X466008Y458174D01*
X465673Y458508D01*
X465237Y458689D01*
D02*
G37*
G36*
X536248Y456249D02*
X535775D01*
X535338Y456068D01*
X535003Y455733D01*
X534822Y455296D01*
Y455116D01*
X534813Y455110D01*
X533903D01*
X533893Y455116D01*
Y455296D01*
X533712Y455733D01*
X533378Y456068D01*
X532941Y456249D01*
X532468D01*
X532031Y456068D01*
X531696Y455733D01*
X531515Y455296D01*
Y455116D01*
X531505Y455110D01*
X525851D01*
X525752Y455069D01*
X525644D01*
X525568Y454992D01*
X525469Y454951D01*
X525427Y454852D01*
X525351Y454776D01*
X525252Y454535D01*
Y454427D01*
X525210Y454327D01*
Y448760D01*
X524910Y448636D01*
X524688Y448858D01*
X524251Y449039D01*
X523778D01*
X523341Y448858D01*
X523007Y448523D01*
X522826Y448086D01*
Y447613D01*
X523001Y447191D01*
X522888Y447145D01*
X522888Y447145D01*
X522633Y446890D01*
X522474Y446507D01*
X522474Y446507D01*
Y436646D01*
X522197Y436532D01*
X522140Y436589D01*
X521630Y436800D01*
X521079D01*
X520570Y436589D01*
X520180Y436199D01*
X519969Y435690D01*
Y435139D01*
X520180Y434629D01*
X520570Y434239D01*
X521079Y434028D01*
X521630D01*
X522140Y434239D01*
X522197Y434297D01*
X522474Y434182D01*
Y432917D01*
X522291Y432841D01*
X522291Y432841D01*
X520103Y430653D01*
X519944Y430270D01*
X519944Y430270D01*
Y423546D01*
X520103Y423164D01*
X520485Y423005D01*
X522809D01*
X522868Y422705D01*
X522736Y422650D01*
X522314Y422228D01*
X522086Y421677D01*
Y421080D01*
X522314Y420529D01*
X522736Y420107D01*
X523287Y419879D01*
X523884D01*
X524435Y420107D01*
X524857Y420529D01*
X525085Y421080D01*
Y421677D01*
X524857Y422228D01*
X524435Y422650D01*
X524303Y422705D01*
X524362Y423005D01*
X532112D01*
X532172Y422705D01*
X531923Y422602D01*
X531501Y422180D01*
X531272Y421629D01*
Y421032D01*
X531501Y420481D01*
X531923Y420059D01*
X532474Y419830D01*
X533071D01*
X533622Y420059D01*
X534044Y420481D01*
X534272Y421032D01*
Y421629D01*
X534044Y422180D01*
X533622Y422602D01*
X533373Y422705D01*
X533432Y423005D01*
X535247D01*
X535630Y423164D01*
X535630Y423164D01*
X536361Y423895D01*
X536519Y424278D01*
X536519Y424278D01*
Y453764D01*
X536442Y453951D01*
X536685Y454052D01*
X537019Y454386D01*
X537200Y454823D01*
Y455296D01*
X537019Y455733D01*
X536685Y456068D01*
X536248Y456249D01*
D02*
G37*
G36*
X508376Y457081D02*
X507825D01*
X507315Y456870D01*
X506926Y456480D01*
X506715Y455970D01*
Y455419D01*
X506926Y454910D01*
X507315Y454520D01*
X507825Y454309D01*
X508376D01*
X508885Y454520D01*
X509275Y454910D01*
X509486Y455419D01*
Y455970D01*
X509275Y456480D01*
X508885Y456870D01*
X508376Y457081D01*
D02*
G37*
G36*
X474801Y454136D02*
X474250D01*
X473740Y453925D01*
X473350Y453535D01*
X473139Y453026D01*
Y452475D01*
X473350Y451965D01*
X473740Y451576D01*
X474250Y451365D01*
X474801D01*
X475310Y451576D01*
X475700Y451965D01*
X475911Y452475D01*
Y453026D01*
X475700Y453535D01*
X475310Y453925D01*
X474801Y454136D01*
D02*
G37*
G36*
X471051D02*
X470500D01*
X469990Y453925D01*
X469600Y453535D01*
X469389Y453026D01*
Y452475D01*
X469600Y451965D01*
X469990Y451576D01*
X470500Y451365D01*
X471051D01*
X471560Y451576D01*
X471950Y451965D01*
X472161Y452475D01*
Y453026D01*
X471950Y453535D01*
X471560Y453925D01*
X471051Y454136D01*
D02*
G37*
G36*
X467301D02*
X466749D01*
X466240Y453925D01*
X465850Y453535D01*
X465639Y453026D01*
Y452475D01*
X465850Y451965D01*
X466240Y451576D01*
X466749Y451365D01*
X467301D01*
X467810Y451576D01*
X468200Y451965D01*
X468411Y452475D01*
Y453026D01*
X468200Y453535D01*
X467810Y453925D01*
X467301Y454136D01*
D02*
G37*
G36*
X463551D02*
X462999D01*
X462490Y453925D01*
X462100Y453535D01*
X461889Y453026D01*
Y452475D01*
X462100Y451965D01*
X462490Y451576D01*
X462999Y451365D01*
X463551D01*
X464060Y451576D01*
X464450Y451965D01*
X464661Y452475D01*
Y453026D01*
X464450Y453535D01*
X464060Y453925D01*
X463551Y454136D01*
D02*
G37*
G36*
X457736Y458689D02*
X457264D01*
X456826Y458508D01*
X456492Y458174D01*
X456311Y457736D01*
Y457264D01*
X456426Y456987D01*
X456240Y456687D01*
X453554D01*
Y449387D01*
X460853D01*
Y456687D01*
X458760D01*
X458574Y456987D01*
X458689Y457264D01*
Y457736D01*
X458508Y458174D01*
X458174Y458508D01*
X457736Y458689D01*
D02*
G37*
G36*
X558987Y451189D02*
X558513D01*
X558076Y451008D01*
X557742Y450673D01*
X557561Y450237D01*
Y449763D01*
X557742Y449327D01*
X558076Y448992D01*
X558513Y448811D01*
X558987D01*
X559423Y448992D01*
X559758Y449327D01*
X559939Y449763D01*
Y450237D01*
X559758Y450673D01*
X559423Y451008D01*
X558987Y451189D01*
D02*
G37*
G36*
X498986D02*
X498514D01*
X498076Y451008D01*
X497742Y450673D01*
X497561Y450237D01*
Y449763D01*
X497742Y449327D01*
X498076Y448992D01*
X498514Y448811D01*
X498501Y448516D01*
X496290D01*
X496290Y448516D01*
X495510Y448361D01*
X494848Y447919D01*
X470393Y423463D01*
X469951Y422802D01*
X469795Y422021D01*
Y421060D01*
X469495Y420936D01*
X469423Y421008D01*
X468987Y421189D01*
X468513D01*
X468077Y421008D01*
X467742Y420674D01*
X467561Y420236D01*
Y419764D01*
X467742Y419326D01*
X468077Y418992D01*
X468513Y418811D01*
X468987D01*
X469423Y418992D01*
X469495Y419064D01*
X469795Y418940D01*
Y406750D01*
X469514Y406707D01*
X469303Y407216D01*
X468913Y407606D01*
X468403Y407817D01*
X467852D01*
X467343Y407606D01*
X466953Y407216D01*
X466742Y406707D01*
Y406155D01*
X466757Y406118D01*
X466491Y405976D01*
X466203Y406408D01*
X465612Y406803D01*
X465636Y406988D01*
X465683Y407116D01*
X466161Y407314D01*
X466551Y407704D01*
X466762Y408213D01*
Y408765D01*
X466726Y408851D01*
X466956Y409081D01*
X467134Y409007D01*
X467685D01*
X468194Y409218D01*
X468584Y409608D01*
X468795Y410117D01*
Y410669D01*
X468584Y411178D01*
X468194Y411568D01*
X467685Y411779D01*
X467134D01*
X466624Y411568D01*
X466235Y411178D01*
X466024Y410669D01*
Y410117D01*
X466060Y410031D01*
X465830Y409801D01*
X465652Y409875D01*
X465101D01*
X464591Y409664D01*
X464201Y409274D01*
X463990Y408765D01*
Y408213D01*
X464201Y407704D01*
X464475Y407430D01*
X464470Y407386D01*
X464341Y407140D01*
X459636D01*
X459318Y407076D01*
X459231Y407365D01*
X459540Y407493D01*
X459930Y407883D01*
X460141Y408392D01*
Y408944D01*
X459930Y409453D01*
X459540Y409843D01*
X459031Y410054D01*
X458480D01*
X457970Y409843D01*
X457581Y409453D01*
X457370Y408944D01*
Y408392D01*
X457581Y407883D01*
X457970Y407493D01*
X458480Y407282D01*
X458815D01*
X458844Y406982D01*
X458681Y406950D01*
X457870Y406408D01*
X457329Y405598D01*
X457138Y404642D01*
X457329Y403686D01*
X457870Y402875D01*
X458681Y402334D01*
X459636Y402144D01*
X464436D01*
X465392Y402334D01*
X465701Y402540D01*
X466001Y402379D01*
Y402095D01*
X466212Y401586D01*
X466256Y401541D01*
X466186Y401187D01*
X465915Y401075D01*
X465525Y400685D01*
X465314Y400176D01*
Y399624D01*
X465525Y399115D01*
X465915Y398725D01*
X466424Y398514D01*
X466976D01*
X467485Y398725D01*
X467875Y399115D01*
X468086Y399624D01*
Y400176D01*
X467875Y400685D01*
X467830Y400730D01*
X467901Y401084D01*
X468172Y401196D01*
X468561Y401586D01*
X468772Y402095D01*
Y402646D01*
X468561Y403156D01*
X468172Y403545D01*
X467662Y403756D01*
X467111D01*
X467060Y403735D01*
X466797Y403951D01*
X466934Y404642D01*
X466786Y405389D01*
X467062Y405536D01*
X467343Y405256D01*
X467852Y405045D01*
X468403D01*
X468913Y405256D01*
X469303Y405646D01*
X469514Y406155D01*
X469795Y406112D01*
Y354812D01*
X469951Y354032D01*
X470393Y353370D01*
X489603Y334160D01*
X490264Y333718D01*
X491045Y333563D01*
X493188D01*
X493260Y333320D01*
X493263Y333263D01*
X492852Y332852D01*
X492623Y332300D01*
Y331704D01*
X492852Y331152D01*
X493273Y330730D01*
X493825Y330502D01*
X494422D01*
X494973Y330730D01*
X495395Y331152D01*
X495623Y331704D01*
Y332300D01*
X495395Y332852D01*
X494984Y333263D01*
X494987Y333320D01*
X495059Y333563D01*
X497216D01*
X497288Y333320D01*
X497291Y333263D01*
X496880Y332852D01*
X496652Y332300D01*
Y331704D01*
X496880Y331152D01*
X497302Y330730D01*
X497853Y330502D01*
X498450D01*
X499001Y330730D01*
X499423Y331152D01*
X499652Y331704D01*
Y332300D01*
X499423Y332852D01*
X499012Y333263D01*
X499015Y333320D01*
X499087Y333563D01*
X501245D01*
X501317Y333320D01*
X501320Y333263D01*
X500909Y332852D01*
X500680Y332300D01*
Y331704D01*
X500909Y331152D01*
X501331Y330730D01*
X501882Y330502D01*
X502479D01*
X503030Y330730D01*
X503452Y331152D01*
X503680Y331704D01*
Y332300D01*
X503452Y332852D01*
X503041Y333263D01*
X503044Y333320D01*
X503116Y333563D01*
X505273D01*
X505345Y333320D01*
X505348Y333263D01*
X504937Y332852D01*
X504709Y332300D01*
Y331704D01*
X504937Y331152D01*
X505359Y330730D01*
X505910Y330502D01*
X506507D01*
X507058Y330730D01*
X507480Y331152D01*
X507709Y331704D01*
Y332300D01*
X507480Y332852D01*
X507069Y333263D01*
X507072Y333320D01*
X507144Y333563D01*
X507581D01*
X507729Y333533D01*
X507729Y333533D01*
X517015D01*
X517880Y332668D01*
X517756Y332368D01*
X517430D01*
X516993Y332187D01*
X516659Y331853D01*
X516478Y331416D01*
Y330943D01*
X516659Y330506D01*
X516993Y330171D01*
X517430Y329991D01*
X517903D01*
X518340Y330171D01*
X518675Y330506D01*
X518856Y330943D01*
Y331416D01*
X518737Y331702D01*
X518953Y331965D01*
X519546Y331847D01*
X520326Y332002D01*
X520988Y332445D01*
X521430Y333106D01*
X521585Y333887D01*
X521430Y334667D01*
X520988Y335328D01*
X519302Y337014D01*
X518640Y337456D01*
X517860Y337612D01*
X516536D01*
X516504Y337667D01*
X516444Y337912D01*
X516727Y338194D01*
X516908Y338631D01*
Y339104D01*
X516727Y339541D01*
X516392Y339876D01*
X515955Y340057D01*
X515482D01*
X515045Y339876D01*
X514711Y339541D01*
X514530Y339104D01*
Y338631D01*
X514711Y338194D01*
X514994Y337912D01*
X514934Y337667D01*
X514902Y337612D01*
X507849D01*
X507700Y337641D01*
X491889D01*
X473874Y355657D01*
Y403150D01*
X474174Y403241D01*
X474418Y402875D01*
X475229Y402334D01*
X476185Y402144D01*
X479385D01*
X480340Y402334D01*
X481151Y402875D01*
X481692Y403686D01*
X481883Y404642D01*
X481692Y405598D01*
X481151Y406408D01*
X480340Y406950D01*
X479385Y407140D01*
X476185D01*
X475229Y406950D01*
X474418Y406408D01*
X474174Y406042D01*
X473874Y406133D01*
Y421177D01*
X497135Y444438D01*
X498759D01*
X498830Y444367D01*
X499492Y443925D01*
X500272Y443770D01*
X501696D01*
X501756Y443650D01*
X501788Y443470D01*
X501492Y443174D01*
X501311Y442736D01*
Y442264D01*
X501492Y441826D01*
X501826Y441492D01*
X502263Y441311D01*
X502737D01*
X503173Y441492D01*
X503508Y441826D01*
X503689Y442264D01*
Y442736D01*
X503508Y443174D01*
X503212Y443470D01*
X503244Y443650D01*
X503304Y443770D01*
X505358D01*
X505415Y443759D01*
X506195Y443914D01*
X506856Y444356D01*
X507299Y445017D01*
X507454Y445798D01*
X507299Y446578D01*
X506856Y447240D01*
X506845Y447251D01*
X506184Y447693D01*
X505403Y447848D01*
X501117D01*
X501046Y447919D01*
X500384Y448361D01*
X499604Y448516D01*
X498999D01*
X498986Y448811D01*
X499424Y448992D01*
X499758Y449327D01*
X499939Y449763D01*
Y450237D01*
X499758Y450673D01*
X499424Y451008D01*
X498986Y451189D01*
D02*
G37*
G36*
X476326Y450486D02*
X475774D01*
X475265Y450275D01*
X474875Y449885D01*
X474664Y449376D01*
Y448824D01*
X474875Y448315D01*
X475265Y447925D01*
X475774Y447714D01*
X476326D01*
X476835Y447925D01*
X477225Y448315D01*
X477436Y448824D01*
Y449376D01*
X477225Y449885D01*
X476835Y450275D01*
X476326Y450486D01*
D02*
G37*
G36*
X472576D02*
X472024D01*
X471515Y450275D01*
X471125Y449885D01*
X470914Y449376D01*
Y448824D01*
X471125Y448315D01*
X471515Y447925D01*
X472024Y447714D01*
X472576D01*
X473085Y447925D01*
X473475Y448315D01*
X473686Y448824D01*
Y449376D01*
X473475Y449885D01*
X473085Y450275D01*
X472576Y450486D01*
D02*
G37*
G36*
X468826D02*
X468274D01*
X467765Y450275D01*
X467375Y449885D01*
X467164Y449376D01*
Y448824D01*
X467375Y448315D01*
X467765Y447925D01*
X468274Y447714D01*
X468826D01*
X469335Y447925D01*
X469725Y448315D01*
X469936Y448824D01*
Y449376D01*
X469725Y449885D01*
X469335Y450275D01*
X468826Y450486D01*
D02*
G37*
G36*
X465076D02*
X464524D01*
X464015Y450275D01*
X463625Y449885D01*
X463414Y449376D01*
Y448824D01*
X463625Y448315D01*
X464015Y447925D01*
X464524Y447714D01*
X465076D01*
X465585Y447925D01*
X465975Y448315D01*
X466186Y448824D01*
Y449376D01*
X465975Y449885D01*
X465585Y450275D01*
X465076Y450486D01*
D02*
G37*
G36*
X517393Y449236D02*
X516796D01*
X516245Y449008D01*
X515823Y448586D01*
X515595Y448035D01*
Y447438D01*
X515823Y446887D01*
X516245Y446465D01*
X516796Y446236D01*
X517393D01*
X517944Y446465D01*
X518366Y446887D01*
X518595Y447438D01*
Y448035D01*
X518366Y448586D01*
X517944Y449008D01*
X517393Y449236D01*
D02*
G37*
G36*
X488795Y448984D02*
X488244D01*
X487735Y448773D01*
X487345Y448384D01*
X487134Y447874D01*
Y447323D01*
X487345Y446814D01*
X487735Y446424D01*
X488244Y446213D01*
X488795D01*
X489305Y446424D01*
X489694Y446814D01*
X489905Y447323D01*
Y447874D01*
X489694Y448384D01*
X489305Y448773D01*
X488795Y448984D01*
D02*
G37*
G36*
X478026Y447586D02*
X477474D01*
X476965Y447375D01*
X476575Y446985D01*
X476364Y446476D01*
Y445924D01*
X476575Y445415D01*
X476965Y445025D01*
X477474Y444814D01*
X478026D01*
X478535Y445025D01*
X478925Y445415D01*
X479136Y445924D01*
Y446476D01*
X478925Y446985D01*
X478535Y447375D01*
X478026Y447586D01*
D02*
G37*
G36*
X474276D02*
X473724D01*
X473215Y447375D01*
X472825Y446985D01*
X472614Y446476D01*
Y445924D01*
X472825Y445415D01*
X473215Y445025D01*
X473724Y444814D01*
X474276D01*
X474785Y445025D01*
X475175Y445415D01*
X475386Y445924D01*
Y446476D01*
X475175Y446985D01*
X474785Y447375D01*
X474276Y447586D01*
D02*
G37*
G36*
X470526D02*
X469974D01*
X469465Y447375D01*
X469075Y446985D01*
X468864Y446476D01*
Y445924D01*
X469075Y445415D01*
X469465Y445025D01*
X469974Y444814D01*
X470526D01*
X471035Y445025D01*
X471425Y445415D01*
X471636Y445924D01*
Y446476D01*
X471425Y446985D01*
X471035Y447375D01*
X470526Y447586D01*
D02*
G37*
G36*
X466776D02*
X466224D01*
X465715Y447375D01*
X465325Y446985D01*
X465114Y446476D01*
Y445924D01*
X465325Y445415D01*
X465715Y445025D01*
X466224Y444814D01*
X466776D01*
X467285Y445025D01*
X467675Y445415D01*
X467886Y445924D01*
Y446476D01*
X467675Y446985D01*
X467285Y447375D01*
X466776Y447586D01*
D02*
G37*
G36*
X463026D02*
X462474D01*
X461965Y447375D01*
X461575Y446985D01*
X461364Y446476D01*
Y445924D01*
X461575Y445415D01*
X461965Y445025D01*
X462474Y444814D01*
X463026D01*
X463535Y445025D01*
X463925Y445415D01*
X464136Y445924D01*
Y446476D01*
X463925Y446985D01*
X463535Y447375D01*
X463026Y447586D01*
D02*
G37*
G36*
X459276D02*
X458724D01*
X458215Y447375D01*
X457825Y446985D01*
X457614Y446476D01*
Y445924D01*
X457825Y445415D01*
X458215Y445025D01*
X458724Y444814D01*
X459276D01*
X459785Y445025D01*
X460175Y445415D01*
X460386Y445924D01*
Y446476D01*
X460175Y446985D01*
X459785Y447375D01*
X459276Y447586D01*
D02*
G37*
G36*
X455526D02*
X454974D01*
X454465Y447375D01*
X454075Y446985D01*
X453864Y446476D01*
Y445924D01*
X454075Y445415D01*
X454465Y445025D01*
X454974Y444814D01*
X455526D01*
X456035Y445025D01*
X456425Y445415D01*
X456636Y445924D01*
Y446476D01*
X456425Y446985D01*
X456035Y447375D01*
X455526Y447586D01*
D02*
G37*
G36*
X480236Y443689D02*
X479764D01*
X479326Y443508D01*
X478992Y443174D01*
X478779Y443131D01*
X478635Y443275D01*
X478126Y443486D01*
X477574D01*
X477065Y443275D01*
X476675Y442885D01*
X476464Y442376D01*
Y441824D01*
X476617Y441455D01*
X476443Y441155D01*
X476185D01*
X475379Y440995D01*
X475232Y441272D01*
X475275Y441315D01*
X475486Y441824D01*
Y442376D01*
X475275Y442885D01*
X474885Y443275D01*
X474376Y443486D01*
X473824D01*
X473315Y443275D01*
X472925Y442885D01*
X472714Y442376D01*
Y441824D01*
X472925Y441315D01*
X473315Y440925D01*
X473824Y440714D01*
X474313D01*
X474426Y440493D01*
X474438Y440437D01*
X474418Y440424D01*
X473877Y439613D01*
X473687Y438657D01*
X473877Y437702D01*
X474418Y436891D01*
X475229Y436349D01*
X476185Y436159D01*
X479385D01*
X480340Y436349D01*
X481151Y436891D01*
X481692Y437702D01*
X481883Y438657D01*
X481692Y439613D01*
X481151Y440424D01*
X480340Y440965D01*
X480110Y441011D01*
X480140Y441311D01*
X480236D01*
X480674Y441492D01*
X481008Y441826D01*
X481189Y442264D01*
Y442736D01*
X481008Y443174D01*
X480674Y443508D01*
X480236Y443689D01*
D02*
G37*
G36*
X555238Y447077D02*
X554687D01*
X554177Y446866D01*
X553787Y446476D01*
X553577Y445967D01*
Y445415D01*
X553787Y444906D01*
X554132Y444561D01*
X554158Y444385D01*
X554132Y444210D01*
X553787Y443865D01*
X553577Y443356D01*
Y442804D01*
X553583Y442788D01*
X553551Y442733D01*
X553155Y442637D01*
X552590Y443015D01*
X551614Y443209D01*
X550639Y443015D01*
X549812Y442462D01*
X549259Y441635D01*
X549065Y440660D01*
X549259Y439684D01*
X549812Y438858D01*
X552898Y435771D01*
Y413566D01*
X546206Y406873D01*
X521114D01*
X520139Y406679D01*
X519312Y406127D01*
X512618Y399433D01*
X509202D01*
X508227Y399239D01*
X507400Y398687D01*
X506847Y397860D01*
X506653Y396884D01*
X506847Y395909D01*
X507400Y395082D01*
X508227Y394529D01*
X509202Y394335D01*
X513519D01*
X513649Y394309D01*
X514624Y394503D01*
X515451Y395056D01*
X522170Y401775D01*
X547261D01*
X548237Y401969D01*
X549064Y402522D01*
X557249Y410708D01*
X557802Y411535D01*
X557996Y412510D01*
Y418701D01*
X558296Y418901D01*
X558513Y418811D01*
X558987D01*
X559423Y418992D01*
X559758Y419326D01*
X559939Y419764D01*
Y420236D01*
X559758Y420674D01*
X559423Y421008D01*
X558987Y421189D01*
X558513D01*
X558296Y421099D01*
X557996Y421299D01*
Y436827D01*
X557802Y437803D01*
X557249Y438629D01*
X554384Y441495D01*
X554554Y441749D01*
X554687Y441694D01*
X555238D01*
X555747Y441905D01*
X556137Y442295D01*
X556348Y442804D01*
Y443356D01*
X556137Y443865D01*
X555792Y444210D01*
X555766Y444385D01*
X555792Y444561D01*
X556137Y444906D01*
X556348Y445415D01*
Y445967D01*
X556137Y446476D01*
X555747Y446866D01*
X555238Y447077D01*
D02*
G37*
G36*
X562737Y443689D02*
X562263D01*
X561827Y443508D01*
X561492Y443174D01*
X561311Y442736D01*
Y442264D01*
X561492Y441826D01*
X561827Y441492D01*
X562263Y441311D01*
X562737D01*
X563173Y441492D01*
X563508Y441826D01*
X563689Y442264D01*
Y442736D01*
X563508Y443174D01*
X563173Y443508D01*
X562737Y443689D01*
D02*
G37*
G36*
X510237D02*
X509763D01*
X509327Y443508D01*
X508992Y443174D01*
X508811Y442736D01*
Y442264D01*
X508992Y441826D01*
X509327Y441492D01*
X509763Y441311D01*
X510237D01*
X510674Y441492D01*
X511008Y441826D01*
X511189Y442264D01*
Y442736D01*
X511008Y443174D01*
X510674Y443508D01*
X510237Y443689D01*
D02*
G37*
G36*
X466876Y443486D02*
X466324D01*
X465815Y443275D01*
X465425Y442885D01*
X465214Y442376D01*
Y441824D01*
X465425Y441315D01*
X465517Y441223D01*
X465465Y441115D01*
X465340Y440976D01*
X464436Y441155D01*
X464257D01*
X464083Y441455D01*
X464236Y441824D01*
Y442376D01*
X464025Y442885D01*
X463635Y443275D01*
X463126Y443486D01*
X462574D01*
X462065Y443275D01*
X461675Y442885D01*
X461464Y442376D01*
Y441824D01*
X461617Y441455D01*
X461443Y441155D01*
X460507D01*
X460333Y441455D01*
X460486Y441824D01*
Y442376D01*
X460275Y442885D01*
X459885Y443275D01*
X459376Y443486D01*
X458824D01*
X458315Y443275D01*
X457925Y442885D01*
X457714Y442376D01*
Y441824D01*
X457925Y441315D01*
X458221Y441019D01*
X458226Y440662D01*
X457870Y440424D01*
X457329Y439613D01*
X457138Y438657D01*
X457329Y437702D01*
X457870Y436891D01*
X458681Y436349D01*
X459636Y436159D01*
X464436D01*
X465392Y436349D01*
X466203Y436891D01*
X466744Y437702D01*
X466934Y438657D01*
X466744Y439613D01*
X466203Y440424D01*
X466140Y440466D01*
X466282Y440732D01*
X466324Y440714D01*
X466876D01*
X467385Y440925D01*
X467775Y441315D01*
X467986Y441824D01*
Y442376D01*
X467775Y442885D01*
X467385Y443275D01*
X466876Y443486D01*
D02*
G37*
G36*
X470626D02*
X470074D01*
X469565Y443275D01*
X469175Y442885D01*
X468964Y442376D01*
Y441824D01*
X469175Y441315D01*
X469565Y440925D01*
X470074Y440714D01*
X470626D01*
X471135Y440925D01*
X471525Y441315D01*
X471736Y441824D01*
Y442376D01*
X471525Y442885D01*
X471135Y443275D01*
X470626Y443486D01*
D02*
G37*
G36*
X455626D02*
X455074D01*
X454565Y443275D01*
X454175Y442885D01*
X453964Y442376D01*
Y441824D01*
X454175Y441315D01*
X454565Y440925D01*
X455074Y440714D01*
X455626D01*
X456135Y440925D01*
X456525Y441315D01*
X456736Y441824D01*
Y442376D01*
X456525Y442885D01*
X456135Y443275D01*
X455626Y443486D01*
D02*
G37*
G36*
X538746Y440123D02*
X538312D01*
X537911Y439957D01*
X537605Y439650D01*
X537438Y439250D01*
Y438816D01*
X537605Y438415D01*
X537911Y438108D01*
X538312Y437942D01*
X538746D01*
X539147Y438108D01*
X539454Y438415D01*
X539620Y438816D01*
Y439250D01*
X539454Y439650D01*
X539147Y439957D01*
X538746Y440123D01*
D02*
G37*
G36*
X544823Y439106D02*
X544271D01*
X543762Y438895D01*
X543372Y438506D01*
X543161Y437996D01*
Y437445D01*
X543372Y436936D01*
X543762Y436546D01*
X544271Y436335D01*
X544823D01*
X545332Y436546D01*
X545722Y436936D01*
X545933Y437445D01*
Y437996D01*
X545722Y438506D01*
X545332Y438895D01*
X544823Y439106D01*
D02*
G37*
G36*
X474886Y435709D02*
X474335D01*
X473826Y435498D01*
X473436Y435108D01*
X473226Y434601D01*
X473215Y434597D01*
X472925Y434544D01*
X472825Y434785D01*
X472435Y435175D01*
X471926Y435386D01*
X471374D01*
X470865Y435175D01*
X470475Y434785D01*
X470264Y434276D01*
Y433724D01*
X470475Y433215D01*
X470865Y432825D01*
X471374Y432614D01*
X471926D01*
X472435Y432825D01*
X472825Y433215D01*
X473035Y433722D01*
X473045Y433726D01*
X473336Y433779D01*
X473436Y433538D01*
X473826Y433148D01*
X474335Y432937D01*
X474886D01*
X475396Y433148D01*
X475785Y433538D01*
X475996Y434047D01*
Y434598D01*
X475785Y435108D01*
X475396Y435498D01*
X474886Y435709D01*
D02*
G37*
G36*
X498986Y436189D02*
X498514D01*
X498076Y436008D01*
X497742Y435674D01*
X497561Y435237D01*
Y434763D01*
X497742Y434327D01*
X498076Y433992D01*
X498514Y433811D01*
X498986D01*
X499424Y433992D01*
X499758Y434327D01*
X499939Y434763D01*
Y435237D01*
X499758Y435674D01*
X499424Y436008D01*
X498986Y436189D01*
D02*
G37*
G36*
X468642Y435386D02*
X468091D01*
X467582Y435175D01*
X467192Y434785D01*
X466981Y434276D01*
Y433724D01*
X467192Y433215D01*
X467582Y432825D01*
X468091Y432614D01*
X468642D01*
X469152Y432825D01*
X469542Y433215D01*
X469753Y433724D01*
Y434276D01*
X469542Y434785D01*
X469152Y435175D01*
X468642Y435386D01*
D02*
G37*
G36*
X465359D02*
X464808D01*
X464298Y435175D01*
X463908Y434785D01*
X463697Y434276D01*
Y433724D01*
X463908Y433215D01*
X464298Y432825D01*
X464808Y432614D01*
X465359D01*
X465868Y432825D01*
X466258Y433215D01*
X466469Y433724D01*
Y434276D01*
X466258Y434785D01*
X465868Y435175D01*
X465359Y435386D01*
D02*
G37*
G36*
X462076D02*
X461524D01*
X461015Y435175D01*
X460625Y434785D01*
X460414Y434276D01*
Y433724D01*
X460625Y433215D01*
X461015Y432825D01*
X461524Y432614D01*
X462076D01*
X462585Y432825D01*
X462975Y433215D01*
X463186Y433724D01*
Y434276D01*
X462975Y434785D01*
X462585Y435175D01*
X462076Y435386D01*
D02*
G37*
G36*
X458792D02*
X458241D01*
X457732Y435175D01*
X457342Y434785D01*
X457131Y434276D01*
Y433724D01*
X457342Y433215D01*
X457732Y432825D01*
X458241Y432614D01*
X458792D01*
X459302Y432825D01*
X459691Y433215D01*
X459902Y433724D01*
Y434276D01*
X459691Y434785D01*
X459302Y435175D01*
X458792Y435386D01*
D02*
G37*
G36*
X492914Y434259D02*
X492363D01*
X491854Y434048D01*
X491464Y433659D01*
X491253Y433149D01*
Y432598D01*
X491464Y432089D01*
X491854Y431699D01*
X492363Y431488D01*
X492914D01*
X493424Y431699D01*
X493813Y432089D01*
X494024Y432598D01*
Y433149D01*
X493813Y433659D01*
X493424Y434048D01*
X492914Y434259D01*
D02*
G37*
G36*
X551393Y432661D02*
X550841D01*
X550332Y432450D01*
X549942Y432060D01*
X549731Y431551D01*
Y431000D01*
X549942Y430490D01*
X550332Y430100D01*
X550841Y429889D01*
X551393D01*
X551902Y430100D01*
X552292Y430490D01*
X552503Y431000D01*
Y431551D01*
X552292Y432060D01*
X551902Y432450D01*
X551393Y432661D01*
D02*
G37*
G36*
X467724Y431945D02*
X467173D01*
X466664Y431734D01*
X466274Y431344D01*
X466063Y430834D01*
Y430283D01*
X466274Y429774D01*
X466664Y429384D01*
X467173Y429173D01*
X467724D01*
X468234Y429384D01*
X468624Y429774D01*
X468834Y430283D01*
Y430834D01*
X468624Y431344D01*
X468234Y431734D01*
X467724Y431945D01*
D02*
G37*
G36*
X562737Y428689D02*
X562263D01*
X561827Y428508D01*
X561492Y428173D01*
X561311Y427737D01*
Y427263D01*
X561492Y426826D01*
X561827Y426492D01*
X562263Y426311D01*
X562737D01*
X563173Y426492D01*
X563508Y426826D01*
X563689Y427263D01*
Y427737D01*
X563508Y428173D01*
X563173Y428508D01*
X562737Y428689D01*
D02*
G37*
G36*
X502737D02*
X502263D01*
X501826Y428508D01*
X501492Y428173D01*
X501311Y427737D01*
Y427263D01*
X501492Y426826D01*
X501826Y426492D01*
X502263Y426311D01*
X502737D01*
X503173Y426492D01*
X503508Y426826D01*
X503689Y427263D01*
Y427737D01*
X503508Y428173D01*
X503173Y428508D01*
X502737Y428689D01*
D02*
G37*
G36*
X465237D02*
X464763D01*
X464326Y428508D01*
X463992Y428173D01*
X463811Y427737D01*
Y427263D01*
X463992Y426826D01*
X464326Y426492D01*
X464763Y426311D01*
X465237D01*
X465673Y426492D01*
X466008Y426826D01*
X466189Y427263D01*
Y427737D01*
X466008Y428173D01*
X465673Y428508D01*
X465237Y428689D01*
D02*
G37*
G36*
X455509Y435386D02*
X454958D01*
X454448Y435175D01*
X454059Y434785D01*
X453848Y434276D01*
Y433724D01*
X454059Y433215D01*
X454389Y432885D01*
X454424Y432705D01*
X454389Y432525D01*
X454059Y432195D01*
X453848Y431686D01*
Y431134D01*
X454059Y430625D01*
X454389Y430295D01*
X454424Y430115D01*
X454389Y429935D01*
X454059Y429605D01*
X453848Y429096D01*
Y428544D01*
X454059Y428035D01*
X454389Y427705D01*
X454424Y427525D01*
X454389Y427345D01*
X454059Y427015D01*
X453848Y426506D01*
Y425954D01*
X454059Y425445D01*
X454389Y425115D01*
X454424Y424935D01*
X454389Y424755D01*
X454059Y424425D01*
X453848Y423916D01*
Y423364D01*
X454059Y422855D01*
X454389Y422525D01*
X454424Y422345D01*
X454389Y422165D01*
X454059Y421835D01*
X453848Y421326D01*
Y420774D01*
X454059Y420265D01*
X454389Y419935D01*
X454424Y419755D01*
X454389Y419575D01*
X454059Y419245D01*
X453848Y418736D01*
Y418184D01*
X454059Y417675D01*
X454389Y417345D01*
X454424Y417165D01*
X454389Y416985D01*
X454059Y416655D01*
X453848Y416146D01*
Y415594D01*
X454059Y415085D01*
X454389Y414755D01*
X454424Y414575D01*
X454389Y414395D01*
X454059Y414065D01*
X453848Y413556D01*
Y413004D01*
X454059Y412495D01*
X454389Y412165D01*
X454424Y411985D01*
X454389Y411805D01*
X454059Y411475D01*
X453848Y410966D01*
Y410414D01*
X454059Y409905D01*
X454389Y409575D01*
X454424Y409395D01*
X454389Y409215D01*
X454059Y408885D01*
X453848Y408376D01*
Y407824D01*
X454059Y407315D01*
X454448Y406925D01*
X454958Y406714D01*
X455509D01*
X456018Y406925D01*
X456408Y407315D01*
X456619Y407824D01*
Y408376D01*
X456408Y408885D01*
X456078Y409215D01*
X456042Y409395D01*
X456078Y409575D01*
X456408Y409905D01*
X456619Y410414D01*
Y410966D01*
X456408Y411475D01*
X456078Y411805D01*
X456076Y411816D01*
X456142Y411888D01*
X456492Y411827D01*
X456494Y411825D01*
X456826Y411492D01*
X457264Y411311D01*
X457736D01*
X458174Y411492D01*
X458508Y411827D01*
X458689Y412263D01*
Y412737D01*
X458508Y413173D01*
X458174Y413508D01*
X457736Y413689D01*
X457264D01*
X456919Y413546D01*
X456760Y413551D01*
X456570Y413675D01*
X456408Y414065D01*
X456078Y414395D01*
X456042Y414575D01*
X456078Y414755D01*
X456408Y415085D01*
X456619Y415594D01*
Y416146D01*
X456408Y416655D01*
X456078Y416985D01*
X456042Y417165D01*
X456078Y417345D01*
X456408Y417675D01*
X456619Y418184D01*
Y418736D01*
X456408Y419245D01*
X456078Y419575D01*
X456042Y419755D01*
X456078Y419935D01*
X456408Y420265D01*
X456619Y420774D01*
Y421326D01*
X456408Y421835D01*
X456078Y422165D01*
X456042Y422345D01*
X456078Y422525D01*
X456408Y422855D01*
X456619Y423364D01*
Y423916D01*
X456408Y424425D01*
X456078Y424755D01*
X456042Y424935D01*
X456078Y425115D01*
X456408Y425445D01*
X456619Y425954D01*
Y426278D01*
X456673Y426334D01*
X456919Y426454D01*
X457264Y426311D01*
X457736D01*
X458174Y426492D01*
X458508Y426826D01*
X458689Y427263D01*
Y427737D01*
X458508Y428173D01*
X458174Y428508D01*
X457736Y428689D01*
X457264D01*
X456919Y428546D01*
X456673Y428666D01*
X456619Y428722D01*
Y429096D01*
X456408Y429605D01*
X456078Y429935D01*
X456042Y430115D01*
X456078Y430295D01*
X456408Y430625D01*
X456619Y431134D01*
Y431686D01*
X456408Y432195D01*
X456078Y432525D01*
X456042Y432705D01*
X456078Y432885D01*
X456408Y433215D01*
X456619Y433724D01*
Y434276D01*
X456408Y434785D01*
X456018Y435175D01*
X455509Y435386D01*
D02*
G37*
G36*
X498043Y428811D02*
X497492D01*
X496983Y428600D01*
X496593Y428210D01*
X496382Y427701D01*
Y427149D01*
X496593Y426640D01*
X496983Y426250D01*
X497492Y426039D01*
X498043D01*
X498553Y426250D01*
X498943Y426640D01*
X499154Y427149D01*
Y427701D01*
X498943Y428210D01*
X498553Y428600D01*
X498043Y428811D01*
D02*
G37*
G36*
X505964Y427360D02*
X505412D01*
X504903Y427149D01*
X504513Y426759D01*
X504302Y426250D01*
Y425698D01*
X504513Y425189D01*
X504903Y424799D01*
X505412Y424588D01*
X505964D01*
X506473Y424799D01*
X506863Y425189D01*
X507074Y425698D01*
Y426250D01*
X506863Y426759D01*
X506473Y427149D01*
X505964Y427360D01*
D02*
G37*
G36*
X467450Y425838D02*
X466899D01*
X466390Y425627D01*
X466000Y425237D01*
X465789Y424727D01*
Y424176D01*
X466000Y423667D01*
X466390Y423277D01*
X466899Y423066D01*
X467450D01*
X467959Y423277D01*
X468349Y423667D01*
X468560Y424176D01*
Y424727D01*
X468349Y425237D01*
X467959Y425627D01*
X467450Y425838D01*
D02*
G37*
G36*
X515739Y424857D02*
X515188D01*
X514679Y424646D01*
X514289Y424256D01*
X514078Y423747D01*
Y423195D01*
X514289Y422686D01*
X514679Y422296D01*
X515188Y422085D01*
X515739D01*
X516249Y422296D01*
X516639Y422686D01*
X516850Y423195D01*
Y423747D01*
X516639Y424256D01*
X516249Y424646D01*
X515739Y424857D01*
D02*
G37*
G36*
X461486Y421189D02*
X461014D01*
X460576Y421008D01*
X460242Y420674D01*
X460061Y420236D01*
Y419764D01*
X460242Y419326D01*
X460576Y418992D01*
X461014Y418811D01*
X461486D01*
X461924Y418992D01*
X462258Y419326D01*
X462439Y419764D01*
Y420236D01*
X462258Y420674D01*
X461924Y421008D01*
X461486Y421189D01*
D02*
G37*
G36*
X500768Y421169D02*
X500216D01*
X499707Y420958D01*
X499317Y420569D01*
X499106Y420059D01*
Y419508D01*
X499317Y418998D01*
X499707Y418609D01*
X500216Y418398D01*
X500768D01*
X501277Y418609D01*
X501667Y418998D01*
X501878Y419508D01*
Y420059D01*
X501667Y420569D01*
X501277Y420958D01*
X500768Y421169D01*
D02*
G37*
G36*
X497225D02*
X496673D01*
X496164Y420958D01*
X495774Y420569D01*
X495563Y420059D01*
Y419508D01*
X495774Y418998D01*
X496164Y418609D01*
X496673Y418398D01*
X497225D01*
X497734Y418609D01*
X498124Y418998D01*
X498335Y419508D01*
Y420059D01*
X498124Y420569D01*
X497734Y420958D01*
X497225Y421169D01*
D02*
G37*
G36*
X467375Y418958D02*
X466824D01*
X466315Y418747D01*
X465925Y418357D01*
X465714Y417847D01*
Y417296D01*
X465925Y416787D01*
X466315Y416397D01*
X466824Y416186D01*
X467375D01*
X467885Y416397D01*
X468275Y416787D01*
X468485Y417296D01*
Y417847D01*
X468275Y418357D01*
X467885Y418747D01*
X467375Y418958D01*
D02*
G37*
G36*
X467627Y414895D02*
X467076D01*
X466567Y414685D01*
X466177Y414295D01*
X465966Y413785D01*
Y413640D01*
X465673Y413508D01*
X465237Y413689D01*
X464763D01*
X464326Y413508D01*
X463992Y413173D01*
X463811Y412737D01*
Y412263D01*
X463992Y411827D01*
X464326Y411492D01*
X464763Y411311D01*
X465237D01*
X465673Y411492D01*
X466008Y411827D01*
X466189Y412263D01*
Y412320D01*
X466466Y412435D01*
X466567Y412335D01*
X467076Y412124D01*
X467627D01*
X468137Y412335D01*
X468526Y412725D01*
X468737Y413234D01*
Y413785D01*
X468526Y414295D01*
X468137Y414685D01*
X467627Y414895D01*
D02*
G37*
G36*
X562737Y413689D02*
X562263D01*
X561827Y413508D01*
X561492Y413173D01*
X561311Y412737D01*
Y412263D01*
X561492Y411827D01*
X561827Y411492D01*
X562263Y411311D01*
X562737D01*
X563173Y411492D01*
X563508Y411827D01*
X563689Y412263D01*
Y412737D01*
X563508Y413173D01*
X563173Y413508D01*
X562737Y413689D01*
D02*
G37*
G36*
X525237D02*
X524763D01*
X524327Y413508D01*
X523992Y413173D01*
X523811Y412737D01*
Y412263D01*
X523992Y411827D01*
X524327Y411492D01*
X524763Y411311D01*
X525237D01*
X525673Y411492D01*
X526008Y411827D01*
X526189Y412263D01*
Y412737D01*
X526008Y413173D01*
X525673Y413508D01*
X525237Y413689D01*
D02*
G37*
G36*
X495236D02*
X494764D01*
X494326Y413508D01*
X493992Y413173D01*
X493811Y412737D01*
Y412263D01*
X493992Y411827D01*
X494326Y411492D01*
X494764Y411311D01*
X495236D01*
X495674Y411492D01*
X496008Y411827D01*
X496189Y412263D01*
Y412737D01*
X496008Y413173D01*
X495674Y413508D01*
X495236Y413689D01*
D02*
G37*
G36*
X532467Y412629D02*
X531994D01*
X531557Y412448D01*
X531223Y412114D01*
X531042Y411677D01*
Y411203D01*
X531223Y410767D01*
X531557Y410432D01*
X531994Y410251D01*
X532467D01*
X532904Y410432D01*
X533239Y410767D01*
X533420Y411203D01*
Y411677D01*
X533239Y412114D01*
X532904Y412448D01*
X532467Y412629D01*
D02*
G37*
G36*
X462297Y410300D02*
X461746D01*
X461236Y410089D01*
X460846Y409699D01*
X460635Y409190D01*
Y408638D01*
X460846Y408129D01*
X461236Y407739D01*
X461746Y407528D01*
X462297D01*
X462806Y407739D01*
X463196Y408129D01*
X463407Y408638D01*
Y409190D01*
X463196Y409699D01*
X462806Y410089D01*
X462297Y410300D01*
D02*
G37*
G36*
X483987Y406189D02*
X483513D01*
X483076Y406008D01*
X482742Y405674D01*
X482561Y405236D01*
Y404764D01*
X482742Y404326D01*
X483076Y403992D01*
X483513Y403811D01*
X483987D01*
X484423Y403992D01*
X484758Y404326D01*
X484939Y404764D01*
Y405236D01*
X484758Y405674D01*
X484423Y406008D01*
X483987Y406189D01*
D02*
G37*
G36*
X490457Y405553D02*
X489984D01*
X489547Y405372D01*
X489212Y405038D01*
X489031Y404601D01*
Y404128D01*
X489212Y403691D01*
X489547Y403356D01*
X489984Y403175D01*
X490457D01*
X490894Y403356D01*
X491228Y403691D01*
X491409Y404128D01*
Y404601D01*
X491228Y405038D01*
X490894Y405372D01*
X490457Y405553D01*
D02*
G37*
G36*
X480171Y401345D02*
X479619D01*
X479110Y401134D01*
X478720Y400744D01*
X478509Y400235D01*
Y399684D01*
X478720Y399174D01*
X479110Y398785D01*
X479619Y398574D01*
X480171D01*
X480680Y398785D01*
X481070Y399174D01*
X481281Y399684D01*
Y400235D01*
X481070Y400744D01*
X480680Y401134D01*
X480171Y401345D01*
D02*
G37*
G36*
X459476Y401286D02*
X458924D01*
X458415Y401075D01*
X458025Y400685D01*
X457814Y400176D01*
Y399624D01*
X458025Y399115D01*
X458415Y398725D01*
X458924Y398514D01*
X459476D01*
X459985Y398725D01*
X460375Y399115D01*
X460586Y399624D01*
Y400176D01*
X460375Y400685D01*
X459985Y401075D01*
X459476Y401286D01*
D02*
G37*
G36*
X455726D02*
X455174D01*
X454665Y401075D01*
X454275Y400685D01*
X454064Y400176D01*
Y399624D01*
X454275Y399115D01*
X454665Y398725D01*
X455174Y398514D01*
X455726D01*
X456235Y398725D01*
X456625Y399115D01*
X456836Y399624D01*
Y400176D01*
X456625Y400685D01*
X456235Y401075D01*
X455726Y401286D01*
D02*
G37*
G36*
X547737Y398689D02*
X547263D01*
X546827Y398508D01*
X546492Y398173D01*
X546311Y397737D01*
Y397264D01*
X546492Y396827D01*
X546827Y396492D01*
X547263Y396311D01*
X547737D01*
X548174Y396492D01*
X548508Y396827D01*
X548689Y397264D01*
Y397737D01*
X548508Y398173D01*
X548174Y398508D01*
X547737Y398689D01*
D02*
G37*
G36*
X540237D02*
X539763D01*
X539326Y398508D01*
X538992Y398173D01*
X538811Y397737D01*
Y397264D01*
X538992Y396827D01*
X539326Y396492D01*
X539763Y396311D01*
X540237D01*
X540673Y396492D01*
X541008Y396827D01*
X541189Y397264D01*
Y397737D01*
X541008Y398173D01*
X540673Y398508D01*
X540237Y398689D01*
D02*
G37*
G36*
X532736D02*
X532264D01*
X531826Y398508D01*
X531492Y398173D01*
X531311Y397737D01*
Y397264D01*
X531492Y396827D01*
X531826Y396492D01*
X532264Y396311D01*
X532736D01*
X533174Y396492D01*
X533508Y396827D01*
X533689Y397264D01*
Y397737D01*
X533508Y398173D01*
X533174Y398508D01*
X532736Y398689D01*
D02*
G37*
G36*
X465237D02*
X464763D01*
X464326Y398508D01*
X463992Y398173D01*
X463811Y397737D01*
Y397264D01*
X463992Y396827D01*
X464326Y396492D01*
X464763Y396311D01*
X465237D01*
X465673Y396492D01*
X466008Y396827D01*
X466189Y397264D01*
Y397737D01*
X466008Y398173D01*
X465673Y398508D01*
X465237Y398689D01*
D02*
G37*
G36*
X457736D02*
X457264D01*
X456826Y398508D01*
X456492Y398173D01*
X456311Y397737D01*
Y397264D01*
X456492Y396827D01*
X456826Y396492D01*
X457264Y396311D01*
X457736D01*
X458174Y396492D01*
X458508Y396827D01*
X458689Y397264D01*
Y397737D01*
X458508Y398173D01*
X458174Y398508D01*
X457736Y398689D01*
D02*
G37*
G36*
X493569Y394848D02*
X493096D01*
X492659Y394668D01*
X492325Y394333D01*
X492144Y393896D01*
Y393423D01*
X492177Y393343D01*
X491982Y393030D01*
X491666Y392900D01*
X491360Y392593D01*
X491193Y392192D01*
Y391758D01*
X491360Y391357D01*
X491666Y391051D01*
X492067Y390884D01*
X492501D01*
X492902Y391051D01*
X493209Y391357D01*
X493375Y391758D01*
Y392192D01*
X493363Y392221D01*
X493529Y392471D01*
X493569D01*
X494006Y392652D01*
X494341Y392986D01*
X494522Y393423D01*
Y393896D01*
X494341Y394333D01*
X494006Y394668D01*
X493569Y394848D01*
D02*
G37*
G36*
X463231Y389098D02*
X462679D01*
X462170Y388887D01*
X461780Y388497D01*
X461569Y387988D01*
Y387436D01*
X461780Y386927D01*
X462170Y386537D01*
X462679Y386326D01*
X463231D01*
X463740Y386537D01*
X464130Y386927D01*
X464341Y387436D01*
Y387988D01*
X464130Y388497D01*
X463740Y388887D01*
X463231Y389098D01*
D02*
G37*
G36*
X459812D02*
X459261D01*
X458751Y388887D01*
X458362Y388497D01*
X458151Y387988D01*
Y387436D01*
X458362Y386927D01*
X458751Y386537D01*
X459261Y386326D01*
X459812D01*
X460322Y386537D01*
X460711Y386927D01*
X460922Y387436D01*
Y387988D01*
X460711Y388497D01*
X460322Y388887D01*
X459812Y389098D01*
D02*
G37*
G36*
X456394D02*
X455842D01*
X455333Y388887D01*
X454943Y388497D01*
X454732Y387988D01*
Y387436D01*
X454943Y386927D01*
X455333Y386537D01*
X455842Y386326D01*
X456394D01*
X456903Y386537D01*
X457293Y386927D01*
X457504Y387436D01*
Y387988D01*
X457293Y388497D01*
X456903Y388887D01*
X456394Y389098D01*
D02*
G37*
G36*
X498208Y395605D02*
X497735D01*
X497298Y395425D01*
X496964Y395090D01*
X496783Y394653D01*
Y394180D01*
X496964Y393743D01*
X497269Y393438D01*
X497298Y393408D01*
X497304Y393081D01*
X497158Y392935D01*
X496992Y392534D01*
Y392100D01*
X497158Y391700D01*
X497465Y391393D01*
X497830Y391241D01*
X497863Y391119D01*
X497860Y390929D01*
X497707Y390865D01*
X497400Y390559D01*
X497234Y390158D01*
Y389724D01*
X497400Y389323D01*
X497187Y389113D01*
X496894Y388992D01*
X496472Y388570D01*
X496244Y388019D01*
Y387422D01*
X496472Y386871D01*
X496894Y386449D01*
X497446Y386220D01*
X498042D01*
X498594Y386449D01*
X499016Y386871D01*
X499244Y387422D01*
Y388019D01*
X499016Y388570D01*
X498869Y388716D01*
X498928Y389011D01*
X498942Y389016D01*
X499249Y389323D01*
X499415Y389724D01*
Y390158D01*
X499249Y390559D01*
X498942Y390865D01*
X498577Y391017D01*
X498543Y391139D01*
X498547Y391329D01*
X498700Y391393D01*
X499007Y391700D01*
X499173Y392100D01*
Y392534D01*
X499007Y392935D01*
X498785Y393157D01*
X498712Y393289D01*
X498773Y393536D01*
X498980Y393743D01*
X499161Y394180D01*
Y394653D01*
X498980Y395090D01*
X498645Y395425D01*
X498208Y395605D01*
D02*
G37*
G36*
X492501Y390522D02*
X492067D01*
X491666Y390356D01*
X491360Y390049D01*
X491193Y389648D01*
Y389214D01*
X491360Y388813D01*
X491666Y388507D01*
X491927Y388399D01*
X492016Y388063D01*
X492001Y388049D01*
X491820Y387612D01*
Y387139D01*
X492001Y386702D01*
X492336Y386368D01*
X492773Y386187D01*
X493246D01*
X493683Y386368D01*
X494017Y386702D01*
X494198Y387139D01*
Y387612D01*
X494017Y388049D01*
X493683Y388384D01*
X493344Y388524D01*
X493236Y388755D01*
X493230Y388865D01*
X493375Y389214D01*
Y389648D01*
X493209Y390049D01*
X492902Y390356D01*
X492501Y390522D01*
D02*
G37*
G36*
X463231Y384193D02*
X462679D01*
X462170Y383982D01*
X461780Y383593D01*
X461569Y383083D01*
Y382532D01*
X461780Y382023D01*
X462170Y381633D01*
X462679Y381422D01*
X463231D01*
X463740Y381633D01*
X464130Y382023D01*
X464341Y382532D01*
Y383083D01*
X464130Y383593D01*
X463740Y383982D01*
X463231Y384193D01*
D02*
G37*
G36*
X459773D02*
X459222D01*
X458712Y383982D01*
X458322Y383593D01*
X458111Y383083D01*
Y382532D01*
X458322Y382023D01*
X458712Y381633D01*
X459222Y381422D01*
X459773D01*
X460282Y381633D01*
X460672Y382023D01*
X460883Y382532D01*
Y383083D01*
X460672Y383593D01*
X460282Y383982D01*
X459773Y384193D01*
D02*
G37*
G36*
X456315D02*
X455764D01*
X455254Y383982D01*
X454864Y383593D01*
X454654Y383083D01*
Y382532D01*
X454864Y382023D01*
X455254Y381633D01*
X455764Y381422D01*
X456315D01*
X456824Y381633D01*
X457214Y382023D01*
X457425Y382532D01*
Y383083D01*
X457214Y383593D01*
X456824Y383982D01*
X456315Y384193D01*
D02*
G37*
G36*
X532736Y383689D02*
X532264D01*
X531826Y383508D01*
X531492Y383173D01*
X531311Y382736D01*
Y382263D01*
X531492Y381826D01*
X531826Y381492D01*
X532264Y381311D01*
X532736D01*
X533174Y381492D01*
X533508Y381826D01*
X533689Y382263D01*
Y382736D01*
X533508Y383173D01*
X533174Y383508D01*
X532736Y383689D01*
D02*
G37*
G36*
X502737D02*
X502263D01*
X501826Y383508D01*
X501492Y383173D01*
X501311Y382736D01*
Y382263D01*
X501492Y381826D01*
X501826Y381492D01*
X502263Y381311D01*
X502737D01*
X503173Y381492D01*
X503508Y381826D01*
X503689Y382263D01*
Y382736D01*
X503508Y383173D01*
X503173Y383508D01*
X502737Y383689D01*
D02*
G37*
G36*
X533368Y379018D02*
X532771D01*
X532220Y378790D01*
X531798Y378368D01*
X531569Y377817D01*
Y377220D01*
X531798Y376669D01*
X532220Y376247D01*
X532771Y376018D01*
X533368D01*
X533919Y376247D01*
X534341Y376669D01*
X534569Y377220D01*
Y377817D01*
X534341Y378368D01*
X533919Y378790D01*
X533368Y379018D01*
D02*
G37*
G36*
X551486Y376189D02*
X551014D01*
X550576Y376008D01*
X550242Y375674D01*
X550061Y375237D01*
Y374763D01*
X550242Y374326D01*
X550576Y373992D01*
X551014Y373811D01*
X551486D01*
X551924Y373992D01*
X552258Y374326D01*
X552439Y374763D01*
Y375237D01*
X552258Y375674D01*
X551924Y376008D01*
X551486Y376189D01*
D02*
G37*
G36*
X497467Y378083D02*
X496870D01*
X496319Y377855D01*
X495897Y377433D01*
X495669Y376882D01*
Y376285D01*
X495897Y375734D01*
X496319Y375312D01*
X496870Y375083D01*
X497467D01*
X497561Y375021D01*
Y374763D01*
X497742Y374326D01*
X498076Y373992D01*
X498514Y373811D01*
X498986D01*
X499424Y373992D01*
X499758Y374326D01*
X499939Y374763D01*
Y375237D01*
X499758Y375674D01*
X499424Y376008D01*
X498986Y376189D01*
X498733D01*
X498669Y376285D01*
Y376882D01*
X498440Y377433D01*
X498018Y377855D01*
X497467Y378083D01*
D02*
G37*
G36*
X463333Y374267D02*
X462782D01*
X462272Y374056D01*
X461883Y373666D01*
X461672Y373157D01*
Y372606D01*
X461883Y372096D01*
X462272Y371707D01*
X462782Y371496D01*
X463333D01*
X463842Y371707D01*
X464232Y372096D01*
X464443Y372606D01*
Y373157D01*
X464232Y373666D01*
X463842Y374056D01*
X463333Y374267D01*
D02*
G37*
G36*
X459875D02*
X459324D01*
X458815Y374056D01*
X458425Y373666D01*
X458214Y373157D01*
Y372606D01*
X458425Y372096D01*
X458815Y371707D01*
X459324Y371496D01*
X459875D01*
X460385Y371707D01*
X460774Y372096D01*
X460985Y372606D01*
Y373157D01*
X460774Y373666D01*
X460385Y374056D01*
X459875Y374267D01*
D02*
G37*
G36*
X456417D02*
X455866D01*
X455357Y374056D01*
X454967Y373666D01*
X454756Y373157D01*
Y372606D01*
X454967Y372096D01*
X455357Y371707D01*
X455866Y371496D01*
X456417D01*
X456927Y371707D01*
X457317Y372096D01*
X457528Y372606D01*
Y373157D01*
X457317Y373666D01*
X456927Y374056D01*
X456417Y374267D01*
D02*
G37*
G36*
X459803Y370741D02*
X459252D01*
X458743Y370530D01*
X458353Y370140D01*
X458142Y369631D01*
Y369079D01*
X458258Y368798D01*
X458029Y368568D01*
X457736Y368689D01*
X457264D01*
X456826Y368508D01*
X456492Y368174D01*
X456311Y367737D01*
Y367264D01*
X456492Y366827D01*
X456826Y366492D01*
X457264Y366311D01*
X457736D01*
X458174Y366492D01*
X458508Y366827D01*
X458689Y367264D01*
Y367737D01*
X458615Y367916D01*
X458848Y368136D01*
X459252Y367969D01*
X459803D01*
X460313Y368180D01*
X460702Y368570D01*
X460913Y369079D01*
Y369631D01*
X460702Y370140D01*
X460313Y370530D01*
X459803Y370741D01*
D02*
G37*
G36*
X509759Y370587D02*
X509208D01*
X508698Y370376D01*
X508309Y369987D01*
X508098Y369477D01*
Y368926D01*
X508309Y368417D01*
X508698Y368027D01*
X509208Y367816D01*
X509759D01*
X510268Y368027D01*
X510658Y368417D01*
X510869Y368926D01*
Y369477D01*
X510658Y369987D01*
X510268Y370376D01*
X509759Y370587D01*
D02*
G37*
G36*
X516001Y369898D02*
X515528D01*
X515091Y369717D01*
X514757Y369383D01*
X514576Y368946D01*
Y368473D01*
X514757Y368036D01*
X515091Y367701D01*
X515528Y367520D01*
X516001D01*
X516438Y367701D01*
X516773Y368036D01*
X516954Y368473D01*
Y368946D01*
X516773Y369383D01*
X516438Y369717D01*
X516001Y369898D01*
D02*
G37*
G36*
X511029Y367311D02*
X510478D01*
X509969Y367099D01*
X509740Y366870D01*
X509550Y366730D01*
X509348Y366870D01*
X509180Y367038D01*
X508743Y367219D01*
X508270D01*
X507833Y367038D01*
X507498Y366704D01*
X507317Y366267D01*
Y365794D01*
X507498Y365357D01*
X507833Y365022D01*
X508270Y364842D01*
X508743D01*
X509180Y365022D01*
X509344Y365187D01*
X509579Y365140D01*
X509969Y364750D01*
X510478Y364539D01*
X511029D01*
X511539Y364750D01*
X511929Y365140D01*
X512140Y365649D01*
Y366200D01*
X511929Y366710D01*
X511539Y367099D01*
X511029Y367311D01*
D02*
G37*
G36*
X465237Y368689D02*
X464763D01*
X464326Y368508D01*
X463992Y368174D01*
X463811Y367737D01*
Y367264D01*
X463992Y366827D01*
X464326Y366492D01*
X464763Y366311D01*
X465237D01*
X465623Y366471D01*
X465673Y366492D01*
X465968Y366363D01*
X466060Y366141D01*
X466450Y365752D01*
X466959Y365541D01*
X467511D01*
X468020Y365752D01*
X468410Y366141D01*
X468621Y366651D01*
Y367202D01*
X468410Y367711D01*
X468020Y368101D01*
X467511Y368312D01*
X466959D01*
X466450Y368101D01*
X466350Y368001D01*
X466055Y368059D01*
X466008Y368174D01*
X465673Y368508D01*
X465237Y368689D01*
D02*
G37*
G36*
X547446Y368228D02*
X546850D01*
X546298Y367999D01*
X545876Y367577D01*
X545648Y367026D01*
Y366429D01*
X545876Y365878D01*
X546298Y365456D01*
X546850Y365228D01*
X547446D01*
X547998Y365456D01*
X548420Y365878D01*
X548648Y366429D01*
Y367026D01*
X548420Y367577D01*
X547998Y367999D01*
X547446Y368228D01*
D02*
G37*
G36*
X516202Y366948D02*
X515729D01*
X515292Y366767D01*
X514958Y366432D01*
X514777Y365995D01*
Y365522D01*
X514958Y365085D01*
X515292Y364751D01*
X515729Y364570D01*
X516202D01*
X516639Y364751D01*
X516973Y365085D01*
X517155Y365522D01*
Y365995D01*
X516973Y366432D01*
X516639Y366767D01*
X516202Y366948D01*
D02*
G37*
G36*
X484296Y363935D02*
X483823D01*
X483386Y363754D01*
X483052Y363419D01*
X482871Y362982D01*
Y362509D01*
X483052Y362072D01*
X483386Y361738D01*
X483823Y361557D01*
X484296D01*
X484733Y361738D01*
X485068Y362072D01*
X485249Y362509D01*
Y362982D01*
X485068Y363419D01*
X484733Y363754D01*
X484296Y363935D01*
D02*
G37*
G36*
X478354Y363286D02*
X477881D01*
X477444Y363105D01*
X477109Y362770D01*
X476928Y362333D01*
Y361860D01*
X477109Y361423D01*
X477444Y361089D01*
X477881Y360908D01*
X478354D01*
X478791Y361089D01*
X479125Y361423D01*
X479306Y361860D01*
Y362333D01*
X479125Y362770D01*
X478791Y363105D01*
X478354Y363286D01*
D02*
G37*
G36*
X558987Y361189D02*
X558513D01*
X558076Y361008D01*
X557742Y360673D01*
X557561Y360237D01*
Y359764D01*
X557742Y359327D01*
X558076Y358992D01*
X558513Y358811D01*
X558987D01*
X559423Y358992D01*
X559758Y359327D01*
X559939Y359764D01*
Y360237D01*
X559758Y360673D01*
X559423Y361008D01*
X558987Y361189D01*
D02*
G37*
G36*
X530973Y362549D02*
X530376D01*
X529825Y362321D01*
X529403Y361899D01*
X529174Y361347D01*
Y360751D01*
X529403Y360199D01*
X529825Y359777D01*
X530376Y359549D01*
X530973D01*
X531230Y359655D01*
X531237Y359654D01*
X531507Y359446D01*
Y359042D01*
X531718Y358533D01*
X532108Y358143D01*
X532617Y357932D01*
X533169D01*
X533678Y358143D01*
X534068Y358533D01*
X534279Y359042D01*
Y359594D01*
X534068Y360103D01*
X533678Y360493D01*
X533169Y360704D01*
X532617D01*
X532451Y360635D01*
X532370Y360669D01*
X532174Y360845D01*
Y361347D01*
X531946Y361899D01*
X531524Y362321D01*
X530973Y362549D01*
D02*
G37*
G36*
X476486Y361189D02*
X476014D01*
X475576Y361008D01*
X475242Y360673D01*
X475061Y360237D01*
Y359764D01*
X475242Y359327D01*
X475576Y358992D01*
X476014Y358811D01*
X476486D01*
X476746Y358918D01*
X477045Y358722D01*
Y358656D01*
X477226Y358219D01*
X477561Y357884D01*
X477998Y357703D01*
X478471D01*
X478908Y357884D01*
X479185Y358161D01*
X479429Y358170D01*
X479536Y358142D01*
X479840Y357838D01*
X480277Y357657D01*
X480750D01*
X481187Y357838D01*
X481521Y358173D01*
X481702Y358610D01*
Y359083D01*
X481521Y359520D01*
X481187Y359854D01*
X480750Y360035D01*
X480277D01*
X479840Y359854D01*
X479562Y359577D01*
X479319Y359568D01*
X479212Y359596D01*
X478908Y359900D01*
X478471Y360081D01*
X477998D01*
X477739Y359974D01*
X477439Y360170D01*
Y360237D01*
X477258Y360673D01*
X476924Y361008D01*
X476486Y361189D01*
D02*
G37*
G36*
X461612Y355570D02*
X461015D01*
X460464Y355341D01*
X460042Y354919D01*
X459813Y354368D01*
Y353771D01*
X460042Y353220D01*
X460464Y352798D01*
X461015Y352570D01*
X461612D01*
X462163Y352798D01*
X462585Y353220D01*
X462813Y353771D01*
Y354368D01*
X462585Y354919D01*
X462163Y355341D01*
X461612Y355570D01*
D02*
G37*
G36*
X456380Y355027D02*
X455829D01*
X455320Y354816D01*
X454930Y354426D01*
X454719Y353916D01*
Y353365D01*
X454930Y352856D01*
X455320Y352466D01*
X455829Y352255D01*
X456380D01*
X456890Y352466D01*
X457279Y352856D01*
X457490Y353365D01*
Y353916D01*
X457279Y354426D01*
X456890Y354816D01*
X456380Y355027D01*
D02*
G37*
G36*
X555236Y353689D02*
X554764D01*
X554326Y353508D01*
X553992Y353173D01*
X553811Y352736D01*
Y352263D01*
X553992Y351827D01*
X554326Y351492D01*
X554764Y351311D01*
X555236D01*
X555674Y351492D01*
X556008Y351827D01*
X556189Y352263D01*
Y352736D01*
X556008Y353173D01*
X555674Y353508D01*
X555236Y353689D01*
D02*
G37*
G36*
X465237D02*
X464763D01*
X464326Y353508D01*
X463992Y353173D01*
X463811Y352736D01*
Y352263D01*
X463992Y351827D01*
X464326Y351492D01*
X464763Y351311D01*
X465237D01*
X465673Y351492D01*
X466008Y351827D01*
X466189Y352263D01*
Y352736D01*
X466008Y353173D01*
X465673Y353508D01*
X465237Y353689D01*
D02*
G37*
G36*
X492600Y352874D02*
X492127D01*
X491690Y352693D01*
X491355Y352359D01*
X491174Y351922D01*
Y351448D01*
X491355Y351011D01*
X491690Y350677D01*
X492127Y350496D01*
X492600D01*
X493037Y350677D01*
X493371Y351011D01*
X493552Y351448D01*
Y351922D01*
X493371Y352359D01*
X493037Y352693D01*
X492600Y352874D01*
D02*
G37*
G36*
X485501Y352870D02*
X485028D01*
X484591Y352689D01*
X484257Y352355D01*
X484076Y351918D01*
Y351445D01*
X484257Y351008D01*
X484591Y350674D01*
X485028Y350493D01*
X485501D01*
X485938Y350674D01*
X486273Y351008D01*
X486454Y351445D01*
Y351918D01*
X486273Y352355D01*
X485938Y352689D01*
X485501Y352870D01*
D02*
G37*
G36*
X525489Y351681D02*
X525055D01*
X524654Y351515D01*
X524347Y351209D01*
X524181Y350808D01*
Y350374D01*
X524347Y349973D01*
X524654Y349666D01*
X525055Y349500D01*
X525489D01*
X525889Y349666D01*
X526196Y349973D01*
X526362Y350374D01*
Y350808D01*
X526196Y351209D01*
X525889Y351515D01*
X525489Y351681D01*
D02*
G37*
G36*
X538979Y351301D02*
X538428D01*
X537919Y351090D01*
X537529Y350700D01*
X537318Y350191D01*
Y349640D01*
X537529Y349130D01*
X537919Y348740D01*
X538428Y348530D01*
X538979D01*
X539489Y348740D01*
X539878Y349130D01*
X540089Y349640D01*
Y350191D01*
X539878Y350700D01*
X539489Y351090D01*
X538979Y351301D01*
D02*
G37*
G36*
X471106Y351011D02*
X470555D01*
X470045Y350800D01*
X469656Y350410D01*
X469445Y349901D01*
Y349349D01*
X469656Y348840D01*
X470045Y348450D01*
X470555Y348239D01*
X471106D01*
X471615Y348450D01*
X472005Y348840D01*
X472216Y349349D01*
Y349901D01*
X472005Y350410D01*
X471615Y350800D01*
X471106Y351011D01*
D02*
G37*
G36*
X508349Y349921D02*
X507797D01*
X507288Y349710D01*
X506898Y349320D01*
X506687Y348811D01*
Y348259D01*
X506898Y347750D01*
X507288Y347360D01*
X507797Y347149D01*
X508349D01*
X508858Y347360D01*
X509248Y347750D01*
X509459Y348259D01*
Y348811D01*
X509248Y349320D01*
X508858Y349710D01*
X508349Y349921D01*
D02*
G37*
G36*
X485619Y349051D02*
X485146D01*
X484709Y348870D01*
X484374Y348535D01*
X484193Y348098D01*
Y347625D01*
X484374Y347188D01*
X484709Y346854D01*
X485146Y346673D01*
X485619D01*
X486056Y346854D01*
X486390Y347188D01*
X486571Y347625D01*
Y348098D01*
X486390Y348535D01*
X486056Y348870D01*
X485619Y349051D01*
D02*
G37*
G36*
X493860Y347862D02*
X493387D01*
X492950Y347681D01*
X492615Y347346D01*
X492434Y346909D01*
Y346437D01*
X492615Y346000D01*
X492950Y345665D01*
X493387Y345484D01*
X493860D01*
X494297Y345665D01*
X494631Y346000D01*
X494812Y346437D01*
Y346909D01*
X494631Y347346D01*
X494297Y347681D01*
X493860Y347862D01*
D02*
G37*
G36*
X530028Y353064D02*
X529638Y352986D01*
X529307Y352765D01*
X529086Y352435D01*
X529008Y352044D01*
X529081Y351681D01*
Y349870D01*
X529089Y349829D01*
Y348413D01*
X527774Y347099D01*
X527553Y346768D01*
X527476Y346378D01*
X527553Y345988D01*
X527774Y345657D01*
X528105Y345436D01*
X528495Y345358D01*
X528885Y345436D01*
X529216Y345657D01*
X530829Y347270D01*
X531050Y347601D01*
X531128Y347991D01*
Y349862D01*
X531120Y349903D01*
Y351972D01*
X531042Y352362D01*
X530821Y352693D01*
X530749Y352765D01*
X530418Y352986D01*
X530028Y353064D01*
D02*
G37*
G36*
X513986Y346189D02*
X513514D01*
X513076Y346008D01*
X512742Y345673D01*
X512561Y345236D01*
Y344763D01*
X512742Y344326D01*
X513076Y343992D01*
X513514Y343811D01*
X513986D01*
X514424Y343992D01*
X514758Y344326D01*
X514939Y344763D01*
Y345236D01*
X514758Y345673D01*
X514424Y346008D01*
X513986Y346189D01*
D02*
G37*
G36*
X461486D02*
X461014D01*
X460576Y346008D01*
X460242Y345673D01*
X460061Y345236D01*
Y344763D01*
X460242Y344326D01*
X460576Y343992D01*
X461014Y343811D01*
X461486D01*
X461924Y343992D01*
X462258Y344326D01*
X462439Y344763D01*
Y345236D01*
X462258Y345673D01*
X461924Y346008D01*
X461486Y346189D01*
D02*
G37*
G36*
X487334Y346114D02*
X486861D01*
X486424Y345933D01*
X486089Y345599D01*
X485908Y345162D01*
Y344689D01*
X486089Y344251D01*
X486424Y343917D01*
X486861Y343736D01*
X487334D01*
X487771Y343917D01*
X488105Y344251D01*
X488286Y344689D01*
Y345162D01*
X488105Y345599D01*
X487771Y345933D01*
X487334Y346114D01*
D02*
G37*
G36*
X456028Y346233D02*
X455476D01*
X454967Y346022D01*
X454577Y345632D01*
X454366Y345123D01*
Y344572D01*
X454577Y344062D01*
X454967Y343673D01*
X455476Y343462D01*
X456028D01*
X456537Y343673D01*
X456927Y344062D01*
X457138Y344572D01*
Y345123D01*
X456927Y345632D01*
X456537Y346022D01*
X456028Y346233D01*
D02*
G37*
G36*
X490061Y345116D02*
X489587D01*
X489150Y344935D01*
X488816Y344601D01*
X488635Y344164D01*
Y343691D01*
X488816Y343254D01*
X489150Y342919D01*
X489587Y342738D01*
X490061D01*
X490497Y342919D01*
X490832Y343254D01*
X491013Y343691D01*
Y344164D01*
X490832Y344601D01*
X490497Y344935D01*
X490061Y345116D01*
D02*
G37*
G36*
X541869Y342703D02*
X541318D01*
X540808Y342492D01*
X540418Y342102D01*
X540207Y341593D01*
Y341041D01*
X540418Y340532D01*
X540808Y340142D01*
X541318Y339931D01*
X541869D01*
X542378Y340142D01*
X542768Y340532D01*
X542979Y341041D01*
Y341593D01*
X542768Y342102D01*
X542378Y342492D01*
X541869Y342703D01*
D02*
G37*
G36*
X468228Y342232D02*
X467755D01*
X467318Y342051D01*
X466983Y341717D01*
X466802Y341280D01*
Y340807D01*
X466983Y340370D01*
X467318Y340035D01*
X467755Y339854D01*
X468228D01*
X468665Y340035D01*
X468999Y340370D01*
X469180Y340807D01*
Y341280D01*
X468999Y341717D01*
X468665Y342051D01*
X468228Y342232D01*
D02*
G37*
G36*
X465487Y342125D02*
X465014D01*
X464577Y341944D01*
X464242Y341610D01*
X464061Y341173D01*
Y340700D01*
X464242Y340263D01*
X464577Y339928D01*
X465014Y339747D01*
X465487D01*
X465924Y339928D01*
X466258Y340263D01*
X466439Y340700D01*
Y341173D01*
X466258Y341610D01*
X465924Y341944D01*
X465487Y342125D01*
D02*
G37*
G36*
X471310Y342054D02*
X470836D01*
X470400Y341873D01*
X470065Y341538D01*
X469884Y341101D01*
Y340628D01*
X470065Y340191D01*
X470400Y339857D01*
X470836Y339676D01*
X471310D01*
X471746Y339857D01*
X472081Y340191D01*
X472160Y340383D01*
X472485D01*
X472578Y340157D01*
X472913Y339823D01*
X473350Y339642D01*
X473823D01*
X474260Y339823D01*
X474594Y340157D01*
X474775Y340594D01*
Y341067D01*
X474594Y341504D01*
X474260Y341839D01*
X473823Y342020D01*
X473350D01*
X472913Y341839D01*
X472578Y341504D01*
X472499Y341313D01*
X472174D01*
X472081Y341538D01*
X471746Y341873D01*
X471310Y342054D01*
D02*
G37*
G36*
X462035Y341654D02*
X461561D01*
X461125Y341473D01*
X460790Y341138D01*
X460609Y340701D01*
Y340228D01*
X460790Y339791D01*
X461125Y339457D01*
X461561Y339276D01*
X462035D01*
X462471Y339457D01*
X462806Y339791D01*
X462987Y340228D01*
Y340701D01*
X462806Y341138D01*
X462471Y341473D01*
X462035Y341654D01*
D02*
G37*
G36*
X510717Y340599D02*
X510244D01*
X509807Y340418D01*
X509473Y340083D01*
X509292Y339646D01*
Y339173D01*
X509473Y338736D01*
X509807Y338402D01*
X510244Y338221D01*
X510717D01*
X511154Y338402D01*
X511489Y338736D01*
X511670Y339173D01*
Y339646D01*
X511489Y340083D01*
X511154Y340418D01*
X510717Y340599D01*
D02*
G37*
G36*
X534102Y344248D02*
X531645D01*
X531507Y344220D01*
X531448D01*
X531393Y344198D01*
X531255Y344170D01*
X531138Y344092D01*
X531083Y344069D01*
X531041Y344027D01*
X530924Y343949D01*
X530846Y343832D01*
X530804Y343790D01*
X530781Y343735D01*
X530703Y343618D01*
X530675Y343480D01*
X530653Y343425D01*
Y343366D01*
X530625Y343228D01*
X530653Y343090D01*
Y343031D01*
X530675Y342976D01*
X530703Y342838D01*
X530781Y342721D01*
X530804Y342666D01*
X530846Y342624D01*
X530924Y342507D01*
X531041Y342429D01*
X531083Y342387D01*
X531138Y342364D01*
X531255Y342286D01*
X531393Y342259D01*
X531448Y342236D01*
X531507D01*
X531645Y342209D01*
X533680D01*
X535287Y340601D01*
Y339935D01*
X535266Y339886D01*
X535262Y339715D01*
X535251Y339594D01*
X535245Y339561D01*
X535240Y339538D01*
X535238Y339532D01*
X535230Y339513D01*
X535230Y339493D01*
X535132Y339395D01*
X534921Y338886D01*
Y338334D01*
X535132Y337825D01*
X535522Y337435D01*
X536031Y337224D01*
X536583D01*
X537092Y337435D01*
X537482Y337825D01*
X537693Y338334D01*
Y338886D01*
X537482Y339395D01*
X537384Y339493D01*
X537384Y339513D01*
X537376Y339532D01*
X537374Y339538D01*
X537369Y339561D01*
X537364Y339589D01*
X537349Y339797D01*
X537348Y339879D01*
X537327Y339930D01*
Y341023D01*
X537249Y341413D01*
X537028Y341744D01*
X534823Y343949D01*
X534492Y344170D01*
X534102Y344248D01*
D02*
G37*
G36*
X554911Y339884D02*
X554314D01*
X553763Y339656D01*
X553341Y339234D01*
X553113Y338683D01*
Y338086D01*
X553341Y337535D01*
X553763Y337113D01*
X554314Y336884D01*
X554911D01*
X555462Y337113D01*
X555884Y337535D01*
X556112Y338086D01*
Y338683D01*
X555884Y339234D01*
X555462Y339656D01*
X554911Y339884D01*
D02*
G37*
G36*
X477131Y338981D02*
X476658D01*
X476221Y338800D01*
X475887Y338465D01*
X475706Y338028D01*
Y337555D01*
X475887Y337118D01*
X476221Y336784D01*
X476658Y336603D01*
X477131D01*
X477568Y336784D01*
X477903Y337118D01*
X478084Y337555D01*
Y338028D01*
X477903Y338465D01*
X477568Y338800D01*
X477131Y338981D01*
D02*
G37*
G36*
X457888Y341306D02*
X457415D01*
X456978Y341125D01*
X456644Y340791D01*
X456463Y340354D01*
Y339881D01*
X456644Y339444D01*
X456978Y339109D01*
X457002Y339099D01*
X457010Y339036D01*
X456972Y338787D01*
X456603Y338634D01*
X456268Y338300D01*
X456087Y337863D01*
Y337390D01*
X456268Y336953D01*
X456603Y336618D01*
X457040Y336437D01*
X457513D01*
X457950Y336618D01*
X458284Y336953D01*
X458465Y337390D01*
Y337863D01*
X458284Y338300D01*
X457950Y338634D01*
X457926Y338644D01*
X457918Y338707D01*
X457956Y338956D01*
X458325Y339109D01*
X458660Y339444D01*
X458841Y339881D01*
Y340354D01*
X458660Y340791D01*
X458325Y341125D01*
X457888Y341306D01*
D02*
G37*
G36*
X462161Y336237D02*
X461688D01*
X461251Y336056D01*
X460917Y335721D01*
X460832Y335517D01*
X460484Y335460D01*
X460272Y335673D01*
X459834Y335854D01*
X459362D01*
X458924Y335673D01*
X458590Y335338D01*
X458524Y335179D01*
X458170Y335109D01*
X458038Y335242D01*
X457600Y335423D01*
X457128D01*
X456691Y335242D01*
X456356Y334908D01*
X456175Y334471D01*
Y333998D01*
X456356Y333560D01*
X456691Y333226D01*
X457128Y333045D01*
X457600D01*
X458038Y333226D01*
X458372Y333560D01*
X458438Y333719D01*
X458792Y333790D01*
X458924Y333657D01*
X459362Y333476D01*
X459834D01*
X460272Y333657D01*
X460606Y333991D01*
X460691Y334196D01*
X461039Y334253D01*
X461251Y334040D01*
X461688Y333859D01*
X462161D01*
X462598Y334040D01*
X462933Y334374D01*
X463114Y334811D01*
Y335284D01*
X462933Y335721D01*
X462598Y336056D01*
X462161Y336237D01*
D02*
G37*
G36*
X489927Y333502D02*
X489330D01*
X488779Y333274D01*
X488357Y332852D01*
X488128Y332300D01*
Y331704D01*
X488357Y331152D01*
X488779Y330730D01*
X489330Y330502D01*
X489927D01*
X490478Y330730D01*
X490900Y331152D01*
X491128Y331704D01*
Y332300D01*
X490900Y332852D01*
X490478Y333274D01*
X489927Y333502D01*
D02*
G37*
G36*
X486365D02*
X485768D01*
X485217Y333274D01*
X484795Y332852D01*
X484566Y332300D01*
Y331704D01*
X484795Y331152D01*
X485217Y330730D01*
X485768Y330502D01*
X486365D01*
X486916Y330730D01*
X487338Y331152D01*
X487566Y331704D01*
Y332300D01*
X487338Y332852D01*
X486916Y333274D01*
X486365Y333502D01*
D02*
G37*
G36*
X514540Y332418D02*
X514067D01*
X513630Y332237D01*
X513296Y331903D01*
X513115Y331466D01*
Y330993D01*
X513296Y330556D01*
X513630Y330221D01*
X514067Y330040D01*
X514540D01*
X514977Y330221D01*
X515311Y330556D01*
X515492Y330993D01*
Y331466D01*
X515311Y331903D01*
X514977Y332237D01*
X514540Y332418D01*
D02*
G37*
G36*
X475075Y331449D02*
X474603D01*
X474165Y331268D01*
X473831Y330934D01*
X473650Y330497D01*
Y330235D01*
X473556Y330173D01*
X473083D01*
X472646Y329992D01*
X472334Y329679D01*
X472313Y329684D01*
X471978Y330018D01*
X471541Y330199D01*
X471068D01*
X470631Y330018D01*
X470297Y329684D01*
X470116Y329247D01*
Y328774D01*
X470297Y328337D01*
X470631Y328002D01*
X471068Y327821D01*
X471541D01*
X471978Y328002D01*
X472291Y328314D01*
X472312Y328310D01*
X472646Y327976D01*
X473083Y327795D01*
X473556D01*
X473993Y327976D01*
X474328Y328310D01*
X474509Y328747D01*
Y329008D01*
X474603Y329071D01*
X475075D01*
X475513Y329252D01*
X475847Y329587D01*
X476028Y330024D01*
Y330497D01*
X475847Y330934D01*
X475513Y331268D01*
X475075Y331449D01*
D02*
G37*
G36*
X457801Y332018D02*
X457328D01*
X456891Y331837D01*
X456556Y331503D01*
X456375Y331066D01*
Y330593D01*
X456556Y330156D01*
X456891Y329821D01*
X457328Y329640D01*
X457801D01*
X458238Y329821D01*
X458572Y330156D01*
X458753Y330593D01*
Y331066D01*
X458572Y331503D01*
X458238Y331837D01*
X457801Y332018D01*
D02*
G37*
G36*
X459991Y330253D02*
X459518D01*
X459081Y330072D01*
X458747Y329738D01*
X458566Y329301D01*
Y328828D01*
X458747Y328391D01*
X459081Y328056D01*
X459518Y327875D01*
X459991D01*
X460428Y328056D01*
X460763Y328391D01*
X460944Y328828D01*
Y329301D01*
X460763Y329738D01*
X460428Y330072D01*
X459991Y330253D01*
D02*
G37*
G36*
X468668Y330023D02*
X468194D01*
X467758Y329842D01*
X467423Y329507D01*
X467242Y329070D01*
Y328597D01*
X467423Y328160D01*
X467758Y327826D01*
X468194Y327645D01*
X468668D01*
X469104Y327826D01*
X469439Y328160D01*
X469620Y328597D01*
Y329070D01*
X469439Y329507D01*
X469104Y329842D01*
X468668Y330023D01*
D02*
G37*
G36*
X462806D02*
X462333D01*
X461896Y329842D01*
X461562Y329507D01*
X461381Y329070D01*
Y328597D01*
X461562Y328160D01*
X461896Y327826D01*
X462333Y327645D01*
X462806D01*
X463243Y327826D01*
X463578Y328160D01*
X463759Y328597D01*
Y329070D01*
X463578Y329507D01*
X463243Y329842D01*
X462806Y330023D01*
D02*
G37*
G36*
X465705Y329947D02*
X465232D01*
X464795Y329766D01*
X464461Y329432D01*
X464280Y328995D01*
Y328522D01*
X464461Y328085D01*
X464795Y327750D01*
X465232Y327569D01*
X465705D01*
X466142Y327750D01*
X466477Y328085D01*
X466658Y328522D01*
Y328995D01*
X466477Y329432D01*
X466142Y329766D01*
X465705Y329947D01*
D02*
G37*
G36*
X520520Y330881D02*
X519968D01*
X519459Y330670D01*
X519069Y330280D01*
X518858Y329771D01*
Y329220D01*
X519069Y328710D01*
X519459Y328321D01*
X519968Y328110D01*
X520520D01*
X520662Y328169D01*
X520787Y327868D01*
X521177Y327478D01*
X521686Y327267D01*
X522237D01*
X522747Y327478D01*
X523137Y327868D01*
X523348Y328378D01*
Y328929D01*
X523137Y329438D01*
X522747Y329828D01*
X522237Y330039D01*
X521686D01*
X521543Y329980D01*
X521419Y330280D01*
X521029Y330670D01*
X520520Y330881D01*
D02*
G37*
G36*
X514675Y329192D02*
X514202D01*
X513765Y329011D01*
X513431Y328677D01*
X513250Y328239D01*
Y327766D01*
X513431Y327329D01*
X513765Y326995D01*
X514202Y326814D01*
X514675D01*
X515112Y326995D01*
X515447Y327329D01*
X515628Y327766D01*
Y328239D01*
X515447Y328677D01*
X515112Y329011D01*
X514675Y329192D01*
D02*
G37*
G36*
X506567Y329395D02*
X505970D01*
X505419Y329167D01*
X504997Y328745D01*
X504768Y328193D01*
Y327597D01*
X504997Y327045D01*
X505419Y326623D01*
X505970Y326395D01*
X506567D01*
X507118Y326623D01*
X507540Y327045D01*
X507768Y327597D01*
Y328193D01*
X507540Y328745D01*
X507118Y329167D01*
X506567Y329395D01*
D02*
G37*
G36*
X502538D02*
X501942D01*
X501390Y329167D01*
X500968Y328745D01*
X500740Y328193D01*
Y327597D01*
X500968Y327045D01*
X501390Y326623D01*
X501942Y326395D01*
X502538D01*
X503090Y326623D01*
X503512Y327045D01*
X503740Y327597D01*
Y328193D01*
X503512Y328745D01*
X503090Y329167D01*
X502538Y329395D01*
D02*
G37*
G36*
X498510D02*
X497913D01*
X497362Y329167D01*
X496940Y328745D01*
X496711Y328193D01*
Y327597D01*
X496940Y327045D01*
X497362Y326623D01*
X497913Y326395D01*
X498510D01*
X499061Y326623D01*
X499483Y327045D01*
X499712Y327597D01*
Y328193D01*
X499483Y328745D01*
X499061Y329167D01*
X498510Y329395D01*
D02*
G37*
G36*
X494481D02*
X493885D01*
X493333Y329167D01*
X492911Y328745D01*
X492683Y328193D01*
Y327597D01*
X492911Y327045D01*
X493333Y326623D01*
X493885Y326395D01*
X494481D01*
X495033Y326623D01*
X495455Y327045D01*
X495683Y327597D01*
Y328193D01*
X495455Y328745D01*
X495033Y329167D01*
X494481Y329395D01*
D02*
G37*
G36*
X490453D02*
X489856D01*
X489305Y329167D01*
X488883Y328745D01*
X488655Y328193D01*
Y327597D01*
X488883Y327045D01*
X489305Y326623D01*
X489856Y326395D01*
X490453D01*
X491004Y326623D01*
X491426Y327045D01*
X491655Y327597D01*
Y328193D01*
X491426Y328745D01*
X491004Y329167D01*
X490453Y329395D01*
D02*
G37*
G36*
X486424D02*
X485828D01*
X485276Y329167D01*
X484855Y328745D01*
X484626Y328193D01*
Y327597D01*
X484855Y327045D01*
X485276Y326623D01*
X485828Y326395D01*
X486424D01*
X486976Y326623D01*
X487398Y327045D01*
X487626Y327597D01*
Y328193D01*
X487398Y328745D01*
X486976Y329167D01*
X486424Y329395D01*
D02*
G37*
G36*
X506713Y324924D02*
X506116D01*
X505565Y324696D01*
X505143Y324274D01*
X504915Y323722D01*
Y323126D01*
X505143Y322574D01*
X505565Y322152D01*
X506116Y321924D01*
X506713D01*
X507264Y322152D01*
X507686Y322574D01*
X507915Y323126D01*
Y323722D01*
X507686Y324274D01*
X507264Y324696D01*
X506713Y324924D01*
D02*
G37*
G36*
X502685D02*
X502088D01*
X501537Y324696D01*
X501115Y324274D01*
X500886Y323722D01*
Y323126D01*
X501115Y322574D01*
X501537Y322152D01*
X502088Y321924D01*
X502685D01*
X503236Y322152D01*
X503658Y322574D01*
X503886Y323126D01*
Y323722D01*
X503658Y324274D01*
X503236Y324696D01*
X502685Y324924D01*
D02*
G37*
G36*
X498656D02*
X498059D01*
X497508Y324696D01*
X497086Y324274D01*
X496858Y323722D01*
Y323126D01*
X497086Y322574D01*
X497508Y322152D01*
X498059Y321924D01*
X498656D01*
X499207Y322152D01*
X499629Y322574D01*
X499858Y323126D01*
Y323722D01*
X499629Y324274D01*
X499207Y324696D01*
X498656Y324924D01*
D02*
G37*
G36*
X494628D02*
X494031D01*
X493480Y324696D01*
X493058Y324274D01*
X492829Y323722D01*
Y323126D01*
X493058Y322574D01*
X493480Y322152D01*
X494031Y321924D01*
X494628D01*
X495179Y322152D01*
X495601Y322574D01*
X495829Y323126D01*
Y323722D01*
X495601Y324274D01*
X495179Y324696D01*
X494628Y324924D01*
D02*
G37*
G36*
X490599D02*
X490002D01*
X489451Y324696D01*
X489029Y324274D01*
X488801Y323722D01*
Y323126D01*
X489029Y322574D01*
X489451Y322152D01*
X490002Y321924D01*
X490599D01*
X491151Y322152D01*
X491572Y322574D01*
X491801Y323126D01*
Y323722D01*
X491572Y324274D01*
X491151Y324696D01*
X490599Y324924D01*
D02*
G37*
G36*
X486571D02*
X485974D01*
X485423Y324696D01*
X485001Y324274D01*
X484772Y323722D01*
Y323126D01*
X485001Y322574D01*
X485423Y322152D01*
X485974Y321924D01*
X486571D01*
X487122Y322152D01*
X487544Y322574D01*
X487772Y323126D01*
Y323722D01*
X487544Y324274D01*
X487122Y324696D01*
X486571Y324924D01*
D02*
G37*
G36*
X473583Y324224D02*
X473031D01*
X472522Y324013D01*
X472132Y323623D01*
X471921Y323114D01*
Y322563D01*
X472132Y322054D01*
X472522Y321664D01*
X473031Y321453D01*
X473583D01*
X474092Y321664D01*
X474482Y322054D01*
X474693Y322563D01*
Y323114D01*
X474482Y323623D01*
X474092Y324013D01*
X473583Y324224D01*
D02*
G37*
G36*
X515033Y324140D02*
X514482D01*
X513973Y323929D01*
X513583Y323539D01*
X513372Y323030D01*
Y322479D01*
X513583Y321969D01*
X513973Y321579D01*
X514482Y321368D01*
X515033D01*
X515543Y321579D01*
X515933Y321969D01*
X516144Y322479D01*
Y323030D01*
X515933Y323539D01*
X515543Y323929D01*
X515033Y324140D01*
D02*
G37*
G36*
X547737Y323689D02*
X547263D01*
X546827Y323508D01*
X546492Y323173D01*
X546311Y322737D01*
Y322264D01*
X546492Y321827D01*
X546827Y321492D01*
X547263Y321311D01*
X547737D01*
X548174Y321492D01*
X548508Y321827D01*
X548689Y322264D01*
Y322737D01*
X548508Y323173D01*
X548174Y323508D01*
X547737Y323689D01*
D02*
G37*
G36*
X538907Y321665D02*
X538356D01*
X537847Y321454D01*
X537457Y321064D01*
X537246Y320555D01*
Y320003D01*
X537457Y319494D01*
X537847Y319104D01*
X538356Y318893D01*
X538907D01*
X539417Y319104D01*
X539806Y319494D01*
X540017Y320003D01*
Y320555D01*
X539806Y321064D01*
X539417Y321454D01*
X538907Y321665D01*
D02*
G37*
G36*
X525313Y324028D02*
X524762D01*
X524253Y323818D01*
X523863Y323428D01*
X523652Y322918D01*
Y322367D01*
X523863Y321858D01*
X524253Y321468D01*
X524337Y321433D01*
X524396Y321139D01*
X524290Y321033D01*
X524079Y320524D01*
Y319972D01*
X524290Y319463D01*
X524680Y319073D01*
X525189Y318862D01*
X525740D01*
X526250Y319073D01*
X526640Y319463D01*
X526851Y319972D01*
Y320524D01*
X526640Y321033D01*
X526250Y321423D01*
X526165Y321458D01*
X526107Y321752D01*
X526213Y321858D01*
X526424Y322367D01*
Y322918D01*
X526213Y323428D01*
X525823Y323818D01*
X525313Y324028D01*
D02*
G37*
G36*
X559637Y322808D02*
X559164D01*
X558727Y322627D01*
X558393Y322293D01*
X558212Y321856D01*
Y321383D01*
X558393Y320946D01*
X558417Y320922D01*
X558313Y320601D01*
X557910Y320433D01*
X557520Y320044D01*
X557309Y319534D01*
Y318983D01*
X557520Y318474D01*
X557910Y318084D01*
X558419Y317873D01*
X558971D01*
X559480Y318084D01*
X559870Y318474D01*
X560081Y318983D01*
Y319534D01*
X559870Y320044D01*
X559758Y320156D01*
X559828Y320509D01*
X560074Y320611D01*
X560408Y320946D01*
X560590Y321383D01*
Y321856D01*
X560408Y322293D01*
X560074Y322627D01*
X559637Y322808D01*
D02*
G37*
G36*
X506579Y320631D02*
X505983D01*
X505432Y320403D01*
X505010Y319981D01*
X504781Y319429D01*
Y318833D01*
X505010Y318281D01*
X505432Y317859D01*
X505983Y317631D01*
X506579D01*
X507131Y317859D01*
X507553Y318281D01*
X507781Y318833D01*
Y319429D01*
X507553Y319981D01*
X507131Y320403D01*
X506579Y320631D01*
D02*
G37*
G36*
X502551D02*
X501954D01*
X501403Y320403D01*
X500981Y319981D01*
X500753Y319429D01*
Y318833D01*
X500981Y318281D01*
X501403Y317859D01*
X501954Y317631D01*
X502551D01*
X503102Y317859D01*
X503524Y318281D01*
X503753Y318833D01*
Y319429D01*
X503524Y319981D01*
X503102Y320403D01*
X502551Y320631D01*
D02*
G37*
G36*
X498523D02*
X497926D01*
X497375Y320403D01*
X496953Y319981D01*
X496724Y319429D01*
Y318833D01*
X496953Y318281D01*
X497375Y317859D01*
X497926Y317631D01*
X498523D01*
X499074Y317859D01*
X499496Y318281D01*
X499724Y318833D01*
Y319429D01*
X499496Y319981D01*
X499074Y320403D01*
X498523Y320631D01*
D02*
G37*
G36*
X494494D02*
X493897D01*
X493346Y320403D01*
X492924Y319981D01*
X492696Y319429D01*
Y318833D01*
X492924Y318281D01*
X493346Y317859D01*
X493897Y317631D01*
X494494D01*
X495046Y317859D01*
X495467Y318281D01*
X495696Y318833D01*
Y319429D01*
X495467Y319981D01*
X495046Y320403D01*
X494494Y320631D01*
D02*
G37*
G36*
X490466D02*
X489869D01*
X489318Y320403D01*
X488896Y319981D01*
X488667Y319429D01*
Y318833D01*
X488896Y318281D01*
X489318Y317859D01*
X489869Y317631D01*
X490466D01*
X491017Y317859D01*
X491439Y318281D01*
X491667Y318833D01*
Y319429D01*
X491439Y319981D01*
X491017Y320403D01*
X490466Y320631D01*
D02*
G37*
G36*
X486437D02*
X485841D01*
X485289Y320403D01*
X484867Y319981D01*
X484639Y319429D01*
Y318833D01*
X484867Y318281D01*
X485289Y317859D01*
X485841Y317631D01*
X486437D01*
X486988Y317859D01*
X487410Y318281D01*
X487639Y318833D01*
Y319429D01*
X487410Y319981D01*
X486988Y320403D01*
X486437Y320631D01*
D02*
G37*
G36*
X472815Y319299D02*
X472264D01*
X471754Y319088D01*
X471364Y318698D01*
X471153Y318189D01*
Y317638D01*
X471364Y317128D01*
X471754Y316739D01*
X472264Y316528D01*
X472815D01*
X473324Y316739D01*
X473714Y317128D01*
X473925Y317638D01*
Y318189D01*
X473714Y318698D01*
X473324Y319088D01*
X472815Y319299D01*
D02*
G37*
G36*
X519702Y316143D02*
X519229D01*
X518792Y315962D01*
X518534Y315704D01*
X518381Y315644D01*
X518159Y315690D01*
X517921Y315929D01*
X517484Y316109D01*
X517011D01*
X516574Y315929D01*
X516258Y315613D01*
X515932Y315939D01*
X515495Y316120D01*
X515022D01*
X514585Y315939D01*
X514250Y315605D01*
X514069Y315168D01*
Y314695D01*
X514093Y314638D01*
X513901Y314318D01*
X513568Y314180D01*
X513234Y313845D01*
X513053Y313408D01*
Y312935D01*
X513234Y312498D01*
X513568Y312164D01*
X514005Y311983D01*
X514478D01*
X514915Y312164D01*
X515250Y312498D01*
X515431Y312935D01*
Y313408D01*
X515407Y313465D01*
X515599Y313786D01*
X515932Y313924D01*
X516247Y314239D01*
X516574Y313913D01*
X517011Y313732D01*
X517484D01*
X517921Y313913D01*
X518179Y314171D01*
X518332Y314231D01*
X518554Y314184D01*
X518792Y313946D01*
X519229Y313765D01*
X519702D01*
X520139Y313946D01*
X520231Y314038D01*
X520638Y314034D01*
X520792Y313880D01*
X521229Y313699D01*
X521702D01*
X522139Y313880D01*
X522304Y314044D01*
X522573Y313775D01*
X523010Y313594D01*
X523483D01*
X523920Y313775D01*
X524109Y313963D01*
X524255Y314109D01*
X524501Y313963D01*
X524628Y313836D01*
X525065Y313655D01*
X525538D01*
X525975Y313836D01*
X526034Y313895D01*
X526124Y313805D01*
X526560Y313624D01*
X527034D01*
X527470Y313805D01*
X527580Y313915D01*
X527952Y313904D01*
X528171Y313685D01*
X528608Y313504D01*
X529081D01*
X529457Y313660D01*
X529795Y313629D01*
X529802Y313613D01*
X530136Y313279D01*
X530573Y313098D01*
X531046D01*
X531483Y313279D01*
X531817Y313613D01*
X531998Y314050D01*
Y314523D01*
X531817Y314960D01*
X531483Y315295D01*
X531046Y315476D01*
X530573D01*
X530196Y315320D01*
X529859Y315351D01*
X529852Y315367D01*
X529518Y315701D01*
X529081Y315882D01*
X528608D01*
X528171Y315701D01*
X528061Y315592D01*
X527689Y315602D01*
X527470Y315821D01*
X527034Y316002D01*
X526560D01*
X526124Y315821D01*
X526065Y315762D01*
X525975Y315852D01*
X525538Y316033D01*
X525065D01*
X524628Y315852D01*
X524440Y315664D01*
X524294Y315517D01*
X524048Y315664D01*
X523920Y315791D01*
X523483Y315972D01*
X523010D01*
X522573Y315791D01*
X522409Y315626D01*
X522139Y315896D01*
X521702Y316077D01*
X521229D01*
X520792Y315896D01*
X520701Y315804D01*
X520294Y315808D01*
X520139Y315962D01*
X519702Y316143D01*
D02*
G37*
G36*
X461486Y316189D02*
X461014D01*
X460576Y316008D01*
X460242Y315673D01*
X460061Y315236D01*
Y314763D01*
X460242Y314327D01*
X460576Y313992D01*
X461014Y313811D01*
X461486D01*
X461924Y313992D01*
X462258Y314327D01*
X462439Y314763D01*
Y315236D01*
X462258Y315673D01*
X461924Y316008D01*
X461486Y316189D01*
D02*
G37*
G36*
X506363Y315948D02*
X505766D01*
X505215Y315720D01*
X504793Y315298D01*
X504565Y314746D01*
Y314150D01*
X504793Y313598D01*
X505215Y313176D01*
X505766Y312948D01*
X506363D01*
X506915Y313176D01*
X507336Y313598D01*
X507565Y314150D01*
Y314746D01*
X507336Y315298D01*
X506915Y315720D01*
X506363Y315948D01*
D02*
G37*
G36*
X502335D02*
X501738D01*
X501187Y315720D01*
X500765Y315298D01*
X500536Y314746D01*
Y314150D01*
X500765Y313598D01*
X501187Y313176D01*
X501738Y312948D01*
X502335D01*
X502886Y313176D01*
X503308Y313598D01*
X503536Y314150D01*
Y314746D01*
X503308Y315298D01*
X502886Y315720D01*
X502335Y315948D01*
D02*
G37*
G36*
X498306D02*
X497710D01*
X497158Y315720D01*
X496736Y315298D01*
X496508Y314746D01*
Y314150D01*
X496736Y313598D01*
X497158Y313176D01*
X497710Y312948D01*
X498306D01*
X498858Y313176D01*
X499279Y313598D01*
X499508Y314150D01*
Y314746D01*
X499279Y315298D01*
X498858Y315720D01*
X498306Y315948D01*
D02*
G37*
G36*
X494278D02*
X493681D01*
X493130Y315720D01*
X492708Y315298D01*
X492479Y314746D01*
Y314150D01*
X492708Y313598D01*
X493130Y313176D01*
X493681Y312948D01*
X494278D01*
X494829Y313176D01*
X495251Y313598D01*
X495479Y314150D01*
Y314746D01*
X495251Y315298D01*
X494829Y315720D01*
X494278Y315948D01*
D02*
G37*
G36*
X490249D02*
X489653D01*
X489101Y315720D01*
X488679Y315298D01*
X488451Y314746D01*
Y314150D01*
X488679Y313598D01*
X489101Y313176D01*
X489653Y312948D01*
X490249D01*
X490801Y313176D01*
X491223Y313598D01*
X491451Y314150D01*
Y314746D01*
X491223Y315298D01*
X490801Y315720D01*
X490249Y315948D01*
D02*
G37*
G36*
X486221D02*
X485624D01*
X485073Y315720D01*
X484651Y315298D01*
X484422Y314746D01*
Y314150D01*
X484651Y313598D01*
X485073Y313176D01*
X485624Y312948D01*
X486221D01*
X486772Y313176D01*
X487194Y313598D01*
X487423Y314150D01*
Y314746D01*
X487194Y315298D01*
X486772Y315720D01*
X486221Y315948D01*
D02*
G37*
G36*
X559630Y315449D02*
X559078D01*
X558569Y315238D01*
X558179Y314848D01*
X557968Y314339D01*
Y313787D01*
X558179Y313278D01*
X558569Y312888D01*
X559078Y312677D01*
X559630D01*
X560139Y312888D01*
X560529Y313278D01*
X560740Y313787D01*
Y314339D01*
X560529Y314848D01*
X560139Y315238D01*
X559630Y315449D01*
D02*
G37*
G36*
X520640Y313559D02*
X520167D01*
X519730Y313378D01*
X519395Y313043D01*
X519214Y312606D01*
Y312133D01*
X519395Y311696D01*
X519730Y311362D01*
X520167Y311181D01*
X520640D01*
X521077Y311362D01*
X521411Y311696D01*
X521592Y312133D01*
Y312606D01*
X521411Y313043D01*
X521077Y313378D01*
X520640Y313559D01*
D02*
G37*
G36*
X524730Y311190D02*
X524257D01*
X523820Y311009D01*
X523486Y310674D01*
X523305Y310237D01*
Y309764D01*
X523486Y309327D01*
X523820Y308993D01*
X524257Y308812D01*
X524730D01*
X525167Y308993D01*
X525502Y309327D01*
X525683Y309764D01*
Y310237D01*
X525502Y310674D01*
X525167Y311009D01*
X524730Y311190D01*
D02*
G37*
G36*
X549403Y311046D02*
X548852D01*
X548343Y310835D01*
X547953Y310445D01*
X547742Y309936D01*
Y309384D01*
X547953Y308875D01*
X548343Y308485D01*
X548852Y308274D01*
X549403D01*
X549913Y308485D01*
X550303Y308875D01*
X550514Y309384D01*
Y309936D01*
X550303Y310445D01*
X549913Y310835D01*
X549403Y311046D01*
D02*
G37*
G36*
X470354Y312803D02*
X469803D01*
X469294Y312592D01*
X468904Y312202D01*
X468693Y311693D01*
Y311142D01*
X468904Y310632D01*
X469294Y310243D01*
X469462Y310173D01*
Y309848D01*
X469195Y309738D01*
X468806Y309348D01*
X468595Y308839D01*
Y308287D01*
X468806Y307778D01*
X469195Y307388D01*
X469705Y307177D01*
X470256D01*
X470765Y307388D01*
X471155Y307778D01*
X471366Y308287D01*
Y308839D01*
X471155Y309348D01*
X470765Y309738D01*
X470597Y309807D01*
Y310132D01*
X470864Y310243D01*
X471254Y310632D01*
X471465Y311142D01*
Y311693D01*
X471254Y312202D01*
X470864Y312592D01*
X470354Y312803D01*
D02*
G37*
G36*
X480236Y308689D02*
X479764D01*
X479326Y308508D01*
X478992Y308173D01*
X478811Y307736D01*
Y307263D01*
X478992Y306826D01*
X479326Y306492D01*
X479764Y306311D01*
X480236D01*
X480674Y306492D01*
X481008Y306826D01*
X481189Y307263D01*
Y307736D01*
X481008Y308173D01*
X480674Y308508D01*
X480236Y308689D01*
D02*
G37*
G36*
X465237D02*
X464763D01*
X464326Y308508D01*
X463992Y308173D01*
X463811Y307736D01*
Y307263D01*
X463992Y306826D01*
X464326Y306492D01*
X464763Y306311D01*
X465237D01*
X465673Y306492D01*
X466008Y306826D01*
X466189Y307263D01*
Y307736D01*
X466008Y308173D01*
X465673Y308508D01*
X465237Y308689D01*
D02*
G37*
G36*
X544157Y307475D02*
X543560D01*
X543009Y307247D01*
X542587Y306825D01*
X542359Y306274D01*
Y305677D01*
X542587Y305126D01*
X543009Y304704D01*
X543560Y304475D01*
X544157D01*
X544708Y304704D01*
X545130Y305126D01*
X545359Y305677D01*
Y306274D01*
X545130Y306825D01*
X544708Y307247D01*
X544157Y307475D01*
D02*
G37*
G36*
X504862Y306622D02*
X504311D01*
X503802Y306411D01*
X503412Y306021D01*
X503201Y305512D01*
Y304960D01*
X503412Y304451D01*
X503802Y304061D01*
X504311Y303850D01*
X504862D01*
X505372Y304061D01*
X505761Y304451D01*
X505972Y304960D01*
Y305512D01*
X505761Y306021D01*
X505372Y306411D01*
X504862Y306622D01*
D02*
G37*
G36*
X560094Y308757D02*
X559543D01*
X559034Y308546D01*
X558644Y308156D01*
X558433Y307647D01*
Y307096D01*
X558590Y306717D01*
X558607Y306506D01*
X558509Y306297D01*
X558225Y306013D01*
X558014Y305504D01*
Y304952D01*
X558225Y304443D01*
X558615Y304053D01*
X559125Y303842D01*
X559676D01*
X560185Y304053D01*
X560575Y304443D01*
X560786Y304952D01*
Y305504D01*
X560629Y305882D01*
X560612Y306093D01*
X560710Y306302D01*
X560994Y306586D01*
X561205Y307096D01*
Y307647D01*
X560994Y308156D01*
X560604Y308546D01*
X560094Y308757D01*
D02*
G37*
G36*
X529242Y305908D02*
X528691D01*
X528181Y305697D01*
X527791Y305307D01*
X527580Y304798D01*
Y304246D01*
X527791Y303737D01*
X528181Y303347D01*
X528691Y303136D01*
X529242D01*
X529751Y303347D01*
X530141Y303737D01*
X530352Y304246D01*
Y304798D01*
X530141Y305307D01*
X529751Y305697D01*
X529242Y305908D01*
D02*
G37*
G36*
X507399Y304674D02*
X506848D01*
X506338Y304463D01*
X505949Y304073D01*
X505738Y303564D01*
Y303012D01*
X505949Y302503D01*
X506048Y302403D01*
X505934Y302126D01*
X505694Y302126D01*
X505694Y302126D01*
X505660Y302126D01*
X505660Y302126D01*
X505599Y302100D01*
X505552Y302053D01*
X505527Y301992D01*
X505526Y301992D01*
X505527Y301959D01*
X505527Y300827D01*
X505574Y300711D01*
X505663Y300623D01*
X505778Y300575D01*
X506426Y300575D01*
X506617Y300575D01*
X506707Y300620D01*
X506955Y300581D01*
X507023Y300503D01*
X507045Y300456D01*
X507054Y297313D01*
X506754Y297253D01*
X506583Y297666D01*
X506193Y298056D01*
X505684Y298267D01*
X505133D01*
X504623Y298056D01*
X504234Y297666D01*
X504023Y297157D01*
Y296605D01*
X504234Y296096D01*
X504623Y295706D01*
X504730Y295662D01*
Y295337D01*
X504603Y295284D01*
X504213Y294894D01*
X504002Y294385D01*
Y293834D01*
X504213Y293324D01*
X504603Y292935D01*
X504710Y292890D01*
Y292566D01*
X504582Y292513D01*
X504192Y292123D01*
X503981Y291614D01*
Y291062D01*
X504192Y290553D01*
X504582Y290163D01*
X504814Y290067D01*
X504841Y289753D01*
X504451Y289363D01*
X504240Y288854D01*
Y288303D01*
X504451Y287793D01*
X504841Y287403D01*
X505350Y287193D01*
X505902D01*
X505931Y287205D01*
X506160Y286975D01*
X506080Y286781D01*
Y286230D01*
X506291Y285720D01*
X506681Y285331D01*
X507190Y285120D01*
X507742D01*
X508251Y285331D01*
X508558Y285638D01*
X508858Y285613D01*
X508903Y285591D01*
X509029Y285287D01*
X509419Y284897D01*
X509928Y284686D01*
X510479D01*
X510989Y284897D01*
X511378Y285287D01*
X511427Y285404D01*
X511752D01*
X511800Y285287D01*
X512190Y284897D01*
X512700Y284686D01*
X513251D01*
X513760Y284897D01*
X514150Y285287D01*
X514199Y285404D01*
X514523D01*
X514572Y285287D01*
X514962Y284897D01*
X515471Y284686D01*
X516022D01*
X516532Y284897D01*
X516922Y285287D01*
X516970Y285404D01*
X517295D01*
X517344Y285287D01*
X517733Y284897D01*
X518243Y284686D01*
X518794D01*
X519304Y284897D01*
X519693Y285287D01*
X519742Y285404D01*
X520067D01*
X520115Y285287D01*
X520505Y284897D01*
X521014Y284686D01*
X521566D01*
X522075Y284897D01*
X522465Y285287D01*
X522514Y285404D01*
X522838D01*
X522887Y285287D01*
X523277Y284897D01*
X523786Y284686D01*
X524337D01*
X524847Y284897D01*
X525237Y285287D01*
X525285Y285404D01*
X525610D01*
X525659Y285287D01*
X526049Y284897D01*
X526558Y284686D01*
X527109D01*
X527619Y284897D01*
X528008Y285287D01*
X528057Y285404D01*
X528382D01*
X528430Y285287D01*
X528820Y284897D01*
X529329Y284686D01*
X529881D01*
X530390Y284897D01*
X530780Y285287D01*
X530829Y285404D01*
X531153D01*
X531202Y285287D01*
X531592Y284897D01*
X531677Y284861D01*
X531618Y284561D01*
X530422Y284555D01*
X530419Y280145D01*
X531838Y280148D01*
X532050Y279935D01*
X531998Y266463D01*
X530351Y266457D01*
X530328Y261780D01*
X534901Y261773D01*
X534874Y266507D01*
X533149Y266541D01*
X533214Y280077D01*
X534758Y280069D01*
X534770Y284257D01*
X534847Y284308D01*
X535158D01*
X535370Y284095D01*
X535346Y279862D01*
X535346D01*
X535372Y279562D01*
X535241Y279430D01*
X535030Y278921D01*
Y278370D01*
X535241Y277860D01*
X535631Y277470D01*
X536140Y277259D01*
X536692D01*
X537201Y277470D01*
X537591Y277860D01*
X537640Y277978D01*
X537964D01*
X538013Y277860D01*
X538403Y277470D01*
X538912Y277259D01*
X539463D01*
X539973Y277470D01*
X540363Y277860D01*
X540574Y278370D01*
Y278744D01*
X540872Y278925D01*
X541232Y278776D01*
X541783D01*
X542293Y278987D01*
X542682Y279377D01*
X542731Y279495D01*
X543056D01*
X543104Y279377D01*
X543494Y278987D01*
X544003Y278776D01*
X544555D01*
X544869Y278906D01*
X544902Y278897D01*
X545146Y278697D01*
Y278272D01*
X545357Y277763D01*
X545747Y277373D01*
X545865Y277324D01*
Y277000D01*
X545747Y276951D01*
X545357Y276561D01*
X545146Y276052D01*
Y275500D01*
X545357Y274991D01*
X545747Y274601D01*
X545865Y274553D01*
Y274228D01*
X545747Y274179D01*
X545357Y273790D01*
X545146Y273280D01*
Y272729D01*
X545246Y272488D01*
X545046Y272188D01*
X544701D01*
X544191Y271977D01*
X543912Y271698D01*
X543623Y271687D01*
X543550Y271728D01*
X543202Y272076D01*
X542693Y272287D01*
X542142D01*
X541632Y272076D01*
X541243Y271686D01*
X541032Y271177D01*
Y270625D01*
X541243Y270116D01*
X541632Y269726D01*
X542142Y269515D01*
X542693D01*
X543202Y269726D01*
X543482Y270005D01*
X543770Y270016D01*
X543844Y269975D01*
X544191Y269628D01*
X544701Y269417D01*
X545252D01*
X545761Y269628D01*
X546151Y270017D01*
X546362Y270527D01*
Y271078D01*
X546263Y271319D01*
X546463Y271619D01*
X546808D01*
X547317Y271830D01*
X547707Y272219D01*
X547884Y272647D01*
X548184Y272587D01*
X548184Y268647D01*
X548184Y268647D01*
X548173Y268533D01*
X548085Y268322D01*
X547924Y268161D01*
X547713Y268074D01*
X547599Y268062D01*
X547499D01*
X547315Y267986D01*
X547173Y267845D01*
X547096Y267660D01*
Y266177D01*
X547147Y266055D01*
X547241Y265961D01*
X547364Y265910D01*
X548097D01*
X548120Y265908D01*
X548165Y265890D01*
X548199Y265856D01*
X548217Y265811D01*
X548219Y265788D01*
Y264296D01*
X548211Y264209D01*
X548144Y264049D01*
X548022Y263927D01*
X547861Y263860D01*
X547775Y263852D01*
X547401D01*
X547400Y263851D01*
X547355Y263851D01*
X547355Y263851D01*
X547271Y263817D01*
X547207Y263753D01*
X547172Y263669D01*
X547172Y263669D01*
X547172Y263627D01*
Y263153D01*
X547017Y263082D01*
X546872Y263061D01*
X546514Y263420D01*
X546480Y263434D01*
X546485Y263757D01*
X546840Y264112D01*
X547051Y264621D01*
Y265173D01*
X546840Y265682D01*
X546450Y266072D01*
X545941Y266283D01*
X545390D01*
X544880Y266072D01*
X544490Y265682D01*
X544280Y265173D01*
Y264621D01*
X544490Y264112D01*
X544880Y263722D01*
X544914Y263708D01*
X544909Y263386D01*
X544554Y263030D01*
X544343Y262521D01*
Y261970D01*
X544554Y261460D01*
X544944Y261070D01*
X545453Y260860D01*
X546004D01*
X546101Y260900D01*
X546331Y260670D01*
X546274Y260533D01*
Y259982D01*
X546485Y259473D01*
X546875Y259083D01*
X547384Y258872D01*
X547936D01*
X548445Y259083D01*
X548835Y259473D01*
X548907Y259646D01*
X549231D01*
X549254Y259590D01*
X549644Y259200D01*
X550153Y258989D01*
X550705D01*
X551214Y259200D01*
X551604Y259590D01*
X551815Y260099D01*
Y260651D01*
X551604Y261160D01*
X551480Y261284D01*
X551604Y261584D01*
X552510Y261584D01*
X552572Y261581D01*
X552693Y261557D01*
X552807Y261510D01*
X552910Y261441D01*
X552955Y261400D01*
X552955Y261400D01*
X552977Y261378D01*
X553029Y261343D01*
X553086Y261320D01*
X553147Y261308D01*
X555200Y261308D01*
Y259116D01*
X565380D01*
X565489Y259225D01*
Y282768D01*
X555200Y282790D01*
Y262071D01*
X553733D01*
X553693Y262072D01*
X553613Y262088D01*
X553539Y262119D01*
X553471Y262164D01*
X553441Y262191D01*
X553418Y262217D01*
X553381Y262273D01*
X553355Y262336D01*
X553341Y262403D01*
X553339Y262437D01*
Y263776D01*
X550430Y263749D01*
X550144Y263782D01*
X550074Y263852D01*
X549947Y263905D01*
X549756D01*
X549641Y263916D01*
X549428Y264004D01*
X549265Y264167D01*
X549177Y264380D01*
X549165Y264495D01*
Y265835D01*
X549167Y265855D01*
X549183Y265893D01*
X549211Y265921D01*
X549248Y265936D01*
X549269Y265938D01*
X550030D01*
X550097Y265839D01*
Y265287D01*
X550308Y264778D01*
X550697Y264388D01*
X551207Y264177D01*
X551758D01*
X552267Y264388D01*
X552657Y264778D01*
X552868Y265287D01*
Y265839D01*
X552657Y266348D01*
X552267Y266738D01*
X552202Y266765D01*
Y267090D01*
X552366Y267158D01*
X552756Y267548D01*
X552967Y268057D01*
Y268609D01*
X552756Y269118D01*
X552366Y269508D01*
X551917Y269694D01*
X551833Y269902D01*
X551818Y270019D01*
X552019Y270220D01*
X552230Y270729D01*
Y271281D01*
X552019Y271790D01*
X551629Y272180D01*
X551512Y272228D01*
Y272553D01*
X551629Y272602D01*
X552019Y272991D01*
X552230Y273501D01*
Y274052D01*
X552019Y274562D01*
X551629Y274951D01*
X551512Y275000D01*
Y275325D01*
X551629Y275373D01*
X552019Y275763D01*
X552230Y276273D01*
Y276824D01*
X552019Y277333D01*
X551629Y277723D01*
X551512Y277772D01*
Y278096D01*
X551629Y278145D01*
X552019Y278535D01*
X552230Y279044D01*
Y279595D01*
X552019Y280105D01*
X551629Y280495D01*
X551467Y280562D01*
Y280887D01*
X551535Y280915D01*
X551925Y281305D01*
X552136Y281814D01*
Y282365D01*
X551925Y282875D01*
X551535Y283265D01*
X551026Y283476D01*
X550637D01*
X550409Y283742D01*
X550406Y283753D01*
X550414Y283792D01*
X550720Y283933D01*
X551014Y283811D01*
X551486D01*
X551924Y283992D01*
X552258Y284327D01*
X552439Y284764D01*
Y285237D01*
X552258Y285673D01*
X551924Y286008D01*
X551486Y286189D01*
X551014D01*
X550576Y286008D01*
X550242Y285673D01*
X550125Y285390D01*
X549784Y285307D01*
X549726Y285364D01*
X549217Y285575D01*
X548666D01*
X548156Y285364D01*
X547791Y284999D01*
X547631Y284993D01*
X547459Y285017D01*
X547359Y285259D01*
X546969Y285649D01*
X546460Y285860D01*
X545909D01*
X545399Y285649D01*
X545009Y285259D01*
X544961Y285142D01*
X544636D01*
X544587Y285259D01*
X544198Y285649D01*
X543688Y285860D01*
X543137D01*
X542628Y285649D01*
X542441Y285462D01*
X542280Y285502D01*
X542126Y285572D01*
X541930Y286046D01*
X541540Y286436D01*
X541031Y286647D01*
X540617D01*
X540412Y286905D01*
X540407Y286924D01*
X540542Y287249D01*
Y287801D01*
X540331Y288310D01*
X539941Y288700D01*
X539432Y288911D01*
X538881D01*
X538371Y288700D01*
X537981Y288310D01*
X537770Y287801D01*
Y287599D01*
X537470Y287491D01*
X537383Y287596D01*
X536828Y288042D01*
X536198Y288372D01*
X535515Y288572D01*
X534806Y288635D01*
X534452Y288597D01*
X509530Y288597D01*
X509209Y288629D01*
X508615Y288875D01*
X508160Y289330D01*
X507914Y289924D01*
X507883Y290245D01*
X507882Y300591D01*
X507882Y300592D01*
X507882Y300592D01*
X507882Y300593D01*
X507882Y300791D01*
X507851Y300870D01*
X507735Y301160D01*
X507461Y301449D01*
X507100Y301616D01*
X507142Y301902D01*
X507399D01*
X507908Y302113D01*
X508298Y302503D01*
X508509Y303012D01*
Y303564D01*
X508298Y304073D01*
X507908Y304463D01*
X507399Y304674D01*
D02*
G37*
G36*
X494353Y304192D02*
X493801D01*
X493292Y303981D01*
X492902Y303591D01*
X492691Y303082D01*
Y302531D01*
X492902Y302021D01*
X493292Y301631D01*
X493801Y301420D01*
X494353D01*
X494862Y301631D01*
X495252Y302021D01*
X495463Y302531D01*
Y303082D01*
X495252Y303591D01*
X494862Y303981D01*
X494353Y304192D01*
D02*
G37*
G36*
X532642Y309804D02*
X532168D01*
X531732Y309623D01*
X531397Y309288D01*
X531216Y308851D01*
Y308378D01*
X531397Y307941D01*
X531732Y307607D01*
X531757Y307596D01*
X531815Y307302D01*
X531714Y307201D01*
X531533Y306764D01*
Y306291D01*
X531714Y305854D01*
X531869Y305618D01*
X531550Y305299D01*
X531369Y304862D01*
Y304389D01*
X531371Y304385D01*
X531213Y304016D01*
X530996Y303926D01*
X530661Y303592D01*
X530480Y303155D01*
Y302952D01*
X530190D01*
X529753Y302770D01*
X529419Y302436D01*
X529238Y301999D01*
Y301733D01*
X529090D01*
X528653Y301552D01*
X528319Y301217D01*
X528250Y301051D01*
X527896Y300980D01*
X527745Y301131D01*
X527308Y301312D01*
X526835D01*
X526398Y301131D01*
X526195Y300928D01*
X525976Y300842D01*
X525805Y300930D01*
X525582Y301153D01*
X525499Y301187D01*
Y301512D01*
X525770Y301624D01*
X526160Y302014D01*
X526371Y302523D01*
Y303075D01*
X526160Y303584D01*
X525770Y303974D01*
X525261Y304185D01*
X525115D01*
X525002Y304485D01*
X525312Y304795D01*
X525523Y305305D01*
Y305856D01*
X525312Y306365D01*
X524923Y306755D01*
X524413Y306966D01*
X523862D01*
X523353Y306755D01*
X522963Y306365D01*
X522752Y305856D01*
Y305305D01*
X522963Y304795D01*
X523353Y304405D01*
X523862Y304194D01*
X524008D01*
X524121Y303894D01*
X523811Y303584D01*
X523600Y303075D01*
Y302523D01*
X523811Y302014D01*
X524200Y301624D01*
X524394Y301544D01*
Y301219D01*
X524234Y301153D01*
X524090Y301009D01*
X523763Y301015D01*
X523428Y301350D01*
X522992Y301531D01*
X522518D01*
X522082Y301350D01*
X521892Y301160D01*
X521691Y301361D01*
X521254Y301542D01*
X520781D01*
X520344Y301361D01*
X520197Y301214D01*
X519979Y301055D01*
X519805Y301214D01*
X519636Y301383D01*
X519199Y301564D01*
X518726D01*
X518289Y301383D01*
X518142Y301236D01*
X517903Y301097D01*
X517750Y301236D01*
X517560Y301426D01*
X517123Y301607D01*
X516650D01*
X516421Y301837D01*
X516277Y302185D01*
X515942Y302519D01*
X515506Y302700D01*
X515271D01*
X515019Y302800D01*
X514993Y302977D01*
Y303282D01*
X514813Y303719D01*
X514478Y304054D01*
X514041Y304235D01*
X513837D01*
X513765Y304341D01*
Y304814D01*
X513584Y305251D01*
X513250Y305586D01*
X513248Y305587D01*
Y305887D01*
X513250Y305887D01*
X513584Y306222D01*
X513765Y306659D01*
Y307132D01*
X513584Y307569D01*
X513250Y307903D01*
X512813Y308084D01*
X512340D01*
X511903Y307903D01*
X511568Y307569D01*
X511387Y307132D01*
Y306659D01*
X511568Y306222D01*
X511903Y305887D01*
X511905Y305887D01*
Y305587D01*
X511903Y305586D01*
X511568Y305251D01*
X511387Y304814D01*
Y304341D01*
X511568Y303904D01*
X511903Y303570D01*
X512340Y303389D01*
X512544D01*
X512615Y303282D01*
Y302810D01*
X512797Y302373D01*
X513131Y302038D01*
X513568Y301857D01*
X513803D01*
X514055Y301758D01*
X514080Y301580D01*
Y301275D01*
X514261Y300838D01*
X514596Y300503D01*
X515032Y300322D01*
X515506D01*
X515734Y300092D01*
X515878Y299745D01*
X516213Y299410D01*
X516650Y299229D01*
X517123D01*
X517560Y299410D01*
X517707Y299557D01*
X517947Y299697D01*
X518099Y299557D01*
X518289Y299367D01*
X518726Y299186D01*
X519199D01*
X519636Y299367D01*
X519783Y299514D01*
X520001Y299673D01*
X520175Y299514D01*
X520344Y299345D01*
X520781Y299164D01*
X521254D01*
X521691Y299345D01*
X521881Y299535D01*
X522082Y299334D01*
X522518Y299153D01*
X522992D01*
X523428Y299334D01*
X523573Y299478D01*
X523900Y299472D01*
X524234Y299137D01*
X524672Y298956D01*
X525144D01*
X525582Y299137D01*
X525784Y299340D01*
X526004Y299426D01*
X526175Y299339D01*
X526398Y299115D01*
X526835Y298934D01*
X527308D01*
X527745Y299115D01*
X528080Y299450D01*
X528149Y299616D01*
X528503Y299687D01*
X528653Y299536D01*
X529090Y299355D01*
X529563D01*
X530000Y299536D01*
X530335Y299870D01*
X530516Y300307D01*
Y300574D01*
X530663D01*
X531100Y300755D01*
X531435Y301089D01*
X531616Y301526D01*
Y301729D01*
X531906D01*
X532343Y301910D01*
X532677Y302245D01*
X532858Y302682D01*
Y303155D01*
X532857Y303160D01*
X533014Y303528D01*
X533231Y303618D01*
X533566Y303952D01*
X533747Y304389D01*
Y304862D01*
X533566Y305299D01*
X533411Y305535D01*
X533730Y305854D01*
X533911Y306291D01*
Y306764D01*
X533730Y307201D01*
X533395Y307535D01*
X533370Y307546D01*
X533312Y307840D01*
X533413Y307941D01*
X533594Y308378D01*
Y308851D01*
X533413Y309288D01*
X533078Y309623D01*
X532642Y309804D01*
D02*
G37*
G36*
X543987Y301189D02*
X543513D01*
X543077Y301008D01*
X542742Y300674D01*
X542561Y300237D01*
Y299763D01*
X542742Y299326D01*
X543077Y298992D01*
X543513Y298811D01*
X543987D01*
X544423Y298992D01*
X544758Y299326D01*
X544939Y299763D01*
Y300237D01*
X544758Y300674D01*
X544423Y301008D01*
X543987Y301189D01*
D02*
G37*
G36*
X491487D02*
X491013D01*
X490577Y301008D01*
X490242Y300674D01*
X490061Y300237D01*
Y299763D01*
X490242Y299326D01*
X490577Y298992D01*
X491013Y298811D01*
X491487D01*
X491924Y298992D01*
X492258Y299326D01*
X492439Y299763D01*
Y300237D01*
X492258Y300674D01*
X491924Y301008D01*
X491487Y301189D01*
D02*
G37*
G36*
X559952Y303166D02*
X559401D01*
X558892Y302955D01*
X558502Y302565D01*
X558291Y302056D01*
Y301504D01*
X558502Y300995D01*
X558715Y300782D01*
X558808Y300509D01*
X558710Y300395D01*
X558422Y300107D01*
X558211Y299598D01*
Y299047D01*
X558422Y298537D01*
X558812Y298148D01*
X559321Y297937D01*
X559873D01*
X560382Y298148D01*
X560772Y298537D01*
X560983Y299047D01*
Y299598D01*
X560772Y300107D01*
X560559Y300321D01*
X560466Y300594D01*
X560564Y300707D01*
X560852Y300995D01*
X561063Y301504D01*
Y302056D01*
X560852Y302565D01*
X560462Y302955D01*
X559952Y303166D01*
D02*
G37*
G36*
X501838Y299602D02*
X501287D01*
X500778Y299391D01*
X500388Y299001D01*
X500177Y298492D01*
Y297941D01*
X500388Y297431D01*
X500661Y297158D01*
X500376Y296873D01*
X500166Y296364D01*
Y295813D01*
X500376Y295303D01*
X500766Y294914D01*
X501276Y294703D01*
X501827D01*
X502336Y294914D01*
X502726Y295303D01*
X502937Y295813D01*
Y296364D01*
X502726Y296873D01*
X502453Y297147D01*
X502738Y297431D01*
X502949Y297941D01*
Y298492D01*
X502738Y299001D01*
X502348Y299391D01*
X501838Y299602D01*
D02*
G37*
G36*
X510170Y295865D02*
X509619D01*
X509110Y295654D01*
X508720Y295265D01*
X508509Y294755D01*
Y294204D01*
X508720Y293695D01*
X509110Y293305D01*
X509619Y293094D01*
X510170D01*
X510680Y293305D01*
X511069Y293695D01*
X511280Y294204D01*
Y294755D01*
X511069Y295265D01*
X510680Y295654D01*
X510170Y295865D01*
D02*
G37*
G36*
X486149Y294625D02*
X485598D01*
X485088Y294414D01*
X484698Y294024D01*
X484487Y293515D01*
Y292964D01*
X484698Y292455D01*
X485088Y292065D01*
X485598Y291854D01*
X486149D01*
X486658Y292065D01*
X487048Y292455D01*
X487259Y292964D01*
Y293515D01*
X487048Y294024D01*
X486658Y294414D01*
X486149Y294625D01*
D02*
G37*
G36*
X481818D02*
X481267D01*
X480757Y294414D01*
X480368Y294024D01*
X480157Y293515D01*
Y292964D01*
X480368Y292455D01*
X480757Y292065D01*
X481267Y291854D01*
X481818D01*
X482327Y292065D01*
X482717Y292455D01*
X482928Y292964D01*
Y293515D01*
X482717Y294024D01*
X482327Y294414D01*
X481818Y294625D01*
D02*
G37*
G36*
X477487D02*
X476936D01*
X476427Y294414D01*
X476037Y294024D01*
X475826Y293515D01*
Y292964D01*
X476037Y292455D01*
X476427Y292065D01*
X476936Y291854D01*
X477487D01*
X477997Y292065D01*
X478386Y292455D01*
X478597Y292964D01*
Y293515D01*
X478386Y294024D01*
X477997Y294414D01*
X477487Y294625D01*
D02*
G37*
G36*
X517999Y293044D02*
X517448D01*
X516938Y292833D01*
X516549Y292444D01*
X516338Y291934D01*
Y291641D01*
X516038Y291516D01*
X515996Y291559D01*
X515486Y291770D01*
X514935D01*
X514426Y291559D01*
X514036Y291169D01*
X513987Y291051D01*
X513662D01*
X513614Y291169D01*
X513224Y291559D01*
X512715Y291770D01*
X512163D01*
X511654Y291559D01*
X511264Y291169D01*
X511257Y291152D01*
X510932D01*
X510849Y291355D01*
X510459Y291744D01*
X509949Y291955D01*
X509398D01*
X508889Y291744D01*
X508499Y291355D01*
X508288Y290845D01*
Y290294D01*
X508499Y289785D01*
X508889Y289395D01*
X509398Y289184D01*
X509949D01*
X510459Y289395D01*
X510849Y289785D01*
X510855Y289802D01*
X511180D01*
X511264Y289599D01*
X511654Y289209D01*
X512163Y288998D01*
X512715D01*
X513224Y289209D01*
X513614Y289599D01*
X513662Y289716D01*
X513987D01*
X514036Y289599D01*
X514426Y289209D01*
X514935Y288998D01*
X515486D01*
X515996Y289209D01*
X516386Y289599D01*
X516597Y290108D01*
Y290402D01*
X516896Y290526D01*
X516938Y290484D01*
X517448Y290273D01*
X517999D01*
X518508Y290484D01*
X518898Y290874D01*
X519109Y291383D01*
Y291934D01*
X518898Y292444D01*
X518508Y292833D01*
X517999Y293044D01*
D02*
G37*
G36*
X562737Y293689D02*
X562263D01*
X561827Y293508D01*
X561492Y293174D01*
X561311Y292737D01*
Y292264D01*
X561492Y291827D01*
X561827Y291492D01*
X562263Y291311D01*
X562737D01*
X563173Y291492D01*
X563508Y291827D01*
X563689Y292264D01*
Y292737D01*
X563508Y293174D01*
X563173Y293508D01*
X562737Y293689D01*
D02*
G37*
G36*
X555236D02*
X554764D01*
X554326Y293508D01*
X553992Y293174D01*
X553811Y292737D01*
Y292264D01*
X553992Y291827D01*
X554326Y291492D01*
X554764Y291311D01*
X555236D01*
X555674Y291492D01*
X556008Y291827D01*
X556189Y292264D01*
Y292737D01*
X556008Y293174D01*
X555674Y293508D01*
X555236Y293689D01*
D02*
G37*
G36*
X548224Y298914D02*
X547673D01*
X547163Y298703D01*
X546773Y298314D01*
X546562Y297804D01*
Y297253D01*
X546773Y296744D01*
X546974Y296544D01*
X547157Y296347D01*
X546974Y296151D01*
X546773Y295951D01*
X546562Y295442D01*
Y294891D01*
X546773Y294381D01*
X547163Y293991D01*
X547216Y293969D01*
X547221Y293940D01*
X547187Y293657D01*
X546827Y293508D01*
X546492Y293174D01*
X546311Y292737D01*
Y292264D01*
X546492Y291827D01*
X546827Y291492D01*
X547263Y291311D01*
X547737D01*
X548174Y291492D01*
X548508Y291827D01*
X548689Y292264D01*
Y292737D01*
X548508Y293174D01*
X548201Y293480D01*
X548213Y293637D01*
X548262Y293796D01*
X548733Y293991D01*
X549123Y294381D01*
X549334Y294891D01*
Y295442D01*
X549123Y295951D01*
X548923Y296151D01*
X548739Y296347D01*
X548923Y296544D01*
X549123Y296744D01*
X549334Y297253D01*
Y297804D01*
X549123Y298314D01*
X548733Y298703D01*
X548224Y298914D01*
D02*
G37*
G36*
X502737Y293689D02*
X502263D01*
X501826Y293508D01*
X501492Y293174D01*
X501311Y292737D01*
Y292264D01*
X501492Y291827D01*
X501826Y291492D01*
X502263Y291311D01*
X502737D01*
X503173Y291492D01*
X503508Y291827D01*
X503689Y292264D01*
Y292737D01*
X503508Y293174D01*
X503173Y293508D01*
X502737Y293689D01*
D02*
G37*
G36*
X465237D02*
X464763D01*
X464326Y293508D01*
X463992Y293174D01*
X463811Y292737D01*
Y292264D01*
X463992Y291827D01*
X464326Y291492D01*
X464763Y291311D01*
X465237D01*
X465673Y291492D01*
X466008Y291827D01*
X466189Y292264D01*
Y292737D01*
X466008Y293174D01*
X465673Y293508D01*
X465237Y293689D01*
D02*
G37*
G36*
X457736D02*
X457264D01*
X456826Y293508D01*
X456492Y293174D01*
X456311Y292737D01*
Y292264D01*
X456492Y291827D01*
X456826Y291492D01*
X457264Y291311D01*
X457736D01*
X458174Y291492D01*
X458508Y291827D01*
X458689Y292264D01*
Y292737D01*
X458508Y293174D01*
X458174Y293508D01*
X457736Y293689D01*
D02*
G37*
G36*
X532736D02*
X532264D01*
X531826Y293508D01*
X531492Y293174D01*
X531311Y292737D01*
Y292264D01*
X531492Y291827D01*
X531473Y291732D01*
X531056Y291559D01*
X530666Y291169D01*
X530617Y291051D01*
X530292D01*
X530244Y291169D01*
X529854Y291559D01*
X529345Y291770D01*
X528793D01*
X528284Y291559D01*
X527894Y291169D01*
X527845Y291051D01*
X527521D01*
X527472Y291169D01*
X527082Y291559D01*
X526573Y291770D01*
X526309D01*
X526109Y292070D01*
X526189Y292264D01*
Y292737D01*
X526008Y293174D01*
X525673Y293508D01*
X525237Y293689D01*
X524763D01*
X524327Y293508D01*
X523992Y293174D01*
X523811Y292737D01*
Y292264D01*
X523901Y292047D01*
X523880Y291990D01*
X523691Y291770D01*
X523250D01*
X522741Y291559D01*
X522351Y291169D01*
X522302Y291051D01*
X521978D01*
X521929Y291169D01*
X521539Y291559D01*
X521030Y291770D01*
X520478D01*
X519969Y291559D01*
X519579Y291169D01*
X519368Y290659D01*
Y290108D01*
X519579Y289599D01*
X519969Y289209D01*
X520478Y288998D01*
X521030D01*
X521539Y289209D01*
X521929Y289599D01*
X521978Y289716D01*
X522302D01*
X522351Y289599D01*
X522741Y289209D01*
X523250Y288998D01*
X523801D01*
X524311Y289209D01*
X524700Y289599D01*
X524749Y289716D01*
X525074D01*
X525122Y289599D01*
X525512Y289209D01*
X526022Y288998D01*
X526573D01*
X527082Y289209D01*
X527472Y289599D01*
X527521Y289716D01*
X527845D01*
X527894Y289599D01*
X528284Y289209D01*
X528793Y288998D01*
X529345D01*
X529854Y289209D01*
X530244Y289599D01*
X530292Y289716D01*
X530617D01*
X530666Y289599D01*
X531056Y289209D01*
X531565Y288998D01*
X532116D01*
X532626Y289209D01*
X533015Y289599D01*
X533226Y290108D01*
Y290659D01*
X533039Y291112D01*
X533057Y291380D01*
X533071Y291450D01*
X533174Y291492D01*
X533508Y291827D01*
X533689Y292264D01*
Y292737D01*
X533508Y293174D01*
X533174Y293508D01*
X532736Y293689D01*
D02*
G37*
G36*
X536288Y294669D02*
X535737D01*
X535228Y294458D01*
X534838Y294069D01*
X534627Y293559D01*
Y293008D01*
X534838Y292499D01*
X535053Y292284D01*
X535195Y292069D01*
X535053Y291892D01*
X534819Y291658D01*
X534608Y291149D01*
Y290598D01*
X534819Y290088D01*
X535209Y289699D01*
X535718Y289488D01*
X536270D01*
X536779Y289699D01*
X537169Y290088D01*
X537380Y290598D01*
Y291149D01*
X537169Y291658D01*
X536954Y291873D01*
X536811Y292088D01*
X536954Y292265D01*
X537188Y292499D01*
X537399Y293008D01*
Y293559D01*
X537188Y294069D01*
X536798Y294458D01*
X536288Y294669D01*
D02*
G37*
G36*
X558987Y286189D02*
X558513D01*
X558076Y286008D01*
X557742Y285673D01*
X557561Y285237D01*
Y284764D01*
X557742Y284327D01*
X558076Y283992D01*
X558513Y283811D01*
X558987D01*
X559423Y283992D01*
X559758Y284327D01*
X559939Y284764D01*
Y285237D01*
X559758Y285673D01*
X559423Y286008D01*
X558987Y286189D01*
D02*
G37*
G36*
X498986D02*
X498514D01*
X498076Y286008D01*
X497742Y285673D01*
X497561Y285237D01*
Y284764D01*
X497742Y284327D01*
X498076Y283992D01*
X498514Y283811D01*
X498986D01*
X499424Y283992D01*
X499758Y284327D01*
X499939Y284764D01*
Y285237D01*
X499758Y285673D01*
X499424Y286008D01*
X498986Y286189D01*
D02*
G37*
G36*
X491487D02*
X491013D01*
X490577Y286008D01*
X490242Y285673D01*
X490061Y285237D01*
Y284764D01*
X490242Y284327D01*
X490577Y283992D01*
X491013Y283811D01*
X491487D01*
X491924Y283992D01*
X492258Y284327D01*
X492439Y284764D01*
Y285237D01*
X492258Y285673D01*
X491924Y286008D01*
X491487Y286189D01*
D02*
G37*
G36*
X495089Y286330D02*
X494538D01*
X494029Y286119D01*
X493639Y285729D01*
X493428Y285220D01*
Y284668D01*
X493639Y284159D01*
X494029Y283769D01*
X494538Y283558D01*
X495089D01*
X495599Y283769D01*
X495989Y284159D01*
X496200Y284668D01*
Y285220D01*
X495989Y285729D01*
X495599Y286119D01*
X495089Y286330D01*
D02*
G37*
G36*
X515385Y280625D02*
X514833D01*
X514324Y280414D01*
X513934Y280024D01*
X513723Y279515D01*
Y278963D01*
X513934Y278454D01*
X514324Y278064D01*
X514833Y277853D01*
X515385D01*
X515894Y278064D01*
X516284Y278454D01*
X516495Y278963D01*
Y279515D01*
X516284Y280024D01*
X515894Y280414D01*
X515385Y280625D01*
D02*
G37*
G36*
X525237Y278689D02*
X524763D01*
X524327Y278508D01*
X523992Y278173D01*
X523811Y277736D01*
Y277263D01*
X523992Y276827D01*
X524327Y276492D01*
X524763Y276311D01*
X525237D01*
X525673Y276492D01*
X526008Y276827D01*
X526189Y277263D01*
Y277736D01*
X526008Y278173D01*
X525673Y278508D01*
X525237Y278689D01*
D02*
G37*
G36*
X517736D02*
X517264D01*
X516826Y278508D01*
X516492Y278173D01*
X516311Y277736D01*
Y277263D01*
X516492Y276827D01*
X516826Y276492D01*
X517264Y276311D01*
X517736D01*
X518174Y276492D01*
X518508Y276827D01*
X518689Y277263D01*
Y277736D01*
X518508Y278173D01*
X518174Y278508D01*
X517736Y278689D01*
D02*
G37*
G36*
X480236D02*
X479764D01*
X479326Y278508D01*
X478992Y278173D01*
X478811Y277736D01*
Y277263D01*
X478992Y276827D01*
X479326Y276492D01*
X479764Y276311D01*
X480236D01*
X480674Y276492D01*
X481008Y276827D01*
X481189Y277263D01*
Y277736D01*
X481008Y278173D01*
X480674Y278508D01*
X480236Y278689D01*
D02*
G37*
G36*
X472737D02*
X472263D01*
X471827Y278508D01*
X471492Y278173D01*
X471311Y277736D01*
Y277263D01*
X471492Y276827D01*
X471827Y276492D01*
X472263Y276311D01*
X472737D01*
X473174Y276492D01*
X473508Y276827D01*
X473689Y277263D01*
Y277736D01*
X473508Y278173D01*
X473174Y278508D01*
X472737Y278689D01*
D02*
G37*
G36*
X520739Y272672D02*
X520188D01*
X519678Y272461D01*
X519288Y272071D01*
X519077Y271562D01*
Y271011D01*
X519288Y270501D01*
X519678Y270111D01*
X520188Y269900D01*
X520739D01*
X521143Y270068D01*
X521403Y269956D01*
X521459Y269899D01*
X521654Y269429D01*
X522043Y269039D01*
X522553Y268828D01*
X523104D01*
X523613Y269039D01*
X524003Y269429D01*
X524214Y269938D01*
Y270490D01*
X524003Y270999D01*
X523613Y271389D01*
X523104Y271600D01*
X522553D01*
X522149Y271433D01*
X521889Y271545D01*
X521833Y271602D01*
X521638Y272071D01*
X521248Y272461D01*
X520739Y272672D01*
D02*
G37*
G36*
X513986Y271189D02*
X513514D01*
X513076Y271008D01*
X512742Y270673D01*
X512561Y270236D01*
Y269763D01*
X512742Y269326D01*
X513076Y268992D01*
X513514Y268811D01*
X513986D01*
X514424Y268992D01*
X514758Y269326D01*
X514939Y269763D01*
Y270236D01*
X514758Y270673D01*
X514424Y271008D01*
X513986Y271189D01*
D02*
G37*
G36*
X498986D02*
X498514D01*
X498076Y271008D01*
X497742Y270673D01*
X497561Y270236D01*
Y269763D01*
X497742Y269326D01*
X498076Y268992D01*
X498514Y268811D01*
X498986D01*
X499424Y268992D01*
X499758Y269326D01*
X499939Y269763D01*
Y270236D01*
X499758Y270673D01*
X499424Y271008D01*
X498986Y271189D01*
D02*
G37*
G36*
X476544Y271430D02*
X475993D01*
X475483Y271219D01*
X475094Y270830D01*
X474883Y270320D01*
Y269769D01*
X475094Y269260D01*
X475483Y268870D01*
X475993Y268659D01*
X476544D01*
X477053Y268870D01*
X477443Y269260D01*
X477654Y269769D01*
Y270320D01*
X477443Y270830D01*
X477053Y271219D01*
X476544Y271430D01*
D02*
G37*
G36*
X502882Y273376D02*
X502331D01*
X501822Y273165D01*
X501432Y272776D01*
X501221Y272266D01*
Y271715D01*
X501432Y271206D01*
X501822Y270816D01*
X501756Y270518D01*
X501556Y270317D01*
X501345Y269808D01*
Y269257D01*
X501556Y268747D01*
X501945Y268358D01*
X502455Y268147D01*
X503006D01*
X503515Y268358D01*
X503905Y268747D01*
X504116Y269257D01*
Y269808D01*
X503905Y270317D01*
X503515Y270707D01*
X503581Y271005D01*
X503782Y271206D01*
X503993Y271715D01*
Y272266D01*
X503782Y272776D01*
X503392Y273165D01*
X502882Y273376D01*
D02*
G37*
G36*
X527105Y274364D02*
X526554D01*
X526044Y274153D01*
X525655Y273763D01*
X525444Y273254D01*
Y272702D01*
X525655Y272193D01*
X526044Y271803D01*
X526171Y271751D01*
Y271426D01*
X526081Y271389D01*
X525691Y270999D01*
X525480Y270490D01*
Y269938D01*
X525691Y269429D01*
X526081Y269039D01*
X526208Y268987D01*
Y268662D01*
X526170Y268646D01*
X525780Y268256D01*
X525569Y267747D01*
Y267196D01*
X525780Y266686D01*
X526170Y266297D01*
X526680Y266086D01*
X527231D01*
X527740Y266297D01*
X528130Y266686D01*
X528341Y267196D01*
Y267747D01*
X528130Y268256D01*
X527740Y268646D01*
X527613Y268699D01*
Y269024D01*
X527651Y269039D01*
X528041Y269429D01*
X528252Y269938D01*
Y270490D01*
X528041Y270999D01*
X527651Y271389D01*
X527525Y271441D01*
Y271766D01*
X527614Y271803D01*
X528004Y272193D01*
X528215Y272702D01*
Y273254D01*
X528004Y273763D01*
X527614Y274153D01*
X527105Y274364D01*
D02*
G37*
G36*
X538669Y274144D02*
X538118D01*
X537608Y273933D01*
X537218Y273543D01*
X537007Y273033D01*
Y272482D01*
X537218Y271973D01*
X537553Y271638D01*
X537605Y271548D01*
X537577Y271271D01*
X537305Y270999D01*
X537094Y270490D01*
Y269938D01*
X537305Y269429D01*
X537695Y269039D01*
X538063Y268887D01*
Y268562D01*
X537734Y268426D01*
X537344Y268036D01*
X537133Y267527D01*
Y266975D01*
X537344Y266466D01*
X537734Y266076D01*
X538243Y265865D01*
X538795D01*
X539304Y266076D01*
X539694Y266466D01*
X539905Y266975D01*
Y267527D01*
X539694Y268036D01*
X539304Y268426D01*
X538936Y268578D01*
Y268903D01*
X539265Y269039D01*
X539655Y269429D01*
X539866Y269938D01*
Y270490D01*
X539655Y270999D01*
X539321Y271334D01*
X539269Y271424D01*
X539296Y271701D01*
X539568Y271973D01*
X539779Y272482D01*
Y273033D01*
X539568Y273543D01*
X539178Y273933D01*
X538669Y274144D01*
D02*
G37*
G36*
X493567Y266338D02*
X493016D01*
X492507Y266127D01*
X492117Y265737D01*
X491906Y265228D01*
Y264677D01*
X492117Y264167D01*
X492507Y263778D01*
X493016Y263567D01*
X493567D01*
X494077Y263778D01*
X494466Y264167D01*
X494677Y264677D01*
Y265228D01*
X494466Y265737D01*
X494077Y266127D01*
X493567Y266338D01*
D02*
G37*
G36*
X484522Y266312D02*
X483971D01*
X483462Y266101D01*
X483072Y265711D01*
X482861Y265202D01*
Y264651D01*
X483072Y264141D01*
X483462Y263752D01*
X483971Y263541D01*
X484522D01*
X485032Y263752D01*
X485422Y264141D01*
X485633Y264651D01*
Y265202D01*
X485422Y265711D01*
X485032Y266101D01*
X484522Y266312D01*
D02*
G37*
G36*
X540237Y263689D02*
X539763D01*
X539326Y263508D01*
X538992Y263174D01*
X538811Y262737D01*
Y262263D01*
X538992Y261826D01*
X539326Y261492D01*
X539763Y261311D01*
X540237D01*
X540673Y261492D01*
X541008Y261826D01*
X541189Y262263D01*
Y262737D01*
X541008Y263174D01*
X540673Y263508D01*
X540237Y263689D01*
D02*
G37*
G36*
X525237D02*
X524763D01*
X524327Y263508D01*
X523992Y263174D01*
X523811Y262737D01*
Y262263D01*
X523992Y261826D01*
X524327Y261492D01*
X524763Y261311D01*
X525237D01*
X525673Y261492D01*
X526008Y261826D01*
X526189Y262263D01*
Y262737D01*
X526008Y263174D01*
X525673Y263508D01*
X525237Y263689D01*
D02*
G37*
G36*
X517736D02*
X517264D01*
X516826Y263508D01*
X516492Y263174D01*
X516311Y262737D01*
Y262263D01*
X516492Y261826D01*
X516826Y261492D01*
X517264Y261311D01*
X517736D01*
X518174Y261492D01*
X518508Y261826D01*
X518689Y262263D01*
Y262737D01*
X518508Y263174D01*
X518174Y263508D01*
X517736Y263689D01*
D02*
G37*
G36*
X510237D02*
X509763D01*
X509327Y263508D01*
X508992Y263174D01*
X508811Y262737D01*
Y262263D01*
X508992Y261826D01*
X509327Y261492D01*
X509763Y261311D01*
X510237D01*
X510674Y261492D01*
X511008Y261826D01*
X511189Y262263D01*
Y262737D01*
X511008Y263174D01*
X510674Y263508D01*
X510237Y263689D01*
D02*
G37*
G36*
X487737D02*
X487263D01*
X486827Y263508D01*
X486492Y263174D01*
X486311Y262737D01*
Y262263D01*
X486492Y261826D01*
X486827Y261492D01*
X487263Y261311D01*
X487737D01*
X488173Y261492D01*
X488508Y261826D01*
X488689Y262263D01*
Y262737D01*
X488508Y263174D01*
X488173Y263508D01*
X487737Y263689D01*
D02*
G37*
G36*
X457736D02*
X457264D01*
X456826Y263508D01*
X456492Y263174D01*
X456311Y262737D01*
Y262263D01*
X456492Y261826D01*
X456826Y261492D01*
X457264Y261311D01*
X457736D01*
X458174Y261492D01*
X458508Y261826D01*
X458689Y262263D01*
Y262737D01*
X458508Y263174D01*
X458174Y263508D01*
X457736Y263689D01*
D02*
G37*
G36*
X460212Y261686D02*
X459660D01*
X459151Y261475D01*
X458761Y261085D01*
X458550Y260576D01*
Y260025D01*
X458761Y259515D01*
X459151Y259125D01*
X459660Y258915D01*
X460212D01*
X460721Y259125D01*
X461111Y259515D01*
X461322Y260025D01*
Y260576D01*
X461111Y261085D01*
X460721Y261475D01*
X460212Y261686D01*
D02*
G37*
%LPD*%
G36*
X534913Y454326D02*
X535277Y453962D01*
X535753Y453764D01*
X535978D01*
Y424278D01*
X535247Y423546D01*
X520485D01*
Y430270D01*
X522674Y432458D01*
X523016D01*
Y446507D01*
X523271Y446762D01*
X523281Y446752D01*
X523757Y446555D01*
X524272D01*
X524749Y446752D01*
X524934Y446937D01*
X525752D01*
Y454327D01*
X525851Y454569D01*
X531505D01*
X531606Y454326D01*
X531970Y453962D01*
X532446Y453764D01*
X532962D01*
X533438Y453962D01*
X533802Y454326D01*
X533903Y454569D01*
X534813D01*
X534913Y454326D01*
D02*
G37*
%LPC*%
G36*
X534347Y453147D02*
X533792D01*
X533280Y452935D01*
X532888Y452543D01*
X532676Y452031D01*
Y451476D01*
X532888Y450964D01*
X533280Y450572D01*
X533792Y450360D01*
X534347D01*
X534859Y450572D01*
X535251Y450964D01*
X535463Y451476D01*
Y452031D01*
X535251Y452543D01*
X534859Y452935D01*
X534347Y453147D01*
D02*
G37*
%LPD*%
G36*
X536808Y339774D02*
X536826Y339526D01*
X536837Y339459D01*
X536850Y339400D01*
X536866Y339349D01*
X536884Y339305D01*
X536904Y339270D01*
X536927Y339243D01*
X535687D01*
X535710Y339270D01*
X535730Y339305D01*
X535748Y339349D01*
X535764Y339400D01*
X535777Y339459D01*
X535788Y339526D01*
X535802Y339684D01*
X535807Y339873D01*
X536807D01*
X536808Y339774D01*
D02*
G37*
D12*
X536307Y338610D02*
Y341023D01*
X534102Y343228D02*
X536307Y341023D01*
X530100Y349870D02*
Y351972D01*
X530028Y352044D02*
X530100Y351972D01*
Y349870D02*
X530108Y349862D01*
Y347991D02*
Y349862D01*
X528495Y346378D02*
X530108Y347991D01*
X531645Y343228D02*
X534102D01*
D94*
X517797Y386026D02*
X517892Y386122D01*
D98*
X564211Y346102D02*
Y379722D01*
X561524Y333580D02*
Y343414D01*
X564211Y346102D01*
X566658Y382169D02*
Y382519D01*
X556471Y328527D02*
X561524Y333580D01*
X564211Y379722D02*
X566658Y382169D01*
Y382519D02*
X566844Y382706D01*
Y390746D01*
X565097Y453525D02*
X566844Y451778D01*
X561854Y456768D02*
X565097Y453525D01*
X556218Y456833D02*
X561005D01*
X566844Y390746D02*
Y451778D01*
X561069Y456768D02*
X561854D01*
X555447Y412510D02*
Y436827D01*
X551614Y440660D02*
X555447Y436827D01*
X536022Y390746D02*
X566844D01*
X555042Y327098D02*
X555956Y328012D01*
Y328235D01*
X555042Y326076D02*
Y327098D01*
X547261Y404324D02*
X555447Y412510D01*
X521114Y404324D02*
X547261D01*
X534950Y391818D02*
X536022Y390746D01*
X513649Y396858D02*
X521114Y404324D01*
X509202Y396884D02*
X511438D01*
X513623D01*
X513649Y396858D01*
X561005Y456833D02*
X561069Y456768D01*
D104*
X501149Y353978D02*
X519364D01*
X486054Y365942D02*
Y390944D01*
X497515Y354480D02*
X500647D01*
X501149Y353978D01*
X486054Y365942D02*
X497515Y354480D01*
X522900Y354144D02*
X524938D01*
X524939Y354145D01*
X486533Y392308D02*
X509710Y415485D01*
X486054Y390944D02*
X486533Y391423D01*
Y392308D01*
X471835Y354812D02*
Y422021D01*
Y354812D02*
X491045Y335602D01*
X471835Y422021D02*
X496290Y446477D01*
X509710Y415485D02*
Y435189D01*
X513971Y439450D01*
X516228D02*
X516530Y439148D01*
X513971Y439450D02*
X516228D01*
X505403Y445809D02*
X505415Y445798D01*
X503049Y445809D02*
X505403D01*
X496290Y446477D02*
X499604D01*
X500272Y445809D02*
X503049D01*
X499604Y446477D02*
X500272Y445809D01*
X507700Y335602D02*
X507729Y335572D01*
X491045Y335602D02*
X507700D01*
X517860Y335572D02*
X519546Y333887D01*
X507729Y335572D02*
X517860D01*
X522734Y353978D02*
X522900Y354144D01*
X519364Y353978D02*
X522734D01*
X519364Y348090D02*
X532714Y334740D01*
X532942D01*
X519364Y348090D02*
Y353978D01*
D105*
X477785Y438657D02*
D03*
Y404642D02*
D03*
D106*
X462037Y438657D02*
D03*
Y404642D02*
D03*
D107*
X457204Y463037D02*
D03*
D108*
Y453037D02*
D03*
D109*
X510481Y339410D02*
D03*
X513750Y345000D02*
D03*
X497972Y394416D02*
D03*
X498750Y375000D02*
D03*
X493333Y393659D02*
D03*
X562500Y442500D02*
D03*
Y427500D02*
D03*
Y412500D02*
D03*
Y382500D02*
D03*
Y292500D02*
D03*
X558750Y450000D02*
D03*
Y420000D02*
D03*
Y360000D02*
D03*
X555000Y352500D02*
D03*
X558750Y345000D02*
D03*
X555000Y292500D02*
D03*
X558750Y285000D02*
D03*
X547500Y397500D02*
D03*
X551250Y375000D02*
D03*
X547500Y322500D02*
D03*
Y292500D02*
D03*
X551250Y285000D02*
D03*
X540000Y397500D02*
D03*
X543750Y300000D02*
D03*
X540000Y262500D02*
D03*
X536250Y465000D02*
D03*
X532500Y397500D02*
D03*
Y382500D02*
D03*
Y292500D02*
D03*
X525000Y412500D02*
D03*
Y292500D02*
D03*
Y277500D02*
D03*
Y262500D02*
D03*
X517500Y277500D02*
D03*
Y262500D02*
D03*
X513750Y465000D02*
D03*
X510000Y442500D02*
D03*
X513750Y270000D02*
D03*
X510000Y262500D02*
D03*
X506250Y465000D02*
D03*
X502500Y442500D02*
D03*
X506250Y435000D02*
D03*
X502500Y427500D02*
D03*
Y382500D02*
D03*
Y292500D02*
D03*
X498750Y465000D02*
D03*
Y450000D02*
D03*
Y435000D02*
D03*
X495000Y412500D02*
D03*
X498750Y285000D02*
D03*
Y270000D02*
D03*
X491250Y300000D02*
D03*
Y285000D02*
D03*
X487500Y262500D02*
D03*
X480000Y457500D02*
D03*
Y442500D02*
D03*
X483750Y405000D02*
D03*
X480000Y307500D02*
D03*
Y277500D02*
D03*
X472500Y457500D02*
D03*
X476250Y360000D02*
D03*
X472500Y277500D02*
D03*
X465000Y457500D02*
D03*
Y427500D02*
D03*
X468750Y420000D02*
D03*
X465000Y412500D02*
D03*
Y397500D02*
D03*
Y367500D02*
D03*
Y352500D02*
D03*
Y307500D02*
D03*
Y292500D02*
D03*
X457500Y457500D02*
D03*
Y427500D02*
D03*
X461250Y420000D02*
D03*
X457500Y412500D02*
D03*
Y397500D02*
D03*
Y367500D02*
D03*
X461250Y345000D02*
D03*
Y315000D02*
D03*
X457500Y292500D02*
D03*
Y262500D02*
D03*
X499551Y351685D02*
D03*
X485265Y351681D02*
D03*
X485382Y347862D02*
D03*
X468431Y328834D02*
D03*
X465469Y328758D02*
D03*
X462570Y328834D02*
D03*
X471305Y329010D02*
D03*
X459755Y329064D02*
D03*
X457564Y330829D02*
D03*
X457364Y334234D02*
D03*
X457276Y337626D02*
D03*
X457652Y340117D02*
D03*
X467991Y341043D02*
D03*
X473586Y340831D02*
D03*
X553262Y330968D02*
D03*
X553843Y333355D02*
D03*
X559401Y321619D02*
D03*
X530028Y352044D02*
D03*
X515269Y301511D02*
D03*
X516886Y300418D02*
D03*
X518963Y300375D02*
D03*
X521017Y300353D02*
D03*
X522755Y300342D02*
D03*
X524908Y300145D02*
D03*
X527072Y300123D02*
D03*
X530427Y301763D02*
D03*
X532405Y308615D02*
D03*
X532558Y304626D02*
D03*
X532722Y306527D02*
D03*
X530809Y314287D02*
D03*
X523247Y314783D02*
D03*
X525302Y314844D02*
D03*
X521466Y314888D02*
D03*
X519466Y314954D02*
D03*
X517247Y314920D02*
D03*
X514242Y313172D02*
D03*
X515258Y314931D02*
D03*
X531670Y302919D02*
D03*
X529327Y300544D02*
D03*
X513804Y303046D02*
D03*
X524494Y310001D02*
D03*
X520403Y312370D02*
D03*
X512576Y304578D02*
D03*
Y306895D02*
D03*
X528844Y314693D02*
D03*
X526797Y314813D02*
D03*
X515966Y365759D02*
D03*
X484059Y362746D02*
D03*
X478117Y362097D02*
D03*
X487477Y359580D02*
D03*
X487429Y357496D02*
D03*
X489824Y343927D02*
D03*
X490220Y404364D02*
D03*
X487097Y344925D02*
D03*
X493009Y387376D02*
D03*
X476895Y337792D02*
D03*
X474839Y330260D02*
D03*
X473320Y328984D02*
D03*
X492363Y351685D02*
D03*
X480513Y358846D02*
D03*
X514439Y328003D02*
D03*
X514303Y331229D02*
D03*
X515719Y338868D02*
D03*
X532231Y411440D02*
D03*
X478234Y358892D02*
D03*
X508506Y366031D02*
D03*
X517667Y331179D02*
D03*
X524015Y447850D02*
D03*
X524127Y337182D02*
D03*
X493623Y346673D02*
D03*
X515765Y368709D02*
D03*
X471073Y340865D02*
D03*
X465250Y340936D02*
D03*
X536011Y455060D02*
D03*
X532704D02*
D03*
X461798Y340465D02*
D03*
X461925Y335048D02*
D03*
X459598Y334665D02*
D03*
D110*
X508073Y348535D02*
D03*
X516402Y345350D02*
D03*
X467100Y417572D02*
D03*
X467174Y424452D02*
D03*
X514758Y322754D02*
D03*
X564918Y337030D02*
D03*
X520244Y329495D02*
D03*
X538888Y355238D02*
D03*
X512781Y425994D02*
D03*
X551614Y440660D02*
D03*
X532893Y359318D02*
D03*
X550429Y260375D02*
D03*
X547660Y260258D02*
D03*
X543212Y333546D02*
D03*
X538703Y349915D02*
D03*
X541593Y341317D02*
D03*
X544738Y343529D02*
D03*
X536307Y338610D02*
D03*
X530502Y329726D02*
D03*
X538513Y343657D02*
D03*
X505408Y296881D02*
D03*
X505388Y294109D02*
D03*
X505367Y291338D02*
D03*
X505626Y288578D02*
D03*
X507466Y286506D02*
D03*
X510204Y286072D02*
D03*
X512975D02*
D03*
X515747D02*
D03*
X518518D02*
D03*
X521290D02*
D03*
X524062D02*
D03*
X526833D02*
D03*
X529605D02*
D03*
X532377D02*
D03*
X535122Y285694D02*
D03*
X536416Y278645D02*
D03*
X539188D02*
D03*
X541507Y280162D02*
D03*
X544279D02*
D03*
X546532Y278548D02*
D03*
Y275776D02*
D03*
Y273005D02*
D03*
X545728Y262245D02*
D03*
X551482Y265563D02*
D03*
X551581Y268333D02*
D03*
X550844Y271005D02*
D03*
Y273777D02*
D03*
Y276548D02*
D03*
Y279320D02*
D03*
X550750Y282090D02*
D03*
X548941Y284190D02*
D03*
X546184Y284474D02*
D03*
X543413D02*
D03*
X540755Y285261D02*
D03*
X539156Y287525D02*
D03*
X531841Y290384D02*
D03*
X529069D02*
D03*
X526297D02*
D03*
X523526D02*
D03*
X520754D02*
D03*
X515211D02*
D03*
X512439D02*
D03*
X509674Y290570D02*
D03*
X507123Y303288D02*
D03*
X456142Y372881D02*
D03*
X462955Y387712D02*
D03*
X459383Y395867D02*
D03*
X459600Y372881D02*
D03*
X463057D02*
D03*
X462955Y382808D02*
D03*
X456118Y387712D02*
D03*
X459537D02*
D03*
X459497Y382808D02*
D03*
X462867Y392822D02*
D03*
X456074D02*
D03*
X456039Y382808D02*
D03*
X540757Y458763D02*
D03*
X551410Y414632D02*
D03*
X468128Y406431D02*
D03*
X510754Y365925D02*
D03*
X467247Y357986D02*
D03*
X468059Y362264D02*
D03*
X549128Y309660D02*
D03*
X552403Y438734D02*
D03*
X511323Y375595D02*
D03*
X524985Y302799D02*
D03*
X524138Y305580D02*
D03*
X540815Y466797D02*
D03*
X538325Y425993D02*
D03*
X538927Y421162D02*
D03*
X543314Y420979D02*
D03*
X539411Y418176D02*
D03*
X542870Y425471D02*
D03*
X547367Y418176D02*
D03*
X543389D02*
D03*
X539444Y415424D02*
D03*
X543431Y415374D02*
D03*
X547434Y415257D02*
D03*
X546900Y411738D02*
D03*
X467449Y430559D02*
D03*
X467351Y413510D02*
D03*
X479895Y399959D02*
D03*
X467410Y410393D02*
D03*
X467386Y402371D02*
D03*
X474611Y434323D02*
D03*
X459471Y392822D02*
D03*
X466600Y442100D02*
D03*
X455233Y408100D02*
D03*
Y410690D02*
D03*
Y413280D02*
D03*
Y415870D02*
D03*
Y431410D02*
D03*
Y426230D02*
D03*
Y428820D02*
D03*
Y434000D02*
D03*
Y423640D02*
D03*
Y418460D02*
D03*
Y421050D02*
D03*
X466500Y446200D02*
D03*
X455250D02*
D03*
X462750D02*
D03*
X459000D02*
D03*
X477750D02*
D03*
X474000D02*
D03*
X470250D02*
D03*
X468550Y449100D02*
D03*
X472300D02*
D03*
X464800D02*
D03*
X476050D02*
D03*
X467025Y452750D02*
D03*
X470775D02*
D03*
X463275D02*
D03*
X474525D02*
D03*
X528966Y304522D02*
D03*
X455450Y399900D02*
D03*
X459200D02*
D03*
X466700D02*
D03*
X462021Y408914D02*
D03*
X458755Y408668D02*
D03*
X465376Y408489D02*
D03*
X468367Y434000D02*
D03*
X465083D02*
D03*
X461800D02*
D03*
X471650D02*
D03*
X458517D02*
D03*
X470350Y442100D02*
D03*
X474100D02*
D03*
X477850D02*
D03*
X459100D02*
D03*
X462850D02*
D03*
X455350D02*
D03*
X459527Y369355D02*
D03*
X520214Y297927D02*
D03*
X522756Y297883D02*
D03*
X517724Y291659D02*
D03*
X501551Y296088D02*
D03*
X501563Y298216D02*
D03*
X515737Y380228D02*
D03*
X467235Y366926D02*
D03*
X482975Y387691D02*
D03*
X483533Y392666D02*
D03*
X551085Y421736D02*
D03*
X509895Y294480D02*
D03*
X558695Y319259D02*
D03*
X547948Y295166D02*
D03*
X559677Y301780D02*
D03*
X559819Y307371D02*
D03*
X559400Y305228D02*
D03*
X559354Y314063D02*
D03*
X568008Y322826D02*
D03*
X565924Y302962D02*
D03*
X565982Y300856D02*
D03*
X568055Y311436D02*
D03*
X504587Y305236D02*
D03*
X497471Y296003D02*
D03*
X497321Y298216D02*
D03*
X545665Y264897D02*
D03*
X515464Y423471D02*
D03*
X505688Y425974D02*
D03*
X538480Y270214D02*
D03*
X538393Y272758D02*
D03*
X538519Y267251D02*
D03*
X526866Y270214D02*
D03*
X526955Y267471D02*
D03*
X526829Y272978D02*
D03*
X505415Y445798D02*
D03*
X503049Y445809D02*
D03*
X535994Y290873D02*
D03*
X536013Y293284D02*
D03*
X522900Y354144D02*
D03*
X524939Y354145D02*
D03*
X509483Y369202D02*
D03*
X500492Y419783D02*
D03*
X488520Y447599D02*
D03*
X502730Y269532D02*
D03*
X538632Y320279D02*
D03*
X532942Y334740D02*
D03*
X492638Y432873D02*
D03*
X494077Y302806D02*
D03*
X481542Y293239D02*
D03*
X477212D02*
D03*
X485873D02*
D03*
X493292Y264952D02*
D03*
X475047Y301586D02*
D03*
X497768Y427425D02*
D03*
X521355Y435414D02*
D03*
X551117Y425693D02*
D03*
X554962Y443080D02*
D03*
X526813Y336549D02*
D03*
X525465Y320248D02*
D03*
X525038Y322643D02*
D03*
X522790Y323022D02*
D03*
X504639Y348719D02*
D03*
X456263Y360934D02*
D03*
X456105Y353641D02*
D03*
X544976Y270802D02*
D03*
X542417Y270901D02*
D03*
X522828Y270214D02*
D03*
X515109Y279239D02*
D03*
X559597Y299322D02*
D03*
X547948Y297529D02*
D03*
X503165Y263283D02*
D03*
X521343Y360713D02*
D03*
X542350Y411714D02*
D03*
X554962Y445691D02*
D03*
X551117Y431275D02*
D03*
X545374Y331673D02*
D03*
X544801Y462622D02*
D03*
X470830Y349625D02*
D03*
X468786Y344222D02*
D03*
X513971Y439450D02*
D03*
X516530Y439148D02*
D03*
X503712Y438513D02*
D03*
X519546Y333887D02*
D03*
X455752Y344847D02*
D03*
X506714Y386122D02*
D03*
X518403Y320310D02*
D03*
X521962Y328653D02*
D03*
X544547Y437720D02*
D03*
X508101Y455695D02*
D03*
X534069Y451754D02*
D03*
X473307Y322838D02*
D03*
X469980Y308563D02*
D03*
X470079Y311417D02*
D03*
X472539Y317913D02*
D03*
X466043Y321063D02*
D03*
X459936Y260300D02*
D03*
X460210Y263465D02*
D03*
X459936Y266895D02*
D03*
X476078Y265714D02*
D03*
X484247Y264926D02*
D03*
X476268Y270044D02*
D03*
X494814Y284944D02*
D03*
X502607Y271991D02*
D03*
X520463Y271286D02*
D03*
X496949Y419783D02*
D03*
X466339Y317520D02*
D03*
D111*
X497744Y387720D02*
D03*
X521876Y460466D02*
D03*
X521087Y468707D02*
D03*
X567605Y340399D02*
D03*
X567424Y331637D02*
D03*
X566658Y382519D02*
D03*
X567776Y328237D02*
D03*
X565097Y453525D02*
D03*
X564211Y379372D02*
D03*
X550717Y347318D02*
D03*
X555956Y328235D02*
D03*
X555042Y326076D02*
D03*
X554612Y338384D02*
D03*
X554592Y335691D02*
D03*
X547148Y366728D02*
D03*
X530674Y361049D02*
D03*
X513649Y396858D02*
D03*
X517095Y447736D02*
D03*
X497169Y376584D02*
D03*
X523586Y421379D02*
D03*
X506268Y327895D02*
D03*
X502240D02*
D03*
X502180Y332002D02*
D03*
X498152D02*
D03*
X494123D02*
D03*
X498211Y327895D02*
D03*
X494183D02*
D03*
X489628Y332002D02*
D03*
X490155Y327895D02*
D03*
X486066Y332002D02*
D03*
X486126Y327895D02*
D03*
X511438Y396858D02*
D03*
X543859Y305976D02*
D03*
X534950Y391818D02*
D03*
X533069Y377518D02*
D03*
X496884Y367645D02*
D03*
X556485Y456895D02*
D03*
X506209Y332002D02*
D03*
X562508Y465010D02*
D03*
X550140Y468198D02*
D03*
X566758Y461666D02*
D03*
X562482Y461679D02*
D03*
X566627Y464892D02*
D03*
X566417Y468289D02*
D03*
X562640Y468237D02*
D03*
X558652Y468224D02*
D03*
X554573Y468211D02*
D03*
X556391Y462592D02*
D03*
X548478Y462601D02*
D03*
X517457Y467904D02*
D03*
Y464203D02*
D03*
Y460502D02*
D03*
X521036Y463001D02*
D03*
X532772Y421330D02*
D03*
X461313Y354070D02*
D03*
X502253Y319131D02*
D03*
X490167D02*
D03*
X486139D02*
D03*
X494196D02*
D03*
X498224D02*
D03*
X506281D02*
D03*
X498358Y323424D02*
D03*
X486272D02*
D03*
X494329D02*
D03*
X490301D02*
D03*
X502386D02*
D03*
X506415D02*
D03*
X489951Y314448D02*
D03*
X493979D02*
D03*
X498008D02*
D03*
X502036D02*
D03*
X506065D02*
D03*
X485922D02*
D03*
X529247Y368617D02*
D03*
X517892Y386122D02*
D03*
X542896Y325293D02*
D03*
X561005Y456833D02*
D03*
X545614Y467233D02*
D03*
D112*
X492284Y389431D02*
D03*
X538529Y439033D02*
D03*
X529409Y452579D02*
D03*
X529414Y450944D02*
D03*
X492284Y391975D02*
D03*
X498324Y389941D02*
D03*
X498082Y392317D02*
D03*
X525272Y350591D02*
D03*
X524536Y427875D02*
D03*
X524525Y426088D02*
D03*
X522617Y426176D02*
D03*
X522704Y427908D02*
D03*
X531967Y427854D02*
D03*
X531880Y426123D02*
D03*
X533789Y426035D02*
D03*
X533800Y427821D02*
D03*
X527488Y450966D02*
D03*
X527479Y452697D02*
D03*
D113*
X534290Y440139D02*
D03*
X531645Y343228D02*
D03*
X528495D02*
D03*
Y346378D02*
D03*
X532715Y436989D02*
D03*
Y438564D02*
D03*
Y441713D02*
D03*
X526416D02*
D03*
Y444863D02*
D03*
D114*
X549242Y354237D02*
X550707Y352773D01*
X550717Y333114D02*
Y349389D01*
X548197Y354237D02*
X549242D01*
X550707Y352773D02*
X550717Y349389D01*
X543664Y354201D02*
X548197Y354237D01*
X542896Y325293D02*
X550717Y333114D01*
X543664Y348808D02*
Y354201D01*
X538513Y343657D02*
X543664Y348808D01*
X529247Y368617D02*
X543664Y354201D01*
X529247Y368617D02*
Y374767D01*
X496884Y367645D02*
X499415D01*
X517797Y386026D01*
X517892Y386122D02*
X529247Y374767D01*
M02*
