G04*
G04 #@! TF.GenerationSoftware,Altium Limited,Altium Designer,25.0.2 (28)*
G04*
G04 Layer_Color=8388736*
%FSLAX25Y25*%
%MOIN*%
G70*
G04*
G04 #@! TF.SameCoordinates,2891CE2B-4135-44D8-BBE4-C6BF521A36B5*
G04*
G04*
G04 #@! TF.FilePolarity,Negative*
G04*
G01*
G75*
%ADD19R,0.06903X0.03000*%
%ADD20R,0.04500X0.01200*%
%ADD21R,0.04500X0.02400*%
%ADD23R,0.02400X0.01024*%
%ADD24R,0.01400X0.03200*%
%ADD35R,0.04724X0.04724*%
%ADD40R,0.01575X0.01890*%
%ADD41R,0.00984X0.01417*%
%ADD46R,0.01900X0.02000*%
%ADD47R,0.03900X0.04100*%
%ADD52R,0.03800X0.02000*%
%ADD57R,0.00957X0.00957*%
%ADD58R,0.11384X0.03313*%
%ADD59C,0.04337*%
%ADD60R,0.25758X0.25758*%
%ADD61R,0.00961X0.03739*%
%ADD62R,0.03739X0.00961*%
%ADD63R,0.02587X0.01699*%
%ADD64R,0.02762X0.02762*%
%ADD65R,0.02487X0.02762*%
%ADD66C,0.01968*%
%ADD67R,0.02762X0.02487*%
%ADD68R,0.03900X0.03600*%
%ADD69C,0.01142*%
%ADD70R,0.05512X0.05512*%
%ADD71C,0.01066*%
%ADD72R,0.01900X0.01700*%
%ADD73R,0.01700X0.01900*%
%ADD74R,0.02723X0.02762*%
%ADD75R,0.06896X0.02368*%
%ADD76R,0.03600X0.03900*%
%ADD77R,0.04731X0.05124*%
%ADD78R,0.03200X0.02400*%
%ADD79R,0.04500X0.09100*%
%ADD80R,0.02368X0.06896*%
%ADD81R,0.02762X0.02723*%
%ADD82R,0.05500X0.03600*%
%ADD83R,0.03550X0.03550*%
%ADD84R,0.04882X0.02913*%
%ADD85R,0.04061X0.04376*%
%ADD86R,0.04376X0.04061*%
%ADD87C,0.06699*%
%ADD88R,0.06699X0.06699*%
%ADD89C,0.01778*%
%ADD90C,0.02172*%
D19*
X542486Y449905D02*
D03*
Y443815D02*
D03*
X517186Y444736D02*
D03*
Y450827D02*
D03*
X542870Y431562D02*
D03*
Y425471D02*
D03*
D20*
X480048Y426571D02*
D03*
Y422634D02*
D03*
Y420665D02*
D03*
Y424602D02*
D03*
Y428539D02*
D03*
Y416728D02*
D03*
Y418696D02*
D03*
Y414759D02*
D03*
D21*
Y431098D02*
D03*
Y434248D02*
D03*
Y409051D02*
D03*
Y412201D02*
D03*
D23*
X560435Y262602D02*
D03*
Y260752D02*
D03*
D24*
X557719Y261677D02*
D03*
X563152D02*
D03*
D35*
X560878Y405470D02*
D03*
Y375652D02*
D03*
Y385959D02*
D03*
Y395816D02*
D03*
D40*
X496263Y278161D02*
D03*
Y272964D02*
D03*
D41*
X502705Y274569D02*
D03*
Y277876D02*
D03*
D46*
X474416Y293239D02*
D03*
X488668D02*
D03*
X485286Y351676D02*
D03*
X499538D02*
D03*
D47*
X532673Y264210D02*
D03*
D52*
X524138Y312488D02*
D03*
X517238D02*
D03*
Y307988D02*
D03*
X524138D02*
D03*
D57*
X506189Y301368D02*
D03*
X503878D02*
D03*
X501567D02*
D03*
Y299368D02*
D03*
X503878D02*
D03*
X506189D02*
D03*
D58*
X475551Y392840D02*
D03*
Y387840D02*
D03*
Y372840D02*
D03*
Y377840D02*
D03*
Y382840D02*
D03*
X459527Y377840D02*
D03*
Y392840D02*
D03*
Y382840D02*
D03*
Y387840D02*
D03*
Y372840D02*
D03*
D59*
X533426Y364921D02*
D03*
X541438Y295309D02*
D03*
X507390Y420543D02*
D03*
X521893Y374857D02*
D03*
X543837Y318670D02*
D03*
X540886Y309582D02*
D03*
X502035Y453062D02*
D03*
X527398Y362763D02*
D03*
X513797Y434284D02*
D03*
X494453Y465666D02*
D03*
X517508Y415657D02*
D03*
X560634Y434473D02*
D03*
X550282Y449046D02*
D03*
X558678Y429127D02*
D03*
X551591Y414451D02*
D03*
X554993Y438280D02*
D03*
D60*
X495198Y324065D02*
D03*
D61*
X482599Y339505D02*
D03*
X484174D02*
D03*
X485749D02*
D03*
X487324D02*
D03*
X488899D02*
D03*
X490474D02*
D03*
X492048D02*
D03*
X493623D02*
D03*
X495198D02*
D03*
X496773D02*
D03*
X498348D02*
D03*
X499922D02*
D03*
X501497D02*
D03*
X503072D02*
D03*
X504647D02*
D03*
X506222D02*
D03*
X507796D02*
D03*
Y308624D02*
D03*
X506222D02*
D03*
X504647D02*
D03*
X503072D02*
D03*
X501497D02*
D03*
X499922D02*
D03*
X498348D02*
D03*
X496773D02*
D03*
X495198D02*
D03*
X493623D02*
D03*
X492048D02*
D03*
X490474D02*
D03*
X488899D02*
D03*
X487324D02*
D03*
X485749D02*
D03*
X484174D02*
D03*
X482599D02*
D03*
D62*
X510639Y336663D02*
D03*
Y335088D02*
D03*
Y333514D02*
D03*
Y331939D02*
D03*
Y330364D02*
D03*
Y328789D02*
D03*
Y327215D02*
D03*
Y325640D02*
D03*
Y324065D02*
D03*
Y322490D02*
D03*
Y320915D02*
D03*
Y319340D02*
D03*
Y317766D02*
D03*
Y316191D02*
D03*
Y314616D02*
D03*
Y313041D02*
D03*
Y311467D02*
D03*
X479757D02*
D03*
Y313041D02*
D03*
Y314616D02*
D03*
Y316191D02*
D03*
Y317766D02*
D03*
Y319340D02*
D03*
Y320915D02*
D03*
Y322490D02*
D03*
Y324065D02*
D03*
Y325640D02*
D03*
Y327215D02*
D03*
Y328789D02*
D03*
Y330364D02*
D03*
Y331939D02*
D03*
Y333514D02*
D03*
Y335088D02*
D03*
Y336663D02*
D03*
D63*
X548745Y262830D02*
D03*
X551838D02*
D03*
X548688Y267062D02*
D03*
X545595D02*
D03*
D64*
X465748Y466142D02*
D03*
Y462598D02*
D03*
D65*
X545374Y331535D02*
D03*
X541933D02*
D03*
X542161Y338369D02*
D03*
X538720D02*
D03*
X518411Y302852D02*
D03*
X521852D02*
D03*
X504805Y346082D02*
D03*
X508246D02*
D03*
X509648Y279239D02*
D03*
X513089D02*
D03*
X556888Y305228D02*
D03*
X553447D02*
D03*
X556888Y299273D02*
D03*
X553447D02*
D03*
X565844Y311436D02*
D03*
X562403D02*
D03*
X565734Y323110D02*
D03*
X562293D02*
D03*
X463718Y331865D02*
D03*
X460278D02*
D03*
X463818Y337465D02*
D03*
X460378D02*
D03*
X518403Y320310D02*
D03*
X521844D02*
D03*
X497438Y300446D02*
D03*
X493997D02*
D03*
X541106Y437720D02*
D03*
X544547D02*
D03*
X551521Y443080D02*
D03*
X554962D02*
D03*
X524539Y465805D02*
D03*
X521098D02*
D03*
X522795Y325119D02*
D03*
X526236D02*
D03*
D66*
X462593Y263352D02*
D03*
Y267289D02*
D03*
Y271226D02*
D03*
Y275163D02*
D03*
Y279100D02*
D03*
X466530Y263352D02*
D03*
Y267289D02*
D03*
Y271226D02*
D03*
Y275163D02*
D03*
Y279100D02*
D03*
X470467Y263352D02*
D03*
Y267289D02*
D03*
Y271226D02*
D03*
Y275163D02*
D03*
Y279100D02*
D03*
X474404Y263352D02*
D03*
Y267289D02*
D03*
Y271226D02*
D03*
Y275163D02*
D03*
Y279100D02*
D03*
X478341Y263352D02*
D03*
Y267289D02*
D03*
Y271226D02*
D03*
Y275163D02*
D03*
D67*
X517692Y297921D02*
D03*
Y294480D02*
D03*
X529811Y311379D02*
D03*
Y307938D02*
D03*
X532893Y357298D02*
D03*
Y353857D02*
D03*
X515702Y374802D02*
D03*
Y378243D02*
D03*
X524887Y460433D02*
D03*
Y456992D02*
D03*
X554844Y382526D02*
D03*
Y385967D02*
D03*
X555036Y372328D02*
D03*
Y375769D02*
D03*
X554605Y402083D02*
D03*
Y405524D02*
D03*
X554759Y392320D02*
D03*
Y395761D02*
D03*
X491240Y451228D02*
D03*
Y447787D02*
D03*
X471937Y344270D02*
D03*
Y347711D02*
D03*
X521962Y334114D02*
D03*
Y330673D02*
D03*
X510697Y301209D02*
D03*
Y297768D02*
D03*
X472933Y315008D02*
D03*
Y311567D02*
D03*
X477272Y344330D02*
D03*
Y347771D02*
D03*
X517675Y325361D02*
D03*
Y328802D02*
D03*
X527146Y334111D02*
D03*
Y330671D02*
D03*
X527454Y353874D02*
D03*
Y357315D02*
D03*
X538702Y346455D02*
D03*
Y349896D02*
D03*
X518974Y439076D02*
D03*
Y435635D02*
D03*
X508529Y429358D02*
D03*
Y425917D02*
D03*
D68*
X490261Y395068D02*
D03*
Y400168D02*
D03*
D69*
X534290Y444863D02*
D03*
Y443288D02*
D03*
Y441713D02*
D03*
Y440139D02*
D03*
Y438564D02*
D03*
Y436989D02*
D03*
Y435414D02*
D03*
Y433839D02*
D03*
X532715Y444863D02*
D03*
Y443288D02*
D03*
Y441713D02*
D03*
Y440139D02*
D03*
Y438564D02*
D03*
Y436989D02*
D03*
Y435414D02*
D03*
Y433839D02*
D03*
X531141Y444863D02*
D03*
Y443288D02*
D03*
Y441713D02*
D03*
Y440139D02*
D03*
Y438564D02*
D03*
Y436989D02*
D03*
Y435414D02*
D03*
Y433839D02*
D03*
X529566Y444863D02*
D03*
Y443288D02*
D03*
Y441713D02*
D03*
Y440139D02*
D03*
Y438564D02*
D03*
Y436989D02*
D03*
Y435414D02*
D03*
Y433839D02*
D03*
X527991Y444863D02*
D03*
Y443288D02*
D03*
Y441713D02*
D03*
Y440139D02*
D03*
Y438564D02*
D03*
Y436989D02*
D03*
Y435414D02*
D03*
Y433839D02*
D03*
X526416Y444863D02*
D03*
Y443288D02*
D03*
Y441713D02*
D03*
Y440139D02*
D03*
Y438564D02*
D03*
Y436989D02*
D03*
Y435414D02*
D03*
Y433839D02*
D03*
X524841Y444863D02*
D03*
Y443288D02*
D03*
Y441713D02*
D03*
Y440139D02*
D03*
Y438564D02*
D03*
Y436989D02*
D03*
Y435414D02*
D03*
Y433839D02*
D03*
D70*
X530914Y458763D02*
D03*
X540757D02*
D03*
X540893Y466690D02*
D03*
X531050D02*
D03*
D71*
X528495Y340078D02*
D03*
X533220Y347953D02*
D03*
Y346378D02*
D03*
Y344803D02*
D03*
Y343228D02*
D03*
Y341653D02*
D03*
Y340078D02*
D03*
X531645Y347953D02*
D03*
Y346378D02*
D03*
Y344803D02*
D03*
Y343228D02*
D03*
Y341653D02*
D03*
Y340078D02*
D03*
X530070Y347953D02*
D03*
Y346378D02*
D03*
Y344803D02*
D03*
Y343228D02*
D03*
Y341653D02*
D03*
Y340078D02*
D03*
X528495Y347953D02*
D03*
Y346378D02*
D03*
Y344803D02*
D03*
Y343228D02*
D03*
Y341653D02*
D03*
X526920Y347953D02*
D03*
Y346378D02*
D03*
Y344803D02*
D03*
Y343228D02*
D03*
Y341653D02*
D03*
Y340078D02*
D03*
X525346Y347953D02*
D03*
Y346378D02*
D03*
Y344803D02*
D03*
Y343228D02*
D03*
Y341653D02*
D03*
Y340078D02*
D03*
D72*
X556288Y316943D02*
D03*
Y314974D02*
D03*
X549088D02*
D03*
Y316943D02*
D03*
D73*
X553673Y319359D02*
D03*
X555641D02*
D03*
X551704D02*
D03*
X555641Y312559D02*
D03*
X553673D02*
D03*
X549736Y319359D02*
D03*
Y312559D02*
D03*
X551704D02*
D03*
D74*
X562463Y317518D02*
D03*
X565770D02*
D03*
X509483Y369202D02*
D03*
X512790D02*
D03*
X518511Y369209D02*
D03*
X521818D02*
D03*
X565829Y305497D02*
D03*
X562522D02*
D03*
X499995Y263184D02*
D03*
X496688D02*
D03*
X473835Y356536D02*
D03*
X470527D02*
D03*
X473712Y362214D02*
D03*
X470405D02*
D03*
X535657Y411575D02*
D03*
X538964D02*
D03*
X509366Y438463D02*
D03*
X506059D02*
D03*
X536249Y331570D02*
D03*
X532942D02*
D03*
D75*
X515418Y420485D02*
D03*
Y429540D02*
D03*
D76*
X547964Y404033D02*
D03*
X542864D02*
D03*
X548118Y394270D02*
D03*
X543018D02*
D03*
X548204Y384476D02*
D03*
X543104D02*
D03*
X548396Y374278D02*
D03*
X543296D02*
D03*
X456078Y357385D02*
D03*
X461178D02*
D03*
X532584Y282318D02*
D03*
X537684D02*
D03*
X456029Y364359D02*
D03*
X461129D02*
D03*
X483464Y465977D02*
D03*
X488564D02*
D03*
X483672Y458588D02*
D03*
X488771D02*
D03*
D77*
X481542Y293239D02*
D03*
X492412Y351676D02*
D03*
D78*
X477212Y293239D02*
D03*
X485873D02*
D03*
X488081Y351676D02*
D03*
X496742D02*
D03*
D79*
X538480Y270214D02*
D03*
X526866D02*
D03*
D80*
X517313Y271188D02*
D03*
X508258D02*
D03*
D81*
X547751Y303757D02*
D03*
Y300450D02*
D03*
X490000Y406700D02*
D03*
Y410007D02*
D03*
Y433053D02*
D03*
Y429746D02*
D03*
X518699Y340924D02*
D03*
Y344232D02*
D03*
X535963Y295530D02*
D03*
Y298837D02*
D03*
X472462Y462933D02*
D03*
Y466240D02*
D03*
X538582Y322526D02*
D03*
Y325833D02*
D03*
D82*
X470998Y331965D02*
D03*
Y337565D02*
D03*
D83*
X536180Y306069D02*
D03*
Y311974D02*
D03*
D84*
X500492Y416043D02*
D03*
Y419783D02*
D03*
Y423524D02*
D03*
X490256Y416043D02*
D03*
Y419783D02*
D03*
Y423524D02*
D03*
D85*
X551117Y431275D02*
D03*
Y425693D02*
D03*
X508210Y451434D02*
D03*
Y445851D02*
D03*
X548478Y462601D02*
D03*
Y457018D02*
D03*
X556485Y462478D02*
D03*
Y456895D02*
D03*
X532772Y421330D02*
D03*
Y426913D02*
D03*
X523586Y421379D02*
D03*
Y426961D02*
D03*
D86*
X534069Y451754D02*
D03*
X528487D02*
D03*
D87*
X457204Y463037D02*
D03*
D88*
Y453037D02*
D03*
D89*
X513750Y345000D02*
D03*
X498750Y375000D02*
D03*
X562500Y442500D02*
D03*
Y427500D02*
D03*
Y412500D02*
D03*
Y382500D02*
D03*
Y292500D02*
D03*
X558750Y450000D02*
D03*
Y420000D02*
D03*
Y360000D02*
D03*
X555000Y352500D02*
D03*
X558750Y345000D02*
D03*
X555000Y292500D02*
D03*
X558750Y285000D02*
D03*
X547500Y397500D02*
D03*
X551250Y375000D02*
D03*
X547500Y322500D02*
D03*
Y292500D02*
D03*
X551250Y285000D02*
D03*
X540000Y397500D02*
D03*
X543750Y300000D02*
D03*
X540000Y262500D02*
D03*
X536250Y465000D02*
D03*
X532500Y397500D02*
D03*
Y382500D02*
D03*
Y292500D02*
D03*
X525000Y412500D02*
D03*
Y292500D02*
D03*
Y277500D02*
D03*
Y262500D02*
D03*
X517500Y277500D02*
D03*
Y262500D02*
D03*
X513750Y465000D02*
D03*
X510000Y442500D02*
D03*
X513750Y270000D02*
D03*
X510000Y262500D02*
D03*
X506250Y465000D02*
D03*
X502500Y442500D02*
D03*
X506250Y435000D02*
D03*
X502500Y427500D02*
D03*
Y382500D02*
D03*
Y292500D02*
D03*
X498750Y465000D02*
D03*
Y450000D02*
D03*
Y435000D02*
D03*
X495000Y412500D02*
D03*
X498750Y285000D02*
D03*
Y270000D02*
D03*
X491250Y300000D02*
D03*
Y285000D02*
D03*
X487500Y262500D02*
D03*
X480000Y457500D02*
D03*
Y442500D02*
D03*
X483750Y405000D02*
D03*
X480000Y307500D02*
D03*
Y277500D02*
D03*
X472500Y457500D02*
D03*
X476250Y360000D02*
D03*
X472500Y277500D02*
D03*
X465000Y457500D02*
D03*
Y427500D02*
D03*
X468750Y420000D02*
D03*
X465000Y412500D02*
D03*
Y397500D02*
D03*
Y367500D02*
D03*
Y352500D02*
D03*
Y307500D02*
D03*
Y292500D02*
D03*
X457500Y457500D02*
D03*
Y427500D02*
D03*
X461250Y420000D02*
D03*
X457500Y412500D02*
D03*
Y397500D02*
D03*
Y367500D02*
D03*
X461250Y345000D02*
D03*
Y315000D02*
D03*
X457500Y292500D02*
D03*
Y262500D02*
D03*
D90*
X550429Y260375D02*
D03*
X547660Y260258D02*
D03*
X505408Y296881D02*
D03*
X505388Y294109D02*
D03*
X505367Y291338D02*
D03*
X505626Y288578D02*
D03*
X507466Y286506D02*
D03*
X510204Y286072D02*
D03*
X512975D02*
D03*
X515747D02*
D03*
X518518D02*
D03*
X521290D02*
D03*
X524062D02*
D03*
X526833D02*
D03*
X529605D02*
D03*
X532377D02*
D03*
X535122Y285694D02*
D03*
X536416Y278645D02*
D03*
X539188D02*
D03*
X541507Y280162D02*
D03*
X544279D02*
D03*
X546532Y278548D02*
D03*
Y275776D02*
D03*
Y273005D02*
D03*
X545728Y262245D02*
D03*
X551482Y265563D02*
D03*
X551581Y268333D02*
D03*
X550844Y271005D02*
D03*
Y273777D02*
D03*
Y276548D02*
D03*
Y279320D02*
D03*
X550750Y282090D02*
D03*
X548941Y284190D02*
D03*
X546184Y284474D02*
D03*
X543413D02*
D03*
X540755Y285261D02*
D03*
X539156Y287525D02*
D03*
X531841Y290384D02*
D03*
X529069D02*
D03*
X526297D02*
D03*
X523526D02*
D03*
X520754D02*
D03*
X515211D02*
D03*
X512439D02*
D03*
X509674Y290570D02*
D03*
X507123Y303288D02*
D03*
M02*
