G04*
G04 #@! TF.GenerationSoftware,Altium Limited,Altium Designer,25.0.2 (28)*
G04*
G04 Layer_Physical_Order=2*
G04 Layer_Color=6736896*
%FSLAX25Y25*%
%MOIN*%
G70*
G04*
G04 #@! TF.SameCoordinates,745154FB-60D3-49D1-9BFA-7A151F43A363*
G04*
G04*
G04 #@! TF.FilePolarity,Positive*
G04*
G01*
G75*
%ADD11C,0.01000*%
%ADD107C,0.05118*%
%ADD108O,0.07100X0.03900*%
%ADD109O,0.08700X0.03900*%
%ADD110C,0.06299*%
%ADD111R,0.06299X0.06299*%
%ADD112C,0.02000*%
%ADD113C,0.01772*%
%ADD114C,0.01378*%
%ADD115C,0.00984*%
%ADD116C,0.01181*%
G36*
X569278Y342262D02*
X568928Y342011D01*
X568278Y341744D01*
X567903Y341899D01*
X567307D01*
X566755Y341671D01*
X566333Y341249D01*
X566105Y340697D01*
Y340101D01*
X566333Y339549D01*
X566755Y339127D01*
X567307Y338899D01*
X567903D01*
X568278Y339054D01*
X568928Y338787D01*
X569278Y338536D01*
Y333913D01*
X569187Y333805D01*
X568278Y333327D01*
X568101Y333400D01*
X567504D01*
X566953Y333172D01*
X566531Y332750D01*
X566303Y332198D01*
Y331602D01*
X566531Y331050D01*
X566953Y330628D01*
X567504Y330400D01*
X568101D01*
X568278Y330473D01*
X569187Y329995D01*
X569278Y329887D01*
Y305188D01*
X568683Y304352D01*
X568131D01*
X567622Y304141D01*
X567168Y303799D01*
X566709Y304137D01*
X566200Y304348D01*
X565648D01*
X565139Y304137D01*
X564749Y303747D01*
X564538Y303238D01*
Y302686D01*
X564749Y302177D01*
X565139Y301787D01*
X565648Y301576D01*
X566200D01*
X566709Y301787D01*
X567164Y302129D01*
X567622Y301791D01*
X568131Y301580D01*
X568683D01*
X569278Y300744D01*
Y256686D01*
X452603D01*
Y462243D01*
X453603Y462375D01*
X453803Y461628D01*
X454283Y460796D01*
X454963Y460117D01*
X455795Y459636D01*
X456723Y459387D01*
X457684D01*
X458612Y459636D01*
X459445Y460117D01*
X460124Y460796D01*
X460605Y461628D01*
X460853Y462557D01*
Y463517D01*
X460605Y464446D01*
X460124Y465278D01*
X459445Y465957D01*
X458612Y466438D01*
X457684Y466687D01*
X456723D01*
X455795Y466438D01*
X454963Y465957D01*
X454283Y465278D01*
X453803Y464446D01*
X453603Y463699D01*
X452603Y463831D01*
Y470680D01*
X497359D01*
X497774Y469680D01*
X497699Y469606D01*
X497296Y468908D01*
X497088Y468130D01*
Y467325D01*
X497296Y466547D01*
X497699Y465849D01*
X498269Y465280D01*
X498966Y464877D01*
X499744Y464669D01*
X500550D01*
X501328Y464877D01*
X502025Y465280D01*
X502595Y465849D01*
X502998Y466547D01*
X503206Y467325D01*
Y468130D01*
X502998Y468908D01*
X502595Y469606D01*
X502520Y469680D01*
X502935Y470680D01*
X521966D01*
X522380Y469680D01*
X522305Y469606D01*
X521903Y468908D01*
X521694Y468130D01*
Y467325D01*
X521903Y466547D01*
X522105Y466197D01*
X522458Y465261D01*
X522036Y464839D01*
X521808Y464288D01*
Y463691D01*
X522036Y463140D01*
X522458Y462718D01*
X523010Y462489D01*
X523606D01*
X524158Y462718D01*
X524580Y463140D01*
X524808Y463691D01*
Y464288D01*
X525675Y464808D01*
X525934Y464877D01*
X526632Y465280D01*
X527201Y465849D01*
X527604Y466547D01*
X527812Y467325D01*
Y468130D01*
X527604Y468908D01*
X527201Y469606D01*
X527127Y469680D01*
X527541Y470680D01*
X569278D01*
Y342262D01*
D02*
G37*
%LPC*%
G36*
X507792Y468186D02*
X507195D01*
X506644Y467958D01*
X506222Y467536D01*
X505993Y466985D01*
Y466388D01*
X506222Y465836D01*
X506644Y465414D01*
X507195Y465186D01*
X507792D01*
X508343Y465414D01*
X508765Y465836D01*
X508993Y466388D01*
Y466985D01*
X508765Y467536D01*
X508343Y467958D01*
X507792Y468186D01*
D02*
G37*
G36*
X515737Y461719D02*
X515140D01*
X514589Y461490D01*
X514167Y461068D01*
X513938Y460517D01*
Y459920D01*
X514167Y459369D01*
X514589Y458947D01*
X515140Y458719D01*
X515737D01*
X516288Y458947D01*
X516710Y459369D01*
X516938Y459920D01*
Y460517D01*
X516710Y461068D01*
X516288Y461490D01*
X515737Y461719D01*
D02*
G37*
G36*
X556783Y458395D02*
X556186D01*
X555635Y458167D01*
X555213Y457745D01*
X554985Y457193D01*
Y456597D01*
X555213Y456045D01*
X555635Y455623D01*
X556186Y455395D01*
X556783D01*
X557334Y455623D01*
X557756Y456045D01*
X557985Y456597D01*
Y457193D01*
X557756Y457745D01*
X557334Y458167D01*
X556783Y458395D01*
D02*
G37*
G36*
X561303Y458333D02*
X560706D01*
X560155Y458104D01*
X559733Y457682D01*
X559505Y457131D01*
Y456534D01*
X559733Y455983D01*
X560155Y455561D01*
X560706Y455333D01*
X561303D01*
X561854Y455561D01*
X562276Y455983D01*
X562505Y456534D01*
Y457131D01*
X562276Y457682D01*
X561854Y458104D01*
X561303Y458333D01*
D02*
G37*
G36*
X536248Y456249D02*
X535775D01*
X535338Y456068D01*
X535014Y455744D01*
X535003Y455733D01*
X535003Y455733D01*
X534822Y455296D01*
X533893D01*
X533712Y455733D01*
X533712Y455733D01*
X533701Y455744D01*
X533378Y456068D01*
X532941Y456249D01*
X532468D01*
X532031Y456068D01*
X531696Y455733D01*
X531515Y455296D01*
Y454823D01*
X531696Y454386D01*
X532031Y454052D01*
X532468Y453871D01*
X532941D01*
X533378Y454052D01*
X533701Y454376D01*
X533712Y454386D01*
X533712Y454386D01*
X533893Y454823D01*
X534822D01*
X535003Y454386D01*
X535003Y454386D01*
X535014Y454376D01*
X535338Y454052D01*
X535775Y453871D01*
X536248D01*
X536685Y454052D01*
X537019Y454386D01*
X537200Y454823D01*
Y455296D01*
X537019Y455733D01*
X536685Y456068D01*
X536248Y456249D01*
D02*
G37*
G36*
X460753Y456587D02*
X457704D01*
Y453537D01*
X460753D01*
Y456587D01*
D02*
G37*
G36*
X456704D02*
X453654D01*
Y453537D01*
X456704D01*
Y456587D01*
D02*
G37*
G36*
X529596Y453753D02*
X529202D01*
X528837Y453602D01*
X528456Y453381D01*
X528074Y453600D01*
X527709Y453751D01*
X527315D01*
X526950Y453600D01*
X526671Y453321D01*
X526520Y452956D01*
Y452561D01*
X526671Y452197D01*
X526869Y451771D01*
X526648Y451367D01*
X526497Y451003D01*
Y450608D01*
X526648Y450243D01*
X526927Y449964D01*
X527292Y449813D01*
X527687D01*
X527800Y449860D01*
X528046Y449951D01*
X528576Y449921D01*
X528975Y449889D01*
X529311Y449749D01*
X529705D01*
X530070Y449900D01*
X530349Y450180D01*
X530500Y450544D01*
Y450939D01*
X530361Y451275D01*
X530316Y451619D01*
X530258Y452173D01*
X530351Y452466D01*
X530391Y452563D01*
Y452958D01*
X530240Y453322D01*
X529961Y453602D01*
X529596Y453753D01*
D02*
G37*
G36*
X565395Y455025D02*
X564798D01*
X564247Y454797D01*
X563825Y454375D01*
X563596Y453824D01*
Y453227D01*
X563825Y452676D01*
X564247Y452254D01*
X564798Y452025D01*
X565395D01*
X565946Y452254D01*
X566368Y452676D01*
X566597Y453227D01*
Y453824D01*
X566368Y454375D01*
X565946Y454797D01*
X565395Y455025D01*
D02*
G37*
G36*
X460753Y452537D02*
X457704D01*
Y449487D01*
X460753D01*
Y452537D01*
D02*
G37*
G36*
X456704D02*
X453654D01*
Y449487D01*
X456704D01*
Y452537D01*
D02*
G37*
G36*
X524335Y450256D02*
X523862D01*
X523425Y450075D01*
X523091Y449741D01*
X522910Y449303D01*
Y448831D01*
X523091Y448393D01*
X523425Y448059D01*
X523862Y447878D01*
X524335D01*
X524772Y448059D01*
X525107Y448393D01*
X525288Y448831D01*
Y449303D01*
X525107Y449741D01*
X524772Y450075D01*
X524335Y450256D01*
D02*
G37*
G36*
X546926Y447688D02*
X546453D01*
X546016Y447507D01*
X545682Y447173D01*
X545501Y446736D01*
Y446263D01*
X545682Y445826D01*
X546016Y445491D01*
X546453Y445310D01*
X546926D01*
X547363Y445491D01*
X547698Y445826D01*
X547879Y446263D01*
Y446736D01*
X547698Y447173D01*
X547363Y447507D01*
X546926Y447688D01*
D02*
G37*
G36*
X503325Y447195D02*
X502773D01*
X502264Y446984D01*
X501874Y446594D01*
X501663Y446085D01*
Y445533D01*
X501874Y445024D01*
X502264Y444634D01*
X502773Y444423D01*
X503325D01*
X503834Y444634D01*
X504630Y444623D01*
X505139Y444412D01*
X505690D01*
X506200Y444623D01*
X506589Y445013D01*
X506800Y445522D01*
Y446073D01*
X506589Y446583D01*
X506200Y446973D01*
X505690Y447184D01*
X505139D01*
X504630Y446973D01*
X503834Y446984D01*
X503325Y447195D01*
D02*
G37*
G36*
X521977Y445470D02*
X521504D01*
X521067Y445289D01*
X520732Y444954D01*
X520551Y444517D01*
Y444044D01*
X520732Y443607D01*
X521067Y443273D01*
X521504Y443092D01*
X521977D01*
X522414Y443273D01*
X522748Y443607D01*
X522929Y444044D01*
Y444517D01*
X522748Y444954D01*
X522414Y445289D01*
X521977Y445470D01*
D02*
G37*
G36*
X526611Y445851D02*
X526216D01*
X525851Y445700D01*
X525572Y445421D01*
X525421Y445056D01*
Y444661D01*
X525572Y444297D01*
X525798Y444071D01*
X525580Y443853D01*
X525429Y443489D01*
Y443094D01*
X525580Y442729D01*
X525802Y442508D01*
X525572Y442278D01*
X525421Y441914D01*
Y441519D01*
X525572Y441154D01*
X525851Y440875D01*
X526216Y440724D01*
X526611D01*
X526975Y440875D01*
X527202Y441103D01*
X527435Y440869D01*
X527800Y440718D01*
X528195D01*
X528559Y440869D01*
X528838Y441148D01*
X528990Y441513D01*
Y441908D01*
X528838Y442272D01*
X528559Y442551D01*
X528195Y442702D01*
X527671Y442965D01*
X527414Y443489D01*
X527263Y443853D01*
X527037Y444079D01*
X527254Y444297D01*
X527405Y444661D01*
Y445056D01*
X527254Y445421D01*
X526975Y445700D01*
X526611Y445851D01*
D02*
G37*
G36*
X531333Y442711D02*
X530938D01*
X530574Y442560D01*
X530295Y442281D01*
X530144Y441916D01*
Y441522D01*
X530295Y441157D01*
X530526Y440926D01*
X530298Y440699D01*
X530147Y440334D01*
Y439939D01*
X530298Y439575D01*
X530578Y439295D01*
X530942Y439145D01*
X531337D01*
X531702Y439295D01*
X531930Y439524D01*
X532154Y439301D01*
X532518Y439150D01*
X532913D01*
X533278Y439301D01*
X533502Y439525D01*
X533727Y439299D01*
X534091Y439148D01*
X534486D01*
X534851Y439299D01*
X535130Y439578D01*
X535281Y439943D01*
Y440338D01*
X535130Y440702D01*
X534851Y440981D01*
X534486Y441133D01*
X533965Y441388D01*
X533707Y441909D01*
X533556Y442274D01*
X533277Y442553D01*
X532912Y442704D01*
X532517D01*
X532153Y442553D01*
X531929Y442329D01*
X531698Y442560D01*
X531333Y442711D01*
D02*
G37*
G36*
X514247Y441502D02*
X513695D01*
X513186Y441291D01*
X512796Y440901D01*
X512585Y440392D01*
Y439841D01*
X512796Y439331D01*
X513186Y438941D01*
X513695Y438730D01*
X514247D01*
X514756Y438941D01*
X515309Y439229D01*
X515827Y438905D01*
X516336Y438694D01*
X516887D01*
X517397Y438905D01*
X517786Y439295D01*
X517997Y439804D01*
Y440355D01*
X517786Y440865D01*
X517397Y441255D01*
X516887Y441466D01*
X516336D01*
X515827Y441255D01*
X515273Y440967D01*
X514756Y441291D01*
X514247Y441502D01*
D02*
G37*
G36*
X529762Y437984D02*
X529367D01*
X529003Y437833D01*
X528778Y437609D01*
X528554Y437833D01*
X528189Y437984D01*
X527794D01*
X527430Y437833D01*
X527202Y437606D01*
X526975Y437833D01*
X526610Y437984D01*
X526216D01*
X525851Y437833D01*
X525572Y437554D01*
X525421Y437189D01*
Y436795D01*
X525572Y436430D01*
X525851Y436151D01*
X526216Y436000D01*
X526740Y435730D01*
X526993Y435206D01*
X527144Y434841D01*
X527423Y434562D01*
X527788Y434411D01*
X528183D01*
X528547Y434562D01*
X528827Y434841D01*
X528977Y435206D01*
X529236Y435732D01*
X529762Y436000D01*
X530126Y436151D01*
X530406Y436430D01*
X530557Y436795D01*
Y437189D01*
X530406Y437554D01*
X530126Y437833D01*
X529762Y437984D01*
D02*
G37*
G36*
X538667Y439768D02*
X538194D01*
X537757Y439586D01*
X537423Y439252D01*
X537242Y438815D01*
Y438342D01*
X537423Y437905D01*
X537757Y437570D01*
X538194Y437390D01*
X538667D01*
X539104Y437570D01*
X539439Y437905D01*
X539620Y438342D01*
Y438815D01*
X539439Y439252D01*
X539104Y439586D01*
X538667Y439768D01*
D02*
G37*
G36*
X551890Y442046D02*
X551338D01*
X550829Y441835D01*
X550439Y441445D01*
X550228Y440936D01*
Y440384D01*
X550439Y439875D01*
X550829Y439485D01*
X551158Y439349D01*
X551017Y439009D01*
Y438458D01*
X551228Y437949D01*
X551618Y437559D01*
X552127Y437348D01*
X552678D01*
X553188Y437559D01*
X553578Y437949D01*
X553789Y438458D01*
Y439009D01*
X553578Y439519D01*
X553188Y439909D01*
X552859Y440045D01*
X553000Y440384D01*
Y440936D01*
X552789Y441445D01*
X552399Y441835D01*
X551890Y442046D01*
D02*
G37*
G36*
X503988Y439899D02*
X503437D01*
X502927Y439688D01*
X502538Y439298D01*
X502327Y438789D01*
Y438237D01*
X502538Y437728D01*
X502927Y437338D01*
X503437Y437127D01*
X503988D01*
X504497Y437338D01*
X504887Y437728D01*
X505098Y438237D01*
Y438789D01*
X504887Y439298D01*
X504497Y439688D01*
X503988Y439899D01*
D02*
G37*
G36*
X479247Y441194D02*
X476047D01*
X475091Y441004D01*
X474280Y440462D01*
X473739Y439652D01*
X473549Y438696D01*
X473739Y437740D01*
X474280Y436930D01*
X475091Y436388D01*
X476047Y436198D01*
X479247D01*
X480203Y436388D01*
X481013Y436930D01*
X481555Y437740D01*
X481745Y438696D01*
X481555Y439652D01*
X481013Y440462D01*
X480203Y441004D01*
X479247Y441194D01*
D02*
G37*
G36*
X464299D02*
X459499D01*
X458543Y441004D01*
X457732Y440462D01*
X457191Y439652D01*
X457001Y438696D01*
X457191Y437740D01*
X457732Y436930D01*
X458543Y436388D01*
X459499Y436198D01*
X464299D01*
X465255Y436388D01*
X466065Y436930D01*
X466607Y437740D01*
X466797Y438696D01*
X466607Y439652D01*
X466065Y440462D01*
X465255Y441004D01*
X464299Y441194D01*
D02*
G37*
G36*
X532897Y437975D02*
X532502D01*
X532138Y437824D01*
X531859Y437545D01*
X531708Y437181D01*
Y436786D01*
X531859Y436421D01*
X532090Y436190D01*
X531880Y435981D01*
X531729Y435616D01*
Y435222D01*
X531880Y434857D01*
X532160Y434578D01*
X532524Y434427D01*
X532919D01*
X533284Y434578D01*
X533563Y434857D01*
X533714Y435222D01*
Y435616D01*
X533563Y435981D01*
X533332Y436212D01*
X533541Y436421D01*
X533692Y436786D01*
Y437181D01*
X533541Y437545D01*
X533262Y437824D01*
X532897Y437975D01*
D02*
G37*
G36*
X517045Y434805D02*
X516572D01*
X516135Y434624D01*
X515801Y434289D01*
X515620Y433852D01*
Y433379D01*
X515801Y432942D01*
X516135Y432608D01*
X516572Y432427D01*
X517045D01*
X517482Y432608D01*
X517816Y432942D01*
X517997Y433379D01*
Y433852D01*
X517816Y434289D01*
X517482Y434624D01*
X517045Y434805D01*
D02*
G37*
G36*
X520526Y432897D02*
X520053D01*
X519616Y432716D01*
X519281Y432382D01*
X519100Y431945D01*
Y431472D01*
X519281Y431035D01*
X519616Y430700D01*
X520053Y430519D01*
X520526D01*
X520963Y430700D01*
X521297Y431035D01*
X521478Y431472D01*
Y431945D01*
X521297Y432382D01*
X520963Y432716D01*
X520526Y432897D01*
D02*
G37*
G36*
X524682Y428977D02*
X524287D01*
X523922Y428826D01*
X523542Y428605D01*
X523159Y428824D01*
X522795Y428975D01*
X522400D01*
X522035Y428824D01*
X521756Y428545D01*
X521605Y428180D01*
Y427786D01*
X521756Y427421D01*
X521955Y426995D01*
X521734Y426591D01*
X521582Y426227D01*
Y425832D01*
X521734Y425467D01*
X522013Y425188D01*
X522377Y425037D01*
X522772D01*
X522885Y425084D01*
X523132Y425175D01*
X523661Y425145D01*
X524060Y425113D01*
X524396Y424974D01*
X524791D01*
X525155Y425125D01*
X525434Y425404D01*
X525586Y425769D01*
Y426163D01*
X525447Y426499D01*
X525401Y426843D01*
X525343Y427397D01*
X525436Y427691D01*
X525476Y427787D01*
Y428182D01*
X525325Y428547D01*
X525046Y428826D01*
X524682Y428977D01*
D02*
G37*
G36*
X533845Y428917D02*
X533450D01*
X533085Y428766D01*
X532705Y428545D01*
X532322Y428764D01*
X531958Y428916D01*
X531563D01*
X531198Y428764D01*
X530919Y428485D01*
X530768Y428121D01*
Y427726D01*
X530919Y427361D01*
X531118Y426935D01*
X530897Y426532D01*
X530745Y426167D01*
Y425773D01*
X530897Y425408D01*
X531176Y425129D01*
X531540Y424978D01*
X531935D01*
X532048Y425025D01*
X532295Y425116D01*
X532824Y425086D01*
X533223Y425053D01*
X533559Y424914D01*
X533954D01*
X534318Y425065D01*
X534597Y425344D01*
X534749Y425709D01*
Y426104D01*
X534610Y426439D01*
X534564Y426784D01*
X534506Y427338D01*
X534599Y427631D01*
X534639Y427728D01*
Y428123D01*
X534488Y428487D01*
X534209Y428766D01*
X533845Y428917D01*
D02*
G37*
G36*
X498043Y428811D02*
X497492D01*
X496983Y428600D01*
X496593Y428210D01*
X496382Y427701D01*
Y427149D01*
X496593Y426640D01*
X496983Y426250D01*
X497492Y426039D01*
X498043D01*
X498553Y426250D01*
X498943Y426640D01*
X499154Y427149D01*
Y427701D01*
X498943Y428210D01*
X498553Y428600D01*
X498043Y428811D01*
D02*
G37*
G36*
X538601Y427379D02*
X538050D01*
X537540Y427168D01*
X537150Y426778D01*
X536939Y426268D01*
Y425717D01*
X537150Y425208D01*
X537540Y424818D01*
X538050Y424607D01*
X538601D01*
X539110Y424818D01*
X539500Y425208D01*
X539711Y425717D01*
Y426268D01*
X539500Y426778D01*
X539110Y427168D01*
X538601Y427379D01*
D02*
G37*
G36*
X551393Y427078D02*
X550841D01*
X550332Y426867D01*
X549942Y426478D01*
X549731Y425968D01*
Y425417D01*
X549942Y424908D01*
X550332Y424518D01*
X550841Y424307D01*
X551393D01*
X551902Y424518D01*
X552292Y424908D01*
X552503Y425417D01*
Y425968D01*
X552292Y426478D01*
X551902Y426867D01*
X551393Y427078D01*
D02*
G37*
G36*
X543145Y426857D02*
X542594D01*
X542085Y426646D01*
X541695Y426256D01*
X541484Y425747D01*
Y425196D01*
X541695Y424686D01*
X542085Y424297D01*
X542594Y424086D01*
X543145D01*
X543655Y424297D01*
X544045Y424686D01*
X544255Y425196D01*
Y425747D01*
X544045Y426256D01*
X543655Y426646D01*
X543145Y426857D01*
D02*
G37*
G36*
X551361Y423122D02*
X550810D01*
X550300Y422911D01*
X549911Y422521D01*
X549700Y422012D01*
Y421460D01*
X549911Y420951D01*
X550300Y420561D01*
X550810Y420350D01*
X551361D01*
X551870Y420561D01*
X552260Y420951D01*
X552471Y421460D01*
Y422012D01*
X552260Y422521D01*
X551870Y422911D01*
X551361Y423122D01*
D02*
G37*
G36*
X539203Y422548D02*
X538652D01*
X538142Y422337D01*
X537752Y421947D01*
X537541Y421438D01*
Y420887D01*
X537752Y420377D01*
X538027Y420103D01*
X538145Y419954D01*
X538236Y418961D01*
X538202Y418880D01*
X538025Y418452D01*
Y417901D01*
X538236Y417391D01*
X538543Y416817D01*
X538270Y416209D01*
X538059Y415700D01*
Y415148D01*
X538270Y414639D01*
X538659Y414249D01*
X539169Y414038D01*
X539720D01*
X540229Y414249D01*
X540619Y414639D01*
X540830Y415148D01*
Y415700D01*
X540619Y416209D01*
X540312Y416784D01*
X540586Y417391D01*
X540797Y417901D01*
Y418452D01*
X540586Y418961D01*
X540312Y419236D01*
X540193Y419384D01*
X540102Y420377D01*
X540136Y420459D01*
X540313Y420887D01*
Y421438D01*
X540102Y421947D01*
X539712Y422337D01*
X539203Y422548D01*
D02*
G37*
G36*
X543590Y422365D02*
X543039D01*
X542529Y422154D01*
X542139Y421764D01*
X541928Y421254D01*
Y420703D01*
X542139Y420194D01*
X542140Y420193D01*
X542404Y419714D01*
X542216Y418969D01*
X542205Y418938D01*
X542176Y418868D01*
X542003Y418452D01*
Y417901D01*
X542205Y417415D01*
X542214Y417391D01*
X542469Y416895D01*
X542256Y416159D01*
X542222Y416077D01*
X542045Y415650D01*
Y415098D01*
X542256Y414589D01*
X542646Y414199D01*
X543155Y413988D01*
X543707D01*
X544216Y414199D01*
X544606Y414589D01*
X544817Y415098D01*
Y415650D01*
X544615Y416136D01*
X544606Y416159D01*
X544352Y416655D01*
X544564Y417391D01*
X544598Y417473D01*
X544775Y417901D01*
Y418452D01*
X544564Y418961D01*
X544564Y418962D01*
X544299Y419442D01*
X544487Y420186D01*
X544499Y420217D01*
X544528Y420287D01*
X544700Y420703D01*
Y421254D01*
X544489Y421764D01*
X544099Y422154D01*
X543590Y422365D01*
D02*
G37*
G36*
X551686Y416018D02*
X551135D01*
X550625Y415807D01*
X550236Y415417D01*
X550025Y414908D01*
Y414356D01*
X550236Y413847D01*
X550625Y413457D01*
X551135Y413246D01*
X551686D01*
X552195Y413457D01*
X552585Y413847D01*
X552796Y414356D01*
Y414908D01*
X552585Y415417D01*
X552195Y415807D01*
X551686Y416018D01*
D02*
G37*
G36*
X547643Y419562D02*
X547092D01*
X546583Y419351D01*
X546193Y418961D01*
X545982Y418452D01*
Y417901D01*
X546193Y417391D01*
X546247Y417337D01*
X546503Y416761D01*
X546267Y416050D01*
X546259Y416042D01*
X546048Y415533D01*
Y414982D01*
X546259Y414472D01*
X546613Y414119D01*
X546619Y413591D01*
X546488Y413067D01*
X546115Y412913D01*
X545726Y412523D01*
X545515Y412013D01*
Y411462D01*
X545726Y410953D01*
X546115Y410563D01*
X546625Y410352D01*
X547176D01*
X547685Y410563D01*
X548075Y410953D01*
X548286Y411462D01*
Y412013D01*
X548075Y412523D01*
X547722Y412876D01*
X547715Y413404D01*
X547847Y413928D01*
X548219Y414082D01*
X548609Y414472D01*
X548820Y414982D01*
Y415533D01*
X548609Y416042D01*
X548555Y416097D01*
X548299Y416672D01*
X548535Y417384D01*
X548542Y417391D01*
X548753Y417901D01*
Y418452D01*
X548542Y418961D01*
X548152Y419351D01*
X547643Y419562D01*
D02*
G37*
G36*
X542625Y413100D02*
X542074D01*
X541565Y412889D01*
X541175Y412499D01*
X540964Y411989D01*
Y411438D01*
X541175Y410929D01*
X541565Y410539D01*
X542074Y410328D01*
X542625D01*
X543135Y410539D01*
X543525Y410929D01*
X543736Y411438D01*
Y411989D01*
X543525Y412499D01*
X543135Y412889D01*
X542625Y413100D01*
D02*
G37*
G36*
X532467Y412629D02*
X531994D01*
X531557Y412448D01*
X531223Y412114D01*
X531042Y411677D01*
Y411203D01*
X531223Y410767D01*
X531557Y410432D01*
X531994Y410251D01*
X532467D01*
X532904Y410432D01*
X533239Y410767D01*
X533420Y411203D01*
Y411677D01*
X533239Y412114D01*
X532904Y412448D01*
X532467Y412629D01*
D02*
G37*
G36*
X479247Y407178D02*
X476047D01*
X475091Y406988D01*
X474280Y406447D01*
X473739Y405636D01*
X473549Y404680D01*
X473739Y403724D01*
X474280Y402914D01*
X475091Y402372D01*
X476047Y402182D01*
X479247D01*
X480203Y402372D01*
X481013Y402914D01*
X481555Y403724D01*
X481745Y404680D01*
X481555Y405636D01*
X481013Y406447D01*
X480203Y406988D01*
X479247Y407178D01*
D02*
G37*
G36*
X464299D02*
X459499D01*
X458543Y406988D01*
X457732Y406447D01*
X457191Y405636D01*
X457001Y404680D01*
X457191Y403724D01*
X457732Y402914D01*
X458543Y402372D01*
X459499Y402182D01*
X464299D01*
X465255Y402372D01*
X466065Y402914D01*
X466607Y403724D01*
X466797Y404680D01*
X466607Y405636D01*
X466065Y406447D01*
X465255Y406988D01*
X464299Y407178D01*
D02*
G37*
G36*
X493549Y403929D02*
X493077D01*
X492639Y403748D01*
X492305Y403414D01*
X492124Y402977D01*
Y402504D01*
X492305Y402067D01*
X492639Y401732D01*
X493077Y401551D01*
X493549D01*
X493987Y401732D01*
X494321Y402067D01*
X494502Y402504D01*
Y402977D01*
X494321Y403414D01*
X493987Y403748D01*
X493549Y403929D01*
D02*
G37*
G36*
X513947Y398358D02*
X513350D01*
X512799Y398130D01*
X512543Y397875D01*
X512288Y398130D01*
X511737Y398358D01*
X511140D01*
X510589Y398130D01*
X510167Y397708D01*
X509938Y397157D01*
Y396560D01*
X510167Y396009D01*
X510589Y395587D01*
X511140Y395358D01*
X511737D01*
X512288Y395587D01*
X512543Y395842D01*
X512799Y395587D01*
X513350Y395358D01*
X513947D01*
X514498Y395587D01*
X514920Y396009D01*
X515148Y396560D01*
Y397157D01*
X514920Y397708D01*
X514498Y398130D01*
X513947Y398358D01*
D02*
G37*
G36*
X459658Y397252D02*
X459107D01*
X458598Y397042D01*
X458208Y396652D01*
X457997Y396142D01*
Y395591D01*
X458208Y395082D01*
X458350Y394940D01*
X458498Y394523D01*
X458147Y393851D01*
X457105Y393750D01*
X456859Y393996D01*
X456350Y394207D01*
X455798D01*
X455289Y393996D01*
X454899Y393606D01*
X454688Y393097D01*
Y392546D01*
X454899Y392037D01*
X455289Y391647D01*
X455798Y391436D01*
X456350D01*
X456859Y391647D01*
X457249Y392037D01*
X458296D01*
X458686Y391647D01*
X459195Y391436D01*
X459746D01*
X460256Y391647D01*
X460645Y392037D01*
X461692D01*
X462082Y391647D01*
X462592Y391436D01*
X463143D01*
X463652Y391647D01*
X464042Y392037D01*
X464253Y392546D01*
Y393097D01*
X464042Y393606D01*
X463652Y393996D01*
X463143Y394207D01*
X462592D01*
X462082Y393996D01*
X461880Y393794D01*
X460798Y393861D01*
X460360Y394488D01*
X460467Y394991D01*
X460558Y395082D01*
X460769Y395591D01*
Y396142D01*
X460558Y396652D01*
X460168Y397042D01*
X459658Y397252D01*
D02*
G37*
G36*
X483809Y394051D02*
X483257D01*
X482748Y393840D01*
X482358Y393451D01*
X482147Y392941D01*
Y392390D01*
X482358Y391881D01*
X482748Y391491D01*
X483257Y391280D01*
X483809D01*
X484318Y391491D01*
X484708Y391881D01*
X484919Y392390D01*
Y392941D01*
X484708Y393451D01*
X484318Y393840D01*
X483809Y394051D01*
D02*
G37*
G36*
X534761Y393318D02*
X534164D01*
X533613Y393090D01*
X533191Y392668D01*
X532963Y392116D01*
Y391519D01*
X533191Y390968D01*
X533613Y390546D01*
X534164Y390318D01*
X534761D01*
X535312Y390546D01*
X535734Y390968D01*
X535963Y391519D01*
Y392116D01*
X535734Y392668D01*
X535312Y393090D01*
X534761Y393318D01*
D02*
G37*
G36*
X498299Y393408D02*
X497865D01*
X497465Y393242D01*
X497158Y392935D01*
X496992Y392534D01*
Y392100D01*
X497158Y391700D01*
X497196Y391662D01*
X497378Y391378D01*
X497393Y390797D01*
X497351Y390440D01*
X497234Y390158D01*
Y389724D01*
X497400Y389323D01*
X497707Y389016D01*
X498107Y388850D01*
X498541D01*
X498942Y389016D01*
X499249Y389323D01*
X499415Y389724D01*
Y390158D01*
X499249Y390559D01*
X499211Y390597D01*
X499029Y390880D01*
X499013Y391461D01*
X499056Y391818D01*
X499173Y392100D01*
Y392534D01*
X499007Y392935D01*
X498700Y393242D01*
X498299Y393408D01*
D02*
G37*
G36*
X492557Y392678D02*
X492123D01*
X491722Y392512D01*
X491416Y392206D01*
X491250Y391805D01*
Y391371D01*
X491416Y390970D01*
X491645Y390510D01*
X491416Y390049D01*
X491250Y389648D01*
Y389214D01*
X491416Y388813D01*
X491722Y388507D01*
X492123Y388340D01*
X492557D01*
X492958Y388507D01*
X493265Y388813D01*
X493431Y389214D01*
Y389648D01*
X493265Y390049D01*
X493035Y390510D01*
X493265Y390970D01*
X493431Y391371D01*
Y391805D01*
X493265Y392206D01*
X492958Y392512D01*
X492557Y392678D01*
D02*
G37*
G36*
X483251Y389077D02*
X482700D01*
X482190Y388866D01*
X481801Y388476D01*
X481590Y387967D01*
Y387416D01*
X481801Y386907D01*
X482190Y386517D01*
X482700Y386306D01*
X483251D01*
X483760Y386517D01*
X484150Y386907D01*
X484361Y387416D01*
Y387967D01*
X484150Y388476D01*
X483760Y388866D01*
X483251Y389077D01*
D02*
G37*
G36*
X518190Y387622D02*
X517594D01*
X517042Y387394D01*
X516620Y386972D01*
X516392Y386420D01*
Y385824D01*
X516620Y385272D01*
X517042Y384850D01*
X517594Y384622D01*
X518190D01*
X518742Y384850D01*
X519164Y385272D01*
X519392Y385824D01*
Y386420D01*
X519164Y386972D01*
X518742Y387394D01*
X518190Y387622D01*
D02*
G37*
G36*
X508725Y390891D02*
X504113D01*
X503677Y390456D01*
Y382457D01*
X504500Y381634D01*
X508571Y381611D01*
X508741Y381610D01*
X508741Y381610D01*
X508773Y381610D01*
X509338Y382175D01*
X509338Y382361D01*
Y382361D01*
X509338Y382376D01*
Y390456D01*
X509160D01*
X508725Y390891D01*
D02*
G37*
G36*
X566956Y384019D02*
X566359D01*
X565808Y383791D01*
X565386Y383369D01*
X565158Y382818D01*
Y382221D01*
X565294Y381891D01*
X565313Y381841D01*
X565132Y381438D01*
X564525Y380886D01*
X564476Y380872D01*
X564355Y380872D01*
X563913D01*
X563362Y380643D01*
X562940Y380221D01*
X562711Y379670D01*
Y379073D01*
X562940Y378522D01*
X563362Y378100D01*
X563913Y377871D01*
X564510D01*
X565061Y378100D01*
X565483Y378522D01*
X565711Y379073D01*
Y379670D01*
X565575Y380000D01*
X565556Y380050D01*
X565737Y380453D01*
X566344Y381005D01*
X566393Y381019D01*
X566515Y381019D01*
X566956D01*
X567507Y381248D01*
X567929Y381670D01*
X568158Y382221D01*
Y382818D01*
X567929Y383369D01*
X567507Y383791D01*
X566956Y384019D01*
D02*
G37*
G36*
X511599Y376981D02*
X511048D01*
X510538Y376770D01*
X510149Y376380D01*
X509938Y375871D01*
Y375320D01*
X510149Y374810D01*
X510538Y374420D01*
X511048Y374209D01*
X511599D01*
X512108Y374420D01*
X512498Y374810D01*
X512709Y375320D01*
Y375871D01*
X512498Y376380D01*
X512108Y376770D01*
X511599Y376981D01*
D02*
G37*
G36*
X529546Y370117D02*
X528949D01*
X528398Y369889D01*
X527976Y369467D01*
X527747Y368916D01*
Y368319D01*
X527976Y367768D01*
X528398Y367346D01*
X528949Y367117D01*
X529546D01*
X530097Y367346D01*
X530519Y367768D01*
X530747Y368319D01*
Y368916D01*
X530519Y369467D01*
X530097Y369889D01*
X529546Y370117D01*
D02*
G37*
G36*
X497183Y369145D02*
X496586D01*
X496035Y368916D01*
X495613Y368494D01*
X495385Y367943D01*
Y367346D01*
X495613Y366795D01*
X496035Y366373D01*
X496586Y366145D01*
X497183D01*
X497734Y366373D01*
X498156Y366795D01*
X498385Y367346D01*
Y367943D01*
X498156Y368494D01*
X497734Y368916D01*
X497183Y369145D01*
D02*
G37*
G36*
X467511Y368312D02*
X466959D01*
X466450Y368101D01*
X466060Y367711D01*
X465849Y367202D01*
Y366651D01*
X466060Y366141D01*
X466450Y365752D01*
X466959Y365541D01*
X467511D01*
X468020Y365752D01*
X468410Y366141D01*
X468621Y366651D01*
Y367202D01*
X468410Y367711D01*
X468020Y368101D01*
X467511Y368312D01*
D02*
G37*
G36*
X516001Y369898D02*
X515528D01*
X515091Y369717D01*
X514757Y369383D01*
X514576Y368946D01*
Y368473D01*
X514757Y368036D01*
X515091Y367701D01*
X515114Y367595D01*
X515129Y366603D01*
X514958Y366432D01*
X514777Y365995D01*
Y365522D01*
X514958Y365085D01*
X515292Y364751D01*
X515729Y364570D01*
X515575Y363634D01*
X511457D01*
X511259Y364634D01*
X511539Y364750D01*
X511929Y365140D01*
X512140Y365649D01*
Y366200D01*
X511929Y366710D01*
X511539Y367099D01*
X511029Y367311D01*
X510478D01*
X509969Y367099D01*
X509969Y367099D01*
X509549Y366734D01*
X509180Y367038D01*
X508743Y367219D01*
X508270D01*
X507833Y367038D01*
X507498Y366704D01*
X507317Y366267D01*
Y365794D01*
X507498Y365357D01*
X507029Y364412D01*
X505863D01*
X500124Y358673D01*
X500069Y357935D01*
X500069Y357929D01*
X500070Y357923D01*
X502977Y355016D01*
X520718D01*
X520960Y354699D01*
X521248Y354016D01*
X521118Y353704D01*
Y353152D01*
X521329Y352643D01*
X521719Y352253D01*
X522229Y352042D01*
X522780D01*
X523289Y352253D01*
X523679Y352643D01*
X524149Y352967D01*
X524309Y352906D01*
X524663Y352760D01*
X524896Y351956D01*
X524932Y351770D01*
X524932Y351770D01*
X524804Y351577D01*
X524654Y351515D01*
X524347Y351209D01*
X524181Y350808D01*
Y350374D01*
X524347Y349973D01*
X524538Y349783D01*
X524634Y349367D01*
X524584Y348613D01*
X524488Y348516D01*
X524337Y348152D01*
Y347757D01*
X524488Y347393D01*
X524767Y347113D01*
X525132Y346962D01*
X525526D01*
X525891Y347113D01*
X526170Y347393D01*
X526321Y347757D01*
Y348152D01*
X526170Y348516D01*
X526040Y348646D01*
X525954Y349229D01*
X526040Y349816D01*
X526196Y349973D01*
X526197Y349975D01*
X526726Y350819D01*
X527208Y350835D01*
X527645Y351016D01*
X527980Y351350D01*
X529020Y351371D01*
X529354Y351037D01*
X529791Y350855D01*
X530264D01*
X530768Y350965D01*
X531103Y350630D01*
X531540Y350449D01*
X532013D01*
X532450Y350630D01*
X532784Y350965D01*
X532965Y351402D01*
Y351875D01*
X532784Y352312D01*
X532450Y352646D01*
X532013Y352827D01*
X531540D01*
X531036Y352718D01*
X530701Y353052D01*
X530264Y353233D01*
X529791D01*
X529354Y353052D01*
X529020Y352718D01*
X527980Y352697D01*
X527645Y353031D01*
X527208Y353212D01*
X527135D01*
X526506Y353723D01*
X526325Y354125D01*
Y354421D01*
X526114Y354930D01*
X525724Y355320D01*
X525214Y355531D01*
X524663D01*
X524154Y355320D01*
X524053Y355220D01*
X523794Y355262D01*
X523461Y356291D01*
X523485Y356367D01*
X526061Y358943D01*
Y359594D01*
X520289Y365365D01*
X519654D01*
X517923Y363634D01*
X516356D01*
X516202Y364570D01*
X516639Y364751D01*
X516973Y365085D01*
X517155Y365522D01*
Y365995D01*
X516973Y366432D01*
X516639Y366767D01*
X516616Y366873D01*
X516602Y367865D01*
X516773Y368036D01*
X516954Y368473D01*
Y368946D01*
X516773Y369383D01*
X516438Y369717D01*
X516001Y369898D01*
D02*
G37*
G36*
X484296Y363935D02*
X483823D01*
X483386Y363754D01*
X483052Y363419D01*
X482871Y362982D01*
Y362509D01*
X483052Y362072D01*
X483386Y361738D01*
X483823Y361557D01*
X484296D01*
X484733Y361738D01*
X485068Y362072D01*
X485249Y362509D01*
Y362982D01*
X485068Y363419D01*
X484733Y363754D01*
X484296Y363935D01*
D02*
G37*
G36*
X468334Y363650D02*
X467783D01*
X467274Y363439D01*
X466884Y363049D01*
X466673Y362540D01*
Y361989D01*
X466884Y361479D01*
X467274Y361089D01*
X467783Y360878D01*
X468334D01*
X468844Y361089D01*
X469233Y361479D01*
X469444Y361989D01*
Y362540D01*
X469233Y363049D01*
X468844Y363439D01*
X468334Y363650D01*
D02*
G37*
G36*
X559943Y363627D02*
X559347D01*
X558795Y363398D01*
X558373Y362976D01*
X558145Y362425D01*
Y361828D01*
X558373Y361277D01*
X558795Y360855D01*
X559347Y360627D01*
X559943D01*
X560495Y360855D01*
X560917Y361277D01*
X561145Y361828D01*
Y362425D01*
X560917Y362976D01*
X560495Y363398D01*
X559943Y363627D01*
D02*
G37*
G36*
X456538Y362320D02*
X455987D01*
X455478Y362109D01*
X455088Y361719D01*
X454877Y361210D01*
Y360658D01*
X455088Y360149D01*
X455478Y359759D01*
X455987Y359548D01*
X456538D01*
X457048Y359759D01*
X457438Y360149D01*
X457649Y360658D01*
Y361210D01*
X457438Y361719D01*
X457048Y362109D01*
X456538Y362320D01*
D02*
G37*
G36*
X478354Y363286D02*
X477881D01*
X477444Y363105D01*
X477109Y362770D01*
X476928Y362333D01*
Y361860D01*
X477109Y361423D01*
X477444Y361089D01*
X477646Y361005D01*
X477750Y360097D01*
X477730Y359970D01*
X477561Y359900D01*
X477226Y359565D01*
X477045Y359128D01*
Y358656D01*
X477226Y358219D01*
X477561Y357884D01*
X477998Y357703D01*
X478471D01*
X478908Y357884D01*
X479397Y358120D01*
X479840Y357838D01*
X480277Y357657D01*
X480750D01*
X481187Y357838D01*
X481521Y358173D01*
X481702Y358610D01*
Y359083D01*
X481521Y359520D01*
X481187Y359854D01*
X480750Y360035D01*
X480277D01*
X479840Y359854D01*
X479596Y359736D01*
X478951Y360095D01*
X478876Y360558D01*
X478859Y361157D01*
X479125Y361423D01*
X479306Y361860D01*
Y362333D01*
X479125Y362770D01*
X478791Y363105D01*
X478354Y363286D01*
D02*
G37*
G36*
X546620Y359699D02*
X546023D01*
X545472Y359471D01*
X545050Y359049D01*
X544822Y358497D01*
Y357901D01*
X545050Y357349D01*
X545472Y356927D01*
X546023Y356699D01*
X546620D01*
X547171Y356927D01*
X547593Y357349D01*
X547822Y357901D01*
Y358497D01*
X547593Y359049D01*
X547171Y359471D01*
X546620Y359699D01*
D02*
G37*
G36*
X487714Y360769D02*
X487241D01*
X486804Y360588D01*
X486470Y360254D01*
X486289Y359816D01*
Y359343D01*
X486470Y358906D01*
X486748Y358513D01*
X486421Y358170D01*
X486421Y358170D01*
X486240Y357733D01*
Y357259D01*
X486421Y356822D01*
X486755Y356488D01*
X487192Y356307D01*
X487665D01*
X488102Y356488D01*
X488437Y356822D01*
X488618Y357259D01*
Y357733D01*
X488437Y358170D01*
X488158Y358562D01*
X488485Y358906D01*
X488485Y358906D01*
X488666Y359343D01*
Y359816D01*
X488485Y360254D01*
X488151Y360588D01*
X487714Y360769D01*
D02*
G37*
G36*
X468261Y358978D02*
X467710D01*
X467201Y358767D01*
X466811Y358377D01*
X466600Y357867D01*
Y357316D01*
X466811Y356807D01*
X467201Y356417D01*
X467710Y356206D01*
X468261D01*
X468771Y356417D01*
X469161Y356807D01*
X469372Y357316D01*
Y357867D01*
X469161Y358377D01*
X468771Y358767D01*
X468261Y358978D01*
D02*
G37*
G36*
X539021Y356608D02*
X538470D01*
X537960Y356397D01*
X537571Y356008D01*
X537360Y355498D01*
Y354947D01*
X537571Y354438D01*
X537960Y354048D01*
X538470Y353837D01*
X539021D01*
X539530Y354048D01*
X539920Y354438D01*
X540131Y354947D01*
Y355498D01*
X539920Y356008D01*
X539530Y356397D01*
X539021Y356608D01*
D02*
G37*
G36*
X461612Y355570D02*
X461015D01*
X460464Y355341D01*
X460042Y354919D01*
X459813Y354368D01*
Y353771D01*
X460042Y353220D01*
X460464Y352798D01*
X461015Y352570D01*
X461612D01*
X462163Y352798D01*
X462585Y353220D01*
X462813Y353771D01*
Y354368D01*
X462585Y354919D01*
X462163Y355341D01*
X461612Y355570D01*
D02*
G37*
G36*
X559607Y354156D02*
X559010D01*
X558459Y353928D01*
X558037Y353506D01*
X557808Y352955D01*
Y352358D01*
X558037Y351807D01*
X558459Y351385D01*
X559010Y351156D01*
X559607D01*
X560158Y351385D01*
X560580Y351807D01*
X560808Y352358D01*
Y352955D01*
X560580Y353506D01*
X560158Y353928D01*
X559607Y354156D01*
D02*
G37*
G36*
X555825Y350694D02*
X555228D01*
X554677Y350465D01*
X554255Y350043D01*
X554027Y349492D01*
Y348895D01*
X554255Y348344D01*
X554677Y347922D01*
X555228Y347694D01*
X555825D01*
X556376Y347922D01*
X556798Y348344D01*
X557026Y348895D01*
Y349492D01*
X556798Y350043D01*
X556376Y350465D01*
X555825Y350694D01*
D02*
G37*
G36*
X504915Y350105D02*
X504363D01*
X503854Y349894D01*
X503464Y349504D01*
X503253Y348995D01*
Y348444D01*
X503464Y347934D01*
X503854Y347545D01*
X504363Y347334D01*
X504915D01*
X505424Y347545D01*
X505814Y347934D01*
X506025Y348444D01*
Y348995D01*
X505814Y349504D01*
X505424Y349894D01*
X504915Y350105D01*
D02*
G37*
G36*
X485619Y349051D02*
X485146D01*
X484709Y348870D01*
X484374Y348535D01*
X484193Y348098D01*
Y347625D01*
X484374Y347188D01*
X484709Y346854D01*
X485146Y346673D01*
X485619D01*
X486056Y346854D01*
X486390Y347188D01*
X486571Y347625D01*
Y348098D01*
X486390Y348535D01*
X486056Y348870D01*
X485619Y349051D01*
D02*
G37*
G36*
X534822Y348407D02*
X534349D01*
X533912Y348226D01*
X533578Y347891D01*
X533397Y347454D01*
Y346981D01*
X533578Y346544D01*
X533912Y346210D01*
X534349Y346029D01*
X534822D01*
X535259Y346210D01*
X535594Y346544D01*
X535775Y346981D01*
Y347454D01*
X535594Y347891D01*
X535259Y348226D01*
X534822Y348407D01*
D02*
G37*
G36*
X551609Y348812D02*
X551012D01*
X550460Y348584D01*
X550039Y348162D01*
X549810Y347610D01*
Y347013D01*
X550039Y346462D01*
X550460Y346040D01*
X551012Y345812D01*
X551609D01*
X552160Y346040D01*
X552582Y346462D01*
X552810Y347013D01*
Y347610D01*
X552582Y348162D01*
X552160Y348584D01*
X551609Y348812D01*
D02*
G37*
G36*
X493860Y347862D02*
X493387D01*
X492950Y347681D01*
X492615Y347346D01*
X492434Y346909D01*
Y346437D01*
X492615Y346000D01*
X492950Y345665D01*
X493387Y345484D01*
X493860D01*
X494297Y345665D01*
X494631Y346000D01*
X494812Y346437D01*
Y346909D01*
X494631Y347346D01*
X494297Y347681D01*
X493860Y347862D01*
D02*
G37*
G36*
X489095Y344930D02*
X488622D01*
X488185Y344749D01*
X487893Y344457D01*
X487769Y344582D01*
X487332Y344763D01*
X486859D01*
X486422Y344582D01*
X486087Y344247D01*
X485906Y343810D01*
Y343337D01*
X486087Y342900D01*
X486422Y342566D01*
X486859Y342385D01*
X487332D01*
X487769Y342566D01*
X488061Y342858D01*
X488185Y342733D01*
X488622Y342552D01*
X489095D01*
X489532Y342733D01*
X489867Y343068D01*
X490048Y343505D01*
Y343978D01*
X489867Y344415D01*
X489532Y344749D01*
X489095Y344930D01*
D02*
G37*
G36*
X546870Y351272D02*
X541609D01*
X540745Y350408D01*
X540691D01*
X540689Y344607D01*
X539689Y344408D01*
X539666Y344463D01*
X539277Y344853D01*
X538767Y345064D01*
X538216D01*
X537707Y344853D01*
X537317Y344463D01*
X537106Y343954D01*
Y343402D01*
X537317Y342893D01*
X537707Y342503D01*
X538216Y342292D01*
X538767D01*
X539277Y342503D01*
X539666Y342893D01*
X539856Y343350D01*
X540193Y343453D01*
X540877Y343563D01*
X542307Y342134D01*
X542324D01*
Y340236D01*
X538703Y336605D01*
X537502D01*
X537320Y336959D01*
X537195Y337605D01*
X537449Y337858D01*
X537660Y338368D01*
Y338919D01*
X537449Y339428D01*
X537059Y339818D01*
X536549Y340029D01*
X535998D01*
X535489Y339818D01*
X535099Y339428D01*
X534932Y339025D01*
X534726Y338832D01*
X533888Y338382D01*
X533793Y338401D01*
X530157D01*
X529548Y339009D01*
Y340437D01*
X529907Y340676D01*
X530301D01*
X530666Y340827D01*
X530863Y341025D01*
X531083Y340805D01*
X531448Y340654D01*
X531842D01*
X532207Y340805D01*
X532436Y341034D01*
X532651Y340819D01*
X533016Y340668D01*
X533410D01*
X533775Y340819D01*
X534054Y341098D01*
X534205Y341463D01*
Y341858D01*
X534054Y342222D01*
X533775Y342502D01*
X533410Y342653D01*
X532889Y342896D01*
X532618Y343418D01*
Y343418D01*
X532593Y343478D01*
X532467Y343782D01*
X532188Y344061D01*
X531823Y344212D01*
X531307Y344518D01*
X531103Y345034D01*
X530952Y345398D01*
X530722Y345628D01*
X530904Y345811D01*
X531055Y346176D01*
Y346570D01*
X530904Y346935D01*
X530625Y347214D01*
X530261Y347365D01*
X529866D01*
X529501Y347214D01*
X529289Y347002D01*
X529034Y347257D01*
X528670Y347408D01*
X528275D01*
X527910Y347257D01*
X527631Y346978D01*
X527480Y346613D01*
X527248Y346088D01*
X526723Y345794D01*
X526723D01*
X526666Y345770D01*
X526358Y345643D01*
X526079Y345363D01*
X525928Y344999D01*
Y344604D01*
X526079Y344240D01*
X526292Y344027D01*
X526056Y343791D01*
X525905Y343426D01*
Y343031D01*
X526056Y342667D01*
X525973Y342161D01*
X525822Y341796D01*
Y341402D01*
X525973Y341037D01*
X526252Y340758D01*
X526617Y340607D01*
X527011D01*
X527509Y339730D01*
Y338799D01*
X527402Y338494D01*
X526690Y337875D01*
X526634D01*
X526240Y337712D01*
X525903Y337707D01*
X525139Y337855D01*
X525022Y337968D01*
X524801Y338190D01*
X524364Y338371D01*
X523891D01*
X523454Y338190D01*
X523119Y337855D01*
X522938Y337418D01*
Y336945D01*
X523119Y336508D01*
X523454Y336174D01*
X523891Y335993D01*
X524364D01*
X524579Y336082D01*
X524896Y336126D01*
X525735Y335704D01*
X525740Y335699D01*
X526125Y335314D01*
X526634Y335104D01*
X527001D01*
X527431Y334797D01*
X527837Y334291D01*
Y334035D01*
X528018Y333598D01*
X528352Y333263D01*
X528789Y333082D01*
X529262D01*
X529699Y333263D01*
X530034Y333598D01*
X530215Y334035D01*
Y334508D01*
X530034Y334945D01*
X529699Y335279D01*
X529376Y335413D01*
X529668Y336375D01*
X529735Y336361D01*
X530709D01*
X530736Y336342D01*
X531295Y335361D01*
X531270Y335301D01*
Y334750D01*
X531481Y334241D01*
X531871Y333851D01*
X532380Y333640D01*
X532932D01*
X533441Y333851D01*
X533831Y334241D01*
X533903Y334415D01*
X534472Y334680D01*
X534758Y334749D01*
X535041Y334749D01*
X535199Y334644D01*
X535312Y334621D01*
X535765Y333659D01*
X533571Y331458D01*
X533554Y331442D01*
X529777D01*
X528726Y330391D01*
X528736Y330381D01*
Y321292D01*
X529909Y320119D01*
X529949Y320159D01*
X535510D01*
X537471Y322121D01*
Y328733D01*
X537491D01*
X541178Y332420D01*
X542414Y332384D01*
X542427Y332371D01*
X542936Y332160D01*
X543487D01*
X543997Y332371D01*
X544386Y332761D01*
X544597Y333271D01*
Y333822D01*
X545372Y334566D01*
X547285D01*
X547537Y334314D01*
X548088Y334085D01*
X548685D01*
X549236Y334314D01*
X549658Y334736D01*
X549887Y335287D01*
Y335884D01*
X549658Y336435D01*
X549236Y336857D01*
X548685Y337086D01*
X548088D01*
X547537Y336857D01*
X547115Y336942D01*
X546787Y338028D01*
X548065Y339306D01*
X548022Y339349D01*
Y350119D01*
X546870Y351272D01*
D02*
G37*
G36*
X516678Y346736D02*
X516126D01*
X515617Y346525D01*
X515227Y346135D01*
X515016Y345625D01*
Y345074D01*
X515227Y344565D01*
X515617Y344175D01*
X516126Y343964D01*
X516678D01*
X517187Y344175D01*
X517577Y344565D01*
X517788Y345074D01*
Y345625D01*
X517577Y346135D01*
X517187Y346525D01*
X516678Y346736D01*
D02*
G37*
G36*
X466808Y345749D02*
X466256D01*
X465747Y345538D01*
X465357Y345148D01*
X465146Y344638D01*
Y344087D01*
X465357Y343578D01*
X465747Y343188D01*
X466256Y342977D01*
X466808D01*
X467317Y343188D01*
X467574Y343445D01*
X467612Y343437D01*
X468002Y343047D01*
X468511Y342836D01*
X469062D01*
X469571Y343047D01*
X469961Y343437D01*
X470172Y343947D01*
Y344498D01*
X469961Y345007D01*
X469571Y345397D01*
X469062Y345608D01*
X468511D01*
X468002Y345397D01*
X467745Y345140D01*
X467707Y345148D01*
X467317Y345538D01*
X466808Y345749D01*
D02*
G37*
G36*
X510717Y340599D02*
X510244D01*
X509807Y340418D01*
X509473Y340083D01*
X509292Y339646D01*
Y339173D01*
X509473Y338736D01*
X509807Y338402D01*
X510244Y338221D01*
X510717D01*
X511154Y338402D01*
X511489Y338736D01*
X511670Y339173D01*
Y339646D01*
X511489Y340083D01*
X511154Y340418D01*
X510717Y340599D01*
D02*
G37*
G36*
X515955Y340057D02*
X515482D01*
X515045Y339876D01*
X514711Y339541D01*
X514530Y339104D01*
Y338631D01*
X514711Y338194D01*
X515045Y337860D01*
X515482Y337679D01*
X515955D01*
X516392Y337860D01*
X516727Y338194D01*
X516908Y338631D01*
Y339104D01*
X516727Y339541D01*
X516392Y339876D01*
X515955Y340057D01*
D02*
G37*
G36*
X519849Y335244D02*
X519298D01*
X518789Y335033D01*
X518399Y334644D01*
X518188Y334134D01*
Y333583D01*
X518313Y333281D01*
X518105Y332817D01*
X518026Y332702D01*
X517691Y332368D01*
X517430D01*
X516993Y332187D01*
X516704Y331898D01*
X516659Y331853D01*
X516659Y331853D01*
X516474Y331493D01*
X515554Y331471D01*
X515499Y331506D01*
X515318Y331943D01*
X515318Y331943D01*
X515314Y331948D01*
X514984Y332278D01*
X514734Y332668D01*
X514915Y333105D01*
Y333578D01*
X514734Y334015D01*
X514400Y334349D01*
X513963Y334530D01*
X513490D01*
X513053Y334349D01*
X512718Y334015D01*
X512537Y333578D01*
Y333105D01*
X512718Y332668D01*
X513053Y332333D01*
X513302Y331943D01*
X513121Y331506D01*
Y331033D01*
X513302Y330596D01*
X513636Y330262D01*
X513900Y330153D01*
X513900Y330153D01*
X513994Y330086D01*
X514046Y329696D01*
X514006Y329134D01*
X513900Y329067D01*
X513899Y329066D01*
X513765Y329011D01*
X513431Y328677D01*
X513250Y328239D01*
Y327766D01*
X513431Y327329D01*
X513765Y326995D01*
X514202Y326814D01*
X514675D01*
X515112Y326995D01*
X515447Y327329D01*
X515628Y327766D01*
Y328239D01*
X515447Y328677D01*
X515112Y329011D01*
X514849Y329120D01*
X514849Y329120D01*
X514755Y329187D01*
X514703Y329577D01*
X514743Y330139D01*
X514849Y330206D01*
X514850Y330207D01*
X514984Y330262D01*
X515273Y330552D01*
X515318Y330596D01*
X515318Y330597D01*
X515503Y330957D01*
X516423Y330979D01*
X516478Y330943D01*
X516659Y330506D01*
X516659Y330506D01*
X516663Y330502D01*
X516993Y330171D01*
X517430Y329991D01*
X517903D01*
X518340Y330171D01*
X518675Y330506D01*
X518856Y330943D01*
Y331416D01*
X518777Y331606D01*
X519120Y332177D01*
X519241Y332325D01*
X519418Y332473D01*
X519849D01*
X520359Y332684D01*
X520748Y333074D01*
X520959Y333583D01*
Y334134D01*
X520748Y334644D01*
X520359Y335033D01*
X519849Y335244D01*
D02*
G37*
G36*
X554890Y337191D02*
X554294D01*
X553742Y336963D01*
X553320Y336541D01*
X553092Y335990D01*
Y335393D01*
X553170Y334363D01*
X552836Y334028D01*
X552655Y333591D01*
Y333118D01*
X552670Y333081D01*
X552738Y332906D01*
X552635Y332264D01*
X552411Y331799D01*
X552254Y331642D01*
X552073Y331205D01*
Y330732D01*
X552254Y330295D01*
X552589Y329960D01*
X553026Y329780D01*
X553499D01*
X553936Y329960D01*
X554270Y330295D01*
X554451Y330732D01*
Y331205D01*
X554436Y331242D01*
X554368Y331418D01*
X554471Y332059D01*
X554695Y332524D01*
X554851Y332681D01*
X555032Y333118D01*
Y333591D01*
X554918Y334073D01*
X555442Y334420D01*
X555864Y334842D01*
X556092Y335393D01*
Y335990D01*
X555864Y336541D01*
X555442Y336963D01*
X554890Y337191D01*
D02*
G37*
G36*
X475075Y331449D02*
X474603D01*
X474165Y331268D01*
X473831Y330934D01*
X473650Y330497D01*
Y330024D01*
X473831Y329587D01*
X474165Y329252D01*
X474603Y329071D01*
X475075D01*
X475513Y329252D01*
X475847Y329587D01*
X476028Y330024D01*
Y330497D01*
X475847Y330934D01*
X475513Y331268D01*
X475075Y331449D01*
D02*
G37*
G36*
X556254Y329735D02*
X555658D01*
X555106Y329507D01*
X554684Y329085D01*
X554456Y328533D01*
Y327937D01*
X554626Y327528D01*
X554192Y327348D01*
X553770Y326926D01*
X553542Y326375D01*
Y325778D01*
X553770Y325227D01*
X554192Y324805D01*
X554743Y324576D01*
X555340D01*
X555891Y324805D01*
X556313Y325227D01*
X556542Y325778D01*
Y326375D01*
X556372Y326784D01*
X556806Y326963D01*
X557228Y327385D01*
X557456Y327937D01*
Y328533D01*
X557228Y329085D01*
X556806Y329507D01*
X556254Y329735D01*
D02*
G37*
G36*
X543194Y326793D02*
X542597D01*
X542046Y326564D01*
X541624Y326142D01*
X541396Y325591D01*
Y324994D01*
X541624Y324443D01*
X542046Y324021D01*
X542597Y323793D01*
X543194D01*
X543746Y324021D01*
X544168Y324443D01*
X544396Y324994D01*
Y325591D01*
X544168Y326142D01*
X543746Y326564D01*
X543194Y326793D01*
D02*
G37*
G36*
X523066Y324408D02*
X522514D01*
X522005Y324197D01*
X521615Y323807D01*
X521404Y323298D01*
Y322746D01*
X521615Y322237D01*
X522005Y321847D01*
X522514Y321636D01*
X523066D01*
X523575Y321847D01*
X523965Y322237D01*
X524176Y322746D01*
Y323298D01*
X523965Y323807D01*
X523575Y324197D01*
X523066Y324408D01*
D02*
G37*
G36*
X473583Y324224D02*
X473031D01*
X472522Y324013D01*
X472132Y323623D01*
X471921Y323114D01*
Y322563D01*
X472132Y322054D01*
X472522Y321664D01*
X473031Y321453D01*
X473583D01*
X474092Y321664D01*
X474482Y322054D01*
X474693Y322563D01*
Y323114D01*
X474482Y323623D01*
X474092Y324013D01*
X473583Y324224D01*
D02*
G37*
G36*
X559637Y322808D02*
X559164D01*
X558727Y322627D01*
X558393Y322293D01*
X558212Y321856D01*
Y321383D01*
X558393Y320946D01*
X558727Y320611D01*
X559164Y320430D01*
X559637D01*
X560074Y320611D01*
X560408Y320946D01*
X560590Y321383D01*
Y321856D01*
X560408Y322293D01*
X560074Y322627D01*
X559637Y322808D01*
D02*
G37*
G36*
X548447Y322640D02*
X547850D01*
X547299Y322412D01*
X546877Y321990D01*
X546649Y321439D01*
Y320842D01*
X546877Y320291D01*
X547299Y319869D01*
X547850Y319640D01*
X548447D01*
X548998Y319869D01*
X549420Y320291D01*
X549649Y320842D01*
Y321439D01*
X549420Y321990D01*
X548998Y322412D01*
X548447Y322640D01*
D02*
G37*
G36*
X518679Y321696D02*
X518127D01*
X517618Y321485D01*
X517228Y321095D01*
X517017Y320586D01*
Y320035D01*
X517228Y319526D01*
X517618Y319136D01*
X518127Y318925D01*
X518679D01*
X519188Y319136D01*
X519578Y319526D01*
X519789Y320035D01*
Y320586D01*
X519578Y321095D01*
X519188Y321485D01*
X518679Y321696D01*
D02*
G37*
G36*
X472815Y319299D02*
X472264D01*
X471754Y319088D01*
X471364Y318698D01*
X471153Y318189D01*
Y317638D01*
X471364Y317128D01*
X471754Y316739D01*
X472264Y316528D01*
X472815D01*
X473324Y316739D01*
X473714Y317128D01*
X473925Y317638D01*
Y318189D01*
X473714Y318698D01*
X473324Y319088D01*
X472815Y319299D01*
D02*
G37*
G36*
X466319Y322449D02*
X465768D01*
X465258Y322238D01*
X464868Y321848D01*
X464657Y321339D01*
Y320787D01*
X464868Y320278D01*
X465258Y319888D01*
X465540Y319771D01*
X465667Y318936D01*
X465640Y318730D01*
X465554Y318694D01*
X465164Y318305D01*
X464953Y317795D01*
Y317244D01*
X465164Y316735D01*
X465554Y316345D01*
X466063Y316134D01*
X466614D01*
X467124Y316345D01*
X467513Y316735D01*
X467724Y317244D01*
Y317795D01*
X467513Y318305D01*
X467124Y318694D01*
X466842Y318811D01*
X466714Y319646D01*
X466742Y319852D01*
X466828Y319888D01*
X467218Y320278D01*
X467429Y320787D01*
Y321339D01*
X467218Y321848D01*
X466828Y322238D01*
X466319Y322449D01*
D02*
G37*
G36*
X470256Y309949D02*
X469705D01*
X469195Y309738D01*
X468806Y309348D01*
X468595Y308839D01*
Y308287D01*
X468806Y307778D01*
X469195Y307388D01*
X469705Y307177D01*
X470256D01*
X470765Y307388D01*
X471155Y307778D01*
X471366Y308287D01*
Y308839D01*
X471155Y309348D01*
X470765Y309738D01*
X470256Y309949D01*
D02*
G37*
G36*
X557859Y310150D02*
X557263D01*
X556711Y309922D01*
X556289Y309500D01*
X556061Y308949D01*
Y308352D01*
X556289Y307801D01*
X556711Y307379D01*
X557263Y307150D01*
X557859D01*
X558411Y307379D01*
X558833Y307801D01*
X559061Y308352D01*
Y308949D01*
X558833Y309500D01*
X558411Y309922D01*
X557859Y310150D01*
D02*
G37*
G36*
X475323Y302972D02*
X474771D01*
X474262Y302761D01*
X473872Y302371D01*
X473661Y301862D01*
Y301310D01*
X473872Y300801D01*
X474262Y300411D01*
X474771Y300200D01*
X475323D01*
X475832Y300411D01*
X476222Y300801D01*
X476433Y301310D01*
Y301862D01*
X476222Y302371D01*
X475832Y302761D01*
X475323Y302972D01*
D02*
G37*
G36*
X550720Y300699D02*
X550123D01*
X549572Y300471D01*
X549150Y300049D01*
X548921Y299497D01*
Y298901D01*
X549150Y298349D01*
X549572Y297927D01*
X550123Y297699D01*
X550720D01*
X551271Y297927D01*
X551693Y298349D01*
X551921Y298901D01*
Y299497D01*
X551693Y300049D01*
X551271Y300471D01*
X550720Y300699D01*
D02*
G37*
G36*
X520490Y299313D02*
X519938D01*
X519429Y299102D01*
X519039Y298712D01*
X518828Y298202D01*
Y297651D01*
X519039Y297142D01*
X519429Y296752D01*
X519938Y296541D01*
X520490D01*
X520999Y296752D01*
X521507Y297054D01*
X521971Y296708D01*
X522480Y296497D01*
X523031D01*
X523541Y296708D01*
X523931Y297098D01*
X524142Y297607D01*
Y298159D01*
X523931Y298668D01*
X523541Y299058D01*
X523031Y299269D01*
X522480D01*
X521971Y299058D01*
X521463Y298756D01*
X520999Y299102D01*
X520490Y299313D01*
D02*
G37*
G36*
X497597Y299601D02*
X497045D01*
X496536Y299390D01*
X496146Y299001D01*
X495935Y298491D01*
Y297940D01*
X496146Y297430D01*
X496296Y296788D01*
X496085Y296278D01*
Y295727D01*
X496296Y295218D01*
X496686Y294828D01*
X497195Y294617D01*
X497746D01*
X498255Y294828D01*
X498645Y295218D01*
X498856Y295727D01*
Y296278D01*
X498645Y296788D01*
X498496Y297430D01*
X498707Y297940D01*
Y298491D01*
X498496Y299001D01*
X498106Y299390D01*
X497597Y299601D01*
D02*
G37*
G36*
X555804Y295248D02*
X555207D01*
X554656Y295020D01*
X554234Y294598D01*
X554005Y294047D01*
Y293450D01*
X554234Y292899D01*
X554656Y292477D01*
X555207Y292248D01*
X555804D01*
X556355Y292477D01*
X556777Y292899D01*
X557006Y293450D01*
Y294047D01*
X556777Y294598D01*
X556355Y295020D01*
X555804Y295248D01*
D02*
G37*
G36*
X495165Y286391D02*
X494614D01*
X494105Y286180D01*
X493715Y285791D01*
X493504Y285281D01*
Y284730D01*
X493715Y284221D01*
X494105Y283831D01*
X494614Y283620D01*
X495165D01*
X495675Y283831D01*
X496065Y284221D01*
X496276Y284730D01*
Y285281D01*
X496065Y285791D01*
X495675Y286180D01*
X495165Y286391D01*
D02*
G37*
G36*
X476353Y267100D02*
X475802D01*
X475293Y266889D01*
X474903Y266499D01*
X474692Y265989D01*
Y265438D01*
X474903Y264929D01*
X475293Y264539D01*
X475802Y264328D01*
X476353D01*
X476863Y264539D01*
X477252Y264929D01*
X477463Y265438D01*
Y265989D01*
X477252Y266499D01*
X476863Y266889D01*
X476353Y267100D01*
D02*
G37*
G36*
X484522Y266312D02*
X483971D01*
X483462Y266101D01*
X483072Y265711D01*
X482861Y265202D01*
Y264651D01*
X483072Y264141D01*
X483462Y263752D01*
X483971Y263541D01*
X484522D01*
X485032Y263752D01*
X485422Y264141D01*
X485633Y264651D01*
Y265202D01*
X485422Y265711D01*
X485032Y266101D01*
X484522Y266312D01*
D02*
G37*
G36*
X494073Y266247D02*
X493522D01*
X493013Y266036D01*
X492623Y265647D01*
X492412Y265137D01*
Y264586D01*
X492623Y264076D01*
X493013Y263687D01*
X493522Y263476D01*
X494073D01*
X494583Y263687D01*
X494973Y264076D01*
X495184Y264586D01*
Y265137D01*
X494973Y265647D01*
X494583Y266036D01*
X494073Y266247D01*
D02*
G37*
G36*
X460212Y268281D02*
X459660D01*
X459151Y268070D01*
X458761Y267680D01*
X458550Y267171D01*
Y266619D01*
X458761Y266110D01*
X459151Y265720D01*
X459285Y265664D01*
X459376Y264999D01*
X459371Y264585D01*
X459035Y264250D01*
X458824Y263741D01*
Y263189D01*
X459035Y262680D01*
X459425Y262290D01*
X459935Y262079D01*
X460486D01*
X460995Y262290D01*
X461385Y262680D01*
X461596Y263189D01*
Y263741D01*
X461385Y264250D01*
X460995Y264640D01*
X460861Y264696D01*
X460770Y265361D01*
X460776Y265775D01*
X461111Y266110D01*
X461322Y266619D01*
Y267171D01*
X461111Y267680D01*
X460721Y268070D01*
X460212Y268281D01*
D02*
G37*
G36*
X503440Y264669D02*
X502889D01*
X502380Y264458D01*
X501990Y264068D01*
X501779Y263559D01*
Y263007D01*
X501990Y262498D01*
X502380Y262108D01*
X502889Y261897D01*
X503440D01*
X503950Y262108D01*
X504340Y262498D01*
X504551Y263007D01*
Y263559D01*
X504340Y264068D01*
X503950Y264458D01*
X503440Y264669D01*
D02*
G37*
G36*
X555231Y282821D02*
Y259147D01*
X565411D01*
X565520Y259256D01*
Y282799D01*
X555231Y282821D01*
D02*
G37*
%LPD*%
D11*
X548265Y335585D02*
X548355Y335495D01*
X535589Y335585D02*
X548265D01*
X529735Y337381D02*
X533793D01*
X535589Y335585D01*
X528528Y338587D02*
X529735Y337381D01*
X528528Y338587D02*
Y341662D01*
D107*
X524753Y467728D02*
D03*
X500147D02*
D03*
D108*
X477647Y438696D02*
D03*
Y404680D02*
D03*
D109*
X461899Y438696D02*
D03*
Y404680D02*
D03*
D110*
X457204Y463037D02*
D03*
D111*
Y453037D02*
D03*
D112*
X563000Y289196D02*
D03*
X560216Y366650D02*
D03*
X559645Y362127D02*
D03*
X559308Y352656D02*
D03*
X555526Y349194D02*
D03*
X546321Y358199D02*
D03*
X548148Y321140D02*
D03*
X548387Y335585D02*
D03*
X555506Y293748D02*
D03*
X557561Y308650D02*
D03*
X542896Y325293D02*
D03*
X550421Y299199D02*
D03*
X507493Y466686D02*
D03*
X515438Y460219D02*
D03*
X522903Y452429D02*
D03*
X521876Y460466D02*
D03*
X517509Y466517D02*
D03*
X523308Y463989D02*
D03*
X551310Y347312D02*
D03*
X529247Y368617D02*
D03*
X534463Y391818D02*
D03*
X567605Y340399D02*
D03*
X567803Y331900D02*
D03*
X497744Y387720D02*
D03*
X566658Y382519D02*
D03*
X567776Y328237D02*
D03*
X565097Y453525D02*
D03*
X564211Y379372D02*
D03*
X555956Y328235D02*
D03*
X555042Y326076D02*
D03*
X554612Y338384D02*
D03*
X554592Y335691D02*
D03*
X547148Y366728D02*
D03*
X530674Y361049D02*
D03*
X513649Y396858D02*
D03*
X497169Y376584D02*
D03*
X523586Y421379D02*
D03*
X506268Y327895D02*
D03*
X502240D02*
D03*
X502180Y332002D02*
D03*
X498152D02*
D03*
X494123D02*
D03*
X498211Y327895D02*
D03*
X494183D02*
D03*
X489628Y332002D02*
D03*
X490155Y327895D02*
D03*
X486066Y332002D02*
D03*
X486126Y327895D02*
D03*
X511438Y396858D02*
D03*
X543859Y305976D02*
D03*
X533069Y377518D02*
D03*
X496884Y367645D02*
D03*
X556485Y456895D02*
D03*
X506209Y332002D02*
D03*
X562508Y465010D02*
D03*
X550140Y468198D02*
D03*
X566758Y461666D02*
D03*
X562482Y461679D02*
D03*
X566627Y464892D02*
D03*
X566417Y468289D02*
D03*
X562640Y468237D02*
D03*
X558652Y468224D02*
D03*
X554573Y468211D02*
D03*
X556391Y462592D02*
D03*
X548478Y462601D02*
D03*
X532772Y421330D02*
D03*
X461313Y354070D02*
D03*
X502253Y319131D02*
D03*
X490167D02*
D03*
X486139D02*
D03*
X494196D02*
D03*
X498224D02*
D03*
X506281D02*
D03*
X498358Y323424D02*
D03*
X486272D02*
D03*
X494329D02*
D03*
X490301D02*
D03*
X502386D02*
D03*
X506415D02*
D03*
X489951Y314448D02*
D03*
X493979D02*
D03*
X498008D02*
D03*
X502036D02*
D03*
X506065D02*
D03*
X485922D02*
D03*
X517892Y386122D02*
D03*
X561005Y456833D02*
D03*
X545614Y467233D02*
D03*
D113*
X568407Y302966D02*
D03*
X565924Y302962D02*
D03*
X558975Y298725D02*
D03*
X530502Y329726D02*
D03*
X520244Y329495D02*
D03*
X519574Y333859D02*
D03*
X532656Y335026D02*
D03*
X526910Y336489D02*
D03*
X506170Y456747D02*
D03*
X503671Y456816D02*
D03*
X538492Y343678D02*
D03*
X540656Y341110D02*
D03*
X538720Y349931D02*
D03*
X502694Y270622D02*
D03*
X502732Y272712D02*
D03*
X483533Y392666D02*
D03*
X521343Y360713D02*
D03*
X516612Y440080D02*
D03*
X513971Y440116D02*
D03*
X470946Y260713D02*
D03*
X492638Y432873D02*
D03*
X538745Y355223D02*
D03*
X494077Y302806D02*
D03*
X494890Y285006D02*
D03*
X493798Y264861D02*
D03*
X469191Y257670D02*
D03*
X538506Y320405D02*
D03*
X515048Y323000D02*
D03*
X525459Y320296D02*
D03*
X488205Y445881D02*
D03*
X488159Y447834D02*
D03*
X522504Y353428D02*
D03*
X543212Y333546D02*
D03*
X525038Y322643D02*
D03*
X522790Y323022D02*
D03*
X536274Y338643D02*
D03*
X565929Y320433D02*
D03*
X566039Y308558D02*
D03*
X568407Y311476D02*
D03*
X467986Y357592D02*
D03*
X466677Y347570D02*
D03*
X468989Y347727D02*
D03*
X466532Y344363D02*
D03*
X460079Y259966D02*
D03*
X476078Y265714D02*
D03*
X508073Y348535D02*
D03*
X516402Y345350D02*
D03*
X467100Y417572D02*
D03*
X467174Y424452D02*
D03*
X564918Y337030D02*
D03*
X512781Y425994D02*
D03*
X551614Y440660D02*
D03*
X532893Y359318D02*
D03*
X550429Y260375D02*
D03*
X547660Y260258D02*
D03*
X544738Y343529D02*
D03*
X505408Y296881D02*
D03*
X505388Y294109D02*
D03*
X505367Y291338D02*
D03*
X505626Y288578D02*
D03*
X507466Y286506D02*
D03*
X510204Y286072D02*
D03*
X512975D02*
D03*
X515747D02*
D03*
X518518D02*
D03*
X521290D02*
D03*
X524062D02*
D03*
X526833D02*
D03*
X529605D02*
D03*
X532377D02*
D03*
X535122Y285694D02*
D03*
X536416Y278645D02*
D03*
X539188D02*
D03*
X541507Y280162D02*
D03*
X544279D02*
D03*
X546532Y278548D02*
D03*
Y275776D02*
D03*
Y273005D02*
D03*
X545728Y262245D02*
D03*
X551482Y265563D02*
D03*
X551581Y268333D02*
D03*
X550844Y271005D02*
D03*
Y273777D02*
D03*
Y276548D02*
D03*
Y279320D02*
D03*
X550750Y282090D02*
D03*
X548941Y284190D02*
D03*
X546184Y284474D02*
D03*
X543413D02*
D03*
X540755Y285261D02*
D03*
X539156Y287525D02*
D03*
X531841Y290384D02*
D03*
X529069D02*
D03*
X526297D02*
D03*
X523526D02*
D03*
X520754D02*
D03*
X515211D02*
D03*
X512439D02*
D03*
X509674Y290570D02*
D03*
X507123Y303288D02*
D03*
X456142Y372881D02*
D03*
X462955Y387712D02*
D03*
X459383Y395867D02*
D03*
X459600Y372881D02*
D03*
X463057D02*
D03*
X462955Y382808D02*
D03*
X456118Y387712D02*
D03*
X459537D02*
D03*
X459497Y382808D02*
D03*
X462867Y392822D02*
D03*
X456074D02*
D03*
X456039Y382808D02*
D03*
X540757Y458763D02*
D03*
X551410Y414632D02*
D03*
X468128Y406431D02*
D03*
X510754Y365925D02*
D03*
X468059Y362264D02*
D03*
X549128Y309660D02*
D03*
X552403Y438734D02*
D03*
X511323Y375595D02*
D03*
X524985Y302799D02*
D03*
X524138Y305580D02*
D03*
X540815Y466797D02*
D03*
X538325Y425993D02*
D03*
X538927Y421162D02*
D03*
X543314Y420979D02*
D03*
X539411Y418176D02*
D03*
X542870Y425471D02*
D03*
X547367Y418176D02*
D03*
X543389D02*
D03*
X539444Y415424D02*
D03*
X543431Y415374D02*
D03*
X547434Y415257D02*
D03*
X546900Y411738D02*
D03*
X467449Y430559D02*
D03*
X467351Y413510D02*
D03*
X479895Y399959D02*
D03*
X467410Y410393D02*
D03*
X467386Y402371D02*
D03*
X474611Y434323D02*
D03*
X459471Y392822D02*
D03*
X466600Y442100D02*
D03*
X455233Y408100D02*
D03*
Y410690D02*
D03*
Y413280D02*
D03*
Y415870D02*
D03*
Y431410D02*
D03*
Y426230D02*
D03*
Y428820D02*
D03*
Y434000D02*
D03*
Y423640D02*
D03*
Y418460D02*
D03*
Y421050D02*
D03*
X466500Y446200D02*
D03*
X455250D02*
D03*
X462750D02*
D03*
X459000D02*
D03*
X477750D02*
D03*
X474000D02*
D03*
X470250D02*
D03*
X468550Y449100D02*
D03*
X472300D02*
D03*
X464800D02*
D03*
X476050D02*
D03*
X467025Y452750D02*
D03*
X470775D02*
D03*
X463275D02*
D03*
X474525D02*
D03*
X528966Y304522D02*
D03*
X455450Y399900D02*
D03*
X459200D02*
D03*
X466700D02*
D03*
X462021Y408914D02*
D03*
X458755Y408668D02*
D03*
X465376Y408489D02*
D03*
X468367Y434000D02*
D03*
X465083D02*
D03*
X461800D02*
D03*
X471650D02*
D03*
X458517D02*
D03*
X470350Y442100D02*
D03*
X474100D02*
D03*
X477850D02*
D03*
X459100D02*
D03*
X462850D02*
D03*
X455350D02*
D03*
X459527Y369355D02*
D03*
X520214Y297927D02*
D03*
X522756Y297883D02*
D03*
X517724Y291659D02*
D03*
X501551Y296088D02*
D03*
X501563Y298216D02*
D03*
X515737Y380228D02*
D03*
X467235Y366926D02*
D03*
X482975Y387691D02*
D03*
X551085Y421736D02*
D03*
X509895Y294480D02*
D03*
X558695Y319259D02*
D03*
X547948Y295166D02*
D03*
X559819Y307371D02*
D03*
X559400Y305228D02*
D03*
X559354Y314063D02*
D03*
X568008Y322826D02*
D03*
X504587Y305236D02*
D03*
X497471Y296003D02*
D03*
X497321Y298216D02*
D03*
X545665Y264897D02*
D03*
X515464Y423471D02*
D03*
X505688Y425974D02*
D03*
X538480Y270214D02*
D03*
X538393Y272758D02*
D03*
X538519Y267251D02*
D03*
X526866Y270214D02*
D03*
X526955Y267471D02*
D03*
X526829Y272978D02*
D03*
X505415Y445798D02*
D03*
X503049Y445809D02*
D03*
X535994Y290873D02*
D03*
X536013Y293284D02*
D03*
X524939Y354145D02*
D03*
X509483Y369202D02*
D03*
X500492Y419783D02*
D03*
X481542Y293239D02*
D03*
X477212D02*
D03*
X485873D02*
D03*
X475047Y301586D02*
D03*
X497768Y427425D02*
D03*
X521355Y435414D02*
D03*
X551117Y425693D02*
D03*
X554962Y443080D02*
D03*
X504639Y348719D02*
D03*
X456263Y360934D02*
D03*
X456105Y353641D02*
D03*
X544976Y270802D02*
D03*
X542417Y270901D02*
D03*
X522828Y270214D02*
D03*
X515109Y279239D02*
D03*
X547948Y297529D02*
D03*
X503165Y263283D02*
D03*
X542350Y411714D02*
D03*
X554962Y445691D02*
D03*
X551117Y431275D02*
D03*
X545374Y331673D02*
D03*
X544801Y462622D02*
D03*
X468786Y344222D02*
D03*
X503712Y438513D02*
D03*
X455752Y344847D02*
D03*
X506714Y386122D02*
D03*
X518403Y320310D02*
D03*
X521962Y328653D02*
D03*
X544547Y437720D02*
D03*
X534069Y451754D02*
D03*
X473307Y322838D02*
D03*
X469980Y308563D02*
D03*
X470079Y311417D02*
D03*
X472539Y317913D02*
D03*
X466043Y321063D02*
D03*
X460210Y263465D02*
D03*
X459936Y266895D02*
D03*
X484247Y264926D02*
D03*
X476268Y270044D02*
D03*
X520463Y271286D02*
D03*
X496949Y419783D02*
D03*
X466339Y317520D02*
D03*
D114*
X517667Y331179D02*
D03*
X529026Y334271D02*
D03*
X524127Y337182D02*
D03*
X524099Y449067D02*
D03*
X487095Y343574D02*
D03*
X488859Y343741D02*
D03*
X493036Y393109D02*
D03*
X492031Y351532D02*
D03*
X493313Y402740D02*
D03*
X530028Y352045D02*
D03*
X531777Y351638D02*
D03*
X526972Y352024D02*
D03*
X513726Y333341D02*
D03*
X515258Y314715D02*
D03*
X519466D02*
D03*
X523247D02*
D03*
X526797D02*
D03*
X517247D02*
D03*
X521466D02*
D03*
X525302D02*
D03*
X514310Y331270D02*
D03*
X538431Y438579D02*
D03*
X487149Y406700D02*
D03*
X534586Y347218D02*
D03*
X546690Y446499D02*
D03*
X520289Y431708D02*
D03*
X528844Y314693D02*
D03*
X510481Y339410D02*
D03*
X497972Y394416D02*
D03*
X499551Y351685D02*
D03*
X485265Y351681D02*
D03*
X485382Y347862D02*
D03*
X468431Y328834D02*
D03*
X465469Y328758D02*
D03*
X462570Y328834D02*
D03*
X471305Y329010D02*
D03*
X459755Y329064D02*
D03*
X457564Y330829D02*
D03*
X457364Y334234D02*
D03*
X457276Y337626D02*
D03*
X457652Y340117D02*
D03*
X467991Y341043D02*
D03*
X473586Y340831D02*
D03*
X553262Y330968D02*
D03*
X553843Y333355D02*
D03*
X559401Y321619D02*
D03*
X515269Y301511D02*
D03*
X516886Y300418D02*
D03*
X518963Y300375D02*
D03*
X521017Y300353D02*
D03*
X522755Y300342D02*
D03*
X524908Y300145D02*
D03*
X527072Y300123D02*
D03*
X530427Y301763D02*
D03*
X532405Y308615D02*
D03*
X532558Y304626D02*
D03*
X532722Y306527D02*
D03*
X530809Y314287D02*
D03*
X514242Y313172D02*
D03*
X531670Y302919D02*
D03*
X529327Y300544D02*
D03*
X513804Y303046D02*
D03*
X524494Y310001D02*
D03*
X520403Y312370D02*
D03*
X512576Y304578D02*
D03*
Y306895D02*
D03*
X515966Y365759D02*
D03*
X484059Y362746D02*
D03*
X478117Y362097D02*
D03*
X487477Y359580D02*
D03*
X487429Y357496D02*
D03*
X490220Y404364D02*
D03*
X493009Y387376D02*
D03*
X476895Y337792D02*
D03*
X474839Y330260D02*
D03*
X473320Y328984D02*
D03*
X480513Y358846D02*
D03*
X514439Y328003D02*
D03*
X515719Y338868D02*
D03*
X532231Y411440D02*
D03*
X478234Y358892D02*
D03*
X508506Y366031D02*
D03*
X521740Y444281D02*
D03*
X493623Y346673D02*
D03*
X515765Y368709D02*
D03*
X471073Y340865D02*
D03*
X465250Y340936D02*
D03*
X536011Y455060D02*
D03*
X532704D02*
D03*
X516808Y433616D02*
D03*
X461798Y340465D02*
D03*
X461925Y335048D02*
D03*
X459598Y334665D02*
D03*
D115*
X528528Y341662D02*
D03*
X528467Y343157D02*
D03*
D03*
X526814Y341599D02*
D03*
D03*
X530111Y344836D02*
D03*
D03*
X530104Y341669D02*
D03*
D03*
X528472Y346416D02*
D03*
D03*
X527985Y435403D02*
D03*
D03*
X527512Y452759D02*
D03*
D03*
X527489Y450805D02*
D03*
D03*
X529399Y452760D02*
D03*
D03*
X529508Y450742D02*
D03*
D03*
X531760Y427923D02*
D03*
D03*
X531738Y425970D02*
D03*
D03*
X533647Y427925D02*
D03*
D03*
X533756Y425906D02*
D03*
D03*
X524593Y425966D02*
D03*
D03*
X524484Y427985D02*
D03*
D03*
X522575Y426029D02*
D03*
D03*
X531140Y440137D02*
D03*
D03*
X534289Y440140D02*
D03*
D03*
X532700Y436983D02*
D03*
D03*
X530063Y346373D02*
D03*
D03*
X530068Y343220D02*
D03*
D03*
X531645Y341646D02*
D03*
D03*
X531626Y343220D02*
D03*
D03*
X533213Y341660D02*
D03*
D03*
X526897Y343229D02*
D03*
D03*
X525329Y347954D02*
D03*
D03*
X526920Y347953D02*
D03*
X533220Y346378D02*
D03*
X530070Y340078D02*
D03*
X526920Y344802D02*
D03*
D03*
X522597Y427983D02*
D03*
D03*
X532722Y435419D02*
D03*
D03*
X529565Y436992D02*
D03*
D03*
X527992D02*
D03*
D03*
X526413D02*
D03*
D03*
X531136Y441719D02*
D03*
D03*
X532716Y440142D02*
D03*
D03*
X532715Y441712D02*
D03*
D03*
X527997Y441710D02*
D03*
D03*
X526413Y441716D02*
D03*
D03*
X526421Y443291D02*
D03*
D03*
X526413Y444859D02*
D03*
D03*
X524841Y435414D02*
D03*
X534290D02*
D03*
Y443288D02*
D03*
X524841D02*
D03*
X529566Y440139D02*
D03*
X527991D02*
D03*
Y438564D02*
D03*
X529566D02*
D03*
X531141D02*
D03*
D116*
X492340Y389431D02*
D03*
Y391588D02*
D03*
X498324Y389941D02*
D03*
X498082Y392317D02*
D03*
X525272Y350591D02*
D03*
M02*
