M48
;Layer_Color=9474304
;FILE_FORMAT=2:5
INCH,LZ
;TYPE=PLATED
T01F00S00C0.00394
T02F00S00C0.00591
%
T01
X0513606Y033365
X0529175Y0334431
X053007Y0341653
X0531645
X053322Y0341645
X053007Y0343228
Y0344802
Y0346378
X0526912Y0344803
X052692Y0343228
Y0341653
X0525346Y0347953
X0534713Y0348598
X0532715Y0435414
X0527991
Y0436989
X0529566
X0526416
X0527991Y0441713
X0531141
Y0440139
X0532715
X0526416Y0443288
X0520818Y0432366
X0516808Y0433616
X054669Y0446499
X0493707Y0402306
T02
X0526959Y0350768
X0529133Y0350521
X052174Y0444281
M30
