M48
;Layer_Color=9474304
;FILE_FORMAT=2:5
INCH,LZ
;TYPE=PLATED
T02F00S00C0.00591
T03F00S00C0.00787
T04F00S00C0.00984
T05F00S00C0.01000
T06F00S00C0.01200
T08F00S00C0.04331
%
T02
X0515269Y0301511
X0516886Y0300418
X0518963Y0300375
X0521017Y0300353
X0522755Y0300342
X0524908Y0300145
X0527072Y0300123
X0529327Y0300544
X0530427Y0301763
X053167Y0302919
X0532558Y0304626
X0532722Y0306527
X0532405Y0308615
X0524494Y0310001
X0520403Y031237
X0512576Y0306895
Y0304578
X0513804Y0303046
X0468431Y0328834
X0465469Y0328758
X046257Y0328834
X0459755Y0329064
X0457564Y0330829
X0457364Y0334234
X0459598Y0334665
X0461925Y0335048
X0461798Y0340465
X046525Y0340936
X0467991Y0341043
X0457652Y0340117
X0457276Y0337626
X0471073Y0340865
X0473586Y0340831
X0476895Y0337792
X0474839Y033026
X047332Y0328984
X0471305Y032901
X0487097Y0344925
X0489824Y0343927
X0493623Y0346673
X0492363Y0351685
X0485265Y0351681
X0485382Y0347862
X0487429Y0357496
X0487477Y035958
X0484059Y0362746
X0478117Y0362097
X0478234Y0358892
X0480513Y0358846
X0499551Y0351685
X0510481Y033941
X0515719Y0338868
X051371Y0333246
X0514303Y0331229
X0514439Y0328003
X0517667Y0331179
X0524127Y0337182
X0529319Y0334271
X0534586Y0347218
X0531933Y0351656
X0530028Y0352044
X0526972Y0351936
X0525272Y0350591
X0515966Y0365759
X0515765Y0368709
X0508506Y0366031
X0498324Y0389941
X0498082Y0392317
X0497972Y0394416
X0493333Y0393659
X0492284Y0391975
Y0389431
X0493009Y0387376
X0493362Y0402789
X049022Y0404364
X0487149Y04067
X0532231Y041144
X0520289Y0431708
X0516808Y0433616
X052174Y0444281
X0523644Y044895
X0532704Y045506
X0536011
X0538431Y0438579
X054669Y0446499
X0553843Y0333355
X0553262Y0330968
X0559401Y0321619
X0530809Y0314287
X0528844Y0314693
X0526797Y0314813
X0525302Y0314844
X0523247Y0314783
X0521466Y0314888
X0519466Y0314954
X0517247Y031492
X0515258Y0314931
X0514242Y0313172
T03
X0474234Y0260238
X0476078Y0265714
X0476268Y0270044
X0484247Y0264926
X0493292Y0264952
X0503165Y0263283
X050273Y0269532
X0502607Y0271991
X0520463Y0271286
X0522828Y0270214
X0526866
X0526829Y0272978
X0526955Y0267471
X0538519Y0267251
X053848Y0270214
X0538393Y0272758
X0542417Y0270901
X0544976Y0270802
X0546532Y0273005
Y0275776
Y0278548
X0544279Y0280162
X0541507
X0539188Y0278645
X0536416
X0535122Y0285694
X0532377Y0286072
X0529605
X0526833
X0524062
X052129
X0518518
X0515747
X0512975
X0510204
X0507466Y0286506
X0505626Y0288578
X0505367Y0291338
X0505388Y0294109
X0505408Y0296881
X0501551Y0296088
X0501563Y0298216
X0497321Y0298216
X0497471Y0296003
X0494077Y0302806
X0504587Y0305236
X0507123Y0303288
X0509895Y029448
X0509674Y029057
X0512439Y0290384
X0515211
X0517724Y0291659
X0520754Y0290384
X0523526
X0526297
X0529069
X0531841
X0535994Y0290873
X0536013Y0293284
X0539156Y0287525
X0540755Y0285261
X0543413Y0284474
X0546184
X0548941Y028419
X055075Y028209
X0550844Y027932
Y0276548
Y0273777
Y0271005
X0551581Y0268333
X0551482Y0265563
X0550429Y0260375
X054766Y0260258
X0545728Y0262245
X0545665Y0264897
X0547948Y0295166
Y0297529
X0549128Y030966
X0559819Y0307371
X05594Y0305228
X0559677Y030178
X0559597Y0299322
X0565982Y0300856
X0565924Y0302962
X0566039Y0308558
X0568407Y0311476
X0528966Y0304522
X0524985Y0302799
X0524138Y030558
X0522756Y0297883
X0520214Y0297927
X0515109Y0279239
X0494814Y0284944
X0485873Y0293239
X0481542
X0477212
X0475047Y0301586
X046998Y0308563
X0470079Y0311417
X0459936Y0266895
X046021Y0263465
X0460079Y0259966
X0466339Y031752
X0466043Y0321063
X0466532Y0344363
X0466677Y034757
X0467986Y0357592
X0468059Y0362264
X0467235Y0366926
X0463057Y0372881
X04596
X0456142
X0459527Y0369355
X0456263Y0360934
X0456105Y0353641
X0455752Y0344847
X0456039Y0382808
X0459497
X0462955
Y0387712
X0459537
X0456118
X0456074Y0392822
X0459471
X0459383Y0395867
X04592Y03999
X045545
X0455233Y04081
Y041069
Y041328
Y041587
Y041846
Y042105
Y042364
Y042623
Y042882
Y043141
Y0434
X0458517
X04618
X0465083
X0468367
X0467449Y0430559
X0467174Y0424452
X04671Y0417572
X0467351Y041351
X046741Y0410393
X0465376Y0408489
X0462021Y0408914
X0458755Y0408668
X0468128Y0406431
X0467386Y0402371
X04667Y03999
X0462867Y0392822
X046285Y04421
X04666
X04665Y04462
X046275
X0459
X045525
X045535Y04421
X04591
X04648Y04491
X046855
X0467025Y045275
X0463275
X0470775
X0474525
X047605Y04491
X04723
X0474Y04462
X047775
X047785Y04421
X04741
X047035
X047025Y04462
X047165Y0434
X0474611Y0434323
X0492638Y0432873
X0497768Y0427425
X0496949Y0419783
X0500492
X0505688Y0425974
X0515464Y0423471
X051653Y0439148
X0513971Y043945
X0503712Y0438513
X0503049Y0445809
X0505415Y0445798
X0506547Y0455854
X0508904Y0455218
X0488159Y0447834
X0488205Y0445881
X0521355Y0435414
X0544547Y043772
X0552403Y0438734
X0551614Y044066
X0554962Y044308
Y0445691
X0551117Y0431275
Y0425693
X0551085Y0421736
X0547367Y0418176
X0547434Y0415257
X05469Y0411738
X054235Y0411714
X0543431Y0415374
X0543389Y0418176
X0543314Y0420979
X0538927Y0421162
X0539411Y0418176
X0539444Y0415424
X0538325Y0425993
X054287Y0425471
X055141Y0414632
X0534069Y0451754
X0544801Y0462622
X0515737Y0380228
X0511323Y0375595
X0509483Y0369202
X0510754Y0365925
X0521343Y0360713
X0522504Y0353428
X0524939Y0354145
X0532893Y0359318
X0538745Y0355238
X0538703Y0349915
X0538513Y0343657
X0540661Y034152
X0544738Y0343529
X0543212Y0333546
X0545374Y0331673
X0532656Y0335026
X0536274Y0338643
X0526813Y0336549
X0519546Y0333887
X0520244Y0329495
X0521962Y0328653
X052279Y0323022
X0525038Y0322643
X0525465Y0320248
X0518403Y032031
X0514758Y0322754
X0530502Y0329726
X0538632Y0320279
X0558695Y0319259
X0559354Y0314063
X0565929Y0320433
X0568008Y0322826
X0564918Y033703
X0516402Y034535
X0508073Y0348535
X0504639Y0348719
X0468989Y0347727
X0468786Y0344222
X0473307Y0322838
X0472539Y0317913
X0482975Y0387691
X0483533Y0392666
X0479895Y0399959
X0506714Y0386122
T04
X04875Y02625
X049875Y027
X051375
X05175Y02775
X0525
Y02925
X05475
X0555
X05625
X055875Y0285
X055125
X054375Y03
X054Y02625
X0525
X05175
X051
X049875Y0285
X049125
Y03
X05025Y02925
X048Y03075
Y02775
X04725
X0465Y02925
X04575
X0465Y03075
X04575Y02625
X046125Y0345
X0465Y03675
X04575
Y03975
X0465
Y04125
X04575
X046125Y042
X0465Y04275
X04575
X0465Y04575
X04725
X048
X049875Y0465
X050625
X051375
X053625
X0540815Y0466797
X0540757Y0458763
X055875Y045
X05625Y04425
Y04275
X055875Y042
X05625Y04125
X05475Y03975
X054
X05325
X0525Y04125
X0512781Y0425994
X05025Y04275
X050625Y0435
X049875
X05025Y04425
X049875Y045
X0495Y04125
X048375Y0405
X046875Y042
X047625Y036
X051375Y0345
X0555Y03525
X055875Y036
X05475Y03225
T05
X0543859Y0305976
X0461313Y035407
X0496884Y0367645
X0497169Y0376584
X0497744Y038772
X0517892Y0386122
X0513649Y0396858
X0511438
X053495Y0391818
X0533069Y0377518
X0529247Y0368617
X0530674Y0361049
X0547148Y0366728
X0550717Y0347318
X0554612Y0338384
X0554592Y0335691
X0555956Y0328235
X0555042Y0326076
X0542896Y0325293
X0567776Y0328237
X0567803Y03319
X0567605Y0340399
X0564211Y0379372
X0566658Y0382519
X0565097Y0453525
X0561005Y0456833
X0556485Y0456895
X0556391Y0462592
X0562482Y0461679
X0562508Y046501
X056264Y0468237
X0566417Y0468289
X0566627Y0464892
X0566758Y0461666
X0558652Y0468224
X0554573Y0468211
X055014Y0468198
X0545614Y0467233
X0548478Y0462601
X0521036Y0463001
X0521876Y0460466
X0517457Y0460502
Y0464203
Y0467904
X0521087Y0468707
X0517095Y0447736
X0523586Y0421379
X0532772Y042133
T06
X0485922Y0314448
X0489951
X0493979
X0498008
X0502036
X0506065
X0506281Y0319131
X0502253
X0498224
X0494196
X0490167
X0486139
X0486272Y0323424
X0490301
X0494329
X0498358
X0502386
X0506415
X0506268Y0327895
X050224
X0498211
X0494183
X0490155
X0486126
X0486066Y0332002
X0489628
X0494123
X0498152
X050218
X0506209
T08
X0457204Y0453037
Y0463037
M30
