M48
;Layer_Color=9474304
;FILE_FORMAT=2:5
INCH,LZ
;TYPE=PLATED
T01F00S00C0.00394
%
T01
X0526841Y0341572
X0526897Y0343229
X052692Y0344802
X0528472Y0346416
X0530063Y0346373
X0530111Y0344836
X0530068Y034322
X0528523Y0343213
X0530062Y034166
X0531645Y0341646
X0533213Y034166
X0531626Y034322
X0525329Y0347954
X0524593Y0425966
X0522575Y0426029
X0522597Y0427983
X0524484Y0427985
X053176Y0427923
X0533647Y0427925
X0533756Y0425906
X0531738Y042597
X0532722Y0435419
X05327Y0436983
X0529565Y0436992
X0527992
X0526413
X0527992Y0435408
X0527997Y044171
X0526413Y0441716
X0526421Y0443291
X0526413Y0444859
X0527489Y0450805
X0527512Y0452759
X0529399Y045276
X0529508Y0450742
X0531136Y0441719
X0532715Y0441712
X0532716Y0440142
X0534289Y044014
X053114Y0440137
M30
