G04*
G04 #@! TF.GenerationSoftware,Altium Limited,Altium Designer,25.0.2 (28)*
G04*
G04 Layer_Color=8421504*
%FSLAX25Y25*%
%MOIN*%
G70*
G04*
G04 #@! TF.SameCoordinates,D7229912-9587-4580-8BE0-27F1FE3F5B83*
G04*
G04*
G04 #@! TF.FilePolarity,Positive*
G04*
G01*
G75*
%ADD17R,0.03200X0.03500*%
%ADD18C,0.01575*%
%ADD19C,0.01063*%
%ADD20R,0.03937X0.03937*%
%ADD21R,0.00800X0.00800*%
%ADD22R,0.06903X0.03000*%
%ADD23R,0.04500X0.01200*%
%ADD24R,0.04500X0.02400*%
%ADD25R,0.10984X0.02913*%
%ADD26R,0.02400X0.01024*%
%ADD27R,0.01400X0.03200*%
%ADD28C,0.03937*%
%ADD29R,0.00803X0.03581*%
%ADD30R,0.03581X0.00803*%
%ADD31R,0.02187X0.01299*%
%ADD32R,0.02362X0.02362*%
%ADD33R,0.02087X0.02362*%
%ADD34R,0.02362X0.02087*%
%ADD35R,0.03500X0.03200*%
%ADD36R,0.04724X0.04724*%
%ADD37C,0.00866*%
%ADD38R,0.01500X0.01300*%
%ADD39R,0.01300X0.01500*%
%ADD40R,0.02323X0.02362*%
%ADD41R,0.01575X0.01890*%
%ADD42R,0.00984X0.01417*%
%ADD43R,0.06496X0.01968*%
%ADD44R,0.04331X0.04724*%
%ADD45R,0.02800X0.02000*%
%ADD46R,0.01900X0.02000*%
%ADD47R,0.03900X0.04100*%
%ADD48R,0.04100X0.08700*%
%ADD49R,0.01968X0.06496*%
%ADD50R,0.02362X0.02323*%
%ADD51R,0.05100X0.03200*%
%ADD52R,0.03800X0.02000*%
%ADD53R,0.03150X0.03150*%
%ADD54R,0.04331X0.02362*%
%ADD55R,0.03661X0.03976*%
%ADD56R,0.03976X0.03661*%
G36*
X507604Y332139D02*
X503272D01*
Y336471D01*
X507604D01*
Y332139D01*
D02*
G37*
G36*
X502484D02*
X498152D01*
Y336471D01*
X502484D01*
Y332139D01*
D02*
G37*
G36*
X497364D02*
X493032D01*
Y336471D01*
X497364D01*
Y332139D01*
D02*
G37*
G36*
X492244D02*
X487912D01*
Y336471D01*
X492244D01*
Y332139D01*
D02*
G37*
G36*
X487124D02*
X482792D01*
Y336471D01*
X487124D01*
Y332139D01*
D02*
G37*
G36*
X507604Y327019D02*
X503272D01*
Y331351D01*
X507604D01*
Y327019D01*
D02*
G37*
G36*
X502484D02*
X498152D01*
Y331351D01*
X502484D01*
Y327019D01*
D02*
G37*
G36*
X497364D02*
X493032D01*
Y331351D01*
X497364D01*
Y327019D01*
D02*
G37*
G36*
X492244D02*
X487912D01*
Y331351D01*
X492244D01*
Y327019D01*
D02*
G37*
G36*
X487124D02*
X482792D01*
Y331351D01*
X487124D01*
Y327019D01*
D02*
G37*
G36*
X507604Y321899D02*
X503272D01*
Y326231D01*
X507604D01*
Y321899D01*
D02*
G37*
G36*
X502484D02*
X498152D01*
Y326231D01*
X502484D01*
Y321899D01*
D02*
G37*
G36*
X497364D02*
X493032D01*
Y326231D01*
X497364D01*
Y321899D01*
D02*
G37*
G36*
X492244D02*
X487912D01*
Y326231D01*
X492244D01*
Y321899D01*
D02*
G37*
G36*
X487124D02*
X482792D01*
Y326231D01*
X487124D01*
Y321899D01*
D02*
G37*
G36*
X507604Y316779D02*
X503272D01*
Y321111D01*
X507604D01*
Y316779D01*
D02*
G37*
G36*
X502484D02*
X498152D01*
Y321111D01*
X502484D01*
Y316779D01*
D02*
G37*
G36*
X497364D02*
X493032D01*
Y321111D01*
X497364D01*
Y316779D01*
D02*
G37*
G36*
X492244D02*
X487912D01*
Y321111D01*
X492244D01*
Y316779D01*
D02*
G37*
G36*
X487124D02*
X482792D01*
Y321111D01*
X487124D01*
Y316779D01*
D02*
G37*
G36*
X507604Y311659D02*
X503272D01*
Y315991D01*
X507604D01*
Y311659D01*
D02*
G37*
G36*
X502484D02*
X498152D01*
Y315991D01*
X502484D01*
Y311659D01*
D02*
G37*
G36*
X497364D02*
X493032D01*
Y315991D01*
X497364D01*
Y311659D01*
D02*
G37*
G36*
X492244D02*
X487912D01*
Y315991D01*
X492244D01*
Y311659D01*
D02*
G37*
G36*
X487124D02*
X482792D01*
Y315991D01*
X487124D01*
Y311659D01*
D02*
G37*
D17*
X537684Y282318D02*
D03*
X532584D02*
D03*
X547964Y404033D02*
D03*
X542864D02*
D03*
X548118Y394270D02*
D03*
X543018D02*
D03*
X548204Y384476D02*
D03*
X543104D02*
D03*
X548396Y374278D02*
D03*
X543296D02*
D03*
X456078Y357385D02*
D03*
X461178D02*
D03*
X456029Y364359D02*
D03*
X461129D02*
D03*
X483464Y465977D02*
D03*
X488564D02*
D03*
X483672Y458588D02*
D03*
X488771D02*
D03*
D18*
X462593Y263352D02*
D03*
Y267289D02*
D03*
Y271226D02*
D03*
Y275163D02*
D03*
Y279100D02*
D03*
X466530Y263352D02*
D03*
Y267289D02*
D03*
Y271226D02*
D03*
Y275163D02*
D03*
Y279100D02*
D03*
X470467Y263352D02*
D03*
Y267289D02*
D03*
Y271226D02*
D03*
Y275163D02*
D03*
Y279100D02*
D03*
X474404Y263352D02*
D03*
Y267289D02*
D03*
Y271226D02*
D03*
Y275163D02*
D03*
Y279100D02*
D03*
X478341Y263352D02*
D03*
Y267289D02*
D03*
Y271226D02*
D03*
Y275163D02*
D03*
D19*
X524841Y433839D02*
D03*
Y435414D02*
D03*
Y436989D02*
D03*
Y438564D02*
D03*
Y440139D02*
D03*
Y441713D02*
D03*
Y443288D02*
D03*
Y444863D02*
D03*
X526416Y433839D02*
D03*
Y435414D02*
D03*
Y436989D02*
D03*
Y438564D02*
D03*
Y440139D02*
D03*
Y441713D02*
D03*
Y443288D02*
D03*
Y444863D02*
D03*
X527991Y433839D02*
D03*
Y435414D02*
D03*
Y436989D02*
D03*
Y438564D02*
D03*
Y440139D02*
D03*
Y441713D02*
D03*
Y443288D02*
D03*
Y444863D02*
D03*
X529566Y433839D02*
D03*
Y435414D02*
D03*
Y436989D02*
D03*
Y438564D02*
D03*
Y440139D02*
D03*
Y441713D02*
D03*
Y443288D02*
D03*
Y444863D02*
D03*
X531141Y433839D02*
D03*
Y435414D02*
D03*
Y436989D02*
D03*
Y438564D02*
D03*
Y440139D02*
D03*
Y441713D02*
D03*
Y443288D02*
D03*
Y444863D02*
D03*
X532715Y433839D02*
D03*
Y435414D02*
D03*
Y436989D02*
D03*
Y438564D02*
D03*
Y440139D02*
D03*
Y441713D02*
D03*
Y443288D02*
D03*
Y444863D02*
D03*
X534290Y433839D02*
D03*
Y435414D02*
D03*
Y436989D02*
D03*
Y438564D02*
D03*
Y440139D02*
D03*
Y441713D02*
D03*
Y443288D02*
D03*
Y444863D02*
D03*
D20*
X560878Y405470D02*
D03*
Y375652D02*
D03*
Y385959D02*
D03*
Y395816D02*
D03*
D21*
X506189Y301368D02*
D03*
X503878D02*
D03*
X501567D02*
D03*
Y299368D02*
D03*
X503878D02*
D03*
X506189D02*
D03*
D22*
X542486Y449905D02*
D03*
Y443815D02*
D03*
X517186Y444736D02*
D03*
Y450827D02*
D03*
X542870Y431562D02*
D03*
Y425471D02*
D03*
D23*
X480048Y426571D02*
D03*
Y422634D02*
D03*
Y420665D02*
D03*
Y424602D02*
D03*
Y428539D02*
D03*
Y416728D02*
D03*
Y418696D02*
D03*
Y414759D02*
D03*
D24*
Y431098D02*
D03*
Y434248D02*
D03*
Y409051D02*
D03*
Y412201D02*
D03*
D25*
X475551Y392840D02*
D03*
Y387840D02*
D03*
Y372840D02*
D03*
Y377840D02*
D03*
Y382840D02*
D03*
X459527Y377840D02*
D03*
Y392840D02*
D03*
Y382840D02*
D03*
Y387840D02*
D03*
Y372840D02*
D03*
D26*
X560435Y262602D02*
D03*
Y260752D02*
D03*
D27*
X557719Y261677D02*
D03*
X563152D02*
D03*
D28*
X533426Y364921D02*
D03*
X541438Y295309D02*
D03*
X507390Y420543D02*
D03*
X521893Y374857D02*
D03*
X543837Y318670D02*
D03*
X540886Y309582D02*
D03*
X502035Y453062D02*
D03*
X527398Y362763D02*
D03*
X513797Y434284D02*
D03*
X494453Y465666D02*
D03*
X517508Y415657D02*
D03*
X560634Y434473D02*
D03*
X550282Y449046D02*
D03*
X558678Y429127D02*
D03*
X551591Y414451D02*
D03*
X554993Y438280D02*
D03*
D29*
X482599Y339505D02*
D03*
X484174D02*
D03*
X485749D02*
D03*
X487324D02*
D03*
X488899D02*
D03*
X490474D02*
D03*
X492048D02*
D03*
X493623D02*
D03*
X495198D02*
D03*
X496773D02*
D03*
X498348D02*
D03*
X499922D02*
D03*
X501497D02*
D03*
X503072D02*
D03*
X504647D02*
D03*
X506222D02*
D03*
X507796D02*
D03*
Y308624D02*
D03*
X506222D02*
D03*
X504647D02*
D03*
X503072D02*
D03*
X501497D02*
D03*
X499922D02*
D03*
X498348D02*
D03*
X496773D02*
D03*
X495198D02*
D03*
X493623D02*
D03*
X492048D02*
D03*
X490474D02*
D03*
X488899D02*
D03*
X487324D02*
D03*
X485749D02*
D03*
X484174D02*
D03*
X482599D02*
D03*
D30*
X510639Y336663D02*
D03*
Y335088D02*
D03*
Y333514D02*
D03*
Y331939D02*
D03*
Y330364D02*
D03*
Y328789D02*
D03*
Y327215D02*
D03*
Y325640D02*
D03*
Y324065D02*
D03*
Y322490D02*
D03*
Y320915D02*
D03*
Y319340D02*
D03*
Y317766D02*
D03*
Y316191D02*
D03*
Y314616D02*
D03*
Y313041D02*
D03*
Y311467D02*
D03*
X479757D02*
D03*
Y313041D02*
D03*
Y314616D02*
D03*
Y316191D02*
D03*
Y317766D02*
D03*
Y319340D02*
D03*
Y320915D02*
D03*
Y322490D02*
D03*
Y324065D02*
D03*
Y325640D02*
D03*
Y327215D02*
D03*
Y328789D02*
D03*
Y330364D02*
D03*
Y331939D02*
D03*
Y333514D02*
D03*
Y335088D02*
D03*
Y336663D02*
D03*
D31*
X548745Y262830D02*
D03*
X551838D02*
D03*
X548688Y267062D02*
D03*
X545595D02*
D03*
D32*
X465748Y466142D02*
D03*
Y462598D02*
D03*
D33*
X545374Y331535D02*
D03*
X541933D02*
D03*
X542161Y338369D02*
D03*
X538720D02*
D03*
X518411Y302852D02*
D03*
X521852D02*
D03*
X504805Y346082D02*
D03*
X508246D02*
D03*
X509648Y279239D02*
D03*
X513089D02*
D03*
X556888Y305228D02*
D03*
X553447D02*
D03*
X556888Y299273D02*
D03*
X553447D02*
D03*
X565844Y311436D02*
D03*
X562403D02*
D03*
X565734Y323110D02*
D03*
X562293D02*
D03*
X463718Y331865D02*
D03*
X460278D02*
D03*
X463818Y337465D02*
D03*
X460378D02*
D03*
X518403Y320310D02*
D03*
X521844D02*
D03*
X497438Y300446D02*
D03*
X493997D02*
D03*
X541106Y437720D02*
D03*
X544547D02*
D03*
X551521Y443080D02*
D03*
X554962D02*
D03*
X524539Y465805D02*
D03*
X521098D02*
D03*
X522795Y325119D02*
D03*
X526236D02*
D03*
D34*
X517692Y297921D02*
D03*
Y294480D02*
D03*
X529811Y311379D02*
D03*
Y307938D02*
D03*
X532893Y357298D02*
D03*
Y353857D02*
D03*
X515702Y374802D02*
D03*
Y378243D02*
D03*
X524887Y460433D02*
D03*
Y456992D02*
D03*
X554844Y382526D02*
D03*
Y385967D02*
D03*
X555036Y372328D02*
D03*
Y375769D02*
D03*
X554605Y402083D02*
D03*
Y405524D02*
D03*
X554759Y392320D02*
D03*
Y395761D02*
D03*
X491240Y451228D02*
D03*
Y447787D02*
D03*
X471937Y344270D02*
D03*
Y347711D02*
D03*
X521962Y334114D02*
D03*
Y330673D02*
D03*
X510697Y301209D02*
D03*
Y297768D02*
D03*
X472933Y315008D02*
D03*
Y311567D02*
D03*
X477272Y344330D02*
D03*
Y347771D02*
D03*
X517675Y325361D02*
D03*
Y328802D02*
D03*
X527146Y334111D02*
D03*
Y330671D02*
D03*
X527454Y353874D02*
D03*
Y357315D02*
D03*
X538702Y346455D02*
D03*
Y349896D02*
D03*
X518974Y439076D02*
D03*
Y435635D02*
D03*
X508529Y429358D02*
D03*
Y425917D02*
D03*
D35*
X490261Y395068D02*
D03*
Y400168D02*
D03*
D36*
X530914Y458763D02*
D03*
X540757D02*
D03*
X540893Y466690D02*
D03*
X531050D02*
D03*
D37*
X528495Y340078D02*
D03*
X533220Y347953D02*
D03*
Y346378D02*
D03*
Y344803D02*
D03*
Y343228D02*
D03*
Y341653D02*
D03*
Y340078D02*
D03*
X531645Y347953D02*
D03*
Y346378D02*
D03*
Y344803D02*
D03*
Y343228D02*
D03*
Y341653D02*
D03*
Y340078D02*
D03*
X530070Y347953D02*
D03*
Y346378D02*
D03*
Y344803D02*
D03*
Y343228D02*
D03*
Y341653D02*
D03*
Y340078D02*
D03*
X528495Y347953D02*
D03*
Y346378D02*
D03*
Y344803D02*
D03*
Y343228D02*
D03*
Y341653D02*
D03*
X526920Y347953D02*
D03*
Y346378D02*
D03*
Y344803D02*
D03*
Y343228D02*
D03*
Y341653D02*
D03*
Y340078D02*
D03*
X525346Y347953D02*
D03*
Y346378D02*
D03*
Y344803D02*
D03*
Y343228D02*
D03*
Y341653D02*
D03*
Y340078D02*
D03*
D38*
X556288Y316943D02*
D03*
Y314974D02*
D03*
X549088D02*
D03*
Y316943D02*
D03*
D39*
X553673Y319359D02*
D03*
X555641D02*
D03*
X551704D02*
D03*
X555641Y312559D02*
D03*
X553673D02*
D03*
X549736Y319359D02*
D03*
Y312559D02*
D03*
X551704D02*
D03*
D40*
X562463Y317518D02*
D03*
X565770D02*
D03*
X509483Y369202D02*
D03*
X512790D02*
D03*
X518511Y369209D02*
D03*
X521818D02*
D03*
X565829Y305497D02*
D03*
X562522D02*
D03*
X499995Y263184D02*
D03*
X496688D02*
D03*
X473835Y356536D02*
D03*
X470527D02*
D03*
X473712Y362214D02*
D03*
X470405D02*
D03*
X535657Y411575D02*
D03*
X538964D02*
D03*
X509366Y438463D02*
D03*
X506059D02*
D03*
X536249Y331570D02*
D03*
X532942D02*
D03*
D41*
X496263Y278161D02*
D03*
Y272964D02*
D03*
D42*
X502705Y274569D02*
D03*
Y277876D02*
D03*
D43*
X515418Y420485D02*
D03*
Y429540D02*
D03*
D44*
X481542Y293239D02*
D03*
X492412Y351676D02*
D03*
D45*
X477212Y293239D02*
D03*
X485873D02*
D03*
X488081Y351676D02*
D03*
X496742D02*
D03*
D46*
X474416Y293239D02*
D03*
X488668D02*
D03*
X485286Y351676D02*
D03*
X499538D02*
D03*
D47*
X532673Y264210D02*
D03*
D48*
X538480Y270214D02*
D03*
X526866D02*
D03*
D49*
X517313Y271188D02*
D03*
X508258D02*
D03*
D50*
X547751Y303757D02*
D03*
Y300450D02*
D03*
X490000Y406700D02*
D03*
Y410007D02*
D03*
Y433053D02*
D03*
Y429746D02*
D03*
X518699Y340924D02*
D03*
Y344232D02*
D03*
X535963Y295530D02*
D03*
Y298837D02*
D03*
X472462Y462933D02*
D03*
Y466240D02*
D03*
X538582Y322526D02*
D03*
Y325833D02*
D03*
D51*
X470998Y331965D02*
D03*
Y337565D02*
D03*
D52*
X524138Y312488D02*
D03*
X517238D02*
D03*
Y307988D02*
D03*
X524138D02*
D03*
D53*
X536180Y306069D02*
D03*
Y311974D02*
D03*
D54*
X500492Y416043D02*
D03*
Y419783D02*
D03*
Y423524D02*
D03*
X490256Y416043D02*
D03*
Y419783D02*
D03*
Y423524D02*
D03*
D55*
X551117Y431275D02*
D03*
Y425693D02*
D03*
X508210Y451434D02*
D03*
Y445851D02*
D03*
X548478Y462601D02*
D03*
Y457018D02*
D03*
X556485Y462478D02*
D03*
Y456895D02*
D03*
X532772Y421330D02*
D03*
Y426913D02*
D03*
X523586Y421379D02*
D03*
Y426961D02*
D03*
D56*
X534069Y451754D02*
D03*
X528487D02*
D03*
M02*
