G04*
G04 #@! TF.GenerationSoftware,Altium Limited,Altium Designer,25.0.2 (28)*
G04*
G04 Layer_Color=128*
%FSLAX25Y25*%
%MOIN*%
G70*
G04*
G04 #@! TF.SameCoordinates,2D09E9E8-CCE1-4554-9EFB-DE4E2928A833*
G04*
G04*
G04 #@! TF.FilePolarity,Positive*
G04*
G01*
G75*
%ADD16C,0.00500*%
D16*
X475035Y438657D02*
X480535D01*
X477785Y435907D02*
Y441407D01*
X475035Y404642D02*
X480535D01*
X477785Y401892D02*
Y407392D01*
X458487Y438657D02*
X465587D01*
X462037Y435107D02*
Y442207D01*
X458487Y404642D02*
X465587D01*
X462037Y401092D02*
Y408192D01*
X455038Y463037D02*
X459369D01*
X457204Y460872D02*
Y465202D01*
X455038Y453037D02*
X459369D01*
X457204Y450872D02*
Y455202D01*
X513415Y333246D02*
X514006D01*
X513710Y332950D02*
Y333541D01*
X493067Y402789D02*
X493657D01*
X493362Y402494D02*
Y403085D01*
X562008Y442500D02*
X562992D01*
X562500Y442008D02*
Y442992D01*
X562008Y427500D02*
X562992D01*
X562500Y427008D02*
Y427992D01*
X562008Y412500D02*
X562992D01*
X562500Y412008D02*
Y412992D01*
X562008Y292500D02*
X562992D01*
X562500Y292008D02*
Y292992D01*
X558258Y450000D02*
X559242D01*
X558750Y449508D02*
Y450492D01*
X558258Y420000D02*
X559242D01*
X558750Y419508D02*
Y420492D01*
X558258Y360000D02*
X559242D01*
X558750Y359508D02*
Y360492D01*
X554508Y352500D02*
X555492D01*
X555000Y352008D02*
Y352992D01*
X554508Y292500D02*
X555492D01*
X555000Y292008D02*
Y292992D01*
X558258Y285000D02*
X559242D01*
X558750Y284508D02*
Y285492D01*
X547008Y397500D02*
X547992D01*
X547500Y397008D02*
Y397992D01*
X547008Y322500D02*
X547992D01*
X547500Y322008D02*
Y322992D01*
X547008Y292500D02*
X547992D01*
X547500Y292008D02*
Y292992D01*
X550758Y285000D02*
X551742D01*
X551250Y284508D02*
Y285492D01*
X539508Y397500D02*
X540492D01*
X540000Y397008D02*
Y397992D01*
X543258Y300000D02*
X544242D01*
X543750Y299508D02*
Y300492D01*
X539508Y262500D02*
X540492D01*
X540000Y262008D02*
Y262992D01*
X535758Y465000D02*
X536742D01*
X536250Y464508D02*
Y465492D01*
X532008Y397500D02*
X532992D01*
X532500Y397008D02*
Y397992D01*
X524508Y412500D02*
X525492D01*
X525000Y412008D02*
Y412992D01*
X524508Y292500D02*
X525492D01*
X525000Y292008D02*
Y292992D01*
X524508Y277500D02*
X525492D01*
X525000Y277008D02*
Y277992D01*
X524508Y262500D02*
X525492D01*
X525000Y262008D02*
Y262992D01*
X517008Y277500D02*
X517992D01*
X517500Y277008D02*
Y277992D01*
X517008Y262500D02*
X517992D01*
X517500Y262008D02*
Y262992D01*
X513258Y465000D02*
X514242D01*
X513750Y464508D02*
Y465492D01*
X513258Y345000D02*
X514242D01*
X513750Y344508D02*
Y345492D01*
X513258Y270000D02*
X514242D01*
X513750Y269508D02*
Y270492D01*
X509508Y262500D02*
X510492D01*
X510000Y262008D02*
Y262992D01*
X505758Y465000D02*
X506742D01*
X506250Y464508D02*
Y465492D01*
X502008Y442500D02*
X502992D01*
X502500Y442008D02*
Y442992D01*
X505758Y435000D02*
X506742D01*
X506250Y434508D02*
Y435492D01*
X502008Y427500D02*
X502992D01*
X502500Y427008D02*
Y427992D01*
X502008Y292500D02*
X502992D01*
X502500Y292008D02*
Y292992D01*
X498258Y465000D02*
X499242D01*
X498750Y464508D02*
Y465492D01*
X498258Y450000D02*
X499242D01*
X498750Y449508D02*
Y450492D01*
X498258Y435000D02*
X499242D01*
X498750Y434508D02*
Y435492D01*
X494508Y412500D02*
X495492D01*
X495000Y412008D02*
Y412992D01*
X498258Y285000D02*
X499242D01*
X498750Y284508D02*
Y285492D01*
X498258Y270000D02*
X499242D01*
X498750Y269508D02*
Y270492D01*
X490758Y300000D02*
X491742D01*
X491250Y299508D02*
Y300492D01*
X490758Y285000D02*
X491742D01*
X491250Y284508D02*
Y285492D01*
X487008Y262500D02*
X487992D01*
X487500Y262008D02*
Y262992D01*
X479508Y457500D02*
X480492D01*
X480000Y457008D02*
Y457992D01*
X483258Y405000D02*
X484242D01*
X483750Y404508D02*
Y405492D01*
X479508Y307500D02*
X480492D01*
X480000Y307008D02*
Y307992D01*
X479508Y277500D02*
X480492D01*
X480000Y277008D02*
Y277992D01*
X472008Y457500D02*
X472992D01*
X472500Y457008D02*
Y457992D01*
X475758Y360000D02*
X476742D01*
X476250Y359508D02*
Y360492D01*
X472008Y277500D02*
X472992D01*
X472500Y277008D02*
Y277992D01*
X464508Y457500D02*
X465492D01*
X465000Y457008D02*
Y457992D01*
X464508Y427500D02*
X465492D01*
X465000Y427008D02*
Y427992D01*
X468258Y420000D02*
X469242D01*
X468750Y419508D02*
Y420492D01*
X464508Y412500D02*
X465492D01*
X465000Y412008D02*
Y412992D01*
X464508Y397500D02*
X465492D01*
X465000Y397008D02*
Y397992D01*
X464508Y367500D02*
X465492D01*
X465000Y367008D02*
Y367992D01*
X464508Y307500D02*
X465492D01*
X465000Y307008D02*
Y307992D01*
X464508Y292500D02*
X465492D01*
X465000Y292008D02*
Y292992D01*
X457008Y427500D02*
X457992D01*
X457500Y427008D02*
Y427992D01*
X460758Y420000D02*
X461742D01*
X461250Y419508D02*
Y420492D01*
X457008Y412500D02*
X457992D01*
X457500Y412008D02*
Y412992D01*
X457008Y397500D02*
X457992D01*
X457500Y397008D02*
Y397992D01*
X457008Y367500D02*
X457992D01*
X457500Y367008D02*
Y367992D01*
X460758Y345000D02*
X461742D01*
X461250Y344508D02*
Y345492D01*
X457008Y292500D02*
X457992D01*
X457500Y292008D02*
Y292992D01*
X457008Y262500D02*
X457992D01*
X457500Y262008D02*
Y262992D01*
X538135Y438579D02*
X538726D01*
X538431Y438283D02*
Y438874D01*
X531638Y351656D02*
X532229D01*
X531933Y351360D02*
Y351951D01*
X529733Y352044D02*
X530323D01*
X530028Y351749D02*
Y352340D01*
X486854Y406700D02*
X487444D01*
X487149Y406405D02*
Y406995D01*
X487812Y445881D02*
X488599D01*
X488205Y445487D02*
Y446274D01*
X487765Y447834D02*
X488552D01*
X488159Y447440D02*
Y448227D01*
X506153Y455854D02*
X506941D01*
X506547Y455460D02*
Y456247D01*
X508510Y455218D02*
X509297D01*
X508904Y454824D02*
Y455612D01*
X523349Y448950D02*
X523940D01*
X523644Y448655D02*
Y449246D01*
X534290Y347218D02*
X534881D01*
X534586Y346922D02*
Y347513D01*
X526677Y351936D02*
X527267D01*
X526972Y351641D02*
Y352232D01*
X529023Y334271D02*
X529614D01*
X529319Y333976D02*
Y334566D01*
X546395Y446499D02*
X546985D01*
X546690Y446204D02*
Y446794D01*
X519994Y431708D02*
X520584D01*
X520289Y431413D02*
Y432003D01*
X522111Y353428D02*
X522898D01*
X522504Y353034D02*
Y353822D01*
X521170Y314888D02*
X521761D01*
X521466Y314593D02*
Y315183D01*
X516952Y314920D02*
X517542D01*
X517247Y314625D02*
Y315216D01*
X528549Y314693D02*
X529139D01*
X528844Y314398D02*
Y314988D01*
X522952Y314783D02*
X523542D01*
X523247Y314488D02*
Y315078D01*
X525006Y314844D02*
X525597D01*
X525302Y314549D02*
Y315139D01*
X542818Y333546D02*
X543605D01*
X543212Y333153D02*
Y333940D01*
X524644Y322643D02*
X525431D01*
X525038Y322249D02*
Y323036D01*
X522396Y323022D02*
X523184D01*
X522790Y322628D02*
Y323416D01*
X532262Y335026D02*
X533050D01*
X532656Y334632D02*
Y335419D01*
X535880Y338643D02*
X536667D01*
X536274Y338250D02*
Y339037D01*
X540268Y341520D02*
X541055D01*
X540661Y341126D02*
Y341914D01*
X538352Y355238D02*
X539139D01*
X538745Y354844D02*
Y355631D01*
X538310Y349915D02*
X539097D01*
X538703Y349522D02*
Y350309D01*
X567105Y340399D02*
X568105D01*
X567605Y339899D02*
Y340899D01*
X567303Y331900D02*
X568303D01*
X567803Y331400D02*
Y332400D01*
X565535Y320433D02*
X566323D01*
X565929Y320040D02*
Y320827D01*
X565645Y308558D02*
X566432D01*
X566039Y308165D02*
Y308952D01*
X568013Y311476D02*
X568801D01*
X568407Y311082D02*
Y311870D01*
X467592Y357592D02*
X468379D01*
X467986Y357198D02*
Y357985D01*
X466283Y347570D02*
X467071D01*
X466677Y347176D02*
Y347964D01*
X468595Y347727D02*
X469382D01*
X468989Y347334D02*
Y348121D01*
X466138Y344363D02*
X466925D01*
X466532Y343969D02*
Y344757D01*
X473841Y260238D02*
X474628D01*
X474234Y259844D02*
Y260631D01*
X459685Y259966D02*
X460473D01*
X460079Y259572D02*
Y260360D01*
X475684Y265714D02*
X476471D01*
X476078Y265320D02*
Y266108D01*
X510185Y339410D02*
X510776D01*
X510481Y339115D02*
Y339705D01*
X507679Y348535D02*
X508467D01*
X508073Y348141D02*
Y348929D01*
X516008Y345350D02*
X516796D01*
X516402Y344956D02*
Y345744D01*
X497676Y394416D02*
X498267D01*
X497972Y394121D02*
Y394712D01*
X497244Y387720D02*
X498244D01*
X497744Y387220D02*
Y388220D01*
X493038Y393659D02*
X493628D01*
X493333Y393364D02*
Y393955D01*
X491989Y389431D02*
X492579D01*
X492284Y389136D02*
Y389726D01*
X466706Y417572D02*
X467493D01*
X467100Y417178D02*
Y417966D01*
X466781Y424452D02*
X467568D01*
X467174Y424058D02*
Y424845D01*
X521376Y460466D02*
X522376D01*
X521876Y459966D02*
Y460966D01*
X520587Y468707D02*
X521587D01*
X521087Y468207D02*
Y469207D01*
X514364Y322754D02*
X515152D01*
X514758Y322361D02*
Y323148D01*
X564524Y337030D02*
X565311D01*
X564918Y336636D02*
Y337424D01*
X566158Y382519D02*
X567158D01*
X566658Y382019D02*
Y383019D01*
X519850Y329495D02*
X520638D01*
X520244Y329102D02*
Y329889D01*
X567276Y328237D02*
X568276D01*
X567776Y327737D02*
Y328737D01*
X564597Y453525D02*
X565596D01*
X565097Y453025D02*
Y454025D01*
X563711Y379372D02*
X564711D01*
X564211Y378871D02*
Y379872D01*
X512289Y425994D02*
X513273D01*
X512781Y425502D02*
Y426486D01*
X499256Y351685D02*
X499846D01*
X499551Y351390D02*
Y351980D01*
X484970Y351681D02*
X485560D01*
X485265Y351386D02*
Y351977D01*
X485087Y347862D02*
X485677D01*
X485382Y347567D02*
Y348157D01*
X551220Y440660D02*
X552008D01*
X551614Y440266D02*
Y441054D01*
X468136Y328834D02*
X468726D01*
X468431Y328538D02*
Y329129D01*
X465173Y328758D02*
X465764D01*
X465469Y328463D02*
Y329053D01*
X462274Y328834D02*
X462865D01*
X462570Y328538D02*
Y329129D01*
X471010Y329010D02*
X471600D01*
X471305Y328715D02*
Y329305D01*
X459459Y329064D02*
X460050D01*
X459755Y328769D02*
Y329360D01*
X457269Y330829D02*
X457860D01*
X457564Y330534D02*
Y331125D01*
X457069Y334234D02*
X457659D01*
X457364Y333939D02*
Y334529D01*
X456981Y337626D02*
X457572D01*
X457276Y337331D02*
Y337922D01*
X457357Y340117D02*
X457947D01*
X457652Y339822D02*
Y340412D01*
X467696Y341043D02*
X468286D01*
X467991Y340748D02*
Y341339D01*
X473291Y340831D02*
X473882D01*
X473586Y340535D02*
Y341126D01*
X550217Y347318D02*
X551217D01*
X550717Y346818D02*
Y347818D01*
X552967Y330968D02*
X553558D01*
X553262Y330673D02*
Y331264D01*
X553548Y333355D02*
X554139D01*
X553843Y333059D02*
Y333650D01*
X532499Y359318D02*
X533287D01*
X532893Y358924D02*
Y359712D01*
X550035Y260375D02*
X550823D01*
X550429Y259981D02*
Y260769D01*
X547266Y260258D02*
X548054D01*
X547660Y259864D02*
Y260651D01*
X555456Y328235D02*
X556456D01*
X555956Y327735D02*
Y328735D01*
X554542Y326076D02*
X555542D01*
X555042Y325576D02*
Y326576D01*
X554112Y338384D02*
X555113D01*
X554612Y337884D02*
Y338884D01*
X554092Y335691D02*
X555092D01*
X554592Y335191D02*
Y336191D01*
X544344Y343529D02*
X545131D01*
X544738Y343135D02*
Y343922D01*
X530108Y329726D02*
X530896D01*
X530502Y329332D02*
Y330120D01*
X546648Y366728D02*
X547648D01*
X547148Y366228D02*
Y367228D01*
X538119Y343657D02*
X538907D01*
X538513Y343263D02*
Y344050D01*
X505015Y296881D02*
X505802D01*
X505408Y296487D02*
Y297275D01*
X504994Y294109D02*
X505782D01*
X505388Y293716D02*
Y294503D01*
X504974Y291338D02*
X505761D01*
X505367Y290944D02*
Y291732D01*
X505232Y288578D02*
X506020D01*
X505626Y288185D02*
Y288972D01*
X507072Y286506D02*
X507860D01*
X507466Y286112D02*
Y286899D01*
X509810Y286072D02*
X510597D01*
X510204Y285678D02*
Y286465D01*
X512581Y286072D02*
X513369D01*
X512975Y285678D02*
Y286465D01*
X515353Y286072D02*
X516141D01*
X515747Y285678D02*
Y286465D01*
X518125Y286072D02*
X518912D01*
X518518Y285678D02*
Y286465D01*
X520896Y286072D02*
X521684D01*
X521290Y285678D02*
Y286465D01*
X523668Y286072D02*
X524455D01*
X524062Y285678D02*
Y286465D01*
X526440Y286072D02*
X527227D01*
X526833Y285678D02*
Y286465D01*
X529211Y286072D02*
X529999D01*
X529605Y285678D02*
Y286465D01*
X531983Y286072D02*
X532770D01*
X532377Y285678D02*
Y286465D01*
X534729Y285694D02*
X535516D01*
X535122Y285300D02*
Y286087D01*
X536022Y278645D02*
X536810D01*
X536416Y278252D02*
Y279039D01*
X538794Y278645D02*
X539581D01*
X539188Y278252D02*
Y279039D01*
X541114Y280162D02*
X541901D01*
X541507Y279768D02*
Y280556D01*
X543886Y280162D02*
X544673D01*
X544279Y279768D02*
Y280556D01*
X546138Y278548D02*
X546926D01*
X546532Y278154D02*
Y278941D01*
X546138Y275776D02*
X546926D01*
X546532Y275382D02*
Y276170D01*
X546138Y273005D02*
X546926D01*
X546532Y272611D02*
Y273398D01*
X545335Y262245D02*
X546122D01*
X545728Y261852D02*
Y262639D01*
X551089Y265563D02*
X551876D01*
X551482Y265169D02*
Y265957D01*
X551187Y268333D02*
X551975D01*
X551581Y267939D02*
Y268727D01*
X550451Y271005D02*
X551238D01*
X550844Y270611D02*
Y271398D01*
X550451Y273777D02*
X551238D01*
X550844Y273383D02*
Y274170D01*
X550451Y276548D02*
X551238D01*
X550844Y276154D02*
Y276942D01*
X550451Y279320D02*
X551238D01*
X550844Y278926D02*
Y279714D01*
X550357Y282090D02*
X551144D01*
X550750Y281696D02*
Y282484D01*
X548548Y284190D02*
X549335D01*
X548941Y283796D02*
Y284583D01*
X545790Y284474D02*
X546578D01*
X546184Y284081D02*
Y284868D01*
X543019Y284474D02*
X543806D01*
X543413Y284081D02*
Y284868D01*
X540361Y285261D02*
X541149D01*
X540755Y284867D02*
Y285655D01*
X538763Y287525D02*
X539550D01*
X539156Y287131D02*
Y287919D01*
X531447Y290384D02*
X532234D01*
X531841Y289990D02*
Y290777D01*
X528675Y290384D02*
X529463D01*
X529069Y289990D02*
Y290777D01*
X525904Y290384D02*
X526691D01*
X526297Y289990D02*
Y290777D01*
X523132Y290384D02*
X523919D01*
X523526Y289990D02*
Y290777D01*
X520360Y290384D02*
X521148D01*
X520754Y289990D02*
Y290777D01*
X514817Y290384D02*
X515604D01*
X515211Y289990D02*
Y290777D01*
X512045Y290384D02*
X512833D01*
X512439Y289990D02*
Y290777D01*
X509280Y290570D02*
X510067D01*
X509674Y290176D02*
Y290963D01*
X506730Y303288D02*
X507517D01*
X507123Y302894D02*
Y303682D01*
X559105Y321619D02*
X559696D01*
X559401Y321324D02*
Y321914D01*
X530174Y361049D02*
X531174D01*
X530674Y360549D02*
Y361549D01*
X455748Y372881D02*
X456535D01*
X456142Y372488D02*
Y373275D01*
X462561Y387712D02*
X463349D01*
X462955Y387318D02*
Y388106D01*
X458989Y395867D02*
X459776D01*
X459383Y395473D02*
Y396260D01*
X459206Y372881D02*
X459993D01*
X459600Y372488D02*
Y373275D01*
X462664Y372881D02*
X463451D01*
X463057Y372488D02*
Y373275D01*
X462561Y382808D02*
X463349D01*
X462955Y382414D02*
Y383201D01*
X455724Y387712D02*
X456512D01*
X456118Y387318D02*
Y388106D01*
X459143Y387712D02*
X459930D01*
X459537Y387318D02*
Y388106D01*
X459103Y382808D02*
X459891D01*
X459497Y382414D02*
Y383201D01*
X462473Y392822D02*
X463261D01*
X462867Y392428D02*
Y393215D01*
X455680Y392822D02*
X456468D01*
X456074Y392428D02*
Y393215D01*
X455646Y382808D02*
X456433D01*
X456039Y382414D02*
Y383201D01*
X540265Y458763D02*
X541249D01*
X540757Y458271D02*
Y459255D01*
X551017Y414632D02*
X551804D01*
X551410Y414238D02*
Y415026D01*
X467734Y406431D02*
X468521D01*
X468128Y406037D02*
Y406825D01*
X510360Y365925D02*
X511147D01*
X510754Y365531D02*
Y366318D01*
X467665Y362264D02*
X468452D01*
X468059Y361871D02*
Y362658D01*
X548734Y309660D02*
X549522D01*
X549128Y309266D02*
Y310054D01*
X552009Y438734D02*
X552796D01*
X552403Y438340D02*
Y439127D01*
X510930Y375595D02*
X511717D01*
X511323Y375201D02*
Y375989D01*
X524592Y302799D02*
X525379D01*
X524985Y302405D02*
Y303193D01*
X523744Y305580D02*
X524531D01*
X524138Y305187D02*
Y305974D01*
X540323Y466797D02*
X541308D01*
X540815Y466305D02*
Y467289D01*
X537932Y425993D02*
X538719D01*
X538325Y425599D02*
Y426386D01*
X538534Y421162D02*
X539321D01*
X538927Y420768D02*
Y421556D01*
X542920Y420979D02*
X543708D01*
X543314Y420585D02*
Y421372D01*
X539017Y418176D02*
X539805D01*
X539411Y417783D02*
Y418570D01*
X542476Y425471D02*
X543263D01*
X542870Y425078D02*
Y425865D01*
X546974Y418176D02*
X547761D01*
X547367Y417783D02*
Y418570D01*
X542996Y418176D02*
X543783D01*
X543389Y417783D02*
Y418570D01*
X539051Y415424D02*
X539838D01*
X539444Y415030D02*
Y415818D01*
X543037Y415374D02*
X543825D01*
X543431Y414980D02*
Y415768D01*
X547041Y415257D02*
X547828D01*
X547434Y414864D02*
Y415651D01*
X546507Y411738D02*
X547294D01*
X546900Y411344D02*
Y412132D01*
X467055Y430559D02*
X467842D01*
X467449Y430165D02*
Y430953D01*
X466958Y413510D02*
X467745D01*
X467351Y413116D02*
Y413903D01*
X479501Y399959D02*
X480289D01*
X479895Y399566D02*
Y400353D01*
X467016Y410393D02*
X467803D01*
X467410Y409999D02*
Y410787D01*
X466993Y402371D02*
X467780D01*
X467386Y401977D02*
Y402764D01*
X474217Y434323D02*
X475004D01*
X474611Y433929D02*
Y434716D01*
X459077Y392822D02*
X459864D01*
X459471Y392428D02*
Y393215D01*
X466206Y442100D02*
X466994D01*
X466600Y441706D02*
Y442494D01*
X454840Y408100D02*
X455627D01*
X455233Y407706D02*
Y408494D01*
X454840Y410690D02*
X455627D01*
X455233Y410296D02*
Y411084D01*
X454840Y413280D02*
X455627D01*
X455233Y412886D02*
Y413674D01*
X454840Y415870D02*
X455627D01*
X455233Y415476D02*
Y416264D01*
X454840Y431410D02*
X455627D01*
X455233Y431016D02*
Y431804D01*
X454840Y426230D02*
X455627D01*
X455233Y425836D02*
Y426624D01*
X454840Y428820D02*
X455627D01*
X455233Y428426D02*
Y429214D01*
X454840Y434000D02*
X455627D01*
X455233Y433606D02*
Y434394D01*
X454840Y423640D02*
X455627D01*
X455233Y423246D02*
Y424034D01*
X454840Y418460D02*
X455627D01*
X455233Y418066D02*
Y418854D01*
X454840Y421050D02*
X455627D01*
X455233Y420656D02*
Y421444D01*
X466106Y446200D02*
X466894D01*
X466500Y445806D02*
Y446594D01*
X454856Y446200D02*
X455644D01*
X455250Y445806D02*
Y446594D01*
X462356Y446200D02*
X463144D01*
X462750Y445806D02*
Y446594D01*
X458606Y446200D02*
X459394D01*
X459000Y445806D02*
Y446594D01*
X477356Y446200D02*
X478144D01*
X477750Y445806D02*
Y446594D01*
X473606Y446200D02*
X474394D01*
X474000Y445806D02*
Y446594D01*
X469856Y446200D02*
X470644D01*
X470250Y445806D02*
Y446594D01*
X468156Y449100D02*
X468944D01*
X468550Y448706D02*
Y449494D01*
X471906Y449100D02*
X472694D01*
X472300Y448706D02*
Y449494D01*
X464406Y449100D02*
X465194D01*
X464800Y448706D02*
Y449494D01*
X475656Y449100D02*
X476444D01*
X476050Y448706D02*
Y449494D01*
X466632Y452750D02*
X467419D01*
X467025Y452357D02*
Y453144D01*
X470381Y452750D02*
X471169D01*
X470775Y452357D02*
Y453144D01*
X462882Y452750D02*
X463669D01*
X463275Y452357D02*
Y453144D01*
X474131Y452750D02*
X474919D01*
X474525Y452357D02*
Y453144D01*
X528573Y304522D02*
X529360D01*
X528966Y304128D02*
Y304916D01*
X455056Y399900D02*
X455844D01*
X455450Y399506D02*
Y400294D01*
X458806Y399900D02*
X459594D01*
X459200Y399506D02*
Y400294D01*
X466306Y399900D02*
X467094D01*
X466700Y399506D02*
Y400294D01*
X461627Y408914D02*
X462415D01*
X462021Y408520D02*
Y409308D01*
X458362Y408668D02*
X459149D01*
X458755Y408274D02*
Y409061D01*
X464983Y408489D02*
X465770D01*
X465376Y408095D02*
Y408883D01*
X467973Y434000D02*
X468760D01*
X468367Y433606D02*
Y434394D01*
X464690Y434000D02*
X465477D01*
X465083Y433606D02*
Y434394D01*
X461406Y434000D02*
X462194D01*
X461800Y433606D02*
Y434394D01*
X471256Y434000D02*
X472044D01*
X471650Y433606D02*
Y434394D01*
X458123Y434000D02*
X458910D01*
X458517Y433606D02*
Y434394D01*
X469956Y442100D02*
X470744D01*
X470350Y441706D02*
Y442494D01*
X473706Y442100D02*
X474494D01*
X474100Y441706D02*
Y442494D01*
X477456Y442100D02*
X478244D01*
X477850Y441706D02*
Y442494D01*
X458706Y442100D02*
X459494D01*
X459100Y441706D02*
Y442494D01*
X462456Y442100D02*
X463244D01*
X462850Y441706D02*
Y442494D01*
X454956Y442100D02*
X455744D01*
X455350Y441706D02*
Y442494D01*
X459134Y369355D02*
X459921D01*
X459527Y368961D02*
Y369749D01*
X513148Y396858D02*
X514149D01*
X513649Y396358D02*
Y397358D01*
X514974Y301511D02*
X515564D01*
X515269Y301216D02*
Y301806D01*
X516591Y300418D02*
X517182D01*
X516886Y300123D02*
Y300714D01*
X518668Y300375D02*
X519258D01*
X518963Y300080D02*
Y300670D01*
X520722Y300353D02*
X521313D01*
X521017Y300058D02*
Y300648D01*
X522460Y300342D02*
X523050D01*
X522755Y300047D02*
Y300637D01*
X524613Y300145D02*
X525203D01*
X524908Y299850D02*
Y300440D01*
X526777Y300123D02*
X527367D01*
X527072Y299828D02*
Y300419D01*
X530132Y301763D02*
X530722D01*
X530427Y301467D02*
Y302058D01*
X532110Y308615D02*
X532700D01*
X532405Y308319D02*
Y308910D01*
X532263Y304626D02*
X532853D01*
X532558Y304331D02*
Y304921D01*
X532427Y306527D02*
X533017D01*
X532722Y306232D02*
Y306823D01*
X530514Y314287D02*
X531105D01*
X530809Y313991D02*
Y314582D01*
X519170Y314954D02*
X519761D01*
X519466Y314659D02*
Y315249D01*
X513946Y313172D02*
X514537D01*
X514242Y312877D02*
Y313467D01*
X514963Y314931D02*
X515553D01*
X515258Y314636D02*
Y315227D01*
X531374Y302919D02*
X531965D01*
X531670Y302623D02*
Y303214D01*
X529032Y300544D02*
X529622D01*
X529327Y300249D02*
Y300839D01*
X513509Y303046D02*
X514100D01*
X513804Y302751D02*
Y303341D01*
X519820Y297927D02*
X520608D01*
X520214Y297533D02*
Y298321D01*
X522362Y297883D02*
X523149D01*
X522756Y297489D02*
Y298277D01*
X517330Y291659D02*
X518117D01*
X517724Y291265D02*
Y292052D01*
X524199Y310001D02*
X524789D01*
X524494Y309705D02*
Y310296D01*
X520108Y312370D02*
X520698D01*
X520403Y312074D02*
Y312665D01*
X512281Y304578D02*
X512872D01*
X512576Y304283D02*
Y304873D01*
X512281Y306895D02*
X512872D01*
X512576Y306600D02*
Y307191D01*
X526502Y314813D02*
X527092D01*
X526797Y314518D02*
Y315108D01*
X501158Y296088D02*
X501945D01*
X501551Y295695D02*
Y296482D01*
X501169Y298216D02*
X501957D01*
X501563Y297822D02*
Y298610D01*
X516595Y447736D02*
X517595D01*
X517095Y447236D02*
Y448236D01*
X515343Y380228D02*
X516131D01*
X515737Y379834D02*
Y380622D01*
X515670Y365759D02*
X516261D01*
X515966Y365464D02*
Y366054D01*
X466841Y366926D02*
X467629D01*
X467235Y366533D02*
Y367320D01*
X483764Y362746D02*
X484355D01*
X484059Y362451D02*
Y363041D01*
X477822Y362097D02*
X478412D01*
X478117Y361801D02*
Y362392D01*
X482582Y387691D02*
X483369D01*
X482975Y387298D02*
Y388085D01*
X483140Y392666D02*
X483927D01*
X483533Y392272D02*
Y393059D01*
X487182Y359580D02*
X487773D01*
X487477Y359285D02*
Y359875D01*
X491989Y391975D02*
X492579D01*
X492284Y391680D02*
Y392270D01*
X487133Y357496D02*
X487724D01*
X487429Y357201D02*
Y357791D01*
X489529Y343927D02*
X490119D01*
X489824Y343632D02*
Y344223D01*
X489925Y404364D02*
X490516D01*
X490220Y404069D02*
Y404660D01*
X550692Y421736D02*
X551479D01*
X551085Y421342D02*
Y422130D01*
X486802Y344925D02*
X487393D01*
X487097Y344630D02*
Y345220D01*
X509501Y294480D02*
X510288D01*
X509895Y294086D02*
Y294873D01*
X496669Y376584D02*
X497669D01*
X497169Y376083D02*
Y377083D01*
X498029Y389941D02*
X498620D01*
X498324Y389646D02*
Y390236D01*
X492714Y387376D02*
X493305D01*
X493009Y387080D02*
Y387671D01*
X497787Y392317D02*
X498378D01*
X498082Y392022D02*
Y392613D01*
X476600Y337792D02*
X477190D01*
X476895Y337497D02*
Y338087D01*
X474544Y330260D02*
X475134D01*
X474839Y329965D02*
Y330555D01*
X473025Y328984D02*
X473615D01*
X473320Y328688D02*
Y329279D01*
X558301Y319259D02*
X559089D01*
X558695Y318865D02*
Y319652D01*
X547554Y295166D02*
X548342D01*
X547948Y294773D02*
Y295560D01*
X559283Y301780D02*
X560071D01*
X559677Y301386D02*
Y302174D01*
X559425Y307371D02*
X560213D01*
X559819Y306978D02*
Y307765D01*
X559007Y305228D02*
X559794D01*
X559400Y304834D02*
Y305622D01*
X558960Y314063D02*
X559748D01*
X559354Y313669D02*
Y314457D01*
X567614Y322826D02*
X568401D01*
X568008Y322432D02*
Y323220D01*
X565530Y302962D02*
X566318D01*
X565924Y302568D02*
Y303356D01*
X565588Y300856D02*
X566375D01*
X565982Y300463D02*
Y301250D01*
X504193Y305236D02*
X504980D01*
X504587Y304842D02*
Y305630D01*
X497077Y296003D02*
X497864D01*
X497471Y295609D02*
Y296396D01*
X496927Y298216D02*
X497715D01*
X497321Y297822D02*
Y298609D01*
X545272Y264897D02*
X546059D01*
X545665Y264503D02*
Y265291D01*
X515070Y423471D02*
X515857D01*
X515464Y423077D02*
Y423865D01*
X523085Y421379D02*
X524086D01*
X523586Y420879D02*
Y421879D01*
X505294Y425974D02*
X506082D01*
X505688Y425580D02*
Y426368D01*
X538087Y270214D02*
X538874D01*
X538480Y269820D02*
Y270608D01*
X537999Y272758D02*
X538787D01*
X538393Y272364D02*
Y273151D01*
X538125Y267251D02*
X538913D01*
X538519Y266858D02*
Y267645D01*
X526473Y270214D02*
X527260D01*
X526866Y269820D02*
Y270608D01*
X526562Y267471D02*
X527349D01*
X526955Y267078D02*
Y267865D01*
X526436Y272978D02*
X527223D01*
X526829Y272584D02*
Y273372D01*
X505021Y445798D02*
X505808D01*
X505415Y445404D02*
Y446192D01*
X502655Y445809D02*
X503443D01*
X503049Y445415D02*
Y446203D01*
X492068Y351685D02*
X492659D01*
X492363Y351390D02*
Y351980D01*
X480218Y358846D02*
X480809D01*
X480513Y358551D02*
Y359142D01*
X505668Y327895D02*
X506868D01*
X506268Y327295D02*
Y328495D01*
X501640Y327895D02*
X502840D01*
X502240Y327295D02*
Y328495D01*
X501580Y332002D02*
X502780D01*
X502180Y331402D02*
Y332602D01*
X497552Y332002D02*
X498752D01*
X498152Y331402D02*
Y332602D01*
X493523Y332002D02*
X494723D01*
X494123Y331402D02*
Y332602D01*
X497612Y327895D02*
X498811D01*
X498211Y327295D02*
Y328495D01*
X493583Y327895D02*
X494783D01*
X494183Y327295D02*
Y328495D01*
X489028Y332002D02*
X490228D01*
X489628Y331402D02*
Y332602D01*
X489555Y327895D02*
X490755D01*
X490155Y327295D02*
Y328495D01*
X485466Y332002D02*
X486666D01*
X486066Y331402D02*
Y332602D01*
X485526Y327895D02*
X486726D01*
X486126Y327295D02*
Y328495D01*
X514143Y328003D02*
X514734D01*
X514439Y327708D02*
Y328298D01*
X514008Y331229D02*
X514599D01*
X514303Y330934D02*
Y331524D01*
X515424Y338868D02*
X516014D01*
X515719Y338573D02*
Y339163D01*
X531936Y411440D02*
X532526D01*
X532231Y411145D02*
Y411735D01*
X510938Y396858D02*
X511938D01*
X511438Y396358D02*
Y397358D01*
X535600Y290873D02*
X536388D01*
X535994Y290480D02*
Y291267D01*
X535619Y293284D02*
X536407D01*
X536013Y292890D02*
Y293677D01*
X543359Y305976D02*
X544359D01*
X543859Y305475D02*
Y306475D01*
X477939Y358892D02*
X478530D01*
X478234Y358597D02*
Y359187D01*
X534450Y391818D02*
X535450D01*
X534950Y391318D02*
Y392318D01*
X532569Y377518D02*
X533569D01*
X533069Y377018D02*
Y378018D01*
X508211Y366031D02*
X508801D01*
X508506Y365735D02*
Y366326D01*
X524545Y354145D02*
X525332D01*
X524939Y353752D02*
Y354539D01*
X509090Y369202D02*
X509877D01*
X509483Y368808D02*
Y369595D01*
X500098Y419783D02*
X500886D01*
X500492Y419390D02*
Y420177D01*
X502337Y269532D02*
X503124D01*
X502730Y269139D02*
Y269926D01*
X496384Y367645D02*
X497385D01*
X496884Y367145D02*
Y368145D01*
X538238Y320279D02*
X539025D01*
X538632Y319885D02*
Y320673D01*
X492245Y432873D02*
X493032D01*
X492638Y432480D02*
Y433267D01*
X493683Y302806D02*
X494471D01*
X494077Y302412D02*
Y303200D01*
X481149Y293239D02*
X481936D01*
X481542Y292846D02*
Y293633D01*
X476818Y293239D02*
X477605D01*
X477212Y292846D02*
Y293633D01*
X485479Y293239D02*
X486267D01*
X485873Y292846D02*
Y293633D01*
X492898Y264952D02*
X493685D01*
X493292Y264559D02*
Y265346D01*
X474653Y301586D02*
X475441D01*
X475047Y301192D02*
Y301980D01*
X555985Y456895D02*
X556985D01*
X556485Y456395D02*
Y457395D01*
X497374Y427425D02*
X498161D01*
X497768Y427031D02*
Y427819D01*
X520961Y435414D02*
X521748D01*
X521355Y435020D02*
Y435808D01*
X550723Y425693D02*
X551511D01*
X551117Y425299D02*
Y426086D01*
X554569Y443080D02*
X555356D01*
X554962Y442686D02*
Y443474D01*
X517371Y331179D02*
X517962D01*
X517667Y330884D02*
Y331475D01*
X505609Y332002D02*
X506809D01*
X506209Y331402D02*
Y332602D01*
X562008Y465010D02*
X563008D01*
X562508Y464510D02*
Y465510D01*
X549640Y468198D02*
X550640D01*
X550140Y467698D02*
Y468698D01*
X566258Y461666D02*
X567258D01*
X566758Y461166D02*
Y462166D01*
X561982Y461679D02*
X562982D01*
X562482Y461179D02*
Y462179D01*
X566127Y464892D02*
X567127D01*
X566627Y464392D02*
Y465392D01*
X565917Y468289D02*
X566917D01*
X566417Y467789D02*
Y468789D01*
X562140Y468237D02*
X563140D01*
X562640Y467737D02*
Y468737D01*
X558152Y468224D02*
X559152D01*
X558652Y467724D02*
Y468724D01*
X554073Y468211D02*
X555073D01*
X554573Y467710D02*
Y468711D01*
X555891Y462592D02*
X556891D01*
X556391Y462092D02*
Y463092D01*
X547978Y462601D02*
X548978D01*
X548478Y462101D02*
Y463100D01*
X516957Y467904D02*
X517957D01*
X517457Y467404D02*
Y468404D01*
X516957Y464203D02*
X517957D01*
X517457Y463703D02*
Y464703D01*
X516957Y460502D02*
X517957D01*
X517457Y460002D02*
Y461002D01*
X520536Y463001D02*
X521536D01*
X521036Y462501D02*
Y463501D01*
X521445Y444281D02*
X522036D01*
X521740Y443986D02*
Y444576D01*
X523832Y337182D02*
X524422D01*
X524127Y336887D02*
Y337477D01*
X526419Y336549D02*
X527207D01*
X526813Y336155D02*
Y336942D01*
X524976Y350591D02*
X525567D01*
X525272Y350296D02*
Y350886D01*
X532272Y421330D02*
X533272D01*
X532772Y420830D02*
Y421830D01*
X493328Y346673D02*
X493918D01*
X493623Y346378D02*
Y346968D01*
X525071Y320248D02*
X525859D01*
X525465Y319854D02*
Y320642D01*
X504245Y348719D02*
X505033D01*
X504639Y348326D02*
Y349113D01*
X460813Y354070D02*
X461813D01*
X461313Y353570D02*
Y354570D01*
X455869Y360934D02*
X456657D01*
X456263Y360540D02*
Y361328D01*
X455711Y353641D02*
X456498D01*
X456105Y353247D02*
Y354034D01*
X544583Y270802D02*
X545370D01*
X544976Y270409D02*
Y271196D01*
X542024Y270901D02*
X542811D01*
X542417Y270507D02*
Y271294D01*
X522435Y270214D02*
X523222D01*
X522828Y269820D02*
Y270608D01*
X514715Y279239D02*
X515503D01*
X515109Y278845D02*
Y279633D01*
X559203Y299322D02*
X559991D01*
X559597Y298929D02*
Y299716D01*
X547554Y297529D02*
X548342D01*
X547948Y297135D02*
Y297922D01*
X502771Y263283D02*
X503558D01*
X503165Y262889D02*
Y263677D01*
X501653Y319131D02*
X502853D01*
X502253Y318531D02*
Y319731D01*
X489567Y319131D02*
X490767D01*
X490167Y318531D02*
Y319731D01*
X485539Y319131D02*
X486739D01*
X486139Y318531D02*
Y319731D01*
X493596Y319131D02*
X494796D01*
X494196Y318531D02*
Y319731D01*
X497624Y319131D02*
X498824D01*
X498224Y318531D02*
Y319731D01*
X505681Y319131D02*
X506881D01*
X506281Y318531D02*
Y319731D01*
X497758Y323424D02*
X498958D01*
X498358Y322824D02*
Y324024D01*
X485672Y323424D02*
X486872D01*
X486272Y322824D02*
Y324024D01*
X493729Y323424D02*
X494929D01*
X494329Y322824D02*
Y324024D01*
X489701Y323424D02*
X490901D01*
X490301Y322824D02*
Y324024D01*
X501786Y323424D02*
X502986D01*
X502386Y322824D02*
Y324024D01*
X505815Y323424D02*
X507015D01*
X506415Y322824D02*
Y324024D01*
X489351Y314448D02*
X490551D01*
X489951Y313848D02*
Y315048D01*
X493379Y314448D02*
X494579D01*
X493979Y313848D02*
Y315048D01*
X497408Y314448D02*
X498608D01*
X498008Y313848D02*
Y315048D01*
X501436Y314448D02*
X502636D01*
X502036Y313848D02*
Y315048D01*
X505465Y314448D02*
X506665D01*
X506065Y313848D02*
Y315048D01*
X485323Y314448D02*
X486522D01*
X485922Y313848D02*
Y315048D01*
X520950Y360713D02*
X521737D01*
X521343Y360320D02*
Y361107D01*
X528747Y368617D02*
X529747D01*
X529247Y368117D02*
Y369117D01*
X541956Y411714D02*
X542743D01*
X542350Y411320D02*
Y412108D01*
X554569Y445691D02*
X555356D01*
X554962Y445297D02*
Y446085D01*
X550723Y431275D02*
X551511D01*
X551117Y430882D02*
Y431669D01*
X517392Y386122D02*
X518392D01*
X517892Y385622D02*
Y386622D01*
X542396Y325293D02*
X543396D01*
X542896Y324793D02*
Y325793D01*
X544981Y331673D02*
X545768D01*
X545374Y331279D02*
Y332066D01*
X560505Y456833D02*
X561505D01*
X561005Y456333D02*
Y457333D01*
X544407Y462622D02*
X545194D01*
X544801Y462228D02*
Y463015D01*
X515469Y368709D02*
X516060D01*
X515765Y368414D02*
Y369005D01*
X470778Y340865D02*
X471368D01*
X471073Y340570D02*
Y341160D01*
X468393Y344222D02*
X469180D01*
X468786Y343829D02*
Y344616D01*
X464955Y340936D02*
X465546D01*
X465250Y340641D02*
Y341232D01*
X513577Y439450D02*
X514365D01*
X513971Y439056D02*
Y439844D01*
X516136Y439148D02*
X516923D01*
X516530Y438755D02*
Y439542D01*
X503319Y438513D02*
X504106D01*
X503712Y438119D02*
Y438907D01*
X519152Y333887D02*
X519940D01*
X519546Y333493D02*
Y334280D01*
X455358Y344847D02*
X456145D01*
X455752Y344454D02*
Y345241D01*
X506320Y386122D02*
X507108D01*
X506714Y385728D02*
Y386516D01*
X518010Y320310D02*
X518797D01*
X518403Y319917D02*
Y320704D01*
X521568Y328653D02*
X522355D01*
X521962Y328259D02*
Y329047D01*
X544153Y437720D02*
X544941D01*
X544547Y437327D02*
Y438114D01*
X535716Y455060D02*
X536306D01*
X536011Y454764D02*
Y455355D01*
X532409Y455060D02*
X532999D01*
X532704Y454764D02*
Y455355D01*
X533676Y451754D02*
X534463D01*
X534069Y451360D02*
Y452147D01*
X516513Y433616D02*
X517104D01*
X516808Y433320D02*
Y433911D01*
X545114Y467233D02*
X546114D01*
X545614Y466733D02*
Y467733D01*
X461503Y340465D02*
X462093D01*
X461798Y340170D02*
Y340760D01*
X472913Y322838D02*
X473701D01*
X473307Y322445D02*
Y323232D01*
X469587Y308563D02*
X470374D01*
X469980Y308169D02*
Y308957D01*
X469685Y311417D02*
X470472D01*
X470079Y311024D02*
Y311811D01*
X472146Y317913D02*
X472933D01*
X472539Y317520D02*
Y318307D01*
X465650Y321063D02*
X466437D01*
X466043Y320669D02*
Y321457D01*
X459817Y263465D02*
X460604D01*
X460210Y263071D02*
Y263859D01*
X459542Y266895D02*
X460329D01*
X459936Y266501D02*
Y267289D01*
X483853Y264926D02*
X484641D01*
X484247Y264533D02*
Y265320D01*
X475875Y270044D02*
X476662D01*
X476268Y269651D02*
Y270438D01*
X494420Y284944D02*
X495208D01*
X494814Y284550D02*
Y285337D01*
X502213Y271991D02*
X503000D01*
X502607Y271597D02*
Y272384D01*
X520069Y271286D02*
X520857D01*
X520463Y270893D02*
Y271680D01*
X496555Y419783D02*
X497342D01*
X496949Y419390D02*
Y420177D01*
X465945Y317520D02*
X466732D01*
X466339Y317126D02*
Y317913D01*
X461630Y335048D02*
X462220D01*
X461925Y334753D02*
Y335343D01*
X459303Y334665D02*
X459893D01*
X459598Y334370D02*
Y334960D01*
M02*
