G04*
G04 #@! TF.GenerationSoftware,Altium Limited,Altium Designer,25.0.2 (28)*
G04*
G04 Layer_Physical_Order=3*
G04 Layer_Color=36540*
%FSLAX25Y25*%
%MOIN*%
G70*
G04*
G04 #@! TF.SameCoordinates,2D09E9E8-CCE1-4554-9EFB-DE4E2928A833*
G04*
G04*
G04 #@! TF.FilePolarity,Positive*
G04*
G01*
G75*
%ADD12C,0.01000*%
%ADD14C,0.00400*%
%ADD16C,0.00500*%
%ADD92C,0.00700*%
%ADD93C,0.00389*%
%ADD94C,0.01500*%
%ADD96C,0.00432*%
%ADD102C,0.00800*%
%ADD104O,0.07100X0.03900*%
%ADD105O,0.08700X0.03900*%
%ADD106C,0.06299*%
%ADD107R,0.06299X0.06299*%
%ADD108C,0.00984*%
%ADD109C,0.01378*%
%ADD110C,0.01772*%
%ADD111C,0.02000*%
%ADD112C,0.01181*%
G36*
X569278Y341065D02*
X568978Y341005D01*
X568877Y341249D01*
X568455Y341671D01*
X567903Y341899D01*
X567307D01*
X566755Y341671D01*
X566333Y341249D01*
X566105Y340697D01*
Y340101D01*
X566333Y339549D01*
X566755Y339127D01*
X567307Y338899D01*
X567903D01*
X568455Y339127D01*
X568877Y339549D01*
X568978Y339793D01*
X569278Y339733D01*
Y332971D01*
X568978Y332846D01*
X568652Y333172D01*
X568101Y333400D01*
X567504D01*
X566953Y333172D01*
X566531Y332750D01*
X566303Y332198D01*
Y331602D01*
X566531Y331050D01*
X566953Y330628D01*
X567504Y330400D01*
X568101D01*
X568652Y330628D01*
X568978Y330954D01*
X569278Y330829D01*
Y256686D01*
X452603D01*
Y470006D01*
X569278D01*
Y341065D01*
D02*
G37*
%LPC*%
G36*
X457684Y466687D02*
X456723D01*
X455795Y466438D01*
X454963Y465957D01*
X454283Y465278D01*
X453803Y464446D01*
X453554Y463517D01*
Y462557D01*
X453803Y461628D01*
X454283Y460796D01*
X454963Y460117D01*
X455795Y459636D01*
X456723Y459387D01*
X457684D01*
X458612Y459636D01*
X459445Y460117D01*
X460124Y460796D01*
X460605Y461628D01*
X460853Y462557D01*
Y463517D01*
X460605Y464446D01*
X460124Y465278D01*
X459445Y465957D01*
X458612Y466438D01*
X457684Y466687D01*
D02*
G37*
G36*
X556783Y458395D02*
X556186D01*
X555635Y458167D01*
X555213Y457745D01*
X554985Y457193D01*
Y456597D01*
X555213Y456045D01*
X555635Y455623D01*
X556186Y455395D01*
X556783D01*
X557334Y455623D01*
X557756Y456045D01*
X557985Y456597D01*
Y457193D01*
X557756Y457745D01*
X557334Y458167D01*
X556783Y458395D01*
D02*
G37*
G36*
X561303Y458333D02*
X560706D01*
X560155Y458104D01*
X559733Y457682D01*
X559505Y457131D01*
Y456534D01*
X559733Y455983D01*
X560155Y455561D01*
X560706Y455333D01*
X561303D01*
X561854Y455561D01*
X562276Y455983D01*
X562505Y456534D01*
Y457131D01*
X562276Y457682D01*
X561854Y458104D01*
X561303Y458333D01*
D02*
G37*
G36*
X460753Y456587D02*
X457704D01*
Y453537D01*
X460753D01*
Y456587D01*
D02*
G37*
G36*
X456704D02*
X453654D01*
Y453537D01*
X456704D01*
Y456587D01*
D02*
G37*
G36*
X529616Y453851D02*
X529182D01*
X528781Y453685D01*
X528651Y453554D01*
X528456Y453393D01*
X528259Y453554D01*
X528130Y453683D01*
X527729Y453849D01*
X527295D01*
X526894Y453683D01*
X526587Y453376D01*
X526421Y452976D01*
Y452542D01*
X526587Y452141D01*
X526739Y451989D01*
X526852Y451769D01*
X526739Y451597D01*
X526565Y451423D01*
X526399Y451022D01*
Y450588D01*
X526565Y450187D01*
X526871Y449881D01*
X527272Y449715D01*
X527706D01*
X528107Y449881D01*
X528286Y450059D01*
X528541Y450114D01*
X528663Y450044D01*
X528890Y449817D01*
X529291Y449651D01*
X529725D01*
X530126Y449817D01*
X530433Y450124D01*
X530599Y450525D01*
Y450958D01*
X530433Y451359D01*
X530182Y451610D01*
X530128Y451684D01*
X530158Y451977D01*
X530324Y452143D01*
X530489Y452543D01*
Y452977D01*
X530324Y453378D01*
X530017Y453685D01*
X529616Y453851D01*
D02*
G37*
G36*
X565395Y455025D02*
X564798D01*
X564247Y454797D01*
X563825Y454375D01*
X563596Y453824D01*
Y453227D01*
X563825Y452676D01*
X564247Y452254D01*
X564798Y452025D01*
X565395D01*
X565946Y452254D01*
X566368Y452676D01*
X566597Y453227D01*
Y453824D01*
X566368Y454375D01*
X565946Y454797D01*
X565395Y455025D01*
D02*
G37*
G36*
X460753Y452537D02*
X457704D01*
Y449487D01*
X460753D01*
Y452537D01*
D02*
G37*
G36*
X456704D02*
X453654D01*
Y449487D01*
X456704D01*
Y452537D01*
D02*
G37*
G36*
X503325Y447195D02*
X502773D01*
X502264Y446984D01*
X501874Y446594D01*
X501663Y446085D01*
Y445533D01*
X501874Y445024D01*
X502264Y444634D01*
X502773Y444423D01*
X503325D01*
X503834Y444634D01*
X504030Y444830D01*
X504237Y445011D01*
X504422Y444830D01*
X504630Y444623D01*
X505139Y444412D01*
X505690D01*
X506200Y444623D01*
X506589Y445013D01*
X506800Y445522D01*
Y446073D01*
X506589Y446583D01*
X506200Y446973D01*
X505690Y447184D01*
X505139D01*
X504630Y446973D01*
X504433Y446776D01*
X504226Y446596D01*
X504041Y446776D01*
X503834Y446984D01*
X503325Y447195D01*
D02*
G37*
G36*
X536248Y456249D02*
X535775D01*
X535338Y456068D01*
X535003Y455733D01*
X534822Y455296D01*
Y454823D01*
X535003Y454386D01*
X535100Y454289D01*
X535136Y454196D01*
X535166Y454164D01*
X535178Y454149D01*
X535188Y454134D01*
X535196Y454120D01*
X535202Y454107D01*
X535208Y454092D01*
X535212Y454074D01*
X535216Y454055D01*
X535219Y454032D01*
X535220Y453985D01*
X535247Y453928D01*
Y447482D01*
X530751Y442987D01*
X530502Y443061D01*
X530451Y443099D01*
Y446382D01*
X533081Y449012D01*
X533247Y449260D01*
X533305Y449552D01*
X533305Y449552D01*
Y453813D01*
X533313Y453824D01*
X533305Y453885D01*
X533331Y453941D01*
X533332Y453986D01*
X533334Y454002D01*
X533335Y454003D01*
X533354Y454016D01*
X533380Y454054D01*
X533712Y454386D01*
X533893Y454823D01*
Y455296D01*
X533712Y455733D01*
X533378Y456068D01*
X532941Y456249D01*
X532468D01*
X532031Y456068D01*
X531696Y455733D01*
X531515Y455296D01*
Y454823D01*
X531637Y454530D01*
X531651Y454424D01*
X531676Y454381D01*
X531692Y454350D01*
X531706Y454320D01*
X531717Y454290D01*
X531727Y454259D01*
X531734Y454229D01*
X531741Y454197D01*
X531745Y454165D01*
X531748Y454131D01*
X531749Y454081D01*
X531775Y454022D01*
Y449869D01*
X529145Y447239D01*
X528980Y446991D01*
X528922Y446699D01*
Y446152D01*
X528800Y446110D01*
X528621Y446102D01*
X528496Y446291D01*
X525438Y449348D01*
X525207Y449503D01*
X524933Y449557D01*
X524861D01*
X524828Y449578D01*
X524796Y449570D01*
X524767Y449584D01*
X524732Y449586D01*
X524728Y449586D01*
X524725Y449587D01*
X524722Y449588D01*
X524718Y449590D01*
X524711Y449595D01*
X524699Y449604D01*
X524685Y449618D01*
X524667Y449638D01*
X524634Y449680D01*
X524544Y449733D01*
X524318Y449958D01*
X523881Y450139D01*
X523408D01*
X522971Y449958D01*
X522636Y449624D01*
X522455Y449187D01*
Y448714D01*
X522636Y448277D01*
X522971Y447942D01*
X523408Y447761D01*
X523881D01*
X524312Y447940D01*
X524360Y447950D01*
X524474Y448027D01*
X524508Y448047D01*
X524544Y448065D01*
X524575Y448079D01*
X524603Y448089D01*
X524626Y448095D01*
X524646Y448099D01*
X524662Y448101D01*
X524666Y448102D01*
X526518Y446249D01*
X526394Y445949D01*
X526196D01*
X525796Y445783D01*
X525489Y445476D01*
X525323Y445076D01*
Y444642D01*
X525400Y444455D01*
X525226Y444194D01*
X524921Y444176D01*
X524167Y444930D01*
X523870Y445129D01*
X523519Y445198D01*
X522780D01*
X522727Y445222D01*
X522595Y445225D01*
X522505Y445232D01*
X522485Y445235D01*
X522477Y445237D01*
X522471Y445239D01*
X522469Y445239D01*
X522462Y445240D01*
X522414Y445289D01*
X521977Y445470D01*
X521504D01*
X521067Y445289D01*
X520732Y444954D01*
X520551Y444517D01*
Y444044D01*
X520732Y443607D01*
X521067Y443273D01*
X521504Y443092D01*
X521977D01*
X522414Y443273D01*
X522462Y443321D01*
X522469Y443323D01*
X522471Y443323D01*
X522477Y443325D01*
X522485Y443327D01*
X522501Y443329D01*
X522658Y443339D01*
X522720Y443340D01*
X522776Y443363D01*
X523139D01*
X523862Y442639D01*
X524160Y442441D01*
X524511Y442371D01*
X524767Y442422D01*
X525200D01*
X525401Y442122D01*
X525323Y441933D01*
Y441500D01*
X525489Y441099D01*
X525795Y440792D01*
X526196Y440626D01*
X526630D01*
X527031Y440792D01*
X527272Y441033D01*
X527435Y440869D01*
X527800Y440718D01*
X528195D01*
X528559Y440869D01*
X528768Y441078D01*
X529056Y441092D01*
X529132Y441073D01*
X529145Y441052D01*
X529176Y441032D01*
X529181Y441023D01*
X530039Y440166D01*
X530063Y440103D01*
X530087Y440078D01*
X530097Y440066D01*
X530104Y440057D01*
X530108Y440050D01*
X530110Y440047D01*
X530112Y440033D01*
X530147Y439969D01*
Y439939D01*
X530298Y439575D01*
X530578Y439295D01*
X530942Y439145D01*
X531337D01*
X531702Y439295D01*
X531772Y439366D01*
X532087Y439257D01*
X532102Y439184D01*
X532268Y438936D01*
X532830Y438374D01*
X532705Y438074D01*
X532483D01*
X532082Y437908D01*
X531775Y437601D01*
X531609Y437200D01*
Y436766D01*
X531775Y436365D01*
X532020Y436121D01*
X531880Y435981D01*
X531729Y435616D01*
Y435222D01*
X531841Y434953D01*
Y434764D01*
X531744Y434620D01*
X531667Y434230D01*
Y433987D01*
X531509Y433750D01*
X531412Y433263D01*
X531509Y432775D01*
X531785Y432361D01*
X532664Y431483D01*
X533077Y431206D01*
X533565Y431109D01*
X535218D01*
X537051Y429276D01*
Y426537D01*
X536939Y426268D01*
Y425717D01*
X537150Y425208D01*
X537540Y424818D01*
X538050Y424607D01*
X538601D01*
X539110Y424818D01*
X539500Y425208D01*
X539711Y425717D01*
Y426268D01*
X539600Y426537D01*
Y429804D01*
X539503Y430292D01*
X539226Y430705D01*
X536647Y433285D01*
X536233Y433561D01*
X535746Y433658D01*
X534093D01*
X533706Y434045D01*
Y434230D01*
X533628Y434620D01*
X533574Y434701D01*
Y434884D01*
X533714Y435222D01*
Y435616D01*
X533563Y435981D01*
X533401Y436142D01*
X533624Y436365D01*
X533790Y436766D01*
Y437200D01*
X533657Y437521D01*
X533664Y437560D01*
X533763Y437741D01*
X533836Y437814D01*
X537514D01*
X537757Y437570D01*
X538194Y437390D01*
X538667D01*
X539104Y437570D01*
X539439Y437905D01*
X539620Y438342D01*
Y438517D01*
X546425Y445322D01*
X546453Y445310D01*
X546926D01*
X547363Y445491D01*
X547698Y445826D01*
X547879Y446263D01*
Y446736D01*
X547698Y447173D01*
X547363Y447507D01*
X546926Y447688D01*
X546453D01*
X546016Y447507D01*
X545682Y447173D01*
X545501Y446736D01*
Y446561D01*
X538696Y439756D01*
X538667Y439768D01*
X538194D01*
X537757Y439586D01*
X537514Y439343D01*
X535426D01*
X535263Y439643D01*
X535379Y439923D01*
Y440357D01*
X535213Y440758D01*
X534906Y441065D01*
X534506Y441231D01*
X534072D01*
X534053Y441223D01*
X533790Y441439D01*
X533798Y441477D01*
X533805Y441495D01*
Y441515D01*
X533826Y441622D01*
X533805Y441729D01*
Y441929D01*
X533639Y442330D01*
X533332Y442637D01*
X533089Y442737D01*
X533007Y443080D01*
X536552Y446625D01*
X536718Y446873D01*
X536776Y447165D01*
Y453928D01*
X536802Y453985D01*
X536804Y454032D01*
X536806Y454055D01*
X536810Y454074D01*
X536814Y454092D01*
X536820Y454107D01*
X536826Y454120D01*
X536834Y454134D01*
X536844Y454149D01*
X536857Y454164D01*
X536886Y454196D01*
X536922Y454289D01*
X537019Y454386D01*
X537200Y454823D01*
Y455296D01*
X537019Y455733D01*
X536685Y456068D01*
X536248Y456249D01*
D02*
G37*
G36*
X514247Y440836D02*
X513695D01*
X513186Y440625D01*
X512796Y440235D01*
X512585Y439726D01*
Y439175D01*
X512796Y438665D01*
X513186Y438275D01*
X513695Y438064D01*
X514247D01*
X514756Y438275D01*
X514976Y438495D01*
X515330Y438425D01*
X515355Y438363D01*
X515745Y437974D01*
X516254Y437763D01*
X516805D01*
X517315Y437974D01*
X517705Y438363D01*
X517915Y438873D01*
Y439424D01*
X517705Y439933D01*
X517315Y440323D01*
X516805Y440534D01*
X516254D01*
X515745Y440323D01*
X515525Y440103D01*
X515171Y440174D01*
X515146Y440235D01*
X514756Y440625D01*
X514247Y440836D01*
D02*
G37*
G36*
X529762Y437984D02*
X529367D01*
X529003Y437833D01*
X528778Y437609D01*
X528554Y437833D01*
X528189Y437984D01*
X527794D01*
X527430Y437833D01*
X527202Y437606D01*
X526975Y437833D01*
X526610Y437984D01*
X526216D01*
X525851Y437833D01*
X525572Y437554D01*
X525421Y437189D01*
Y437128D01*
X525415Y437123D01*
X525410Y437114D01*
X525408Y437112D01*
X525405Y437105D01*
X525402Y437102D01*
X525365Y437057D01*
X525340Y437031D01*
X525315Y436970D01*
X522726Y434380D01*
X517940D01*
X517883Y434407D01*
X517837Y434408D01*
X517813Y434411D01*
X517794Y434414D01*
X517777Y434419D01*
X517762Y434425D01*
X517748Y434431D01*
X517734Y434439D01*
X517719Y434449D01*
X517704Y434461D01*
X517673Y434491D01*
X517579Y434527D01*
X517482Y434624D01*
X517045Y434805D01*
X516572D01*
X516135Y434624D01*
X515801Y434289D01*
X515620Y433852D01*
Y433379D01*
X515801Y432942D01*
X516135Y432608D01*
X516572Y432427D01*
X517045D01*
X517482Y432608D01*
X517579Y432704D01*
X517673Y432740D01*
X517704Y432770D01*
X517719Y432783D01*
X517734Y432793D01*
X517748Y432800D01*
X517762Y432807D01*
X517777Y432812D01*
X517794Y432817D01*
X517813Y432821D01*
X517837Y432823D01*
X517883Y432825D01*
X517940Y432851D01*
X519326D01*
X519451Y432551D01*
X519281Y432382D01*
X519100Y431945D01*
Y431472D01*
X519281Y431035D01*
X519616Y430700D01*
X520053Y430519D01*
X520526D01*
X520963Y430700D01*
X521297Y431035D01*
X521416Y431320D01*
X521482Y431406D01*
X521495Y431455D01*
X521505Y431488D01*
X521518Y431519D01*
X521531Y431548D01*
X521546Y431577D01*
X521562Y431604D01*
X521580Y431631D01*
X521600Y431658D01*
X521623Y431684D01*
X521632Y431694D01*
X523460D01*
X523753Y431752D01*
X524001Y431918D01*
X526733Y434650D01*
X527191D01*
X527248Y434623D01*
X527333Y434620D01*
X527346Y434619D01*
X527356Y434617D01*
X527362Y434615D01*
X527365Y434615D01*
X527375Y434612D01*
X527384Y434613D01*
X527430Y434566D01*
X527794Y434415D01*
X528189D01*
X528321Y434145D01*
X528332Y434111D01*
X525911Y431690D01*
X525757Y431459D01*
X525702Y431185D01*
Y428678D01*
X525438Y428610D01*
X525402Y428609D01*
X525102Y428909D01*
X524701Y429075D01*
X524267D01*
X523867Y428909D01*
X523736Y428779D01*
X523542Y428617D01*
X523344Y428779D01*
X523215Y428907D01*
X522814Y429073D01*
X522380D01*
X521980Y428907D01*
X521673Y428601D01*
X521507Y428200D01*
Y427766D01*
X521673Y427365D01*
X521824Y427214D01*
X521937Y426993D01*
X521824Y426822D01*
X521650Y426647D01*
X521484Y426246D01*
Y425813D01*
X521650Y425412D01*
X521957Y425105D01*
X522358Y424939D01*
X522791D01*
X523192Y425105D01*
X523371Y425284D01*
X523626Y425339D01*
X523748Y425269D01*
X523976Y425041D01*
X524376Y424875D01*
X524810D01*
X525211Y425041D01*
X525402Y425233D01*
X525702Y425108D01*
Y419260D01*
X512336Y405894D01*
X495753D01*
X495480Y405840D01*
X495249Y405685D01*
X493542Y403978D01*
X493126D01*
X492689Y403797D01*
X492354Y403463D01*
X492173Y403026D01*
Y402553D01*
X492354Y402116D01*
X492689Y401781D01*
X493126Y401600D01*
X493599D01*
X494036Y401781D01*
X494370Y402116D01*
X494551Y402553D01*
Y402969D01*
X496049Y404467D01*
X512632D01*
X512905Y404521D01*
X513137Y404676D01*
X526921Y418460D01*
X527075Y418691D01*
X527130Y418965D01*
Y430890D01*
X529335Y433095D01*
X529612Y432980D01*
Y413345D01*
X529666Y413072D01*
X529821Y412841D01*
X530909Y411752D01*
X530931Y411693D01*
X530955Y411667D01*
X530961Y411659D01*
X530967Y411649D01*
X530973Y411636D01*
X530979Y411620D01*
X530986Y411598D01*
X530992Y411571D01*
X530997Y411538D01*
X531000Y411498D01*
X531001Y411437D01*
X531042Y411343D01*
Y411203D01*
X531223Y410767D01*
X531557Y410432D01*
X531994Y410251D01*
X532467D01*
X532904Y410432D01*
X533239Y410767D01*
X533420Y411203D01*
Y411677D01*
X533239Y412114D01*
X532904Y412448D01*
X532467Y412629D01*
X532328D01*
X532234Y412670D01*
X532173Y412671D01*
X532133Y412674D01*
X532100Y412679D01*
X532073Y412685D01*
X532051Y412691D01*
X532034Y412698D01*
X532022Y412704D01*
X532012Y412710D01*
X532004Y412716D01*
X531978Y412740D01*
X531919Y412761D01*
X531039Y413641D01*
Y424754D01*
X531339Y424955D01*
X531521Y424879D01*
X531954D01*
X532355Y425045D01*
X532534Y425224D01*
X532789Y425279D01*
X532911Y425209D01*
X533139Y424982D01*
X533539Y424816D01*
X533973D01*
X534374Y424982D01*
X534681Y425289D01*
X534847Y425689D01*
Y426123D01*
X534681Y426524D01*
X534431Y426774D01*
X534376Y426849D01*
X534407Y427142D01*
X534572Y427307D01*
X534738Y427708D01*
Y428142D01*
X534572Y428543D01*
X534265Y428850D01*
X533864Y429016D01*
X533430D01*
X533030Y428850D01*
X532899Y428719D01*
X532705Y428558D01*
X532507Y428719D01*
X532378Y428848D01*
X531977Y429014D01*
X531543D01*
X531339Y428930D01*
X531039Y429130D01*
Y435515D01*
X530985Y435788D01*
X530830Y436020D01*
X530410Y436440D01*
X530557Y436795D01*
Y437189D01*
X530406Y437554D01*
X530126Y437833D01*
X529762Y437984D01*
D02*
G37*
G36*
X551890Y442046D02*
X551338D01*
X550829Y441835D01*
X550439Y441445D01*
X550228Y440936D01*
Y440384D01*
X550439Y439875D01*
X550829Y439485D01*
X551158Y439349D01*
X551017Y439009D01*
Y438458D01*
X551228Y437949D01*
X551618Y437559D01*
X552127Y437348D01*
X552678D01*
X553188Y437559D01*
X553578Y437949D01*
X553789Y438458D01*
Y439009D01*
X553578Y439519D01*
X553188Y439909D01*
X552859Y440045D01*
X553000Y440384D01*
Y440936D01*
X552789Y441445D01*
X552399Y441835D01*
X551890Y442046D01*
D02*
G37*
G36*
X503988Y439899D02*
X503437D01*
X502927Y439688D01*
X502538Y439298D01*
X502327Y438789D01*
Y438237D01*
X502538Y437728D01*
X502927Y437338D01*
X503437Y437127D01*
X503988D01*
X504497Y437338D01*
X504887Y437728D01*
X505098Y438237D01*
Y438789D01*
X504887Y439298D01*
X504497Y439688D01*
X503988Y439899D01*
D02*
G37*
G36*
X479385Y441155D02*
X476185D01*
X475229Y440965D01*
X474418Y440424D01*
X473877Y439613D01*
X473687Y438657D01*
X473877Y437702D01*
X474418Y436891D01*
X475229Y436349D01*
X476185Y436159D01*
X479385D01*
X480340Y436349D01*
X481151Y436891D01*
X481692Y437702D01*
X481883Y438657D01*
X481692Y439613D01*
X481151Y440424D01*
X480340Y440965D01*
X479385Y441155D01*
D02*
G37*
G36*
X464436D02*
X459636D01*
X458681Y440965D01*
X457870Y440424D01*
X457329Y439613D01*
X457138Y438657D01*
X457329Y437702D01*
X457870Y436891D01*
X458681Y436349D01*
X459636Y436159D01*
X464436D01*
X465392Y436349D01*
X466203Y436891D01*
X466744Y437702D01*
X466934Y438657D01*
X466744Y439613D01*
X466203Y440424D01*
X465392Y440965D01*
X464436Y441155D01*
D02*
G37*
G36*
X498043Y428811D02*
X497492D01*
X496983Y428600D01*
X496593Y428210D01*
X496382Y427701D01*
Y427149D01*
X496593Y426640D01*
X496983Y426250D01*
X497492Y426039D01*
X498043D01*
X498553Y426250D01*
X498943Y426640D01*
X499154Y427149D01*
Y427701D01*
X498943Y428210D01*
X498553Y428600D01*
X498043Y428811D01*
D02*
G37*
G36*
X551393Y427078D02*
X550841D01*
X550332Y426867D01*
X549942Y426478D01*
X549731Y425968D01*
Y425417D01*
X549942Y424908D01*
X550332Y424518D01*
X550841Y424307D01*
X551393D01*
X551902Y424518D01*
X552292Y424908D01*
X552503Y425417D01*
Y425968D01*
X552292Y426478D01*
X551902Y426867D01*
X551393Y427078D01*
D02*
G37*
G36*
X543145Y426857D02*
X542594D01*
X542085Y426646D01*
X541695Y426256D01*
X541484Y425747D01*
Y425196D01*
X541695Y424686D01*
X542085Y424297D01*
X542594Y424086D01*
X543145D01*
X543655Y424297D01*
X544045Y424686D01*
X544255Y425196D01*
Y425747D01*
X544045Y426256D01*
X543655Y426646D01*
X543145Y426857D01*
D02*
G37*
G36*
X551361Y423122D02*
X550810D01*
X550300Y422911D01*
X549911Y422521D01*
X549700Y422012D01*
Y421460D01*
X549911Y420951D01*
X550300Y420561D01*
X550810Y420350D01*
X551361D01*
X551870Y420561D01*
X552260Y420951D01*
X552471Y421460D01*
Y422012D01*
X552260Y422521D01*
X551870Y422911D01*
X551361Y423122D01*
D02*
G37*
G36*
X539203Y422548D02*
X538652D01*
X538142Y422337D01*
X537752Y421947D01*
X537541Y421438D01*
Y420887D01*
X537752Y420377D01*
X538142Y419987D01*
X538652Y419776D01*
X538868D01*
X538928Y419476D01*
X538626Y419351D01*
X538236Y418961D01*
X538025Y418452D01*
Y417901D01*
X538236Y417391D01*
X538626Y417002D01*
X538766Y416943D01*
Y416643D01*
X538659Y416599D01*
X538270Y416209D01*
X538059Y415700D01*
Y415148D01*
X538270Y414639D01*
X538659Y414249D01*
X539169Y414038D01*
X539720D01*
X540229Y414249D01*
X540619Y414639D01*
X540830Y415148D01*
Y415700D01*
X540619Y416209D01*
X540229Y416599D01*
X540089Y416657D01*
Y416957D01*
X540196Y417002D01*
X540586Y417391D01*
X540797Y417901D01*
Y418452D01*
X540586Y418961D01*
X540196Y419351D01*
X539687Y419562D01*
X539470D01*
X539410Y419862D01*
X539712Y419987D01*
X540102Y420377D01*
X540313Y420887D01*
Y421438D01*
X540102Y421947D01*
X539712Y422337D01*
X539203Y422548D01*
D02*
G37*
G36*
X543590Y422365D02*
X543039D01*
X542529Y422154D01*
X542139Y421764D01*
X541928Y421254D01*
Y420703D01*
X542139Y420194D01*
X542529Y419804D01*
X542721Y419724D01*
Y419400D01*
X542604Y419351D01*
X542214Y418961D01*
X542003Y418452D01*
Y417901D01*
X542214Y417391D01*
X542604Y417002D01*
X542779Y416929D01*
Y416604D01*
X542646Y416549D01*
X542256Y416159D01*
X542045Y415650D01*
Y415098D01*
X542256Y414589D01*
X542646Y414199D01*
X543155Y413988D01*
X543707D01*
X544216Y414199D01*
X544606Y414589D01*
X544817Y415098D01*
Y415650D01*
X544606Y416159D01*
X544216Y416549D01*
X544041Y416621D01*
Y416946D01*
X544174Y417002D01*
X544564Y417391D01*
X544775Y417901D01*
Y418452D01*
X544564Y418961D01*
X544174Y419351D01*
X543982Y419431D01*
Y419756D01*
X544099Y419804D01*
X544489Y420194D01*
X544700Y420703D01*
Y421254D01*
X544489Y421764D01*
X544099Y422154D01*
X543590Y422365D01*
D02*
G37*
G36*
X547643Y419562D02*
X547092D01*
X546583Y419351D01*
X546193Y418961D01*
X545982Y418452D01*
Y417901D01*
X546193Y417391D01*
X546583Y417002D01*
X546911Y416865D01*
Y416541D01*
X546649Y416432D01*
X546259Y416042D01*
X546048Y415533D01*
Y414982D01*
X546259Y414472D01*
X546649Y414082D01*
X547159Y413871D01*
X547710D01*
X548219Y414082D01*
X548609Y414472D01*
X548820Y414982D01*
Y415533D01*
X548609Y416042D01*
X548219Y416432D01*
X547891Y416568D01*
Y416893D01*
X548152Y417002D01*
X548542Y417391D01*
X548753Y417901D01*
Y418452D01*
X548542Y418961D01*
X548152Y419351D01*
X547643Y419562D01*
D02*
G37*
G36*
X551686Y416018D02*
X551135D01*
X550625Y415807D01*
X550236Y415417D01*
X550025Y414908D01*
Y414356D01*
X550236Y413847D01*
X550625Y413457D01*
X551135Y413246D01*
X551686D01*
X552195Y413457D01*
X552585Y413847D01*
X552796Y414356D01*
Y414908D01*
X552585Y415417D01*
X552195Y415807D01*
X551686Y416018D01*
D02*
G37*
G36*
X547176Y413124D02*
X546625D01*
X546115Y412913D01*
X545726Y412523D01*
X545515Y412013D01*
Y411462D01*
X545726Y410953D01*
X546115Y410563D01*
X546625Y410352D01*
X547176D01*
X547685Y410563D01*
X548075Y410953D01*
X548286Y411462D01*
Y412013D01*
X548075Y412523D01*
X547685Y412913D01*
X547176Y413124D01*
D02*
G37*
G36*
X542625Y413100D02*
X542074D01*
X541565Y412889D01*
X541175Y412499D01*
X540964Y411989D01*
Y411438D01*
X541175Y410929D01*
X541565Y410539D01*
X542074Y410328D01*
X542625D01*
X543135Y410539D01*
X543525Y410929D01*
X543736Y411438D01*
Y411989D01*
X543525Y412499D01*
X543135Y412889D01*
X542625Y413100D01*
D02*
G37*
G36*
X479385Y407140D02*
X476185D01*
X475229Y406950D01*
X474418Y406408D01*
X473877Y405598D01*
X473687Y404642D01*
X473877Y403686D01*
X474418Y402875D01*
X475229Y402334D01*
X476185Y402144D01*
X479385D01*
X480340Y402334D01*
X481151Y402875D01*
X481692Y403686D01*
X481883Y404642D01*
X481692Y405598D01*
X481151Y406408D01*
X480340Y406950D01*
X479385Y407140D01*
D02*
G37*
G36*
X464436D02*
X459636D01*
X458681Y406950D01*
X457870Y406408D01*
X457329Y405598D01*
X457138Y404642D01*
X457329Y403686D01*
X457870Y402875D01*
X458681Y402334D01*
X459636Y402144D01*
X464436D01*
X465392Y402334D01*
X466203Y402875D01*
X466744Y403686D01*
X466934Y404642D01*
X466744Y405598D01*
X466203Y406408D01*
X465392Y406950D01*
X464436Y407140D01*
D02*
G37*
G36*
X513947Y398358D02*
X513350D01*
X512799Y398130D01*
X512543Y397875D01*
X512288Y398130D01*
X511737Y398358D01*
X511140D01*
X510589Y398130D01*
X510167Y397708D01*
X509938Y397157D01*
Y396560D01*
X510167Y396009D01*
X510589Y395587D01*
X511140Y395358D01*
X511737D01*
X512288Y395587D01*
X512543Y395842D01*
X512799Y395587D01*
X513350Y395358D01*
X513947D01*
X514498Y395587D01*
X514920Y396009D01*
X515148Y396560D01*
Y397157D01*
X514920Y397708D01*
X514498Y398130D01*
X513947Y398358D01*
D02*
G37*
G36*
X463143Y394207D02*
X462592D01*
X462082Y393996D01*
X461692Y393606D01*
X461481Y393097D01*
Y392546D01*
X461692Y392037D01*
X462082Y391647D01*
X462592Y391436D01*
X463143D01*
X463652Y391647D01*
X464042Y392037D01*
X464253Y392546D01*
Y393097D01*
X464042Y393606D01*
X463652Y393996D01*
X463143Y394207D01*
D02*
G37*
G36*
X459658Y397252D02*
X459107D01*
X458598Y397042D01*
X458208Y396652D01*
X457997Y396142D01*
Y395591D01*
X458208Y395082D01*
X458598Y394692D01*
X459098Y394484D01*
X459110Y394448D01*
X459131Y394181D01*
X458686Y393996D01*
X458296Y393606D01*
X458085Y393097D01*
Y392546D01*
X458296Y392037D01*
X458686Y391647D01*
X459195Y391436D01*
X459746D01*
X460256Y391647D01*
X460645Y392037D01*
X460856Y392546D01*
Y393097D01*
X460645Y393606D01*
X460256Y393996D01*
X459755Y394204D01*
X459744Y394240D01*
X459722Y394507D01*
X460168Y394692D01*
X460558Y395082D01*
X460769Y395591D01*
Y396142D01*
X460558Y396652D01*
X460168Y397042D01*
X459658Y397252D01*
D02*
G37*
G36*
X456350Y394207D02*
X455798D01*
X455289Y393996D01*
X454899Y393606D01*
X454688Y393097D01*
Y392546D01*
X454899Y392037D01*
X455289Y391647D01*
X455798Y391436D01*
X456350D01*
X456859Y391647D01*
X457249Y392037D01*
X457460Y392546D01*
Y393097D01*
X457249Y393606D01*
X456859Y393996D01*
X456350Y394207D01*
D02*
G37*
G36*
X483809Y394051D02*
X483257D01*
X482748Y393840D01*
X482358Y393451D01*
X482147Y392941D01*
Y392390D01*
X482358Y391881D01*
X482748Y391491D01*
X483257Y391280D01*
X483809D01*
X484318Y391491D01*
X484708Y391881D01*
X484919Y392390D01*
Y392941D01*
X484708Y393451D01*
X484318Y393840D01*
X483809Y394051D01*
D02*
G37*
G36*
X492501Y393066D02*
X492067D01*
X491666Y392900D01*
X491360Y392593D01*
X491193Y392192D01*
Y391758D01*
X491360Y391357D01*
X491666Y391051D01*
X492067Y390884D01*
X492501D01*
X492902Y391051D01*
X493209Y391357D01*
X493375Y391758D01*
Y392192D01*
X493209Y392593D01*
X492902Y392900D01*
X492501Y393066D01*
D02*
G37*
G36*
X535249Y393318D02*
X534652D01*
X534100Y393090D01*
X533678Y392668D01*
X533450Y392116D01*
Y391519D01*
X533678Y390968D01*
X534100Y390546D01*
X534652Y390318D01*
X535249D01*
X535800Y390546D01*
X536222Y390968D01*
X536450Y391519D01*
Y392116D01*
X536222Y392668D01*
X535800Y393090D01*
X535249Y393318D01*
D02*
G37*
G36*
X498299Y393408D02*
X497865D01*
X497465Y393242D01*
X497158Y392935D01*
X496992Y392534D01*
Y392100D01*
X497158Y391700D01*
X497465Y391393D01*
X497830Y391241D01*
X497863Y391119D01*
X497860Y390929D01*
X497707Y390865D01*
X497400Y390559D01*
X497234Y390158D01*
Y389724D01*
X497400Y389323D01*
X497707Y389016D01*
X498107Y388850D01*
X498541D01*
X498942Y389016D01*
X499249Y389323D01*
X499415Y389724D01*
Y390158D01*
X499249Y390559D01*
X498942Y390865D01*
X498577Y391017D01*
X498543Y391139D01*
X498547Y391329D01*
X498700Y391393D01*
X499007Y391700D01*
X499173Y392100D01*
Y392534D01*
X499007Y392935D01*
X498700Y393242D01*
X498299Y393408D01*
D02*
G37*
G36*
X492501Y390522D02*
X492067D01*
X491666Y390356D01*
X491360Y390049D01*
X491193Y389648D01*
Y389214D01*
X491360Y388813D01*
X491666Y388507D01*
X492067Y388340D01*
X492501D01*
X492902Y388507D01*
X493209Y388813D01*
X493375Y389214D01*
Y389648D01*
X493209Y390049D01*
X492902Y390356D01*
X492501Y390522D01*
D02*
G37*
G36*
X483251Y389077D02*
X482700D01*
X482190Y388866D01*
X481801Y388476D01*
X481590Y387967D01*
Y387416D01*
X481801Y386907D01*
X482190Y386517D01*
X482700Y386306D01*
X483251D01*
X483760Y386517D01*
X484150Y386907D01*
X484361Y387416D01*
Y387967D01*
X484150Y388476D01*
X483760Y388866D01*
X483251Y389077D01*
D02*
G37*
G36*
X518190Y387622D02*
X517594D01*
X517042Y387394D01*
X516620Y386972D01*
X516392Y386420D01*
Y385824D01*
X516620Y385272D01*
X517042Y384850D01*
X517594Y384622D01*
X518190D01*
X518742Y384850D01*
X519164Y385272D01*
X519392Y385824D01*
Y386420D01*
X519164Y386972D01*
X518742Y387394D01*
X518190Y387622D01*
D02*
G37*
G36*
X566956Y384019D02*
X566359D01*
X565808Y383791D01*
X565386Y383369D01*
X565158Y382818D01*
Y382221D01*
X565386Y381670D01*
X565808Y381248D01*
X566359Y381019D01*
X566956D01*
X567507Y381248D01*
X567929Y381670D01*
X568158Y382221D01*
Y382818D01*
X567929Y383369D01*
X567507Y383791D01*
X566956Y384019D01*
D02*
G37*
G36*
X564510Y380872D02*
X563913D01*
X563362Y380643D01*
X562940Y380221D01*
X562711Y379670D01*
Y379073D01*
X562940Y378522D01*
X563362Y378100D01*
X563913Y377871D01*
X564510D01*
X565061Y378100D01*
X565483Y378522D01*
X565711Y379073D01*
Y379670D01*
X565483Y380221D01*
X565061Y380643D01*
X564510Y380872D01*
D02*
G37*
G36*
X511599Y376981D02*
X511048D01*
X510538Y376770D01*
X510149Y376380D01*
X509938Y375871D01*
Y375320D01*
X510149Y374810D01*
X510538Y374420D01*
X511048Y374209D01*
X511599D01*
X512108Y374420D01*
X512498Y374810D01*
X512709Y375320D01*
Y375871D01*
X512498Y376380D01*
X512108Y376770D01*
X511599Y376981D01*
D02*
G37*
G36*
X516001Y369898D02*
X515528D01*
X515091Y369717D01*
X514757Y369383D01*
X514576Y368946D01*
Y368473D01*
X514757Y368036D01*
X515091Y367701D01*
X515528Y367520D01*
X516001D01*
X516438Y367701D01*
X516773Y368036D01*
X516954Y368473D01*
Y368946D01*
X516773Y369383D01*
X516438Y369717D01*
X516001Y369898D01*
D02*
G37*
G36*
X529546Y370117D02*
X528949D01*
X528398Y369889D01*
X527976Y369467D01*
X527747Y368916D01*
Y368319D01*
X527976Y367768D01*
X528398Y367346D01*
X528949Y367117D01*
X529546D01*
X530097Y367346D01*
X530519Y367768D01*
X530747Y368319D01*
Y368916D01*
X530519Y369467D01*
X530097Y369889D01*
X529546Y370117D01*
D02*
G37*
G36*
X511029Y367311D02*
X510478D01*
X509969Y367099D01*
X509740Y366870D01*
X509550Y366730D01*
X509348Y366870D01*
X509180Y367038D01*
X508743Y367219D01*
X508270D01*
X507833Y367038D01*
X507498Y366704D01*
X507317Y366267D01*
Y365794D01*
X507498Y365357D01*
X507833Y365022D01*
X508270Y364842D01*
X508743D01*
X509180Y365022D01*
X509344Y365187D01*
X509579Y365140D01*
X509969Y364750D01*
X510478Y364539D01*
X511029D01*
X511539Y364750D01*
X511929Y365140D01*
X512140Y365649D01*
Y366200D01*
X511929Y366710D01*
X511539Y367099D01*
X511029Y367311D01*
D02*
G37*
G36*
X497183Y369145D02*
X496586D01*
X496035Y368916D01*
X495613Y368494D01*
X495385Y367943D01*
Y367346D01*
X495613Y366795D01*
X496035Y366373D01*
X496586Y366145D01*
X497183D01*
X497734Y366373D01*
X498156Y366795D01*
X498385Y367346D01*
Y367943D01*
X498156Y368494D01*
X497734Y368916D01*
X497183Y369145D01*
D02*
G37*
G36*
X467511Y368312D02*
X466959D01*
X466450Y368101D01*
X466060Y367711D01*
X465849Y367202D01*
Y366651D01*
X466060Y366141D01*
X466450Y365752D01*
X466959Y365541D01*
X467511D01*
X468020Y365752D01*
X468410Y366141D01*
X468621Y366651D01*
Y367202D01*
X468410Y367711D01*
X468020Y368101D01*
X467511Y368312D01*
D02*
G37*
G36*
X516202Y366948D02*
X515729D01*
X515292Y366767D01*
X514958Y366432D01*
X514777Y365995D01*
Y365522D01*
X514958Y365085D01*
X515292Y364751D01*
X515729Y364570D01*
X516202D01*
X516639Y364751D01*
X516973Y365085D01*
X517155Y365522D01*
Y365995D01*
X516973Y366432D01*
X516639Y366767D01*
X516202Y366948D01*
D02*
G37*
G36*
X508714Y390890D02*
X504102D01*
X503666Y390454D01*
Y382455D01*
X504489Y381633D01*
X508730Y381609D01*
X508762D01*
X509327Y382173D01*
X509558Y382269D01*
X518426Y373401D01*
Y364136D01*
X517951Y363661D01*
X508392D01*
X507614Y364439D01*
X505892D01*
X500153Y358700D01*
X500098Y357962D01*
X500097Y357956D01*
X500099Y357949D01*
X503006Y355043D01*
X521951D01*
X521997Y355043D01*
X522057Y354743D01*
X522043Y354737D01*
X521719Y354603D01*
X521329Y354213D01*
X521118Y353704D01*
Y353152D01*
X521329Y352643D01*
X521719Y352253D01*
X522229Y352042D01*
X522780D01*
X523289Y352253D01*
X523679Y352643D01*
X523790Y352910D01*
X524144Y352981D01*
X524154Y352971D01*
X524663Y352760D01*
X525214D01*
X525724Y352971D01*
X526114Y353360D01*
X526325Y353870D01*
Y354421D01*
X526114Y354930D01*
X525724Y355320D01*
X525214Y355531D01*
X524663D01*
X524154Y355320D01*
X523764Y354930D01*
X523653Y354663D01*
X523299Y354593D01*
X523289Y354603D01*
X522780Y354814D01*
X522349D01*
X522334Y354814D01*
X522233Y355114D01*
X522263Y355144D01*
X525535Y358415D01*
X526234D01*
X531544Y353106D01*
X531473Y352752D01*
X531318Y352687D01*
X531036Y352718D01*
X530701Y353052D01*
X530265Y353233D01*
X529791D01*
X529354Y353052D01*
X529020Y352718D01*
X528839Y352281D01*
Y351808D01*
X529020Y351371D01*
X529354Y351037D01*
X529545Y350957D01*
X529616Y350604D01*
X529563Y350550D01*
X529409Y350321D01*
X529355Y350050D01*
Y349074D01*
X529055Y348967D01*
X528680Y349122D01*
X528246D01*
X528087Y349057D01*
X527787Y349257D01*
Y350812D01*
X527810Y350855D01*
X527806Y350868D01*
X527811Y350880D01*
X527816Y351004D01*
X527819Y351032D01*
X527824Y351057D01*
X527827Y351070D01*
X527832Y351079D01*
X527833Y351084D01*
X527837Y351094D01*
X527838Y351121D01*
X527980Y351263D01*
X528161Y351700D01*
Y352173D01*
X527980Y352610D01*
X527645Y352944D01*
X527208Y353125D01*
X526735D01*
X526298Y352944D01*
X525964Y352610D01*
X525783Y352173D01*
Y351884D01*
X525491Y351680D01*
X525489Y351681D01*
X525055D01*
X524654Y351515D01*
X524347Y351209D01*
X524181Y350808D01*
Y350374D01*
X524347Y349973D01*
X524654Y349666D01*
X525055Y349500D01*
X525489D01*
X525754Y349610D01*
X526054Y349439D01*
Y349025D01*
X525754Y348852D01*
X525526Y348947D01*
X525132D01*
X524767Y348796D01*
X524488Y348516D01*
X524337Y348152D01*
Y347757D01*
X524479Y347414D01*
Y346370D01*
X524545Y346038D01*
X524733Y345757D01*
X525014Y345569D01*
X525061Y345560D01*
X525439Y345227D01*
X525521Y345146D01*
X525587Y345119D01*
X525833Y344873D01*
X525857Y344811D01*
X525879Y344787D01*
X525887Y344777D01*
X525889Y344774D01*
X525890Y344774D01*
X525890Y344770D01*
X525892Y344766D01*
X525893Y344762D01*
X525896Y344758D01*
X525897Y344755D01*
X525899Y344753D01*
X525928Y344691D01*
Y344604D01*
X526079Y344240D01*
X526292Y344027D01*
X526056Y343791D01*
X525905Y343426D01*
Y343031D01*
X526056Y342667D01*
X526074Y342649D01*
X526079Y342608D01*
X526072Y342544D01*
X525961Y342337D01*
X524111D01*
X523818Y342279D01*
X523570Y342113D01*
X516062Y334604D01*
X515399D01*
X515107Y334546D01*
X514858Y334380D01*
X514656Y334178D01*
X514459D01*
X514384Y334254D01*
X513947Y334435D01*
X513474D01*
X513037Y334254D01*
X512702Y333919D01*
X512521Y333482D01*
Y333009D01*
X512702Y332572D01*
X513037Y332238D01*
X513179Y332179D01*
X513261Y331820D01*
X513115Y331466D01*
Y330993D01*
X513296Y330556D01*
X513630Y330221D01*
X514067Y330040D01*
X514540D01*
X514977Y330221D01*
X515311Y330556D01*
X515492Y330993D01*
Y331466D01*
X515311Y331903D01*
X514977Y332237D01*
X514964Y332567D01*
X515055Y332665D01*
X515266Y332707D01*
X515514Y332873D01*
X515716Y333075D01*
X516378D01*
X516671Y333133D01*
X516919Y333299D01*
X517883Y334262D01*
X518033Y334208D01*
X518160Y334115D01*
Y333611D01*
X518371Y333102D01*
X518761Y332712D01*
X519270Y332501D01*
X519822D01*
X520331Y332712D01*
X520721Y333102D01*
X520932Y333611D01*
Y334162D01*
X520721Y334671D01*
X520331Y335061D01*
X519822Y335272D01*
X519317D01*
X519224Y335399D01*
X519170Y335549D01*
X524428Y340808D01*
X526045D01*
X526102Y340781D01*
X526187Y340778D01*
X526200Y340777D01*
X526212Y340775D01*
X526220Y340772D01*
X526223Y340772D01*
X526231Y340770D01*
X526239Y340770D01*
X526279Y340731D01*
X526643Y340580D01*
X527038D01*
X527128Y340617D01*
X527378Y340451D01*
Y339661D01*
X527434Y339376D01*
Y338163D01*
X527360Y338079D01*
X527173Y337943D01*
X527151Y337938D01*
X527074Y337951D01*
X527000Y337934D01*
X526537D01*
X526028Y337723D01*
X525638Y337334D01*
X525616Y337280D01*
X525316Y337340D01*
Y337418D01*
X525135Y337855D01*
X524801Y338190D01*
X524364Y338371D01*
X523891D01*
X523454Y338190D01*
X523119Y337855D01*
X522938Y337418D01*
Y336945D01*
X523119Y336508D01*
X523454Y336174D01*
X523891Y335993D01*
X524364D01*
X524801Y336174D01*
X525127Y336500D01*
X525170Y336499D01*
X525427Y336430D01*
Y336273D01*
X525638Y335764D01*
X526028Y335374D01*
X526537Y335163D01*
X527089D01*
X527598Y335374D01*
X527988Y335764D01*
X528022Y335847D01*
X528322Y335787D01*
Y335247D01*
X528298Y335192D01*
X528295Y335058D01*
X528292Y335019D01*
X528282Y334940D01*
X528280Y334926D01*
X528278Y334920D01*
X528275Y334912D01*
X528274Y334909D01*
X528271Y334898D01*
X528273Y334863D01*
X528273Y334854D01*
X528130Y334508D01*
Y334035D01*
X528311Y333598D01*
X528645Y333263D01*
X529082Y333082D01*
X529555D01*
X529800Y333184D01*
X529970Y332929D01*
X527951Y330911D01*
X527753Y330613D01*
X527683Y330262D01*
Y321558D01*
X527753Y321207D01*
X527951Y320909D01*
X528834Y320027D01*
X529132Y319828D01*
X529483Y319758D01*
X535645D01*
X535996Y319828D01*
X536294Y320027D01*
X537566Y321299D01*
X537765Y321596D01*
X537834Y321948D01*
Y328760D01*
X541766Y332692D01*
X542148Y332650D01*
X542427Y332371D01*
X542936Y332160D01*
X543487D01*
X543997Y332371D01*
X544386Y332761D01*
X544597Y333271D01*
Y333775D01*
X544607Y333813D01*
X544607Y333814D01*
X544607Y333815D01*
X544610Y333827D01*
X544608Y333838D01*
X544616Y333855D01*
X544631Y333880D01*
X544655Y333912D01*
X544688Y333951D01*
X544740Y334007D01*
X544761Y334062D01*
X544809Y334097D01*
X544821Y334172D01*
X544915Y334314D01*
X544985Y334665D01*
Y334961D01*
X549030Y339005D01*
X549229Y339303D01*
X549298Y339654D01*
Y343170D01*
X549229Y343521D01*
X549030Y343818D01*
X548777Y344071D01*
Y350639D01*
X548708Y350990D01*
X548509Y351288D01*
X547743Y352054D01*
X547445Y352253D01*
X547094Y352323D01*
X542829D01*
X542478Y352253D01*
X542180Y352054D01*
X541180Y351054D01*
X540981Y350757D01*
X540911Y350405D01*
Y342740D01*
X540981Y342388D01*
X541180Y342091D01*
X541751Y341520D01*
X540608Y340378D01*
X539412D01*
X539061Y340308D01*
X538764Y340109D01*
X537825Y339171D01*
X537531Y339229D01*
X537449Y339428D01*
X537059Y339818D01*
X536549Y340029D01*
X535998D01*
X535489Y339818D01*
X535099Y339428D01*
X534888Y338919D01*
Y338368D01*
X535099Y337858D01*
X535489Y337469D01*
X535733Y337367D01*
X535791Y337073D01*
X534226Y335508D01*
X533932Y335567D01*
X533831Y335811D01*
X533441Y336201D01*
X532932Y336412D01*
X532380D01*
X531871Y336201D01*
X531481Y335811D01*
X531270Y335301D01*
Y334750D01*
X531481Y334241D01*
X531871Y333851D01*
X531897Y333840D01*
X531837Y333540D01*
X530961D01*
X530610Y333470D01*
X530560Y333437D01*
X530536Y333454D01*
X530352Y333659D01*
X530508Y334035D01*
Y334508D01*
X530327Y334945D01*
X530102Y335169D01*
X530100Y335174D01*
X530100Y335181D01*
X530093Y335193D01*
X530092Y335198D01*
X530090Y335210D01*
X530081Y335295D01*
X530080Y335349D01*
X530057Y335401D01*
X530067Y335457D01*
X530056Y335473D01*
Y335984D01*
X530041Y336056D01*
Y336891D01*
X530683Y337532D01*
X530871Y337813D01*
X530937Y338145D01*
Y340559D01*
X531237Y340741D01*
X531448Y340654D01*
X531842D01*
X532207Y340805D01*
X532436Y341034D01*
X532651Y340819D01*
X533016Y340668D01*
X533410D01*
X533775Y340819D01*
X534054Y341098D01*
X534205Y341463D01*
Y341534D01*
X534236Y341596D01*
X534236Y341597D01*
X534237Y341598D01*
X534237Y341598D01*
X534240Y341602D01*
X534240Y341604D01*
X534243Y341608D01*
X534243Y341611D01*
X534245Y341615D01*
X534245Y341619D01*
X534249Y341624D01*
X534258Y341634D01*
X534280Y341658D01*
X534304Y341721D01*
X537005Y344421D01*
X537259Y344251D01*
X537127Y343932D01*
Y343381D01*
X537338Y342872D01*
X537728Y342482D01*
X538237Y342271D01*
X538789D01*
X539298Y342482D01*
X539688Y342872D01*
X539899Y343381D01*
Y343932D01*
X539688Y344442D01*
X539298Y344831D01*
X538789Y345042D01*
X538237D01*
X537728Y344831D01*
X537410Y344908D01*
X537395Y344923D01*
X537441Y345153D01*
Y349831D01*
X537386Y350104D01*
X537232Y350336D01*
X526350Y361218D01*
X526118Y361373D01*
X525845Y361427D01*
X524283D01*
X520318Y365392D01*
X519854D01*
Y373696D01*
X519799Y373969D01*
X519645Y374201D01*
X509327Y384519D01*
Y390454D01*
X509149D01*
X508714Y390890D01*
D02*
G37*
G36*
X484296Y363935D02*
X483823D01*
X483386Y363754D01*
X483052Y363419D01*
X482871Y362982D01*
Y362509D01*
X483052Y362072D01*
X483386Y361738D01*
X483823Y361557D01*
X484296D01*
X484733Y361738D01*
X485068Y362072D01*
X485249Y362509D01*
Y362982D01*
X485068Y363419D01*
X484733Y363754D01*
X484296Y363935D01*
D02*
G37*
G36*
X478354Y363286D02*
X477881D01*
X477444Y363105D01*
X477109Y362770D01*
X476928Y362333D01*
Y361860D01*
X477109Y361423D01*
X477444Y361089D01*
X477881Y360908D01*
X478354D01*
X478791Y361089D01*
X479125Y361423D01*
X479306Y361860D01*
Y362333D01*
X479125Y362770D01*
X478791Y363105D01*
X478354Y363286D01*
D02*
G37*
G36*
X468334Y363650D02*
X467783D01*
X467274Y363439D01*
X466884Y363049D01*
X466673Y362540D01*
Y361989D01*
X466884Y361479D01*
X467274Y361089D01*
X467783Y360878D01*
X468334D01*
X468844Y361089D01*
X469233Y361479D01*
X469444Y361989D01*
Y362540D01*
X469233Y363049D01*
X468844Y363439D01*
X468334Y363650D01*
D02*
G37*
G36*
X456538Y362320D02*
X455987D01*
X455478Y362109D01*
X455088Y361719D01*
X454877Y361210D01*
Y360658D01*
X455088Y360149D01*
X455478Y359759D01*
X455987Y359548D01*
X456538D01*
X457048Y359759D01*
X457438Y360149D01*
X457649Y360658D01*
Y361210D01*
X457438Y361719D01*
X457048Y362109D01*
X456538Y362320D01*
D02*
G37*
G36*
X487714Y360769D02*
X487241D01*
X486804Y360588D01*
X486470Y360254D01*
X486289Y359816D01*
Y359343D01*
X486470Y358906D01*
X486618Y358758D01*
X486750Y358513D01*
X486618Y358366D01*
X486421Y358170D01*
X486240Y357733D01*
Y357259D01*
X486421Y356822D01*
X486755Y356488D01*
X487192Y356307D01*
X487665D01*
X488102Y356488D01*
X488437Y356822D01*
X488618Y357259D01*
Y357733D01*
X488437Y358170D01*
X488289Y358317D01*
X488156Y358563D01*
X488289Y358710D01*
X488485Y358906D01*
X488666Y359343D01*
Y359816D01*
X488485Y360254D01*
X488151Y360588D01*
X487714Y360769D01*
D02*
G37*
G36*
X468261Y358978D02*
X467710D01*
X467201Y358767D01*
X466811Y358377D01*
X466600Y357867D01*
Y357316D01*
X466811Y356807D01*
X467201Y356417D01*
X467710Y356206D01*
X468261D01*
X468771Y356417D01*
X469161Y356807D01*
X469372Y357316D01*
Y357867D01*
X469161Y358377D01*
X468771Y358767D01*
X468261Y358978D01*
D02*
G37*
G36*
X539021Y356623D02*
X538470D01*
X537960Y356412D01*
X537571Y356023D01*
X537360Y355513D01*
Y354962D01*
X537571Y354453D01*
X537960Y354063D01*
X538470Y353852D01*
X539021D01*
X539530Y354063D01*
X539920Y354453D01*
X540131Y354962D01*
Y355513D01*
X539920Y356023D01*
X539530Y356412D01*
X539021Y356623D01*
D02*
G37*
G36*
X461612Y355570D02*
X461015D01*
X460464Y355341D01*
X460042Y354919D01*
X459813Y354368D01*
Y353771D01*
X460042Y353220D01*
X460464Y352798D01*
X461015Y352570D01*
X461612D01*
X462163Y352798D01*
X462585Y353220D01*
X462813Y353771D01*
Y354368D01*
X462585Y354919D01*
X462163Y355341D01*
X461612Y355570D01*
D02*
G37*
G36*
X504915Y350105D02*
X504363D01*
X503854Y349894D01*
X503464Y349504D01*
X503253Y348995D01*
Y348444D01*
X503464Y347934D01*
X503854Y347545D01*
X504363Y347334D01*
X504915D01*
X505424Y347545D01*
X505814Y347934D01*
X506025Y348444D01*
Y348995D01*
X505814Y349504D01*
X505424Y349894D01*
X504915Y350105D01*
D02*
G37*
G36*
X485619Y349051D02*
X485146D01*
X484709Y348870D01*
X484374Y348535D01*
X484193Y348098D01*
Y347625D01*
X484374Y347188D01*
X484709Y346854D01*
X485146Y346673D01*
X485619D01*
X486056Y346854D01*
X486390Y347188D01*
X486571Y347625D01*
Y348098D01*
X486390Y348535D01*
X486056Y348870D01*
X485619Y349051D01*
D02*
G37*
G36*
X551015Y348818D02*
X550419D01*
X549867Y348590D01*
X549445Y348168D01*
X549217Y347617D01*
Y347020D01*
X549445Y346469D01*
X549867Y346047D01*
X550419Y345818D01*
X551015D01*
X551567Y346047D01*
X551989Y346469D01*
X552217Y347020D01*
Y347617D01*
X551989Y348168D01*
X551567Y348590D01*
X551015Y348818D01*
D02*
G37*
G36*
X516678Y346736D02*
X516126D01*
X515617Y346525D01*
X515227Y346135D01*
X515016Y345625D01*
Y345074D01*
X515227Y344565D01*
X515617Y344175D01*
X516126Y343964D01*
X516678D01*
X517187Y344175D01*
X517577Y344565D01*
X517788Y345074D01*
Y345625D01*
X517577Y346135D01*
X517187Y346525D01*
X516678Y346736D01*
D02*
G37*
G36*
X466808Y345749D02*
X466256D01*
X465747Y345538D01*
X465357Y345148D01*
X465146Y344638D01*
Y344087D01*
X465357Y343578D01*
X465747Y343188D01*
X466256Y342977D01*
X466808D01*
X467317Y343188D01*
X467574Y343445D01*
X467612Y343437D01*
X468002Y343047D01*
X468511Y342836D01*
X469062D01*
X469571Y343047D01*
X469961Y343437D01*
X470172Y343947D01*
Y344498D01*
X469961Y345007D01*
X469571Y345397D01*
X469062Y345608D01*
X468511D01*
X468002Y345397D01*
X467745Y345140D01*
X467707Y345148D01*
X467317Y345538D01*
X466808Y345749D01*
D02*
G37*
G36*
X490061Y345116D02*
X489587D01*
X489150Y344935D01*
X488816Y344601D01*
X488635Y344164D01*
Y343691D01*
X488816Y343254D01*
X489150Y342919D01*
X489587Y342738D01*
X490061D01*
X490497Y342919D01*
X490832Y343254D01*
X491013Y343691D01*
Y344164D01*
X490832Y344601D01*
X490497Y344935D01*
X490061Y345116D01*
D02*
G37*
G36*
X510717Y340599D02*
X510244D01*
X509807Y340418D01*
X509473Y340083D01*
X509292Y339646D01*
Y339173D01*
X509473Y338736D01*
X509807Y338402D01*
X510244Y338221D01*
X510717D01*
X511154Y338402D01*
X511489Y338736D01*
X511670Y339173D01*
Y339646D01*
X511489Y340083D01*
X511154Y340418D01*
X510717Y340599D01*
D02*
G37*
G36*
X515955Y340057D02*
X515482D01*
X515045Y339876D01*
X514711Y339541D01*
X514530Y339104D01*
Y338631D01*
X514711Y338194D01*
X515045Y337860D01*
X515482Y337679D01*
X515955D01*
X516392Y337860D01*
X516727Y338194D01*
X516908Y338631D01*
Y339104D01*
X516727Y339541D01*
X516392Y339876D01*
X515955Y340057D01*
D02*
G37*
G36*
X517903Y332368D02*
X517430D01*
X516993Y332187D01*
X516659Y331853D01*
X516478Y331416D01*
Y330943D01*
X516659Y330506D01*
X516993Y330171D01*
X517430Y329991D01*
X517903D01*
X518340Y330171D01*
X518675Y330506D01*
X518856Y330943D01*
Y331416D01*
X518675Y331853D01*
X518340Y332187D01*
X517903Y332368D01*
D02*
G37*
G36*
X475075Y331449D02*
X474603D01*
X474165Y331268D01*
X473831Y330934D01*
X473650Y330497D01*
Y330024D01*
X473831Y329587D01*
X474165Y329252D01*
X474603Y329071D01*
X475075D01*
X475513Y329252D01*
X475847Y329587D01*
X476028Y330024D01*
Y330497D01*
X475847Y330934D01*
X475513Y331268D01*
X475075Y331449D01*
D02*
G37*
G36*
X514675Y329192D02*
X514202D01*
X513765Y329011D01*
X513431Y328677D01*
X513250Y328239D01*
Y327766D01*
X513431Y327329D01*
X513765Y326995D01*
X514202Y326814D01*
X514675D01*
X515112Y326995D01*
X515447Y327329D01*
X515628Y327766D01*
Y328239D01*
X515447Y328677D01*
X515112Y329011D01*
X514675Y329192D01*
D02*
G37*
G36*
X556254Y329735D02*
X555658D01*
X555106Y329507D01*
X554684Y329085D01*
X554456Y328533D01*
Y327937D01*
X554626Y327528D01*
X554192Y327348D01*
X553770Y326926D01*
X553542Y326375D01*
Y325778D01*
X553770Y325227D01*
X554192Y324805D01*
X554743Y324576D01*
X555340D01*
X555891Y324805D01*
X556313Y325227D01*
X556542Y325778D01*
Y326375D01*
X556372Y326784D01*
X556806Y326963D01*
X557228Y327385D01*
X557456Y327937D01*
Y328533D01*
X557228Y329085D01*
X556806Y329507D01*
X556254Y329735D01*
D02*
G37*
G36*
X523066Y324408D02*
X522514D01*
X522005Y324197D01*
X521615Y323807D01*
X521404Y323298D01*
Y322746D01*
X521615Y322237D01*
X522005Y321847D01*
X522514Y321636D01*
X523066D01*
X523575Y321847D01*
X523965Y322237D01*
X524176Y322746D01*
Y323298D01*
X523965Y323807D01*
X523575Y324197D01*
X523066Y324408D01*
D02*
G37*
G36*
X473583Y324224D02*
X473031D01*
X472522Y324013D01*
X472132Y323623D01*
X471921Y323114D01*
Y322563D01*
X472132Y322054D01*
X472522Y321664D01*
X473031Y321453D01*
X473583D01*
X474092Y321664D01*
X474482Y322054D01*
X474693Y322563D01*
Y323114D01*
X474482Y323623D01*
X474092Y324013D01*
X473583Y324224D01*
D02*
G37*
G36*
X559637Y322808D02*
X559164D01*
X558727Y322627D01*
X558393Y322293D01*
X558212Y321856D01*
Y321383D01*
X558393Y320946D01*
X558727Y320611D01*
X559164Y320430D01*
X559637D01*
X560074Y320611D01*
X560408Y320946D01*
X560590Y321383D01*
Y321856D01*
X560408Y322293D01*
X560074Y322627D01*
X559637Y322808D01*
D02*
G37*
G36*
X466319Y322449D02*
X465768D01*
X465258Y322238D01*
X464868Y321848D01*
X464657Y321339D01*
Y320787D01*
X464868Y320278D01*
X465258Y319888D01*
X465768Y319677D01*
X466319D01*
X466828Y319888D01*
X467218Y320278D01*
X467429Y320787D01*
Y321339D01*
X467218Y321848D01*
X466828Y322238D01*
X466319Y322449D01*
D02*
G37*
G36*
X478471Y360081D02*
X477998D01*
X477561Y359900D01*
X477226Y359565D01*
X477045Y359128D01*
Y358656D01*
X477226Y358219D01*
X477561Y357884D01*
X477998Y357703D01*
X478471D01*
X478908Y357884D01*
X479185Y358161D01*
X479429Y358170D01*
X479536Y358142D01*
X479840Y357838D01*
X480277Y357657D01*
X480750D01*
X481187Y357838D01*
X481285Y357936D01*
X481380Y357974D01*
X481420Y358012D01*
X481446Y358033D01*
X481469Y358050D01*
X481489Y358063D01*
X481507Y358072D01*
X481523Y358079D01*
X481537Y358083D01*
X481551Y358086D01*
X481565Y358088D01*
X481579Y358088D01*
X487578Y352089D01*
X487815Y351931D01*
X488094Y351875D01*
X489004D01*
X492991Y347888D01*
X492950Y347681D01*
X492615Y347346D01*
X492434Y346909D01*
Y346437D01*
X492615Y346000D01*
X492950Y345665D01*
X493387Y345484D01*
X493860D01*
X494297Y345665D01*
X494631Y346000D01*
X494733Y346244D01*
X495086Y346315D01*
X503266Y338135D01*
Y331646D01*
X503322Y331367D01*
X503480Y331130D01*
X505415Y329195D01*
X505652Y329036D01*
X505932Y328981D01*
X507220D01*
X509398Y326803D01*
Y325269D01*
X509454Y324990D01*
X509612Y324753D01*
X516717Y317648D01*
X516602Y317370D01*
X516069D01*
X506844Y326595D01*
X506607Y326753D01*
X506328Y326809D01*
X505819D01*
X504984Y327643D01*
Y328449D01*
X504929Y328728D01*
X504770Y328965D01*
X503172Y330564D01*
X502935Y330722D01*
X502656Y330778D01*
X501869D01*
X500965Y331681D01*
Y332487D01*
X500910Y332766D01*
X500751Y333003D01*
X497607Y336148D01*
X497370Y336306D01*
X497090Y336362D01*
X487827D01*
Y343777D01*
X487854Y343834D01*
X487856Y343873D01*
X487857Y343887D01*
X487860Y343901D01*
X487865Y343916D01*
X487872Y343931D01*
X487881Y343949D01*
X487893Y343970D01*
X487910Y343992D01*
X487932Y344018D01*
X487970Y344058D01*
X488007Y344153D01*
X488105Y344251D01*
X488286Y344689D01*
Y345162D01*
X488105Y345599D01*
X487771Y345933D01*
X487334Y346114D01*
X486861D01*
X486424Y345933D01*
X486089Y345599D01*
X485908Y345162D01*
Y344689D01*
X486089Y344251D01*
X486187Y344153D01*
X486224Y344058D01*
X486263Y344018D01*
X486284Y343993D01*
X486301Y343970D01*
X486314Y343949D01*
X486323Y343931D01*
X486329Y343916D01*
X486334Y343901D01*
X486337Y343887D01*
X486339Y343873D01*
X486341Y343834D01*
X486367Y343777D01*
Y335631D01*
X486423Y335352D01*
X486581Y335115D01*
X486818Y334957D01*
X487097Y334901D01*
X496788D01*
X499505Y332184D01*
Y331379D01*
X499561Y331100D01*
X499719Y330863D01*
X501050Y329531D01*
X501287Y329373D01*
X501566Y329318D01*
X502353D01*
X503524Y328147D01*
Y327341D01*
X503580Y327062D01*
X503738Y326825D01*
X505000Y325563D01*
X505237Y325405D01*
X505516Y325349D01*
X506026D01*
X515250Y316124D01*
X515487Y315966D01*
X515767Y315910D01*
X541820D01*
X542099Y315966D01*
X542336Y316124D01*
X544835Y318623D01*
X544993Y318860D01*
X545049Y319139D01*
Y323274D01*
X551909Y330135D01*
X552160D01*
X552218Y330108D01*
X552258Y330106D01*
X552279Y330104D01*
X552300Y330100D01*
X552324Y330093D01*
X552351Y330084D01*
X552380Y330072D01*
X552405Y330060D01*
X552490Y330009D01*
X552534Y329977D01*
X552584Y329965D01*
X552589Y329960D01*
X553026Y329780D01*
X553499D01*
X553936Y329960D01*
X554270Y330295D01*
X554451Y330732D01*
Y331205D01*
X554270Y331642D01*
X554047Y331866D01*
X554059Y331980D01*
X554142Y332191D01*
X554517Y332347D01*
X554851Y332681D01*
X555032Y333118D01*
Y333591D01*
X554906Y333898D01*
X554896Y334080D01*
X555047Y334256D01*
X555442Y334420D01*
X555864Y334842D01*
X556092Y335393D01*
Y335990D01*
X555864Y336541D01*
X555442Y336963D01*
X554890Y337191D01*
X554294D01*
X553742Y336963D01*
X553320Y336541D01*
X553092Y335990D01*
Y335393D01*
X553320Y334842D01*
X553385Y334776D01*
X553315Y334423D01*
X553170Y334363D01*
X553060Y334253D01*
X552962Y334212D01*
X552923Y334174D01*
X552899Y334153D01*
X552877Y334136D01*
X552858Y334124D01*
X552842Y334116D01*
X552827Y334110D01*
X552814Y334105D01*
X552801Y334103D01*
X552787Y334101D01*
X552749Y334099D01*
X552691Y334072D01*
X548669D01*
X548390Y334017D01*
X548153Y333859D01*
X546354Y332059D01*
X546196Y331822D01*
X546140Y331543D01*
Y331356D01*
X545691Y330907D01*
X545504D01*
X545225Y330852D01*
X544988Y330693D01*
X540695Y326400D01*
X540537Y326164D01*
X540481Y325884D01*
Y321046D01*
X537533Y318098D01*
X518332D01*
X517619Y318811D01*
X517789Y319065D01*
X518127Y318925D01*
X518679D01*
X519188Y319136D01*
X519578Y319526D01*
X519789Y320035D01*
Y320586D01*
X519578Y321095D01*
X519188Y321485D01*
X518679Y321696D01*
X518127D01*
X517618Y321485D01*
X517228Y321095D01*
X517017Y320586D01*
Y320035D01*
X517158Y319696D01*
X516903Y319526D01*
X510858Y325571D01*
Y327105D01*
X510803Y327385D01*
X510644Y327622D01*
X508039Y330227D01*
X507802Y330385D01*
X507523Y330441D01*
X506234D01*
X504726Y331949D01*
Y338437D01*
X504671Y338717D01*
X504512Y338953D01*
X494765Y348700D01*
X494528Y348859D01*
X494249Y348914D01*
X494029D01*
X489822Y353121D01*
X489585Y353280D01*
X489306Y353335D01*
X488397D01*
X482370Y359363D01*
X482133Y359521D01*
X481853Y359576D01*
X481661D01*
X481604Y359603D01*
X481565Y359605D01*
X481551Y359607D01*
X481537Y359610D01*
X481523Y359614D01*
X481507Y359621D01*
X481489Y359630D01*
X481469Y359642D01*
X481446Y359659D01*
X481420Y359681D01*
X481380Y359719D01*
X481285Y359756D01*
X481187Y359854D01*
X480750Y360035D01*
X480277D01*
X479840Y359854D01*
X479562Y359577D01*
X479319Y359568D01*
X479212Y359596D01*
X478908Y359900D01*
X478471Y360081D01*
D02*
G37*
G36*
X472815Y319299D02*
X472264D01*
X471754Y319088D01*
X471364Y318698D01*
X471153Y318189D01*
Y317638D01*
X471364Y317128D01*
X471754Y316739D01*
X472264Y316528D01*
X472815D01*
X473324Y316739D01*
X473714Y317128D01*
X473925Y317638D01*
Y318189D01*
X473714Y318698D01*
X473324Y319088D01*
X472815Y319299D01*
D02*
G37*
G36*
X466614Y318905D02*
X466063D01*
X465554Y318694D01*
X465164Y318305D01*
X464953Y317795D01*
Y317244D01*
X465164Y316735D01*
X465554Y316345D01*
X466063Y316134D01*
X466614D01*
X467124Y316345D01*
X467513Y316735D01*
X467724Y317244D01*
Y317795D01*
X467513Y318305D01*
X467124Y318694D01*
X466614Y318905D01*
D02*
G37*
G36*
X470256Y309949D02*
X469705D01*
X469195Y309738D01*
X468806Y309348D01*
X468595Y308839D01*
Y308287D01*
X468806Y307778D01*
X469195Y307388D01*
X469705Y307177D01*
X470256D01*
X470765Y307388D01*
X471155Y307778D01*
X471366Y308287D01*
Y308839D01*
X471155Y309348D01*
X470765Y309738D01*
X470256Y309949D01*
D02*
G37*
G36*
X475323Y302972D02*
X474771D01*
X474262Y302761D01*
X473872Y302371D01*
X473661Y301862D01*
Y301310D01*
X473872Y300801D01*
X474262Y300411D01*
X474771Y300200D01*
X475323D01*
X475832Y300411D01*
X476222Y300801D01*
X476433Y301310D01*
Y301862D01*
X476222Y302371D01*
X475832Y302761D01*
X475323Y302972D01*
D02*
G37*
G36*
X566200Y304348D02*
X565648D01*
X565139Y304137D01*
X564749Y303747D01*
X564538Y303238D01*
Y302686D01*
X564749Y302177D01*
X565046Y301880D01*
X564807Y301641D01*
X564596Y301132D01*
Y300581D01*
X564807Y300071D01*
X565197Y299681D01*
X565706Y299470D01*
X566257D01*
X566767Y299681D01*
X567157Y300071D01*
X567368Y300581D01*
Y301132D01*
X567157Y301641D01*
X566860Y301938D01*
X567099Y302177D01*
X567310Y302686D01*
Y303238D01*
X567099Y303747D01*
X566709Y304137D01*
X566200Y304348D01*
D02*
G37*
G36*
X520490Y299313D02*
X519938D01*
X519429Y299102D01*
X519039Y298712D01*
X518828Y298202D01*
Y297651D01*
X519039Y297142D01*
X519429Y296752D01*
X519938Y296541D01*
X520490D01*
X520999Y296752D01*
X521282Y297035D01*
X521516Y297084D01*
X521659Y297020D01*
X521971Y296708D01*
X522480Y296497D01*
X523031D01*
X523541Y296708D01*
X523931Y297098D01*
X524142Y297607D01*
Y298159D01*
X523931Y298668D01*
X523541Y299058D01*
X523031Y299269D01*
X522480D01*
X521971Y299058D01*
X521688Y298774D01*
X521453Y298725D01*
X521311Y298790D01*
X520999Y299102D01*
X520490Y299313D01*
D02*
G37*
G36*
X497597Y299601D02*
X497045D01*
X496536Y299390D01*
X496146Y299001D01*
X495935Y298491D01*
Y297940D01*
X496146Y297430D01*
X496332Y297245D01*
X496333Y296825D01*
X496296Y296788D01*
X496085Y296278D01*
Y295727D01*
X496296Y295218D01*
X496686Y294828D01*
X497195Y294617D01*
X497746D01*
X498255Y294828D01*
X498645Y295218D01*
X498856Y295727D01*
Y296278D01*
X498645Y296788D01*
X498460Y296973D01*
X498459Y297393D01*
X498496Y297430D01*
X498707Y297940D01*
Y298491D01*
X498496Y299001D01*
X498106Y299390D01*
X497597Y299601D01*
D02*
G37*
G36*
X495089Y286330D02*
X494538D01*
X494029Y286119D01*
X493639Y285729D01*
X493428Y285220D01*
Y284668D01*
X493639Y284159D01*
X494029Y283769D01*
X494538Y283558D01*
X495089D01*
X495599Y283769D01*
X495989Y284159D01*
X496200Y284668D01*
Y285220D01*
X495989Y285729D01*
X495599Y286119D01*
X495089Y286330D01*
D02*
G37*
G36*
X460212Y268281D02*
X459660D01*
X459151Y268070D01*
X458761Y267680D01*
X458550Y267171D01*
Y266619D01*
X458761Y266110D01*
X459151Y265720D01*
X459660Y265509D01*
X460212D01*
X460721Y265720D01*
X461111Y266110D01*
X461322Y266619D01*
Y267171D01*
X461111Y267680D01*
X460721Y268070D01*
X460212Y268281D01*
D02*
G37*
G36*
X476353Y267100D02*
X475802D01*
X475293Y266889D01*
X474903Y266499D01*
X474692Y265989D01*
Y265438D01*
X474903Y264929D01*
X475293Y264539D01*
X475802Y264328D01*
X476353D01*
X476863Y264539D01*
X477252Y264929D01*
X477463Y265438D01*
Y265989D01*
X477252Y266499D01*
X476863Y266889D01*
X476353Y267100D01*
D02*
G37*
G36*
X493567Y266338D02*
X493016D01*
X492507Y266127D01*
X492117Y265737D01*
X491906Y265228D01*
Y264677D01*
X492117Y264167D01*
X492507Y263778D01*
X493016Y263567D01*
X493567D01*
X494077Y263778D01*
X494466Y264167D01*
X494677Y264677D01*
Y265228D01*
X494466Y265737D01*
X494077Y266127D01*
X493567Y266338D01*
D02*
G37*
G36*
X484522Y266312D02*
X483971D01*
X483462Y266101D01*
X483072Y265711D01*
X482861Y265202D01*
Y264651D01*
X483072Y264141D01*
X483462Y263752D01*
X483971Y263541D01*
X484522D01*
X485032Y263752D01*
X485422Y264141D01*
X485633Y264651D01*
Y265202D01*
X485422Y265711D01*
X485032Y266101D01*
X484522Y266312D01*
D02*
G37*
G36*
X460486Y264851D02*
X459935D01*
X459425Y264640D01*
X459035Y264250D01*
X458824Y263741D01*
Y263189D01*
X459035Y262680D01*
X459425Y262290D01*
X459935Y262079D01*
X460486D01*
X460995Y262290D01*
X461385Y262680D01*
X461596Y263189D01*
Y263741D01*
X461385Y264250D01*
X460995Y264640D01*
X460486Y264851D01*
D02*
G37*
G36*
X503440Y264669D02*
X502889D01*
X502380Y264458D01*
X501990Y264068D01*
X501779Y263559D01*
Y263007D01*
X501990Y262498D01*
X502380Y262108D01*
X502889Y261897D01*
X503440D01*
X503950Y262108D01*
X504340Y262498D01*
X504551Y263007D01*
Y263559D01*
X504340Y264068D01*
X503950Y264458D01*
X503440Y264669D01*
D02*
G37*
G36*
X555209Y282843D02*
Y259169D01*
X565389D01*
X565498Y259278D01*
Y282821D01*
X555209Y282843D01*
D02*
G37*
%LPD*%
G36*
X536449Y454521D02*
X536410Y454472D01*
X536375Y454421D01*
X536345Y454368D01*
X536319Y454313D01*
X536298Y454256D01*
X536282Y454196D01*
X536270Y454134D01*
X536264Y454070D01*
X536261Y454004D01*
X535761D01*
X535759Y454070D01*
X535752Y454134D01*
X535740Y454196D01*
X535724Y454256D01*
X535703Y454313D01*
X535677Y454368D01*
X535647Y454421D01*
X535612Y454472D01*
X535573Y454521D01*
X535529Y454568D01*
X536493D01*
X536449Y454521D01*
D02*
G37*
G36*
X533055Y454467D02*
X533005Y454434D01*
X532960Y454396D01*
X532920Y454356D01*
X532886Y454311D01*
X532856Y454262D01*
X532832Y454210D01*
X532814Y454154D01*
X532801Y454094D01*
X532793Y454030D01*
X532790Y453963D01*
X532290Y454096D01*
X532288Y454160D01*
X532283Y454223D01*
X532275Y454286D01*
X532263Y454348D01*
X532247Y454408D01*
X532228Y454468D01*
X532206Y454526D01*
X532180Y454584D01*
X532151Y454641D01*
X532119Y454697D01*
X533055Y454467D01*
D02*
G37*
G36*
X524250Y449292D02*
X524297Y449240D01*
X524345Y449194D01*
X524396Y449154D01*
X524448Y449120D01*
X524503Y449093D01*
X524559Y449071D01*
X524618Y449056D01*
X524678Y449047D01*
X524740Y449044D01*
X524675Y448643D01*
X524617Y448641D01*
X524558Y448634D01*
X524498Y448621D01*
X524437Y448604D01*
X524376Y448582D01*
X524313Y448555D01*
X524250Y448523D01*
X524186Y448486D01*
X524056Y448398D01*
X524205Y449351D01*
X524250Y449292D01*
D02*
G37*
G36*
X522252Y444747D02*
X522277Y444733D01*
X522310Y444721D01*
X522348Y444710D01*
X522393Y444701D01*
X522445Y444694D01*
X522567Y444684D01*
X522715Y444681D01*
Y443881D01*
X522638Y443880D01*
X522445Y443868D01*
X522393Y443860D01*
X522348Y443851D01*
X522310Y443841D01*
X522277Y443828D01*
X522252Y443814D01*
X522232Y443799D01*
Y444763D01*
X522252Y444747D01*
D02*
G37*
G36*
X528192Y442409D02*
X528197Y442362D01*
X528204Y442317D01*
X528214Y442274D01*
X528228Y442234D01*
X528244Y442196D01*
X528263Y442160D01*
X528285Y442127D01*
X528309Y442095D01*
X528337Y442066D01*
X527648Y442057D01*
X527675Y442087D01*
X527700Y442119D01*
X527721Y442153D01*
X527739Y442189D01*
X527755Y442228D01*
X527768Y442268D01*
X527778Y442311D01*
X527785Y442356D01*
X527789Y442403D01*
X527791Y442452D01*
X528191Y442458D01*
X528192Y442409D01*
D02*
G37*
G36*
X530747Y440752D02*
X530784Y440722D01*
X530821Y440696D01*
X530858Y440674D01*
X530896Y440656D01*
X530934Y440642D01*
X530973Y440632D01*
X531012Y440626D01*
X531051Y440624D01*
X531091Y440626D01*
X530649Y440098D01*
X530644Y440138D01*
X530636Y440177D01*
X530625Y440216D01*
X530610Y440254D01*
X530593Y440293D01*
X530572Y440330D01*
X530548Y440367D01*
X530520Y440404D01*
X530490Y440440D01*
X530456Y440475D01*
X530711Y440786D01*
X530747Y440752D01*
D02*
G37*
G36*
X526412Y436500D02*
X526385Y436498D01*
X526357Y436492D01*
X526328Y436482D01*
X526297Y436469D01*
X526265Y436451D01*
X526232Y436430D01*
X526197Y436405D01*
X526124Y436342D01*
X526086Y436305D01*
X525729Y436656D01*
X525766Y436694D01*
X525828Y436767D01*
X525853Y436801D01*
X525874Y436835D01*
X525891Y436867D01*
X525905Y436898D01*
X525914Y436927D01*
X525920Y436956D01*
X525921Y436983D01*
X526412Y436500D01*
D02*
G37*
G36*
X527636Y435068D02*
X527615Y435086D01*
X527592Y435103D01*
X527564Y435117D01*
X527533Y435129D01*
X527498Y435140D01*
X527459Y435149D01*
X527417Y435156D01*
X527371Y435160D01*
X527269Y435164D01*
X527277Y435664D01*
X527330Y435665D01*
X527425Y435673D01*
X527467Y435679D01*
X527506Y435687D01*
X527541Y435698D01*
X527573Y435710D01*
X527600Y435723D01*
X527624Y435739D01*
X527645Y435757D01*
X527636Y435068D01*
D02*
G37*
G36*
X517347Y434054D02*
X517396Y434014D01*
X517447Y433980D01*
X517500Y433949D01*
X517555Y433924D01*
X517613Y433903D01*
X517672Y433887D01*
X517734Y433875D01*
X517798Y433868D01*
X517864Y433866D01*
Y433366D01*
X517798Y433363D01*
X517734Y433356D01*
X517672Y433345D01*
X517613Y433328D01*
X517555Y433308D01*
X517500Y433282D01*
X517447Y433252D01*
X517396Y433217D01*
X517347Y433178D01*
X517301Y433133D01*
Y434098D01*
X517347Y434054D01*
D02*
G37*
G36*
X521264Y432092D02*
X521220Y432046D01*
X521179Y431997D01*
X521141Y431947D01*
X521105Y431895D01*
X521073Y431841D01*
X521044Y431786D01*
X521019Y431729D01*
X520996Y431670D01*
X520976Y431609D01*
X520959Y431547D01*
X520464Y432375D01*
X520523Y432362D01*
X520581Y432356D01*
X520638Y432357D01*
X520694Y432364D01*
X520749Y432377D01*
X520802Y432398D01*
X520855Y432424D01*
X520907Y432457D01*
X520958Y432496D01*
X521007Y432542D01*
X521264Y432092D01*
D02*
G37*
G36*
X531659Y412299D02*
X531707Y412263D01*
X531759Y412231D01*
X531815Y412203D01*
X531874Y412180D01*
X531937Y412161D01*
X532003Y412146D01*
X532073Y412136D01*
X532147Y412130D01*
X532224Y412129D01*
X531542Y411447D01*
X531540Y411524D01*
X531535Y411598D01*
X531525Y411668D01*
X531510Y411734D01*
X531491Y411797D01*
X531468Y411856D01*
X531440Y411912D01*
X531408Y411964D01*
X531372Y412012D01*
X531331Y412057D01*
X531614Y412340D01*
X531659Y412299D01*
D02*
G37*
G36*
X507601Y385999D02*
X507619Y385791D01*
X507636Y385697D01*
X507657Y385610D01*
X507684Y385530D01*
X507716Y385457D01*
X507753Y385390D01*
X507795Y385330D01*
X507842Y385277D01*
X507559Y384995D01*
X507506Y385042D01*
X507446Y385084D01*
X507380Y385120D01*
X507306Y385152D01*
X507226Y385179D01*
X507139Y385200D01*
X507045Y385217D01*
X506945Y385228D01*
X506837Y385235D01*
X506723Y385236D01*
X507600Y386113D01*
X507601Y385999D01*
D02*
G37*
G36*
X522058Y361254D02*
X522217Y361119D01*
X522295Y361065D01*
X522372Y361018D01*
X522448Y360981D01*
X522522Y360951D01*
X522595Y360930D01*
X522667Y360917D01*
X522738Y360913D01*
Y360513D01*
X522667Y360509D01*
X522595Y360496D01*
X522522Y360475D01*
X522448Y360446D01*
X522372Y360408D01*
X522295Y360362D01*
X522217Y360308D01*
X522138Y360244D01*
X522058Y360173D01*
X521976Y360093D01*
Y361333D01*
X522058Y361254D01*
D02*
G37*
G36*
X531740Y350994D02*
X531671Y351012D01*
X531604Y351022D01*
X531539Y351027D01*
X531477Y351024D01*
X531418Y351015D01*
X531361Y350999D01*
X531307Y350977D01*
X531255Y350948D01*
X531206Y350913D01*
X531159Y350871D01*
X530966Y351227D01*
X531003Y351267D01*
X531038Y351312D01*
X531072Y351361D01*
X531105Y351415D01*
X531136Y351474D01*
X531193Y351605D01*
X531220Y351677D01*
X531268Y351836D01*
X531740Y350994D01*
D02*
G37*
G36*
X527416Y351410D02*
X527388Y351382D01*
X527364Y351350D01*
X527342Y351312D01*
X527323Y351270D01*
X527307Y351221D01*
X527294Y351168D01*
X527284Y351109D01*
X527276Y351045D01*
X527270Y350902D01*
X526570Y350963D01*
X526569Y351038D01*
X526560Y351172D01*
X526552Y351232D01*
X526541Y351286D01*
X526529Y351335D01*
X526513Y351379D01*
X526496Y351419D01*
X526476Y351453D01*
X526454Y351482D01*
X527416Y351410D01*
D02*
G37*
G36*
X534094Y346736D02*
X534037Y346790D01*
X533980Y346839D01*
X533923Y346882D01*
X533865Y346920D01*
X533807Y346951D01*
X533748Y346977D01*
X533690Y346997D01*
X533631Y347012D01*
X533571Y347020D01*
X533511Y347023D01*
Y347412D01*
X533571Y347415D01*
X533631Y347424D01*
X533690Y347438D01*
X533748Y347458D01*
X533807Y347484D01*
X533865Y347516D01*
X533923Y347553D01*
X533980Y347597D01*
X534037Y347645D01*
X534094Y347700D01*
Y346736D01*
D02*
G37*
G36*
X530259Y347072D02*
X530264Y347025D01*
X530271Y346980D01*
X530282Y346938D01*
X530295Y346897D01*
X530312Y346859D01*
X530331Y346822D01*
X530354Y346787D01*
X530379Y346755D01*
X530408Y346725D01*
X529719D01*
X529747Y346755D01*
X529773Y346787D01*
X529795Y346822D01*
X529815Y346859D01*
X529831Y346897D01*
X529845Y346938D01*
X529855Y346980D01*
X529863Y347025D01*
X529867Y347072D01*
X529869Y347120D01*
X530258D01*
X530259Y347072D01*
D02*
G37*
G36*
X525701Y346352D02*
X525715Y346326D01*
X525740Y346291D01*
X525774Y346248D01*
X525936Y346069D01*
X526185Y345813D01*
X525902Y345530D01*
X525809Y345623D01*
X525363Y346015D01*
X525345Y346020D01*
X525696Y346370D01*
X525701Y346352D01*
D02*
G37*
G36*
X526566Y345434D02*
X526603Y345404D01*
X526639Y345377D01*
X526677Y345354D01*
X526715Y345335D01*
X526753Y345320D01*
X526791Y345308D01*
X526831Y345299D01*
X526870Y345295D01*
X526911Y345294D01*
X526428Y344802D01*
X526427Y344842D01*
X526421Y344882D01*
X526412Y344921D01*
X526400Y344960D01*
X526384Y344998D01*
X526364Y345036D01*
X526341Y345073D01*
X526314Y345110D01*
X526284Y345146D01*
X526250Y345182D01*
X526530Y345468D01*
X526566Y345434D01*
D02*
G37*
G36*
X533887Y342030D02*
X533853Y341994D01*
X533823Y341958D01*
X533796Y341921D01*
X533773Y341884D01*
X533753Y341846D01*
X533736Y341808D01*
X533723Y341769D01*
X533714Y341730D01*
X533708Y341690D01*
X533705Y341650D01*
X533233Y342152D01*
X533274Y342152D01*
X533313Y342156D01*
X533353Y342164D01*
X533391Y342175D01*
X533429Y342191D01*
X533467Y342210D01*
X533505Y342232D01*
X533542Y342258D01*
X533578Y342289D01*
X533614Y342322D01*
X533887Y342030D01*
D02*
G37*
G36*
X526489Y341228D02*
X526469Y341246D01*
X526445Y341262D01*
X526417Y341276D01*
X526386Y341288D01*
X526351Y341299D01*
X526312Y341307D01*
X526270Y341314D01*
X526224Y341318D01*
X526122Y341322D01*
Y341822D01*
X526175Y341823D01*
X526270Y341831D01*
X526312Y341837D01*
X526351Y341846D01*
X526386Y341856D01*
X526417Y341869D01*
X526445Y341883D01*
X526469Y341899D01*
X526489Y341917D01*
Y341228D01*
D02*
G37*
G36*
X528015Y337245D02*
X527972Y337197D01*
X527932Y337141D01*
X527894Y337077D01*
X527857Y337004D01*
X527823Y336924D01*
X527792Y336834D01*
X527734Y336631D01*
X527709Y336517D01*
X527685Y336395D01*
X526985Y337418D01*
X527091Y337400D01*
X527191Y337389D01*
X527286Y337386D01*
X527375Y337391D01*
X527459Y337403D01*
X527537Y337422D01*
X527609Y337449D01*
X527676Y337483D01*
X527737Y337524D01*
X527792Y337573D01*
X528015Y337245D01*
D02*
G37*
G36*
X529540Y335263D02*
X529553Y335131D01*
X529565Y335074D01*
X529579Y335022D01*
X529597Y334975D01*
X529618Y334934D01*
X529642Y334899D01*
X529669Y334869D01*
X529700Y334845D01*
X528752Y334664D01*
X528769Y334691D01*
X528784Y334724D01*
X528796Y334763D01*
X528808Y334806D01*
X528817Y334855D01*
X528831Y334969D01*
X528835Y335034D01*
X528839Y335179D01*
X529539Y335337D01*
X529540Y335263D01*
D02*
G37*
G36*
X544347Y334379D02*
X544283Y334311D01*
X544227Y334245D01*
X544180Y334179D01*
X544141Y334114D01*
X544109Y334050D01*
X544086Y333987D01*
X544071Y333925D01*
X544065Y333863D01*
X544066Y333802D01*
X544075Y333742D01*
X543036Y334415D01*
X543091Y334428D01*
X543147Y334448D01*
X543204Y334473D01*
X543263Y334503D01*
X543323Y334540D01*
X543384Y334582D01*
X543511Y334683D01*
X543576Y334741D01*
X543643Y334806D01*
X544347Y334379D01*
D02*
G37*
G36*
X481058Y359278D02*
X481112Y359233D01*
X481167Y359193D01*
X481223Y359158D01*
X481280Y359129D01*
X481338Y359105D01*
X481397Y359086D01*
X481457Y359073D01*
X481519Y359065D01*
X481581Y359062D01*
Y358630D01*
X481519Y358628D01*
X481457Y358620D01*
X481397Y358606D01*
X481338Y358588D01*
X481280Y358564D01*
X481223Y358534D01*
X481167Y358500D01*
X481112Y358460D01*
X481058Y358415D01*
X481005Y358364D01*
Y359329D01*
X481058Y359278D01*
D02*
G37*
G36*
X487529Y344380D02*
X487484Y344326D01*
X487444Y344272D01*
X487409Y344216D01*
X487380Y344159D01*
X487356Y344100D01*
X487337Y344041D01*
X487324Y343981D01*
X487316Y343920D01*
X487313Y343857D01*
X486881D01*
X486879Y343920D01*
X486871Y343981D01*
X486857Y344041D01*
X486839Y344100D01*
X486815Y344159D01*
X486785Y344216D01*
X486751Y344272D01*
X486711Y344326D01*
X486665Y344380D01*
X486615Y344433D01*
X487579D01*
X487529Y344380D01*
D02*
G37*
G36*
X553360Y332864D02*
X553306Y332914D01*
X553251Y332958D01*
X553196Y332998D01*
X553139Y333032D01*
X553082Y333061D01*
X553023Y333084D01*
X552964Y333103D01*
X552903Y333116D01*
X552842Y333124D01*
X552780Y333126D01*
X552772Y333558D01*
X552835Y333561D01*
X552896Y333569D01*
X552956Y333583D01*
X553015Y333602D01*
X553073Y333626D01*
X553129Y333656D01*
X553184Y333691D01*
X553238Y333731D01*
X553291Y333777D01*
X553343Y333828D01*
X553360Y332864D01*
D02*
G37*
G36*
X552849Y330417D02*
X552787Y330461D01*
X552665Y330535D01*
X552603Y330565D01*
X552542Y330591D01*
X552481Y330611D01*
X552421Y330628D01*
X552360Y330639D01*
X552299Y330646D01*
X552239Y330648D01*
X552169Y331081D01*
X552233Y331083D01*
X552294Y331092D01*
X552354Y331107D01*
X552411Y331127D01*
X552465Y331153D01*
X552517Y331185D01*
X552567Y331223D01*
X552615Y331266D01*
X552660Y331316D01*
X552703Y331371D01*
X552849Y330417D01*
D02*
G37*
D12*
X532686Y433263D02*
Y434230D01*
X531865Y344793D02*
Y344842D01*
X531673Y344601D02*
X531865Y344793D01*
X531673Y343267D02*
Y344601D01*
X531626Y343220D02*
X531673Y343267D01*
X528463Y348032D02*
X528472Y348022D01*
Y346416D02*
Y348022D01*
X532753Y441615D02*
X532759Y441622D01*
X532807D01*
X532759D02*
Y441667D01*
X532715Y441712D02*
X532759Y441667D01*
X526413Y444859D02*
X526413D01*
D14*
X526897Y343165D02*
X528092Y341969D01*
X526897Y343165D02*
Y343229D01*
X528092Y341969D02*
X528092D01*
X528142Y341919D01*
X495753Y405181D02*
X512632D01*
X493362Y402789D02*
X495753Y405181D01*
X531078Y440137D02*
X531140D01*
X529686Y441528D02*
X531078Y440137D01*
X530326Y413345D02*
Y435515D01*
X521343Y360713D02*
X525845D01*
X536727Y345153D02*
Y349831D01*
X520687Y359129D02*
X526530D01*
X535956Y349703D01*
Y345965D02*
Y349703D01*
X525845Y360713D02*
X536727Y349831D01*
X523644Y448950D02*
X523751Y448843D01*
X524933D01*
X527991Y445786D01*
X531645Y341653D02*
X535956Y345965D01*
X533220Y341645D02*
X536727Y345153D01*
X528661Y344637D02*
X528775D01*
X530070Y343228D02*
Y343341D01*
X528775Y344637D02*
X530070Y343341D01*
X526920Y346378D02*
X528661Y344637D01*
X525346Y346370D02*
X526914Y344802D01*
X526920D01*
X530326Y413345D02*
X532231Y411440D01*
X529676Y436164D02*
X530326Y435515D01*
X529676Y436164D02*
Y436878D01*
X527991Y436950D02*
X529172Y435769D01*
Y433942D02*
Y435769D01*
X526416Y431185D02*
X529172Y433942D01*
X529566Y436989D02*
X529676Y436878D01*
X529686Y441528D02*
Y441593D01*
X519140Y360676D02*
X520687Y359129D01*
X519140Y360676D02*
Y373696D01*
X527991Y436950D02*
Y436989D01*
X526416Y418965D02*
Y431185D01*
X527991Y441713D02*
Y445786D01*
X512632Y405181D02*
X526416Y418965D01*
X506714Y386122D02*
X519140Y373696D01*
X532512Y455060D02*
X532704D01*
D16*
X524111Y341572D02*
X526841D01*
X514973Y333414D02*
X515399Y333840D01*
X513878Y333414D02*
X514973D01*
X513710Y333246D02*
X513878Y333414D01*
X515399Y333840D02*
X516378D01*
X524111Y341572D01*
X532808Y439476D02*
X533706Y438579D01*
X538227D02*
X538327Y438479D01*
X533706Y438579D02*
X538227D01*
X532808Y439476D02*
Y440049D01*
X532716Y440142D02*
X532808Y440049D01*
X538431Y438579D02*
X538600D01*
X546521Y446499D01*
X546690D01*
X528142Y339661D02*
Y341919D01*
X520527Y431708D02*
X521277Y432458D01*
X520289Y431708D02*
X520527D01*
X521277Y432458D02*
X523460D01*
X526416Y435414D02*
X527991D01*
X531136Y441719D02*
X531228Y441812D01*
Y442383D01*
X536011Y447165D01*
Y455060D01*
X532540Y449552D02*
Y455032D01*
X529686Y441593D02*
Y446699D01*
X532512Y455060D02*
X532540Y455032D01*
X529686Y446699D02*
X532540Y449552D01*
X516808Y433616D02*
X523043D01*
X526416Y436989D01*
X523460Y432458D02*
X526416Y435414D01*
D92*
X532702Y435399D02*
X532707Y435394D01*
Y434219D02*
Y435394D01*
X532702Y435399D02*
X532722Y435419D01*
X532715Y440139D02*
X532770Y440084D01*
X526920Y346378D02*
Y351885D01*
X526972Y351936D01*
X529175Y335999D02*
X529189Y335984D01*
Y334401D02*
X529319Y334271D01*
X529189Y334401D02*
Y335984D01*
X529175Y335999D02*
Y337249D01*
X524511Y443288D02*
X526416D01*
X529175Y337249D02*
X530070Y338145D01*
Y341653D01*
X525346Y346370D02*
Y347953D01*
D93*
X531669Y351656D02*
X531933D01*
X530063Y350050D02*
X531669Y351656D01*
X530063Y346384D02*
X530070Y346378D01*
X530063Y346384D02*
Y350050D01*
X530111Y344836D02*
X532492Y347218D01*
X534586D01*
X526813Y336549D02*
X527043D01*
X528142Y337648D01*
Y339661D01*
D94*
X533565Y432384D02*
X535746D01*
X532686Y433263D02*
X533565Y432384D01*
X538325Y425993D02*
Y429804D01*
X535746Y432384D02*
X538325Y429804D01*
D96*
X515767Y316640D02*
X541820D01*
X544319Y319139D01*
X506328Y326079D02*
X515767Y316640D01*
X510128Y325269D02*
X518029Y317368D01*
X537835D01*
X541211Y320744D01*
X510128Y325269D02*
Y327105D01*
X505932Y329711D02*
X507523D01*
X510128Y327105D01*
X545994Y330177D02*
X546870Y331053D01*
X545504Y330177D02*
X545994D01*
X546870Y331053D02*
Y331543D01*
X541211Y320744D02*
Y325884D01*
X545504Y330177D01*
X546870Y331543D02*
X548669Y333342D01*
X553831D01*
X544319Y323577D02*
X551607Y330865D01*
X544319Y319139D02*
Y323577D01*
X553158Y330865D02*
X553262Y330968D01*
X551607Y330865D02*
X553158D01*
X553831Y333342D02*
X553843Y333355D01*
X487097Y335631D02*
Y344925D01*
Y335631D02*
X497090D01*
X494249Y348184D02*
X503996Y338437D01*
X493727Y348184D02*
X494249D01*
X489306Y352605D02*
X493727Y348184D01*
X503996Y331646D02*
Y338437D01*
X488094Y352605D02*
X489306D01*
X481853Y358846D02*
X488094Y352605D01*
X480513Y358846D02*
X481853D01*
X497090Y335631D02*
X500235Y332487D01*
Y331379D02*
Y332487D01*
Y331379D02*
X501566Y330048D01*
X502656D01*
X504254Y328449D01*
Y327341D02*
X505516Y326079D01*
X504254Y327341D02*
Y328449D01*
X505516Y326079D02*
X506328D01*
X503996Y331646D02*
X505932Y329711D01*
D102*
X521740Y444281D02*
X523519D01*
X524511Y443288D01*
X543072Y335295D02*
X543915D01*
X543999Y335380D01*
X536917Y329140D02*
X543072Y335295D01*
X536917Y321948D02*
Y329140D01*
X535645Y320676D02*
X536917Y321948D01*
X529483Y320676D02*
X535645D01*
X528600Y321558D02*
X529483Y320676D01*
X528600Y321558D02*
Y330262D01*
X543212Y333809D02*
X544068Y334665D01*
Y335341D01*
X548381Y339654D01*
X543212Y333546D02*
Y333809D01*
X528600Y330262D02*
X530961Y332623D01*
X532639D01*
X537953Y337937D01*
Y338001D01*
X539412Y339460D01*
X540988D01*
X542711Y341183D01*
Y341858D01*
X541829Y342740D02*
X542711Y341858D01*
X541829Y342740D02*
Y350405D01*
X542829Y351405D01*
X547094D01*
X547860Y350639D01*
Y343690D02*
Y350639D01*
Y343690D02*
X548381Y343170D01*
Y339654D02*
Y343170D01*
D104*
X477785Y438657D02*
D03*
Y404642D02*
D03*
D105*
X462037Y438657D02*
D03*
Y404642D02*
D03*
D106*
X457204Y463037D02*
D03*
D107*
Y453037D02*
D03*
D108*
X528523Y343213D02*
D03*
X526841Y341572D02*
D03*
X527512Y452759D02*
D03*
X527489Y450805D02*
D03*
X529399Y452760D02*
D03*
X529508Y450742D02*
D03*
X531760Y427923D02*
D03*
X531738Y425970D02*
D03*
X533647Y427925D02*
D03*
X533756Y425906D02*
D03*
X524593Y425966D02*
D03*
X524484Y427985D02*
D03*
X522575Y426029D02*
D03*
X531140Y440137D02*
D03*
X534289Y440140D02*
D03*
X532700Y436983D02*
D03*
X530063Y346373D02*
D03*
X530111Y344836D02*
D03*
X530068Y343220D02*
D03*
X531645Y341646D02*
D03*
X531626Y343220D02*
D03*
X533213Y341660D02*
D03*
X530062D02*
D03*
X526897Y343229D02*
D03*
X525329Y347954D02*
D03*
X528472Y346416D02*
D03*
X526920Y344802D02*
D03*
X522597Y427983D02*
D03*
X527992Y435408D02*
D03*
X532722Y435419D02*
D03*
X529565Y436992D02*
D03*
X527992D02*
D03*
X526413D02*
D03*
X531136Y441719D02*
D03*
X532716Y440142D02*
D03*
X532715Y441712D02*
D03*
X527997Y441710D02*
D03*
X526413Y441716D02*
D03*
X526421Y443291D02*
D03*
X526413Y444859D02*
D03*
D109*
X513710Y333246D02*
D03*
X493362Y402789D02*
D03*
X538431Y438579D02*
D03*
X531933Y351656D02*
D03*
X530028Y352044D02*
D03*
X487149Y406700D02*
D03*
X523644Y448950D02*
D03*
X534586Y347218D02*
D03*
X526972Y351936D02*
D03*
X529319Y334271D02*
D03*
X546690Y446499D02*
D03*
X520289Y431708D02*
D03*
X521466Y314888D02*
D03*
X517247Y314920D02*
D03*
X528844Y314693D02*
D03*
X523247Y314783D02*
D03*
X525302Y314844D02*
D03*
X510481Y339410D02*
D03*
X497972Y394416D02*
D03*
X493333Y393659D02*
D03*
X499551Y351685D02*
D03*
X485265Y351681D02*
D03*
X485382Y347862D02*
D03*
X468431Y328834D02*
D03*
X465469Y328758D02*
D03*
X462570Y328834D02*
D03*
X471305Y329010D02*
D03*
X459755Y329064D02*
D03*
X457564Y330829D02*
D03*
X457364Y334234D02*
D03*
X457276Y337626D02*
D03*
X457652Y340117D02*
D03*
X467991Y341043D02*
D03*
X473586Y340831D02*
D03*
X553262Y330968D02*
D03*
X553843Y333355D02*
D03*
X559401Y321619D02*
D03*
X515269Y301511D02*
D03*
X516886Y300418D02*
D03*
X518963Y300375D02*
D03*
X521017Y300353D02*
D03*
X522755Y300342D02*
D03*
X524908Y300145D02*
D03*
X527072Y300123D02*
D03*
X530427Y301763D02*
D03*
X532405Y308615D02*
D03*
X532558Y304626D02*
D03*
X532722Y306527D02*
D03*
X530809Y314287D02*
D03*
X519466Y314954D02*
D03*
X514242Y313172D02*
D03*
X515258Y314931D02*
D03*
X531670Y302919D02*
D03*
X529327Y300544D02*
D03*
X513804Y303046D02*
D03*
X524494Y310001D02*
D03*
X520403Y312370D02*
D03*
X512576Y304578D02*
D03*
Y306895D02*
D03*
X526797Y314813D02*
D03*
X515966Y365759D02*
D03*
X484059Y362746D02*
D03*
X478117Y362097D02*
D03*
X487477Y359580D02*
D03*
X487429Y357496D02*
D03*
X489824Y343927D02*
D03*
X490220Y404364D02*
D03*
X487097Y344925D02*
D03*
X493009Y387376D02*
D03*
X476895Y337792D02*
D03*
X474839Y330260D02*
D03*
X473320Y328984D02*
D03*
X492363Y351685D02*
D03*
X480513Y358846D02*
D03*
X514439Y328003D02*
D03*
X514303Y331229D02*
D03*
X515719Y338868D02*
D03*
X532231Y411440D02*
D03*
X478234Y358892D02*
D03*
X508506Y366031D02*
D03*
X517667Y331179D02*
D03*
X521740Y444281D02*
D03*
X524127Y337182D02*
D03*
X493623Y346673D02*
D03*
X515765Y368709D02*
D03*
X471073Y340865D02*
D03*
X465250Y340936D02*
D03*
X536011Y455060D02*
D03*
X532704D02*
D03*
X516808Y433616D02*
D03*
X461798Y340465D02*
D03*
X461925Y335048D02*
D03*
X459598Y334665D02*
D03*
D110*
X562500Y442500D02*
D03*
Y427500D02*
D03*
Y412500D02*
D03*
Y292500D02*
D03*
X558750Y450000D02*
D03*
Y420000D02*
D03*
Y360000D02*
D03*
X555000Y352500D02*
D03*
Y292500D02*
D03*
X558750Y285000D02*
D03*
X547500Y397500D02*
D03*
Y322500D02*
D03*
Y292500D02*
D03*
X551250Y285000D02*
D03*
X540000Y397500D02*
D03*
X543750Y300000D02*
D03*
X540000Y262500D02*
D03*
X536250Y465000D02*
D03*
X532500Y397500D02*
D03*
X525000Y412500D02*
D03*
Y292500D02*
D03*
Y277500D02*
D03*
Y262500D02*
D03*
X517500Y277500D02*
D03*
Y262500D02*
D03*
X513750Y465000D02*
D03*
Y345000D02*
D03*
Y270000D02*
D03*
X510000Y262500D02*
D03*
X506250Y465000D02*
D03*
X502500Y442500D02*
D03*
X506250Y435000D02*
D03*
X502500Y427500D02*
D03*
Y292500D02*
D03*
X498750Y465000D02*
D03*
Y450000D02*
D03*
Y435000D02*
D03*
X495000Y412500D02*
D03*
X498750Y285000D02*
D03*
Y270000D02*
D03*
X491250Y300000D02*
D03*
Y285000D02*
D03*
X487500Y262500D02*
D03*
X480000Y457500D02*
D03*
X483750Y405000D02*
D03*
X480000Y307500D02*
D03*
Y277500D02*
D03*
X472500Y457500D02*
D03*
X476250Y360000D02*
D03*
X472500Y277500D02*
D03*
X465000Y457500D02*
D03*
Y427500D02*
D03*
X468750Y420000D02*
D03*
X465000Y412500D02*
D03*
Y397500D02*
D03*
Y367500D02*
D03*
Y307500D02*
D03*
Y292500D02*
D03*
X457500Y427500D02*
D03*
X461250Y420000D02*
D03*
X457500Y412500D02*
D03*
Y397500D02*
D03*
Y367500D02*
D03*
X461250Y345000D02*
D03*
X457500Y292500D02*
D03*
Y262500D02*
D03*
X488205Y445881D02*
D03*
X488159Y447834D02*
D03*
X506547Y455854D02*
D03*
X508904Y455218D02*
D03*
X522504Y353428D02*
D03*
X543212Y333546D02*
D03*
X525038Y322643D02*
D03*
X522790Y323022D02*
D03*
X532656Y335026D02*
D03*
X536274Y338643D02*
D03*
X540661Y341520D02*
D03*
X538745Y355238D02*
D03*
X538703Y349915D02*
D03*
X565929Y320433D02*
D03*
X566039Y308558D02*
D03*
X568407Y311476D02*
D03*
X467986Y357592D02*
D03*
X466677Y347570D02*
D03*
X468989Y347727D02*
D03*
X466532Y344363D02*
D03*
X474234Y260238D02*
D03*
X460079Y259966D02*
D03*
X476078Y265714D02*
D03*
X508073Y348535D02*
D03*
X516402Y345350D02*
D03*
X467100Y417572D02*
D03*
X467174Y424452D02*
D03*
X514758Y322754D02*
D03*
X564918Y337030D02*
D03*
X520244Y329495D02*
D03*
X512781Y425994D02*
D03*
X551614Y440660D02*
D03*
X532893Y359318D02*
D03*
X550429Y260375D02*
D03*
X547660Y260258D02*
D03*
X544738Y343529D02*
D03*
X530502Y329726D02*
D03*
X538513Y343657D02*
D03*
X505408Y296881D02*
D03*
X505388Y294109D02*
D03*
X505367Y291338D02*
D03*
X505626Y288578D02*
D03*
X507466Y286506D02*
D03*
X510204Y286072D02*
D03*
X512975D02*
D03*
X515747D02*
D03*
X518518D02*
D03*
X521290D02*
D03*
X524062D02*
D03*
X526833D02*
D03*
X529605D02*
D03*
X532377D02*
D03*
X535122Y285694D02*
D03*
X536416Y278645D02*
D03*
X539188D02*
D03*
X541507Y280162D02*
D03*
X544279D02*
D03*
X546532Y278548D02*
D03*
Y275776D02*
D03*
Y273005D02*
D03*
X545728Y262245D02*
D03*
X551482Y265563D02*
D03*
X551581Y268333D02*
D03*
X550844Y271005D02*
D03*
Y273777D02*
D03*
Y276548D02*
D03*
Y279320D02*
D03*
X550750Y282090D02*
D03*
X548941Y284190D02*
D03*
X546184Y284474D02*
D03*
X543413D02*
D03*
X540755Y285261D02*
D03*
X539156Y287525D02*
D03*
X531841Y290384D02*
D03*
X529069D02*
D03*
X526297D02*
D03*
X523526D02*
D03*
X520754D02*
D03*
X515211D02*
D03*
X512439D02*
D03*
X509674Y290570D02*
D03*
X507123Y303288D02*
D03*
X456142Y372881D02*
D03*
X462955Y387712D02*
D03*
X459383Y395867D02*
D03*
X459600Y372881D02*
D03*
X463057D02*
D03*
X462955Y382808D02*
D03*
X456118Y387712D02*
D03*
X459537D02*
D03*
X459497Y382808D02*
D03*
X462867Y392822D02*
D03*
X456074D02*
D03*
X456039Y382808D02*
D03*
X540757Y458763D02*
D03*
X551410Y414632D02*
D03*
X468128Y406431D02*
D03*
X510754Y365925D02*
D03*
X468059Y362264D02*
D03*
X549128Y309660D02*
D03*
X552403Y438734D02*
D03*
X511323Y375595D02*
D03*
X524985Y302799D02*
D03*
X524138Y305580D02*
D03*
X540815Y466797D02*
D03*
X538325Y425993D02*
D03*
X538927Y421162D02*
D03*
X543314Y420979D02*
D03*
X539411Y418176D02*
D03*
X542870Y425471D02*
D03*
X547367Y418176D02*
D03*
X543389D02*
D03*
X539444Y415424D02*
D03*
X543431Y415374D02*
D03*
X547434Y415257D02*
D03*
X546900Y411738D02*
D03*
X467449Y430559D02*
D03*
X467351Y413510D02*
D03*
X479895Y399959D02*
D03*
X467410Y410393D02*
D03*
X467386Y402371D02*
D03*
X474611Y434323D02*
D03*
X459471Y392822D02*
D03*
X466600Y442100D02*
D03*
X455233Y408100D02*
D03*
Y410690D02*
D03*
Y413280D02*
D03*
Y415870D02*
D03*
Y431410D02*
D03*
Y426230D02*
D03*
Y428820D02*
D03*
Y434000D02*
D03*
Y423640D02*
D03*
Y418460D02*
D03*
Y421050D02*
D03*
X466500Y446200D02*
D03*
X455250D02*
D03*
X462750D02*
D03*
X459000D02*
D03*
X477750D02*
D03*
X474000D02*
D03*
X470250D02*
D03*
X468550Y449100D02*
D03*
X472300D02*
D03*
X464800D02*
D03*
X476050D02*
D03*
X467025Y452750D02*
D03*
X470775D02*
D03*
X463275D02*
D03*
X474525D02*
D03*
X528966Y304522D02*
D03*
X455450Y399900D02*
D03*
X459200D02*
D03*
X466700D02*
D03*
X462021Y408914D02*
D03*
X458755Y408668D02*
D03*
X465376Y408489D02*
D03*
X468367Y434000D02*
D03*
X465083D02*
D03*
X461800D02*
D03*
X471650D02*
D03*
X458517D02*
D03*
X470350Y442100D02*
D03*
X474100D02*
D03*
X477850D02*
D03*
X459100D02*
D03*
X462850D02*
D03*
X455350D02*
D03*
X459527Y369355D02*
D03*
X520214Y297927D02*
D03*
X522756Y297883D02*
D03*
X517724Y291659D02*
D03*
X501551Y296088D02*
D03*
X501563Y298216D02*
D03*
X515737Y380228D02*
D03*
X467235Y366926D02*
D03*
X482975Y387691D02*
D03*
X483533Y392666D02*
D03*
X551085Y421736D02*
D03*
X509895Y294480D02*
D03*
X558695Y319259D02*
D03*
X547948Y295166D02*
D03*
X559677Y301780D02*
D03*
X559819Y307371D02*
D03*
X559400Y305228D02*
D03*
X559354Y314063D02*
D03*
X568008Y322826D02*
D03*
X565924Y302962D02*
D03*
X565982Y300856D02*
D03*
X504587Y305236D02*
D03*
X497471Y296003D02*
D03*
X497321Y298216D02*
D03*
X545665Y264897D02*
D03*
X515464Y423471D02*
D03*
X505688Y425974D02*
D03*
X538480Y270214D02*
D03*
X538393Y272758D02*
D03*
X538519Y267251D02*
D03*
X526866Y270214D02*
D03*
X526955Y267471D02*
D03*
X526829Y272978D02*
D03*
X505415Y445798D02*
D03*
X503049Y445809D02*
D03*
X535994Y290873D02*
D03*
X536013Y293284D02*
D03*
X524939Y354145D02*
D03*
X509483Y369202D02*
D03*
X500492Y419783D02*
D03*
X502730Y269532D02*
D03*
X538632Y320279D02*
D03*
X492638Y432873D02*
D03*
X494077Y302806D02*
D03*
X481542Y293239D02*
D03*
X477212D02*
D03*
X485873D02*
D03*
X493292Y264952D02*
D03*
X475047Y301586D02*
D03*
X497768Y427425D02*
D03*
X521355Y435414D02*
D03*
X551117Y425693D02*
D03*
X554962Y443080D02*
D03*
X526813Y336549D02*
D03*
X525465Y320248D02*
D03*
X504639Y348719D02*
D03*
X456263Y360934D02*
D03*
X456105Y353641D02*
D03*
X544976Y270802D02*
D03*
X542417Y270901D02*
D03*
X522828Y270214D02*
D03*
X515109Y279239D02*
D03*
X559597Y299322D02*
D03*
X547948Y297529D02*
D03*
X503165Y263283D02*
D03*
X521343Y360713D02*
D03*
X542350Y411714D02*
D03*
X554962Y445691D02*
D03*
X551117Y431275D02*
D03*
X545374Y331673D02*
D03*
X544801Y462622D02*
D03*
X468786Y344222D02*
D03*
X513971Y439450D02*
D03*
X516530Y439148D02*
D03*
X503712Y438513D02*
D03*
X519546Y333887D02*
D03*
X455752Y344847D02*
D03*
X506714Y386122D02*
D03*
X518403Y320310D02*
D03*
X521962Y328653D02*
D03*
X544547Y437720D02*
D03*
X534069Y451754D02*
D03*
X473307Y322838D02*
D03*
X469980Y308563D02*
D03*
X470079Y311417D02*
D03*
X472539Y317913D02*
D03*
X466043Y321063D02*
D03*
X460210Y263465D02*
D03*
X459936Y266895D02*
D03*
X484247Y264926D02*
D03*
X476268Y270044D02*
D03*
X494814Y284944D02*
D03*
X502607Y271991D02*
D03*
X520463Y271286D02*
D03*
X496949Y419783D02*
D03*
X466339Y317520D02*
D03*
D111*
X567605Y340399D02*
D03*
X567803Y331900D02*
D03*
X497744Y387720D02*
D03*
X521876Y460466D02*
D03*
X521087Y468707D02*
D03*
X566658Y382519D02*
D03*
X567776Y328237D02*
D03*
X565097Y453525D02*
D03*
X564211Y379372D02*
D03*
X550717Y347318D02*
D03*
X555956Y328235D02*
D03*
X555042Y326076D02*
D03*
X554612Y338384D02*
D03*
X554592Y335691D02*
D03*
X547148Y366728D02*
D03*
X530674Y361049D02*
D03*
X513649Y396858D02*
D03*
X517095Y447736D02*
D03*
X497169Y376584D02*
D03*
X523586Y421379D02*
D03*
X506268Y327895D02*
D03*
X502240D02*
D03*
X502180Y332002D02*
D03*
X498152D02*
D03*
X494123D02*
D03*
X498211Y327895D02*
D03*
X494183D02*
D03*
X489628Y332002D02*
D03*
X490155Y327895D02*
D03*
X486066Y332002D02*
D03*
X486126Y327895D02*
D03*
X511438Y396858D02*
D03*
X543859Y305976D02*
D03*
X534950Y391818D02*
D03*
X533069Y377518D02*
D03*
X496884Y367645D02*
D03*
X556485Y456895D02*
D03*
X506209Y332002D02*
D03*
X562508Y465010D02*
D03*
X550140Y468198D02*
D03*
X566758Y461666D02*
D03*
X562482Y461679D02*
D03*
X566627Y464892D02*
D03*
X566417Y468289D02*
D03*
X562640Y468237D02*
D03*
X558652Y468224D02*
D03*
X554573Y468211D02*
D03*
X556391Y462592D02*
D03*
X548478Y462601D02*
D03*
X517457Y467904D02*
D03*
Y464203D02*
D03*
Y460502D02*
D03*
X521036Y463001D02*
D03*
X532772Y421330D02*
D03*
X461313Y354070D02*
D03*
X502253Y319131D02*
D03*
X490167D02*
D03*
X486139D02*
D03*
X494196D02*
D03*
X498224D02*
D03*
X506281D02*
D03*
X498358Y323424D02*
D03*
X486272D02*
D03*
X494329D02*
D03*
X490301D02*
D03*
X502386D02*
D03*
X506415D02*
D03*
X489951Y314448D02*
D03*
X493979D02*
D03*
X498008D02*
D03*
X502036D02*
D03*
X506065D02*
D03*
X485922D02*
D03*
X529247Y368617D02*
D03*
X517892Y386122D02*
D03*
X542896Y325293D02*
D03*
X561005Y456833D02*
D03*
X545614Y467233D02*
D03*
D112*
X528523Y343213D02*
D03*
X527512Y452759D02*
D03*
X527489Y450805D02*
D03*
X529399Y452760D02*
D03*
X529508Y450742D02*
D03*
X531760Y427923D02*
D03*
X531738Y425970D02*
D03*
X533647Y427925D02*
D03*
X533756Y425906D02*
D03*
X524593Y425966D02*
D03*
X524484Y427985D02*
D03*
X522575Y426029D02*
D03*
X534289Y440140D02*
D03*
X532700Y436983D02*
D03*
X531865Y344842D02*
D03*
X528463Y348032D02*
D03*
X522597Y427983D02*
D03*
X532715Y441712D02*
D03*
X526413Y441716D02*
D03*
X526413Y444859D02*
D03*
X492284Y389431D02*
D03*
Y391975D02*
D03*
X498324Y389941D02*
D03*
X498082Y392317D02*
D03*
X525272Y350591D02*
D03*
M02*
