G04*
G04 #@! TF.GenerationSoftware,Altium Limited,Altium Designer,25.0.2 (28)*
G04*
G04 Layer_Physical_Order=5*
G04 Layer_Color=16737945*
%FSLAX25Y25*%
%MOIN*%
G70*
G04*
G04 #@! TF.SameCoordinates,B4B5B09E-775D-4BFC-8105-D375B5CF002A*
G04*
G04*
G04 #@! TF.FilePolarity,Positive*
G04*
G01*
G75*
%ADD105O,0.07100X0.03900*%
%ADD106O,0.08700X0.03900*%
%ADD107C,0.06299*%
%ADD108R,0.06299X0.06299*%
%ADD109C,0.02000*%
%ADD110C,0.01772*%
%ADD111C,0.01378*%
%ADD112C,0.01181*%
G36*
X569278Y342262D02*
X568928Y342011D01*
X568278Y341744D01*
X567903Y341899D01*
X567307D01*
X566755Y341671D01*
X566333Y341249D01*
X566105Y340697D01*
Y340101D01*
X566333Y339549D01*
X566755Y339127D01*
X567307Y338899D01*
X567903D01*
X568278Y339054D01*
X568928Y338787D01*
X569278Y338536D01*
Y333913D01*
X569187Y333805D01*
X568278Y333327D01*
X568101Y333400D01*
X567504D01*
X566953Y333172D01*
X566531Y332750D01*
X566303Y332198D01*
Y331602D01*
X566531Y331050D01*
X566953Y330628D01*
X567504Y330400D01*
X568101D01*
X568278Y330473D01*
X569187Y329995D01*
X569278Y329887D01*
Y256686D01*
X452603D01*
Y462243D01*
X453603Y462375D01*
X453803Y461628D01*
X454283Y460796D01*
X454963Y460117D01*
X455795Y459636D01*
X456723Y459387D01*
X457684D01*
X458612Y459636D01*
X459445Y460117D01*
X460124Y460796D01*
X460605Y461628D01*
X460853Y462557D01*
Y463517D01*
X460605Y464446D01*
X460124Y465278D01*
X459445Y465957D01*
X458612Y466438D01*
X457684Y466687D01*
X456723D01*
X455795Y466438D01*
X454963Y465957D01*
X454283Y465278D01*
X453803Y464446D01*
X453603Y463699D01*
X452603Y463831D01*
Y470006D01*
X569278D01*
Y342262D01*
D02*
G37*
%LPC*%
G36*
X556783Y458395D02*
X556186D01*
X555635Y458167D01*
X555213Y457745D01*
X554985Y457193D01*
Y456597D01*
X555213Y456045D01*
X555635Y455623D01*
X556186Y455395D01*
X556783D01*
X557334Y455623D01*
X557756Y456045D01*
X557985Y456597D01*
Y457193D01*
X557756Y457745D01*
X557334Y458167D01*
X556783Y458395D01*
D02*
G37*
G36*
X561303Y458333D02*
X560706D01*
X560155Y458104D01*
X559733Y457682D01*
X559505Y457131D01*
Y456534D01*
X559733Y455983D01*
X560155Y455561D01*
X560706Y455333D01*
X561303D01*
X561854Y455561D01*
X562276Y455983D01*
X562505Y456534D01*
Y457131D01*
X562276Y457682D01*
X561854Y458104D01*
X561303Y458333D01*
D02*
G37*
G36*
X536248Y456249D02*
X535775D01*
X535338Y456068D01*
X535014Y455744D01*
X535003Y455733D01*
X535003Y455733D01*
X534822Y455296D01*
X533893D01*
X533712Y455733D01*
X533712Y455733D01*
X533701Y455744D01*
X533378Y456068D01*
X532941Y456249D01*
X532468D01*
X532031Y456068D01*
X531696Y455733D01*
X531515Y455296D01*
Y454823D01*
X531696Y454386D01*
X532031Y454052D01*
X532468Y453871D01*
X532941D01*
X533378Y454052D01*
X533701Y454376D01*
X533712Y454386D01*
X533712Y454386D01*
X533893Y454823D01*
X534822D01*
X535003Y454386D01*
X535003Y454386D01*
X535014Y454376D01*
X535338Y454052D01*
X535775Y453871D01*
X536248D01*
X536685Y454052D01*
X537019Y454386D01*
X537200Y454823D01*
Y455296D01*
X537019Y455733D01*
X536685Y456068D01*
X536248Y456249D01*
D02*
G37*
G36*
X460753Y456587D02*
X457704D01*
Y453537D01*
X460753D01*
Y456587D01*
D02*
G37*
G36*
X456704D02*
X453654D01*
Y453537D01*
X456704D01*
Y456587D01*
D02*
G37*
G36*
X565395Y455025D02*
X564798D01*
X564247Y454797D01*
X563825Y454375D01*
X563596Y453824D01*
Y453227D01*
X563825Y452676D01*
X564247Y452254D01*
X564798Y452025D01*
X565395D01*
X565946Y452254D01*
X566368Y452676D01*
X566597Y453227D01*
Y453824D01*
X566368Y454375D01*
X565946Y454797D01*
X565395Y455025D01*
D02*
G37*
G36*
X460753Y452537D02*
X457704D01*
Y449487D01*
X460753D01*
Y452537D01*
D02*
G37*
G36*
X456704D02*
X453654D01*
Y449487D01*
X456704D01*
Y452537D01*
D02*
G37*
G36*
X524251Y449039D02*
X523778D01*
X523341Y448858D01*
X523007Y448523D01*
X522826Y448086D01*
Y447613D01*
X523007Y447176D01*
X523341Y446842D01*
X523778Y446661D01*
X524251D01*
X524688Y446842D01*
X525023Y447176D01*
X525204Y447613D01*
Y448086D01*
X525023Y448523D01*
X524688Y448858D01*
X524251Y449039D01*
D02*
G37*
G36*
X503325Y447195D02*
X502773D01*
X502264Y446984D01*
X501874Y446594D01*
X501663Y446085D01*
Y445533D01*
X501874Y445024D01*
X502264Y444634D01*
X502773Y444423D01*
X503325D01*
X503834Y444634D01*
X504630Y444623D01*
X505139Y444412D01*
X505690D01*
X506200Y444623D01*
X506589Y445013D01*
X506800Y445522D01*
Y446073D01*
X506589Y446583D01*
X506200Y446973D01*
X505690Y447184D01*
X505139D01*
X504630Y446973D01*
X503834Y446984D01*
X503325Y447195D01*
D02*
G37*
G36*
X538746Y440123D02*
X538312D01*
X537911Y439957D01*
X537605Y439650D01*
X537438Y439250D01*
Y438816D01*
X537605Y438415D01*
X537911Y438108D01*
X538312Y437942D01*
X538746D01*
X539147Y438108D01*
X539454Y438415D01*
X539620Y438816D01*
Y439250D01*
X539454Y439650D01*
X539147Y439957D01*
X538746Y440123D01*
D02*
G37*
G36*
X514247Y440836D02*
X513695D01*
X513186Y440625D01*
X512796Y440235D01*
X512585Y439726D01*
Y439175D01*
X512796Y438665D01*
X513186Y438275D01*
X513695Y438064D01*
X514247D01*
X514756Y438275D01*
X515355Y438363D01*
X515745Y437973D01*
X516254Y437763D01*
X516805D01*
X517315Y437974D01*
X517705Y438363D01*
X517915Y438873D01*
Y439424D01*
X517705Y439933D01*
X517315Y440323D01*
X516805Y440534D01*
X516254D01*
X516126Y440481D01*
X515146Y440235D01*
X514756Y440625D01*
X514247Y440836D01*
D02*
G37*
G36*
X551890Y442046D02*
X551338D01*
X550829Y441835D01*
X550439Y441445D01*
X550228Y440936D01*
Y440384D01*
X550439Y439875D01*
X550829Y439485D01*
X551158Y439349D01*
X551017Y439009D01*
Y438458D01*
X551228Y437949D01*
X551618Y437559D01*
X552127Y437348D01*
X552678D01*
X553188Y437559D01*
X553578Y437949D01*
X553789Y438458D01*
Y439009D01*
X553578Y439519D01*
X553188Y439909D01*
X552859Y440045D01*
X553000Y440384D01*
Y440936D01*
X552789Y441445D01*
X552399Y441835D01*
X551890Y442046D01*
D02*
G37*
G36*
X503988Y439899D02*
X503437D01*
X502927Y439688D01*
X502538Y439298D01*
X502327Y438789D01*
Y438237D01*
X502538Y437728D01*
X502927Y437338D01*
X503437Y437127D01*
X503988D01*
X504497Y437338D01*
X504887Y437728D01*
X505098Y438237D01*
Y438789D01*
X504887Y439298D01*
X504497Y439688D01*
X503988Y439899D01*
D02*
G37*
G36*
X479385Y441155D02*
X476185D01*
X475229Y440965D01*
X474418Y440424D01*
X473877Y439613D01*
X473687Y438657D01*
X473877Y437702D01*
X474418Y436891D01*
X475229Y436349D01*
X476185Y436159D01*
X479385D01*
X480340Y436349D01*
X481151Y436891D01*
X481692Y437702D01*
X481883Y438657D01*
X481692Y439613D01*
X481151Y440424D01*
X480340Y440965D01*
X479385Y441155D01*
D02*
G37*
G36*
X464436D02*
X459636D01*
X458681Y440965D01*
X457870Y440424D01*
X457329Y439613D01*
X457138Y438657D01*
X457329Y437702D01*
X457870Y436891D01*
X458681Y436349D01*
X459636Y436159D01*
X464436D01*
X465392Y436349D01*
X466203Y436891D01*
X466744Y437702D01*
X466934Y438657D01*
X466744Y439613D01*
X466203Y440424D01*
X465392Y440965D01*
X464436Y441155D01*
D02*
G37*
G36*
X498043Y428811D02*
X497492D01*
X496983Y428600D01*
X496593Y428210D01*
X496382Y427701D01*
Y427149D01*
X496593Y426640D01*
X496983Y426250D01*
X497492Y426039D01*
X498043D01*
X498553Y426250D01*
X498943Y426640D01*
X499154Y427149D01*
Y427701D01*
X498943Y428210D01*
X498553Y428600D01*
X498043Y428811D01*
D02*
G37*
G36*
X538601Y427379D02*
X538050D01*
X537540Y427168D01*
X537150Y426778D01*
X536939Y426268D01*
Y425717D01*
X537150Y425208D01*
X537540Y424818D01*
X538050Y424607D01*
X538601D01*
X539110Y424818D01*
X539500Y425208D01*
X539711Y425717D01*
Y426268D01*
X539500Y426778D01*
X539110Y427168D01*
X538601Y427379D01*
D02*
G37*
G36*
X551393Y427078D02*
X550841D01*
X550332Y426867D01*
X549942Y426478D01*
X549731Y425968D01*
Y425417D01*
X549942Y424908D01*
X550332Y424518D01*
X550841Y424307D01*
X551393D01*
X551902Y424518D01*
X552292Y424908D01*
X552503Y425417D01*
Y425968D01*
X552292Y426478D01*
X551902Y426867D01*
X551393Y427078D01*
D02*
G37*
G36*
X543145Y426857D02*
X542594D01*
X542085Y426646D01*
X541695Y426256D01*
X541484Y425747D01*
Y425196D01*
X541695Y424686D01*
X542085Y424297D01*
X542594Y424086D01*
X543145D01*
X543655Y424297D01*
X544045Y424686D01*
X544255Y425196D01*
Y425747D01*
X544045Y426256D01*
X543655Y426646D01*
X543145Y426857D01*
D02*
G37*
G36*
X551361Y423122D02*
X550810D01*
X550300Y422911D01*
X549911Y422521D01*
X549700Y422012D01*
Y421460D01*
X549911Y420951D01*
X550300Y420561D01*
X550810Y420350D01*
X551361D01*
X551870Y420561D01*
X552260Y420951D01*
X552471Y421460D01*
Y422012D01*
X552260Y422521D01*
X551870Y422911D01*
X551361Y423122D01*
D02*
G37*
G36*
X539203Y422548D02*
X538652D01*
X538142Y422337D01*
X537752Y421947D01*
X537541Y421438D01*
Y420887D01*
X537752Y420377D01*
X538027Y420103D01*
X538145Y419954D01*
X538236Y418961D01*
X538202Y418880D01*
X538025Y418452D01*
Y417901D01*
X538236Y417391D01*
X538543Y416817D01*
X538270Y416209D01*
X538059Y415700D01*
Y415148D01*
X538270Y414639D01*
X538659Y414249D01*
X539169Y414038D01*
X539720D01*
X540229Y414249D01*
X540619Y414639D01*
X540830Y415148D01*
Y415700D01*
X540619Y416209D01*
X540312Y416784D01*
X540586Y417391D01*
X540797Y417901D01*
Y418452D01*
X540586Y418961D01*
X540312Y419236D01*
X540193Y419384D01*
X540102Y420377D01*
X540136Y420459D01*
X540313Y420887D01*
Y421438D01*
X540102Y421947D01*
X539712Y422337D01*
X539203Y422548D01*
D02*
G37*
G36*
X543590Y422365D02*
X543039D01*
X542529Y422154D01*
X542139Y421764D01*
X541928Y421254D01*
Y420703D01*
X542139Y420194D01*
X542140Y420193D01*
X542404Y419714D01*
X542216Y418969D01*
X542205Y418938D01*
X542176Y418868D01*
X542003Y418452D01*
Y417901D01*
X542205Y417415D01*
X542214Y417391D01*
X542469Y416895D01*
X542256Y416159D01*
X542222Y416077D01*
X542045Y415650D01*
Y415098D01*
X542256Y414589D01*
X542646Y414199D01*
X543155Y413988D01*
X543707D01*
X544216Y414199D01*
X544606Y414589D01*
X544817Y415098D01*
Y415650D01*
X544615Y416136D01*
X544606Y416159D01*
X544352Y416655D01*
X544564Y417391D01*
X544598Y417473D01*
X544775Y417901D01*
Y418452D01*
X544564Y418961D01*
X544564Y418962D01*
X544299Y419442D01*
X544487Y420186D01*
X544499Y420217D01*
X544528Y420287D01*
X544700Y420703D01*
Y421254D01*
X544489Y421764D01*
X544099Y422154D01*
X543590Y422365D01*
D02*
G37*
G36*
X551686Y416018D02*
X551135D01*
X550625Y415807D01*
X550236Y415417D01*
X550025Y414908D01*
Y414356D01*
X550236Y413847D01*
X550625Y413457D01*
X551135Y413246D01*
X551686D01*
X552195Y413457D01*
X552585Y413847D01*
X552796Y414356D01*
Y414908D01*
X552585Y415417D01*
X552195Y415807D01*
X551686Y416018D01*
D02*
G37*
G36*
X547643Y419562D02*
X547092D01*
X546583Y419351D01*
X546193Y418961D01*
X545982Y418452D01*
Y417901D01*
X546193Y417391D01*
X546247Y417337D01*
X546503Y416761D01*
X546267Y416050D01*
X546259Y416042D01*
X546048Y415533D01*
Y414982D01*
X546259Y414472D01*
X546613Y414119D01*
X546619Y413591D01*
X546488Y413067D01*
X546115Y412913D01*
X545726Y412523D01*
X545515Y412013D01*
Y411462D01*
X545726Y410953D01*
X546115Y410563D01*
X546625Y410352D01*
X547176D01*
X547685Y410563D01*
X548075Y410953D01*
X548286Y411462D01*
Y412013D01*
X548075Y412523D01*
X547722Y412876D01*
X547715Y413404D01*
X547847Y413928D01*
X548219Y414082D01*
X548609Y414472D01*
X548820Y414982D01*
Y415533D01*
X548609Y416042D01*
X548555Y416097D01*
X548299Y416672D01*
X548535Y417384D01*
X548542Y417391D01*
X548753Y417901D01*
Y418452D01*
X548542Y418961D01*
X548152Y419351D01*
X547643Y419562D01*
D02*
G37*
G36*
X542625Y413100D02*
X542074D01*
X541565Y412889D01*
X541175Y412499D01*
X540964Y411989D01*
Y411438D01*
X541175Y410929D01*
X541565Y410539D01*
X542074Y410328D01*
X542625D01*
X543135Y410539D01*
X543525Y410929D01*
X543736Y411438D01*
Y411989D01*
X543525Y412499D01*
X543135Y412889D01*
X542625Y413100D01*
D02*
G37*
G36*
X532467Y412629D02*
X531994D01*
X531557Y412448D01*
X531223Y412114D01*
X531042Y411677D01*
Y411203D01*
X531223Y410767D01*
X531557Y410432D01*
X531994Y410251D01*
X532467D01*
X532904Y410432D01*
X533239Y410767D01*
X533420Y411203D01*
Y411677D01*
X533239Y412114D01*
X532904Y412448D01*
X532467Y412629D01*
D02*
G37*
G36*
X479385Y407140D02*
X476185D01*
X475229Y406950D01*
X474418Y406408D01*
X473877Y405598D01*
X473687Y404642D01*
X473877Y403686D01*
X474418Y402875D01*
X475229Y402334D01*
X476185Y402144D01*
X479385D01*
X480340Y402334D01*
X481151Y402875D01*
X481692Y403686D01*
X481883Y404642D01*
X481692Y405598D01*
X481151Y406408D01*
X480340Y406950D01*
X479385Y407140D01*
D02*
G37*
G36*
X464436D02*
X459636D01*
X458681Y406950D01*
X457870Y406408D01*
X457329Y405598D01*
X457138Y404642D01*
X457329Y403686D01*
X457870Y402875D01*
X458681Y402334D01*
X459636Y402144D01*
X464436D01*
X465392Y402334D01*
X466203Y402875D01*
X466744Y403686D01*
X466934Y404642D01*
X466744Y405598D01*
X466203Y406408D01*
X465392Y406950D01*
X464436Y407140D01*
D02*
G37*
G36*
X513947Y398358D02*
X513350D01*
X512799Y398130D01*
X512543Y397875D01*
X512288Y398130D01*
X511737Y398358D01*
X511140D01*
X510589Y398130D01*
X510167Y397708D01*
X509938Y397157D01*
Y396560D01*
X510167Y396009D01*
X510589Y395587D01*
X511140Y395358D01*
X511737D01*
X512288Y395587D01*
X512543Y395842D01*
X512799Y395587D01*
X513350Y395358D01*
X513947D01*
X514498Y395587D01*
X514920Y396009D01*
X515148Y396560D01*
Y397157D01*
X514920Y397708D01*
X514498Y398130D01*
X513947Y398358D01*
D02*
G37*
G36*
X459658Y397252D02*
X459107D01*
X458598Y397042D01*
X458208Y396652D01*
X457997Y396142D01*
Y395591D01*
X458208Y395082D01*
X458350Y394940D01*
X458498Y394523D01*
X458147Y393851D01*
X457105Y393750D01*
X456859Y393996D01*
X456350Y394207D01*
X455798D01*
X455289Y393996D01*
X454899Y393606D01*
X454688Y393097D01*
Y392546D01*
X454899Y392037D01*
X455289Y391647D01*
X455798Y391436D01*
X456350D01*
X456859Y391647D01*
X457249Y392037D01*
X458296D01*
X458686Y391647D01*
X459195Y391436D01*
X459746D01*
X460256Y391647D01*
X460645Y392037D01*
X461692D01*
X462082Y391647D01*
X462592Y391436D01*
X463143D01*
X463652Y391647D01*
X464042Y392037D01*
X464253Y392546D01*
Y393097D01*
X464042Y393606D01*
X463652Y393996D01*
X463143Y394207D01*
X462592D01*
X462082Y393996D01*
X461880Y393794D01*
X460798Y393861D01*
X460360Y394488D01*
X460467Y394991D01*
X460558Y395082D01*
X460769Y395591D01*
Y396142D01*
X460558Y396652D01*
X460168Y397042D01*
X459658Y397252D01*
D02*
G37*
G36*
X483809Y394051D02*
X483257D01*
X482748Y393840D01*
X482358Y393451D01*
X482147Y392941D01*
Y392390D01*
X482358Y391881D01*
X482748Y391491D01*
X483257Y391280D01*
X483809D01*
X484318Y391491D01*
X484708Y391881D01*
X484919Y392390D01*
Y392941D01*
X484708Y393451D01*
X484318Y393840D01*
X483809Y394051D01*
D02*
G37*
G36*
X535249Y393318D02*
X534652D01*
X534100Y393090D01*
X533678Y392668D01*
X533450Y392116D01*
Y391519D01*
X533678Y390968D01*
X534100Y390546D01*
X534652Y390318D01*
X535249D01*
X535800Y390546D01*
X536222Y390968D01*
X536450Y391519D01*
Y392116D01*
X536222Y392668D01*
X535800Y393090D01*
X535249Y393318D01*
D02*
G37*
G36*
X498299Y393408D02*
X497865D01*
X497465Y393242D01*
X497158Y392935D01*
X496992Y392534D01*
Y392100D01*
X497158Y391700D01*
X497196Y391662D01*
X497378Y391378D01*
X497393Y390797D01*
X497351Y390440D01*
X497234Y390158D01*
Y389724D01*
X497400Y389323D01*
X497707Y389016D01*
X498107Y388850D01*
X498541D01*
X498942Y389016D01*
X499249Y389323D01*
X499415Y389724D01*
Y390158D01*
X499249Y390559D01*
X499211Y390597D01*
X499029Y390880D01*
X499013Y391461D01*
X499056Y391818D01*
X499173Y392100D01*
Y392534D01*
X499007Y392935D01*
X498700Y393242D01*
X498299Y393408D01*
D02*
G37*
G36*
X492501Y393066D02*
X492067D01*
X491666Y392900D01*
X491360Y392593D01*
X491193Y392192D01*
Y391758D01*
X491360Y391357D01*
X491392Y391324D01*
X491568Y390703D01*
X491392Y390082D01*
X491360Y390049D01*
X491193Y389648D01*
Y389214D01*
X491360Y388813D01*
X491666Y388507D01*
X492067Y388340D01*
X492501D01*
X492902Y388507D01*
X493209Y388813D01*
X493375Y389214D01*
Y389648D01*
X493209Y390049D01*
X493176Y390082D01*
X493000Y390703D01*
X493176Y391324D01*
X493209Y391357D01*
X493375Y391758D01*
Y392192D01*
X493209Y392593D01*
X492902Y392900D01*
X492501Y393066D01*
D02*
G37*
G36*
X483251Y389077D02*
X482700D01*
X482190Y388866D01*
X481801Y388476D01*
X481590Y387967D01*
Y387416D01*
X481801Y386907D01*
X482190Y386517D01*
X482700Y386306D01*
X483251D01*
X483760Y386517D01*
X484150Y386907D01*
X484361Y387416D01*
Y387967D01*
X484150Y388476D01*
X483760Y388866D01*
X483251Y389077D01*
D02*
G37*
G36*
X518190Y387622D02*
X517594D01*
X517042Y387394D01*
X516620Y386972D01*
X516392Y386420D01*
Y385824D01*
X516620Y385272D01*
X517042Y384850D01*
X517594Y384622D01*
X518190D01*
X518742Y384850D01*
X519164Y385272D01*
X519392Y385824D01*
Y386420D01*
X519164Y386972D01*
X518742Y387394D01*
X518190Y387622D01*
D02*
G37*
G36*
X508804Y390591D02*
X504736Y390557D01*
X504197Y390029D01*
X504174Y382207D01*
X504174Y382084D01*
X504770Y381455D01*
X504913Y381456D01*
X510366Y381489D01*
X510343Y389029D01*
X508804Y390591D01*
D02*
G37*
G36*
X566956Y384019D02*
X566359D01*
X565808Y383791D01*
X565386Y383369D01*
X565158Y382818D01*
Y382221D01*
X565294Y381891D01*
X565313Y381841D01*
X565132Y381438D01*
X564525Y380886D01*
X564476Y380872D01*
X564355Y380872D01*
X563913D01*
X563362Y380643D01*
X562940Y380221D01*
X562711Y379670D01*
Y379073D01*
X562940Y378522D01*
X563362Y378100D01*
X563913Y377871D01*
X564510D01*
X565061Y378100D01*
X565483Y378522D01*
X565711Y379073D01*
Y379670D01*
X565575Y380000D01*
X565556Y380050D01*
X565737Y380453D01*
X566344Y381005D01*
X566393Y381019D01*
X566515Y381019D01*
X566956D01*
X567507Y381248D01*
X567929Y381670D01*
X568158Y382221D01*
Y382818D01*
X567929Y383369D01*
X567507Y383791D01*
X566956Y384019D01*
D02*
G37*
G36*
X511599Y376981D02*
X511048D01*
X510538Y376770D01*
X510149Y376380D01*
X509938Y375871D01*
Y375320D01*
X510149Y374810D01*
X510538Y374420D01*
X511048Y374209D01*
X511599D01*
X512108Y374420D01*
X512498Y374810D01*
X512709Y375320D01*
Y375871D01*
X512498Y376380D01*
X512108Y376770D01*
X511599Y376981D01*
D02*
G37*
G36*
X529546Y370117D02*
X528949D01*
X528398Y369889D01*
X527976Y369467D01*
X527747Y368916D01*
Y368319D01*
X527976Y367768D01*
X528398Y367346D01*
X528949Y367117D01*
X529546D01*
X530097Y367346D01*
X530519Y367768D01*
X530747Y368319D01*
Y368916D01*
X530519Y369467D01*
X530097Y369889D01*
X529546Y370117D01*
D02*
G37*
G36*
X497183Y369145D02*
X496586D01*
X496035Y368916D01*
X495613Y368494D01*
X495385Y367943D01*
Y367346D01*
X495613Y366795D01*
X496035Y366373D01*
X496586Y366145D01*
X497183D01*
X497734Y366373D01*
X498156Y366795D01*
X498385Y367346D01*
Y367943D01*
X498156Y368494D01*
X497734Y368916D01*
X497183Y369145D01*
D02*
G37*
G36*
X467511Y368312D02*
X466959D01*
X466450Y368101D01*
X466060Y367711D01*
X465849Y367202D01*
Y366651D01*
X466060Y366141D01*
X466450Y365752D01*
X466959Y365541D01*
X467511D01*
X468020Y365752D01*
X468410Y366141D01*
X468621Y366651D01*
Y367202D01*
X468410Y367711D01*
X468020Y368101D01*
X467511Y368312D01*
D02*
G37*
G36*
X516001Y369898D02*
X515528D01*
X515091Y369717D01*
X514757Y369383D01*
X514576Y368946D01*
Y368473D01*
X514757Y368036D01*
X515091Y367701D01*
X515114Y367595D01*
X515129Y366603D01*
X514958Y366432D01*
X514777Y365995D01*
Y365522D01*
X514958Y365085D01*
X515291Y364752D01*
X515292Y364751D01*
X515292Y364751D01*
X515729Y364570D01*
X515628Y363612D01*
X512223Y363628D01*
X511940Y363749D01*
X511746Y363753D01*
X511546Y364713D01*
X511546Y364757D01*
X511929Y365140D01*
X512140Y365649D01*
Y366200D01*
X511929Y366710D01*
X511539Y367099D01*
X511029Y367311D01*
X510478D01*
X509969Y367099D01*
X509969Y367099D01*
X509549Y366734D01*
X509180Y367038D01*
X508743Y367219D01*
X508270D01*
X507833Y367038D01*
X507498Y366704D01*
X507317Y366267D01*
Y365794D01*
X507471Y365422D01*
X507344Y365079D01*
X506994Y364447D01*
X505958Y364504D01*
X500231Y358818D01*
X500217Y358022D01*
X502953Y355247D01*
X503977Y355166D01*
X504920Y356082D01*
X521608Y356119D01*
X521651Y356051D01*
X521916Y355120D01*
X521725Y354929D01*
X521514Y354420D01*
Y353869D01*
X521725Y353359D01*
X522115Y352970D01*
X522624Y352759D01*
X523176D01*
X523685Y352970D01*
X523920Y353204D01*
X524154Y352971D01*
X524663Y352760D01*
X525214D01*
X525724Y352971D01*
X526114Y353360D01*
X526325Y353870D01*
Y354421D01*
X526114Y354930D01*
X525724Y355320D01*
X525214Y355531D01*
X524663D01*
X524643Y355523D01*
X524192Y355735D01*
X523983Y356920D01*
X525952Y358808D01*
X526103Y358952D01*
X526157Y359720D01*
X525976Y359894D01*
X520201Y365461D01*
X519581Y365488D01*
X517748Y363601D01*
X516295Y363608D01*
X516202Y364570D01*
X516639Y364751D01*
X516973Y365085D01*
X517155Y365522D01*
Y365995D01*
X516973Y366432D01*
X516639Y366767D01*
X516616Y366873D01*
X516602Y367865D01*
X516773Y368036D01*
X516954Y368473D01*
Y368946D01*
X516773Y369383D01*
X516438Y369717D01*
X516001Y369898D01*
D02*
G37*
G36*
X484296Y363935D02*
X483823D01*
X483386Y363754D01*
X483052Y363419D01*
X482871Y362982D01*
Y362509D01*
X483052Y362072D01*
X483386Y361738D01*
X483823Y361557D01*
X484296D01*
X484733Y361738D01*
X485068Y362072D01*
X485249Y362509D01*
Y362982D01*
X485068Y363419D01*
X484733Y363754D01*
X484296Y363935D01*
D02*
G37*
G36*
X468334Y363650D02*
X467783D01*
X467274Y363439D01*
X466884Y363049D01*
X466673Y362540D01*
Y361989D01*
X466884Y361479D01*
X467274Y361089D01*
X467783Y360878D01*
X468334D01*
X468844Y361089D01*
X469233Y361479D01*
X469444Y361989D01*
Y362540D01*
X469233Y363049D01*
X468844Y363439D01*
X468334Y363650D01*
D02*
G37*
G36*
X456538Y362320D02*
X455987D01*
X455478Y362109D01*
X455088Y361719D01*
X454877Y361210D01*
Y360658D01*
X455088Y360149D01*
X455478Y359759D01*
X455987Y359548D01*
X456538D01*
X457048Y359759D01*
X457438Y360149D01*
X457649Y360658D01*
Y361210D01*
X457438Y361719D01*
X457048Y362109D01*
X456538Y362320D01*
D02*
G37*
G36*
X478354Y363286D02*
X477881D01*
X477444Y363105D01*
X477109Y362770D01*
X476928Y362333D01*
Y361860D01*
X477109Y361423D01*
X477444Y361089D01*
X477646Y361005D01*
X477750Y360097D01*
X477730Y359970D01*
X477561Y359900D01*
X477226Y359565D01*
X477045Y359128D01*
Y358656D01*
X477226Y358219D01*
X477561Y357884D01*
X477998Y357703D01*
X478471D01*
X478908Y357884D01*
X479397Y358120D01*
X479840Y357838D01*
X480277Y357657D01*
X480750D01*
X481187Y357838D01*
X481521Y358173D01*
X481702Y358610D01*
Y359083D01*
X481521Y359520D01*
X481187Y359854D01*
X480750Y360035D01*
X480277D01*
X479840Y359854D01*
X479596Y359736D01*
X478951Y360095D01*
X478876Y360558D01*
X478859Y361157D01*
X479125Y361423D01*
X479306Y361860D01*
Y362333D01*
X479125Y362770D01*
X478791Y363105D01*
X478354Y363286D01*
D02*
G37*
G36*
X487714Y360769D02*
X487241D01*
X486804Y360588D01*
X486470Y360254D01*
X486289Y359816D01*
Y359343D01*
X486470Y358906D01*
X486748Y358513D01*
X486421Y358170D01*
X486421Y358170D01*
X486240Y357733D01*
Y357259D01*
X486421Y356822D01*
X486755Y356488D01*
X487192Y356307D01*
X487665D01*
X488102Y356488D01*
X488437Y356822D01*
X488618Y357259D01*
Y357733D01*
X488437Y358170D01*
X488158Y358562D01*
X488485Y358906D01*
X488485Y358906D01*
X488666Y359343D01*
Y359816D01*
X488485Y360254D01*
X488151Y360588D01*
X487714Y360769D01*
D02*
G37*
G36*
X468261Y358978D02*
X467710D01*
X467201Y358767D01*
X466811Y358377D01*
X466600Y357867D01*
Y357316D01*
X466811Y356807D01*
X467201Y356417D01*
X467710Y356206D01*
X468261D01*
X468771Y356417D01*
X469161Y356807D01*
X469372Y357316D01*
Y357867D01*
X469161Y358377D01*
X468771Y358767D01*
X468261Y358978D01*
D02*
G37*
G36*
X539164Y356623D02*
X538613D01*
X538103Y356412D01*
X537713Y356023D01*
X537502Y355513D01*
Y354962D01*
X537713Y354453D01*
X538103Y354063D01*
X538613Y353852D01*
X539164D01*
X539673Y354063D01*
X540063Y354453D01*
X540274Y354962D01*
Y355513D01*
X540063Y356023D01*
X539673Y356412D01*
X539164Y356623D01*
D02*
G37*
G36*
X461612Y355570D02*
X461015D01*
X460464Y355341D01*
X460042Y354919D01*
X459813Y354368D01*
Y353771D01*
X460042Y353220D01*
X460464Y352798D01*
X461015Y352570D01*
X461612D01*
X462163Y352798D01*
X462585Y353220D01*
X462813Y353771D01*
Y354368D01*
X462585Y354919D01*
X462163Y355341D01*
X461612Y355570D01*
D02*
G37*
G36*
X530265Y353233D02*
X529791D01*
X529354Y353052D01*
X529020Y352718D01*
X528839Y352281D01*
Y351808D01*
X529020Y351371D01*
X529354Y351037D01*
X529791Y350855D01*
X530265D01*
X530701Y351037D01*
X531036Y351371D01*
X531217Y351808D01*
Y352281D01*
X531036Y352718D01*
X530701Y353052D01*
X530265Y353233D01*
D02*
G37*
G36*
X525489Y351681D02*
X525055D01*
X524654Y351515D01*
X524347Y351209D01*
X524181Y350808D01*
Y350374D01*
X524347Y349973D01*
X524654Y349666D01*
X525055Y349500D01*
X525489D01*
X525889Y349666D01*
X526196Y349973D01*
X526362Y350374D01*
Y350808D01*
X526196Y351209D01*
X525889Y351515D01*
X525489Y351681D01*
D02*
G37*
G36*
X504915Y350105D02*
X504363D01*
X503854Y349894D01*
X503464Y349504D01*
X503253Y348995D01*
Y348444D01*
X503464Y347934D01*
X503854Y347545D01*
X504363Y347334D01*
X504915D01*
X505424Y347545D01*
X505814Y347934D01*
X506025Y348444D01*
Y348995D01*
X505814Y349504D01*
X505424Y349894D01*
X504915Y350105D01*
D02*
G37*
G36*
X551015Y348818D02*
X550419D01*
X549867Y348590D01*
X549445Y348168D01*
X549217Y347617D01*
Y347020D01*
X549445Y346469D01*
X549867Y346047D01*
X550419Y345818D01*
X551015D01*
X551567Y346047D01*
X551989Y346469D01*
X552217Y347020D01*
Y347617D01*
X551989Y348168D01*
X551567Y348590D01*
X551015Y348818D01*
D02*
G37*
G36*
X493860Y347862D02*
X493387D01*
X492950Y347681D01*
X492615Y347346D01*
X492434Y346909D01*
Y346437D01*
X492615Y346000D01*
X492950Y345665D01*
X493387Y345484D01*
X493860D01*
X494297Y345665D01*
X494631Y346000D01*
X494812Y346437D01*
Y346909D01*
X494631Y347346D01*
X494297Y347681D01*
X493860Y347862D01*
D02*
G37*
G36*
X516678Y346736D02*
X516126D01*
X515617Y346525D01*
X515227Y346135D01*
X515016Y345625D01*
Y345074D01*
X515227Y344565D01*
X515617Y344175D01*
X516126Y343964D01*
X516678D01*
X517187Y344175D01*
X517577Y344565D01*
X517788Y345074D01*
Y345625D01*
X517577Y346135D01*
X517187Y346525D01*
X516678Y346736D01*
D02*
G37*
G36*
X466808Y345749D02*
X466256D01*
X465747Y345538D01*
X465357Y345148D01*
X465146Y344638D01*
Y344087D01*
X465357Y343578D01*
X465747Y343188D01*
X466256Y342977D01*
X466808D01*
X467317Y343188D01*
X467574Y343445D01*
X467612Y343437D01*
X468002Y343047D01*
X468511Y342836D01*
X469062D01*
X469571Y343047D01*
X469961Y343437D01*
X470172Y343947D01*
Y344498D01*
X469961Y345007D01*
X469571Y345397D01*
X469062Y345608D01*
X468511D01*
X468002Y345397D01*
X467745Y345140D01*
X467707Y345148D01*
X467317Y345538D01*
X466808Y345749D01*
D02*
G37*
G36*
X485619Y349051D02*
X485146D01*
X484709Y348870D01*
X484374Y348535D01*
X484193Y348098D01*
Y347625D01*
X484374Y347188D01*
X484709Y346854D01*
X485135Y346677D01*
X485146Y346673D01*
X485146Y346673D01*
X485340D01*
X486124Y345882D01*
X486089Y345599D01*
X486089Y345599D01*
X486039Y345478D01*
X485908Y345162D01*
Y344689D01*
X486089Y344251D01*
X486424Y343917D01*
X486861Y343736D01*
X487334D01*
X487635Y343861D01*
X488031Y343794D01*
X488730Y343462D01*
X488816Y343254D01*
X489150Y342919D01*
X489587Y342738D01*
X490061D01*
X490497Y342919D01*
X490832Y343254D01*
X491013Y343691D01*
Y344164D01*
X490832Y344601D01*
X490497Y344935D01*
X490061Y345116D01*
X489587D01*
X489286Y344991D01*
X488890Y345059D01*
X488191Y345390D01*
X488105Y345599D01*
X487771Y345933D01*
X487344Y346110D01*
X487334Y346114D01*
X487334Y346114D01*
X487140D01*
X486356Y346905D01*
X486390Y347188D01*
X486390Y347188D01*
X486440Y347309D01*
X486571Y347625D01*
Y348098D01*
X486390Y348535D01*
X486056Y348870D01*
X485619Y349051D01*
D02*
G37*
G36*
X538789Y345042D02*
X538237D01*
X537728Y344831D01*
X537338Y344442D01*
X537127Y343932D01*
Y343381D01*
X537338Y342872D01*
X537728Y342482D01*
X538237Y342271D01*
X538789D01*
X539298Y342482D01*
X539688Y342872D01*
X539899Y343381D01*
Y343932D01*
X539688Y344442D01*
X539298Y344831D01*
X538789Y345042D01*
D02*
G37*
G36*
X510717Y340599D02*
X510244D01*
X509807Y340418D01*
X509473Y340083D01*
X509292Y339646D01*
Y339173D01*
X509473Y338736D01*
X509807Y338402D01*
X510244Y338221D01*
X510717D01*
X511154Y338402D01*
X511489Y338736D01*
X511670Y339173D01*
Y339646D01*
X511489Y340083D01*
X511154Y340418D01*
X510717Y340599D01*
D02*
G37*
G36*
X515955Y340057D02*
X515482D01*
X515045Y339876D01*
X514711Y339541D01*
X514530Y339104D01*
Y338631D01*
X514711Y338194D01*
X515045Y337860D01*
X515482Y337679D01*
X515955D01*
X516392Y337860D01*
X516727Y338194D01*
X516908Y338631D01*
Y339104D01*
X516727Y339541D01*
X516392Y339876D01*
X515955Y340057D01*
D02*
G37*
G36*
X547022Y351218D02*
X542844D01*
X542360Y350634D01*
X542337Y350579D01*
Y343408D01*
X543616Y342129D01*
Y340679D01*
X542403Y339467D01*
X540307D01*
X538493Y337652D01*
X537645Y338219D01*
X537693Y338334D01*
Y338886D01*
X537482Y339395D01*
X537092Y339785D01*
X536583Y339996D01*
X536031D01*
X535522Y339785D01*
X535132Y339395D01*
X534921Y338886D01*
Y338334D01*
X535132Y337825D01*
X535522Y337435D01*
X536031Y337224D01*
X536583D01*
X536698Y337272D01*
X537265Y336424D01*
X535328Y334487D01*
X534328Y334902D01*
Y335016D01*
X534117Y335525D01*
X533727Y335915D01*
X533218Y336126D01*
X532666D01*
X532157Y335915D01*
X531767Y335525D01*
X531556Y335016D01*
Y334464D01*
X531767Y333955D01*
X532086Y333636D01*
X532052Y333302D01*
X531786Y332636D01*
X529988D01*
X528651Y331299D01*
X528718Y322260D01*
X529872Y321106D01*
X535811D01*
X536407Y321702D01*
Y329397D01*
X540826Y333816D01*
X541826Y333401D01*
Y333271D01*
X542037Y332761D01*
X542427Y332371D01*
X542936Y332160D01*
X543487D01*
X543997Y332371D01*
X544386Y332761D01*
X544597Y333271D01*
Y333822D01*
X544386Y334331D01*
X543997Y334721D01*
X543848Y334783D01*
X543504Y335728D01*
X543508Y335924D01*
X543829Y336351D01*
X545160D01*
Y336552D01*
X548450Y339841D01*
X548444Y339847D01*
Y343308D01*
X547838Y343915D01*
X547860Y343937D01*
Y350408D01*
X547832D01*
X547022Y351218D01*
D02*
G37*
G36*
X524364Y338371D02*
X523891D01*
X523454Y338190D01*
X523119Y337855D01*
X522938Y337418D01*
Y336945D01*
X523119Y336508D01*
X523454Y336174D01*
X523891Y335993D01*
X524364D01*
X524503Y336051D01*
X524871Y336139D01*
X525638Y335764D01*
X525638Y335764D01*
X525721Y335680D01*
X526028Y335374D01*
X526537Y335163D01*
X527089D01*
X527598Y335374D01*
X527988Y335764D01*
X528199Y336273D01*
Y336824D01*
X527988Y337334D01*
X527598Y337723D01*
X527089Y337934D01*
X526537D01*
X526236Y337810D01*
X525324Y337847D01*
X525104Y337886D01*
X524801Y338190D01*
X524364Y338371D01*
D02*
G37*
G36*
X519822Y335272D02*
X519270D01*
X518761Y335061D01*
X518371Y334671D01*
X518160Y334162D01*
Y333611D01*
X518293Y333289D01*
X518098Y332828D01*
X518053Y332759D01*
X517690Y332368D01*
X517430D01*
X516993Y332187D01*
X516684Y331879D01*
X516659Y331853D01*
X516659Y331853D01*
X516654Y331840D01*
X516478Y331416D01*
X515517Y331451D01*
X515492Y331466D01*
X515311Y331903D01*
X515311Y331903D01*
X515305Y331909D01*
X514977Y332237D01*
X514540Y332418D01*
X514067D01*
X513630Y332237D01*
X513296Y331903D01*
X513115Y331466D01*
Y330993D01*
X513296Y330556D01*
X513630Y330221D01*
X513785Y330157D01*
X513885Y330116D01*
X513986Y329369D01*
X513951Y329088D01*
X513765Y329011D01*
X513431Y328677D01*
X513250Y328239D01*
Y327766D01*
X513431Y327329D01*
X513765Y326995D01*
X514202Y326814D01*
X514675D01*
X515112Y326995D01*
X515447Y327329D01*
X515628Y327766D01*
Y328239D01*
X515447Y328677D01*
X515112Y329011D01*
X514957Y329075D01*
X514858Y329116D01*
X514757Y329863D01*
X514791Y330144D01*
X514977Y330221D01*
X515286Y330530D01*
X515311Y330556D01*
X515311Y330556D01*
X515317Y330568D01*
X515492Y330993D01*
X516454Y330958D01*
X516478Y330943D01*
X516659Y330506D01*
X516659Y330506D01*
X516665Y330500D01*
X516993Y330171D01*
X517430Y329991D01*
X517903D01*
X518340Y330171D01*
X518675Y330506D01*
X518856Y330943D01*
Y331416D01*
X518769Y331626D01*
X519096Y332196D01*
X519170Y332291D01*
X519406Y332501D01*
X519822D01*
X520331Y332712D01*
X520721Y333102D01*
X520932Y333611D01*
Y334162D01*
X520721Y334671D01*
X520331Y335061D01*
X519822Y335272D01*
D02*
G37*
G36*
X554890Y337191D02*
X554294D01*
X553742Y336963D01*
X553320Y336541D01*
X553092Y335990D01*
Y335393D01*
X553170Y334363D01*
X552836Y334028D01*
X552655Y333591D01*
Y333118D01*
X552670Y333081D01*
X552738Y332906D01*
X552635Y332264D01*
X552411Y331799D01*
X552254Y331642D01*
X552073Y331205D01*
Y330732D01*
X552254Y330295D01*
X552589Y329960D01*
X553026Y329780D01*
X553499D01*
X553936Y329960D01*
X554270Y330295D01*
X554451Y330732D01*
Y331205D01*
X554436Y331242D01*
X554368Y331418D01*
X554471Y332059D01*
X554695Y332524D01*
X554851Y332681D01*
X555032Y333118D01*
Y333591D01*
X554918Y334073D01*
X555442Y334420D01*
X555864Y334842D01*
X556092Y335393D01*
Y335990D01*
X555864Y336541D01*
X555442Y336963D01*
X554890Y337191D01*
D02*
G37*
G36*
X475075Y331449D02*
X474603D01*
X474165Y331268D01*
X473831Y330934D01*
X473650Y330497D01*
Y330024D01*
X473831Y329587D01*
X474165Y329252D01*
X474603Y329071D01*
X475075D01*
X475513Y329252D01*
X475847Y329587D01*
X476028Y330024D01*
Y330497D01*
X475847Y330934D01*
X475513Y331268D01*
X475075Y331449D01*
D02*
G37*
G36*
X556254Y329735D02*
X555658D01*
X555106Y329507D01*
X554684Y329085D01*
X554456Y328533D01*
Y327937D01*
X554626Y327528D01*
X554192Y327348D01*
X553770Y326926D01*
X553542Y326375D01*
Y325778D01*
X553770Y325227D01*
X554192Y324805D01*
X554743Y324576D01*
X555340D01*
X555891Y324805D01*
X556313Y325227D01*
X556542Y325778D01*
Y326375D01*
X556372Y326784D01*
X556806Y326963D01*
X557228Y327385D01*
X557456Y327937D01*
Y328533D01*
X557228Y329085D01*
X556806Y329507D01*
X556254Y329735D01*
D02*
G37*
G36*
X543194Y326793D02*
X542597D01*
X542046Y326564D01*
X541624Y326142D01*
X541396Y325591D01*
Y324994D01*
X541624Y324443D01*
X542046Y324021D01*
X542597Y323793D01*
X543194D01*
X543746Y324021D01*
X544168Y324443D01*
X544396Y324994D01*
Y325591D01*
X544168Y326142D01*
X543746Y326564D01*
X543194Y326793D01*
D02*
G37*
G36*
X523066Y324408D02*
X522514D01*
X522005Y324197D01*
X521615Y323807D01*
X521404Y323298D01*
Y322746D01*
X521615Y322237D01*
X522005Y321847D01*
X522514Y321636D01*
X523066D01*
X523575Y321847D01*
X523965Y322237D01*
X524176Y322746D01*
Y323298D01*
X523965Y323807D01*
X523575Y324197D01*
X523066Y324408D01*
D02*
G37*
G36*
X473583Y324224D02*
X473031D01*
X472522Y324013D01*
X472132Y323623D01*
X471921Y323114D01*
Y322563D01*
X472132Y322054D01*
X472522Y321664D01*
X473031Y321453D01*
X473583D01*
X474092Y321664D01*
X474482Y322054D01*
X474693Y322563D01*
Y323114D01*
X474482Y323623D01*
X474092Y324013D01*
X473583Y324224D01*
D02*
G37*
G36*
X559637Y322808D02*
X559164D01*
X558727Y322627D01*
X558393Y322293D01*
X558212Y321856D01*
Y321383D01*
X558393Y320946D01*
X558727Y320611D01*
X559164Y320430D01*
X559637D01*
X560074Y320611D01*
X560408Y320946D01*
X560590Y321383D01*
Y321856D01*
X560408Y322293D01*
X560074Y322627D01*
X559637Y322808D01*
D02*
G37*
G36*
X518679Y321696D02*
X518127D01*
X517618Y321485D01*
X517228Y321095D01*
X517017Y320586D01*
Y320035D01*
X517228Y319526D01*
X517618Y319136D01*
X518127Y318925D01*
X518679D01*
X519188Y319136D01*
X519578Y319526D01*
X519789Y320035D01*
Y320586D01*
X519578Y321095D01*
X519188Y321485D01*
X518679Y321696D01*
D02*
G37*
G36*
X472815Y319299D02*
X472264D01*
X471754Y319088D01*
X471364Y318698D01*
X471153Y318189D01*
Y317638D01*
X471364Y317128D01*
X471754Y316739D01*
X472264Y316528D01*
X472815D01*
X473324Y316739D01*
X473714Y317128D01*
X473925Y317638D01*
Y318189D01*
X473714Y318698D01*
X473324Y319088D01*
X472815Y319299D01*
D02*
G37*
G36*
X466319Y322449D02*
X465768D01*
X465258Y322238D01*
X464868Y321848D01*
X464657Y321339D01*
Y320787D01*
X464868Y320278D01*
X465258Y319888D01*
X465540Y319771D01*
X465667Y318936D01*
X465640Y318730D01*
X465554Y318694D01*
X465164Y318305D01*
X464953Y317795D01*
Y317244D01*
X465164Y316735D01*
X465554Y316345D01*
X466063Y316134D01*
X466614D01*
X467124Y316345D01*
X467513Y316735D01*
X467724Y317244D01*
Y317795D01*
X467513Y318305D01*
X467124Y318694D01*
X466842Y318811D01*
X466714Y319646D01*
X466742Y319852D01*
X466828Y319888D01*
X467218Y320278D01*
X467429Y320787D01*
Y321339D01*
X467218Y321848D01*
X466828Y322238D01*
X466319Y322449D01*
D02*
G37*
G36*
X470256Y309949D02*
X469705D01*
X469195Y309738D01*
X468806Y309348D01*
X468595Y308839D01*
Y308287D01*
X468806Y307778D01*
X469195Y307388D01*
X469705Y307177D01*
X470256D01*
X470765Y307388D01*
X471155Y307778D01*
X471366Y308287D01*
Y308839D01*
X471155Y309348D01*
X470765Y309738D01*
X470256Y309949D01*
D02*
G37*
G36*
X475323Y302972D02*
X474771D01*
X474262Y302761D01*
X473872Y302371D01*
X473661Y301862D01*
Y301310D01*
X473872Y300801D01*
X474262Y300411D01*
X474771Y300200D01*
X475323D01*
X475832Y300411D01*
X476222Y300801D01*
X476433Y301310D01*
Y301862D01*
X476222Y302371D01*
X475832Y302761D01*
X475323Y302972D01*
D02*
G37*
G36*
X566200Y304348D02*
X565648D01*
X565139Y304137D01*
X564749Y303747D01*
X564538Y303238D01*
Y302686D01*
X564749Y302177D01*
X565046Y301880D01*
X564807Y301641D01*
X564596Y301132D01*
Y300581D01*
X564807Y300071D01*
X565197Y299681D01*
X565706Y299470D01*
X566257D01*
X566767Y299681D01*
X567157Y300071D01*
X567368Y300581D01*
Y301132D01*
X567157Y301641D01*
X566860Y301938D01*
X567099Y302177D01*
X567310Y302686D01*
Y303238D01*
X567099Y303747D01*
X566709Y304137D01*
X566200Y304348D01*
D02*
G37*
G36*
X520490Y299313D02*
X519938D01*
X519429Y299102D01*
X519039Y298712D01*
X518828Y298202D01*
Y297651D01*
X519039Y297142D01*
X519429Y296752D01*
X519938Y296541D01*
X520490D01*
X520999Y296752D01*
X521507Y297054D01*
X521971Y296708D01*
X522480Y296497D01*
X523031D01*
X523541Y296708D01*
X523931Y297098D01*
X524142Y297607D01*
Y298159D01*
X523931Y298668D01*
X523541Y299058D01*
X523031Y299269D01*
X522480D01*
X521971Y299058D01*
X521463Y298756D01*
X520999Y299102D01*
X520490Y299313D01*
D02*
G37*
G36*
X497597Y299601D02*
X497045D01*
X496536Y299390D01*
X496146Y299001D01*
X495935Y298491D01*
Y297940D01*
X496146Y297430D01*
X496296Y296788D01*
X496085Y296278D01*
Y295727D01*
X496296Y295218D01*
X496686Y294828D01*
X497195Y294617D01*
X497746D01*
X498255Y294828D01*
X498645Y295218D01*
X498856Y295727D01*
Y296278D01*
X498645Y296788D01*
X498496Y297430D01*
X498707Y297940D01*
Y298491D01*
X498496Y299001D01*
X498106Y299390D01*
X497597Y299601D01*
D02*
G37*
G36*
X495089Y286330D02*
X494538D01*
X494029Y286119D01*
X493639Y285729D01*
X493428Y285220D01*
Y284668D01*
X493639Y284159D01*
X494029Y283769D01*
X494538Y283558D01*
X495089D01*
X495599Y283769D01*
X495989Y284159D01*
X496200Y284668D01*
Y285220D01*
X495989Y285729D01*
X495599Y286119D01*
X495089Y286330D01*
D02*
G37*
G36*
X476353Y267100D02*
X475802D01*
X475293Y266889D01*
X474903Y266499D01*
X474692Y265989D01*
Y265438D01*
X474903Y264929D01*
X475293Y264539D01*
X475802Y264328D01*
X476353D01*
X476863Y264539D01*
X477252Y264929D01*
X477463Y265438D01*
Y265989D01*
X477252Y266499D01*
X476863Y266889D01*
X476353Y267100D01*
D02*
G37*
G36*
X493567Y266338D02*
X493016D01*
X492507Y266127D01*
X492117Y265737D01*
X491906Y265228D01*
Y264677D01*
X492117Y264167D01*
X492507Y263778D01*
X493016Y263567D01*
X493567D01*
X494077Y263778D01*
X494466Y264167D01*
X494677Y264677D01*
Y265228D01*
X494466Y265737D01*
X494077Y266127D01*
X493567Y266338D01*
D02*
G37*
G36*
X484522Y266312D02*
X483971D01*
X483462Y266101D01*
X483072Y265711D01*
X482861Y265202D01*
Y264651D01*
X483072Y264141D01*
X483462Y263752D01*
X483971Y263541D01*
X484522D01*
X485032Y263752D01*
X485422Y264141D01*
X485633Y264651D01*
Y265202D01*
X485422Y265711D01*
X485032Y266101D01*
X484522Y266312D01*
D02*
G37*
G36*
X460212Y268281D02*
X459660D01*
X459151Y268070D01*
X458761Y267680D01*
X458550Y267171D01*
Y266619D01*
X458761Y266110D01*
X459151Y265720D01*
X459285Y265664D01*
X459376Y264999D01*
X459371Y264585D01*
X459035Y264250D01*
X458824Y263741D01*
Y263189D01*
X459035Y262680D01*
X459425Y262290D01*
X459935Y262079D01*
X460486D01*
X460995Y262290D01*
X461385Y262680D01*
X461596Y263189D01*
Y263741D01*
X461385Y264250D01*
X460995Y264640D01*
X460861Y264696D01*
X460770Y265361D01*
X460776Y265775D01*
X461111Y266110D01*
X461322Y266619D01*
Y267171D01*
X461111Y267680D01*
X460721Y268070D01*
X460212Y268281D01*
D02*
G37*
G36*
X503440Y264669D02*
X502889D01*
X502380Y264458D01*
X501990Y264068D01*
X501779Y263559D01*
Y263007D01*
X501990Y262498D01*
X502380Y262108D01*
X502889Y261897D01*
X503440D01*
X503950Y262108D01*
X504340Y262498D01*
X504551Y263007D01*
Y263559D01*
X504340Y264068D01*
X503950Y264458D01*
X503440Y264669D01*
D02*
G37*
G36*
X555200Y282850D02*
Y259176D01*
X565380D01*
X565489Y259285D01*
Y282828D01*
X555200Y282850D01*
D02*
G37*
%LPD*%
D105*
X477785Y438657D02*
D03*
Y404642D02*
D03*
D106*
X462037Y438657D02*
D03*
Y404642D02*
D03*
D107*
X457204Y463037D02*
D03*
D108*
Y453037D02*
D03*
D109*
X567605Y340399D02*
D03*
X567803Y331900D02*
D03*
X497744Y387720D02*
D03*
X521876Y460466D02*
D03*
X521087Y468707D02*
D03*
X566658Y382519D02*
D03*
X567776Y328237D02*
D03*
X565097Y453525D02*
D03*
X564211Y379372D02*
D03*
X550717Y347318D02*
D03*
X555956Y328235D02*
D03*
X555042Y326076D02*
D03*
X554612Y338384D02*
D03*
X554592Y335691D02*
D03*
X547148Y366728D02*
D03*
X530674Y361049D02*
D03*
X513649Y396858D02*
D03*
X517095Y447736D02*
D03*
X497169Y376584D02*
D03*
X523586Y421379D02*
D03*
X506268Y327895D02*
D03*
X502240D02*
D03*
X502180Y332002D02*
D03*
X498152D02*
D03*
X494123D02*
D03*
X498211Y327895D02*
D03*
X494183D02*
D03*
X489628Y332002D02*
D03*
X490155Y327895D02*
D03*
X486066Y332002D02*
D03*
X486126Y327895D02*
D03*
X511438Y396858D02*
D03*
X543859Y305976D02*
D03*
X534950Y391818D02*
D03*
X533069Y377518D02*
D03*
X496884Y367645D02*
D03*
X556485Y456895D02*
D03*
X506209Y332002D02*
D03*
X562508Y465010D02*
D03*
X550140Y468198D02*
D03*
X566758Y461666D02*
D03*
X562482Y461679D02*
D03*
X566627Y464892D02*
D03*
X566417Y468289D02*
D03*
X562640Y468237D02*
D03*
X558652Y468224D02*
D03*
X554573Y468211D02*
D03*
X556391Y462592D02*
D03*
X548478Y462601D02*
D03*
X517457Y467904D02*
D03*
Y464203D02*
D03*
Y460502D02*
D03*
X521036Y463001D02*
D03*
X532772Y421330D02*
D03*
X461313Y354070D02*
D03*
X502253Y319131D02*
D03*
X490167D02*
D03*
X486139D02*
D03*
X494196D02*
D03*
X498224D02*
D03*
X506281D02*
D03*
X498358Y323424D02*
D03*
X486272D02*
D03*
X494329D02*
D03*
X490301D02*
D03*
X502386D02*
D03*
X506415D02*
D03*
X489951Y314448D02*
D03*
X493979D02*
D03*
X498008D02*
D03*
X502036D02*
D03*
X506065D02*
D03*
X485922D02*
D03*
X529247Y368617D02*
D03*
X517892Y386122D02*
D03*
X542896Y325293D02*
D03*
X561005Y456833D02*
D03*
X545614Y467233D02*
D03*
D110*
X565929Y320433D02*
D03*
X566039Y308558D02*
D03*
X568407Y311476D02*
D03*
X467986Y357592D02*
D03*
X466677Y347570D02*
D03*
X468989Y347727D02*
D03*
X466532Y344363D02*
D03*
X474234Y260238D02*
D03*
X460079Y259966D02*
D03*
X476078Y265714D02*
D03*
X508073Y348535D02*
D03*
X516402Y345350D02*
D03*
X467100Y417572D02*
D03*
X467174Y424452D02*
D03*
X514758Y322754D02*
D03*
X564918Y337030D02*
D03*
X520244Y329495D02*
D03*
X538888Y355238D02*
D03*
X512781Y425994D02*
D03*
X551614Y440660D02*
D03*
X532893Y359318D02*
D03*
X550429Y260375D02*
D03*
X547660Y260258D02*
D03*
X543212Y333546D02*
D03*
X538703Y349915D02*
D03*
X541593Y341317D02*
D03*
X544738Y343529D02*
D03*
X536307Y338610D02*
D03*
X530502Y329726D02*
D03*
X538513Y343657D02*
D03*
X505408Y296881D02*
D03*
X505388Y294109D02*
D03*
X505367Y291338D02*
D03*
X505626Y288578D02*
D03*
X507466Y286506D02*
D03*
X510204Y286072D02*
D03*
X512975D02*
D03*
X515747D02*
D03*
X518518D02*
D03*
X521290D02*
D03*
X524062D02*
D03*
X526833D02*
D03*
X529605D02*
D03*
X532377D02*
D03*
X535122Y285694D02*
D03*
X536416Y278645D02*
D03*
X539188D02*
D03*
X541507Y280162D02*
D03*
X544279D02*
D03*
X546532Y278548D02*
D03*
Y275776D02*
D03*
Y273005D02*
D03*
X545728Y262245D02*
D03*
X551482Y265563D02*
D03*
X551581Y268333D02*
D03*
X550844Y271005D02*
D03*
Y273777D02*
D03*
Y276548D02*
D03*
Y279320D02*
D03*
X550750Y282090D02*
D03*
X548941Y284190D02*
D03*
X546184Y284474D02*
D03*
X543413D02*
D03*
X540755Y285261D02*
D03*
X539156Y287525D02*
D03*
X531841Y290384D02*
D03*
X529069D02*
D03*
X526297D02*
D03*
X523526D02*
D03*
X520754D02*
D03*
X515211D02*
D03*
X512439D02*
D03*
X509674Y290570D02*
D03*
X507123Y303288D02*
D03*
X456142Y372881D02*
D03*
X462955Y387712D02*
D03*
X459383Y395867D02*
D03*
X459600Y372881D02*
D03*
X463057D02*
D03*
X462955Y382808D02*
D03*
X456118Y387712D02*
D03*
X459537D02*
D03*
X459497Y382808D02*
D03*
X462867Y392822D02*
D03*
X456074D02*
D03*
X456039Y382808D02*
D03*
X540757Y458763D02*
D03*
X551410Y414632D02*
D03*
X468128Y406431D02*
D03*
X510754Y365925D02*
D03*
X468059Y362264D02*
D03*
X549128Y309660D02*
D03*
X552403Y438734D02*
D03*
X511323Y375595D02*
D03*
X524985Y302799D02*
D03*
X524138Y305580D02*
D03*
X540815Y466797D02*
D03*
X538325Y425993D02*
D03*
X538927Y421162D02*
D03*
X543314Y420979D02*
D03*
X539411Y418176D02*
D03*
X542870Y425471D02*
D03*
X547367Y418176D02*
D03*
X543389D02*
D03*
X539444Y415424D02*
D03*
X543431Y415374D02*
D03*
X547434Y415257D02*
D03*
X546900Y411738D02*
D03*
X467449Y430559D02*
D03*
X467351Y413510D02*
D03*
X479895Y399959D02*
D03*
X467410Y410393D02*
D03*
X467386Y402371D02*
D03*
X474611Y434323D02*
D03*
X459471Y392822D02*
D03*
X466600Y442100D02*
D03*
X455233Y408100D02*
D03*
Y410690D02*
D03*
Y413280D02*
D03*
Y415870D02*
D03*
Y431410D02*
D03*
Y426230D02*
D03*
Y428820D02*
D03*
Y434000D02*
D03*
Y423640D02*
D03*
Y418460D02*
D03*
Y421050D02*
D03*
X466500Y446200D02*
D03*
X455250D02*
D03*
X462750D02*
D03*
X459000D02*
D03*
X477750D02*
D03*
X474000D02*
D03*
X470250D02*
D03*
X468550Y449100D02*
D03*
X472300D02*
D03*
X464800D02*
D03*
X476050D02*
D03*
X467025Y452750D02*
D03*
X470775D02*
D03*
X463275D02*
D03*
X474525D02*
D03*
X528966Y304522D02*
D03*
X455450Y399900D02*
D03*
X459200D02*
D03*
X466700D02*
D03*
X462021Y408914D02*
D03*
X458755Y408668D02*
D03*
X465376Y408489D02*
D03*
X468367Y434000D02*
D03*
X465083D02*
D03*
X461800D02*
D03*
X471650D02*
D03*
X458517D02*
D03*
X470350Y442100D02*
D03*
X474100D02*
D03*
X477850D02*
D03*
X459100D02*
D03*
X462850D02*
D03*
X455350D02*
D03*
X459527Y369355D02*
D03*
X520214Y297927D02*
D03*
X522756Y297883D02*
D03*
X517724Y291659D02*
D03*
X501551Y296088D02*
D03*
X501563Y298216D02*
D03*
X515737Y380228D02*
D03*
X467235Y366926D02*
D03*
X482975Y387691D02*
D03*
X483533Y392666D02*
D03*
X551085Y421736D02*
D03*
X509895Y294480D02*
D03*
X558695Y319259D02*
D03*
X547948Y295166D02*
D03*
X559677Y301780D02*
D03*
X559819Y307371D02*
D03*
X559400Y305228D02*
D03*
X559354Y314063D02*
D03*
X568008Y322826D02*
D03*
X565924Y302962D02*
D03*
X565982Y300856D02*
D03*
X504587Y305236D02*
D03*
X497471Y296003D02*
D03*
X497321Y298216D02*
D03*
X545665Y264897D02*
D03*
X515464Y423471D02*
D03*
X505688Y425974D02*
D03*
X538480Y270214D02*
D03*
X538393Y272758D02*
D03*
X538519Y267251D02*
D03*
X526866Y270214D02*
D03*
X526955Y267471D02*
D03*
X526829Y272978D02*
D03*
X505415Y445798D02*
D03*
X503049Y445809D02*
D03*
X535994Y290873D02*
D03*
X536013Y293284D02*
D03*
X522900Y354144D02*
D03*
X524939Y354145D02*
D03*
X509483Y369202D02*
D03*
X500492Y419783D02*
D03*
X488520Y447599D02*
D03*
X502730Y269532D02*
D03*
X538632Y320279D02*
D03*
X532942Y334740D02*
D03*
X492638Y432873D02*
D03*
X494077Y302806D02*
D03*
X481542Y293239D02*
D03*
X477212D02*
D03*
X485873D02*
D03*
X493292Y264952D02*
D03*
X475047Y301586D02*
D03*
X497768Y427425D02*
D03*
X521355Y435414D02*
D03*
X551117Y425693D02*
D03*
X554962Y443080D02*
D03*
X526813Y336549D02*
D03*
X525465Y320248D02*
D03*
X525038Y322643D02*
D03*
X522790Y323022D02*
D03*
X504639Y348719D02*
D03*
X456263Y360934D02*
D03*
X456105Y353641D02*
D03*
X544976Y270802D02*
D03*
X542417Y270901D02*
D03*
X522828Y270214D02*
D03*
X515109Y279239D02*
D03*
X559597Y299322D02*
D03*
X547948Y297529D02*
D03*
X503165Y263283D02*
D03*
X521343Y360713D02*
D03*
X542350Y411714D02*
D03*
X554962Y445691D02*
D03*
X551117Y431275D02*
D03*
X545374Y331673D02*
D03*
X544801Y462622D02*
D03*
X468786Y344222D02*
D03*
X513971Y439450D02*
D03*
X516530Y439148D02*
D03*
X503712Y438513D02*
D03*
X519546Y333887D02*
D03*
X455752Y344847D02*
D03*
X506714Y386122D02*
D03*
X518403Y320310D02*
D03*
X521962Y328653D02*
D03*
X544547Y437720D02*
D03*
X508101Y455695D02*
D03*
X534069Y451754D02*
D03*
X473307Y322838D02*
D03*
X469980Y308563D02*
D03*
X470079Y311417D02*
D03*
X472539Y317913D02*
D03*
X466043Y321063D02*
D03*
X460210Y263465D02*
D03*
X459936Y266895D02*
D03*
X484247Y264926D02*
D03*
X476268Y270044D02*
D03*
X494814Y284944D02*
D03*
X502607Y271991D02*
D03*
X520463Y271286D02*
D03*
X496949Y419783D02*
D03*
X466339Y317520D02*
D03*
D111*
X510481Y339410D02*
D03*
X513750Y345000D02*
D03*
X497972Y394416D02*
D03*
X498750Y375000D02*
D03*
X493333Y393659D02*
D03*
X562500Y442500D02*
D03*
Y427500D02*
D03*
Y412500D02*
D03*
Y382500D02*
D03*
Y292500D02*
D03*
X558750Y450000D02*
D03*
Y420000D02*
D03*
Y360000D02*
D03*
X555000Y352500D02*
D03*
X558750Y345000D02*
D03*
X555000Y292500D02*
D03*
X558750Y285000D02*
D03*
X547500Y397500D02*
D03*
X551250Y375000D02*
D03*
X547500Y322500D02*
D03*
Y292500D02*
D03*
X551250Y285000D02*
D03*
X540000Y397500D02*
D03*
X543750Y300000D02*
D03*
X540000Y262500D02*
D03*
X536250Y465000D02*
D03*
X532500Y397500D02*
D03*
Y382500D02*
D03*
Y292500D02*
D03*
X525000Y412500D02*
D03*
Y292500D02*
D03*
Y277500D02*
D03*
Y262500D02*
D03*
X517500Y277500D02*
D03*
Y262500D02*
D03*
X513750Y465000D02*
D03*
X510000Y442500D02*
D03*
X513750Y270000D02*
D03*
X510000Y262500D02*
D03*
X506250Y465000D02*
D03*
X502500Y442500D02*
D03*
X506250Y435000D02*
D03*
X502500Y427500D02*
D03*
Y382500D02*
D03*
Y292500D02*
D03*
X498750Y465000D02*
D03*
Y450000D02*
D03*
Y435000D02*
D03*
X495000Y412500D02*
D03*
X498750Y285000D02*
D03*
Y270000D02*
D03*
X491250Y300000D02*
D03*
Y285000D02*
D03*
X487500Y262500D02*
D03*
X480000Y457500D02*
D03*
Y442500D02*
D03*
X483750Y405000D02*
D03*
X480000Y307500D02*
D03*
Y277500D02*
D03*
X472500Y457500D02*
D03*
X476250Y360000D02*
D03*
X472500Y277500D02*
D03*
X465000Y457500D02*
D03*
Y427500D02*
D03*
X468750Y420000D02*
D03*
X465000Y412500D02*
D03*
Y397500D02*
D03*
Y367500D02*
D03*
Y352500D02*
D03*
Y307500D02*
D03*
Y292500D02*
D03*
X457500Y457500D02*
D03*
Y427500D02*
D03*
X461250Y420000D02*
D03*
X457500Y412500D02*
D03*
Y397500D02*
D03*
Y367500D02*
D03*
X461250Y345000D02*
D03*
Y315000D02*
D03*
X457500Y292500D02*
D03*
Y262500D02*
D03*
X499551Y351685D02*
D03*
X485265Y351681D02*
D03*
X485382Y347862D02*
D03*
X468431Y328834D02*
D03*
X465469Y328758D02*
D03*
X462570Y328834D02*
D03*
X471305Y329010D02*
D03*
X459755Y329064D02*
D03*
X457564Y330829D02*
D03*
X457364Y334234D02*
D03*
X457276Y337626D02*
D03*
X457652Y340117D02*
D03*
X467991Y341043D02*
D03*
X473586Y340831D02*
D03*
X553262Y330968D02*
D03*
X553843Y333355D02*
D03*
X559401Y321619D02*
D03*
X530028Y352044D02*
D03*
X515269Y301511D02*
D03*
X516886Y300418D02*
D03*
X518963Y300375D02*
D03*
X521017Y300353D02*
D03*
X522755Y300342D02*
D03*
X524908Y300145D02*
D03*
X527072Y300123D02*
D03*
X530427Y301763D02*
D03*
X532405Y308615D02*
D03*
X532558Y304626D02*
D03*
X532722Y306527D02*
D03*
X530809Y314287D02*
D03*
X523247Y314783D02*
D03*
X525302Y314844D02*
D03*
X521466Y314888D02*
D03*
X519466Y314954D02*
D03*
X517247Y314920D02*
D03*
X514242Y313172D02*
D03*
X515258Y314931D02*
D03*
X531670Y302919D02*
D03*
X529327Y300544D02*
D03*
X513804Y303046D02*
D03*
X524494Y310001D02*
D03*
X520403Y312370D02*
D03*
X512576Y304578D02*
D03*
Y306895D02*
D03*
X528844Y314693D02*
D03*
X526797Y314813D02*
D03*
X515966Y365759D02*
D03*
X484059Y362746D02*
D03*
X478117Y362097D02*
D03*
X487477Y359580D02*
D03*
X487429Y357496D02*
D03*
X489824Y343927D02*
D03*
X490220Y404364D02*
D03*
X487097Y344925D02*
D03*
X493009Y387376D02*
D03*
X476895Y337792D02*
D03*
X474839Y330260D02*
D03*
X473320Y328984D02*
D03*
X492363Y351685D02*
D03*
X480513Y358846D02*
D03*
X514439Y328003D02*
D03*
X514303Y331229D02*
D03*
X515719Y338868D02*
D03*
X532231Y411440D02*
D03*
X478234Y358892D02*
D03*
X508506Y366031D02*
D03*
X517667Y331179D02*
D03*
X524015Y447850D02*
D03*
X524127Y337182D02*
D03*
X493623Y346673D02*
D03*
X515765Y368709D02*
D03*
X471073Y340865D02*
D03*
X465250Y340936D02*
D03*
X536011Y455060D02*
D03*
X532704D02*
D03*
X461798Y340465D02*
D03*
X461925Y335048D02*
D03*
X459598Y334665D02*
D03*
D112*
X492284Y389431D02*
D03*
X538529Y439033D02*
D03*
X492284Y391975D02*
D03*
X498324Y389941D02*
D03*
X498082Y392317D02*
D03*
X525272Y350591D02*
D03*
M02*
